M48
; DRILL file {KiCad 9.0.4} date 2026-04-22T21:06:21+0200
; FORMAT={-:-/ absolute / metric / decimal}
; #@! TF.CreationDate,2026-04-22T21:06:21+02:00
; #@! TF.GenerationSoftware,Kicad,Pcbnew,9.0.4
; #@! TF.FileFunction,Plated,1,4,PTH
FMAT,2
METRIC
; #@! TA.AperFunction,Plated,PTH,ComponentDrill
T1C0.200
; #@! TA.AperFunction,Plated,PTH,ViaDrill
T2C0.300
; #@! TA.AperFunction,Plated,PTH,ComponentDrill
T3C0.600
; #@! TA.AperFunction,Plated,PTH,ComponentDrill
T4C0.800
; #@! TA.AperFunction,Plated,PTH,ComponentDrill
T5C1.000
%
G90
G05
T1
X126.064Y-94.914
X126.064Y-96.314
X126.764Y-94.214
X126.764Y-95.614
X126.764Y-97.014
X127.464Y-94.914
X127.464Y-96.314
X128.164Y-94.214
X128.164Y-95.614
X128.164Y-97.014
X128.864Y-94.914
X128.864Y-96.314
T2
X104.245Y-117.125
X111.608Y-122.535
X111.895Y-117.545
X114.074Y-112.889
X118.224Y-107.564
X120.879Y-80.745
X121.699Y-109.489
X123.698Y-105.263
X123.901Y-107.498
X123.995Y-82.545
X125.285Y-107.917
X125.395Y-82.545
X125.399Y-110.989
X126.644Y-106.533
X127.774Y-82.714
X127.835Y-118.505
X128.524Y-111.514
X129.545Y-106.895
X130.895Y-104.445
X131.045Y-106.645
X131.495Y-108.745
X133.706Y-107.828
X137.305Y-83.855
X139.295Y-102.395
X139.573Y-86.67
X139.645Y-90.546
X139.895Y-93.245
X140.215Y-110.665
X140.361Y-91.211
X141.148Y-121.442
X141.895Y-92.345
X142.599Y-116.914
X143.332Y-93.68
X144.755Y-117.074
X145.274Y-101.214
X145.595Y-82.745
X148.774Y-113.964
X153.995Y-122.445
X156.524Y-116.714
X157.895Y-102.545
X161.195Y-90.745
X161.274Y-116.714
X163.495Y-113.645
X164.745Y-120.095
X167.995Y-102.845
X169.095Y-119.595
X176.776Y-91.774
X176.852Y-109.783
X177.208Y-110.875
X177.815Y-123.135
X178.071Y-114.964
X179.9Y-85.3
X182.389Y-114.329
T4
X155.528Y-85.755
X155.528Y-88.295
X155.528Y-90.835
X155.528Y-93.375
X155.528Y-95.915
X155.528Y-98.455
X155.528Y-100.995
X155.528Y-103.535
X173.562Y-85.755
X173.562Y-88.295
X173.562Y-90.835
X173.562Y-93.375
X173.562Y-95.915
X173.562Y-98.455
X173.562Y-100.995
X173.562Y-103.535
T5
X106.934Y-107.314
X106.934Y-109.854
X106.934Y-112.394
X106.934Y-114.934
X106.934Y-117.474
X106.934Y-120.014
X106.934Y-122.554
X106.934Y-125.094
X143.395Y-86.005
X143.395Y-88.545
X147.395Y-85.98
X147.395Y-88.52
X151.395Y-86.005
X151.395Y-88.545
X155.93Y-107.895
X158.47Y-107.895
X179.418Y-89.234
X179.418Y-91.774
X179.418Y-94.314
X179.418Y-96.854
X179.418Y-99.394
X179.418Y-101.934
X179.418Y-104.474
X179.418Y-107.014
T3
G00X130.769Y-120.156
M15
G01X130.769Y-121.256
M16
G05
G00X130.769Y-124.476
M15
G01X130.769Y-125.276
M16
G05
G00X139.419Y-120.156
M15
G01X139.419Y-121.256
M16
G05
G00X139.419Y-124.476
M15
G01X139.419Y-125.276
M16
G05
M30
