%TF.GenerationSoftware,KiCad,Pcbnew,9.0.4*%
%TF.CreationDate,2026-04-22T21:06:27+02:00*%
%TF.ProjectId,JoeHocker,4a6f6548-6f63-46b6-9572-2e6b69636164,rev?*%
%TF.SameCoordinates,Original*%
%TF.FileFunction,Legend,Bot*%
%TF.FilePolarity,Positive*%
%FSLAX46Y46*%
G04 Gerber Fmt 4.6, Leading zero omitted, Abs format (unit mm)*
G04 Created by KiCad (PCBNEW 9.0.4) date 2026-04-22 21:06:27*
%MOMM*%
%LPD*%
G01*
G04 APERTURE LIST*
%ADD10C,0.150000*%
%ADD11C,0.120000*%
%ADD12C,0.127000*%
%ADD13C,0.200000*%
G04 APERTURE END LIST*
D10*
X167609626Y-96803897D02*
X167609626Y-95903897D01*
X167609626Y-95903897D02*
X167395340Y-95903897D01*
X167395340Y-95903897D02*
X167266769Y-95946754D01*
X167266769Y-95946754D02*
X167181054Y-96032468D01*
X167181054Y-96032468D02*
X167138197Y-96118182D01*
X167138197Y-96118182D02*
X167095340Y-96289611D01*
X167095340Y-96289611D02*
X167095340Y-96418182D01*
X167095340Y-96418182D02*
X167138197Y-96589611D01*
X167138197Y-96589611D02*
X167181054Y-96675325D01*
X167181054Y-96675325D02*
X167266769Y-96761040D01*
X167266769Y-96761040D02*
X167395340Y-96803897D01*
X167395340Y-96803897D02*
X167609626Y-96803897D01*
X166409626Y-96332468D02*
X166709626Y-96332468D01*
X166709626Y-96803897D02*
X166709626Y-95903897D01*
X166709626Y-95903897D02*
X166281054Y-95903897D01*
X165938197Y-96803897D02*
X165938197Y-95903897D01*
X165938197Y-95903897D02*
X165595340Y-95903897D01*
X165595340Y-95903897D02*
X165509625Y-95946754D01*
X165509625Y-95946754D02*
X165466768Y-95989611D01*
X165466768Y-95989611D02*
X165423911Y-96075325D01*
X165423911Y-96075325D02*
X165423911Y-96203897D01*
X165423911Y-96203897D02*
X165466768Y-96289611D01*
X165466768Y-96289611D02*
X165509625Y-96332468D01*
X165509625Y-96332468D02*
X165595340Y-96375325D01*
X165595340Y-96375325D02*
X165938197Y-96375325D01*
X164609625Y-96803897D02*
X165038197Y-96803897D01*
X165038197Y-96803897D02*
X165038197Y-95903897D01*
X164352483Y-96546754D02*
X163923912Y-96546754D01*
X164438197Y-96803897D02*
X164138197Y-95903897D01*
X164138197Y-95903897D02*
X163838197Y-96803897D01*
X163366768Y-96375325D02*
X163366768Y-96803897D01*
X163666768Y-95903897D02*
X163366768Y-96375325D01*
X163366768Y-96375325D02*
X163066768Y-95903897D01*
X162766768Y-96332468D02*
X162466768Y-96332468D01*
X162338196Y-96803897D02*
X162766768Y-96803897D01*
X162766768Y-96803897D02*
X162766768Y-95903897D01*
X162766768Y-95903897D02*
X162338196Y-95903897D01*
X161438196Y-96803897D02*
X161738196Y-96375325D01*
X161952482Y-96803897D02*
X161952482Y-95903897D01*
X161952482Y-95903897D02*
X161609625Y-95903897D01*
X161609625Y-95903897D02*
X161523910Y-95946754D01*
X161523910Y-95946754D02*
X161481053Y-95989611D01*
X161481053Y-95989611D02*
X161438196Y-96075325D01*
X161438196Y-96075325D02*
X161438196Y-96203897D01*
X161438196Y-96203897D02*
X161481053Y-96289611D01*
X161481053Y-96289611D02*
X161523910Y-96332468D01*
X161523910Y-96332468D02*
X161609625Y-96375325D01*
X161609625Y-96375325D02*
X161952482Y-96375325D01*
G36*
X155082243Y-110351682D02*
G01*
X154870186Y-110351682D01*
X154820718Y-110326948D01*
X154799835Y-110306065D01*
X154775100Y-110256595D01*
X154775100Y-110177721D01*
X154799835Y-110128251D01*
X154820718Y-110107369D01*
X154870186Y-110082635D01*
X155082243Y-110082635D01*
X155082243Y-110351682D01*
G37*
G36*
X157300806Y-110504063D02*
G01*
X157127967Y-110504063D01*
X157214386Y-110244805D01*
X157300806Y-110504063D01*
G37*
G36*
X158815577Y-110351682D02*
G01*
X158603520Y-110351682D01*
X158554052Y-110326948D01*
X158533169Y-110306065D01*
X158508434Y-110256595D01*
X158508434Y-110177721D01*
X158533169Y-110128251D01*
X158554052Y-110107369D01*
X158603520Y-110082635D01*
X158815577Y-110082635D01*
X158815577Y-110351682D01*
G37*
G36*
X159854467Y-110971524D02*
G01*
X154536211Y-110971524D01*
X154536211Y-110160016D01*
X154625100Y-110160016D01*
X154625100Y-110274301D01*
X154626541Y-110288933D01*
X154627571Y-110291421D01*
X154627763Y-110294111D01*
X154633018Y-110307842D01*
X154671114Y-110384033D01*
X154675077Y-110390329D01*
X154675836Y-110392160D01*
X154677527Y-110394221D01*
X154678947Y-110396476D01*
X154680442Y-110397772D01*
X154685163Y-110403525D01*
X154723258Y-110441620D01*
X154729007Y-110446338D01*
X154730307Y-110447837D01*
X154732566Y-110449258D01*
X154734623Y-110450947D01*
X154736450Y-110451704D01*
X154742750Y-110455669D01*
X154818940Y-110493764D01*
X154826291Y-110496577D01*
X154638658Y-110764625D01*
X154631447Y-110777439D01*
X154625118Y-110806010D01*
X154630203Y-110834827D01*
X154645930Y-110859506D01*
X154669904Y-110876288D01*
X154698475Y-110882617D01*
X154727292Y-110877532D01*
X154751971Y-110861805D01*
X154761542Y-110850645D01*
X155005816Y-110501682D01*
X155082243Y-110501682D01*
X155082243Y-110807635D01*
X155083684Y-110822267D01*
X155094883Y-110849303D01*
X155115575Y-110869995D01*
X155142611Y-110881194D01*
X155171875Y-110881194D01*
X155198911Y-110869995D01*
X155219603Y-110849303D01*
X155230802Y-110822267D01*
X155232243Y-110807635D01*
X155232243Y-110007635D01*
X155230802Y-109993003D01*
X155426542Y-109993003D01*
X155426542Y-110022267D01*
X155437741Y-110049303D01*
X155458433Y-110069995D01*
X155485469Y-110081194D01*
X155500101Y-110082635D01*
X155806053Y-110082635D01*
X155806053Y-110313587D01*
X155614387Y-110313587D01*
X155599755Y-110315028D01*
X155572719Y-110326227D01*
X155552027Y-110346919D01*
X155540828Y-110373955D01*
X155540828Y-110403219D01*
X155552027Y-110430255D01*
X155572719Y-110450947D01*
X155599755Y-110462146D01*
X155614387Y-110463587D01*
X155806053Y-110463587D01*
X155806053Y-110732635D01*
X155500101Y-110732635D01*
X155485469Y-110734076D01*
X155458433Y-110745275D01*
X155437741Y-110765967D01*
X155426542Y-110793003D01*
X155426542Y-110822267D01*
X155437741Y-110849303D01*
X155458433Y-110869995D01*
X155485469Y-110881194D01*
X155500101Y-110882635D01*
X155881053Y-110882635D01*
X155895685Y-110881194D01*
X155922721Y-110869995D01*
X155943413Y-110849303D01*
X155954612Y-110822267D01*
X155956053Y-110807635D01*
X155956053Y-110803553D01*
X156149021Y-110803553D01*
X156153160Y-110832522D01*
X156168069Y-110857703D01*
X156191480Y-110875261D01*
X156219828Y-110882524D01*
X156248797Y-110878385D01*
X156273978Y-110863476D01*
X156283910Y-110852635D01*
X156574882Y-110464673D01*
X156606053Y-110495844D01*
X156606053Y-110807635D01*
X156607494Y-110822267D01*
X156618693Y-110849303D01*
X156639385Y-110869995D01*
X156666421Y-110881194D01*
X156695685Y-110881194D01*
X156722721Y-110869995D01*
X156743413Y-110849303D01*
X156754612Y-110822267D01*
X156756053Y-110807635D01*
X156756053Y-110798255D01*
X156873309Y-110798255D01*
X156875384Y-110827445D01*
X156888470Y-110853618D01*
X156910578Y-110872792D01*
X156938340Y-110882046D01*
X156967530Y-110879971D01*
X156993703Y-110866885D01*
X157012877Y-110844777D01*
X157018871Y-110831352D01*
X157077967Y-110654063D01*
X157350806Y-110654063D01*
X157409902Y-110831352D01*
X157415896Y-110844777D01*
X157435070Y-110866885D01*
X157461243Y-110879971D01*
X157490433Y-110882046D01*
X157518196Y-110872792D01*
X157540303Y-110853618D01*
X157553389Y-110827445D01*
X157555464Y-110798255D01*
X157552204Y-110783918D01*
X157288565Y-109993003D01*
X157636066Y-109993003D01*
X157636066Y-110022267D01*
X157647265Y-110049303D01*
X157667957Y-110069995D01*
X157694993Y-110081194D01*
X157709625Y-110082635D01*
X158015577Y-110082635D01*
X158015577Y-110313587D01*
X157823911Y-110313587D01*
X157809279Y-110315028D01*
X157782243Y-110326227D01*
X157761551Y-110346919D01*
X157750352Y-110373955D01*
X157750352Y-110403219D01*
X157761551Y-110430255D01*
X157782243Y-110450947D01*
X157809279Y-110462146D01*
X157823911Y-110463587D01*
X158015577Y-110463587D01*
X158015577Y-110732635D01*
X157709625Y-110732635D01*
X157694993Y-110734076D01*
X157667957Y-110745275D01*
X157647265Y-110765967D01*
X157636066Y-110793003D01*
X157636066Y-110822267D01*
X157647265Y-110849303D01*
X157667957Y-110869995D01*
X157694993Y-110881194D01*
X157709625Y-110882635D01*
X158090577Y-110882635D01*
X158105209Y-110881194D01*
X158132245Y-110869995D01*
X158152937Y-110849303D01*
X158164136Y-110822267D01*
X158165577Y-110807635D01*
X158165577Y-110160016D01*
X158358434Y-110160016D01*
X158358434Y-110274301D01*
X158359875Y-110288933D01*
X158360905Y-110291421D01*
X158361097Y-110294111D01*
X158366352Y-110307842D01*
X158404448Y-110384033D01*
X158408411Y-110390329D01*
X158409170Y-110392160D01*
X158410861Y-110394221D01*
X158412281Y-110396476D01*
X158413776Y-110397772D01*
X158418497Y-110403525D01*
X158456592Y-110441620D01*
X158462341Y-110446338D01*
X158463641Y-110447837D01*
X158465900Y-110449258D01*
X158467957Y-110450947D01*
X158469784Y-110451704D01*
X158476084Y-110455669D01*
X158552274Y-110493764D01*
X158566006Y-110499019D01*
X158568693Y-110499209D01*
X158571183Y-110500241D01*
X158585815Y-110501682D01*
X158815577Y-110501682D01*
X158815577Y-110807635D01*
X158817018Y-110822267D01*
X158828217Y-110849303D01*
X158848909Y-110869995D01*
X158875945Y-110881194D01*
X158905209Y-110881194D01*
X158932245Y-110869995D01*
X158952937Y-110849303D01*
X158964136Y-110822267D01*
X158965577Y-110807635D01*
X158965577Y-110579063D01*
X159158435Y-110579063D01*
X159158435Y-110655254D01*
X159159876Y-110669886D01*
X159160907Y-110672375D01*
X159161098Y-110675063D01*
X159166353Y-110688795D01*
X159204448Y-110764985D01*
X159208411Y-110771281D01*
X159209169Y-110773111D01*
X159210858Y-110775169D01*
X159212280Y-110777428D01*
X159213778Y-110778727D01*
X159218496Y-110784476D01*
X159256591Y-110822572D01*
X159262342Y-110827292D01*
X159263641Y-110828790D01*
X159265896Y-110830209D01*
X159267956Y-110831900D01*
X159269786Y-110832658D01*
X159276084Y-110836622D01*
X159352275Y-110874717D01*
X159366007Y-110879972D01*
X159368694Y-110880162D01*
X159371184Y-110881194D01*
X159385816Y-110882635D01*
X159576292Y-110882635D01*
X159583697Y-110881905D01*
X159585672Y-110882046D01*
X159588269Y-110881455D01*
X159590924Y-110881194D01*
X159592755Y-110880435D01*
X159600009Y-110878786D01*
X159714295Y-110840691D01*
X159727720Y-110834697D01*
X159749828Y-110815523D01*
X159762914Y-110789350D01*
X159764989Y-110760160D01*
X159755735Y-110732398D01*
X159736562Y-110710290D01*
X159710388Y-110697204D01*
X159681198Y-110695129D01*
X159666861Y-110698389D01*
X159564122Y-110732635D01*
X159403521Y-110732635D01*
X159354052Y-110707901D01*
X159333169Y-110687017D01*
X159308435Y-110637549D01*
X159308435Y-110596768D01*
X159333169Y-110547300D01*
X159354052Y-110526416D01*
X159411992Y-110497446D01*
X159556387Y-110461348D01*
X159557466Y-110460962D01*
X159558006Y-110460924D01*
X159564087Y-110458596D01*
X159570233Y-110456401D01*
X159570668Y-110456078D01*
X159571738Y-110455669D01*
X159647928Y-110417574D01*
X159654227Y-110413609D01*
X159656055Y-110412852D01*
X159658111Y-110411163D01*
X159660371Y-110409742D01*
X159661670Y-110408243D01*
X159667420Y-110403525D01*
X159705515Y-110365430D01*
X159710235Y-110359677D01*
X159711731Y-110358381D01*
X159713150Y-110356126D01*
X159714842Y-110354065D01*
X159715600Y-110352234D01*
X159719564Y-110345938D01*
X159757660Y-110269748D01*
X159762915Y-110256016D01*
X159763106Y-110253326D01*
X159764137Y-110250838D01*
X159765578Y-110236206D01*
X159765578Y-110160016D01*
X159764137Y-110145384D01*
X159763106Y-110142895D01*
X159762915Y-110140206D01*
X159757660Y-110126474D01*
X159719564Y-110050284D01*
X159715600Y-110043987D01*
X159714842Y-110042157D01*
X159713150Y-110040095D01*
X159711731Y-110037841D01*
X159710235Y-110036544D01*
X159705515Y-110030792D01*
X159667420Y-109992697D01*
X159661670Y-109987978D01*
X159660371Y-109986480D01*
X159658111Y-109985058D01*
X159656055Y-109983370D01*
X159654227Y-109982612D01*
X159647928Y-109978648D01*
X159571738Y-109940553D01*
X159558006Y-109935298D01*
X159555318Y-109935107D01*
X159552829Y-109934076D01*
X159538197Y-109932635D01*
X159347720Y-109932635D01*
X159340314Y-109933364D01*
X159338340Y-109933224D01*
X159335742Y-109933814D01*
X159333088Y-109934076D01*
X159331256Y-109934834D01*
X159324003Y-109936484D01*
X159209718Y-109974579D01*
X159196292Y-109980573D01*
X159174185Y-109999747D01*
X159161099Y-110025920D01*
X159159024Y-110055110D01*
X159168278Y-110082873D01*
X159187452Y-110104980D01*
X159213625Y-110118066D01*
X159242815Y-110120141D01*
X159257152Y-110116881D01*
X159359890Y-110082635D01*
X159520492Y-110082635D01*
X159569960Y-110107369D01*
X159590843Y-110128252D01*
X159615578Y-110177721D01*
X159615578Y-110218500D01*
X159590843Y-110267969D01*
X159569960Y-110288853D01*
X159512021Y-110317822D01*
X159367626Y-110353921D01*
X159366546Y-110354306D01*
X159366006Y-110354345D01*
X159359910Y-110356677D01*
X159353780Y-110358868D01*
X159353345Y-110359189D01*
X159352274Y-110359600D01*
X159276084Y-110397696D01*
X159269787Y-110401659D01*
X159267957Y-110402418D01*
X159265895Y-110404109D01*
X159263641Y-110405529D01*
X159262344Y-110407024D01*
X159256592Y-110411745D01*
X159218497Y-110449840D01*
X159213778Y-110455589D01*
X159212280Y-110456889D01*
X159210858Y-110459148D01*
X159209170Y-110461205D01*
X159208412Y-110463032D01*
X159204448Y-110469332D01*
X159166353Y-110545522D01*
X159161098Y-110559254D01*
X159160907Y-110561941D01*
X159159876Y-110564431D01*
X159158435Y-110579063D01*
X158965577Y-110579063D01*
X158965577Y-110007635D01*
X158964136Y-109993003D01*
X158952937Y-109965967D01*
X158932245Y-109945275D01*
X158905209Y-109934076D01*
X158890577Y-109932635D01*
X158585815Y-109932635D01*
X158571183Y-109934076D01*
X158568693Y-109935107D01*
X158566006Y-109935298D01*
X158552274Y-109940553D01*
X158476084Y-109978648D01*
X158469784Y-109982612D01*
X158467957Y-109983370D01*
X158465900Y-109985058D01*
X158463641Y-109986480D01*
X158462341Y-109987978D01*
X158456592Y-109992697D01*
X158418497Y-110030792D01*
X158413776Y-110036544D01*
X158412281Y-110037841D01*
X158410861Y-110040095D01*
X158409170Y-110042157D01*
X158408411Y-110043987D01*
X158404448Y-110050284D01*
X158366352Y-110126475D01*
X158361097Y-110140206D01*
X158360905Y-110142895D01*
X158359875Y-110145384D01*
X158358434Y-110160016D01*
X158165577Y-110160016D01*
X158165577Y-110007635D01*
X158164136Y-109993003D01*
X158152937Y-109965967D01*
X158132245Y-109945275D01*
X158105209Y-109934076D01*
X158090577Y-109932635D01*
X157709625Y-109932635D01*
X157694993Y-109934076D01*
X157667957Y-109945275D01*
X157647265Y-109965967D01*
X157636066Y-109993003D01*
X157288565Y-109993003D01*
X157285537Y-109983918D01*
X157279543Y-109970492D01*
X157276033Y-109966445D01*
X157273636Y-109961651D01*
X157266528Y-109955487D01*
X157260369Y-109948385D01*
X157255577Y-109945989D01*
X157251529Y-109942478D01*
X157242605Y-109939503D01*
X157234196Y-109935299D01*
X157228851Y-109934919D01*
X157223766Y-109933224D01*
X157214383Y-109933890D01*
X157205006Y-109933224D01*
X157199923Y-109934918D01*
X157194576Y-109935298D01*
X157186162Y-109939504D01*
X157177243Y-109942478D01*
X157173195Y-109945988D01*
X157168403Y-109948385D01*
X157162240Y-109955489D01*
X157155136Y-109961652D01*
X157152740Y-109966443D01*
X157149229Y-109970492D01*
X157143235Y-109983918D01*
X156876569Y-110783918D01*
X156873309Y-110798255D01*
X156756053Y-110798255D01*
X156756053Y-110007635D01*
X156754612Y-109993003D01*
X156743413Y-109965967D01*
X156722721Y-109945275D01*
X156695685Y-109934076D01*
X156666421Y-109934076D01*
X156639385Y-109945275D01*
X156618693Y-109965967D01*
X156607494Y-109993003D01*
X156606053Y-110007635D01*
X156606053Y-110283712D01*
X156276943Y-109954602D01*
X156265578Y-109945275D01*
X156238541Y-109934076D01*
X156209279Y-109934076D01*
X156182242Y-109945275D01*
X156161550Y-109965967D01*
X156150351Y-109993004D01*
X156150351Y-110022266D01*
X156161550Y-110049303D01*
X156170877Y-110060668D01*
X156467739Y-110357530D01*
X156163910Y-110762635D01*
X156156284Y-110775205D01*
X156149021Y-110803553D01*
X155956053Y-110803553D01*
X155956053Y-110007635D01*
X155954612Y-109993003D01*
X155943413Y-109965967D01*
X155922721Y-109945275D01*
X155895685Y-109934076D01*
X155881053Y-109932635D01*
X155500101Y-109932635D01*
X155485469Y-109934076D01*
X155458433Y-109945275D01*
X155437741Y-109965967D01*
X155426542Y-109993003D01*
X155230802Y-109993003D01*
X155219603Y-109965967D01*
X155198911Y-109945275D01*
X155171875Y-109934076D01*
X155157243Y-109932635D01*
X154852481Y-109932635D01*
X154837849Y-109934076D01*
X154835359Y-109935107D01*
X154832672Y-109935298D01*
X154818940Y-109940553D01*
X154742750Y-109978648D01*
X154736450Y-109982612D01*
X154734623Y-109983370D01*
X154732566Y-109985058D01*
X154730307Y-109986480D01*
X154729007Y-109987978D01*
X154723258Y-109992697D01*
X154685163Y-110030792D01*
X154680442Y-110036544D01*
X154678947Y-110037841D01*
X154677527Y-110040095D01*
X154675836Y-110042157D01*
X154675077Y-110043987D01*
X154671114Y-110050284D01*
X154633018Y-110126475D01*
X154627763Y-110140206D01*
X154627571Y-110142895D01*
X154626541Y-110145384D01*
X154625100Y-110160016D01*
X154536211Y-110160016D01*
X154536211Y-109843746D01*
X159854467Y-109843746D01*
X159854467Y-110971524D01*
G37*
G36*
X144625896Y-91546524D02*
G01*
X142166225Y-91546524D01*
X142166225Y-91368003D01*
X142255114Y-91368003D01*
X142255114Y-91397267D01*
X142266313Y-91424303D01*
X142287005Y-91444995D01*
X142314041Y-91456194D01*
X142328673Y-91457635D01*
X142785816Y-91457635D01*
X142800448Y-91456194D01*
X142827484Y-91444995D01*
X142848176Y-91424303D01*
X142859375Y-91397267D01*
X142859375Y-91368003D01*
X142848176Y-91340967D01*
X142827484Y-91320275D01*
X142800448Y-91309076D01*
X142785816Y-91307635D01*
X142632244Y-91307635D01*
X142632244Y-90801795D01*
X142656592Y-90826144D01*
X142662341Y-90830862D01*
X142663641Y-90832361D01*
X142665900Y-90833782D01*
X142667957Y-90835471D01*
X142669784Y-90836228D01*
X142676084Y-90840193D01*
X142752275Y-90878288D01*
X142766007Y-90883543D01*
X142795197Y-90885617D01*
X142822958Y-90876363D01*
X142845066Y-90857190D01*
X142858153Y-90831015D01*
X142860227Y-90801825D01*
X142850973Y-90774064D01*
X142831800Y-90751956D01*
X142819357Y-90744124D01*
X142754052Y-90711471D01*
X142691720Y-90649140D01*
X142649253Y-90585439D01*
X142977535Y-90585439D01*
X142979523Y-90600007D01*
X143169999Y-91400006D01*
X143171728Y-91405025D01*
X143171968Y-91406828D01*
X143172910Y-91408456D01*
X143174789Y-91413907D01*
X143181175Y-91422731D01*
X143186630Y-91432153D01*
X143189687Y-91434493D01*
X143191946Y-91437614D01*
X143201221Y-91443321D01*
X143209868Y-91449940D01*
X143213588Y-91450932D01*
X143216868Y-91452950D01*
X143227622Y-91454674D01*
X143238144Y-91457480D01*
X143241959Y-91456973D01*
X143245763Y-91457583D01*
X143256357Y-91455060D01*
X143267152Y-91453626D01*
X143270485Y-91451695D01*
X143274231Y-91450804D01*
X143283051Y-91444421D01*
X143292477Y-91438964D01*
X143294817Y-91435906D01*
X143297938Y-91433648D01*
X143303645Y-91424372D01*
X143310264Y-91415726D01*
X143312289Y-91410326D01*
X143313274Y-91408726D01*
X143313561Y-91406934D01*
X143315427Y-91401960D01*
X143395339Y-91102285D01*
X143475253Y-91401960D01*
X143477118Y-91406935D01*
X143477406Y-91408726D01*
X143478390Y-91410325D01*
X143480416Y-91415727D01*
X143487036Y-91424375D01*
X143492742Y-91433648D01*
X143495862Y-91435906D01*
X143498203Y-91438964D01*
X143507624Y-91444418D01*
X143516449Y-91450805D01*
X143520196Y-91451697D01*
X143523528Y-91453626D01*
X143534321Y-91455060D01*
X143544917Y-91457583D01*
X143548718Y-91456973D01*
X143552537Y-91457481D01*
X143563068Y-91454672D01*
X143573812Y-91452950D01*
X143577088Y-91450934D01*
X143580812Y-91449941D01*
X143589464Y-91443317D01*
X143598734Y-91437614D01*
X143600990Y-91434495D01*
X143604050Y-91432154D01*
X143609507Y-91422727D01*
X143615891Y-91413907D01*
X143617768Y-91408458D01*
X143618712Y-91406829D01*
X143618951Y-91405025D01*
X143620681Y-91400007D01*
X143679239Y-91154063D01*
X143929864Y-91154063D01*
X143929864Y-91230254D01*
X143931305Y-91244886D01*
X143932336Y-91247375D01*
X143932527Y-91250063D01*
X143937782Y-91263795D01*
X143975877Y-91339985D01*
X143979840Y-91346281D01*
X143980598Y-91348111D01*
X143982287Y-91350169D01*
X143983709Y-91352428D01*
X143985207Y-91353727D01*
X143989925Y-91359476D01*
X144028020Y-91397572D01*
X144033771Y-91402292D01*
X144035070Y-91403790D01*
X144037325Y-91405209D01*
X144039385Y-91406900D01*
X144041215Y-91407658D01*
X144047513Y-91411622D01*
X144123704Y-91449717D01*
X144137436Y-91454972D01*
X144140123Y-91455162D01*
X144142613Y-91456194D01*
X144157245Y-91457635D01*
X144347721Y-91457635D01*
X144355126Y-91456905D01*
X144357101Y-91457046D01*
X144359698Y-91456455D01*
X144362353Y-91456194D01*
X144364184Y-91455435D01*
X144371438Y-91453786D01*
X144485724Y-91415691D01*
X144499149Y-91409697D01*
X144521257Y-91390523D01*
X144534343Y-91364350D01*
X144536418Y-91335160D01*
X144527164Y-91307398D01*
X144507991Y-91285290D01*
X144481817Y-91272204D01*
X144452627Y-91270129D01*
X144438290Y-91273389D01*
X144335551Y-91307635D01*
X144174950Y-91307635D01*
X144125481Y-91282901D01*
X144104598Y-91262017D01*
X144079864Y-91212549D01*
X144079864Y-91171768D01*
X144104598Y-91122300D01*
X144125481Y-91101416D01*
X144183421Y-91072446D01*
X144327816Y-91036348D01*
X144328895Y-91035962D01*
X144329435Y-91035924D01*
X144335516Y-91033596D01*
X144341662Y-91031401D01*
X144342097Y-91031078D01*
X144343167Y-91030669D01*
X144419357Y-90992574D01*
X144425656Y-90988609D01*
X144427484Y-90987852D01*
X144429540Y-90986163D01*
X144431800Y-90984742D01*
X144433099Y-90983243D01*
X144438849Y-90978525D01*
X144476944Y-90940430D01*
X144481664Y-90934677D01*
X144483160Y-90933381D01*
X144484579Y-90931126D01*
X144486271Y-90929065D01*
X144487029Y-90927234D01*
X144490993Y-90920938D01*
X144529089Y-90844748D01*
X144534344Y-90831016D01*
X144534535Y-90828326D01*
X144535566Y-90825838D01*
X144537007Y-90811206D01*
X144537007Y-90735016D01*
X144535566Y-90720384D01*
X144534535Y-90717895D01*
X144534344Y-90715206D01*
X144529089Y-90701474D01*
X144490993Y-90625284D01*
X144487029Y-90618987D01*
X144486271Y-90617157D01*
X144484579Y-90615095D01*
X144483160Y-90612841D01*
X144481664Y-90611544D01*
X144476944Y-90605792D01*
X144438849Y-90567697D01*
X144433099Y-90562978D01*
X144431800Y-90561480D01*
X144429540Y-90560058D01*
X144427484Y-90558370D01*
X144425656Y-90557612D01*
X144419357Y-90553648D01*
X144343167Y-90515553D01*
X144329435Y-90510298D01*
X144326747Y-90510107D01*
X144324258Y-90509076D01*
X144309626Y-90507635D01*
X144119149Y-90507635D01*
X144111743Y-90508364D01*
X144109769Y-90508224D01*
X144107171Y-90508814D01*
X144104517Y-90509076D01*
X144102685Y-90509834D01*
X144095432Y-90511484D01*
X143981147Y-90549579D01*
X143967721Y-90555573D01*
X143945614Y-90574747D01*
X143932528Y-90600920D01*
X143930453Y-90630110D01*
X143939707Y-90657873D01*
X143958881Y-90679980D01*
X143985054Y-90693066D01*
X144014244Y-90695141D01*
X144028581Y-90691881D01*
X144131319Y-90657635D01*
X144291921Y-90657635D01*
X144341389Y-90682369D01*
X144362272Y-90703252D01*
X144387007Y-90752721D01*
X144387007Y-90793500D01*
X144362272Y-90842969D01*
X144341389Y-90863853D01*
X144283450Y-90892822D01*
X144139055Y-90928921D01*
X144137975Y-90929306D01*
X144137435Y-90929345D01*
X144131339Y-90931677D01*
X144125209Y-90933868D01*
X144124774Y-90934189D01*
X144123703Y-90934600D01*
X144047513Y-90972696D01*
X144041216Y-90976659D01*
X144039386Y-90977418D01*
X144037324Y-90979109D01*
X144035070Y-90980529D01*
X144033773Y-90982024D01*
X144028021Y-90986745D01*
X143989926Y-91024840D01*
X143985207Y-91030589D01*
X143983709Y-91031889D01*
X143982287Y-91034148D01*
X143980599Y-91036205D01*
X143979841Y-91038032D01*
X143975877Y-91044332D01*
X143937782Y-91120522D01*
X143932527Y-91134254D01*
X143932336Y-91136941D01*
X143931305Y-91139431D01*
X143929864Y-91154063D01*
X143679239Y-91154063D01*
X143811157Y-90600007D01*
X143813145Y-90585439D01*
X143808512Y-90556544D01*
X143793176Y-90531622D01*
X143769469Y-90514466D01*
X143741001Y-90507687D01*
X143712106Y-90512320D01*
X143687184Y-90527656D01*
X143670027Y-90551363D01*
X143665237Y-90565264D01*
X143543604Y-91076119D01*
X143467808Y-90791881D01*
X143466522Y-90788453D01*
X143466331Y-90787012D01*
X143465339Y-90785299D01*
X143462645Y-90778115D01*
X143456631Y-90770258D01*
X143451669Y-90761687D01*
X143447809Y-90758732D01*
X143444858Y-90754877D01*
X143436295Y-90749919D01*
X143428431Y-90743900D01*
X143423734Y-90742647D01*
X143419533Y-90740215D01*
X143409726Y-90738912D01*
X143400156Y-90736360D01*
X143395337Y-90737000D01*
X143390525Y-90736361D01*
X143380964Y-90738910D01*
X143371147Y-90740215D01*
X143366941Y-90742649D01*
X143362249Y-90743901D01*
X143354389Y-90749916D01*
X143345822Y-90754877D01*
X143342868Y-90758735D01*
X143339011Y-90761688D01*
X143334052Y-90770253D01*
X143328035Y-90778114D01*
X143325338Y-90785303D01*
X143324349Y-90787013D01*
X143324157Y-90788452D01*
X143322872Y-90791881D01*
X143247075Y-91076118D01*
X143125443Y-90565263D01*
X143120653Y-90551363D01*
X143103496Y-90527656D01*
X143078574Y-90512320D01*
X143049679Y-90507687D01*
X143021211Y-90514465D01*
X142997504Y-90531622D01*
X142982168Y-90556544D01*
X142977535Y-90585439D01*
X142649253Y-90585439D01*
X142619648Y-90541032D01*
X142619613Y-90540989D01*
X142619604Y-90540967D01*
X142619552Y-90540915D01*
X142610332Y-90529657D01*
X142604162Y-90525525D01*
X142598912Y-90520275D01*
X142592122Y-90517462D01*
X142586017Y-90513374D01*
X142578736Y-90511917D01*
X142571876Y-90509076D01*
X142564527Y-90509076D01*
X142557322Y-90507635D01*
X142550038Y-90509076D01*
X142542612Y-90509076D01*
X142535823Y-90511887D01*
X142528615Y-90513314D01*
X142522436Y-90517433D01*
X142515576Y-90520275D01*
X142510380Y-90525470D01*
X142504266Y-90529547D01*
X142500134Y-90535716D01*
X142494884Y-90540967D01*
X142492071Y-90547756D01*
X142487983Y-90553862D01*
X142486526Y-90561142D01*
X142483685Y-90568003D01*
X142482259Y-90582481D01*
X142482244Y-90582557D01*
X142482249Y-90582582D01*
X142482244Y-90582635D01*
X142482244Y-91307635D01*
X142328673Y-91307635D01*
X142314041Y-91309076D01*
X142287005Y-91320275D01*
X142266313Y-91340967D01*
X142255114Y-91368003D01*
X142166225Y-91368003D01*
X142166225Y-90418746D01*
X144625896Y-90418746D01*
X144625896Y-91546524D01*
G37*
G36*
X148675896Y-91611524D02*
G01*
X146214784Y-91611524D01*
X146214784Y-90800016D01*
X146303673Y-90800016D01*
X146303673Y-90876206D01*
X146304402Y-90883611D01*
X146304262Y-90885586D01*
X146304852Y-90888183D01*
X146305114Y-90890838D01*
X146305872Y-90892669D01*
X146307522Y-90899923D01*
X146345617Y-91014209D01*
X146351611Y-91027634D01*
X146353376Y-91029669D01*
X146354408Y-91032160D01*
X146363735Y-91043525D01*
X146692845Y-91372635D01*
X146378673Y-91372635D01*
X146364041Y-91374076D01*
X146337005Y-91385275D01*
X146316313Y-91405967D01*
X146305114Y-91433003D01*
X146305114Y-91462267D01*
X146316313Y-91489303D01*
X146337005Y-91509995D01*
X146364041Y-91521194D01*
X146378673Y-91522635D01*
X146873911Y-91522635D01*
X146888543Y-91521194D01*
X146915579Y-91509996D01*
X146936272Y-91489303D01*
X146947470Y-91462267D01*
X146947470Y-91433004D01*
X146946513Y-91430694D01*
X146941637Y-91418921D01*
X146936272Y-91405967D01*
X146926944Y-91394602D01*
X146482320Y-90949978D01*
X146453673Y-90864036D01*
X146453673Y-90817720D01*
X146478407Y-90768251D01*
X146499289Y-90747369D01*
X146548759Y-90722635D01*
X146703825Y-90722635D01*
X146753293Y-90747369D01*
X146782784Y-90776859D01*
X146794149Y-90786186D01*
X146821185Y-90797384D01*
X146850448Y-90797384D01*
X146877484Y-90786185D01*
X146898177Y-90765492D01*
X146909375Y-90738455D01*
X146909375Y-90709192D01*
X146898176Y-90682156D01*
X146888848Y-90670791D01*
X146868495Y-90650439D01*
X147027535Y-90650439D01*
X147029523Y-90665007D01*
X147219999Y-91465006D01*
X147221728Y-91470025D01*
X147221968Y-91471828D01*
X147222910Y-91473456D01*
X147224789Y-91478907D01*
X147231175Y-91487731D01*
X147236630Y-91497153D01*
X147239687Y-91499493D01*
X147241946Y-91502614D01*
X147251221Y-91508321D01*
X147259868Y-91514940D01*
X147263588Y-91515932D01*
X147266868Y-91517950D01*
X147277622Y-91519674D01*
X147288144Y-91522480D01*
X147291959Y-91521973D01*
X147295763Y-91522583D01*
X147306357Y-91520060D01*
X147317152Y-91518626D01*
X147320485Y-91516695D01*
X147324231Y-91515804D01*
X147333051Y-91509421D01*
X147342477Y-91503964D01*
X147344817Y-91500906D01*
X147347938Y-91498648D01*
X147353645Y-91489372D01*
X147360264Y-91480726D01*
X147362289Y-91475326D01*
X147363274Y-91473726D01*
X147363561Y-91471934D01*
X147365427Y-91466960D01*
X147445339Y-91167285D01*
X147525253Y-91466960D01*
X147527118Y-91471935D01*
X147527406Y-91473726D01*
X147528390Y-91475325D01*
X147530416Y-91480727D01*
X147537036Y-91489375D01*
X147542742Y-91498648D01*
X147545862Y-91500906D01*
X147548203Y-91503964D01*
X147557624Y-91509418D01*
X147566449Y-91515805D01*
X147570196Y-91516697D01*
X147573528Y-91518626D01*
X147584321Y-91520060D01*
X147594917Y-91522583D01*
X147598718Y-91521973D01*
X147602537Y-91522481D01*
X147613068Y-91519672D01*
X147623812Y-91517950D01*
X147627088Y-91515934D01*
X147630812Y-91514941D01*
X147639464Y-91508317D01*
X147648734Y-91502614D01*
X147650990Y-91499495D01*
X147654050Y-91497154D01*
X147659507Y-91487727D01*
X147665891Y-91478907D01*
X147667768Y-91473458D01*
X147668712Y-91471829D01*
X147668951Y-91470025D01*
X147670681Y-91465007D01*
X147729239Y-91219063D01*
X147979864Y-91219063D01*
X147979864Y-91295254D01*
X147981305Y-91309886D01*
X147982336Y-91312375D01*
X147982527Y-91315063D01*
X147987782Y-91328795D01*
X148025877Y-91404985D01*
X148029840Y-91411281D01*
X148030598Y-91413111D01*
X148032287Y-91415169D01*
X148033709Y-91417428D01*
X148035207Y-91418727D01*
X148039925Y-91424476D01*
X148078020Y-91462572D01*
X148083771Y-91467292D01*
X148085070Y-91468790D01*
X148087325Y-91470209D01*
X148089385Y-91471900D01*
X148091215Y-91472658D01*
X148097513Y-91476622D01*
X148173704Y-91514717D01*
X148187436Y-91519972D01*
X148190123Y-91520162D01*
X148192613Y-91521194D01*
X148207245Y-91522635D01*
X148397721Y-91522635D01*
X148405126Y-91521905D01*
X148407101Y-91522046D01*
X148409698Y-91521455D01*
X148412353Y-91521194D01*
X148414184Y-91520435D01*
X148421438Y-91518786D01*
X148535724Y-91480691D01*
X148549149Y-91474697D01*
X148571257Y-91455523D01*
X148584343Y-91429350D01*
X148586418Y-91400160D01*
X148577164Y-91372398D01*
X148557991Y-91350290D01*
X148531817Y-91337204D01*
X148502627Y-91335129D01*
X148488290Y-91338389D01*
X148385551Y-91372635D01*
X148224950Y-91372635D01*
X148175481Y-91347901D01*
X148154598Y-91327017D01*
X148129864Y-91277549D01*
X148129864Y-91236768D01*
X148154598Y-91187300D01*
X148175481Y-91166416D01*
X148233421Y-91137446D01*
X148377816Y-91101348D01*
X148378895Y-91100962D01*
X148379435Y-91100924D01*
X148385516Y-91098596D01*
X148391662Y-91096401D01*
X148392097Y-91096078D01*
X148393167Y-91095669D01*
X148469357Y-91057574D01*
X148475656Y-91053609D01*
X148477484Y-91052852D01*
X148479540Y-91051163D01*
X148481800Y-91049742D01*
X148483099Y-91048243D01*
X148488849Y-91043525D01*
X148526944Y-91005430D01*
X148531664Y-90999677D01*
X148533160Y-90998381D01*
X148534579Y-90996126D01*
X148536271Y-90994065D01*
X148537029Y-90992234D01*
X148540993Y-90985938D01*
X148579089Y-90909748D01*
X148584344Y-90896016D01*
X148584535Y-90893326D01*
X148585566Y-90890838D01*
X148587007Y-90876206D01*
X148587007Y-90800016D01*
X148585566Y-90785384D01*
X148584535Y-90782895D01*
X148584344Y-90780206D01*
X148579089Y-90766474D01*
X148540993Y-90690284D01*
X148537029Y-90683987D01*
X148536271Y-90682157D01*
X148534579Y-90680095D01*
X148533160Y-90677841D01*
X148531664Y-90676544D01*
X148526944Y-90670792D01*
X148488849Y-90632697D01*
X148483099Y-90627978D01*
X148481800Y-90626480D01*
X148479540Y-90625058D01*
X148477484Y-90623370D01*
X148475656Y-90622612D01*
X148469357Y-90618648D01*
X148393167Y-90580553D01*
X148379435Y-90575298D01*
X148376747Y-90575107D01*
X148374258Y-90574076D01*
X148359626Y-90572635D01*
X148169149Y-90572635D01*
X148161743Y-90573364D01*
X148159769Y-90573224D01*
X148157171Y-90573814D01*
X148154517Y-90574076D01*
X148152685Y-90574834D01*
X148145432Y-90576484D01*
X148031147Y-90614579D01*
X148017721Y-90620573D01*
X147995614Y-90639747D01*
X147982528Y-90665920D01*
X147980453Y-90695110D01*
X147989707Y-90722873D01*
X148008881Y-90744980D01*
X148035054Y-90758066D01*
X148064244Y-90760141D01*
X148078581Y-90756881D01*
X148181319Y-90722635D01*
X148341921Y-90722635D01*
X148391389Y-90747369D01*
X148412272Y-90768252D01*
X148437007Y-90817721D01*
X148437007Y-90858500D01*
X148412272Y-90907969D01*
X148391389Y-90928853D01*
X148333450Y-90957822D01*
X148189055Y-90993921D01*
X148187975Y-90994306D01*
X148187435Y-90994345D01*
X148181339Y-90996677D01*
X148175209Y-90998868D01*
X148174774Y-90999189D01*
X148173703Y-90999600D01*
X148097513Y-91037696D01*
X148091216Y-91041659D01*
X148089386Y-91042418D01*
X148087324Y-91044109D01*
X148085070Y-91045529D01*
X148083773Y-91047024D01*
X148078021Y-91051745D01*
X148039926Y-91089840D01*
X148035207Y-91095589D01*
X148033709Y-91096889D01*
X148032287Y-91099148D01*
X148030599Y-91101205D01*
X148029841Y-91103032D01*
X148025877Y-91109332D01*
X147987782Y-91185522D01*
X147982527Y-91199254D01*
X147982336Y-91201941D01*
X147981305Y-91204431D01*
X147979864Y-91219063D01*
X147729239Y-91219063D01*
X147861157Y-90665007D01*
X147863145Y-90650439D01*
X147858512Y-90621544D01*
X147843176Y-90596622D01*
X147819469Y-90579466D01*
X147791001Y-90572687D01*
X147762106Y-90577320D01*
X147737184Y-90592656D01*
X147720027Y-90616363D01*
X147715237Y-90630264D01*
X147593604Y-91141119D01*
X147517808Y-90856881D01*
X147516522Y-90853453D01*
X147516331Y-90852012D01*
X147515339Y-90850299D01*
X147512645Y-90843115D01*
X147506631Y-90835258D01*
X147501669Y-90826687D01*
X147497809Y-90823732D01*
X147494858Y-90819877D01*
X147486295Y-90814919D01*
X147478431Y-90808900D01*
X147473734Y-90807647D01*
X147469533Y-90805215D01*
X147459726Y-90803912D01*
X147450156Y-90801360D01*
X147445337Y-90802000D01*
X147440525Y-90801361D01*
X147430964Y-90803910D01*
X147421147Y-90805215D01*
X147416941Y-90807649D01*
X147412249Y-90808901D01*
X147404389Y-90814916D01*
X147395822Y-90819877D01*
X147392868Y-90823735D01*
X147389011Y-90826688D01*
X147384052Y-90835253D01*
X147378035Y-90843114D01*
X147375338Y-90850303D01*
X147374349Y-90852013D01*
X147374157Y-90853452D01*
X147372872Y-90856881D01*
X147297075Y-91141118D01*
X147175443Y-90630263D01*
X147170653Y-90616363D01*
X147153496Y-90592656D01*
X147128574Y-90577320D01*
X147099679Y-90572687D01*
X147071211Y-90579465D01*
X147047504Y-90596622D01*
X147032168Y-90621544D01*
X147027535Y-90650439D01*
X146868495Y-90650439D01*
X146850752Y-90632696D01*
X146845003Y-90627978D01*
X146843704Y-90626480D01*
X146841445Y-90625058D01*
X146839387Y-90623369D01*
X146837557Y-90622611D01*
X146831261Y-90618648D01*
X146755071Y-90580553D01*
X146741339Y-90575298D01*
X146738651Y-90575107D01*
X146736162Y-90574076D01*
X146721530Y-90572635D01*
X146531054Y-90572635D01*
X146516422Y-90574076D01*
X146513932Y-90575107D01*
X146511245Y-90575298D01*
X146497513Y-90580553D01*
X146421322Y-90618648D01*
X146415022Y-90622612D01*
X146413195Y-90623370D01*
X146411138Y-90625058D01*
X146408879Y-90626480D01*
X146407579Y-90627978D01*
X146401830Y-90632697D01*
X146363735Y-90670792D01*
X146359016Y-90676541D01*
X146357518Y-90677841D01*
X146356096Y-90680100D01*
X146354408Y-90682157D01*
X146353650Y-90683984D01*
X146349686Y-90690284D01*
X146311591Y-90766475D01*
X146306336Y-90780207D01*
X146306145Y-90782894D01*
X146305114Y-90785384D01*
X146303673Y-90800016D01*
X146214784Y-90800016D01*
X146214784Y-90483746D01*
X148675896Y-90483746D01*
X148675896Y-91611524D01*
G37*
X167580577Y-95220159D02*
X167580577Y-94220159D01*
X167580577Y-94220159D02*
X167342482Y-94220159D01*
X167342482Y-94220159D02*
X167199625Y-94267778D01*
X167199625Y-94267778D02*
X167104387Y-94363016D01*
X167104387Y-94363016D02*
X167056768Y-94458254D01*
X167056768Y-94458254D02*
X167009149Y-94648730D01*
X167009149Y-94648730D02*
X167009149Y-94791587D01*
X167009149Y-94791587D02*
X167056768Y-94982063D01*
X167056768Y-94982063D02*
X167104387Y-95077301D01*
X167104387Y-95077301D02*
X167199625Y-95172540D01*
X167199625Y-95172540D02*
X167342482Y-95220159D01*
X167342482Y-95220159D02*
X167580577Y-95220159D01*
X166247244Y-94696349D02*
X166580577Y-94696349D01*
X166580577Y-95220159D02*
X166580577Y-94220159D01*
X166580577Y-94220159D02*
X166104387Y-94220159D01*
X165152006Y-95220159D02*
X165485339Y-94743968D01*
X165723434Y-95220159D02*
X165723434Y-94220159D01*
X165723434Y-94220159D02*
X165342482Y-94220159D01*
X165342482Y-94220159D02*
X165247244Y-94267778D01*
X165247244Y-94267778D02*
X165199625Y-94315397D01*
X165199625Y-94315397D02*
X165152006Y-94410635D01*
X165152006Y-94410635D02*
X165152006Y-94553492D01*
X165152006Y-94553492D02*
X165199625Y-94648730D01*
X165199625Y-94648730D02*
X165247244Y-94696349D01*
X165247244Y-94696349D02*
X165342482Y-94743968D01*
X165342482Y-94743968D02*
X165723434Y-94743968D01*
X164532958Y-94220159D02*
X164437720Y-94220159D01*
X164437720Y-94220159D02*
X164342482Y-94267778D01*
X164342482Y-94267778D02*
X164294863Y-94315397D01*
X164294863Y-94315397D02*
X164247244Y-94410635D01*
X164247244Y-94410635D02*
X164199625Y-94601111D01*
X164199625Y-94601111D02*
X164199625Y-94839206D01*
X164199625Y-94839206D02*
X164247244Y-95029682D01*
X164247244Y-95029682D02*
X164294863Y-95124920D01*
X164294863Y-95124920D02*
X164342482Y-95172540D01*
X164342482Y-95172540D02*
X164437720Y-95220159D01*
X164437720Y-95220159D02*
X164532958Y-95220159D01*
X164532958Y-95220159D02*
X164628196Y-95172540D01*
X164628196Y-95172540D02*
X164675815Y-95124920D01*
X164675815Y-95124920D02*
X164723434Y-95029682D01*
X164723434Y-95029682D02*
X164771053Y-94839206D01*
X164771053Y-94839206D02*
X164771053Y-94601111D01*
X164771053Y-94601111D02*
X164723434Y-94410635D01*
X164723434Y-94410635D02*
X164675815Y-94315397D01*
X164675815Y-94315397D02*
X164628196Y-94267778D01*
X164628196Y-94267778D02*
X164532958Y-94220159D01*
X163818672Y-94315397D02*
X163771053Y-94267778D01*
X163771053Y-94267778D02*
X163675815Y-94220159D01*
X163675815Y-94220159D02*
X163437720Y-94220159D01*
X163437720Y-94220159D02*
X163342482Y-94267778D01*
X163342482Y-94267778D02*
X163294863Y-94315397D01*
X163294863Y-94315397D02*
X163247244Y-94410635D01*
X163247244Y-94410635D02*
X163247244Y-94505873D01*
X163247244Y-94505873D02*
X163294863Y-94648730D01*
X163294863Y-94648730D02*
X163866291Y-95220159D01*
X163866291Y-95220159D02*
X163247244Y-95220159D01*
X162771053Y-95220159D02*
X162580577Y-95220159D01*
X162580577Y-95220159D02*
X162485339Y-95172540D01*
X162485339Y-95172540D02*
X162437720Y-95124920D01*
X162437720Y-95124920D02*
X162342482Y-94982063D01*
X162342482Y-94982063D02*
X162294863Y-94791587D01*
X162294863Y-94791587D02*
X162294863Y-94410635D01*
X162294863Y-94410635D02*
X162342482Y-94315397D01*
X162342482Y-94315397D02*
X162390101Y-94267778D01*
X162390101Y-94267778D02*
X162485339Y-94220159D01*
X162485339Y-94220159D02*
X162675815Y-94220159D01*
X162675815Y-94220159D02*
X162771053Y-94267778D01*
X162771053Y-94267778D02*
X162818672Y-94315397D01*
X162818672Y-94315397D02*
X162866291Y-94410635D01*
X162866291Y-94410635D02*
X162866291Y-94648730D01*
X162866291Y-94648730D02*
X162818672Y-94743968D01*
X162818672Y-94743968D02*
X162771053Y-94791587D01*
X162771053Y-94791587D02*
X162675815Y-94839206D01*
X162675815Y-94839206D02*
X162485339Y-94839206D01*
X162485339Y-94839206D02*
X162390101Y-94791587D01*
X162390101Y-94791587D02*
X162342482Y-94743968D01*
X162342482Y-94743968D02*
X162294863Y-94648730D01*
X161818672Y-95220159D02*
X161628196Y-95220159D01*
X161628196Y-95220159D02*
X161532958Y-95172540D01*
X161532958Y-95172540D02*
X161485339Y-95124920D01*
X161485339Y-95124920D02*
X161390101Y-94982063D01*
X161390101Y-94982063D02*
X161342482Y-94791587D01*
X161342482Y-94791587D02*
X161342482Y-94410635D01*
X161342482Y-94410635D02*
X161390101Y-94315397D01*
X161390101Y-94315397D02*
X161437720Y-94267778D01*
X161437720Y-94267778D02*
X161532958Y-94220159D01*
X161532958Y-94220159D02*
X161723434Y-94220159D01*
X161723434Y-94220159D02*
X161818672Y-94267778D01*
X161818672Y-94267778D02*
X161866291Y-94315397D01*
X161866291Y-94315397D02*
X161913910Y-94410635D01*
X161913910Y-94410635D02*
X161913910Y-94648730D01*
X161913910Y-94648730D02*
X161866291Y-94743968D01*
X161866291Y-94743968D02*
X161818672Y-94791587D01*
X161818672Y-94791587D02*
X161723434Y-94839206D01*
X161723434Y-94839206D02*
X161532958Y-94839206D01*
X161532958Y-94839206D02*
X161437720Y-94791587D01*
X161437720Y-94791587D02*
X161390101Y-94743968D01*
X161390101Y-94743968D02*
X161342482Y-94648730D01*
G36*
X152625896Y-91561524D02*
G01*
X150164784Y-91561524D01*
X150164784Y-91054778D01*
X150253673Y-91054778D01*
X150253673Y-91245254D01*
X150255114Y-91259886D01*
X150256145Y-91262375D01*
X150256336Y-91265063D01*
X150261591Y-91278795D01*
X150299686Y-91354985D01*
X150303649Y-91361281D01*
X150304407Y-91363111D01*
X150306096Y-91365169D01*
X150307518Y-91367428D01*
X150309016Y-91368727D01*
X150313734Y-91374476D01*
X150351829Y-91412572D01*
X150357580Y-91417292D01*
X150358879Y-91418790D01*
X150361134Y-91420209D01*
X150363194Y-91421900D01*
X150365024Y-91422658D01*
X150371322Y-91426622D01*
X150447513Y-91464717D01*
X150461245Y-91469972D01*
X150463932Y-91470162D01*
X150466422Y-91471194D01*
X150481054Y-91472635D01*
X150709625Y-91472635D01*
X150724257Y-91471194D01*
X150726746Y-91470162D01*
X150729434Y-91469972D01*
X150743166Y-91464717D01*
X150819357Y-91426622D01*
X150825656Y-91422657D01*
X150827484Y-91421900D01*
X150829540Y-91420212D01*
X150831800Y-91418790D01*
X150833100Y-91417290D01*
X150838850Y-91412572D01*
X150876945Y-91374476D01*
X150886272Y-91363111D01*
X150897470Y-91336075D01*
X150897470Y-91306812D01*
X150886271Y-91279776D01*
X150865578Y-91259083D01*
X150838541Y-91247885D01*
X150809278Y-91247885D01*
X150782242Y-91259084D01*
X150770877Y-91268412D01*
X150741388Y-91297901D01*
X150691920Y-91322635D01*
X150498759Y-91322635D01*
X150449290Y-91297901D01*
X150428407Y-91277017D01*
X150403673Y-91227549D01*
X150403673Y-91072482D01*
X150428407Y-91023013D01*
X150449289Y-91002131D01*
X150498759Y-90977397D01*
X150595339Y-90977397D01*
X150603071Y-90976635D01*
X150605045Y-90976767D01*
X150606404Y-90976307D01*
X150609971Y-90975956D01*
X150621222Y-90971295D01*
X150632766Y-90967391D01*
X150634670Y-90965725D01*
X150637007Y-90964757D01*
X150645617Y-90956146D01*
X150654790Y-90948121D01*
X150655912Y-90945851D01*
X150657699Y-90944065D01*
X150662357Y-90932817D01*
X150667762Y-90921890D01*
X150667930Y-90919365D01*
X150668898Y-90917029D01*
X150668898Y-90904853D01*
X150669709Y-90892691D01*
X150668898Y-90890293D01*
X150668898Y-90887765D01*
X150664237Y-90876513D01*
X150660333Y-90864970D01*
X150658247Y-90862052D01*
X150657699Y-90860729D01*
X150656303Y-90859333D01*
X150651783Y-90853010D01*
X150493955Y-90672635D01*
X150823911Y-90672635D01*
X150838543Y-90671194D01*
X150865579Y-90659995D01*
X150886271Y-90639303D01*
X150897470Y-90612267D01*
X150897470Y-90600439D01*
X150977535Y-90600439D01*
X150979523Y-90615007D01*
X151169999Y-91415006D01*
X151171728Y-91420025D01*
X151171968Y-91421828D01*
X151172910Y-91423456D01*
X151174789Y-91428907D01*
X151181175Y-91437731D01*
X151186630Y-91447153D01*
X151189687Y-91449493D01*
X151191946Y-91452614D01*
X151201221Y-91458321D01*
X151209868Y-91464940D01*
X151213588Y-91465932D01*
X151216868Y-91467950D01*
X151227622Y-91469674D01*
X151238144Y-91472480D01*
X151241959Y-91471973D01*
X151245763Y-91472583D01*
X151256357Y-91470060D01*
X151267152Y-91468626D01*
X151270485Y-91466695D01*
X151274231Y-91465804D01*
X151283051Y-91459421D01*
X151292477Y-91453964D01*
X151294817Y-91450906D01*
X151297938Y-91448648D01*
X151303645Y-91439372D01*
X151310264Y-91430726D01*
X151312289Y-91425326D01*
X151313274Y-91423726D01*
X151313561Y-91421934D01*
X151315427Y-91416960D01*
X151395339Y-91117285D01*
X151475253Y-91416960D01*
X151477118Y-91421935D01*
X151477406Y-91423726D01*
X151478390Y-91425325D01*
X151480416Y-91430727D01*
X151487036Y-91439375D01*
X151492742Y-91448648D01*
X151495862Y-91450906D01*
X151498203Y-91453964D01*
X151507624Y-91459418D01*
X151516449Y-91465805D01*
X151520196Y-91466697D01*
X151523528Y-91468626D01*
X151534321Y-91470060D01*
X151544917Y-91472583D01*
X151548718Y-91471973D01*
X151552537Y-91472481D01*
X151563068Y-91469672D01*
X151573812Y-91467950D01*
X151577088Y-91465934D01*
X151580812Y-91464941D01*
X151589464Y-91458317D01*
X151598734Y-91452614D01*
X151600990Y-91449495D01*
X151604050Y-91447154D01*
X151609507Y-91437727D01*
X151615891Y-91428907D01*
X151617768Y-91423458D01*
X151618712Y-91421829D01*
X151618951Y-91420025D01*
X151620681Y-91415007D01*
X151679239Y-91169063D01*
X151929864Y-91169063D01*
X151929864Y-91245254D01*
X151931305Y-91259886D01*
X151932336Y-91262375D01*
X151932527Y-91265063D01*
X151937782Y-91278795D01*
X151975877Y-91354985D01*
X151979840Y-91361281D01*
X151980598Y-91363111D01*
X151982287Y-91365169D01*
X151983709Y-91367428D01*
X151985207Y-91368727D01*
X151989925Y-91374476D01*
X152028020Y-91412572D01*
X152033771Y-91417292D01*
X152035070Y-91418790D01*
X152037325Y-91420209D01*
X152039385Y-91421900D01*
X152041215Y-91422658D01*
X152047513Y-91426622D01*
X152123704Y-91464717D01*
X152137436Y-91469972D01*
X152140123Y-91470162D01*
X152142613Y-91471194D01*
X152157245Y-91472635D01*
X152347721Y-91472635D01*
X152355126Y-91471905D01*
X152357101Y-91472046D01*
X152359698Y-91471455D01*
X152362353Y-91471194D01*
X152364184Y-91470435D01*
X152371438Y-91468786D01*
X152485724Y-91430691D01*
X152499149Y-91424697D01*
X152521257Y-91405523D01*
X152534343Y-91379350D01*
X152536418Y-91350160D01*
X152527164Y-91322398D01*
X152507991Y-91300290D01*
X152481817Y-91287204D01*
X152452627Y-91285129D01*
X152438290Y-91288389D01*
X152335551Y-91322635D01*
X152174950Y-91322635D01*
X152125481Y-91297901D01*
X152104598Y-91277017D01*
X152079864Y-91227549D01*
X152079864Y-91186768D01*
X152104598Y-91137300D01*
X152125481Y-91116416D01*
X152183421Y-91087446D01*
X152327816Y-91051348D01*
X152328895Y-91050962D01*
X152329435Y-91050924D01*
X152335516Y-91048596D01*
X152341662Y-91046401D01*
X152342097Y-91046078D01*
X152343167Y-91045669D01*
X152419357Y-91007574D01*
X152425656Y-91003609D01*
X152427484Y-91002852D01*
X152429540Y-91001163D01*
X152431800Y-90999742D01*
X152433099Y-90998243D01*
X152438849Y-90993525D01*
X152476944Y-90955430D01*
X152481664Y-90949677D01*
X152483160Y-90948381D01*
X152484579Y-90946126D01*
X152486271Y-90944065D01*
X152487029Y-90942234D01*
X152490993Y-90935938D01*
X152529089Y-90859748D01*
X152534344Y-90846016D01*
X152534535Y-90843326D01*
X152535566Y-90840838D01*
X152537007Y-90826206D01*
X152537007Y-90750016D01*
X152535566Y-90735384D01*
X152534535Y-90732895D01*
X152534344Y-90730206D01*
X152529089Y-90716474D01*
X152490993Y-90640284D01*
X152487029Y-90633987D01*
X152486271Y-90632157D01*
X152484579Y-90630095D01*
X152483160Y-90627841D01*
X152481664Y-90626544D01*
X152476944Y-90620792D01*
X152438849Y-90582697D01*
X152433099Y-90577978D01*
X152431800Y-90576480D01*
X152429540Y-90575058D01*
X152427484Y-90573370D01*
X152425656Y-90572612D01*
X152419357Y-90568648D01*
X152343167Y-90530553D01*
X152329435Y-90525298D01*
X152326747Y-90525107D01*
X152324258Y-90524076D01*
X152309626Y-90522635D01*
X152119149Y-90522635D01*
X152111743Y-90523364D01*
X152109769Y-90523224D01*
X152107171Y-90523814D01*
X152104517Y-90524076D01*
X152102685Y-90524834D01*
X152095432Y-90526484D01*
X151981147Y-90564579D01*
X151967721Y-90570573D01*
X151945614Y-90589747D01*
X151932528Y-90615920D01*
X151930453Y-90645110D01*
X151939707Y-90672873D01*
X151958881Y-90694980D01*
X151985054Y-90708066D01*
X152014244Y-90710141D01*
X152028581Y-90706881D01*
X152131319Y-90672635D01*
X152291921Y-90672635D01*
X152341389Y-90697369D01*
X152362272Y-90718252D01*
X152387007Y-90767721D01*
X152387007Y-90808500D01*
X152362272Y-90857969D01*
X152341389Y-90878853D01*
X152283450Y-90907822D01*
X152139055Y-90943921D01*
X152137975Y-90944306D01*
X152137435Y-90944345D01*
X152131339Y-90946677D01*
X152125209Y-90948868D01*
X152124774Y-90949189D01*
X152123703Y-90949600D01*
X152047513Y-90987696D01*
X152041216Y-90991659D01*
X152039386Y-90992418D01*
X152037324Y-90994109D01*
X152035070Y-90995529D01*
X152033773Y-90997024D01*
X152028021Y-91001745D01*
X151989926Y-91039840D01*
X151985207Y-91045589D01*
X151983709Y-91046889D01*
X151982287Y-91049148D01*
X151980599Y-91051205D01*
X151979841Y-91053032D01*
X151975877Y-91059332D01*
X151937782Y-91135522D01*
X151932527Y-91149254D01*
X151932336Y-91151941D01*
X151931305Y-91154431D01*
X151929864Y-91169063D01*
X151679239Y-91169063D01*
X151811157Y-90615007D01*
X151813145Y-90600439D01*
X151808512Y-90571544D01*
X151793176Y-90546622D01*
X151769469Y-90529466D01*
X151741001Y-90522687D01*
X151712106Y-90527320D01*
X151687184Y-90542656D01*
X151670027Y-90566363D01*
X151665237Y-90580264D01*
X151543604Y-91091119D01*
X151467808Y-90806881D01*
X151466522Y-90803453D01*
X151466331Y-90802012D01*
X151465339Y-90800299D01*
X151462645Y-90793115D01*
X151456631Y-90785258D01*
X151451669Y-90776687D01*
X151447809Y-90773732D01*
X151444858Y-90769877D01*
X151436295Y-90764919D01*
X151428431Y-90758900D01*
X151423734Y-90757647D01*
X151419533Y-90755215D01*
X151409726Y-90753912D01*
X151400156Y-90751360D01*
X151395337Y-90752000D01*
X151390525Y-90751361D01*
X151380964Y-90753910D01*
X151371147Y-90755215D01*
X151366941Y-90757649D01*
X151362249Y-90758901D01*
X151354389Y-90764916D01*
X151345822Y-90769877D01*
X151342868Y-90773735D01*
X151339011Y-90776688D01*
X151334052Y-90785253D01*
X151328035Y-90793114D01*
X151325338Y-90800303D01*
X151324349Y-90802013D01*
X151324157Y-90803452D01*
X151322872Y-90806881D01*
X151247075Y-91091118D01*
X151125443Y-90580263D01*
X151120653Y-90566363D01*
X151103496Y-90542656D01*
X151078574Y-90527320D01*
X151049679Y-90522687D01*
X151021211Y-90529465D01*
X150997504Y-90546622D01*
X150982168Y-90571544D01*
X150977535Y-90600439D01*
X150897470Y-90600439D01*
X150897470Y-90583003D01*
X150886271Y-90555967D01*
X150865579Y-90535275D01*
X150838543Y-90524076D01*
X150823911Y-90522635D01*
X150328673Y-90522635D01*
X150320934Y-90523397D01*
X150318967Y-90523266D01*
X150317611Y-90523724D01*
X150314041Y-90524076D01*
X150302783Y-90528739D01*
X150291246Y-90532641D01*
X150289341Y-90534306D01*
X150287005Y-90535275D01*
X150278394Y-90543885D01*
X150269222Y-90551911D01*
X150268099Y-90554180D01*
X150266313Y-90555967D01*
X150261652Y-90567217D01*
X150256250Y-90578143D01*
X150256081Y-90580666D01*
X150255114Y-90583003D01*
X150255114Y-90595187D01*
X150254304Y-90607341D01*
X150255114Y-90609736D01*
X150255114Y-90612267D01*
X150259777Y-90623524D01*
X150263679Y-90635062D01*
X150265764Y-90637979D01*
X150266313Y-90639303D01*
X150267708Y-90640698D01*
X150272230Y-90647023D01*
X150440189Y-90838976D01*
X150371322Y-90873410D01*
X150365022Y-90877374D01*
X150363195Y-90878132D01*
X150361138Y-90879820D01*
X150358879Y-90881242D01*
X150357579Y-90882740D01*
X150351830Y-90887459D01*
X150313735Y-90925554D01*
X150309016Y-90931303D01*
X150307518Y-90932603D01*
X150306096Y-90934862D01*
X150304408Y-90936919D01*
X150303650Y-90938746D01*
X150299686Y-90945046D01*
X150261591Y-91021237D01*
X150256336Y-91034969D01*
X150256145Y-91037656D01*
X150255114Y-91040146D01*
X150253673Y-91054778D01*
X150164784Y-91054778D01*
X150164784Y-90433746D01*
X152625896Y-90433746D01*
X152625896Y-91561524D01*
G37*
D11*
%TO.C,SpeakerConn1*%
X154550340Y-109275340D02*
X154550340Y-106515340D01*
X157200340Y-106515340D02*
X154550340Y-106515340D01*
X157200340Y-109275340D02*
X154550340Y-109275340D01*
X157200340Y-109275340D02*
X157200340Y-106515340D01*
X158470340Y-109275340D02*
X159850340Y-109275340D01*
X159850340Y-109275340D02*
X159850340Y-107895340D01*
%TO.C,SW1*%
X142015340Y-84625340D02*
X144775340Y-84625340D01*
X142015340Y-87275340D02*
X142015340Y-84625340D01*
X142015340Y-87275340D02*
X144775340Y-87275340D01*
X142015340Y-88545340D02*
X142015340Y-89925340D01*
X142015340Y-89925340D02*
X143395340Y-89925340D01*
X144775340Y-87275340D02*
X144775340Y-84625340D01*
%TO.C,SW2*%
X146015340Y-84600340D02*
X148775340Y-84600340D01*
X146015340Y-87250340D02*
X146015340Y-84600340D01*
X146015340Y-87250340D02*
X148775340Y-87250340D01*
X146015340Y-88520340D02*
X146015340Y-89900340D01*
X146015340Y-89900340D02*
X147395340Y-89900340D01*
X148775340Y-87250340D02*
X148775340Y-84600340D01*
D12*
%TO.C,U1*%
X154385340Y-84485340D02*
X154385340Y-104805340D01*
X154385340Y-104805340D02*
X174705340Y-104805340D01*
X174705340Y-84485340D02*
X154385340Y-84485340D01*
X174705340Y-104805340D02*
X174705340Y-84485340D01*
D13*
X175445340Y-85755340D02*
G75*
G02*
X175245340Y-85755340I-100000J0D01*
G01*
X175245340Y-85755340D02*
G75*
G02*
X175445340Y-85755340I100000J0D01*
G01*
D11*
%TO.C,SW3*%
X150015340Y-84625340D02*
X152775340Y-84625340D01*
X150015340Y-87275340D02*
X150015340Y-84625340D01*
X150015340Y-87275340D02*
X152775340Y-87275340D01*
X150015340Y-88545340D02*
X150015340Y-89925340D01*
X150015340Y-89925340D02*
X151395340Y-89925340D01*
X152775340Y-87275340D02*
X152775340Y-84625340D01*
%TD*%
M02*
