%TF.GenerationSoftware,KiCad,Pcbnew,9.0.4*%
%TF.CreationDate,2026-04-22T21:06:27+02:00*%
%TF.ProjectId,JoeHocker,4a6f6548-6f63-46b6-9572-2e6b69636164,rev?*%
%TF.SameCoordinates,Original*%
%TF.FileFunction,Soldermask,Bot*%
%TF.FilePolarity,Negative*%
%FSLAX46Y46*%
G04 Gerber Fmt 4.6, Leading zero omitted, Abs format (unit mm)*
G04 Created by KiCad (PCBNEW 9.0.4) date 2026-04-22 21:06:27*
%MOMM*%
%LPD*%
G01*
G04 APERTURE LIST*
G04 Aperture macros list*
%AMRoundRect*
0 Rectangle with rounded corners*
0 $1 Rounding radius*
0 $2 $3 $4 $5 $6 $7 $8 $9 X,Y pos of 4 corners*
0 Add a 4 corners polygon primitive as box body*
4,1,4,$2,$3,$4,$5,$6,$7,$8,$9,$2,$3,0*
0 Add four circle primitives for the rounded corners*
1,1,$1+$1,$2,$3*
1,1,$1+$1,$4,$5*
1,1,$1+$1,$6,$7*
1,1,$1+$1,$8,$9*
0 Add four rect primitives between the rounded corners*
20,1,$1+$1,$2,$3,$4,$5,0*
20,1,$1+$1,$4,$5,$6,$7,0*
20,1,$1+$1,$6,$7,$8,$9,0*
20,1,$1+$1,$8,$9,$2,$3,0*%
G04 Aperture macros list end*
%ADD10R,1.700000X1.700000*%
%ADD11C,1.700000*%
%ADD12C,0.600000*%
%ADD13O,1.104000X2.204000*%
%ADD14O,1.104000X1.904000*%
%ADD15RoundRect,0.102000X0.654000X0.654000X-0.654000X0.654000X-0.654000X-0.654000X0.654000X-0.654000X0*%
%ADD16C,1.512000*%
G04 APERTURE END LIST*
D10*
%TO.C,SPI1*%
X179417540Y-89234060D03*
D11*
X179417540Y-91774060D03*
X179417540Y-94314060D03*
X179417540Y-96854060D03*
X179417540Y-99394060D03*
X179417540Y-101934060D03*
X179417540Y-104474060D03*
X179417540Y-107014060D03*
%TD*%
D10*
%TO.C,SPI2*%
X106933940Y-107313540D03*
D11*
X106933940Y-109853540D03*
X106933940Y-112393540D03*
X106933940Y-114933540D03*
X106933940Y-117473540D03*
X106933940Y-120013540D03*
X106933940Y-122553540D03*
X106933940Y-125093540D03*
%TD*%
D12*
%TO.C,USB-C1*%
X132203940Y-121196040D03*
X137983940Y-121196040D03*
D13*
X130768940Y-120706040D03*
X139418940Y-120706040D03*
D14*
X130768940Y-124876040D03*
X139418940Y-124876040D03*
%TD*%
D10*
%TO.C,SpeakerConn1*%
X158470340Y-107895340D03*
D11*
X155930340Y-107895340D03*
%TD*%
D10*
%TO.C,SW1*%
X143395340Y-88545340D03*
D11*
X143395340Y-86005340D03*
%TD*%
D10*
%TO.C,SW2*%
X147395340Y-88520340D03*
D11*
X147395340Y-85980340D03*
%TD*%
D15*
%TO.C,U1*%
X173562340Y-85755340D03*
D16*
X173562340Y-88295340D03*
X173562340Y-90835340D03*
X173562340Y-93375340D03*
X173562340Y-95915340D03*
X173562340Y-98455340D03*
X173562340Y-100995340D03*
X173562340Y-103535340D03*
X155528340Y-103535340D03*
X155528340Y-100995340D03*
X155528340Y-98455340D03*
X155528340Y-95915340D03*
X155528340Y-93375340D03*
X155528340Y-90835340D03*
X155528340Y-88295340D03*
X155528340Y-85755340D03*
%TD*%
D10*
%TO.C,SW3*%
X151395340Y-88545340D03*
D11*
X151395340Y-86005340D03*
%TD*%
M02*
