%TF.GenerationSoftware,KiCad,Pcbnew,9.0.4*%
%TF.CreationDate,2026-04-22T21:06:27+02:00*%
%TF.ProjectId,JoeHocker,4a6f6548-6f63-46b6-9572-2e6b69636164,rev?*%
%TF.SameCoordinates,Original*%
%TF.FileFunction,Copper,L2,Inr*%
%TF.FilePolarity,Positive*%
%FSLAX46Y46*%
G04 Gerber Fmt 4.6, Leading zero omitted, Abs format (unit mm)*
G04 Created by KiCad (PCBNEW 9.0.4) date 2026-04-22 21:06:27*
%MOMM*%
%LPD*%
G01*
G04 APERTURE LIST*
%TA.AperFunction,ComponentPad*%
%ADD10R,1.700000X1.700000*%
%TD*%
%TA.AperFunction,ComponentPad*%
%ADD11C,1.700000*%
%TD*%
%TA.AperFunction,ComponentPad*%
%ADD12O,0.900000X2.000000*%
%TD*%
%TA.AperFunction,ComponentPad*%
%ADD13O,0.900000X1.700000*%
%TD*%
%TA.AperFunction,ComponentPad*%
%ADD14C,0.400000*%
%TD*%
%TA.AperFunction,ComponentPad*%
%ADD15R,1.308000X1.308000*%
%TD*%
%TA.AperFunction,ComponentPad*%
%ADD16C,1.308000*%
%TD*%
%TA.AperFunction,ViaPad*%
%ADD17C,0.600000*%
%TD*%
%TA.AperFunction,ViaPad*%
%ADD18C,0.500000*%
%TD*%
G04 APERTURE END LIST*
D10*
%TO.N,VCC_3V3*%
%TO.C,SPI1*%
X179417540Y-89234060D03*
D11*
%TO.N,GND*%
X179417540Y-91774060D03*
%TO.N,Net-(SPI1-Pin_3)*%
X179417540Y-94314060D03*
%TO.N,RST1*%
X179417540Y-96854060D03*
%TO.N,DS1*%
X179417540Y-99394060D03*
%TO.N,Net-(SPI1-Pin_6)*%
X179417540Y-101934060D03*
%TO.N,Net-(SPI1-Pin_7)*%
X179417540Y-104474060D03*
%TO.N,BL1*%
X179417540Y-107014060D03*
%TD*%
D10*
%TO.N,BL2*%
%TO.C,SPI2*%
X106933940Y-107313540D03*
D11*
%TO.N,Net-(SPI2-Pin_2)*%
X106933940Y-109853540D03*
%TO.N,Net-(SPI2-Pin_3)*%
X106933940Y-112393540D03*
%TO.N,DS2*%
X106933940Y-114933540D03*
%TO.N,RST2*%
X106933940Y-117473540D03*
%TO.N,Net-(SPI2-Pin_6)*%
X106933940Y-120013540D03*
%TO.N,GND*%
X106933940Y-122553540D03*
%TO.N,VCC_3V3*%
X106933940Y-125093540D03*
%TD*%
D12*
%TO.N,GND*%
%TO.C,USB-C1*%
X130768940Y-120706040D03*
X139418940Y-120706040D03*
D13*
X130768940Y-124876040D03*
X139418940Y-124876040D03*
%TD*%
D14*
%TO.N,N/C*%
%TO.C,UESP32-S3-WROOM1*%
X126763940Y-95613540D03*
X126763940Y-97013540D03*
X126763940Y-94213540D03*
X128163940Y-97013540D03*
X128163940Y-95613540D03*
X128163940Y-94213540D03*
X126063940Y-96313540D03*
X126063940Y-94913540D03*
X127463940Y-96313540D03*
X127463940Y-94913540D03*
X128863940Y-96313540D03*
X128863940Y-94913540D03*
%TD*%
D10*
%TO.N,SPK2*%
%TO.C,SpeakerConn1*%
X158470340Y-107895340D03*
D11*
%TO.N,SPK1*%
X155930340Y-107895340D03*
%TD*%
D10*
%TO.N,SW1*%
%TO.C,SW1*%
X143395340Y-88545340D03*
D11*
%TO.N,GND*%
X143395340Y-86005340D03*
%TD*%
D10*
%TO.N,SW2*%
%TO.C,SW2*%
X147395340Y-88520340D03*
D11*
%TO.N,GND*%
X147395340Y-85980340D03*
%TD*%
D15*
%TO.N,VCC_3V3*%
%TO.C,U1*%
X173562340Y-85755340D03*
D16*
%TO.N,ESP32_TX*%
X173562340Y-88295340D03*
%TO.N,ESP32_RX*%
X173562340Y-90835340D03*
%TO.N,unconnected-(U1-DAC_R-Pad4)*%
X173562340Y-93375340D03*
%TO.N,unconnected-(U1-DAC_L-Pad5)*%
X173562340Y-95915340D03*
%TO.N,SPK1*%
X173562340Y-98455340D03*
%TO.N,GND*%
X173562340Y-100995340D03*
%TO.N,SPK2*%
X173562340Y-103535340D03*
%TO.N,unconnected-(U1-IO1-Pad9)*%
X155528340Y-103535340D03*
%TO.N,GND*%
X155528340Y-100995340D03*
%TO.N,unconnected-(U1-IO2-Pad11)*%
X155528340Y-98455340D03*
%TO.N,unconnected-(U1-ADKEY1-Pad12)*%
X155528340Y-95915340D03*
%TO.N,unconnected-(U1-ADKEY2-Pad13)*%
X155528340Y-93375340D03*
%TO.N,unconnected-(U1-USB+-Pad14)*%
X155528340Y-90835340D03*
%TO.N,unconnected-(U1-USB--Pad15)*%
X155528340Y-88295340D03*
%TO.N,DFR_BUSY*%
X155528340Y-85755340D03*
%TD*%
D10*
%TO.N,SW3*%
%TO.C,SW3*%
X151395340Y-88545340D03*
D11*
%TO.N,GND*%
X151395340Y-86005340D03*
%TD*%
D17*
%TO.N,VCC_3V3*%
X156523940Y-116713540D03*
X161273940Y-116713540D03*
%TO.N,VCC_5V*%
X125398940Y-110988540D03*
X121698940Y-109488540D03*
D18*
%TO.N,GND*%
X111607540Y-122534540D03*
X178071340Y-114964260D03*
D17*
X179900000Y-85300000D03*
X148773940Y-113963540D03*
X114073940Y-112888540D03*
X145595340Y-82745340D03*
X118223940Y-107563540D03*
X140215340Y-110665340D03*
D18*
X164745340Y-120095340D03*
X128523940Y-111513540D03*
D17*
X127835340Y-118505340D03*
X104245340Y-117125340D03*
X163495340Y-113645340D03*
X157895340Y-102545340D03*
X137305340Y-83855340D03*
D18*
X182389340Y-114329260D03*
D17*
X111895340Y-117545340D03*
X177815340Y-123135340D03*
D18*
X142598940Y-116913540D03*
D17*
X153995340Y-122445340D03*
X161195340Y-90745340D03*
D18*
X169095340Y-119595340D03*
D17*
X167995340Y-102845340D03*
D18*
X176775940Y-91774060D03*
%TO.N,GPIO0*%
X139572940Y-86669740D03*
X176852140Y-109782660D03*
%TO.N,CHIP_PU*%
X123697940Y-105262540D03*
X177207740Y-110874860D03*
D17*
%TO.N,BTN*%
X127773940Y-82713540D03*
X145273940Y-101213540D03*
%TO.N,Net-(UESP32-S3-WROOM1-IO48)*%
X144754540Y-117073540D03*
X143332140Y-93680140D03*
D18*
%TO.N,Net-(SPI1-Pin_6)*%
X133705540Y-107827940D03*
D17*
X139295340Y-102395340D03*
D18*
%TO.N,Net-(SPI2-Pin_3)*%
X120878540Y-80745340D03*
%TO.N,Net-(SPI2-Pin_6)*%
X141147740Y-121442340D03*
%TO.N,RST2*%
X125285440Y-107916840D03*
%TO.N,DS2*%
X123901140Y-107497740D03*
%TO.N,BL2*%
X126643940Y-106532540D03*
D17*
%TO.N,ESP32_TX*%
X140361026Y-91211026D03*
X129545340Y-106895340D03*
%TO.N,ESP32_RX*%
X131045340Y-106645340D03*
X139644605Y-90546075D03*
%TO.N,SW1*%
X130895340Y-104445340D03*
X123995340Y-82545340D03*
%TO.N,SW2*%
X131495340Y-108745340D03*
X125395340Y-82545340D03*
%TO.N,SW3*%
X139895340Y-93245340D03*
X141895340Y-92345340D03*
%TD*%
%TA.AperFunction,Conductor*%
%TO.N,GND*%
G36*
X120457308Y-79915525D02*
G01*
X120503063Y-79968329D01*
X120513007Y-80037487D01*
X120483982Y-80101043D01*
X120459160Y-80122942D01*
X120400124Y-80162388D01*
X120400120Y-80162391D01*
X120295591Y-80266920D01*
X120295588Y-80266924D01*
X120213459Y-80389838D01*
X120213452Y-80389851D01*
X120156883Y-80526422D01*
X120156880Y-80526432D01*
X120128040Y-80671419D01*
X120128040Y-80671422D01*
X120128040Y-80819258D01*
X120128040Y-80819260D01*
X120128039Y-80819260D01*
X120156880Y-80964247D01*
X120156883Y-80964257D01*
X120213452Y-81100828D01*
X120213459Y-81100841D01*
X120295588Y-81223755D01*
X120295591Y-81223759D01*
X120400120Y-81328288D01*
X120400124Y-81328291D01*
X120523038Y-81410420D01*
X120523051Y-81410427D01*
X120645682Y-81461222D01*
X120659627Y-81466998D01*
X120659631Y-81466998D01*
X120659632Y-81466999D01*
X120804619Y-81495840D01*
X120804622Y-81495840D01*
X120952460Y-81495840D01*
X121050002Y-81476436D01*
X121097453Y-81466998D01*
X121234035Y-81410424D01*
X121356956Y-81328291D01*
X121461491Y-81223756D01*
X121543624Y-81100835D01*
X121600198Y-80964253D01*
X121629040Y-80819258D01*
X121629040Y-80671422D01*
X121629040Y-80671419D01*
X121600199Y-80526432D01*
X121600198Y-80526431D01*
X121600198Y-80526427D01*
X121545892Y-80395320D01*
X121543627Y-80389851D01*
X121543620Y-80389838D01*
X121461491Y-80266924D01*
X121461488Y-80266920D01*
X121356959Y-80162391D01*
X121356955Y-80162388D01*
X121297920Y-80122942D01*
X121253115Y-80069330D01*
X121244408Y-80000005D01*
X121274562Y-79936977D01*
X121334005Y-79900258D01*
X121366811Y-79895840D01*
X181940898Y-79895840D01*
X181949746Y-79896155D01*
X182149880Y-79910474D01*
X182167388Y-79912991D01*
X182359113Y-79954702D01*
X182376080Y-79959684D01*
X182468000Y-79993971D01*
X182559916Y-80028257D01*
X182576008Y-80035607D01*
X182748206Y-80129637D01*
X182763088Y-80139200D01*
X182794066Y-80162391D01*
X182920162Y-80256789D01*
X182933530Y-80268373D01*
X183072270Y-80407119D01*
X183083848Y-80420481D01*
X183163151Y-80526422D01*
X183201428Y-80577557D01*
X183210992Y-80592440D01*
X183305017Y-80764642D01*
X183312367Y-80780736D01*
X183380930Y-80964572D01*
X183385914Y-80981547D01*
X183427617Y-81173271D01*
X183430134Y-81190784D01*
X183444523Y-81392034D01*
X183444839Y-81400875D01*
X183444839Y-81419420D01*
X183444838Y-81461222D01*
X183444839Y-81461228D01*
X183444840Y-81469872D01*
X183444840Y-125040898D01*
X183444524Y-125049747D01*
X183430205Y-125249887D01*
X183427687Y-125267397D01*
X183385978Y-125459122D01*
X183380993Y-125476098D01*
X183312424Y-125659931D01*
X183305075Y-125676024D01*
X183211038Y-125848236D01*
X183201473Y-125863119D01*
X183083887Y-126020195D01*
X183072301Y-126033565D01*
X182933565Y-126172301D01*
X182920195Y-126183887D01*
X182763119Y-126301473D01*
X182748236Y-126311038D01*
X182576024Y-126405075D01*
X182559931Y-126412424D01*
X182376098Y-126480993D01*
X182359122Y-126485978D01*
X182167397Y-126527687D01*
X182149887Y-126530205D01*
X181949747Y-126544524D01*
X181940898Y-126544840D01*
X107576832Y-126544840D01*
X107509793Y-126525155D01*
X107464038Y-126472351D01*
X107454094Y-126403193D01*
X107483119Y-126339637D01*
X107520537Y-126310355D01*
X107641756Y-126248591D01*
X107723046Y-126189531D01*
X107813726Y-126123649D01*
X107813728Y-126123646D01*
X107813732Y-126123644D01*
X107964044Y-125973332D01*
X107964046Y-125973328D01*
X107964049Y-125973326D01*
X108088988Y-125801360D01*
X108088987Y-125801360D01*
X108088991Y-125801356D01*
X108185497Y-125611952D01*
X108251186Y-125409783D01*
X108284440Y-125199827D01*
X108284440Y-124987253D01*
X108251186Y-124777297D01*
X108185497Y-124575128D01*
X108088991Y-124385724D01*
X108088989Y-124385721D01*
X108088988Y-124385719D01*
X108086626Y-124382468D01*
X129818940Y-124382468D01*
X129818940Y-124626040D01*
X130468940Y-124626040D01*
X130468940Y-125126040D01*
X129818940Y-125126040D01*
X129818940Y-125369611D01*
X129855446Y-125553137D01*
X129855448Y-125553145D01*
X129927059Y-125726031D01*
X129927064Y-125726040D01*
X130031026Y-125881629D01*
X130031029Y-125881633D01*
X130163346Y-126013950D01*
X130163350Y-126013953D01*
X130318939Y-126117915D01*
X130318952Y-126117922D01*
X130491829Y-126189529D01*
X130491836Y-126189531D01*
X130518940Y-126194922D01*
X130518940Y-125443028D01*
X130528880Y-125460245D01*
X130584735Y-125516100D01*
X130653144Y-125555596D01*
X130729444Y-125576040D01*
X130808436Y-125576040D01*
X130884736Y-125555596D01*
X130953145Y-125516100D01*
X131009000Y-125460245D01*
X131018940Y-125443028D01*
X131018940Y-126194921D01*
X131046043Y-126189531D01*
X131046050Y-126189529D01*
X131218927Y-126117922D01*
X131218940Y-126117915D01*
X131374529Y-126013953D01*
X131374533Y-126013950D01*
X131506850Y-125881633D01*
X131506853Y-125881629D01*
X131610815Y-125726040D01*
X131610820Y-125726031D01*
X131682431Y-125553145D01*
X131682433Y-125553137D01*
X131718939Y-125369611D01*
X131718940Y-125369609D01*
X131718940Y-125126040D01*
X131068940Y-125126040D01*
X131068940Y-124626040D01*
X131718940Y-124626040D01*
X131718940Y-124382470D01*
X131718939Y-124382468D01*
X138468940Y-124382468D01*
X138468940Y-124626040D01*
X139118940Y-124626040D01*
X139118940Y-125126040D01*
X138468940Y-125126040D01*
X138468940Y-125369611D01*
X138505446Y-125553137D01*
X138505448Y-125553145D01*
X138577059Y-125726031D01*
X138577064Y-125726040D01*
X138681026Y-125881629D01*
X138681029Y-125881633D01*
X138813346Y-126013950D01*
X138813350Y-126013953D01*
X138968939Y-126117915D01*
X138968952Y-126117922D01*
X139141829Y-126189529D01*
X139141836Y-126189531D01*
X139168940Y-126194922D01*
X139168940Y-125443028D01*
X139178880Y-125460245D01*
X139234735Y-125516100D01*
X139303144Y-125555596D01*
X139379444Y-125576040D01*
X139458436Y-125576040D01*
X139534736Y-125555596D01*
X139603145Y-125516100D01*
X139659000Y-125460245D01*
X139668940Y-125443028D01*
X139668940Y-126194921D01*
X139696043Y-126189531D01*
X139696050Y-126189529D01*
X139868927Y-126117922D01*
X139868940Y-126117915D01*
X140024529Y-126013953D01*
X140024533Y-126013950D01*
X140156850Y-125881633D01*
X140156853Y-125881629D01*
X140260815Y-125726040D01*
X140260820Y-125726031D01*
X140332431Y-125553145D01*
X140332433Y-125553137D01*
X140368939Y-125369611D01*
X140368940Y-125369609D01*
X140368940Y-125126040D01*
X139718940Y-125126040D01*
X139718940Y-124626040D01*
X140368940Y-124626040D01*
X140368940Y-124382470D01*
X140368939Y-124382468D01*
X140332433Y-124198942D01*
X140332431Y-124198934D01*
X140260820Y-124026048D01*
X140260815Y-124026039D01*
X140156853Y-123870450D01*
X140156850Y-123870446D01*
X140024533Y-123738129D01*
X140024529Y-123738126D01*
X139868940Y-123634164D01*
X139868931Y-123634159D01*
X139696043Y-123562547D01*
X139696040Y-123562546D01*
X139668940Y-123557155D01*
X139668940Y-124309051D01*
X139659000Y-124291835D01*
X139603145Y-124235980D01*
X139534736Y-124196484D01*
X139458436Y-124176040D01*
X139379444Y-124176040D01*
X139303144Y-124196484D01*
X139234735Y-124235980D01*
X139178880Y-124291835D01*
X139168940Y-124309051D01*
X139168940Y-123557156D01*
X139168939Y-123557155D01*
X139141839Y-123562546D01*
X139141836Y-123562547D01*
X138968948Y-123634159D01*
X138968939Y-123634164D01*
X138813350Y-123738126D01*
X138813346Y-123738129D01*
X138681029Y-123870446D01*
X138681026Y-123870450D01*
X138577064Y-124026039D01*
X138577059Y-124026048D01*
X138505448Y-124198934D01*
X138505446Y-124198942D01*
X138468940Y-124382468D01*
X131718939Y-124382468D01*
X131682433Y-124198942D01*
X131682431Y-124198934D01*
X131610820Y-124026048D01*
X131610815Y-124026039D01*
X131506853Y-123870450D01*
X131506850Y-123870446D01*
X131374533Y-123738129D01*
X131374529Y-123738126D01*
X131218940Y-123634164D01*
X131218931Y-123634159D01*
X131046043Y-123562547D01*
X131046040Y-123562546D01*
X131018940Y-123557155D01*
X131018940Y-124309051D01*
X131009000Y-124291835D01*
X130953145Y-124235980D01*
X130884736Y-124196484D01*
X130808436Y-124176040D01*
X130729444Y-124176040D01*
X130653144Y-124196484D01*
X130584735Y-124235980D01*
X130528880Y-124291835D01*
X130518940Y-124309051D01*
X130518940Y-123557156D01*
X130518939Y-123557155D01*
X130491839Y-123562546D01*
X130491836Y-123562547D01*
X130318948Y-123634159D01*
X130318939Y-123634164D01*
X130163350Y-123738126D01*
X130163346Y-123738129D01*
X130031029Y-123870446D01*
X130031026Y-123870450D01*
X129927064Y-124026039D01*
X129927059Y-124026048D01*
X129855448Y-124198934D01*
X129855446Y-124198942D01*
X129818940Y-124382468D01*
X108086626Y-124382468D01*
X107964049Y-124213753D01*
X107813726Y-124063430D01*
X107641757Y-123938489D01*
X107632444Y-123933744D01*
X107581647Y-123885770D01*
X107564852Y-123817949D01*
X107587389Y-123751814D01*
X107632447Y-123712772D01*
X107641495Y-123708162D01*
X107695656Y-123668810D01*
X107695657Y-123668810D01*
X107063348Y-123036502D01*
X107126933Y-123019465D01*
X107240947Y-122953639D01*
X107334039Y-122860547D01*
X107399865Y-122746533D01*
X107416902Y-122682948D01*
X108049210Y-123315257D01*
X108049210Y-123315256D01*
X108088562Y-123261094D01*
X108185035Y-123071757D01*
X108250697Y-122869670D01*
X108250697Y-122869667D01*
X108283940Y-122659786D01*
X108283940Y-122447293D01*
X108250697Y-122237412D01*
X108250697Y-122237409D01*
X108185035Y-122035322D01*
X108088564Y-121845989D01*
X108049210Y-121791822D01*
X108049209Y-121791822D01*
X107416902Y-122424130D01*
X107399865Y-122360547D01*
X107334039Y-122246533D01*
X107240947Y-122153441D01*
X107126933Y-122087615D01*
X107063349Y-122070577D01*
X107695656Y-121438268D01*
X107641487Y-121398913D01*
X107641487Y-121398912D01*
X107632440Y-121394303D01*
X107581646Y-121346328D01*
X107564852Y-121278506D01*
X107587391Y-121212372D01*
X107632448Y-121173333D01*
X107641756Y-121168591D01*
X107720947Y-121111055D01*
X107813726Y-121043649D01*
X107813728Y-121043646D01*
X107813732Y-121043644D01*
X107964044Y-120893332D01*
X108088991Y-120721356D01*
X108185497Y-120531952D01*
X108251186Y-120329783D01*
X108284440Y-120119827D01*
X108284440Y-120062468D01*
X129818940Y-120062468D01*
X129818940Y-120456040D01*
X130468940Y-120456040D01*
X130468940Y-120956040D01*
X129818940Y-120956040D01*
X129818940Y-121349611D01*
X129855446Y-121533137D01*
X129855448Y-121533145D01*
X129927059Y-121706031D01*
X129927064Y-121706040D01*
X130031026Y-121861629D01*
X130031029Y-121861633D01*
X130163346Y-121993950D01*
X130163350Y-121993953D01*
X130318939Y-122097915D01*
X130318952Y-122097922D01*
X130491829Y-122169529D01*
X130491836Y-122169531D01*
X130518940Y-122174922D01*
X130518940Y-121423028D01*
X130528880Y-121440245D01*
X130584735Y-121496100D01*
X130653144Y-121535596D01*
X130729444Y-121556040D01*
X130808436Y-121556040D01*
X130884736Y-121535596D01*
X130953145Y-121496100D01*
X131009000Y-121440245D01*
X131018940Y-121423028D01*
X131018940Y-122174921D01*
X131046043Y-122169531D01*
X131046050Y-122169529D01*
X131218927Y-122097922D01*
X131218940Y-122097915D01*
X131374529Y-121993953D01*
X131374533Y-121993950D01*
X131506850Y-121861633D01*
X131506853Y-121861629D01*
X131610815Y-121706040D01*
X131610819Y-121706033D01*
X131634870Y-121647967D01*
X131678710Y-121593563D01*
X131745004Y-121571497D01*
X131812704Y-121588775D01*
X131837113Y-121607737D01*
X131865925Y-121636549D01*
X131865926Y-121636550D01*
X131865928Y-121636551D01*
X131991451Y-121709022D01*
X131991452Y-121709022D01*
X131991455Y-121709024D01*
X132131465Y-121746540D01*
X132131468Y-121746540D01*
X132276412Y-121746540D01*
X132276415Y-121746540D01*
X132416425Y-121709024D01*
X132541955Y-121636549D01*
X132644449Y-121534055D01*
X132716924Y-121408525D01*
X132754440Y-121268515D01*
X132754440Y-121123565D01*
X137433440Y-121123565D01*
X137433440Y-121268515D01*
X137470956Y-121408525D01*
X137470957Y-121408528D01*
X137543428Y-121534051D01*
X137543430Y-121534053D01*
X137543431Y-121534055D01*
X137645925Y-121636549D01*
X137645926Y-121636550D01*
X137645928Y-121636551D01*
X137771451Y-121709022D01*
X137771452Y-121709022D01*
X137771455Y-121709024D01*
X137911465Y-121746540D01*
X137911468Y-121746540D01*
X138056412Y-121746540D01*
X138056415Y-121746540D01*
X138196425Y-121709024D01*
X138321955Y-121636549D01*
X138350768Y-121607735D01*
X138412087Y-121574252D01*
X138481779Y-121579236D01*
X138537713Y-121621106D01*
X138553008Y-121647966D01*
X138577057Y-121706027D01*
X138577064Y-121706040D01*
X138681026Y-121861629D01*
X138681029Y-121861633D01*
X138813346Y-121993950D01*
X138813350Y-121993953D01*
X138968939Y-122097915D01*
X138968952Y-122097922D01*
X139141829Y-122169529D01*
X139141836Y-122169531D01*
X139168940Y-122174922D01*
X139168940Y-121423028D01*
X139178880Y-121440245D01*
X139234735Y-121496100D01*
X139303144Y-121535596D01*
X139379444Y-121556040D01*
X139458436Y-121556040D01*
X139534736Y-121535596D01*
X139603145Y-121496100D01*
X139659000Y-121440245D01*
X139668940Y-121423028D01*
X139668940Y-122174921D01*
X139696043Y-122169531D01*
X139696050Y-122169529D01*
X139868927Y-122097922D01*
X139868940Y-122097915D01*
X140024529Y-121993953D01*
X140024533Y-121993950D01*
X140156850Y-121861633D01*
X140156853Y-121861629D01*
X140245404Y-121729105D01*
X140299016Y-121684300D01*
X140368341Y-121675593D01*
X140431369Y-121705747D01*
X140463067Y-121750544D01*
X140482652Y-121797828D01*
X140482659Y-121797841D01*
X140564788Y-121920755D01*
X140564791Y-121920759D01*
X140669320Y-122025288D01*
X140669324Y-122025291D01*
X140792238Y-122107420D01*
X140792251Y-122107427D01*
X140903340Y-122153441D01*
X140928827Y-122163998D01*
X140928831Y-122163998D01*
X140928832Y-122163999D01*
X141073819Y-122192840D01*
X141073822Y-122192840D01*
X141221660Y-122192840D01*
X141338847Y-122169529D01*
X141366653Y-122163998D01*
X141503235Y-122107424D01*
X141626156Y-122025291D01*
X141730691Y-121920756D01*
X141812824Y-121797835D01*
X141869398Y-121661253D01*
X141890327Y-121556040D01*
X141898240Y-121516260D01*
X141898240Y-121368419D01*
X141869399Y-121223432D01*
X141869398Y-121223431D01*
X141869398Y-121223427D01*
X141869396Y-121223422D01*
X141812827Y-121086851D01*
X141812820Y-121086838D01*
X141730691Y-120963924D01*
X141730688Y-120963920D01*
X141626159Y-120859391D01*
X141626155Y-120859388D01*
X141503241Y-120777259D01*
X141503228Y-120777252D01*
X141366657Y-120720683D01*
X141366647Y-120720680D01*
X141221660Y-120691840D01*
X141221658Y-120691840D01*
X141073822Y-120691840D01*
X141073820Y-120691840D01*
X140928832Y-120720680D01*
X140928822Y-120720683D01*
X140792251Y-120777252D01*
X140792238Y-120777259D01*
X140669324Y-120859388D01*
X140669320Y-120859391D01*
X140560481Y-120968231D01*
X140559006Y-120966756D01*
X140509087Y-121000747D01*
X140439242Y-121002604D01*
X140383321Y-120970421D01*
X140368940Y-120956040D01*
X139718940Y-120956040D01*
X139718940Y-120456040D01*
X140368940Y-120456040D01*
X140368940Y-120062470D01*
X140368939Y-120062468D01*
X140332433Y-119878942D01*
X140332431Y-119878934D01*
X140260820Y-119706048D01*
X140260815Y-119706039D01*
X140156853Y-119550450D01*
X140156850Y-119550446D01*
X140024533Y-119418129D01*
X140024529Y-119418126D01*
X139868940Y-119314164D01*
X139868931Y-119314159D01*
X139696043Y-119242547D01*
X139696040Y-119242546D01*
X139668940Y-119237155D01*
X139668940Y-119989051D01*
X139659000Y-119971835D01*
X139603145Y-119915980D01*
X139534736Y-119876484D01*
X139458436Y-119856040D01*
X139379444Y-119856040D01*
X139303144Y-119876484D01*
X139234735Y-119915980D01*
X139178880Y-119971835D01*
X139168940Y-119989051D01*
X139168940Y-119237156D01*
X139168939Y-119237155D01*
X139141839Y-119242546D01*
X139141836Y-119242547D01*
X138968948Y-119314159D01*
X138968939Y-119314164D01*
X138813350Y-119418126D01*
X138813346Y-119418129D01*
X138681029Y-119550446D01*
X138681026Y-119550450D01*
X138577064Y-119706039D01*
X138577059Y-119706048D01*
X138505448Y-119878934D01*
X138505446Y-119878942D01*
X138468940Y-120062468D01*
X138468940Y-120456040D01*
X139118940Y-120456040D01*
X139118940Y-120956040D01*
X138552629Y-120956040D01*
X138485590Y-120936355D01*
X138445242Y-120894040D01*
X138424449Y-120858025D01*
X138321955Y-120755531D01*
X138321953Y-120755530D01*
X138321951Y-120755528D01*
X138196428Y-120683057D01*
X138196429Y-120683057D01*
X138184946Y-120679980D01*
X138056415Y-120645540D01*
X137911465Y-120645540D01*
X137782933Y-120679980D01*
X137771451Y-120683057D01*
X137645928Y-120755528D01*
X137645922Y-120755533D01*
X137543433Y-120858022D01*
X137543428Y-120858028D01*
X137470957Y-120983551D01*
X137470956Y-120983555D01*
X137433440Y-121123565D01*
X132754440Y-121123565D01*
X132716924Y-120983555D01*
X132693079Y-120942255D01*
X132644451Y-120858028D01*
X132644446Y-120858022D01*
X132541957Y-120755533D01*
X132541951Y-120755528D01*
X132416428Y-120683057D01*
X132416429Y-120683057D01*
X132404946Y-120679980D01*
X132276415Y-120645540D01*
X132131465Y-120645540D01*
X132002933Y-120679980D01*
X131991451Y-120683057D01*
X131865928Y-120755528D01*
X131865922Y-120755533D01*
X131763433Y-120858022D01*
X131763431Y-120858025D01*
X131743047Y-120893332D01*
X131742638Y-120894040D01*
X131692072Y-120942255D01*
X131635251Y-120956040D01*
X131068940Y-120956040D01*
X131068940Y-120456040D01*
X131718940Y-120456040D01*
X131718940Y-120062470D01*
X131718939Y-120062468D01*
X131682433Y-119878942D01*
X131682431Y-119878934D01*
X131610820Y-119706048D01*
X131610815Y-119706039D01*
X131506853Y-119550450D01*
X131506850Y-119550446D01*
X131374533Y-119418129D01*
X131374529Y-119418126D01*
X131218940Y-119314164D01*
X131218931Y-119314159D01*
X131046043Y-119242547D01*
X131046040Y-119242546D01*
X131018940Y-119237155D01*
X131018940Y-119989051D01*
X131009000Y-119971835D01*
X130953145Y-119915980D01*
X130884736Y-119876484D01*
X130808436Y-119856040D01*
X130729444Y-119856040D01*
X130653144Y-119876484D01*
X130584735Y-119915980D01*
X130528880Y-119971835D01*
X130518940Y-119989051D01*
X130518940Y-119237156D01*
X130518939Y-119237155D01*
X130491839Y-119242546D01*
X130491836Y-119242547D01*
X130318948Y-119314159D01*
X130318939Y-119314164D01*
X130163350Y-119418126D01*
X130163346Y-119418129D01*
X130031029Y-119550446D01*
X130031026Y-119550450D01*
X129927064Y-119706039D01*
X129927059Y-119706048D01*
X129855448Y-119878934D01*
X129855446Y-119878942D01*
X129818940Y-120062468D01*
X108284440Y-120062468D01*
X108284440Y-119907253D01*
X108251186Y-119697297D01*
X108185497Y-119495128D01*
X108088991Y-119305724D01*
X108088989Y-119305721D01*
X108088988Y-119305719D01*
X107964049Y-119133753D01*
X107813726Y-118983430D01*
X107641760Y-118858491D01*
X107641055Y-118858131D01*
X107632994Y-118854025D01*
X107582199Y-118806052D01*
X107565403Y-118738232D01*
X107587939Y-118672096D01*
X107632994Y-118633055D01*
X107641756Y-118628591D01*
X107663729Y-118612626D01*
X107813726Y-118503649D01*
X107813728Y-118503646D01*
X107813732Y-118503644D01*
X107964044Y-118353332D01*
X107964046Y-118353328D01*
X107964049Y-118353326D01*
X108088988Y-118181360D01*
X108088987Y-118181360D01*
X108088991Y-118181356D01*
X108185497Y-117991952D01*
X108251186Y-117789783D01*
X108284440Y-117579827D01*
X108284440Y-117367253D01*
X108251186Y-117157297D01*
X108198353Y-116994693D01*
X143954040Y-116994693D01*
X143954040Y-117152386D01*
X143984801Y-117307029D01*
X143984804Y-117307041D01*
X144045142Y-117452712D01*
X144045149Y-117452725D01*
X144132750Y-117583828D01*
X144132753Y-117583832D01*
X144244247Y-117695326D01*
X144244251Y-117695329D01*
X144375354Y-117782930D01*
X144375367Y-117782937D01*
X144521038Y-117843275D01*
X144521043Y-117843277D01*
X144675693Y-117874039D01*
X144675696Y-117874040D01*
X144675698Y-117874040D01*
X144833384Y-117874040D01*
X144833385Y-117874039D01*
X144988037Y-117843277D01*
X145133719Y-117782934D01*
X145264829Y-117695329D01*
X145376329Y-117583829D01*
X145463934Y-117452719D01*
X145524277Y-117307037D01*
X145555040Y-117152382D01*
X145555040Y-116994698D01*
X145555040Y-116994695D01*
X145555039Y-116994693D01*
X145545560Y-116947041D01*
X145524277Y-116840043D01*
X145504536Y-116792384D01*
X145463937Y-116694367D01*
X145463935Y-116694363D01*
X145463934Y-116694361D01*
X145424065Y-116634693D01*
X155723440Y-116634693D01*
X155723440Y-116792386D01*
X155754201Y-116947029D01*
X155754204Y-116947041D01*
X155814542Y-117092712D01*
X155814549Y-117092725D01*
X155902150Y-117223828D01*
X155902153Y-117223832D01*
X156013647Y-117335326D01*
X156013651Y-117335329D01*
X156144754Y-117422930D01*
X156144767Y-117422937D01*
X156216683Y-117452725D01*
X156290443Y-117483277D01*
X156445093Y-117514039D01*
X156445096Y-117514040D01*
X156445098Y-117514040D01*
X156602784Y-117514040D01*
X156602785Y-117514039D01*
X156757437Y-117483277D01*
X156903119Y-117422934D01*
X157034229Y-117335329D01*
X157145729Y-117223829D01*
X157233334Y-117092719D01*
X157293677Y-116947037D01*
X157324440Y-116792382D01*
X157324440Y-116634698D01*
X157324440Y-116634695D01*
X157324439Y-116634693D01*
X160473440Y-116634693D01*
X160473440Y-116792386D01*
X160504201Y-116947029D01*
X160504204Y-116947041D01*
X160564542Y-117092712D01*
X160564549Y-117092725D01*
X160652150Y-117223828D01*
X160652153Y-117223832D01*
X160763647Y-117335326D01*
X160763651Y-117335329D01*
X160894754Y-117422930D01*
X160894767Y-117422937D01*
X160966683Y-117452725D01*
X161040443Y-117483277D01*
X161195093Y-117514039D01*
X161195096Y-117514040D01*
X161195098Y-117514040D01*
X161352784Y-117514040D01*
X161352785Y-117514039D01*
X161507437Y-117483277D01*
X161653119Y-117422934D01*
X161784229Y-117335329D01*
X161895729Y-117223829D01*
X161983334Y-117092719D01*
X162043677Y-116947037D01*
X162074440Y-116792382D01*
X162074440Y-116634698D01*
X162074440Y-116634695D01*
X162074439Y-116634693D01*
X162043678Y-116480050D01*
X162043677Y-116480043D01*
X162028512Y-116443430D01*
X161983337Y-116334367D01*
X161983330Y-116334354D01*
X161895729Y-116203251D01*
X161895726Y-116203247D01*
X161784232Y-116091753D01*
X161784228Y-116091750D01*
X161653125Y-116004149D01*
X161653112Y-116004142D01*
X161507441Y-115943804D01*
X161507429Y-115943801D01*
X161352785Y-115913040D01*
X161352782Y-115913040D01*
X161195098Y-115913040D01*
X161195095Y-115913040D01*
X161040450Y-115943801D01*
X161040438Y-115943804D01*
X160894767Y-116004142D01*
X160894754Y-116004149D01*
X160763651Y-116091750D01*
X160763647Y-116091753D01*
X160652153Y-116203247D01*
X160652150Y-116203251D01*
X160564549Y-116334354D01*
X160564542Y-116334367D01*
X160504204Y-116480038D01*
X160504201Y-116480050D01*
X160473440Y-116634693D01*
X157324439Y-116634693D01*
X157293678Y-116480050D01*
X157293677Y-116480043D01*
X157278512Y-116443430D01*
X157233337Y-116334367D01*
X157233330Y-116334354D01*
X157145729Y-116203251D01*
X157145726Y-116203247D01*
X157034232Y-116091753D01*
X157034228Y-116091750D01*
X156903125Y-116004149D01*
X156903112Y-116004142D01*
X156757441Y-115943804D01*
X156757429Y-115943801D01*
X156602785Y-115913040D01*
X156602782Y-115913040D01*
X156445098Y-115913040D01*
X156445095Y-115913040D01*
X156290450Y-115943801D01*
X156290438Y-115943804D01*
X156144767Y-116004142D01*
X156144754Y-116004149D01*
X156013651Y-116091750D01*
X156013647Y-116091753D01*
X155902153Y-116203247D01*
X155902150Y-116203251D01*
X155814549Y-116334354D01*
X155814542Y-116334367D01*
X155754204Y-116480038D01*
X155754201Y-116480050D01*
X155723440Y-116634693D01*
X145424065Y-116634693D01*
X145376329Y-116563251D01*
X145376326Y-116563247D01*
X145264832Y-116451753D01*
X145264828Y-116451750D01*
X145133725Y-116364149D01*
X145133712Y-116364142D01*
X144988041Y-116303804D01*
X144988029Y-116303801D01*
X144833385Y-116273040D01*
X144833382Y-116273040D01*
X144675698Y-116273040D01*
X144675695Y-116273040D01*
X144521050Y-116303801D01*
X144521038Y-116303804D01*
X144375367Y-116364142D01*
X144375354Y-116364149D01*
X144244251Y-116451750D01*
X144244247Y-116451753D01*
X144132753Y-116563247D01*
X144132750Y-116563251D01*
X144045149Y-116694354D01*
X144045142Y-116694367D01*
X143984804Y-116840038D01*
X143984801Y-116840050D01*
X143954040Y-116994693D01*
X108198353Y-116994693D01*
X108185497Y-116955128D01*
X108185495Y-116955125D01*
X108185495Y-116955123D01*
X108088988Y-116765719D01*
X107964049Y-116593753D01*
X107813726Y-116443430D01*
X107641760Y-116318491D01*
X107641055Y-116318131D01*
X107632994Y-116314025D01*
X107582199Y-116266052D01*
X107565403Y-116198232D01*
X107587939Y-116132096D01*
X107632994Y-116093055D01*
X107641756Y-116088591D01*
X107663729Y-116072626D01*
X107813726Y-115963649D01*
X107813728Y-115963646D01*
X107813732Y-115963644D01*
X107964044Y-115813332D01*
X107964046Y-115813328D01*
X107964049Y-115813326D01*
X108088988Y-115641360D01*
X108088987Y-115641360D01*
X108088991Y-115641356D01*
X108185497Y-115451952D01*
X108251186Y-115249783D01*
X108284440Y-115039827D01*
X108284440Y-114827253D01*
X108251186Y-114617297D01*
X108185497Y-114415128D01*
X108088991Y-114225724D01*
X108088989Y-114225721D01*
X108088988Y-114225719D01*
X107964049Y-114053753D01*
X107813726Y-113903430D01*
X107641760Y-113778491D01*
X107641055Y-113778131D01*
X107632994Y-113774025D01*
X107582199Y-113726052D01*
X107565403Y-113658232D01*
X107587939Y-113592096D01*
X107632994Y-113553055D01*
X107641756Y-113548591D01*
X107663729Y-113532626D01*
X107813726Y-113423649D01*
X107813728Y-113423646D01*
X107813732Y-113423644D01*
X107964044Y-113273332D01*
X107964046Y-113273328D01*
X107964049Y-113273326D01*
X108088988Y-113101360D01*
X108088987Y-113101360D01*
X108088991Y-113101356D01*
X108185497Y-112911952D01*
X108251186Y-112709783D01*
X108284440Y-112499827D01*
X108284440Y-112287253D01*
X108251186Y-112077297D01*
X108185497Y-111875128D01*
X108088991Y-111685724D01*
X108088989Y-111685721D01*
X108088988Y-111685719D01*
X107964049Y-111513753D01*
X107813726Y-111363430D01*
X107641760Y-111238491D01*
X107641055Y-111238131D01*
X107632994Y-111234025D01*
X107582199Y-111186052D01*
X107565403Y-111118232D01*
X107587939Y-111052096D01*
X107632994Y-111013055D01*
X107641756Y-111008591D01*
X107663729Y-110992626D01*
X107777879Y-110909693D01*
X124598440Y-110909693D01*
X124598440Y-111067386D01*
X124629201Y-111222029D01*
X124629204Y-111222041D01*
X124689542Y-111367712D01*
X124689549Y-111367725D01*
X124777150Y-111498828D01*
X124777153Y-111498832D01*
X124888647Y-111610326D01*
X124888651Y-111610329D01*
X125019754Y-111697930D01*
X125019767Y-111697937D01*
X125165438Y-111758275D01*
X125165443Y-111758277D01*
X125320093Y-111789039D01*
X125320096Y-111789040D01*
X125320098Y-111789040D01*
X125477784Y-111789040D01*
X125477785Y-111789039D01*
X125632437Y-111758277D01*
X125778119Y-111697934D01*
X125909229Y-111610329D01*
X126020729Y-111498829D01*
X126108334Y-111367719D01*
X126168677Y-111222037D01*
X126199440Y-111067382D01*
X126199440Y-110909698D01*
X126199440Y-110909695D01*
X126199439Y-110909693D01*
X126194258Y-110883645D01*
X126168677Y-110755043D01*
X126159682Y-110733326D01*
X126108337Y-110609367D01*
X126108330Y-110609354D01*
X126020729Y-110478251D01*
X126020726Y-110478247D01*
X125909232Y-110366753D01*
X125909228Y-110366750D01*
X125778125Y-110279149D01*
X125778112Y-110279142D01*
X125632441Y-110218804D01*
X125632429Y-110218801D01*
X125477785Y-110188040D01*
X125477782Y-110188040D01*
X125320098Y-110188040D01*
X125320095Y-110188040D01*
X125165450Y-110218801D01*
X125165438Y-110218804D01*
X125019767Y-110279142D01*
X125019754Y-110279149D01*
X124888651Y-110366750D01*
X124888647Y-110366753D01*
X124777153Y-110478247D01*
X124777150Y-110478251D01*
X124689549Y-110609354D01*
X124689542Y-110609367D01*
X124629204Y-110755038D01*
X124629201Y-110755050D01*
X124598440Y-110909693D01*
X107777879Y-110909693D01*
X107813726Y-110883649D01*
X107813728Y-110883646D01*
X107813732Y-110883644D01*
X107964044Y-110733332D01*
X107964046Y-110733328D01*
X107964049Y-110733326D01*
X108088988Y-110561360D01*
X108088987Y-110561360D01*
X108088991Y-110561356D01*
X108185497Y-110371952D01*
X108251186Y-110169783D01*
X108284440Y-109959827D01*
X108284440Y-109747253D01*
X108251186Y-109537297D01*
X108209725Y-109409693D01*
X120898440Y-109409693D01*
X120898440Y-109567386D01*
X120929201Y-109722029D01*
X120929204Y-109722041D01*
X120989542Y-109867712D01*
X120989549Y-109867725D01*
X121077150Y-109998828D01*
X121077153Y-109998832D01*
X121188647Y-110110326D01*
X121188651Y-110110329D01*
X121319754Y-110197930D01*
X121319767Y-110197937D01*
X121465438Y-110258275D01*
X121465443Y-110258277D01*
X121620093Y-110289039D01*
X121620096Y-110289040D01*
X121620098Y-110289040D01*
X121777784Y-110289040D01*
X121777785Y-110289039D01*
X121932437Y-110258277D01*
X122078119Y-110197934D01*
X122209229Y-110110329D01*
X122320729Y-109998829D01*
X122408334Y-109867719D01*
X122412948Y-109856580D01*
X176101639Y-109856580D01*
X176130480Y-110001567D01*
X176130483Y-110001577D01*
X176187052Y-110138148D01*
X176187059Y-110138161D01*
X176269188Y-110261075D01*
X176269191Y-110261079D01*
X176373721Y-110365609D01*
X176373724Y-110365611D01*
X176471304Y-110430812D01*
X176516108Y-110484422D01*
X176524816Y-110553747D01*
X176516974Y-110581365D01*
X176486083Y-110655942D01*
X176486080Y-110655952D01*
X176457240Y-110800939D01*
X176457240Y-110800942D01*
X176457240Y-110948778D01*
X176457240Y-110948780D01*
X176457239Y-110948780D01*
X176486080Y-111093767D01*
X176486083Y-111093777D01*
X176542652Y-111230348D01*
X176542659Y-111230361D01*
X176624788Y-111353275D01*
X176624791Y-111353279D01*
X176729320Y-111457808D01*
X176729324Y-111457811D01*
X176852238Y-111539940D01*
X176852251Y-111539947D01*
X176988822Y-111596516D01*
X176988827Y-111596518D01*
X176988831Y-111596518D01*
X176988832Y-111596519D01*
X177133819Y-111625360D01*
X177133822Y-111625360D01*
X177281660Y-111625360D01*
X177379202Y-111605956D01*
X177426653Y-111596518D01*
X177563235Y-111539944D01*
X177686156Y-111457811D01*
X177790691Y-111353276D01*
X177872824Y-111230355D01*
X177929398Y-111093773D01*
X177945454Y-111013056D01*
X177958240Y-110948780D01*
X177958240Y-110800939D01*
X177929399Y-110655952D01*
X177929398Y-110655951D01*
X177929398Y-110655947D01*
X177910104Y-110609367D01*
X177872827Y-110519371D01*
X177872820Y-110519358D01*
X177790691Y-110396444D01*
X177790688Y-110396440D01*
X177686159Y-110291911D01*
X177686155Y-110291908D01*
X177588576Y-110226707D01*
X177543771Y-110173094D01*
X177535064Y-110103769D01*
X177542906Y-110076152D01*
X177573798Y-110001573D01*
X177600424Y-109867719D01*
X177602640Y-109856580D01*
X177602640Y-109708739D01*
X177573799Y-109563752D01*
X177573798Y-109563751D01*
X177573798Y-109563747D01*
X177553638Y-109515077D01*
X177517227Y-109427171D01*
X177517220Y-109427158D01*
X177435091Y-109304244D01*
X177435088Y-109304240D01*
X177330559Y-109199711D01*
X177330555Y-109199708D01*
X177207641Y-109117579D01*
X177207628Y-109117572D01*
X177071057Y-109061003D01*
X177071047Y-109061000D01*
X176926060Y-109032160D01*
X176926058Y-109032160D01*
X176778222Y-109032160D01*
X176778220Y-109032160D01*
X176633232Y-109061000D01*
X176633222Y-109061003D01*
X176496651Y-109117572D01*
X176496638Y-109117579D01*
X176373724Y-109199708D01*
X176373720Y-109199711D01*
X176269191Y-109304240D01*
X176269188Y-109304244D01*
X176187059Y-109427158D01*
X176187052Y-109427171D01*
X176130483Y-109563742D01*
X176130480Y-109563752D01*
X176101640Y-109708739D01*
X176101640Y-109708742D01*
X176101640Y-109856578D01*
X176101640Y-109856580D01*
X176101639Y-109856580D01*
X122412948Y-109856580D01*
X122468677Y-109722037D01*
X122471322Y-109708739D01*
X122477346Y-109678458D01*
X122477346Y-109678457D01*
X122499439Y-109567386D01*
X122499440Y-109567384D01*
X122499440Y-109409695D01*
X122499439Y-109409693D01*
X122484606Y-109335125D01*
X122468677Y-109255043D01*
X122441378Y-109189136D01*
X122408337Y-109109367D01*
X122408330Y-109109354D01*
X122320729Y-108978251D01*
X122320726Y-108978247D01*
X122209232Y-108866753D01*
X122209228Y-108866750D01*
X122078125Y-108779149D01*
X122078112Y-108779142D01*
X121932441Y-108718804D01*
X121932429Y-108718801D01*
X121777785Y-108688040D01*
X121777782Y-108688040D01*
X121620098Y-108688040D01*
X121620095Y-108688040D01*
X121465450Y-108718801D01*
X121465438Y-108718804D01*
X121319767Y-108779142D01*
X121319754Y-108779149D01*
X121188651Y-108866750D01*
X121188647Y-108866753D01*
X121077153Y-108978247D01*
X121077150Y-108978251D01*
X120989549Y-109109354D01*
X120989542Y-109109367D01*
X120929204Y-109255038D01*
X120929201Y-109255050D01*
X120898440Y-109409693D01*
X108209725Y-109409693D01*
X108185497Y-109335128D01*
X108088991Y-109145724D01*
X108088989Y-109145721D01*
X108088988Y-109145719D01*
X107964049Y-108973753D01*
X107850509Y-108860213D01*
X107817024Y-108798890D01*
X107822008Y-108729198D01*
X107863880Y-108673265D01*
X107894855Y-108656350D01*
X108026271Y-108607336D01*
X108141486Y-108521086D01*
X108227736Y-108405871D01*
X108278031Y-108271023D01*
X108284440Y-108211413D01*
X108284439Y-107571660D01*
X123150639Y-107571660D01*
X123179480Y-107716647D01*
X123179483Y-107716657D01*
X123236052Y-107853228D01*
X123236059Y-107853241D01*
X123318188Y-107976155D01*
X123318191Y-107976159D01*
X123422720Y-108080688D01*
X123422724Y-108080691D01*
X123545638Y-108162820D01*
X123545651Y-108162827D01*
X123663350Y-108211579D01*
X123682227Y-108219398D01*
X123682231Y-108219398D01*
X123682232Y-108219399D01*
X123827219Y-108248240D01*
X123827222Y-108248240D01*
X123975060Y-108248240D01*
X124072602Y-108228836D01*
X124120053Y-108219398D01*
X124256635Y-108162824D01*
X124379556Y-108080691D01*
X124379561Y-108080685D01*
X124380351Y-108080158D01*
X124447029Y-108059280D01*
X124514409Y-108077764D01*
X124561100Y-108129743D01*
X124563804Y-108135807D01*
X124620354Y-108272332D01*
X124620359Y-108272341D01*
X124702488Y-108395255D01*
X124702491Y-108395259D01*
X124807020Y-108499788D01*
X124807024Y-108499791D01*
X124929938Y-108581920D01*
X124929951Y-108581927D01*
X125066522Y-108638496D01*
X125066527Y-108638498D01*
X125066531Y-108638498D01*
X125066532Y-108638499D01*
X125211519Y-108667340D01*
X125211522Y-108667340D01*
X125359360Y-108667340D01*
X125363608Y-108666495D01*
X130694840Y-108666495D01*
X130694840Y-108824186D01*
X130725601Y-108978829D01*
X130725604Y-108978841D01*
X130785942Y-109124512D01*
X130785949Y-109124525D01*
X130873550Y-109255628D01*
X130873553Y-109255632D01*
X130985047Y-109367126D01*
X130985051Y-109367129D01*
X131116154Y-109454730D01*
X131116167Y-109454737D01*
X131261838Y-109515075D01*
X131261843Y-109515077D01*
X131373550Y-109537297D01*
X131416493Y-109545839D01*
X131416496Y-109545840D01*
X131416498Y-109545840D01*
X131574184Y-109545840D01*
X131574185Y-109545839D01*
X131728837Y-109515077D01*
X131874519Y-109454734D01*
X132005629Y-109367129D01*
X132117129Y-109255629D01*
X132204734Y-109124519D01*
X132265077Y-108978837D01*
X132295840Y-108824182D01*
X132295840Y-108666498D01*
X132295840Y-108666495D01*
X132295839Y-108666490D01*
X132272587Y-108549598D01*
X132265077Y-108511843D01*
X132223262Y-108410891D01*
X132204737Y-108366167D01*
X132204730Y-108366154D01*
X132117129Y-108235051D01*
X132117126Y-108235047D01*
X132005632Y-108123553D01*
X132005628Y-108123550D01*
X131874525Y-108035949D01*
X131874512Y-108035942D01*
X131728841Y-107975604D01*
X131728829Y-107975601D01*
X131574185Y-107944840D01*
X131574182Y-107944840D01*
X131416498Y-107944840D01*
X131416495Y-107944840D01*
X131261850Y-107975601D01*
X131261838Y-107975604D01*
X131116167Y-108035942D01*
X131116154Y-108035949D01*
X130985051Y-108123550D01*
X130985047Y-108123553D01*
X130873553Y-108235047D01*
X130873550Y-108235051D01*
X130785949Y-108366154D01*
X130785942Y-108366167D01*
X130725604Y-108511838D01*
X130725601Y-108511850D01*
X130694841Y-108666490D01*
X130694840Y-108666495D01*
X125363608Y-108666495D01*
X125456902Y-108647936D01*
X125504353Y-108638498D01*
X125640935Y-108581924D01*
X125689315Y-108549598D01*
X125763856Y-108499791D01*
X125868388Y-108395259D01*
X125868391Y-108395256D01*
X125950524Y-108272335D01*
X125951068Y-108271023D01*
X125963342Y-108241387D01*
X126007098Y-108135753D01*
X126026951Y-108035949D01*
X126035940Y-107990760D01*
X126035940Y-107901860D01*
X132955039Y-107901860D01*
X132983880Y-108046847D01*
X132983883Y-108046857D01*
X133040452Y-108183428D01*
X133040459Y-108183441D01*
X133122588Y-108306355D01*
X133122591Y-108306359D01*
X133227120Y-108410888D01*
X133227124Y-108410891D01*
X133350038Y-108493020D01*
X133350051Y-108493027D01*
X133486622Y-108549596D01*
X133486627Y-108549598D01*
X133486631Y-108549598D01*
X133486632Y-108549599D01*
X133631619Y-108578440D01*
X133631622Y-108578440D01*
X133779460Y-108578440D01*
X133885713Y-108557304D01*
X133924453Y-108549598D01*
X134061035Y-108493024D01*
X134183956Y-108410891D01*
X134288491Y-108306356D01*
X134370624Y-108183435D01*
X134427198Y-108046853D01*
X134456040Y-107901858D01*
X134456040Y-107789053D01*
X154579840Y-107789053D01*
X154579840Y-108001626D01*
X154613068Y-108211423D01*
X154613094Y-108211583D01*
X154677853Y-108410891D01*
X154678784Y-108413754D01*
X154775291Y-108603160D01*
X154900230Y-108775126D01*
X155050553Y-108925449D01*
X155222519Y-109050388D01*
X155222521Y-109050389D01*
X155222524Y-109050391D01*
X155411928Y-109146897D01*
X155614097Y-109212586D01*
X155824053Y-109245840D01*
X155824054Y-109245840D01*
X156036626Y-109245840D01*
X156036627Y-109245840D01*
X156246583Y-109212586D01*
X156448752Y-109146897D01*
X156638156Y-109050391D01*
X156810132Y-108925444D01*
X156923669Y-108811906D01*
X156984988Y-108778424D01*
X157054680Y-108783408D01*
X157110614Y-108825279D01*
X157127529Y-108856257D01*
X157176542Y-108987668D01*
X157176546Y-108987675D01*
X157262792Y-109102884D01*
X157262795Y-109102887D01*
X157378004Y-109189133D01*
X157378011Y-109189137D01*
X157512857Y-109239431D01*
X157512856Y-109239431D01*
X157519784Y-109240175D01*
X157572467Y-109245840D01*
X159368212Y-109245839D01*
X159427823Y-109239431D01*
X159562671Y-109189136D01*
X159677886Y-109102886D01*
X159764136Y-108987671D01*
X159814431Y-108852823D01*
X159820840Y-108793213D01*
X159820839Y-106997468D01*
X159814431Y-106937857D01*
X159813150Y-106934423D01*
X159764137Y-106803011D01*
X159764133Y-106803004D01*
X159677887Y-106687795D01*
X159677884Y-106687792D01*
X159562675Y-106601546D01*
X159562668Y-106601542D01*
X159427822Y-106551248D01*
X159427823Y-106551248D01*
X159368223Y-106544841D01*
X159368221Y-106544840D01*
X159368213Y-106544840D01*
X159368204Y-106544840D01*
X157572469Y-106544840D01*
X157572463Y-106544841D01*
X157512856Y-106551248D01*
X157378011Y-106601542D01*
X157378004Y-106601546D01*
X157262795Y-106687792D01*
X157262792Y-106687795D01*
X157176546Y-106803004D01*
X157176543Y-106803009D01*
X157127529Y-106934423D01*
X157085657Y-106990356D01*
X157020193Y-107014773D01*
X156951920Y-106999921D01*
X156923666Y-106978770D01*
X156810126Y-106865230D01*
X156638160Y-106740291D01*
X156448754Y-106643784D01*
X156448753Y-106643783D01*
X156448752Y-106643783D01*
X156246583Y-106578094D01*
X156246581Y-106578093D01*
X156246580Y-106578093D01*
X156085297Y-106552548D01*
X156036627Y-106544840D01*
X155824053Y-106544840D01*
X155775382Y-106552548D01*
X155614100Y-106578093D01*
X155411925Y-106643784D01*
X155222519Y-106740291D01*
X155050553Y-106865230D01*
X154900230Y-107015553D01*
X154775291Y-107187519D01*
X154678784Y-107376925D01*
X154678783Y-107376927D01*
X154678783Y-107376928D01*
X154647746Y-107472451D01*
X154613093Y-107579100D01*
X154579840Y-107789053D01*
X134456040Y-107789053D01*
X134456040Y-107754022D01*
X134456040Y-107754019D01*
X134427199Y-107609032D01*
X134427198Y-107609031D01*
X134427198Y-107609027D01*
X134389133Y-107517129D01*
X134370627Y-107472451D01*
X134370620Y-107472438D01*
X134288491Y-107349524D01*
X134288488Y-107349520D01*
X134183959Y-107244991D01*
X134183955Y-107244988D01*
X134061041Y-107162859D01*
X134061028Y-107162852D01*
X133924457Y-107106283D01*
X133924447Y-107106280D01*
X133779460Y-107077440D01*
X133779458Y-107077440D01*
X133631622Y-107077440D01*
X133631620Y-107077440D01*
X133486632Y-107106280D01*
X133486622Y-107106283D01*
X133350051Y-107162852D01*
X133350038Y-107162859D01*
X133227124Y-107244988D01*
X133227120Y-107244991D01*
X133122591Y-107349520D01*
X133122588Y-107349524D01*
X133040459Y-107472438D01*
X133040452Y-107472451D01*
X132983883Y-107609022D01*
X132983880Y-107609032D01*
X132955040Y-107754019D01*
X132955040Y-107754022D01*
X132955040Y-107901858D01*
X132955040Y-107901860D01*
X132955039Y-107901860D01*
X126035940Y-107901860D01*
X126035940Y-107842919D01*
X126007099Y-107697932D01*
X126007098Y-107697931D01*
X126007098Y-107697927D01*
X125993490Y-107665075D01*
X125950527Y-107561351D01*
X125950520Y-107561338D01*
X125868391Y-107438424D01*
X125868388Y-107438420D01*
X125763859Y-107333891D01*
X125763855Y-107333888D01*
X125640941Y-107251759D01*
X125640928Y-107251752D01*
X125504357Y-107195183D01*
X125504347Y-107195180D01*
X125359360Y-107166340D01*
X125359358Y-107166340D01*
X125211522Y-107166340D01*
X125211520Y-107166340D01*
X125066532Y-107195180D01*
X125066522Y-107195183D01*
X124929951Y-107251752D01*
X124929938Y-107251759D01*
X124806227Y-107334421D01*
X124739549Y-107355299D01*
X124672169Y-107336814D01*
X124625479Y-107284835D01*
X124622775Y-107278771D01*
X124566227Y-107142251D01*
X124566220Y-107142238D01*
X124484091Y-107019324D01*
X124484088Y-107019320D01*
X124379559Y-106914791D01*
X124379555Y-106914788D01*
X124256641Y-106832659D01*
X124256628Y-106832652D01*
X124120057Y-106776083D01*
X124120047Y-106776080D01*
X123975060Y-106747240D01*
X123975058Y-106747240D01*
X123827222Y-106747240D01*
X123827220Y-106747240D01*
X123682232Y-106776080D01*
X123682222Y-106776083D01*
X123545651Y-106832652D01*
X123545638Y-106832659D01*
X123422724Y-106914788D01*
X123422720Y-106914791D01*
X123318191Y-107019320D01*
X123318188Y-107019324D01*
X123236059Y-107142238D01*
X123236052Y-107142251D01*
X123179483Y-107278822D01*
X123179480Y-107278832D01*
X123150640Y-107423819D01*
X123150640Y-107423822D01*
X123150640Y-107571658D01*
X123150640Y-107571660D01*
X123150639Y-107571660D01*
X108284439Y-107571660D01*
X108284439Y-107284835D01*
X108284439Y-106606460D01*
X125893439Y-106606460D01*
X125922280Y-106751447D01*
X125922283Y-106751457D01*
X125978852Y-106888028D01*
X125978859Y-106888041D01*
X126060988Y-107010955D01*
X126060991Y-107010959D01*
X126165520Y-107115488D01*
X126165524Y-107115491D01*
X126288438Y-107197620D01*
X126288451Y-107197627D01*
X126402792Y-107244988D01*
X126425027Y-107254198D01*
X126425031Y-107254198D01*
X126425032Y-107254199D01*
X126570019Y-107283040D01*
X126570022Y-107283040D01*
X126717860Y-107283040D01*
X126815402Y-107263636D01*
X126862853Y-107254198D01*
X126968487Y-107210442D01*
X126999428Y-107197627D01*
X126999428Y-107197626D01*
X126999435Y-107197624D01*
X127122356Y-107115491D01*
X127226891Y-107010956D01*
X127309024Y-106888035D01*
X127338658Y-106816493D01*
X128744840Y-106816493D01*
X128744840Y-106974186D01*
X128775601Y-107128829D01*
X128775604Y-107128841D01*
X128835942Y-107274512D01*
X128835949Y-107274525D01*
X128923550Y-107405628D01*
X128923553Y-107405632D01*
X129035047Y-107517126D01*
X129035051Y-107517129D01*
X129166154Y-107604730D01*
X129166167Y-107604737D01*
X129311838Y-107665075D01*
X129311843Y-107665077D01*
X129466493Y-107695839D01*
X129466496Y-107695840D01*
X129466498Y-107695840D01*
X129624184Y-107695840D01*
X129624185Y-107695839D01*
X129778837Y-107665077D01*
X129825435Y-107645775D01*
X129855388Y-107633369D01*
X129924512Y-107604737D01*
X129924512Y-107604736D01*
X129924519Y-107604734D01*
X130055629Y-107517129D01*
X130167129Y-107405629D01*
X130254734Y-107274519D01*
X130267983Y-107242532D01*
X130311823Y-107188130D01*
X130378116Y-107166064D01*
X130445816Y-107183342D01*
X130470225Y-107202304D01*
X130535047Y-107267126D01*
X130535051Y-107267129D01*
X130666154Y-107354730D01*
X130666167Y-107354737D01*
X130811838Y-107415075D01*
X130811843Y-107415077D01*
X130929216Y-107438424D01*
X130966493Y-107445839D01*
X130966496Y-107445840D01*
X130966498Y-107445840D01*
X131124184Y-107445840D01*
X131124185Y-107445839D01*
X131278837Y-107415077D01*
X131424519Y-107354734D01*
X131555629Y-107267129D01*
X131667129Y-107155629D01*
X131754734Y-107024519D01*
X131756888Y-107019320D01*
X131800185Y-106914789D01*
X131815077Y-106878837D01*
X131845840Y-106724182D01*
X131845840Y-106566498D01*
X131845840Y-106566495D01*
X131845839Y-106566493D01*
X131835826Y-106516154D01*
X131815077Y-106411843D01*
X131811622Y-106403501D01*
X131754737Y-106266167D01*
X131754730Y-106266154D01*
X131667129Y-106135051D01*
X131667126Y-106135047D01*
X131555632Y-106023553D01*
X131555628Y-106023550D01*
X131424525Y-105935949D01*
X131424512Y-105935942D01*
X131278841Y-105875604D01*
X131278829Y-105875601D01*
X131124185Y-105844840D01*
X131124182Y-105844840D01*
X130966498Y-105844840D01*
X130966495Y-105844840D01*
X130811850Y-105875601D01*
X130811838Y-105875604D01*
X130666167Y-105935942D01*
X130666154Y-105935949D01*
X130535051Y-106023550D01*
X130535047Y-106023553D01*
X130423553Y-106135047D01*
X130423550Y-106135051D01*
X130335949Y-106266154D01*
X130335943Y-106266166D01*
X130322695Y-106298149D01*
X130278853Y-106352551D01*
X130212559Y-106374615D01*
X130144860Y-106357335D01*
X130120454Y-106338375D01*
X130055632Y-106273553D01*
X130055628Y-106273550D01*
X129924525Y-106185949D01*
X129924512Y-106185942D01*
X129778841Y-106125604D01*
X129778829Y-106125601D01*
X129624185Y-106094840D01*
X129624182Y-106094840D01*
X129466498Y-106094840D01*
X129466495Y-106094840D01*
X129311850Y-106125601D01*
X129311838Y-106125604D01*
X129166167Y-106185942D01*
X129166154Y-106185949D01*
X129035051Y-106273550D01*
X129035047Y-106273553D01*
X128923553Y-106385047D01*
X128923550Y-106385051D01*
X128835949Y-106516154D01*
X128835942Y-106516167D01*
X128775604Y-106661838D01*
X128775601Y-106661850D01*
X128744840Y-106816493D01*
X127338658Y-106816493D01*
X127365598Y-106751453D01*
X127387015Y-106643784D01*
X127394440Y-106606460D01*
X127394440Y-106458619D01*
X127365599Y-106313632D01*
X127365598Y-106313631D01*
X127365598Y-106313627D01*
X127348998Y-106273550D01*
X127309027Y-106177051D01*
X127309020Y-106177038D01*
X127226891Y-106054124D01*
X127226888Y-106054120D01*
X127122359Y-105949591D01*
X127122355Y-105949588D01*
X126999441Y-105867459D01*
X126999428Y-105867452D01*
X126862857Y-105810883D01*
X126862847Y-105810880D01*
X126717860Y-105782040D01*
X126717858Y-105782040D01*
X126570022Y-105782040D01*
X126570020Y-105782040D01*
X126425032Y-105810880D01*
X126425022Y-105810883D01*
X126288451Y-105867452D01*
X126288438Y-105867459D01*
X126165524Y-105949588D01*
X126165520Y-105949591D01*
X126060991Y-106054120D01*
X126060988Y-106054124D01*
X125978859Y-106177038D01*
X125978852Y-106177051D01*
X125922283Y-106313622D01*
X125922280Y-106313632D01*
X125893440Y-106458619D01*
X125893440Y-106458622D01*
X125893440Y-106606458D01*
X125893440Y-106606460D01*
X125893439Y-106606460D01*
X108284439Y-106606460D01*
X108284439Y-106452530D01*
X108284439Y-106415669D01*
X108284438Y-106415663D01*
X108284437Y-106415656D01*
X108278031Y-106356057D01*
X108276723Y-106352551D01*
X108227737Y-106221211D01*
X108227733Y-106221204D01*
X108141487Y-106105995D01*
X108141484Y-106105992D01*
X108026275Y-106019746D01*
X108026268Y-106019742D01*
X107891422Y-105969448D01*
X107891423Y-105969448D01*
X107831823Y-105963041D01*
X107831821Y-105963040D01*
X107831813Y-105963040D01*
X107831804Y-105963040D01*
X106036069Y-105963040D01*
X106036063Y-105963041D01*
X105976456Y-105969448D01*
X105841611Y-106019742D01*
X105841604Y-106019746D01*
X105726395Y-106105992D01*
X105726392Y-106105995D01*
X105640146Y-106221204D01*
X105640142Y-106221211D01*
X105589848Y-106356057D01*
X105583851Y-106411843D01*
X105583441Y-106415663D01*
X105583440Y-106415675D01*
X105583440Y-108211410D01*
X105583441Y-108211416D01*
X105589848Y-108271023D01*
X105640142Y-108405868D01*
X105640146Y-108405875D01*
X105726392Y-108521084D01*
X105726395Y-108521087D01*
X105841604Y-108607333D01*
X105841611Y-108607337D01*
X105973022Y-108656350D01*
X106028956Y-108698221D01*
X106053373Y-108763685D01*
X106038522Y-108831958D01*
X106017371Y-108860213D01*
X105903829Y-108973755D01*
X105778891Y-109145719D01*
X105682384Y-109335125D01*
X105682383Y-109335127D01*
X105682383Y-109335128D01*
X105652478Y-109427165D01*
X105616693Y-109537300D01*
X105583440Y-109747253D01*
X105583440Y-109959826D01*
X105611685Y-110138161D01*
X105616694Y-110169783D01*
X105656375Y-110291909D01*
X105682384Y-110371954D01*
X105778891Y-110561360D01*
X105903830Y-110733326D01*
X106054153Y-110883649D01*
X106226122Y-111008590D01*
X106234886Y-111013056D01*
X106285682Y-111061031D01*
X106302476Y-111128852D01*
X106279938Y-111194987D01*
X106234886Y-111234024D01*
X106226122Y-111238489D01*
X106054153Y-111363430D01*
X105903830Y-111513753D01*
X105778891Y-111685719D01*
X105682384Y-111875125D01*
X105616693Y-112077300D01*
X105583440Y-112287253D01*
X105583440Y-112499826D01*
X105616693Y-112709779D01*
X105682384Y-112911954D01*
X105778891Y-113101360D01*
X105903830Y-113273326D01*
X106054153Y-113423649D01*
X106226122Y-113548590D01*
X106234886Y-113553056D01*
X106285682Y-113601031D01*
X106302476Y-113668852D01*
X106279938Y-113734987D01*
X106234886Y-113774024D01*
X106226122Y-113778489D01*
X106054153Y-113903430D01*
X105903830Y-114053753D01*
X105778891Y-114225719D01*
X105682384Y-114415125D01*
X105616693Y-114617300D01*
X105583440Y-114827253D01*
X105583440Y-115039826D01*
X105616693Y-115249779D01*
X105682384Y-115451954D01*
X105778891Y-115641360D01*
X105903830Y-115813326D01*
X106054153Y-115963649D01*
X106226122Y-116088590D01*
X106234886Y-116093056D01*
X106285682Y-116141031D01*
X106302476Y-116208852D01*
X106279938Y-116274987D01*
X106234886Y-116314024D01*
X106226122Y-116318489D01*
X106054153Y-116443430D01*
X105903830Y-116593753D01*
X105778891Y-116765719D01*
X105682384Y-116955125D01*
X105682383Y-116955127D01*
X105682383Y-116955128D01*
X105669527Y-116994695D01*
X105616693Y-117157300D01*
X105583440Y-117367253D01*
X105583440Y-117579826D01*
X105615609Y-117782937D01*
X105616694Y-117789783D01*
X105634075Y-117843277D01*
X105682384Y-117991954D01*
X105778891Y-118181360D01*
X105903830Y-118353326D01*
X106054153Y-118503649D01*
X106226122Y-118628590D01*
X106234886Y-118633056D01*
X106285682Y-118681031D01*
X106302476Y-118748852D01*
X106279938Y-118814987D01*
X106234886Y-118854024D01*
X106226122Y-118858489D01*
X106054153Y-118983430D01*
X105903830Y-119133753D01*
X105778891Y-119305719D01*
X105682384Y-119495125D01*
X105616693Y-119697300D01*
X105583440Y-119907253D01*
X105583440Y-120119826D01*
X105616693Y-120329779D01*
X105682384Y-120531954D01*
X105778891Y-120721360D01*
X105903830Y-120893326D01*
X106054153Y-121043649D01*
X106226119Y-121168588D01*
X106226121Y-121168589D01*
X106226124Y-121168591D01*
X106235433Y-121173334D01*
X106286230Y-121221306D01*
X106303027Y-121289127D01*
X106280492Y-121355262D01*
X106235445Y-121394300D01*
X106226386Y-121398916D01*
X106226380Y-121398920D01*
X106172222Y-121438267D01*
X106172222Y-121438268D01*
X106804531Y-122070577D01*
X106740947Y-122087615D01*
X106626933Y-122153441D01*
X106533841Y-122246533D01*
X106468015Y-122360547D01*
X106450977Y-122424131D01*
X105818668Y-121791822D01*
X105818667Y-121791822D01*
X105779320Y-121845979D01*
X105682844Y-122035322D01*
X105617182Y-122237409D01*
X105617182Y-122237412D01*
X105583940Y-122447293D01*
X105583940Y-122659786D01*
X105617182Y-122869667D01*
X105617182Y-122869670D01*
X105682844Y-123071757D01*
X105779315Y-123261090D01*
X105818668Y-123315256D01*
X106450977Y-122682948D01*
X106468015Y-122746533D01*
X106533841Y-122860547D01*
X106626933Y-122953639D01*
X106740947Y-123019465D01*
X106804530Y-123036502D01*
X106172222Y-123668809D01*
X106172222Y-123668810D01*
X106226392Y-123708166D01*
X106226391Y-123708166D01*
X106235435Y-123712774D01*
X106286232Y-123760748D01*
X106303027Y-123828569D01*
X106280490Y-123894704D01*
X106235439Y-123933742D01*
X106226122Y-123938489D01*
X106054153Y-124063430D01*
X105903830Y-124213753D01*
X105778891Y-124385719D01*
X105682384Y-124575125D01*
X105616693Y-124777300D01*
X105584683Y-124979403D01*
X105583440Y-124987253D01*
X105583440Y-125199827D01*
X105616694Y-125409783D01*
X105670714Y-125576040D01*
X105682384Y-125611954D01*
X105778891Y-125801360D01*
X105903830Y-125973326D01*
X106054153Y-126123649D01*
X106226119Y-126248588D01*
X106226121Y-126248589D01*
X106226124Y-126248591D01*
X106347343Y-126310355D01*
X106398139Y-126358330D01*
X106414934Y-126426151D01*
X106392397Y-126492285D01*
X106337682Y-126535737D01*
X106291048Y-126544840D01*
X104619872Y-126544840D01*
X104611228Y-126544839D01*
X104611222Y-126544838D01*
X104569157Y-126544839D01*
X104549750Y-126544839D01*
X104549749Y-126544838D01*
X104540908Y-126544523D01*
X104340770Y-126530213D01*
X104323259Y-126527696D01*
X104131527Y-126485992D01*
X104114551Y-126481008D01*
X103967465Y-126426151D01*
X103930699Y-126412438D01*
X103914611Y-126405091D01*
X103742392Y-126311057D01*
X103727517Y-126301498D01*
X103585143Y-126194922D01*
X103570431Y-126183909D01*
X103557061Y-126172324D01*
X103418316Y-126033586D01*
X103406729Y-126020215D01*
X103289137Y-125863136D01*
X103279572Y-125848253D01*
X103212830Y-125726031D01*
X103185529Y-125676036D01*
X103178186Y-125659958D01*
X103109609Y-125476108D01*
X103104625Y-125459134D01*
X103093888Y-125409783D01*
X103062909Y-125267387D01*
X103060394Y-125249899D01*
X103046168Y-125051037D01*
X103045852Y-125042188D01*
X103045856Y-124235980D01*
X103045954Y-106571232D01*
X103045957Y-106571222D01*
X103045955Y-106509742D01*
X103046271Y-106500908D01*
X103046648Y-106495645D01*
X103060580Y-106300779D01*
X103063096Y-106283281D01*
X103104802Y-106091556D01*
X103109785Y-106074587D01*
X103178354Y-105890744D01*
X103185694Y-105874672D01*
X103279732Y-105702455D01*
X103289285Y-105687591D01*
X103406878Y-105530510D01*
X103418457Y-105517149D01*
X103557195Y-105378417D01*
X103570561Y-105366835D01*
X103611140Y-105336460D01*
X122947439Y-105336460D01*
X122976280Y-105481447D01*
X122976283Y-105481457D01*
X123032852Y-105618028D01*
X123032859Y-105618041D01*
X123114988Y-105740955D01*
X123114991Y-105740959D01*
X123219520Y-105845488D01*
X123219524Y-105845491D01*
X123342438Y-105927620D01*
X123342451Y-105927627D01*
X123478428Y-105983950D01*
X123479027Y-105984198D01*
X123479031Y-105984198D01*
X123479032Y-105984199D01*
X123624019Y-106013040D01*
X123624022Y-106013040D01*
X123771860Y-106013040D01*
X123869402Y-105993636D01*
X123916853Y-105984198D01*
X124053435Y-105927624D01*
X124176356Y-105845491D01*
X124280891Y-105740956D01*
X124363024Y-105618035D01*
X124419598Y-105481453D01*
X124441341Y-105372147D01*
X124448440Y-105336460D01*
X124448440Y-105188619D01*
X124419599Y-105043632D01*
X124419598Y-105043631D01*
X124419598Y-105043627D01*
X124404124Y-105006270D01*
X124363027Y-104907051D01*
X124363020Y-104907038D01*
X124280891Y-104784124D01*
X124280888Y-104784120D01*
X124176359Y-104679591D01*
X124176355Y-104679588D01*
X124053441Y-104597459D01*
X124053428Y-104597452D01*
X123916857Y-104540883D01*
X123916847Y-104540880D01*
X123771860Y-104512040D01*
X123771858Y-104512040D01*
X123624022Y-104512040D01*
X123624020Y-104512040D01*
X123479032Y-104540880D01*
X123479022Y-104540883D01*
X123342451Y-104597452D01*
X123342438Y-104597459D01*
X123219524Y-104679588D01*
X123219520Y-104679591D01*
X123114991Y-104784120D01*
X123114988Y-104784124D01*
X123032859Y-104907038D01*
X123032852Y-104907051D01*
X122976283Y-105043622D01*
X122976280Y-105043632D01*
X122947440Y-105188619D01*
X122947440Y-105188622D01*
X122947440Y-105336458D01*
X122947440Y-105336460D01*
X122947439Y-105336460D01*
X103611140Y-105336460D01*
X103727641Y-105249253D01*
X103742509Y-105239699D01*
X103914726Y-105145669D01*
X103930797Y-105138330D01*
X104114653Y-105069764D01*
X104131614Y-105064785D01*
X104323343Y-105023087D01*
X104340835Y-105020573D01*
X104540986Y-105006269D01*
X104549589Y-105005955D01*
X104611282Y-105005959D01*
X104611707Y-105005844D01*
X104612973Y-105005841D01*
X118295777Y-104983340D01*
X118361232Y-104983340D01*
X118362054Y-104983231D01*
X118362055Y-104983231D01*
X118425398Y-104966146D01*
X118425398Y-104966148D01*
X118425410Y-104966143D01*
X118488526Y-104949232D01*
X118488864Y-104949036D01*
X118489236Y-104948936D01*
X118489281Y-104948917D01*
X118489293Y-104948914D01*
X118546144Y-104915965D01*
X118602654Y-104883340D01*
X118602655Y-104883339D01*
X118603310Y-104882836D01*
X118603310Y-104882835D01*
X118603313Y-104882834D01*
X118649677Y-104836316D01*
X118695840Y-104790154D01*
X118696026Y-104789830D01*
X118696286Y-104789570D01*
X118696336Y-104789503D01*
X118696345Y-104789495D01*
X118729025Y-104732674D01*
X118761732Y-104676026D01*
X118761829Y-104675658D01*
X118762018Y-104675332D01*
X118762048Y-104675262D01*
X118778867Y-104612076D01*
X118778869Y-104612071D01*
X118778978Y-104611658D01*
X118795840Y-104548732D01*
X118795840Y-104548322D01*
X118795945Y-104547928D01*
X118795947Y-104547913D01*
X118795946Y-104547912D01*
X118795948Y-104547909D01*
X118795840Y-104482320D01*
X118795840Y-104366493D01*
X130094840Y-104366493D01*
X130094840Y-104524186D01*
X130125601Y-104678829D01*
X130125604Y-104678841D01*
X130185942Y-104824512D01*
X130185949Y-104824525D01*
X130273550Y-104955628D01*
X130273553Y-104955632D01*
X130385047Y-105067126D01*
X130385051Y-105067129D01*
X130516154Y-105154730D01*
X130516167Y-105154737D01*
X130661838Y-105215075D01*
X130661843Y-105215077D01*
X130806976Y-105243946D01*
X130816493Y-105245839D01*
X130816496Y-105245840D01*
X130816498Y-105245840D01*
X130974184Y-105245840D01*
X130974185Y-105245839D01*
X131128837Y-105215077D01*
X131274519Y-105154734D01*
X131405629Y-105067129D01*
X131517129Y-104955629D01*
X131604734Y-104824519D01*
X131665077Y-104678837D01*
X131695840Y-104524182D01*
X131695840Y-104366498D01*
X131695840Y-104366495D01*
X131695839Y-104366493D01*
X131680116Y-104287448D01*
X131665077Y-104211843D01*
X131624455Y-104113772D01*
X131604737Y-104066167D01*
X131604730Y-104066154D01*
X131517129Y-103935051D01*
X131517126Y-103935047D01*
X131405632Y-103823553D01*
X131405628Y-103823550D01*
X131274525Y-103735949D01*
X131274512Y-103735942D01*
X131128841Y-103675604D01*
X131128829Y-103675601D01*
X130974185Y-103644840D01*
X130974182Y-103644840D01*
X130816498Y-103644840D01*
X130816495Y-103644840D01*
X130661850Y-103675601D01*
X130661838Y-103675604D01*
X130516167Y-103735942D01*
X130516154Y-103735949D01*
X130385051Y-103823550D01*
X130385047Y-103823553D01*
X130273553Y-103935047D01*
X130273550Y-103935051D01*
X130185949Y-104066154D01*
X130185942Y-104066167D01*
X130125604Y-104211838D01*
X130125601Y-104211850D01*
X130094840Y-104366493D01*
X118795840Y-104366493D01*
X118795840Y-103129448D01*
X118795840Y-102316493D01*
X138494840Y-102316493D01*
X138494840Y-102474186D01*
X138525601Y-102628829D01*
X138525604Y-102628841D01*
X138585942Y-102774512D01*
X138585949Y-102774525D01*
X138673550Y-102905628D01*
X138673553Y-102905632D01*
X138785047Y-103017126D01*
X138785051Y-103017129D01*
X138916154Y-103104730D01*
X138916167Y-103104737D01*
X139061838Y-103165075D01*
X139061843Y-103165077D01*
X139216493Y-103195839D01*
X139216496Y-103195840D01*
X139216498Y-103195840D01*
X139374184Y-103195840D01*
X139374185Y-103195839D01*
X139528837Y-103165077D01*
X139674519Y-103104734D01*
X139805629Y-103017129D01*
X139917129Y-102905629D01*
X140004734Y-102774519D01*
X140065077Y-102628837D01*
X140095840Y-102474182D01*
X140095840Y-102316498D01*
X140095840Y-102316495D01*
X140095839Y-102316493D01*
X140065078Y-102161850D01*
X140065077Y-102161843D01*
X140057112Y-102142613D01*
X140004737Y-102016167D01*
X140004730Y-102016154D01*
X139917129Y-101885051D01*
X139917126Y-101885047D01*
X139805632Y-101773553D01*
X139805628Y-101773550D01*
X139674525Y-101685949D01*
X139674512Y-101685942D01*
X139528841Y-101625604D01*
X139528829Y-101625601D01*
X139374185Y-101594840D01*
X139374182Y-101594840D01*
X139216498Y-101594840D01*
X139216495Y-101594840D01*
X139061850Y-101625601D01*
X139061838Y-101625604D01*
X138916167Y-101685942D01*
X138916154Y-101685949D01*
X138785051Y-101773550D01*
X138785047Y-101773553D01*
X138673553Y-101885047D01*
X138673550Y-101885051D01*
X138585949Y-102016154D01*
X138585942Y-102016167D01*
X138525604Y-102161838D01*
X138525601Y-102161850D01*
X138494840Y-102316493D01*
X118795840Y-102316493D01*
X118795840Y-101134693D01*
X144473440Y-101134693D01*
X144473440Y-101292386D01*
X144504201Y-101447029D01*
X144504204Y-101447041D01*
X144564542Y-101592712D01*
X144564549Y-101592725D01*
X144652150Y-101723828D01*
X144652153Y-101723832D01*
X144763647Y-101835326D01*
X144763651Y-101835329D01*
X144894754Y-101922930D01*
X144894767Y-101922937D01*
X145038147Y-101982326D01*
X145040443Y-101983277D01*
X145195093Y-102014039D01*
X145195096Y-102014040D01*
X145195098Y-102014040D01*
X145352784Y-102014040D01*
X145352785Y-102014039D01*
X145507437Y-101983277D01*
X145653119Y-101922934D01*
X145784229Y-101835329D01*
X145895729Y-101723829D01*
X145983334Y-101592719D01*
X146043677Y-101447037D01*
X146074440Y-101292382D01*
X146074440Y-101134698D01*
X146074440Y-101134695D01*
X146074439Y-101134693D01*
X146057195Y-101048001D01*
X146043677Y-100980043D01*
X145986062Y-100840946D01*
X145983337Y-100834367D01*
X145983330Y-100834354D01*
X145895729Y-100703251D01*
X145895726Y-100703247D01*
X145784232Y-100591753D01*
X145784228Y-100591750D01*
X145653125Y-100504149D01*
X145653112Y-100504142D01*
X145507441Y-100443804D01*
X145507429Y-100443801D01*
X145352785Y-100413040D01*
X145352782Y-100413040D01*
X145195098Y-100413040D01*
X145195095Y-100413040D01*
X145040450Y-100443801D01*
X145040438Y-100443804D01*
X144894767Y-100504142D01*
X144894754Y-100504149D01*
X144763651Y-100591750D01*
X144763647Y-100591753D01*
X144652153Y-100703247D01*
X144652150Y-100703251D01*
X144564549Y-100834354D01*
X144564542Y-100834367D01*
X144504204Y-100980038D01*
X144504201Y-100980050D01*
X144473440Y-101134693D01*
X118795840Y-101134693D01*
X118795840Y-94982535D01*
X125363439Y-94982535D01*
X125390358Y-95117862D01*
X125390361Y-95117872D01*
X125443161Y-95245344D01*
X125443168Y-95245357D01*
X125519825Y-95360081D01*
X125519828Y-95360085D01*
X125617394Y-95457651D01*
X125617398Y-95457654D01*
X125696393Y-95510438D01*
X125741198Y-95564051D01*
X125749905Y-95633376D01*
X125719750Y-95696403D01*
X125696393Y-95716642D01*
X125617398Y-95769425D01*
X125617394Y-95769428D01*
X125519828Y-95866994D01*
X125519825Y-95866998D01*
X125443168Y-95981722D01*
X125443161Y-95981735D01*
X125390361Y-96109207D01*
X125390358Y-96109217D01*
X125363440Y-96244544D01*
X125363440Y-96244547D01*
X125363440Y-96382533D01*
X125363440Y-96382535D01*
X125363439Y-96382535D01*
X125390358Y-96517862D01*
X125390361Y-96517872D01*
X125443161Y-96645344D01*
X125443168Y-96645357D01*
X125519825Y-96760081D01*
X125519828Y-96760085D01*
X125617394Y-96857651D01*
X125617398Y-96857654D01*
X125732122Y-96934311D01*
X125732135Y-96934318D01*
X125855112Y-96985256D01*
X125859612Y-96987120D01*
X125904223Y-96995993D01*
X125970813Y-97009240D01*
X126032724Y-97041625D01*
X126067299Y-97102341D01*
X126068239Y-97106665D01*
X126090358Y-97217862D01*
X126090361Y-97217872D01*
X126143161Y-97345344D01*
X126143168Y-97345357D01*
X126219825Y-97460081D01*
X126219828Y-97460085D01*
X126317394Y-97557651D01*
X126317398Y-97557654D01*
X126432122Y-97634311D01*
X126432135Y-97634318D01*
X126559607Y-97687118D01*
X126559612Y-97687120D01*
X126559616Y-97687120D01*
X126559617Y-97687121D01*
X126694944Y-97714040D01*
X126694947Y-97714040D01*
X126832935Y-97714040D01*
X126923981Y-97695929D01*
X126968268Y-97687120D01*
X127095751Y-97634315D01*
X127210482Y-97557654D01*
X127308054Y-97460082D01*
X127360838Y-97381086D01*
X127414450Y-97336281D01*
X127483775Y-97327574D01*
X127546803Y-97357729D01*
X127567042Y-97381086D01*
X127619825Y-97460081D01*
X127619828Y-97460085D01*
X127717394Y-97557651D01*
X127717398Y-97557654D01*
X127832122Y-97634311D01*
X127832135Y-97634318D01*
X127959607Y-97687118D01*
X127959612Y-97687120D01*
X127959616Y-97687120D01*
X127959617Y-97687121D01*
X128094944Y-97714040D01*
X128094947Y-97714040D01*
X128232935Y-97714040D01*
X128323981Y-97695929D01*
X128368268Y-97687120D01*
X128495751Y-97634315D01*
X128610482Y-97557654D01*
X128708054Y-97460082D01*
X128784715Y-97345351D01*
X128837520Y-97217868D01*
X128859640Y-97106666D01*
X128892025Y-97044755D01*
X128952740Y-97010181D01*
X128957066Y-97009240D01*
X129001044Y-97000491D01*
X129068268Y-96987120D01*
X129195751Y-96934315D01*
X129310482Y-96857654D01*
X129408054Y-96760082D01*
X129484715Y-96645351D01*
X129537520Y-96517868D01*
X129564440Y-96382533D01*
X129564440Y-96244547D01*
X129564440Y-96244544D01*
X129537521Y-96109217D01*
X129537520Y-96109216D01*
X129537520Y-96109212D01*
X129494852Y-96006201D01*
X129484718Y-95981735D01*
X129484711Y-95981722D01*
X129408054Y-95866998D01*
X129408051Y-95866994D01*
X129310485Y-95769428D01*
X129310481Y-95769425D01*
X129231486Y-95716642D01*
X129186681Y-95663030D01*
X129177974Y-95593705D01*
X129208129Y-95530677D01*
X129231486Y-95510438D01*
X129288763Y-95472166D01*
X129310482Y-95457654D01*
X129408054Y-95360082D01*
X129484715Y-95245351D01*
X129537520Y-95117868D01*
X129554056Y-95034737D01*
X129564440Y-94982535D01*
X129564440Y-94844544D01*
X129537521Y-94709217D01*
X129537520Y-94709216D01*
X129537520Y-94709212D01*
X129504835Y-94630303D01*
X129484718Y-94581735D01*
X129484711Y-94581722D01*
X129408054Y-94466998D01*
X129408051Y-94466994D01*
X129310485Y-94369428D01*
X129310481Y-94369425D01*
X129195757Y-94292768D01*
X129195744Y-94292761D01*
X129068272Y-94239961D01*
X129068262Y-94239958D01*
X128957065Y-94217839D01*
X128895154Y-94185454D01*
X128860580Y-94124738D01*
X128859640Y-94120413D01*
X128844806Y-94045839D01*
X128837520Y-94009212D01*
X128814953Y-93954730D01*
X128784718Y-93881735D01*
X128784711Y-93881722D01*
X128708054Y-93766998D01*
X128708051Y-93766994D01*
X128610485Y-93669428D01*
X128610481Y-93669425D01*
X128495757Y-93592768D01*
X128495744Y-93592761D01*
X128368272Y-93539961D01*
X128368262Y-93539958D01*
X128232935Y-93513040D01*
X128232933Y-93513040D01*
X128094947Y-93513040D01*
X128094945Y-93513040D01*
X127959617Y-93539958D01*
X127959607Y-93539961D01*
X127832135Y-93592761D01*
X127832122Y-93592768D01*
X127717398Y-93669425D01*
X127717394Y-93669428D01*
X127619828Y-93766994D01*
X127619825Y-93766998D01*
X127567042Y-93845993D01*
X127513429Y-93890798D01*
X127444104Y-93899505D01*
X127381077Y-93869350D01*
X127360838Y-93845993D01*
X127308054Y-93766998D01*
X127308051Y-93766994D01*
X127210485Y-93669428D01*
X127210481Y-93669425D01*
X127095757Y-93592768D01*
X127095744Y-93592761D01*
X126968272Y-93539961D01*
X126968262Y-93539958D01*
X126832935Y-93513040D01*
X126832933Y-93513040D01*
X126694947Y-93513040D01*
X126694945Y-93513040D01*
X126559617Y-93539958D01*
X126559607Y-93539961D01*
X126432135Y-93592761D01*
X126432122Y-93592768D01*
X126317398Y-93669425D01*
X126317394Y-93669428D01*
X126219828Y-93766994D01*
X126219825Y-93766998D01*
X126143168Y-93881722D01*
X126143161Y-93881735D01*
X126090361Y-94009207D01*
X126090358Y-94009217D01*
X126068239Y-94120414D01*
X126035853Y-94182325D01*
X125975137Y-94216899D01*
X125970814Y-94217839D01*
X125859617Y-94239958D01*
X125859607Y-94239961D01*
X125732135Y-94292761D01*
X125732122Y-94292768D01*
X125617398Y-94369425D01*
X125617394Y-94369428D01*
X125519828Y-94466994D01*
X125519825Y-94466998D01*
X125443168Y-94581722D01*
X125443161Y-94581735D01*
X125390361Y-94709207D01*
X125390358Y-94709217D01*
X125363440Y-94844544D01*
X125363440Y-94844547D01*
X125363440Y-94982533D01*
X125363440Y-94982535D01*
X125363439Y-94982535D01*
X118795840Y-94982535D01*
X118795840Y-93166493D01*
X139094840Y-93166493D01*
X139094840Y-93324186D01*
X139125601Y-93478829D01*
X139125604Y-93478841D01*
X139185942Y-93624512D01*
X139185949Y-93624525D01*
X139273550Y-93755628D01*
X139273553Y-93755632D01*
X139385047Y-93867126D01*
X139385051Y-93867129D01*
X139516154Y-93954730D01*
X139516167Y-93954737D01*
X139647700Y-94009219D01*
X139661843Y-94015077D01*
X139816493Y-94045839D01*
X139816496Y-94045840D01*
X139816498Y-94045840D01*
X139974184Y-94045840D01*
X139974185Y-94045839D01*
X140128837Y-94015077D01*
X140274519Y-93954734D01*
X140405629Y-93867129D01*
X140517129Y-93755629D01*
X140604734Y-93624519D01*
X140614354Y-93601295D01*
X140614355Y-93601293D01*
X142531640Y-93601293D01*
X142531640Y-93758986D01*
X142562401Y-93913629D01*
X142562404Y-93913641D01*
X142622742Y-94059312D01*
X142622749Y-94059325D01*
X142710350Y-94190428D01*
X142710353Y-94190432D01*
X142821847Y-94301926D01*
X142821851Y-94301929D01*
X142952954Y-94389530D01*
X142952967Y-94389537D01*
X143098638Y-94449875D01*
X143098643Y-94449877D01*
X143253293Y-94480639D01*
X143253296Y-94480640D01*
X143253298Y-94480640D01*
X143410984Y-94480640D01*
X143410985Y-94480639D01*
X143565637Y-94449877D01*
X143711319Y-94389534D01*
X143842429Y-94301929D01*
X143953929Y-94190429D01*
X144041534Y-94059319D01*
X144101877Y-93913637D01*
X144132640Y-93758982D01*
X144132640Y-93601298D01*
X144132640Y-93601295D01*
X144132639Y-93601293D01*
X144120439Y-93539960D01*
X144101877Y-93446643D01*
X144051154Y-93324186D01*
X144041537Y-93300967D01*
X144041530Y-93300954D01*
X143953929Y-93169851D01*
X143953926Y-93169847D01*
X143842432Y-93058353D01*
X143842428Y-93058350D01*
X143711325Y-92970749D01*
X143711312Y-92970742D01*
X143565641Y-92910404D01*
X143565629Y-92910401D01*
X143410985Y-92879640D01*
X143410982Y-92879640D01*
X143253298Y-92879640D01*
X143253295Y-92879640D01*
X143098650Y-92910401D01*
X143098638Y-92910404D01*
X142952967Y-92970742D01*
X142952954Y-92970749D01*
X142821851Y-93058350D01*
X142821847Y-93058353D01*
X142710353Y-93169847D01*
X142710350Y-93169851D01*
X142622749Y-93300954D01*
X142622742Y-93300967D01*
X142562404Y-93446638D01*
X142562401Y-93446650D01*
X142531640Y-93601293D01*
X140614355Y-93601293D01*
X140636531Y-93547754D01*
X140636531Y-93547753D01*
X140665077Y-93478837D01*
X140695840Y-93324182D01*
X140695840Y-93166498D01*
X140695840Y-93166495D01*
X140695839Y-93166493D01*
X140683606Y-93104994D01*
X140665077Y-93011843D01*
X140648712Y-92972334D01*
X140604737Y-92866167D01*
X140604730Y-92866154D01*
X140517129Y-92735051D01*
X140517126Y-92735047D01*
X140405632Y-92623553D01*
X140405628Y-92623550D01*
X140274525Y-92535949D01*
X140274512Y-92535942D01*
X140128841Y-92475604D01*
X140128829Y-92475601D01*
X139974185Y-92444840D01*
X139974182Y-92444840D01*
X139816498Y-92444840D01*
X139816495Y-92444840D01*
X139661850Y-92475601D01*
X139661838Y-92475604D01*
X139516167Y-92535942D01*
X139516154Y-92535949D01*
X139385051Y-92623550D01*
X139385047Y-92623553D01*
X139273553Y-92735047D01*
X139273550Y-92735051D01*
X139185949Y-92866154D01*
X139185942Y-92866167D01*
X139125604Y-93011838D01*
X139125601Y-93011850D01*
X139094840Y-93166493D01*
X118795840Y-93166493D01*
X118795840Y-92266493D01*
X141094840Y-92266493D01*
X141094840Y-92424186D01*
X141125601Y-92578829D01*
X141125604Y-92578841D01*
X141185942Y-92724512D01*
X141185949Y-92724525D01*
X141273550Y-92855628D01*
X141273553Y-92855632D01*
X141385047Y-92967126D01*
X141385051Y-92967129D01*
X141516154Y-93054730D01*
X141516167Y-93054737D01*
X141637488Y-93104989D01*
X141661843Y-93115077D01*
X141816493Y-93145839D01*
X141816496Y-93145840D01*
X141816498Y-93145840D01*
X141974184Y-93145840D01*
X141974185Y-93145839D01*
X142128837Y-93115077D01*
X142274519Y-93054734D01*
X142405629Y-92967129D01*
X142517129Y-92855629D01*
X142604734Y-92724519D01*
X142665077Y-92578837D01*
X142695840Y-92424182D01*
X142695840Y-92266498D01*
X142695840Y-92266495D01*
X142695839Y-92266493D01*
X142682192Y-92197884D01*
X142665077Y-92111843D01*
X142652329Y-92081067D01*
X142604737Y-91966167D01*
X142604730Y-91966154D01*
X142517129Y-91835051D01*
X142517126Y-91835047D01*
X142405632Y-91723553D01*
X142405628Y-91723550D01*
X142274525Y-91635949D01*
X142274512Y-91635942D01*
X142128841Y-91575604D01*
X142128829Y-91575601D01*
X141974185Y-91544840D01*
X141974182Y-91544840D01*
X141816498Y-91544840D01*
X141816495Y-91544840D01*
X141661850Y-91575601D01*
X141661838Y-91575604D01*
X141516167Y-91635942D01*
X141516154Y-91635949D01*
X141385051Y-91723550D01*
X141385047Y-91723553D01*
X141273553Y-91835047D01*
X141273550Y-91835051D01*
X141185949Y-91966154D01*
X141185942Y-91966167D01*
X141125604Y-92111838D01*
X141125601Y-92111850D01*
X141094840Y-92266493D01*
X118795840Y-92266493D01*
X118795840Y-90467228D01*
X138844105Y-90467228D01*
X138844105Y-90624921D01*
X138874866Y-90779564D01*
X138874869Y-90779576D01*
X138935207Y-90925247D01*
X138935214Y-90925260D01*
X139022815Y-91056363D01*
X139022818Y-91056367D01*
X139134312Y-91167861D01*
X139134316Y-91167864D01*
X139265419Y-91255465D01*
X139265432Y-91255472D01*
X139392574Y-91308135D01*
X139411108Y-91315812D01*
X139490794Y-91331662D01*
X139552703Y-91364046D01*
X139587277Y-91424762D01*
X139588218Y-91429086D01*
X139591287Y-91444518D01*
X139591289Y-91444524D01*
X139651628Y-91590198D01*
X139651635Y-91590211D01*
X139739236Y-91721314D01*
X139739239Y-91721318D01*
X139850733Y-91832812D01*
X139850737Y-91832815D01*
X139981840Y-91920416D01*
X139981853Y-91920423D01*
X140127524Y-91980761D01*
X140127529Y-91980763D01*
X140276910Y-92010477D01*
X140282179Y-92011525D01*
X140282182Y-92011526D01*
X140282184Y-92011526D01*
X140439870Y-92011526D01*
X140439871Y-92011525D01*
X140594523Y-91980763D01*
X140740205Y-91920420D01*
X140871315Y-91832815D01*
X140982815Y-91721315D01*
X141070420Y-91590205D01*
X141130763Y-91444523D01*
X141161526Y-91289868D01*
X141161526Y-91132184D01*
X141161526Y-91132181D01*
X141161525Y-91132179D01*
X141146444Y-91056363D01*
X141130763Y-90977529D01*
X141130761Y-90977524D01*
X141070423Y-90831853D01*
X141070416Y-90831840D01*
X140982815Y-90700737D01*
X140982812Y-90700733D01*
X140871318Y-90589239D01*
X140871314Y-90589236D01*
X140740211Y-90501635D01*
X140740198Y-90501628D01*
X140594527Y-90441290D01*
X140594515Y-90441287D01*
X140514838Y-90425438D01*
X140452927Y-90393053D01*
X140418353Y-90332337D01*
X140417411Y-90328009D01*
X140417089Y-90326391D01*
X140414342Y-90312578D01*
X140380241Y-90230250D01*
X140354002Y-90166902D01*
X140353995Y-90166889D01*
X140266394Y-90035786D01*
X140266391Y-90035782D01*
X140154897Y-89924288D01*
X140154893Y-89924285D01*
X140023790Y-89836684D01*
X140023777Y-89836677D01*
X139878106Y-89776339D01*
X139878094Y-89776336D01*
X139723450Y-89745575D01*
X139723447Y-89745575D01*
X139565763Y-89745575D01*
X139565760Y-89745575D01*
X139411115Y-89776336D01*
X139411103Y-89776339D01*
X139265432Y-89836677D01*
X139265419Y-89836684D01*
X139134316Y-89924285D01*
X139134312Y-89924288D01*
X139022818Y-90035782D01*
X139022815Y-90035786D01*
X138935214Y-90166889D01*
X138935207Y-90166902D01*
X138874869Y-90312573D01*
X138874866Y-90312585D01*
X138844105Y-90467228D01*
X118795840Y-90467228D01*
X118795840Y-87647475D01*
X142044840Y-87647475D01*
X142044840Y-89443210D01*
X142044841Y-89443216D01*
X142051248Y-89502823D01*
X142101542Y-89637668D01*
X142101546Y-89637675D01*
X142187792Y-89752884D01*
X142187795Y-89752887D01*
X142303004Y-89839133D01*
X142303011Y-89839137D01*
X142437857Y-89889431D01*
X142437856Y-89889431D01*
X142444784Y-89890175D01*
X142497467Y-89895840D01*
X144293212Y-89895839D01*
X144352823Y-89889431D01*
X144487671Y-89839136D01*
X144602886Y-89752886D01*
X144689136Y-89637671D01*
X144739431Y-89502823D01*
X144745840Y-89443213D01*
X144745839Y-87647468D01*
X144743152Y-87622475D01*
X146044840Y-87622475D01*
X146044840Y-89418210D01*
X146044841Y-89418216D01*
X146051248Y-89477823D01*
X146101542Y-89612668D01*
X146101546Y-89612675D01*
X146187792Y-89727884D01*
X146187795Y-89727887D01*
X146303004Y-89814133D01*
X146303011Y-89814137D01*
X146437857Y-89864431D01*
X146437856Y-89864431D01*
X146444784Y-89865175D01*
X146497467Y-89870840D01*
X148293212Y-89870839D01*
X148352823Y-89864431D01*
X148487671Y-89814136D01*
X148602886Y-89727886D01*
X148689136Y-89612671D01*
X148739431Y-89477823D01*
X148745840Y-89418213D01*
X148745839Y-87647475D01*
X150044840Y-87647475D01*
X150044840Y-89443210D01*
X150044841Y-89443216D01*
X150051248Y-89502823D01*
X150101542Y-89637668D01*
X150101546Y-89637675D01*
X150187792Y-89752884D01*
X150187795Y-89752887D01*
X150303004Y-89839133D01*
X150303011Y-89839137D01*
X150437857Y-89889431D01*
X150437856Y-89889431D01*
X150444784Y-89890175D01*
X150497467Y-89895840D01*
X152293212Y-89895839D01*
X152352823Y-89889431D01*
X152487671Y-89839136D01*
X152602886Y-89752886D01*
X152689136Y-89637671D01*
X152739431Y-89502823D01*
X152745840Y-89443213D01*
X152745839Y-87647468D01*
X152739431Y-87587857D01*
X152730106Y-87562856D01*
X152689137Y-87453011D01*
X152689133Y-87453004D01*
X152602887Y-87337795D01*
X152602884Y-87337792D01*
X152487675Y-87251546D01*
X152487668Y-87251542D01*
X152352822Y-87201248D01*
X152352823Y-87201248D01*
X152293223Y-87194841D01*
X152293221Y-87194840D01*
X152293213Y-87194840D01*
X152293205Y-87194840D01*
X152282649Y-87194840D01*
X152215610Y-87175155D01*
X152194968Y-87158521D01*
X151524748Y-86488302D01*
X151588333Y-86471265D01*
X151702347Y-86405439D01*
X151795439Y-86312347D01*
X151861265Y-86198333D01*
X151878302Y-86134748D01*
X152510610Y-86767057D01*
X152510610Y-86767056D01*
X152549962Y-86712894D01*
X152646435Y-86523557D01*
X152712097Y-86321470D01*
X152712097Y-86321467D01*
X152745340Y-86111586D01*
X152745340Y-85899093D01*
X152712097Y-85689210D01*
X152704061Y-85664479D01*
X154373840Y-85664479D01*
X154373840Y-85846200D01*
X154402268Y-86025687D01*
X154402268Y-86025690D01*
X154458421Y-86198511D01*
X154458423Y-86198514D01*
X154540923Y-86360430D01*
X154647737Y-86507446D01*
X154776234Y-86635943D01*
X154923250Y-86742757D01*
X155085166Y-86825257D01*
X155085168Y-86825258D01*
X155170969Y-86853136D01*
X155257994Y-86881412D01*
X155393454Y-86902867D01*
X155456589Y-86932796D01*
X155493520Y-86992108D01*
X155492522Y-87061970D01*
X155453912Y-87120203D01*
X155393454Y-87147813D01*
X155257992Y-87169268D01*
X155257989Y-87169268D01*
X155085168Y-87225421D01*
X155085165Y-87225423D01*
X154923249Y-87307923D01*
X154839370Y-87368865D01*
X154776234Y-87414737D01*
X154776232Y-87414739D01*
X154776231Y-87414739D01*
X154647739Y-87543231D01*
X154647739Y-87543232D01*
X154647737Y-87543234D01*
X154633481Y-87562856D01*
X154540923Y-87690249D01*
X154458423Y-87852165D01*
X154458421Y-87852168D01*
X154402268Y-88024989D01*
X154402268Y-88024992D01*
X154373840Y-88204479D01*
X154373840Y-88386200D01*
X154402268Y-88565687D01*
X154402268Y-88565690D01*
X154458421Y-88738511D01*
X154458423Y-88738514D01*
X154540923Y-88900430D01*
X154647737Y-89047446D01*
X154776234Y-89175943D01*
X154923250Y-89282757D01*
X155085166Y-89365257D01*
X155085168Y-89365258D01*
X155246369Y-89417634D01*
X155257994Y-89421412D01*
X155393454Y-89442867D01*
X155456589Y-89472796D01*
X155493520Y-89532108D01*
X155492522Y-89601970D01*
X155453912Y-89660203D01*
X155393454Y-89687813D01*
X155257992Y-89709268D01*
X155257989Y-89709268D01*
X155085168Y-89765421D01*
X155085165Y-89765423D01*
X154923249Y-89847923D01*
X154857298Y-89895840D01*
X154776234Y-89954737D01*
X154776232Y-89954739D01*
X154776231Y-89954739D01*
X154647739Y-90083231D01*
X154647739Y-90083232D01*
X154647737Y-90083234D01*
X154612357Y-90131930D01*
X154540923Y-90230249D01*
X154458423Y-90392165D01*
X154458421Y-90392168D01*
X154402268Y-90564989D01*
X154402268Y-90564992D01*
X154373840Y-90744479D01*
X154373840Y-90926200D01*
X154402268Y-91105687D01*
X154402268Y-91105690D01*
X154458421Y-91278511D01*
X154458423Y-91278514D01*
X154540923Y-91440430D01*
X154647737Y-91587446D01*
X154776234Y-91715943D01*
X154923250Y-91822757D01*
X155085166Y-91905257D01*
X155085168Y-91905258D01*
X155131842Y-91920423D01*
X155257994Y-91961412D01*
X155393454Y-91982867D01*
X155456589Y-92012796D01*
X155493520Y-92072108D01*
X155492522Y-92141970D01*
X155453912Y-92200203D01*
X155393454Y-92227813D01*
X155257992Y-92249268D01*
X155257989Y-92249268D01*
X155085168Y-92305421D01*
X155085165Y-92305423D01*
X154923249Y-92387923D01*
X154844911Y-92444840D01*
X154776234Y-92494737D01*
X154776232Y-92494739D01*
X154776231Y-92494739D01*
X154647739Y-92623231D01*
X154647739Y-92623232D01*
X154647737Y-92623234D01*
X154601865Y-92686370D01*
X154540923Y-92770249D01*
X154458423Y-92932165D01*
X154458421Y-92932168D01*
X154402268Y-93104989D01*
X154402268Y-93104992D01*
X154373924Y-93283950D01*
X154373840Y-93284479D01*
X154373840Y-93466201D01*
X154375842Y-93478841D01*
X154402268Y-93645687D01*
X154402268Y-93645690D01*
X154458421Y-93818511D01*
X154458423Y-93818514D01*
X154540923Y-93980430D01*
X154647737Y-94127446D01*
X154776234Y-94255943D01*
X154923250Y-94362757D01*
X155085166Y-94445257D01*
X155085168Y-94445258D01*
X155152078Y-94466998D01*
X155257994Y-94501412D01*
X155393454Y-94522867D01*
X155456589Y-94552796D01*
X155493520Y-94612108D01*
X155492522Y-94681970D01*
X155453912Y-94740203D01*
X155393454Y-94767813D01*
X155257992Y-94789268D01*
X155257989Y-94789268D01*
X155085168Y-94845421D01*
X155085165Y-94845423D01*
X154923249Y-94927923D01*
X154848086Y-94982533D01*
X154776234Y-95034737D01*
X154776232Y-95034739D01*
X154776231Y-95034739D01*
X154647739Y-95163231D01*
X154647739Y-95163232D01*
X154647737Y-95163234D01*
X154625496Y-95193846D01*
X154540923Y-95310249D01*
X154458423Y-95472165D01*
X154458421Y-95472168D01*
X154402268Y-95644989D01*
X154402268Y-95644992D01*
X154373840Y-95824479D01*
X154373840Y-96006200D01*
X154402268Y-96185687D01*
X154402268Y-96185690D01*
X154458421Y-96358511D01*
X154458423Y-96358514D01*
X154540923Y-96520430D01*
X154647737Y-96667446D01*
X154776234Y-96795943D01*
X154923250Y-96902757D01*
X155085166Y-96985257D01*
X155085168Y-96985258D01*
X155158978Y-97009240D01*
X155257994Y-97041412D01*
X155393454Y-97062867D01*
X155456589Y-97092796D01*
X155493520Y-97152108D01*
X155492522Y-97221970D01*
X155453912Y-97280203D01*
X155393454Y-97307813D01*
X155257992Y-97329268D01*
X155257989Y-97329268D01*
X155085168Y-97385421D01*
X155085165Y-97385423D01*
X154923249Y-97467923D01*
X154839370Y-97528865D01*
X154776234Y-97574737D01*
X154776232Y-97574739D01*
X154776231Y-97574739D01*
X154647739Y-97703231D01*
X154647739Y-97703232D01*
X154647737Y-97703234D01*
X154639886Y-97714040D01*
X154540923Y-97850249D01*
X154458423Y-98012165D01*
X154458421Y-98012168D01*
X154402268Y-98184989D01*
X154402268Y-98184992D01*
X154373840Y-98364479D01*
X154373840Y-98546200D01*
X154402268Y-98725687D01*
X154402268Y-98725690D01*
X154458421Y-98898511D01*
X154458423Y-98898514D01*
X154540923Y-99060430D01*
X154647737Y-99207446D01*
X154776234Y-99335943D01*
X154923250Y-99442757D01*
X155085166Y-99525257D01*
X155085168Y-99525258D01*
X155246369Y-99577634D01*
X155257994Y-99581412D01*
X155395052Y-99603120D01*
X155458187Y-99633049D01*
X155495118Y-99692361D01*
X155494120Y-99762223D01*
X155455510Y-99820456D01*
X155395052Y-99848066D01*
X155258114Y-99869755D01*
X155085355Y-99925888D01*
X154923510Y-100008352D01*
X154923501Y-100008358D01*
X154906943Y-100020388D01*
X154906942Y-100020389D01*
X155481894Y-100595340D01*
X155475679Y-100595340D01*
X155373946Y-100622599D01*
X155282734Y-100675260D01*
X155208260Y-100749734D01*
X155155599Y-100840946D01*
X155128340Y-100942679D01*
X155128340Y-100948893D01*
X154553389Y-100373942D01*
X154553388Y-100373943D01*
X154541358Y-100390501D01*
X154541352Y-100390510D01*
X154458888Y-100552355D01*
X154402755Y-100725114D01*
X154374340Y-100904518D01*
X154374340Y-101086161D01*
X154402755Y-101265565D01*
X154458888Y-101438324D01*
X154541352Y-101600170D01*
X154541354Y-101600174D01*
X154553388Y-101616735D01*
X154553389Y-101616736D01*
X155128340Y-101041785D01*
X155128340Y-101048001D01*
X155155599Y-101149734D01*
X155208260Y-101240946D01*
X155282734Y-101315420D01*
X155373946Y-101368081D01*
X155475679Y-101395340D01*
X155481894Y-101395340D01*
X154906942Y-101970289D01*
X154906943Y-101970290D01*
X154923505Y-101982325D01*
X154923519Y-101982333D01*
X155085352Y-102064790D01*
X155258114Y-102120924D01*
X155258115Y-102120925D01*
X155395051Y-102142613D01*
X155458186Y-102172542D01*
X155495118Y-102231853D01*
X155494120Y-102301716D01*
X155455511Y-102359949D01*
X155395053Y-102387559D01*
X155257990Y-102409268D01*
X155257989Y-102409268D01*
X155085168Y-102465421D01*
X155085165Y-102465423D01*
X154923249Y-102547923D01*
X154839370Y-102608865D01*
X154776234Y-102654737D01*
X154776232Y-102654739D01*
X154776231Y-102654739D01*
X154647739Y-102783231D01*
X154647739Y-102783232D01*
X154647737Y-102783234D01*
X154625496Y-102813846D01*
X154540923Y-102930249D01*
X154458423Y-103092165D01*
X154458421Y-103092168D01*
X154402268Y-103264989D01*
X154402268Y-103264992D01*
X154373840Y-103444479D01*
X154373840Y-103626200D01*
X154402268Y-103805687D01*
X154402268Y-103805690D01*
X154458421Y-103978511D01*
X154458423Y-103978514D01*
X154540923Y-104140430D01*
X154647737Y-104287446D01*
X154776234Y-104415943D01*
X154923250Y-104522757D01*
X155085166Y-104605257D01*
X155085168Y-104605258D01*
X155246369Y-104657634D01*
X155257994Y-104661412D01*
X155437479Y-104689840D01*
X155437480Y-104689840D01*
X155619200Y-104689840D01*
X155619201Y-104689840D01*
X155798686Y-104661412D01*
X155798689Y-104661411D01*
X155798690Y-104661411D01*
X155971511Y-104605258D01*
X155971511Y-104605257D01*
X155971514Y-104605257D01*
X156133430Y-104522757D01*
X156280446Y-104415943D01*
X156408943Y-104287446D01*
X156515757Y-104140430D01*
X156598257Y-103978514D01*
X156648607Y-103823553D01*
X156654411Y-103805690D01*
X156654411Y-103805689D01*
X156654412Y-103805686D01*
X156682840Y-103626201D01*
X156682840Y-103444479D01*
X156654412Y-103264994D01*
X156654411Y-103264990D01*
X156654411Y-103264989D01*
X156598258Y-103092168D01*
X156598256Y-103092165D01*
X156596700Y-103089110D01*
X156515757Y-102930250D01*
X156408943Y-102783234D01*
X156280446Y-102654737D01*
X156133430Y-102547923D01*
X155971514Y-102465423D01*
X155971511Y-102465421D01*
X155798689Y-102409268D01*
X155661626Y-102387559D01*
X155598492Y-102357629D01*
X155561561Y-102298318D01*
X155562559Y-102228455D01*
X155601169Y-102170223D01*
X155661628Y-102142613D01*
X155798564Y-102120925D01*
X155798565Y-102120924D01*
X155971324Y-102064791D01*
X156133171Y-101982326D01*
X156149736Y-101970289D01*
X155574787Y-101395340D01*
X155581001Y-101395340D01*
X155682734Y-101368081D01*
X155773946Y-101315420D01*
X155848420Y-101240946D01*
X155901081Y-101149734D01*
X155928340Y-101048001D01*
X155928340Y-101041786D01*
X156503289Y-101616735D01*
X156515326Y-101600171D01*
X156597791Y-101438324D01*
X156653924Y-101265565D01*
X156682340Y-101086161D01*
X156682340Y-100904518D01*
X156653924Y-100725114D01*
X156597790Y-100552352D01*
X156515333Y-100390519D01*
X156515325Y-100390505D01*
X156503290Y-100373943D01*
X156503289Y-100373942D01*
X155928340Y-100948892D01*
X155928340Y-100942679D01*
X155901081Y-100840946D01*
X155848420Y-100749734D01*
X155773946Y-100675260D01*
X155682734Y-100622599D01*
X155581001Y-100595340D01*
X155574787Y-100595340D01*
X156149736Y-100020389D01*
X156149735Y-100020388D01*
X156133174Y-100008354D01*
X156133170Y-100008352D01*
X155971324Y-99925888D01*
X155798565Y-99869755D01*
X155661627Y-99848066D01*
X155598492Y-99818137D01*
X155561561Y-99758825D01*
X155562559Y-99688962D01*
X155601169Y-99630730D01*
X155661626Y-99603120D01*
X155798686Y-99581412D01*
X155798689Y-99581411D01*
X155798690Y-99581411D01*
X155971511Y-99525258D01*
X155971511Y-99525257D01*
X155971514Y-99525257D01*
X156133430Y-99442757D01*
X156280446Y-99335943D01*
X156408943Y-99207446D01*
X156515757Y-99060430D01*
X156598257Y-98898514D01*
X156654412Y-98725686D01*
X156682840Y-98546201D01*
X156682840Y-98364479D01*
X156654412Y-98184994D01*
X156654411Y-98184990D01*
X156654411Y-98184989D01*
X156598258Y-98012168D01*
X156598256Y-98012165D01*
X156596700Y-98009110D01*
X156515757Y-97850250D01*
X156408943Y-97703234D01*
X156280446Y-97574737D01*
X156133430Y-97467923D01*
X155971514Y-97385423D01*
X155971511Y-97385421D01*
X155798689Y-97329268D01*
X155702348Y-97314009D01*
X155663224Y-97307812D01*
X155600090Y-97277884D01*
X155563159Y-97218572D01*
X155564157Y-97148710D01*
X155602767Y-97090477D01*
X155663224Y-97062867D01*
X155798686Y-97041412D01*
X155798689Y-97041411D01*
X155798690Y-97041411D01*
X155971511Y-96985258D01*
X155971511Y-96985257D01*
X155971514Y-96985257D01*
X156133430Y-96902757D01*
X156280446Y-96795943D01*
X156408943Y-96667446D01*
X156515757Y-96520430D01*
X156598257Y-96358514D01*
X156654412Y-96185686D01*
X156682840Y-96006201D01*
X156682840Y-95824479D01*
X156654412Y-95644994D01*
X156654411Y-95644990D01*
X156654411Y-95644989D01*
X156598258Y-95472168D01*
X156598256Y-95472165D01*
X156596700Y-95469110D01*
X156515757Y-95310250D01*
X156408943Y-95163234D01*
X156280446Y-95034737D01*
X156133430Y-94927923D01*
X155971514Y-94845423D01*
X155971511Y-94845421D01*
X155798689Y-94789268D01*
X155702348Y-94774009D01*
X155663224Y-94767812D01*
X155600090Y-94737884D01*
X155563159Y-94678572D01*
X155564157Y-94608710D01*
X155602767Y-94550477D01*
X155663224Y-94522867D01*
X155798686Y-94501412D01*
X155798689Y-94501411D01*
X155798690Y-94501411D01*
X155971511Y-94445258D01*
X155971511Y-94445257D01*
X155971514Y-94445257D01*
X156133430Y-94362757D01*
X156280446Y-94255943D01*
X156408943Y-94127446D01*
X156515757Y-93980430D01*
X156598257Y-93818514D01*
X156605688Y-93795645D01*
X156654411Y-93645690D01*
X156654411Y-93645689D01*
X156654412Y-93645686D01*
X156682840Y-93466201D01*
X156682840Y-93284479D01*
X156654412Y-93104994D01*
X156654411Y-93104990D01*
X156654411Y-93104989D01*
X156598258Y-92932168D01*
X156598256Y-92932165D01*
X156596484Y-92928686D01*
X156515757Y-92770250D01*
X156408943Y-92623234D01*
X156280446Y-92494737D01*
X156133430Y-92387923D01*
X155971514Y-92305423D01*
X155971511Y-92305421D01*
X155798689Y-92249268D01*
X155702348Y-92234009D01*
X155663224Y-92227812D01*
X155600090Y-92197884D01*
X155563159Y-92138572D01*
X155564157Y-92068710D01*
X155602767Y-92010477D01*
X155663224Y-91982867D01*
X155798686Y-91961412D01*
X155798689Y-91961411D01*
X155798690Y-91961411D01*
X155971511Y-91905258D01*
X155971511Y-91905257D01*
X155971514Y-91905257D01*
X156133430Y-91822757D01*
X156280446Y-91715943D01*
X156408943Y-91587446D01*
X156515757Y-91440430D01*
X156598257Y-91278514D01*
X156634210Y-91167861D01*
X156654411Y-91105690D01*
X156654411Y-91105689D01*
X156654412Y-91105686D01*
X156682840Y-90926201D01*
X156682840Y-90744479D01*
X156654412Y-90564994D01*
X156654411Y-90564990D01*
X156654411Y-90564989D01*
X156598258Y-90392168D01*
X156598256Y-90392165D01*
X156567773Y-90332337D01*
X156515757Y-90230250D01*
X156408943Y-90083234D01*
X156280446Y-89954737D01*
X156133430Y-89847923D01*
X155971514Y-89765423D01*
X155971511Y-89765421D01*
X155798689Y-89709268D01*
X155702348Y-89694009D01*
X155663224Y-89687812D01*
X155600090Y-89657884D01*
X155563159Y-89598572D01*
X155564157Y-89528710D01*
X155602767Y-89470477D01*
X155663224Y-89442867D01*
X155798686Y-89421412D01*
X155798689Y-89421411D01*
X155798690Y-89421411D01*
X155971511Y-89365258D01*
X155971511Y-89365257D01*
X155971514Y-89365257D01*
X156133430Y-89282757D01*
X156280446Y-89175943D01*
X156408943Y-89047446D01*
X156515757Y-88900430D01*
X156598257Y-88738514D01*
X156654412Y-88565686D01*
X156682840Y-88386201D01*
X156682840Y-88204479D01*
X156654412Y-88024994D01*
X156654411Y-88024990D01*
X156654411Y-88024989D01*
X156598258Y-87852168D01*
X156598256Y-87852165D01*
X156515756Y-87690249D01*
X156408943Y-87543234D01*
X156280446Y-87414737D01*
X156133430Y-87307923D01*
X155971514Y-87225423D01*
X155971511Y-87225421D01*
X155798689Y-87169268D01*
X155702348Y-87154009D01*
X155663224Y-87147812D01*
X155600090Y-87117884D01*
X155563159Y-87058572D01*
X155564157Y-86988710D01*
X155602767Y-86930477D01*
X155663224Y-86902867D01*
X155798686Y-86881412D01*
X155798689Y-86881411D01*
X155798690Y-86881411D01*
X155971511Y-86825258D01*
X155971511Y-86825257D01*
X155971514Y-86825257D01*
X156133430Y-86742757D01*
X156280446Y-86635943D01*
X156408943Y-86507446D01*
X156515757Y-86360430D01*
X156598257Y-86198514D01*
X156634559Y-86086788D01*
X156654411Y-86025690D01*
X156654411Y-86025689D01*
X156654412Y-86025686D01*
X156682840Y-85846201D01*
X156682840Y-85664479D01*
X156654412Y-85484994D01*
X156654411Y-85484990D01*
X156654411Y-85484989D01*
X156598258Y-85312168D01*
X156598256Y-85312165D01*
X156515757Y-85150250D01*
X156513408Y-85147017D01*
X156495984Y-85123034D01*
X156495982Y-85123032D01*
X156445445Y-85053475D01*
X172407840Y-85053475D01*
X172407840Y-86457210D01*
X172407841Y-86457216D01*
X172414248Y-86516823D01*
X172464542Y-86651668D01*
X172464546Y-86651675D01*
X172550792Y-86766884D01*
X172550795Y-86766887D01*
X172666004Y-86853133D01*
X172666011Y-86853137D01*
X172800857Y-86903431D01*
X172800856Y-86903431D01*
X172807784Y-86904175D01*
X172860467Y-86909840D01*
X173354393Y-86909839D01*
X173421430Y-86929523D01*
X173467185Y-86982327D01*
X173477129Y-87051486D01*
X173448104Y-87115042D01*
X173389326Y-87152816D01*
X173373790Y-87156312D01*
X173291990Y-87169268D01*
X173291989Y-87169268D01*
X173119168Y-87225421D01*
X173119165Y-87225423D01*
X172957249Y-87307923D01*
X172873370Y-87368865D01*
X172810234Y-87414737D01*
X172810232Y-87414739D01*
X172810231Y-87414739D01*
X172681739Y-87543231D01*
X172681739Y-87543232D01*
X172681737Y-87543234D01*
X172667481Y-87562856D01*
X172574923Y-87690249D01*
X172492423Y-87852165D01*
X172492421Y-87852168D01*
X172436268Y-88024989D01*
X172436268Y-88024992D01*
X172407840Y-88204479D01*
X172407840Y-88386200D01*
X172436268Y-88565687D01*
X172436268Y-88565690D01*
X172492421Y-88738511D01*
X172492423Y-88738514D01*
X172574923Y-88900430D01*
X172681737Y-89047446D01*
X172810234Y-89175943D01*
X172957250Y-89282757D01*
X173119166Y-89365257D01*
X173119168Y-89365258D01*
X173280369Y-89417634D01*
X173291994Y-89421412D01*
X173427454Y-89442867D01*
X173490589Y-89472796D01*
X173527520Y-89532108D01*
X173526522Y-89601970D01*
X173487912Y-89660203D01*
X173427454Y-89687813D01*
X173291992Y-89709268D01*
X173291989Y-89709268D01*
X173119168Y-89765421D01*
X173119165Y-89765423D01*
X172957249Y-89847923D01*
X172891298Y-89895840D01*
X172810234Y-89954737D01*
X172810232Y-89954739D01*
X172810231Y-89954739D01*
X172681739Y-90083231D01*
X172681739Y-90083232D01*
X172681737Y-90083234D01*
X172646357Y-90131930D01*
X172574923Y-90230249D01*
X172492423Y-90392165D01*
X172492421Y-90392168D01*
X172436268Y-90564989D01*
X172436268Y-90564992D01*
X172407840Y-90744479D01*
X172407840Y-90926200D01*
X172436268Y-91105687D01*
X172436268Y-91105690D01*
X172492421Y-91278511D01*
X172492423Y-91278514D01*
X172574923Y-91440430D01*
X172681737Y-91587446D01*
X172810234Y-91715943D01*
X172957250Y-91822757D01*
X173119166Y-91905257D01*
X173119168Y-91905258D01*
X173165842Y-91920423D01*
X173291994Y-91961412D01*
X173427454Y-91982867D01*
X173490589Y-92012796D01*
X173527520Y-92072108D01*
X173526522Y-92141970D01*
X173487912Y-92200203D01*
X173427454Y-92227813D01*
X173291992Y-92249268D01*
X173291989Y-92249268D01*
X173119168Y-92305421D01*
X173119165Y-92305423D01*
X172957249Y-92387923D01*
X172878911Y-92444840D01*
X172810234Y-92494737D01*
X172810232Y-92494739D01*
X172810231Y-92494739D01*
X172681739Y-92623231D01*
X172681739Y-92623232D01*
X172681737Y-92623234D01*
X172635865Y-92686370D01*
X172574923Y-92770249D01*
X172492423Y-92932165D01*
X172492421Y-92932168D01*
X172436268Y-93104989D01*
X172436268Y-93104992D01*
X172407924Y-93283950D01*
X172407840Y-93284479D01*
X172407840Y-93466201D01*
X172409842Y-93478841D01*
X172436268Y-93645687D01*
X172436268Y-93645690D01*
X172492421Y-93818511D01*
X172492423Y-93818514D01*
X172574923Y-93980430D01*
X172681737Y-94127446D01*
X172810234Y-94255943D01*
X172957250Y-94362757D01*
X173119166Y-94445257D01*
X173119168Y-94445258D01*
X173186078Y-94466998D01*
X173291994Y-94501412D01*
X173427454Y-94522867D01*
X173490589Y-94552796D01*
X173527520Y-94612108D01*
X173526522Y-94681970D01*
X173487912Y-94740203D01*
X173427454Y-94767813D01*
X173291992Y-94789268D01*
X173291989Y-94789268D01*
X173119168Y-94845421D01*
X173119165Y-94845423D01*
X172957249Y-94927923D01*
X172882086Y-94982533D01*
X172810234Y-95034737D01*
X172810232Y-95034739D01*
X172810231Y-95034739D01*
X172681739Y-95163231D01*
X172681739Y-95163232D01*
X172681737Y-95163234D01*
X172659496Y-95193846D01*
X172574923Y-95310249D01*
X172492423Y-95472165D01*
X172492421Y-95472168D01*
X172436268Y-95644989D01*
X172436268Y-95644992D01*
X172407840Y-95824479D01*
X172407840Y-96006200D01*
X172436268Y-96185687D01*
X172436268Y-96185690D01*
X172492421Y-96358511D01*
X172492423Y-96358514D01*
X172574923Y-96520430D01*
X172681737Y-96667446D01*
X172810234Y-96795943D01*
X172957250Y-96902757D01*
X173119166Y-96985257D01*
X173119168Y-96985258D01*
X173192978Y-97009240D01*
X173291994Y-97041412D01*
X173427454Y-97062867D01*
X173490589Y-97092796D01*
X173527520Y-97152108D01*
X173526522Y-97221970D01*
X173487912Y-97280203D01*
X173427454Y-97307813D01*
X173291992Y-97329268D01*
X173291989Y-97329268D01*
X173119168Y-97385421D01*
X173119165Y-97385423D01*
X172957249Y-97467923D01*
X172873370Y-97528865D01*
X172810234Y-97574737D01*
X172810232Y-97574739D01*
X172810231Y-97574739D01*
X172681739Y-97703231D01*
X172681739Y-97703232D01*
X172681737Y-97703234D01*
X172673886Y-97714040D01*
X172574923Y-97850249D01*
X172492423Y-98012165D01*
X172492421Y-98012168D01*
X172436268Y-98184989D01*
X172436268Y-98184992D01*
X172407840Y-98364479D01*
X172407840Y-98546200D01*
X172436268Y-98725687D01*
X172436268Y-98725690D01*
X172492421Y-98898511D01*
X172492423Y-98898514D01*
X172574923Y-99060430D01*
X172681737Y-99207446D01*
X172810234Y-99335943D01*
X172957250Y-99442757D01*
X173119166Y-99525257D01*
X173119168Y-99525258D01*
X173280369Y-99577634D01*
X173291994Y-99581412D01*
X173429052Y-99603120D01*
X173492187Y-99633049D01*
X173529118Y-99692361D01*
X173528120Y-99762223D01*
X173489510Y-99820456D01*
X173429052Y-99848066D01*
X173292114Y-99869755D01*
X173119355Y-99925888D01*
X172957510Y-100008352D01*
X172957501Y-100008358D01*
X172940943Y-100020388D01*
X172940942Y-100020389D01*
X173515894Y-100595340D01*
X173509679Y-100595340D01*
X173407946Y-100622599D01*
X173316734Y-100675260D01*
X173242260Y-100749734D01*
X173189599Y-100840946D01*
X173162340Y-100942679D01*
X173162340Y-100948893D01*
X172587389Y-100373942D01*
X172587388Y-100373943D01*
X172575358Y-100390501D01*
X172575352Y-100390510D01*
X172492888Y-100552355D01*
X172436755Y-100725114D01*
X172408340Y-100904518D01*
X172408340Y-101086161D01*
X172436755Y-101265565D01*
X172492888Y-101438324D01*
X172575352Y-101600170D01*
X172575354Y-101600174D01*
X172587388Y-101616735D01*
X172587389Y-101616736D01*
X173162340Y-101041785D01*
X173162340Y-101048001D01*
X173189599Y-101149734D01*
X173242260Y-101240946D01*
X173316734Y-101315420D01*
X173407946Y-101368081D01*
X173509679Y-101395340D01*
X173515894Y-101395340D01*
X172940942Y-101970289D01*
X172940943Y-101970290D01*
X172957505Y-101982325D01*
X172957519Y-101982333D01*
X173119352Y-102064790D01*
X173292114Y-102120924D01*
X173292115Y-102120925D01*
X173429051Y-102142613D01*
X173492186Y-102172542D01*
X173529118Y-102231853D01*
X173528120Y-102301716D01*
X173489511Y-102359949D01*
X173429053Y-102387559D01*
X173291990Y-102409268D01*
X173291989Y-102409268D01*
X173119168Y-102465421D01*
X173119165Y-102465423D01*
X172957249Y-102547923D01*
X172873370Y-102608865D01*
X172810234Y-102654737D01*
X172810232Y-102654739D01*
X172810231Y-102654739D01*
X172681739Y-102783231D01*
X172681739Y-102783232D01*
X172681737Y-102783234D01*
X172659496Y-102813846D01*
X172574923Y-102930249D01*
X172492423Y-103092165D01*
X172492421Y-103092168D01*
X172436268Y-103264989D01*
X172436268Y-103264992D01*
X172407840Y-103444479D01*
X172407840Y-103626200D01*
X172436268Y-103805687D01*
X172436268Y-103805690D01*
X172492421Y-103978511D01*
X172492423Y-103978514D01*
X172574923Y-104140430D01*
X172681737Y-104287446D01*
X172810234Y-104415943D01*
X172957250Y-104522757D01*
X173119166Y-104605257D01*
X173119168Y-104605258D01*
X173280369Y-104657634D01*
X173291994Y-104661412D01*
X173471479Y-104689840D01*
X173471480Y-104689840D01*
X173653200Y-104689840D01*
X173653201Y-104689840D01*
X173832686Y-104661412D01*
X173832689Y-104661411D01*
X173832690Y-104661411D01*
X174005511Y-104605258D01*
X174005511Y-104605257D01*
X174005514Y-104605257D01*
X174167430Y-104522757D01*
X174314446Y-104415943D01*
X174442943Y-104287446D01*
X174549757Y-104140430D01*
X174632257Y-103978514D01*
X174682607Y-103823553D01*
X174688411Y-103805690D01*
X174688411Y-103805689D01*
X174688412Y-103805686D01*
X174716840Y-103626201D01*
X174716840Y-103444479D01*
X174688412Y-103264994D01*
X174688411Y-103264990D01*
X174688411Y-103264989D01*
X174632258Y-103092168D01*
X174632256Y-103092165D01*
X174630700Y-103089110D01*
X174549757Y-102930250D01*
X174442943Y-102783234D01*
X174314446Y-102654737D01*
X174167430Y-102547923D01*
X174005514Y-102465423D01*
X174005511Y-102465421D01*
X173832689Y-102409268D01*
X173695626Y-102387559D01*
X173632492Y-102357629D01*
X173595561Y-102298318D01*
X173596559Y-102228455D01*
X173635169Y-102170223D01*
X173695628Y-102142613D01*
X173832564Y-102120925D01*
X173832565Y-102120924D01*
X174005324Y-102064791D01*
X174167171Y-101982326D01*
X174183736Y-101970289D01*
X173608787Y-101395340D01*
X173615001Y-101395340D01*
X173716734Y-101368081D01*
X173807946Y-101315420D01*
X173882420Y-101240946D01*
X173935081Y-101149734D01*
X173962340Y-101048001D01*
X173962340Y-101041786D01*
X174537289Y-101616735D01*
X174549326Y-101600171D01*
X174631791Y-101438324D01*
X174687924Y-101265565D01*
X174716340Y-101086161D01*
X174716340Y-100904518D01*
X174687924Y-100725114D01*
X174631790Y-100552352D01*
X174549333Y-100390519D01*
X174549325Y-100390505D01*
X174537290Y-100373943D01*
X174537289Y-100373942D01*
X173962340Y-100948892D01*
X173962340Y-100942679D01*
X173935081Y-100840946D01*
X173882420Y-100749734D01*
X173807946Y-100675260D01*
X173716734Y-100622599D01*
X173615001Y-100595340D01*
X173608787Y-100595340D01*
X174183736Y-100020389D01*
X174183735Y-100020388D01*
X174167174Y-100008354D01*
X174167170Y-100008352D01*
X174005324Y-99925888D01*
X173832565Y-99869755D01*
X173695627Y-99848066D01*
X173632492Y-99818137D01*
X173595561Y-99758825D01*
X173596559Y-99688962D01*
X173635169Y-99630730D01*
X173695626Y-99603120D01*
X173832686Y-99581412D01*
X173832689Y-99581411D01*
X173832690Y-99581411D01*
X174005511Y-99525258D01*
X174005511Y-99525257D01*
X174005514Y-99525257D01*
X174167430Y-99442757D01*
X174314446Y-99335943D01*
X174442943Y-99207446D01*
X174549757Y-99060430D01*
X174632257Y-98898514D01*
X174688412Y-98725686D01*
X174716840Y-98546201D01*
X174716840Y-98364479D01*
X174688412Y-98184994D01*
X174688411Y-98184990D01*
X174688411Y-98184989D01*
X174632258Y-98012168D01*
X174632256Y-98012165D01*
X174630700Y-98009110D01*
X174549757Y-97850250D01*
X174442943Y-97703234D01*
X174314446Y-97574737D01*
X174167430Y-97467923D01*
X174005514Y-97385423D01*
X174005511Y-97385421D01*
X173832689Y-97329268D01*
X173736348Y-97314009D01*
X173697224Y-97307812D01*
X173634090Y-97277884D01*
X173597159Y-97218572D01*
X173598157Y-97148710D01*
X173636767Y-97090477D01*
X173697224Y-97062867D01*
X173832686Y-97041412D01*
X173832689Y-97041411D01*
X173832690Y-97041411D01*
X174005511Y-96985258D01*
X174005511Y-96985257D01*
X174005514Y-96985257D01*
X174167430Y-96902757D01*
X174314446Y-96795943D01*
X174442943Y-96667446D01*
X174549757Y-96520430D01*
X174632257Y-96358514D01*
X174688412Y-96185686D01*
X174716840Y-96006201D01*
X174716840Y-95824479D01*
X174688412Y-95644994D01*
X174688411Y-95644990D01*
X174688411Y-95644989D01*
X174632258Y-95472168D01*
X174632256Y-95472165D01*
X174630700Y-95469110D01*
X174549757Y-95310250D01*
X174442943Y-95163234D01*
X174314446Y-95034737D01*
X174167430Y-94927923D01*
X174005514Y-94845423D01*
X174005511Y-94845421D01*
X173832689Y-94789268D01*
X173736348Y-94774009D01*
X173697224Y-94767812D01*
X173634090Y-94737884D01*
X173597159Y-94678572D01*
X173598157Y-94608710D01*
X173636767Y-94550477D01*
X173697224Y-94522867D01*
X173832686Y-94501412D01*
X173832689Y-94501411D01*
X173832690Y-94501411D01*
X174005511Y-94445258D01*
X174005511Y-94445257D01*
X174005514Y-94445257D01*
X174167430Y-94362757D01*
X174314446Y-94255943D01*
X174442943Y-94127446D01*
X174549757Y-93980430D01*
X174632257Y-93818514D01*
X174639688Y-93795645D01*
X174688411Y-93645690D01*
X174688411Y-93645689D01*
X174688412Y-93645686D01*
X174716840Y-93466201D01*
X174716840Y-93284479D01*
X174688412Y-93104994D01*
X174688411Y-93104990D01*
X174688411Y-93104989D01*
X174632258Y-92932168D01*
X174632256Y-92932165D01*
X174630484Y-92928686D01*
X174549757Y-92770250D01*
X174442943Y-92623234D01*
X174314446Y-92494737D01*
X174167430Y-92387923D01*
X174005514Y-92305423D01*
X174005511Y-92305421D01*
X173832689Y-92249268D01*
X173736348Y-92234009D01*
X173697224Y-92227812D01*
X173634090Y-92197884D01*
X173597159Y-92138572D01*
X173598157Y-92068710D01*
X173636767Y-92010477D01*
X173697224Y-91982867D01*
X173832686Y-91961412D01*
X173832689Y-91961411D01*
X173832690Y-91961411D01*
X174005511Y-91905258D01*
X174005511Y-91905257D01*
X174005514Y-91905257D01*
X174167430Y-91822757D01*
X174314446Y-91715943D01*
X174442943Y-91587446D01*
X174549757Y-91440430D01*
X174632257Y-91278514D01*
X174668210Y-91167861D01*
X174688411Y-91105690D01*
X174688411Y-91105689D01*
X174688412Y-91105686D01*
X174716840Y-90926201D01*
X174716840Y-90744479D01*
X174688412Y-90564994D01*
X174688411Y-90564990D01*
X174688411Y-90564989D01*
X174632258Y-90392168D01*
X174632256Y-90392165D01*
X174601773Y-90332337D01*
X174549757Y-90230250D01*
X174442943Y-90083234D01*
X174314446Y-89954737D01*
X174167430Y-89847923D01*
X174005514Y-89765423D01*
X174005511Y-89765421D01*
X173832689Y-89709268D01*
X173736348Y-89694009D01*
X173697224Y-89687812D01*
X173634090Y-89657884D01*
X173597159Y-89598572D01*
X173598157Y-89528710D01*
X173636767Y-89470477D01*
X173697224Y-89442867D01*
X173832686Y-89421412D01*
X173832689Y-89421411D01*
X173832690Y-89421411D01*
X174005511Y-89365258D01*
X174005511Y-89365257D01*
X174005514Y-89365257D01*
X174167430Y-89282757D01*
X174314446Y-89175943D01*
X174442943Y-89047446D01*
X174549757Y-88900430D01*
X174632257Y-88738514D01*
X174688412Y-88565686D01*
X174716840Y-88386201D01*
X174716840Y-88336195D01*
X178067040Y-88336195D01*
X178067040Y-90131930D01*
X178067041Y-90131936D01*
X178073448Y-90191543D01*
X178123742Y-90326388D01*
X178123746Y-90326395D01*
X178209992Y-90441604D01*
X178209995Y-90441607D01*
X178325204Y-90527853D01*
X178325211Y-90527857D01*
X178370158Y-90544621D01*
X178460057Y-90578151D01*
X178519667Y-90584560D01*
X178530225Y-90584559D01*
X178597263Y-90604239D01*
X178617912Y-90620878D01*
X179288131Y-91291097D01*
X179224547Y-91308135D01*
X179110533Y-91373961D01*
X179017441Y-91467053D01*
X178951615Y-91581067D01*
X178934577Y-91644651D01*
X178302268Y-91012342D01*
X178302267Y-91012342D01*
X178262920Y-91066499D01*
X178166444Y-91255842D01*
X178100782Y-91457929D01*
X178100782Y-91457932D01*
X178067540Y-91667813D01*
X178067540Y-91880306D01*
X178100782Y-92090187D01*
X178100782Y-92090190D01*
X178166444Y-92292277D01*
X178262915Y-92481610D01*
X178302268Y-92535776D01*
X178934577Y-91903468D01*
X178951615Y-91967053D01*
X179017441Y-92081067D01*
X179110533Y-92174159D01*
X179224547Y-92239985D01*
X179288130Y-92257022D01*
X178655822Y-92889329D01*
X178655822Y-92889330D01*
X178709992Y-92928686D01*
X178709991Y-92928686D01*
X178719035Y-92933294D01*
X178769832Y-92981268D01*
X178786627Y-93049089D01*
X178764090Y-93115224D01*
X178719039Y-93154262D01*
X178709722Y-93159009D01*
X178537753Y-93283950D01*
X178387430Y-93434273D01*
X178262491Y-93606239D01*
X178165984Y-93795645D01*
X178100293Y-93997820D01*
X178067040Y-94207773D01*
X178067040Y-94420346D01*
X178092601Y-94581735D01*
X178100294Y-94630303D01*
X178142708Y-94760840D01*
X178165984Y-94832474D01*
X178262491Y-95021880D01*
X178387430Y-95193846D01*
X178537753Y-95344169D01*
X178709722Y-95469110D01*
X178718486Y-95473576D01*
X178769282Y-95521551D01*
X178786076Y-95589372D01*
X178763538Y-95655507D01*
X178718486Y-95694544D01*
X178709722Y-95699009D01*
X178537753Y-95823950D01*
X178387430Y-95974273D01*
X178262491Y-96146239D01*
X178165984Y-96335645D01*
X178100293Y-96537820D01*
X178079762Y-96667447D01*
X178067040Y-96747773D01*
X178067040Y-96960347D01*
X178071281Y-96987121D01*
X178090214Y-97106665D01*
X178100294Y-97170303D01*
X178142708Y-97300840D01*
X178165984Y-97372474D01*
X178262491Y-97561880D01*
X178387430Y-97733846D01*
X178537753Y-97884169D01*
X178709722Y-98009110D01*
X178718486Y-98013576D01*
X178769282Y-98061551D01*
X178786076Y-98129372D01*
X178763538Y-98195507D01*
X178718486Y-98234544D01*
X178709722Y-98239009D01*
X178537753Y-98363950D01*
X178387430Y-98514273D01*
X178262491Y-98686239D01*
X178165984Y-98875645D01*
X178100293Y-99077820D01*
X178067040Y-99287773D01*
X178067040Y-99500346D01*
X178079879Y-99581412D01*
X178100294Y-99710303D01*
X178152103Y-99869755D01*
X178165984Y-99912474D01*
X178262491Y-100101880D01*
X178387430Y-100273846D01*
X178537753Y-100424169D01*
X178709722Y-100549110D01*
X178718486Y-100553576D01*
X178769282Y-100601551D01*
X178786076Y-100669372D01*
X178763538Y-100735507D01*
X178718486Y-100774544D01*
X178709722Y-100779009D01*
X178537753Y-100903950D01*
X178387430Y-101054273D01*
X178262491Y-101226239D01*
X178165984Y-101415645D01*
X178100293Y-101617820D01*
X178075628Y-101773550D01*
X178067040Y-101827773D01*
X178067040Y-102040347D01*
X178070912Y-102064791D01*
X178097371Y-102231853D01*
X178100294Y-102250303D01*
X178144891Y-102387559D01*
X178165984Y-102452474D01*
X178262491Y-102641880D01*
X178387430Y-102813846D01*
X178537753Y-102964169D01*
X178709722Y-103089110D01*
X178718486Y-103093576D01*
X178769282Y-103141551D01*
X178786076Y-103209372D01*
X178763538Y-103275507D01*
X178718486Y-103314544D01*
X178709722Y-103319009D01*
X178537753Y-103443950D01*
X178387430Y-103594273D01*
X178262491Y-103766239D01*
X178165984Y-103955645D01*
X178100293Y-104157820D01*
X178067040Y-104367773D01*
X178067040Y-104580346D01*
X178099314Y-104784120D01*
X178100294Y-104790303D01*
X178162980Y-104983231D01*
X178165984Y-104992474D01*
X178262491Y-105181880D01*
X178387430Y-105353846D01*
X178537753Y-105504169D01*
X178709722Y-105629110D01*
X178718486Y-105633576D01*
X178769282Y-105681551D01*
X178786076Y-105749372D01*
X178763538Y-105815507D01*
X178718486Y-105854544D01*
X178709722Y-105859009D01*
X178537753Y-105983950D01*
X178387430Y-106134273D01*
X178262491Y-106306239D01*
X178165984Y-106495645D01*
X178100293Y-106697820D01*
X178078938Y-106832652D01*
X178067040Y-106907773D01*
X178067040Y-107120347D01*
X178068385Y-107128837D01*
X178093092Y-107284835D01*
X178100294Y-107330303D01*
X178137834Y-107445840D01*
X178165984Y-107532474D01*
X178262491Y-107721880D01*
X178387430Y-107893846D01*
X178537753Y-108044169D01*
X178709719Y-108169108D01*
X178709721Y-108169109D01*
X178709724Y-108169111D01*
X178899128Y-108265617D01*
X179101297Y-108331306D01*
X179311253Y-108364560D01*
X179311254Y-108364560D01*
X179523826Y-108364560D01*
X179523827Y-108364560D01*
X179733783Y-108331306D01*
X179935952Y-108265617D01*
X180125356Y-108169111D01*
X180188062Y-108123553D01*
X180297326Y-108044169D01*
X180297328Y-108044166D01*
X180297332Y-108044164D01*
X180447644Y-107893852D01*
X180447646Y-107893848D01*
X180447649Y-107893846D01*
X180572588Y-107721880D01*
X180572587Y-107721880D01*
X180572591Y-107721876D01*
X180669097Y-107532472D01*
X180734786Y-107330303D01*
X180768040Y-107120347D01*
X180768040Y-106907773D01*
X180734786Y-106697817D01*
X180669097Y-106495648D01*
X180572591Y-106306244D01*
X180572589Y-106306241D01*
X180572588Y-106306239D01*
X180447649Y-106134273D01*
X180297326Y-105983950D01*
X180125360Y-105859011D01*
X180124655Y-105858651D01*
X180116594Y-105854545D01*
X180065799Y-105806572D01*
X180049003Y-105738752D01*
X180071539Y-105672616D01*
X180116594Y-105633575D01*
X180125356Y-105629111D01*
X180279460Y-105517149D01*
X180297326Y-105504169D01*
X180297328Y-105504166D01*
X180297332Y-105504164D01*
X180447644Y-105353852D01*
X180447646Y-105353848D01*
X180447649Y-105353846D01*
X180572588Y-105181880D01*
X180572587Y-105181880D01*
X180572591Y-105181876D01*
X180669097Y-104992472D01*
X180734786Y-104790303D01*
X180768040Y-104580347D01*
X180768040Y-104367773D01*
X180734786Y-104157817D01*
X180669097Y-103955648D01*
X180572591Y-103766244D01*
X180572589Y-103766241D01*
X180572588Y-103766239D01*
X180447649Y-103594273D01*
X180297326Y-103443950D01*
X180125360Y-103319011D01*
X180124655Y-103318651D01*
X180116594Y-103314545D01*
X180065799Y-103266572D01*
X180049003Y-103198752D01*
X180071539Y-103132616D01*
X180116594Y-103093575D01*
X180125356Y-103089111D01*
X180147329Y-103073146D01*
X180297326Y-102964169D01*
X180297328Y-102964166D01*
X180297332Y-102964164D01*
X180447644Y-102813852D01*
X180447646Y-102813848D01*
X180447649Y-102813846D01*
X180572588Y-102641880D01*
X180572587Y-102641880D01*
X180572591Y-102641876D01*
X180669097Y-102452472D01*
X180734786Y-102250303D01*
X180768040Y-102040347D01*
X180768040Y-101827773D01*
X180734786Y-101617817D01*
X180669097Y-101415648D01*
X180572591Y-101226244D01*
X180572589Y-101226241D01*
X180572588Y-101226239D01*
X180447649Y-101054273D01*
X180297326Y-100903950D01*
X180125360Y-100779011D01*
X180124655Y-100778651D01*
X180116594Y-100774545D01*
X180065799Y-100726572D01*
X180049003Y-100658752D01*
X180071539Y-100592616D01*
X180116594Y-100553575D01*
X180125356Y-100549111D01*
X180147329Y-100533146D01*
X180297326Y-100424169D01*
X180297328Y-100424166D01*
X180297332Y-100424164D01*
X180447644Y-100273852D01*
X180447646Y-100273848D01*
X180447649Y-100273846D01*
X180572588Y-100101880D01*
X180572587Y-100101880D01*
X180572591Y-100101876D01*
X180669097Y-99912472D01*
X180734786Y-99710303D01*
X180768040Y-99500347D01*
X180768040Y-99287773D01*
X180734786Y-99077817D01*
X180669097Y-98875648D01*
X180572591Y-98686244D01*
X180572589Y-98686241D01*
X180572588Y-98686239D01*
X180447649Y-98514273D01*
X180297326Y-98363950D01*
X180125360Y-98239011D01*
X180124655Y-98238651D01*
X180116594Y-98234545D01*
X180065799Y-98186572D01*
X180049003Y-98118752D01*
X180071539Y-98052616D01*
X180116594Y-98013575D01*
X180125356Y-98009111D01*
X180147329Y-97993146D01*
X180297326Y-97884169D01*
X180297328Y-97884166D01*
X180297332Y-97884164D01*
X180447644Y-97733852D01*
X180447646Y-97733848D01*
X180447649Y-97733846D01*
X180572588Y-97561880D01*
X180572587Y-97561880D01*
X180572591Y-97561876D01*
X180669097Y-97372472D01*
X180734786Y-97170303D01*
X180768040Y-96960347D01*
X180768040Y-96747773D01*
X180734786Y-96537817D01*
X180669097Y-96335648D01*
X180572591Y-96146244D01*
X180572589Y-96146241D01*
X180572588Y-96146239D01*
X180447649Y-95974273D01*
X180297326Y-95823950D01*
X180125360Y-95699011D01*
X180120241Y-95696403D01*
X180116594Y-95694545D01*
X180065799Y-95646572D01*
X180049003Y-95578752D01*
X180071539Y-95512616D01*
X180116594Y-95473575D01*
X180125356Y-95469111D01*
X180147329Y-95453146D01*
X180297326Y-95344169D01*
X180297328Y-95344166D01*
X180297332Y-95344164D01*
X180447644Y-95193852D01*
X180447646Y-95193848D01*
X180447649Y-95193846D01*
X180572588Y-95021880D01*
X180572587Y-95021880D01*
X180572591Y-95021876D01*
X180669097Y-94832472D01*
X180734786Y-94630303D01*
X180768040Y-94420347D01*
X180768040Y-94207773D01*
X180734786Y-93997817D01*
X180669097Y-93795648D01*
X180572591Y-93606244D01*
X180572589Y-93606241D01*
X180572588Y-93606239D01*
X180447649Y-93434273D01*
X180297326Y-93283950D01*
X180125357Y-93159009D01*
X180116044Y-93154264D01*
X180065247Y-93106290D01*
X180048452Y-93038469D01*
X180070989Y-92972334D01*
X180116047Y-92933292D01*
X180125095Y-92928682D01*
X180179256Y-92889330D01*
X180179257Y-92889330D01*
X179546948Y-92257022D01*
X179610533Y-92239985D01*
X179724547Y-92174159D01*
X179817639Y-92081067D01*
X179883465Y-91967053D01*
X179900502Y-91903468D01*
X180532810Y-92535777D01*
X180532810Y-92535776D01*
X180572162Y-92481614D01*
X180668635Y-92292277D01*
X180734297Y-92090190D01*
X180734297Y-92090187D01*
X180767540Y-91880306D01*
X180767540Y-91667813D01*
X180734297Y-91457932D01*
X180734297Y-91457929D01*
X180668635Y-91255842D01*
X180572164Y-91066509D01*
X180532810Y-91012342D01*
X180532809Y-91012342D01*
X179900502Y-91644650D01*
X179883465Y-91581067D01*
X179817639Y-91467053D01*
X179724547Y-91373961D01*
X179610533Y-91308135D01*
X179546949Y-91291097D01*
X180217167Y-90620878D01*
X180278490Y-90587393D01*
X180304847Y-90584559D01*
X180315412Y-90584559D01*
X180375023Y-90578151D01*
X180509871Y-90527856D01*
X180625086Y-90441606D01*
X180711336Y-90326391D01*
X180761631Y-90191543D01*
X180768040Y-90131933D01*
X180768039Y-88336188D01*
X180761631Y-88276577D01*
X180734740Y-88204479D01*
X180711337Y-88141731D01*
X180711333Y-88141724D01*
X180625087Y-88026515D01*
X180625084Y-88026512D01*
X180509875Y-87940266D01*
X180509868Y-87940262D01*
X180375022Y-87889968D01*
X180375023Y-87889968D01*
X180315423Y-87883561D01*
X180315421Y-87883560D01*
X180315413Y-87883560D01*
X180315404Y-87883560D01*
X178519669Y-87883560D01*
X178519663Y-87883561D01*
X178460056Y-87889968D01*
X178325211Y-87940262D01*
X178325204Y-87940266D01*
X178209995Y-88026512D01*
X178209992Y-88026515D01*
X178123746Y-88141724D01*
X178123742Y-88141731D01*
X178073448Y-88276577D01*
X178067041Y-88336176D01*
X178067041Y-88336183D01*
X178067040Y-88336195D01*
X174716840Y-88336195D01*
X174716840Y-88204479D01*
X174688412Y-88024994D01*
X174688411Y-88024990D01*
X174688411Y-88024989D01*
X174632258Y-87852168D01*
X174632256Y-87852165D01*
X174549756Y-87690249D01*
X174442943Y-87543234D01*
X174314446Y-87414737D01*
X174167430Y-87307923D01*
X174005514Y-87225423D01*
X174005511Y-87225421D01*
X173832688Y-87169268D01*
X173750888Y-87156312D01*
X173687753Y-87126383D01*
X173650822Y-87067071D01*
X173651820Y-86997208D01*
X173690430Y-86938976D01*
X173754394Y-86910862D01*
X173770280Y-86909839D01*
X174264212Y-86909839D01*
X174323823Y-86903431D01*
X174458671Y-86853136D01*
X174573886Y-86766886D01*
X174660136Y-86651671D01*
X174710431Y-86516823D01*
X174716840Y-86457213D01*
X174716839Y-85053468D01*
X174710431Y-84993857D01*
X174671720Y-84890068D01*
X174660137Y-84859011D01*
X174660133Y-84859004D01*
X174573887Y-84743795D01*
X174573884Y-84743792D01*
X174458675Y-84657546D01*
X174458668Y-84657542D01*
X174323822Y-84607248D01*
X174323823Y-84607248D01*
X174264223Y-84600841D01*
X174264221Y-84600840D01*
X174264213Y-84600840D01*
X174264204Y-84600840D01*
X172860469Y-84600840D01*
X172860463Y-84600841D01*
X172800856Y-84607248D01*
X172666011Y-84657542D01*
X172666004Y-84657546D01*
X172550795Y-84743792D01*
X172550792Y-84743795D01*
X172464546Y-84859004D01*
X172464542Y-84859011D01*
X172414248Y-84993857D01*
X172407841Y-85053456D01*
X172407841Y-85053463D01*
X172407840Y-85053475D01*
X156445445Y-85053475D01*
X156445440Y-85053468D01*
X156408943Y-85003234D01*
X156280446Y-84874737D01*
X156133430Y-84767923D01*
X155971514Y-84685423D01*
X155971511Y-84685421D01*
X155798688Y-84629268D01*
X155659659Y-84607248D01*
X155619201Y-84600840D01*
X155437479Y-84600840D01*
X155397021Y-84607248D01*
X155257992Y-84629268D01*
X155257989Y-84629268D01*
X155085168Y-84685421D01*
X155085165Y-84685423D01*
X154923249Y-84767923D01*
X154843707Y-84825715D01*
X154776234Y-84874737D01*
X154776232Y-84874739D01*
X154776231Y-84874739D01*
X154647739Y-85003231D01*
X154647739Y-85003232D01*
X154647737Y-85003234D01*
X154611248Y-85053456D01*
X154540923Y-85150249D01*
X154458423Y-85312165D01*
X154458421Y-85312168D01*
X154402268Y-85484989D01*
X154402268Y-85484992D01*
X154373840Y-85664479D01*
X152704061Y-85664479D01*
X152646435Y-85487122D01*
X152549964Y-85297789D01*
X152510610Y-85243622D01*
X152510609Y-85243622D01*
X151878302Y-85875930D01*
X151861265Y-85812347D01*
X151795439Y-85698333D01*
X151702347Y-85605241D01*
X151588333Y-85539415D01*
X151524749Y-85522377D01*
X152157056Y-84890068D01*
X152102890Y-84850715D01*
X151913557Y-84754244D01*
X151711469Y-84688582D01*
X151501586Y-84655340D01*
X151289094Y-84655340D01*
X151079212Y-84688582D01*
X151079209Y-84688582D01*
X150877122Y-84754244D01*
X150687779Y-84850720D01*
X150633622Y-84890067D01*
X150633622Y-84890068D01*
X151265931Y-85522377D01*
X151202347Y-85539415D01*
X151088333Y-85605241D01*
X150995241Y-85698333D01*
X150929415Y-85812347D01*
X150912377Y-85875931D01*
X150280068Y-85243622D01*
X150280067Y-85243622D01*
X150240720Y-85297779D01*
X150144244Y-85487122D01*
X150078582Y-85689209D01*
X150078582Y-85689212D01*
X150045340Y-85899093D01*
X150045340Y-86111586D01*
X150078582Y-86321467D01*
X150078582Y-86321470D01*
X150144244Y-86523557D01*
X150240715Y-86712890D01*
X150280068Y-86767056D01*
X150912376Y-86134747D01*
X150929415Y-86198333D01*
X150995241Y-86312347D01*
X151088333Y-86405439D01*
X151202347Y-86471265D01*
X151265930Y-86488302D01*
X150595710Y-87158521D01*
X150534387Y-87192006D01*
X150508038Y-87194840D01*
X150497474Y-87194840D01*
X150497463Y-87194841D01*
X150437856Y-87201248D01*
X150303011Y-87251542D01*
X150303004Y-87251546D01*
X150187795Y-87337792D01*
X150187792Y-87337795D01*
X150101546Y-87453004D01*
X150101542Y-87453011D01*
X150051248Y-87587857D01*
X150044841Y-87647456D01*
X150044841Y-87647463D01*
X150044840Y-87647475D01*
X148745839Y-87647475D01*
X148745839Y-87622468D01*
X148739431Y-87562857D01*
X148732111Y-87543232D01*
X148689137Y-87428011D01*
X148689133Y-87428004D01*
X148602887Y-87312795D01*
X148602884Y-87312792D01*
X148487675Y-87226546D01*
X148487668Y-87226542D01*
X148352822Y-87176248D01*
X148352823Y-87176248D01*
X148293223Y-87169841D01*
X148293221Y-87169840D01*
X148293213Y-87169840D01*
X148293205Y-87169840D01*
X148282649Y-87169840D01*
X148215610Y-87150155D01*
X148194968Y-87133521D01*
X147524748Y-86463302D01*
X147588333Y-86446265D01*
X147702347Y-86380439D01*
X147795439Y-86287347D01*
X147861265Y-86173333D01*
X147878302Y-86109748D01*
X148510610Y-86742057D01*
X148510610Y-86742056D01*
X148549962Y-86687894D01*
X148646435Y-86498557D01*
X148712097Y-86296470D01*
X148712097Y-86296467D01*
X148745340Y-86086586D01*
X148745340Y-85874093D01*
X148712097Y-85664212D01*
X148712097Y-85664209D01*
X148646435Y-85462122D01*
X148549964Y-85272789D01*
X148510610Y-85218622D01*
X148510609Y-85218622D01*
X147878302Y-85850930D01*
X147861265Y-85787347D01*
X147795439Y-85673333D01*
X147702347Y-85580241D01*
X147588333Y-85514415D01*
X147524749Y-85497377D01*
X148157056Y-84865068D01*
X148102890Y-84825715D01*
X147913557Y-84729244D01*
X147711469Y-84663582D01*
X147501586Y-84630340D01*
X147289094Y-84630340D01*
X147079212Y-84663582D01*
X147079209Y-84663582D01*
X146877122Y-84729244D01*
X146687779Y-84825720D01*
X146633622Y-84865067D01*
X146633622Y-84865068D01*
X147265931Y-85497377D01*
X147202347Y-85514415D01*
X147088333Y-85580241D01*
X146995241Y-85673333D01*
X146929415Y-85787347D01*
X146912377Y-85850931D01*
X146280068Y-85218622D01*
X146280067Y-85218622D01*
X146240720Y-85272779D01*
X146144244Y-85462122D01*
X146078582Y-85664209D01*
X146078582Y-85664212D01*
X146045340Y-85874093D01*
X146045340Y-86086586D01*
X146078582Y-86296467D01*
X146078582Y-86296470D01*
X146144244Y-86498557D01*
X146240715Y-86687890D01*
X146280068Y-86742056D01*
X146912377Y-86109748D01*
X146929415Y-86173333D01*
X146995241Y-86287347D01*
X147088333Y-86380439D01*
X147202347Y-86446265D01*
X147265930Y-86463302D01*
X146595710Y-87133521D01*
X146534387Y-87167006D01*
X146508038Y-87169840D01*
X146497474Y-87169840D01*
X146497463Y-87169841D01*
X146437856Y-87176248D01*
X146303011Y-87226542D01*
X146303004Y-87226546D01*
X146187795Y-87312792D01*
X146187792Y-87312795D01*
X146101546Y-87428004D01*
X146101542Y-87428011D01*
X146051248Y-87562857D01*
X146044841Y-87622456D01*
X146044841Y-87622463D01*
X146044840Y-87622475D01*
X144743152Y-87622475D01*
X144739431Y-87587857D01*
X144730106Y-87562856D01*
X144689137Y-87453011D01*
X144689133Y-87453004D01*
X144602887Y-87337795D01*
X144602884Y-87337792D01*
X144487675Y-87251546D01*
X144487668Y-87251542D01*
X144352822Y-87201248D01*
X144352823Y-87201248D01*
X144293223Y-87194841D01*
X144293221Y-87194840D01*
X144293213Y-87194840D01*
X144293205Y-87194840D01*
X144282649Y-87194840D01*
X144215610Y-87175155D01*
X144194968Y-87158521D01*
X143524748Y-86488302D01*
X143588333Y-86471265D01*
X143702347Y-86405439D01*
X143795439Y-86312347D01*
X143861265Y-86198333D01*
X143878302Y-86134748D01*
X144510610Y-86767057D01*
X144510610Y-86767056D01*
X144549962Y-86712894D01*
X144646435Y-86523557D01*
X144712097Y-86321470D01*
X144712097Y-86321467D01*
X144745340Y-86111586D01*
X144745340Y-85899092D01*
X144743681Y-85888618D01*
X144712097Y-85689212D01*
X144712097Y-85689209D01*
X144646435Y-85487122D01*
X144549964Y-85297789D01*
X144510610Y-85243622D01*
X144510609Y-85243622D01*
X143878302Y-85875930D01*
X143861265Y-85812347D01*
X143795439Y-85698333D01*
X143702347Y-85605241D01*
X143588333Y-85539415D01*
X143524749Y-85522377D01*
X144157056Y-84890068D01*
X144102890Y-84850715D01*
X143913557Y-84754244D01*
X143711469Y-84688582D01*
X143501586Y-84655340D01*
X143289094Y-84655340D01*
X143079212Y-84688582D01*
X143079209Y-84688582D01*
X142877122Y-84754244D01*
X142687779Y-84850720D01*
X142633622Y-84890067D01*
X142633622Y-84890068D01*
X143265931Y-85522377D01*
X143202347Y-85539415D01*
X143088333Y-85605241D01*
X142995241Y-85698333D01*
X142929415Y-85812347D01*
X142912377Y-85875931D01*
X142280068Y-85243622D01*
X142280067Y-85243622D01*
X142240720Y-85297779D01*
X142144244Y-85487122D01*
X142078582Y-85689209D01*
X142078582Y-85689212D01*
X142045340Y-85899093D01*
X142045340Y-86111586D01*
X142078582Y-86321467D01*
X142078582Y-86321470D01*
X142144244Y-86523557D01*
X142240715Y-86712890D01*
X142280068Y-86767056D01*
X142912376Y-86134747D01*
X142929415Y-86198333D01*
X142995241Y-86312347D01*
X143088333Y-86405439D01*
X143202347Y-86471265D01*
X143265930Y-86488302D01*
X142595710Y-87158521D01*
X142534387Y-87192006D01*
X142508038Y-87194840D01*
X142497474Y-87194840D01*
X142497463Y-87194841D01*
X142437856Y-87201248D01*
X142303011Y-87251542D01*
X142303004Y-87251546D01*
X142187795Y-87337792D01*
X142187792Y-87337795D01*
X142101546Y-87453004D01*
X142101542Y-87453011D01*
X142051248Y-87587857D01*
X142044841Y-87647456D01*
X142044841Y-87647463D01*
X142044840Y-87647475D01*
X118795840Y-87647475D01*
X118795840Y-86743660D01*
X138822439Y-86743660D01*
X138851280Y-86888647D01*
X138851283Y-86888657D01*
X138907852Y-87025228D01*
X138907859Y-87025241D01*
X138989988Y-87148155D01*
X138989991Y-87148159D01*
X139094520Y-87252688D01*
X139094524Y-87252691D01*
X139217438Y-87334820D01*
X139217451Y-87334827D01*
X139354022Y-87391396D01*
X139354027Y-87391398D01*
X139354031Y-87391398D01*
X139354032Y-87391399D01*
X139499019Y-87420240D01*
X139499022Y-87420240D01*
X139646860Y-87420240D01*
X139744402Y-87400836D01*
X139791853Y-87391398D01*
X139897487Y-87347642D01*
X139928428Y-87334827D01*
X139928428Y-87334826D01*
X139928435Y-87334824D01*
X140051356Y-87252691D01*
X140155891Y-87148156D01*
X140238024Y-87025235D01*
X140294598Y-86888653D01*
X140318786Y-86767056D01*
X140323440Y-86743660D01*
X140323440Y-86595819D01*
X140294599Y-86450832D01*
X140294598Y-86450831D01*
X140294598Y-86450827D01*
X140275798Y-86405439D01*
X140238027Y-86314251D01*
X140238020Y-86314238D01*
X140155891Y-86191324D01*
X140155888Y-86191320D01*
X140051359Y-86086791D01*
X140051355Y-86086788D01*
X139928437Y-86004657D01*
X139928432Y-86004654D01*
X139791857Y-85948083D01*
X139791847Y-85948080D01*
X139646860Y-85919240D01*
X139646858Y-85919240D01*
X139499022Y-85919240D01*
X139499020Y-85919240D01*
X139354032Y-85948080D01*
X139354022Y-85948083D01*
X139217451Y-86004652D01*
X139217438Y-86004659D01*
X139094524Y-86086788D01*
X139094520Y-86086791D01*
X138989991Y-86191320D01*
X138989988Y-86191324D01*
X138907859Y-86314238D01*
X138907852Y-86314251D01*
X138851283Y-86450822D01*
X138851280Y-86450832D01*
X138822440Y-86595819D01*
X138822440Y-86595822D01*
X138822440Y-86743658D01*
X138822440Y-86743660D01*
X138822439Y-86743660D01*
X118795840Y-86743660D01*
X118795840Y-82466493D01*
X123194840Y-82466493D01*
X123194840Y-82624186D01*
X123225601Y-82778829D01*
X123225604Y-82778841D01*
X123285942Y-82924512D01*
X123285949Y-82924525D01*
X123373550Y-83055628D01*
X123373553Y-83055632D01*
X123485047Y-83167126D01*
X123485051Y-83167129D01*
X123616154Y-83254730D01*
X123616167Y-83254737D01*
X123761838Y-83315075D01*
X123761843Y-83315077D01*
X123916493Y-83345839D01*
X123916496Y-83345840D01*
X123916498Y-83345840D01*
X124074184Y-83345840D01*
X124074185Y-83345839D01*
X124228837Y-83315077D01*
X124374519Y-83254734D01*
X124505629Y-83167129D01*
X124505632Y-83167126D01*
X124607659Y-83065100D01*
X124668982Y-83031615D01*
X124738674Y-83036599D01*
X124783021Y-83065100D01*
X124885047Y-83167126D01*
X124885051Y-83167129D01*
X125016154Y-83254730D01*
X125016167Y-83254737D01*
X125161838Y-83315075D01*
X125161843Y-83315077D01*
X125316493Y-83345839D01*
X125316496Y-83345840D01*
X125316498Y-83345840D01*
X125474184Y-83345840D01*
X125474185Y-83345839D01*
X125628837Y-83315077D01*
X125774519Y-83254734D01*
X125905629Y-83167129D01*
X126017129Y-83055629D01*
X126104734Y-82924519D01*
X126165077Y-82778837D01*
X126193749Y-82634693D01*
X126973440Y-82634693D01*
X126973440Y-82792386D01*
X127004201Y-82947029D01*
X127004204Y-82947041D01*
X127064542Y-83092712D01*
X127064549Y-83092725D01*
X127152150Y-83223828D01*
X127152153Y-83223832D01*
X127263647Y-83335326D01*
X127263651Y-83335329D01*
X127394754Y-83422930D01*
X127394767Y-83422937D01*
X127540438Y-83483275D01*
X127540443Y-83483277D01*
X127695093Y-83514039D01*
X127695096Y-83514040D01*
X127695098Y-83514040D01*
X127852784Y-83514040D01*
X127852785Y-83514039D01*
X128007437Y-83483277D01*
X128153119Y-83422934D01*
X128284229Y-83335329D01*
X128395729Y-83223829D01*
X128483334Y-83092719D01*
X128543677Y-82947037D01*
X128574440Y-82792382D01*
X128574440Y-82634698D01*
X128574440Y-82634695D01*
X128574439Y-82634693D01*
X128543678Y-82480050D01*
X128543677Y-82480043D01*
X128538065Y-82466495D01*
X128483337Y-82334367D01*
X128483330Y-82334354D01*
X128395729Y-82203251D01*
X128395726Y-82203247D01*
X128284232Y-82091753D01*
X128284228Y-82091750D01*
X128153125Y-82004149D01*
X128153112Y-82004142D01*
X128007441Y-81943804D01*
X128007429Y-81943801D01*
X127852785Y-81913040D01*
X127852782Y-81913040D01*
X127695098Y-81913040D01*
X127695095Y-81913040D01*
X127540450Y-81943801D01*
X127540438Y-81943804D01*
X127394767Y-82004142D01*
X127394754Y-82004149D01*
X127263651Y-82091750D01*
X127263647Y-82091753D01*
X127152153Y-82203247D01*
X127152150Y-82203251D01*
X127064549Y-82334354D01*
X127064542Y-82334367D01*
X127004204Y-82480038D01*
X127004201Y-82480050D01*
X126973440Y-82634693D01*
X126193749Y-82634693D01*
X126195840Y-82624182D01*
X126195840Y-82466498D01*
X126195840Y-82466495D01*
X126195839Y-82466493D01*
X126169556Y-82334361D01*
X126165077Y-82311843D01*
X126120097Y-82203251D01*
X126104737Y-82166167D01*
X126104730Y-82166154D01*
X126017129Y-82035051D01*
X126017126Y-82035047D01*
X125905632Y-81923553D01*
X125905628Y-81923550D01*
X125774525Y-81835949D01*
X125774512Y-81835942D01*
X125628841Y-81775604D01*
X125628829Y-81775601D01*
X125474185Y-81744840D01*
X125474182Y-81744840D01*
X125316498Y-81744840D01*
X125316495Y-81744840D01*
X125161850Y-81775601D01*
X125161838Y-81775604D01*
X125016167Y-81835942D01*
X125016154Y-81835949D01*
X124885051Y-81923550D01*
X124885047Y-81923553D01*
X124783021Y-82025580D01*
X124721698Y-82059065D01*
X124652006Y-82054081D01*
X124607659Y-82025580D01*
X124505632Y-81923553D01*
X124505628Y-81923550D01*
X124374525Y-81835949D01*
X124374512Y-81835942D01*
X124228841Y-81775604D01*
X124228829Y-81775601D01*
X124074185Y-81744840D01*
X124074182Y-81744840D01*
X123916498Y-81744840D01*
X123916495Y-81744840D01*
X123761850Y-81775601D01*
X123761838Y-81775604D01*
X123616167Y-81835942D01*
X123616154Y-81835949D01*
X123485051Y-81923550D01*
X123485047Y-81923553D01*
X123373553Y-82035047D01*
X123373550Y-82035051D01*
X123285949Y-82166154D01*
X123285942Y-82166167D01*
X123225604Y-82311838D01*
X123225601Y-82311850D01*
X123194840Y-82466493D01*
X118795840Y-82466493D01*
X118795840Y-80461223D01*
X118795843Y-80461212D01*
X118795840Y-80402272D01*
X118796619Y-80388402D01*
X118806795Y-80298053D01*
X118812970Y-80270994D01*
X118840687Y-80191775D01*
X118852726Y-80166777D01*
X118897377Y-80095714D01*
X118914680Y-80074018D01*
X118974018Y-80014680D01*
X118995714Y-79997377D01*
X119066777Y-79952726D01*
X119091775Y-79940687D01*
X119170994Y-79912970D01*
X119198053Y-79906795D01*
X119288405Y-79896618D01*
X119302280Y-79895840D01*
X119361212Y-79895843D01*
X119361216Y-79895841D01*
X119369451Y-79895842D01*
X119369496Y-79895840D01*
X120390269Y-79895840D01*
X120457308Y-79915525D01*
G37*
%TD.AperFunction*%
%TD*%
M02*
