%TF.GenerationSoftware,KiCad,Pcbnew,9.0.4*%
%TF.CreationDate,2026-04-22T21:06:27+02:00*%
%TF.ProjectId,JoeHocker,4a6f6548-6f63-46b6-9572-2e6b69636164,rev?*%
%TF.SameCoordinates,Original*%
%TF.FileFunction,Paste,Top*%
%TF.FilePolarity,Positive*%
%FSLAX46Y46*%
G04 Gerber Fmt 4.6, Leading zero omitted, Abs format (unit mm)*
G04 Created by KiCad (PCBNEW 9.0.4) date 2026-04-22 21:06:27*
%MOMM*%
%LPD*%
G01*
G04 APERTURE LIST*
G04 Aperture macros list*
%AMRoundRect*
0 Rectangle with rounded corners*
0 $1 Rounding radius*
0 $2 $3 $4 $5 $6 $7 $8 $9 X,Y pos of 4 corners*
0 Add a 4 corners polygon primitive as box body*
4,1,4,$2,$3,$4,$5,$6,$7,$8,$9,$2,$3,0*
0 Add four circle primitives for the rounded corners*
1,1,$1+$1,$2,$3*
1,1,$1+$1,$4,$5*
1,1,$1+$1,$6,$7*
1,1,$1+$1,$8,$9*
0 Add four rect primitives between the rounded corners*
20,1,$1+$1,$2,$3,$4,$5,0*
20,1,$1+$1,$4,$5,$6,$7,0*
20,1,$1+$1,$6,$7,$8,$9,0*
20,1,$1+$1,$8,$9,$2,$3,0*%
G04 Aperture macros list end*
%ADD10RoundRect,0.200000X-0.275000X0.200000X-0.275000X-0.200000X0.275000X-0.200000X0.275000X0.200000X0*%
%ADD11RoundRect,0.225000X0.250000X-0.225000X0.250000X0.225000X-0.250000X0.225000X-0.250000X-0.225000X0*%
%ADD12R,1.050000X0.650000*%
%ADD13RoundRect,0.375000X0.625000X0.375000X-0.625000X0.375000X-0.625000X-0.375000X0.625000X-0.375000X0*%
%ADD14RoundRect,0.500000X0.500000X1.400000X-0.500000X1.400000X-0.500000X-1.400000X0.500000X-1.400000X0*%
%ADD15RoundRect,0.200000X0.275000X-0.200000X0.275000X0.200000X-0.275000X0.200000X-0.275000X-0.200000X0*%
%ADD16RoundRect,0.225000X-0.250000X0.225000X-0.250000X-0.225000X0.250000X-0.225000X0.250000X0.225000X0*%
%ADD17RoundRect,0.200000X0.200000X0.275000X-0.200000X0.275000X-0.200000X-0.275000X0.200000X-0.275000X0*%
%ADD18RoundRect,0.200000X-0.200000X-0.275000X0.200000X-0.275000X0.200000X0.275000X-0.200000X0.275000X0*%
%ADD19RoundRect,0.250000X0.625000X-0.375000X0.625000X0.375000X-0.625000X0.375000X-0.625000X-0.375000X0*%
%ADD20R,0.480000X0.400000*%
%ADD21R,1.210000X0.730000*%
%ADD22R,0.600000X1.140000*%
%ADD23R,0.300000X1.140000*%
%ADD24R,0.900000X1.500000*%
%ADD25R,1.500000X0.900000*%
%ADD26R,0.900000X0.900000*%
G04 APERTURE END LIST*
D10*
%TO.C,R12*%
X133705540Y-104539140D03*
X133705540Y-106189140D03*
%TD*%
D11*
%TO.C,C14*%
X118023940Y-116663540D03*
X118023940Y-115113540D03*
%TD*%
D12*
%TO.C,BOOT*%
X176910740Y-122144260D03*
X181060740Y-122144260D03*
X176910740Y-124294260D03*
X181060740Y-124294260D03*
%TD*%
D13*
%TO.C,AMS1117*%
X122223940Y-124813540D03*
X122223940Y-122513540D03*
D14*
X115923940Y-122513540D03*
D13*
X122223940Y-120213540D03*
%TD*%
D10*
%TO.C,R4*%
X154773940Y-113138540D03*
X154773940Y-114788540D03*
%TD*%
D11*
%TO.C,C5*%
X120295340Y-116687540D03*
X120295340Y-115137540D03*
%TD*%
D10*
%TO.C,R15*%
X120878540Y-81679140D03*
X120878540Y-83329140D03*
%TD*%
D15*
%TO.C,R8*%
X179315940Y-113884260D03*
X179315940Y-112234260D03*
%TD*%
D16*
%TO.C,C10*%
X177055340Y-112297460D03*
X177055340Y-113847460D03*
%TD*%
D17*
%TO.C,R1*%
X131548940Y-111513540D03*
X129898940Y-111513540D03*
%TD*%
D16*
%TO.C,C4*%
X115773940Y-111338540D03*
X115773940Y-112888540D03*
%TD*%
D17*
%TO.C,R7*%
X180953740Y-110366860D03*
X179303740Y-110366860D03*
%TD*%
D15*
%TO.C,R5*%
X173727940Y-113909660D03*
X173727940Y-112259660D03*
%TD*%
D11*
%TO.C,C12*%
X122545340Y-116670340D03*
X122545340Y-115120340D03*
%TD*%
D18*
%TO.C,R13*%
X139408340Y-98684540D03*
X141058340Y-98684540D03*
%TD*%
%TO.C,R3*%
X126273940Y-123088540D03*
X127923940Y-123088540D03*
%TD*%
D10*
%TO.C,R11*%
X146128340Y-117754140D03*
X146128340Y-119404140D03*
%TD*%
D19*
%TO.C,D7*%
X146145340Y-123801540D03*
X146145340Y-121001540D03*
%TD*%
D11*
%TO.C,C6*%
X152773940Y-114738540D03*
X152773940Y-113188540D03*
%TD*%
D15*
%TO.C,R14*%
X122453340Y-83329140D03*
X122453340Y-81679140D03*
%TD*%
D20*
%TO.C,D3*%
X133638940Y-116888540D03*
X134958940Y-116888540D03*
%TD*%
D18*
%TO.C,R2*%
X139748940Y-116888540D03*
X141398940Y-116888540D03*
%TD*%
D20*
%TO.C,D4*%
X137608940Y-116888540D03*
X136288940Y-116888540D03*
%TD*%
D11*
%TO.C,C13*%
X115773940Y-116663540D03*
X115773940Y-115113540D03*
%TD*%
D16*
%TO.C,C1*%
X118023940Y-111338540D03*
X118023940Y-112888540D03*
%TD*%
D19*
%TO.C,D5*%
X143143140Y-123795340D03*
X143143140Y-120995340D03*
%TD*%
D21*
%TO.C,D1*%
X132378940Y-113988540D03*
X129018940Y-113988540D03*
%TD*%
D16*
%TO.C,C2*%
X120273940Y-111338540D03*
X120273940Y-112888540D03*
%TD*%
D18*
%TO.C,R16*%
X139382940Y-101020740D03*
X141032940Y-101020740D03*
%TD*%
%TO.C,R10*%
X139408340Y-97134540D03*
X141058340Y-97134540D03*
%TD*%
D22*
%TO.C,USB-C1*%
X131893940Y-120126040D03*
X132693940Y-120126040D03*
D23*
X133843940Y-120126040D03*
X134843940Y-120126040D03*
X135343940Y-120126040D03*
X136343940Y-120126040D03*
D22*
X138293940Y-120126040D03*
X137493940Y-120126040D03*
D23*
X136843940Y-120126040D03*
X135843940Y-120126040D03*
X134343940Y-120126040D03*
X133343940Y-120126040D03*
%TD*%
D15*
%TO.C,R6*%
X175378940Y-113909660D03*
X175378940Y-112259660D03*
%TD*%
D12*
%TO.C,BTN*%
X163720340Y-122270340D03*
X167870340Y-122270340D03*
X163720340Y-124420340D03*
X167870340Y-124420340D03*
%TD*%
D16*
%TO.C,C3*%
X122523940Y-111363540D03*
X122523940Y-112913540D03*
%TD*%
D24*
%TO.C,UESP32-S3-WROOM1*%
X119743940Y-102863540D03*
X121013940Y-102863540D03*
X122283940Y-102863540D03*
X123553940Y-102863540D03*
X124823940Y-102863540D03*
X126093940Y-102863540D03*
X127363940Y-102863540D03*
X128633940Y-102863540D03*
X129903940Y-102863540D03*
X131173940Y-102863540D03*
X132443940Y-102863540D03*
X133713940Y-102863540D03*
X134983940Y-102863540D03*
X136253940Y-102863540D03*
D25*
X137503940Y-101098540D03*
X137503940Y-99828540D03*
X137503940Y-98558540D03*
X137503940Y-97288540D03*
X137503940Y-96018540D03*
X137503940Y-94748540D03*
X137503940Y-93478540D03*
X137503940Y-92208540D03*
X137503940Y-90938540D03*
X137503940Y-89668540D03*
X137503940Y-88398540D03*
X137503940Y-87128540D03*
D24*
X136253940Y-85363540D03*
X134983940Y-85363540D03*
X133713940Y-85363540D03*
X132443940Y-85363540D03*
X131173940Y-85363540D03*
X129903940Y-85363540D03*
X128633940Y-85363540D03*
X127363940Y-85363540D03*
X126093940Y-85363540D03*
X124823940Y-85363540D03*
X123553940Y-85363540D03*
X122283940Y-85363540D03*
X121013940Y-85363540D03*
X119743940Y-85363540D03*
D26*
X127463940Y-95613540D03*
X127463940Y-97013540D03*
X127463940Y-94213540D03*
X128863940Y-97013540D03*
X128863940Y-95613540D03*
X128863940Y-94213540D03*
X126063940Y-97013540D03*
X126063940Y-95613540D03*
X126063940Y-94213540D03*
%TD*%
D10*
%TO.C,R9*%
X150773940Y-113138540D03*
X150773940Y-114788540D03*
%TD*%
D16*
%TO.C,C11*%
X180916140Y-112309660D03*
X180916140Y-113859660D03*
%TD*%
D20*
%TO.C,D2*%
X130051440Y-116888540D03*
X131371440Y-116888540D03*
%TD*%
D12*
%TO.C,RESET*%
X176979140Y-116361260D03*
X181129140Y-116361260D03*
X176979140Y-118511260D03*
X181129140Y-118511260D03*
%TD*%
M02*
