%TF.GenerationSoftware,KiCad,Pcbnew,10.0.3*%
%TF.CreationDate,2026-10-10T16:48:09+02:00*%
%TF.ProjectId,SoundBoxSTM32,536f756e-6442-46f7-9853-544d33322e6b,rev?*%
%TF.SameCoordinates,Original*%
%TF.FileFunction,Soldermask,Top*%
%TF.FilePolarity,Negative*%
%FSLAX46Y46*%
G04 Gerber Fmt 4.6, Leading zero omitted, Abs format (unit mm)*
G04 Created by KiCad (PCBNEW 10.0.3) date 2026-10-10 16:48:09*
%MOMM*%
%LPD*%
G01*
G04 APERTURE LIST*
G04 Aperture macros list*
%AMRoundRect*
0 Rectangle with rounded corners*
0 $1 Rounding radius*
0 $2 $3 $4 $5 $6 $7 $8 $9 X,Y pos of 4 corners*
0 Add a 4 corners polygon primitive as box body*
4,1,4,$2,$3,$4,$5,$6,$7,$8,$9,$2,$3,0*
0 Add four circle primitives for the rounded corners*
1,1,$1+$1,$2,$3*
1,1,$1+$1,$4,$5*
1,1,$1+$1,$6,$7*
1,1,$1+$1,$8,$9*
0 Add four rect primitives between the rounded corners*
20,1,$1+$1,$2,$3,$4,$5,0*
20,1,$1+$1,$4,$5,$6,$7,0*
20,1,$1+$1,$6,$7,$8,$9,0*
20,1,$1+$1,$8,$9,$2,$3,0*%
G04 Aperture macros list end*
%ADD10C,5.300000*%
%ADD11RoundRect,0.225000X-0.250000X0.225000X-0.250000X-0.225000X0.250000X-0.225000X0.250000X0.225000X0*%
%ADD12R,1.700000X1.700000*%
%ADD13C,1.700000*%
%ADD14RoundRect,0.150000X-0.512500X-0.150000X0.512500X-0.150000X0.512500X0.150000X-0.512500X0.150000X0*%
%ADD15RoundRect,0.200000X0.200000X0.275000X-0.200000X0.275000X-0.200000X-0.275000X0.200000X-0.275000X0*%
%ADD16RoundRect,0.200000X0.275000X-0.200000X0.275000X0.200000X-0.275000X0.200000X-0.275000X-0.200000X0*%
%ADD17R,1.500000X1.000000*%
%ADD18RoundRect,0.225000X-0.225000X-0.250000X0.225000X-0.250000X0.225000X0.250000X-0.225000X0.250000X0*%
%ADD19C,9.200000*%
%ADD20RoundRect,0.225000X0.250000X-0.225000X0.250000X0.225000X-0.250000X0.225000X-0.250000X-0.225000X0*%
%ADD21C,1.701800*%
%ADD22R,1.168400X1.600200*%
%ADD23RoundRect,0.200000X-0.200000X-0.275000X0.200000X-0.275000X0.200000X0.275000X-0.200000X0.275000X0*%
%ADD24RoundRect,0.150000X0.512500X0.150000X-0.512500X0.150000X-0.512500X-0.150000X0.512500X-0.150000X0*%
%ADD25RoundRect,0.225000X0.225000X0.250000X-0.225000X0.250000X-0.225000X-0.250000X0.225000X-0.250000X0*%
%ADD26RoundRect,0.102000X0.605000X0.365000X-0.605000X0.365000X-0.605000X-0.365000X0.605000X-0.365000X0*%
%ADD27R,1.000000X1.500000*%
%ADD28C,1.524800*%
%ADD29C,2.210600*%
%ADD30RoundRect,0.150000X-0.587500X-0.150000X0.587500X-0.150000X0.587500X0.150000X-0.587500X0.150000X0*%
%ADD31RoundRect,0.102000X-0.654000X0.654000X-0.654000X-0.654000X0.654000X-0.654000X0.654000X0.654000X0*%
%ADD32C,1.512000*%
%ADD33RoundRect,0.198500X-0.508500X-0.198500X0.508500X-0.198500X0.508500X0.198500X-0.508500X0.198500X0*%
%ADD34R,1.193800X0.304800*%
%ADD35R,0.304800X1.193800*%
%ADD36R,3.500000X3.500000*%
%ADD37RoundRect,0.750000X-0.750000X-1.000000X0.750000X-1.000000X0.750000X1.000000X-0.750000X1.000000X0*%
%ADD38RoundRect,0.875000X-0.875000X-0.875000X0.875000X-0.875000X0.875000X0.875000X-0.875000X0.875000X0*%
%ADD39RoundRect,0.102000X-1.000000X-0.700000X1.000000X-0.700000X1.000000X0.700000X-1.000000X0.700000X0*%
%ADD40RoundRect,0.075500X-0.806500X-0.226500X0.806500X-0.226500X0.806500X0.226500X-0.806500X0.226500X0*%
%ADD41RoundRect,0.102000X0.325000X-0.525000X0.325000X0.525000X-0.325000X0.525000X-0.325000X-0.525000X0*%
%ADD42C,3.810000*%
%ADD43C,2.641600*%
%ADD44C,2.082800*%
G04 APERTURE END LIST*
D10*
%TO.C,H27*%
X279500000Y-175000000D03*
%TD*%
%TO.C,H11*%
X244500000Y-83000000D03*
%TD*%
D11*
%TO.C,C6*%
X198460000Y-171950000D03*
X198460000Y-173500000D03*
%TD*%
D12*
%TO.C,Speaker1*%
X121925000Y-198600000D03*
D13*
X124465000Y-198600000D03*
%TD*%
D14*
%TO.C,U5*%
X110362500Y-148550000D03*
X110362500Y-149500000D03*
X110362500Y-150450000D03*
X112637500Y-150450000D03*
X112637500Y-148550000D03*
%TD*%
D10*
%TO.C,H17*%
X125500000Y-210000000D03*
%TD*%
D15*
%TO.C,R26*%
X190825000Y-158000000D03*
X189175000Y-158000000D03*
%TD*%
D16*
%TO.C,R22*%
X205500000Y-151050000D03*
X205500000Y-149400000D03*
%TD*%
D17*
%TO.C,LED6*%
X140100000Y-200250000D03*
X140100000Y-201850000D03*
X140100000Y-203450000D03*
X145000000Y-203450000D03*
X145000000Y-201850000D03*
X145000000Y-200250000D03*
%TD*%
D10*
%TO.C,H14*%
X182500000Y-48000000D03*
%TD*%
D18*
%TO.C,C24*%
X126755000Y-165030000D03*
X128305000Y-165030000D03*
%TD*%
%TO.C,C12*%
X211225000Y-161100000D03*
X212775000Y-161100000D03*
%TD*%
D17*
%TO.C,LED3*%
X140050000Y-136400000D03*
X140050000Y-138000000D03*
X140050000Y-139600000D03*
X144950000Y-139600000D03*
X144950000Y-138000000D03*
X144950000Y-136400000D03*
%TD*%
D19*
%TO.C,H2*%
X299500000Y-52000000D03*
%TD*%
D16*
%TO.C,R16*%
X201500000Y-151070000D03*
X201500000Y-149420000D03*
%TD*%
D10*
%TO.C,H24*%
X222500000Y-210000000D03*
%TD*%
D15*
%TO.C,R13*%
X209365000Y-78580000D03*
X207715000Y-78580000D03*
%TD*%
D20*
%TO.C,C29*%
X205490000Y-154560000D03*
X205490000Y-153010000D03*
%TD*%
D10*
%TO.C,H18*%
X125500000Y-175000000D03*
%TD*%
D17*
%TO.C,LED8*%
X260100000Y-200300000D03*
X260100000Y-201900000D03*
X260100000Y-203500000D03*
X265000000Y-203500000D03*
X265000000Y-201900000D03*
X265000000Y-200300000D03*
%TD*%
D21*
%TO.C,SW10*%
X257220000Y-192800000D03*
X262300000Y-192800000D03*
X267380000Y-192800000D03*
%TD*%
D10*
%TO.C,H20*%
X160500000Y-210000000D03*
%TD*%
%TO.C,H25*%
X244500000Y-175000000D03*
%TD*%
%TO.C,H40*%
X244500000Y-146500000D03*
%TD*%
D22*
%TO.C,XTAL1*%
X215177600Y-167000000D03*
X218022400Y-167000000D03*
%TD*%
D23*
%TO.C,R3*%
X116232500Y-162660000D03*
X117882500Y-162660000D03*
%TD*%
D20*
%TO.C,C27*%
X203490000Y-154555000D03*
X203490000Y-153005000D03*
%TD*%
D15*
%TO.C,R7*%
X300945000Y-144990000D03*
X299295000Y-144990000D03*
%TD*%
%TO.C,R9*%
X300955000Y-154700000D03*
X299305000Y-154700000D03*
%TD*%
D18*
%TO.C,C34*%
X261895000Y-79280000D03*
X263445000Y-79280000D03*
%TD*%
D10*
%TO.C,H31*%
X244500000Y-111500000D03*
%TD*%
D20*
%TO.C,C2*%
X200500000Y-176975000D03*
X200500000Y-175425000D03*
%TD*%
D24*
%TO.C,U4*%
X133500000Y-153200000D03*
X133500000Y-152250000D03*
X133500000Y-151300000D03*
X131225000Y-151300000D03*
X131225000Y-152250000D03*
X131225000Y-153200000D03*
%TD*%
D21*
%TO.C,SW9*%
X197240000Y-192800000D03*
X202320000Y-192800000D03*
X207400000Y-192800000D03*
%TD*%
D19*
%TO.C,H1*%
X299500000Y-206000000D03*
%TD*%
D25*
%TO.C,C21*%
X113025000Y-156250000D03*
X111475000Y-156250000D03*
%TD*%
D10*
%TO.C,H28*%
X279500000Y-210000000D03*
%TD*%
D11*
%TO.C,C10*%
X206500000Y-171950000D03*
X206500000Y-173500000D03*
%TD*%
D23*
%TO.C,R4*%
X132350000Y-147325000D03*
X134000000Y-147325000D03*
%TD*%
D20*
%TO.C,C4*%
X204500000Y-176975000D03*
X204500000Y-175425000D03*
%TD*%
D18*
%TO.C,C37*%
X141725000Y-206900000D03*
X143275000Y-206900000D03*
%TD*%
D25*
%TO.C,C31*%
X194275000Y-158000000D03*
X192725000Y-158000000D03*
%TD*%
D15*
%TO.C,R28*%
X194220000Y-162750000D03*
X192570000Y-162750000D03*
%TD*%
D19*
%TO.C,H3*%
X106000000Y-52000000D03*
%TD*%
D21*
%TO.C,SW5*%
X137240000Y-129050000D03*
X142320000Y-129050000D03*
X147400000Y-129050000D03*
%TD*%
D26*
%TO.C,D5*%
X110070000Y-159500000D03*
X113430000Y-159500000D03*
%TD*%
D23*
%TO.C,R20*%
X214175000Y-156500000D03*
X215825000Y-156500000D03*
%TD*%
D27*
%TO.C,STATUS_LED1*%
X302400000Y-169450000D03*
X304000000Y-169450000D03*
X305600000Y-169450000D03*
X305600000Y-164550000D03*
X304000000Y-164550000D03*
X302400000Y-164550000D03*
%TD*%
D20*
%TO.C,C30*%
X207500000Y-154570000D03*
X207500000Y-153020000D03*
%TD*%
D18*
%TO.C,C35*%
X141735000Y-143120000D03*
X143285000Y-143120000D03*
%TD*%
D21*
%TO.C,SW3*%
X197140000Y-65300000D03*
X202220000Y-65300000D03*
X207300000Y-65300000D03*
%TD*%
D10*
%TO.C,H35*%
X160500000Y-111500000D03*
%TD*%
%TO.C,H15*%
X222500000Y-83000000D03*
%TD*%
D28*
%TO.C,SW1*%
X97500000Y-144993400D03*
X97500000Y-147000000D03*
X97500000Y-148981200D03*
D29*
X97500000Y-142885200D03*
X97500000Y-151089400D03*
%TD*%
D21*
%TO.C,SW2*%
X137200000Y-65300000D03*
X142280000Y-65300000D03*
X147360000Y-65300000D03*
%TD*%
D25*
%TO.C,C23*%
X112525000Y-143750000D03*
X110975000Y-143750000D03*
%TD*%
D18*
%TO.C,C32*%
X141865000Y-79360000D03*
X143415000Y-79360000D03*
%TD*%
D10*
%TO.C,H19*%
X160500000Y-175000000D03*
%TD*%
D19*
%TO.C,H4*%
X105500000Y-206000000D03*
%TD*%
D10*
%TO.C,H33*%
X222500000Y-146500000D03*
%TD*%
D15*
%TO.C,R19*%
X209600000Y-142490000D03*
X207950000Y-142490000D03*
%TD*%
D30*
%TO.C,Q1*%
X116562500Y-158550000D03*
X116562500Y-160450000D03*
X118437500Y-159500000D03*
%TD*%
D10*
%TO.C,H8*%
X125500000Y-83000000D03*
%TD*%
%TO.C,H12*%
X244500000Y-48000000D03*
%TD*%
D20*
%TO.C,C18*%
X199500000Y-154550000D03*
X199500000Y-153000000D03*
%TD*%
D31*
%TO.C,U2*%
X114890000Y-168966000D03*
D32*
X112350000Y-168966000D03*
X109810000Y-168966000D03*
X107270000Y-168966000D03*
X104730000Y-168966000D03*
X102190000Y-168966000D03*
X99650000Y-168966000D03*
X97110000Y-168966000D03*
X97110000Y-187000000D03*
X99650000Y-187000000D03*
X102190000Y-187000000D03*
X104730000Y-187000000D03*
X107270000Y-187000000D03*
X109810000Y-187000000D03*
X112350000Y-187000000D03*
X114890000Y-187000000D03*
%TD*%
D10*
%TO.C,H16*%
X182500000Y-83000000D03*
%TD*%
%TO.C,H26*%
X244500000Y-210000000D03*
%TD*%
D33*
%TO.C,U6*%
X121725000Y-160670000D03*
X121725000Y-161620000D03*
X121725000Y-162570000D03*
X124235000Y-162570000D03*
X124235000Y-160670000D03*
%TD*%
D15*
%TO.C,R6*%
X300965000Y-157570000D03*
X299315000Y-157570000D03*
%TD*%
D34*
%TO.C,U1*%
X208249999Y-166750000D03*
X208249999Y-166250001D03*
X208249999Y-165750000D03*
X208249999Y-165250001D03*
X208249999Y-164749999D03*
X208249999Y-164250000D03*
X208249999Y-163750001D03*
X208249999Y-163250000D03*
X208249999Y-162750000D03*
X208249999Y-162249999D03*
X208249999Y-161750000D03*
X208249999Y-161250001D03*
X208249999Y-160749999D03*
X208249999Y-160250000D03*
X208249999Y-159749999D03*
X208249999Y-159250000D03*
D35*
X206250000Y-157250001D03*
X205750001Y-157250001D03*
X205250000Y-157250001D03*
X204750001Y-157250001D03*
X204249999Y-157250001D03*
X203750000Y-157250001D03*
X203250001Y-157250001D03*
X202750000Y-157250001D03*
X202250000Y-157250001D03*
X201749999Y-157250001D03*
X201250000Y-157250001D03*
X200750001Y-157250001D03*
X200249999Y-157250001D03*
X199750000Y-157250001D03*
X199249999Y-157250001D03*
X198750000Y-157250001D03*
D34*
X196750001Y-159250000D03*
X196750001Y-159749999D03*
X196750001Y-160250000D03*
X196750001Y-160749999D03*
X196750001Y-161250001D03*
X196750001Y-161750000D03*
X196750001Y-162249999D03*
X196750001Y-162750000D03*
X196750001Y-163250000D03*
X196750001Y-163750001D03*
X196750001Y-164250000D03*
X196750001Y-164749999D03*
X196750001Y-165250001D03*
X196750001Y-165750000D03*
X196750001Y-166250001D03*
X196750001Y-166750000D03*
D35*
X198750000Y-168749999D03*
X199249999Y-168749999D03*
X199750000Y-168749999D03*
X200249999Y-168749999D03*
X200750001Y-168749999D03*
X201250000Y-168749999D03*
X201749999Y-168749999D03*
X202250000Y-168749999D03*
X202750000Y-168749999D03*
X203250001Y-168749999D03*
X203750000Y-168749999D03*
X204249999Y-168749999D03*
X204750001Y-168749999D03*
X205250000Y-168749999D03*
X205750001Y-168749999D03*
X206250000Y-168749999D03*
%TD*%
D10*
%TO.C,H13*%
X222500000Y-48000000D03*
%TD*%
D15*
%TO.C,R23*%
X149350000Y-206380000D03*
X147700000Y-206380000D03*
%TD*%
%TO.C,R8*%
X300945000Y-147795000D03*
X299295000Y-147795000D03*
%TD*%
D17*
%TO.C,LED4*%
X200300000Y-136400000D03*
X200300000Y-138000000D03*
X200300000Y-139600000D03*
X205200000Y-139600000D03*
X205200000Y-138000000D03*
X205200000Y-136400000D03*
%TD*%
D10*
%TO.C,H5*%
X125500000Y-48000000D03*
%TD*%
%TO.C,H7*%
X160500000Y-83000000D03*
%TD*%
D36*
%TO.C,J3*%
X106000000Y-159600000D03*
D37*
X100000000Y-159600000D03*
D38*
X103000000Y-164300000D03*
%TD*%
D12*
%TO.C,J2*%
X304000000Y-103540000D03*
D13*
X304000000Y-101000000D03*
X304000000Y-98460000D03*
X304000000Y-95920000D03*
X304000000Y-93380000D03*
%TD*%
D10*
%TO.C,H6*%
X160500000Y-48000000D03*
%TD*%
D17*
%TO.C,LED2*%
X260100000Y-72500000D03*
X260100000Y-74100000D03*
X260100000Y-75700000D03*
X265000000Y-75700000D03*
X265000000Y-74100000D03*
X265000000Y-72500000D03*
%TD*%
D10*
%TO.C,H22*%
X182500000Y-210000000D03*
%TD*%
D17*
%TO.C,LED1*%
X200100000Y-72500000D03*
X200100000Y-74100000D03*
X200100000Y-75700000D03*
X205000000Y-75700000D03*
X205000000Y-74100000D03*
X205000000Y-72500000D03*
%TD*%
D12*
%TO.C,J1*%
X304000000Y-136160000D03*
D13*
X304000000Y-133620000D03*
X304000000Y-131080000D03*
X304000000Y-128540000D03*
X304000000Y-126000000D03*
X304000000Y-123460000D03*
X304000000Y-120920000D03*
X304000000Y-118380000D03*
%TD*%
D16*
%TO.C,R24*%
X207500000Y-151040000D03*
X207500000Y-149390000D03*
%TD*%
D20*
%TO.C,C5*%
X206500000Y-176975000D03*
X206500000Y-175425000D03*
%TD*%
D10*
%TO.C,H30*%
X182500000Y-111500000D03*
%TD*%
D18*
%TO.C,C40*%
X138750000Y-181250000D03*
X140300000Y-181250000D03*
%TD*%
D10*
%TO.C,H21*%
X182500000Y-175000000D03*
%TD*%
D15*
%TO.C,R25*%
X209340000Y-206320000D03*
X207690000Y-206320000D03*
%TD*%
D10*
%TO.C,H32*%
X160500000Y-146500000D03*
%TD*%
D18*
%TO.C,C38*%
X201725000Y-206800000D03*
X203275000Y-206800000D03*
%TD*%
D16*
%TO.C,R10*%
X199500000Y-151030000D03*
X199500000Y-149380000D03*
%TD*%
D21*
%TO.C,SW4*%
X257120000Y-65300000D03*
X262200000Y-65300000D03*
X267280000Y-65300000D03*
%TD*%
D17*
%TO.C,LED5*%
X260100000Y-136500000D03*
X260100000Y-138100000D03*
X260100000Y-139700000D03*
X265000000Y-139700000D03*
X265000000Y-138100000D03*
X265000000Y-136500000D03*
%TD*%
D10*
%TO.C,H10*%
X279500000Y-83000000D03*
%TD*%
D11*
%TO.C,C8*%
X202500000Y-171950000D03*
X202500000Y-173500000D03*
%TD*%
D39*
%TO.C,Y1*%
X215500000Y-163387500D03*
X219900000Y-163387500D03*
X219900000Y-160987500D03*
X215500000Y-160987500D03*
%TD*%
D18*
%TO.C,C13*%
X211225000Y-166000000D03*
X212775000Y-166000000D03*
%TD*%
%TO.C,C11*%
X211225000Y-163300000D03*
X212775000Y-163300000D03*
%TD*%
D10*
%TO.C,H39*%
X182500000Y-146500000D03*
%TD*%
%TO.C,H38*%
X125500000Y-146500000D03*
%TD*%
D18*
%TO.C,C14*%
X211225000Y-168200000D03*
X212775000Y-168200000D03*
%TD*%
D10*
%TO.C,H9*%
X279500000Y-48000000D03*
%TD*%
D17*
%TO.C,LED0*%
X140050000Y-72650000D03*
X140050000Y-74250000D03*
X140050000Y-75850000D03*
X144950000Y-75850000D03*
X144950000Y-74250000D03*
X144950000Y-72650000D03*
%TD*%
%TO.C,LED7*%
X200100000Y-200250000D03*
X200100000Y-201850000D03*
X200100000Y-203450000D03*
X205000000Y-203450000D03*
X205000000Y-201850000D03*
X205000000Y-200250000D03*
%TD*%
D25*
%TO.C,C20*%
X194275000Y-156000000D03*
X192725000Y-156000000D03*
%TD*%
D15*
%TO.C,R5*%
X117887500Y-156320000D03*
X116237500Y-156320000D03*
%TD*%
D18*
%TO.C,C25*%
X126760000Y-162730000D03*
X128310000Y-162730000D03*
%TD*%
D15*
%TO.C,R27*%
X269385000Y-206420000D03*
X267735000Y-206420000D03*
%TD*%
D20*
%TO.C,C26*%
X201500000Y-154560000D03*
X201500000Y-153010000D03*
%TD*%
D18*
%TO.C,C22*%
X126755000Y-160560000D03*
X128305000Y-160560000D03*
%TD*%
%TO.C,C41*%
X261955000Y-143200000D03*
X263505000Y-143200000D03*
%TD*%
D16*
%TO.C,R18*%
X203500000Y-151080000D03*
X203500000Y-149430000D03*
%TD*%
D18*
%TO.C,C15*%
X299355000Y-151850000D03*
X300905000Y-151850000D03*
%TD*%
D15*
%TO.C,R21*%
X269385000Y-142610000D03*
X267735000Y-142610000D03*
%TD*%
D18*
%TO.C,C39*%
X261725000Y-206800000D03*
X263275000Y-206800000D03*
%TD*%
D11*
%TO.C,C9*%
X204500000Y-171950000D03*
X204500000Y-173500000D03*
%TD*%
D15*
%TO.C,R14*%
X190825000Y-156000000D03*
X189175000Y-156000000D03*
%TD*%
D18*
%TO.C,C36*%
X201980000Y-143090000D03*
X203530000Y-143090000D03*
%TD*%
D21*
%TO.C,SW6*%
X197300000Y-129050000D03*
X202380000Y-129050000D03*
X207460000Y-129050000D03*
%TD*%
D40*
%TO.C,Q2*%
X121870000Y-156275000D03*
X121870000Y-156925000D03*
X121870000Y-157575000D03*
X121870000Y-158225000D03*
X127630000Y-158225000D03*
X127630000Y-157575000D03*
X127630000Y-156925000D03*
X127630000Y-156275000D03*
%TD*%
D11*
%TO.C,C7*%
X200500000Y-171950000D03*
X200500000Y-173500000D03*
%TD*%
D20*
%TO.C,C19*%
X197420000Y-154550000D03*
X197420000Y-153000000D03*
%TD*%
D15*
%TO.C,R15*%
X269415000Y-78570000D03*
X267765000Y-78570000D03*
%TD*%
D18*
%TO.C,C28*%
X210625000Y-156500000D03*
X212175000Y-156500000D03*
%TD*%
D21*
%TO.C,SW7*%
X257300000Y-129050000D03*
X262380000Y-129050000D03*
X267460000Y-129050000D03*
%TD*%
D41*
%TO.C,SWSW_CHIP_PU1*%
X303550000Y-147240000D03*
X303550000Y-143090000D03*
X305700000Y-147240000D03*
X305700000Y-143090000D03*
%TD*%
D20*
%TO.C,C3*%
X202500000Y-176975000D03*
X202500000Y-175425000D03*
%TD*%
D10*
%TO.C,H34*%
X279500000Y-146500000D03*
%TD*%
D21*
%TO.C,SW8*%
X137220000Y-192800000D03*
X142300000Y-192800000D03*
X147380000Y-192800000D03*
%TD*%
D18*
%TO.C,C16*%
X299345000Y-142190000D03*
X300895000Y-142190000D03*
%TD*%
D16*
%TO.C,R12*%
X197420000Y-151040000D03*
X197420000Y-149390000D03*
%TD*%
D18*
%TO.C,C33*%
X201755000Y-79240000D03*
X203305000Y-79240000D03*
%TD*%
D15*
%TO.C,R17*%
X149335000Y-142520000D03*
X147685000Y-142520000D03*
%TD*%
%TO.C,R11*%
X149385000Y-78700000D03*
X147735000Y-78700000D03*
%TD*%
D10*
%TO.C,H23*%
X222500000Y-175000000D03*
%TD*%
D41*
%TO.C,SW_GPIO1*%
X303550000Y-156815000D03*
X303550000Y-152665000D03*
X305700000Y-156815000D03*
X305700000Y-152665000D03*
%TD*%
D10*
%TO.C,H29*%
X125500000Y-111500000D03*
%TD*%
D20*
%TO.C,C1*%
X198460000Y-176975000D03*
X198460000Y-175425000D03*
%TD*%
D42*
%TO.C,U3*%
X101253000Y-126962100D03*
X117001000Y-71717100D03*
D43*
X101253000Y-63335100D03*
D44*
X109127000Y-135598100D03*
X109127000Y-63335100D03*
%TD*%
D10*
%TO.C,H37*%
X279500000Y-111500000D03*
%TD*%
%TO.C,H36*%
X222500000Y-111500000D03*
%TD*%
M02*
