M48
; DRILL file KiCad 10.0.3 date 2026-10-10T16:48:10
; FORMAT={-:-/ absolute / metric / decimal}
; #@! TF.CreationDate,2026-10-10T16:48:10+02:00
; #@! TF.GenerationSoftware,Kicad,Pcbnew,10.0.3
; #@! TF.FileFunction,Plated,1,2,PTH
FMAT,2
METRIC
; #@! TA.AperFunction,Plated,PTH,ViaDrill
T1C0.300
; #@! TA.AperFunction,Plated,PTH,ComponentDrill
T2C0.800
; #@! TA.AperFunction,Plated,PTH,ComponentDrill
T3C0.813
; #@! TA.AperFunction,Plated,PTH,ComponentDrill
T4C1.000
; #@! TA.AperFunction,Plated,PTH,ComponentDrill
T5C1.194
; #@! TA.AperFunction,Plated,PTH,ComponentDrill
T6C1.499
; #@! TA.AperFunction,Plated,PTH,ComponentDrill
T7C1.575
; #@! TA.AperFunction,Plated,PTH,ComponentDrill
T8C5.300
%
G90
G05
T1
X99.621Y-152.259
X99.82Y-140.86
X107.13Y-142.1
X107.18Y-146.0
X107.21Y-149.61
X107.8Y-152.65
X108.8Y-145.5
X111.25Y-146.0
X112.325Y-157.575
X112.68Y-154.36
X115.435Y-157.575
X116.73Y-154.36
X119.5Y-160.75
X120.58Y-161.55
X123.0Y-95.0
X123.0Y-97.0
X123.0Y-99.0
X123.0Y-105.0
X123.0Y-117.0
X123.0Y-119.0
X125.0Y-95.0
X125.0Y-97.0
X125.0Y-99.0
X125.0Y-105.0
X125.0Y-117.0
X125.0Y-119.0
X126.05Y-166.47
X127.0Y-95.0
X127.0Y-97.0
X127.0Y-99.0
X127.0Y-105.0
X127.0Y-117.0
X127.0Y-119.0
X129.37Y-168.13
X129.7Y-179.3
X129.72Y-155.86
X129.9Y-184.3
X132.5Y-179.3
X132.5Y-184.3
X132.75Y-157.65
X134.0Y-95.0
X134.0Y-97.0
X134.0Y-99.0
X134.0Y-105.0
X134.0Y-107.0
X134.0Y-109.0
X134.0Y-115.0
X134.0Y-117.0
X134.0Y-119.0
X136.0Y-95.0
X136.0Y-97.0
X136.0Y-99.0
X136.0Y-105.0
X136.0Y-107.0
X136.0Y-109.0
X136.0Y-115.0
X136.0Y-117.0
X136.0Y-119.0
X138.0Y-95.0
X138.0Y-97.0
X138.0Y-99.0
X138.0Y-105.0
X138.0Y-107.0
X138.0Y-109.0
X138.0Y-115.0
X138.0Y-117.0
X138.0Y-119.0
X141.3Y-197.4
X143.0Y-205.5
X144.0Y-156.0
X144.0Y-158.0
X144.0Y-160.0
X144.0Y-175.0
X144.0Y-177.0
X144.0Y-179.0
X146.0Y-156.0
X146.0Y-158.0
X146.0Y-160.0
X146.0Y-175.0
X146.0Y-177.0
X146.0Y-179.0
X146.1Y-205.3
X146.4Y-195.2
X147.0Y-197.2
X148.0Y-156.0
X148.0Y-158.0
X148.0Y-160.0
X148.0Y-175.0
X148.0Y-177.0
X148.0Y-179.0
X148.06Y-136.79
X148.1Y-211.1
X149.335Y-139.575
X149.34Y-203.89
X149.37Y-75.79
X149.96Y-200.25
X150.5Y-209.7
X150.65Y-139.15
X151.3Y-201.4
X151.4Y-205.7
X152.703Y-192.6
X152.8Y-208.1
X154.5Y-51.0
X154.5Y-53.0
X154.5Y-55.0
X154.5Y-86.0
X154.5Y-88.0
X154.5Y-90.0
X154.5Y-96.0
X154.5Y-98.0
X154.5Y-100.0
X154.5Y-106.0
X154.5Y-108.0
X154.5Y-110.0
X154.5Y-116.0
X154.5Y-118.0
X154.5Y-120.0
X154.5Y-126.0
X154.5Y-128.0
X154.5Y-130.0
X154.8Y-205.2
X155.0Y-156.0
X155.0Y-158.0
X155.0Y-160.0
X156.1Y-192.63
X156.5Y-51.0
X156.5Y-53.0
X156.5Y-55.0
X156.5Y-88.0
X156.5Y-90.0
X156.5Y-96.0
X156.5Y-98.0
X156.5Y-100.0
X156.5Y-106.0
X156.5Y-118.0
X156.5Y-120.0
X156.5Y-126.0
X156.5Y-128.0
X156.5Y-130.0
X157.0Y-156.0
X157.0Y-158.0
X157.0Y-160.0
X158.5Y-51.0
X158.5Y-53.0
X158.5Y-55.0
X158.5Y-90.0
X158.5Y-96.0
X158.5Y-98.0
X158.5Y-100.0
X158.5Y-118.0
X158.5Y-120.0
X158.5Y-126.0
X158.5Y-128.0
X158.5Y-130.0
X159.0Y-156.0
X159.0Y-158.0
X159.0Y-160.0
X159.66Y-192.63
X164.5Y-51.0
X164.5Y-53.0
X164.5Y-55.0
X164.5Y-88.0
X164.5Y-90.0
X164.5Y-96.0
X164.5Y-98.0
X164.5Y-100.0
X164.5Y-106.0
X164.5Y-118.0
X164.5Y-120.0
X164.5Y-126.0
X164.5Y-128.0
X164.5Y-130.0
X164.5Y-141.0
X164.5Y-143.0
X164.5Y-145.0
X164.5Y-156.0
X164.5Y-158.0
X164.5Y-160.0
X164.5Y-196.0
X164.5Y-198.0
X164.5Y-200.0
X166.5Y-51.0
X166.5Y-53.0
X166.5Y-55.0
X166.5Y-86.0
X166.5Y-88.0
X166.5Y-90.0
X166.5Y-96.0
X166.5Y-98.0
X166.5Y-100.0
X166.5Y-106.0
X166.5Y-108.0
X166.5Y-110.0
X166.5Y-116.0
X166.5Y-118.0
X166.5Y-120.0
X166.5Y-126.0
X166.5Y-128.0
X166.5Y-130.0
X166.5Y-141.0
X166.5Y-143.0
X166.5Y-145.0
X166.5Y-156.0
X166.5Y-158.0
X166.5Y-160.0
X166.5Y-177.0
X166.5Y-179.0
X166.5Y-196.0
X166.5Y-198.0
X166.5Y-200.0
X168.5Y-51.0
X168.5Y-53.0
X168.5Y-55.0
X168.5Y-86.0
X168.5Y-88.0
X168.5Y-90.0
X168.5Y-96.0
X168.5Y-98.0
X168.5Y-100.0
X168.5Y-106.0
X168.5Y-108.0
X168.5Y-110.0
X168.5Y-116.0
X168.5Y-118.0
X168.5Y-120.0
X168.5Y-126.0
X168.5Y-128.0
X168.5Y-130.0
X168.5Y-141.0
X168.5Y-143.0
X168.5Y-145.0
X168.5Y-156.0
X168.5Y-158.0
X168.5Y-160.0
X168.5Y-175.0
X168.5Y-177.0
X168.5Y-179.0
X168.5Y-196.0
X168.5Y-198.0
X168.5Y-200.0
X174.5Y-51.0
X174.5Y-53.0
X174.5Y-55.0
X174.5Y-86.0
X174.5Y-88.0
X174.5Y-90.0
X174.5Y-96.0
X174.5Y-98.0
X174.5Y-100.0
X174.5Y-106.0
X174.5Y-108.0
X174.5Y-110.0
X174.5Y-116.0
X174.5Y-118.0
X174.5Y-120.0
X174.5Y-126.0
X174.5Y-128.0
X174.5Y-130.0
X176.5Y-51.0
X176.5Y-53.0
X176.5Y-55.0
X176.5Y-86.0
X176.5Y-88.0
X176.5Y-90.0
X176.5Y-96.0
X176.5Y-98.0
X176.5Y-100.0
X176.5Y-106.0
X176.5Y-108.0
X176.5Y-110.0
X176.5Y-116.0
X176.5Y-118.0
X176.5Y-120.0
X176.5Y-126.0
X176.5Y-128.0
X176.5Y-130.0
X178.5Y-51.0
X178.5Y-53.0
X178.5Y-55.0
X178.5Y-86.0
X178.5Y-88.0
X178.5Y-90.0
X178.5Y-96.0
X178.5Y-98.0
X178.5Y-100.0
X178.5Y-106.0
X178.5Y-116.0
X178.5Y-118.0
X178.5Y-120.0
X178.5Y-126.0
X178.5Y-128.0
X178.5Y-130.0
X184.5Y-51.0
X184.5Y-53.0
X184.5Y-55.0
X184.5Y-86.0
X184.5Y-88.0
X184.5Y-90.0
X184.5Y-96.0
X184.5Y-98.0
X184.5Y-100.0
X184.5Y-118.0
X184.5Y-120.0
X184.5Y-126.0
X184.5Y-128.0
X184.5Y-130.0
X184.5Y-186.0
X184.5Y-188.0
X184.5Y-190.0
X184.5Y-196.0
X184.5Y-198.0
X184.5Y-200.0
X185.3Y-154.47
X186.15Y-159.02
X186.5Y-51.0
X186.5Y-53.0
X186.5Y-55.0
X186.5Y-86.0
X186.5Y-88.0
X186.5Y-90.0
X186.5Y-96.0
X186.5Y-98.0
X186.5Y-100.0
X186.5Y-106.0
X186.5Y-116.0
X186.5Y-118.0
X186.5Y-120.0
X186.5Y-126.0
X186.5Y-128.0
X186.5Y-130.0
X186.5Y-166.0
X186.5Y-168.0
X186.5Y-186.0
X186.5Y-188.0
X186.5Y-190.0
X186.5Y-196.0
X186.5Y-198.0
X186.5Y-200.0
X187.5Y-154.5
X187.5Y-157.0
X188.5Y-51.0
X188.5Y-53.0
X188.5Y-55.0
X188.5Y-86.0
X188.5Y-88.0
X188.5Y-90.0
X188.5Y-96.0
X188.5Y-98.0
X188.5Y-100.0
X188.5Y-106.0
X188.5Y-108.0
X188.5Y-110.0
X188.5Y-116.0
X188.5Y-118.0
X188.5Y-120.0
X188.5Y-126.0
X188.5Y-128.0
X188.5Y-130.0
X188.5Y-166.0
X188.5Y-168.0
X188.5Y-186.0
X188.5Y-188.0
X188.5Y-190.0
X188.5Y-196.0
X188.5Y-198.0
X188.5Y-200.0
X189.5Y-147.0
X189.5Y-149.0
X189.5Y-151.0
X189.5Y-153.0
X189.5Y-175.0
X189.5Y-177.0
X190.5Y-166.0
X190.5Y-168.0
X191.5Y-147.0
X191.5Y-149.0
X191.5Y-151.0
X191.5Y-153.0
X191.5Y-175.0
X191.5Y-177.0
X192.55Y-168.87
X193.05Y-160.02
X193.5Y-149.0
X193.5Y-151.0
X193.5Y-153.0
X193.5Y-175.0
X193.5Y-177.0
X193.56Y-166.56
X194.17Y-161.02
X194.58Y-166.94
X194.6Y-144.47
X195.43Y-145.66
X196.39Y-173.49
X196.43Y-175.43
X196.55Y-157.04
X197.04Y-168.92
X197.6Y-157.14
X198.43Y-148.01
X198.74Y-170.52
X199.5Y-86.0
X199.5Y-88.0
X199.5Y-90.0
X199.5Y-96.0
X199.5Y-98.0
X199.5Y-100.0
X199.5Y-106.0
X199.5Y-108.0
X199.5Y-110.0
X199.5Y-116.0
X199.5Y-118.0
X199.5Y-120.0
X199.525Y-169.875
X199.81Y-146.51
X200.5Y-148.01
X201.5Y-86.0
X201.5Y-88.0
X201.5Y-90.0
X201.5Y-96.0
X201.5Y-98.0
X201.5Y-100.0
X201.5Y-106.0
X201.5Y-108.0
X201.5Y-110.0
X201.5Y-116.0
X201.5Y-118.0
X201.5Y-120.0
X201.56Y-198.11
X201.75Y-170.425
X202.1Y-146.37
X202.475Y-169.85
X202.49Y-148.01
X202.8Y-136.1
X203.5Y-86.0
X203.5Y-88.0
X203.5Y-90.0
X203.5Y-96.0
X203.5Y-98.0
X203.5Y-100.0
X203.5Y-106.0
X203.5Y-108.0
X203.5Y-110.0
X203.5Y-116.0
X203.5Y-118.0
X203.5Y-120.0
X204.5Y-51.0
X204.5Y-53.0
X204.5Y-55.0
X204.51Y-148.01
X204.82Y-155.76
X205.0Y-170.5
X205.9Y-205.7
X206.0Y-141.9
X206.5Y-51.0
X206.5Y-53.0
X206.5Y-55.0
X206.53Y-148.01
X207.56Y-155.99
X208.2Y-138.6
X208.5Y-51.0
X208.5Y-53.0
X208.5Y-55.0
X208.65Y-173.52
X208.69Y-175.43
X209.33Y-203.83
X209.34Y-75.39
X209.5Y-86.0
X209.5Y-88.0
X209.5Y-90.0
X209.5Y-96.0
X209.5Y-98.0
X209.5Y-100.0
X209.5Y-106.0
X209.5Y-108.0
X209.5Y-110.0
X209.5Y-153.8
X209.58Y-139.06
X209.81Y-159.01
X210.65Y-158.99
X210.67Y-157.92
X211.4Y-159.65
X211.5Y-86.0
X211.5Y-88.0
X211.5Y-90.0
X211.5Y-96.0
X211.5Y-98.0
X211.5Y-100.0
X211.5Y-106.0
X211.5Y-108.0
X211.5Y-110.0
X211.5Y-147.0
X211.5Y-149.0
X211.5Y-151.0
X211.5Y-153.0
X211.5Y-174.0
X211.5Y-176.0
X211.5Y-178.0
X213.1Y-172.8
X213.41Y-169.25
X213.5Y-86.0
X213.5Y-88.0
X213.5Y-90.0
X213.5Y-96.0
X213.5Y-98.0
X213.5Y-100.0
X213.5Y-106.0
X213.5Y-108.0
X213.5Y-110.0
X213.5Y-147.0
X213.5Y-149.0
X213.5Y-151.0
X213.5Y-153.0
X213.5Y-174.0
X213.5Y-176.0
X213.5Y-178.0
X213.6Y-162.12
X214.5Y-51.0
X214.5Y-53.0
X214.5Y-55.0
X214.5Y-186.0
X214.5Y-188.0
X214.5Y-190.0
X214.5Y-196.0
X214.5Y-198.0
X214.5Y-200.0
X214.51Y-154.41
X214.56Y-158.26
X215.5Y-147.0
X215.5Y-149.0
X215.5Y-151.0
X215.5Y-153.0
X215.5Y-168.9
X215.5Y-174.0
X215.5Y-176.0
X215.5Y-178.0
X216.5Y-51.0
X216.5Y-53.0
X216.5Y-55.0
X216.5Y-186.0
X216.5Y-188.0
X216.5Y-190.0
X216.5Y-196.0
X216.5Y-198.0
X216.5Y-200.0
X217.9Y-157.6
X218.5Y-51.0
X218.5Y-53.0
X218.5Y-55.0
X218.5Y-186.0
X218.5Y-188.0
X218.5Y-190.0
X218.5Y-196.0
X218.5Y-198.0
X218.5Y-200.0
X219.5Y-86.0
X219.5Y-88.0
X219.5Y-90.0
X219.5Y-96.0
X219.5Y-98.0
X219.5Y-100.0
X219.8Y-165.2
X221.5Y-86.0
X221.5Y-88.0
X221.5Y-90.0
X221.5Y-96.0
X221.5Y-98.0
X221.5Y-100.0
X222.087Y-163.387
X222.1Y-162.1
X223.5Y-86.0
X223.5Y-88.0
X223.5Y-90.0
X223.5Y-96.0
X223.5Y-98.0
X223.5Y-100.0
X223.5Y-140.0
X224.5Y-51.0
X224.5Y-53.0
X224.5Y-55.0
X224.5Y-130.0
X224.5Y-132.0
X224.5Y-134.0
X224.5Y-178.0
X224.5Y-180.0
X224.5Y-186.0
X224.5Y-188.0
X224.5Y-190.0
X224.5Y-196.0
X224.5Y-198.0
X224.5Y-200.0
X225.42Y-158.08
X225.425Y-159.2
X226.5Y-51.0
X226.5Y-53.0
X226.5Y-55.0
X226.5Y-130.0
X226.5Y-132.0
X226.5Y-134.0
X226.5Y-176.0
X226.5Y-178.0
X226.5Y-180.0
X226.5Y-186.0
X226.5Y-188.0
X226.5Y-190.0
X226.5Y-196.0
X226.5Y-198.0
X226.5Y-200.0
X228.5Y-51.0
X228.5Y-53.0
X228.5Y-55.0
X228.5Y-130.0
X228.5Y-132.0
X228.5Y-134.0
X228.5Y-140.0
X228.5Y-147.5
X228.5Y-152.5
X228.5Y-176.0
X228.5Y-178.0
X228.5Y-180.0
X228.5Y-186.0
X228.5Y-188.0
X228.5Y-190.0
X228.5Y-196.0
X228.5Y-198.0
X228.5Y-200.0
X229.5Y-86.0
X229.5Y-88.0
X229.5Y-90.0
X231.5Y-86.0
X231.5Y-88.0
X231.5Y-90.0
X233.5Y-86.0
X233.5Y-88.0
X233.5Y-90.0
X233.5Y-130.0
X233.5Y-132.0
X233.5Y-134.0
X233.5Y-140.0
X233.5Y-147.5
X233.5Y-152.5
X234.5Y-51.0
X234.5Y-53.0
X234.5Y-55.0
X234.5Y-103.0
X234.5Y-105.0
X234.5Y-111.0
X234.5Y-113.0
X234.5Y-115.0
X234.5Y-176.0
X234.5Y-178.0
X234.5Y-180.0
X234.5Y-186.0
X234.5Y-188.0
X234.5Y-190.0
X234.5Y-196.0
X234.5Y-198.0
X234.5Y-200.0
X235.5Y-130.0
X235.5Y-132.0
X235.5Y-134.0
X236.5Y-51.0
X236.5Y-53.0
X236.5Y-55.0
X236.5Y-101.0
X236.5Y-103.0
X236.5Y-105.0
X236.5Y-111.0
X236.5Y-113.0
X236.5Y-115.0
X236.5Y-176.0
X236.5Y-178.0
X236.5Y-180.0
X236.5Y-186.0
X236.5Y-188.0
X236.5Y-190.0
X236.5Y-196.0
X236.5Y-198.0
X236.5Y-200.0
X237.5Y-130.0
X237.5Y-132.0
X237.5Y-134.0
X238.5Y-51.0
X238.5Y-53.0
X238.5Y-55.0
X238.5Y-101.0
X238.5Y-103.0
X238.5Y-105.0
X238.5Y-111.0
X238.5Y-113.0
X238.5Y-115.0
X238.5Y-140.0
X238.5Y-176.0
X238.5Y-178.0
X238.5Y-180.0
X238.5Y-186.0
X238.5Y-188.0
X238.5Y-190.0
X238.5Y-196.0
X238.5Y-198.0
X238.5Y-200.0
X239.5Y-151.0
X239.5Y-153.0
X239.5Y-155.0
X239.5Y-161.0
X239.5Y-163.0
X239.5Y-165.0
X241.5Y-151.0
X241.5Y-153.0
X241.5Y-155.0
X241.5Y-161.0
X241.5Y-163.0
X241.5Y-165.0
X243.5Y-130.0
X243.5Y-132.0
X243.5Y-134.0
X243.5Y-140.0
X243.5Y-151.0
X243.5Y-153.0
X243.5Y-155.0
X243.5Y-161.0
X243.5Y-163.0
X243.5Y-165.0
X244.5Y-91.0
X244.5Y-93.0
X244.5Y-95.0
X244.5Y-101.0
X244.5Y-103.0
X244.5Y-105.0
X244.5Y-115.0
X244.5Y-186.0
X244.5Y-188.0
X244.5Y-190.0
X244.5Y-196.0
X244.5Y-198.0
X244.5Y-200.0
X245.5Y-130.0
X245.5Y-132.0
X245.5Y-134.0
X246.5Y-91.0
X246.5Y-93.0
X246.5Y-95.0
X246.5Y-101.0
X246.5Y-103.0
X246.5Y-105.0
X246.5Y-115.0
X246.5Y-186.0
X246.5Y-188.0
X246.5Y-190.0
X246.5Y-196.0
X246.5Y-198.0
X246.5Y-200.0
X247.5Y-130.0
X247.5Y-132.0
X247.5Y-134.0
X248.5Y-91.0
X248.5Y-93.0
X248.5Y-95.0
X248.5Y-101.0
X248.5Y-103.0
X248.5Y-105.0
X248.5Y-111.0
X248.5Y-113.0
X248.5Y-115.0
X248.5Y-140.0
X248.5Y-186.0
X248.5Y-188.0
X248.5Y-190.0
X248.5Y-196.0
X248.5Y-198.0
X248.5Y-200.0
X249.5Y-151.0
X249.5Y-153.0
X249.5Y-155.0
X249.5Y-161.0
X249.5Y-163.0
X249.5Y-165.0
X249.5Y-173.0
X249.5Y-175.0
X250.97Y-71.31
X251.5Y-151.0
X251.5Y-153.0
X251.5Y-155.0
X251.5Y-161.0
X251.5Y-163.0
X251.5Y-165.0
X251.5Y-173.0
X251.5Y-175.0
X253.5Y-151.0
X253.5Y-153.0
X253.5Y-155.0
X253.5Y-161.0
X253.5Y-163.0
X253.5Y-165.0
X253.5Y-173.0
X253.5Y-175.0
X254.5Y-91.0
X254.5Y-93.0
X254.5Y-95.0
X254.5Y-111.0
X254.5Y-113.0
X254.5Y-115.0
X255.044Y-101.363
X255.044Y-103.363
X255.044Y-105.363
X256.5Y-91.0
X256.5Y-93.0
X256.5Y-95.0
X256.5Y-111.0
X256.5Y-113.0
X256.5Y-115.0
X257.044Y-101.363
X257.044Y-103.363
X257.044Y-105.363
X257.4Y-135.5
X257.4Y-140.3
X258.5Y-91.0
X258.5Y-93.0
X258.5Y-95.0
X258.5Y-111.0
X258.5Y-113.0
X258.5Y-115.0
X259.044Y-101.363
X259.044Y-103.363
X259.044Y-105.363
X259.5Y-151.0
X259.5Y-153.0
X259.5Y-155.0
X259.5Y-161.0
X259.5Y-163.0
X259.5Y-165.0
X259.5Y-173.0
X259.5Y-175.0
X259.5Y-181.0
X259.5Y-183.0
X259.5Y-185.0
X261.4Y-197.8
X261.5Y-151.0
X261.5Y-153.0
X261.5Y-155.0
X261.5Y-161.0
X261.5Y-163.0
X261.5Y-165.0
X261.5Y-173.0
X261.5Y-175.0
X261.5Y-181.0
X261.5Y-183.0
X261.5Y-185.0
X263.5Y-151.0
X263.5Y-153.0
X263.5Y-155.0
X263.5Y-161.0
X263.5Y-163.0
X263.5Y-165.0
X263.5Y-173.0
X263.5Y-175.0
X263.5Y-181.0
X263.5Y-183.0
X263.5Y-185.0
X264.5Y-91.0
X264.5Y-93.0
X264.5Y-95.0
X264.5Y-101.0
X264.5Y-103.0
X264.5Y-105.0
X264.5Y-111.0
X264.5Y-113.0
X264.5Y-115.0
X265.5Y-206.8
X266.5Y-91.0
X266.5Y-93.0
X266.5Y-95.0
X266.5Y-101.0
X266.5Y-103.0
X266.5Y-105.0
X266.5Y-111.0
X266.5Y-113.0
X266.5Y-115.0
X268.5Y-91.0
X268.5Y-93.0
X268.5Y-95.0
X268.5Y-101.0
X268.5Y-103.0
X268.5Y-105.0
X268.5Y-111.0
X268.5Y-113.0
X268.5Y-115.0
X269.38Y-139.26
X269.38Y-203.36
X269.4Y-75.23
X269.5Y-151.0
X269.5Y-153.0
X269.5Y-155.0
X269.5Y-161.0
X269.5Y-163.0
X269.5Y-171.0
X269.5Y-173.0
X269.5Y-175.0
X269.5Y-181.0
X269.5Y-183.0
X269.5Y-185.0
X270.26Y-144.9
X271.5Y-151.0
X271.5Y-153.0
X271.5Y-155.0
X271.5Y-161.0
X271.5Y-171.0
X271.5Y-173.0
X271.5Y-175.0
X271.5Y-181.0
X271.5Y-183.0
X271.5Y-185.0
X273.5Y-151.0
X273.5Y-153.0
X273.5Y-155.0
X273.5Y-165.0
X273.5Y-171.0
X273.5Y-173.0
X273.5Y-175.0
X273.5Y-181.0
X273.5Y-183.0
X273.5Y-185.0
X274.17Y-159.32
X274.5Y-91.0
X274.5Y-93.0
X274.5Y-95.0
X274.5Y-101.0
X274.5Y-103.0
X274.5Y-105.0
X276.5Y-91.0
X276.5Y-93.0
X276.5Y-95.0
X276.5Y-101.0
X276.5Y-103.0
X276.5Y-105.0
X278.5Y-91.0
X278.5Y-93.0
X278.5Y-95.0
X278.5Y-101.0
X278.5Y-103.0
X278.5Y-105.0
X280.17Y-159.34
X281.59Y-158.1
X284.89Y-149.24
X288.3Y-154.6
X288.91Y-158.11
X288.92Y-159.34
X289.0Y-162.5
X289.84Y-143.34
X290.97Y-140.94
X292.1Y-143.08
X292.1Y-149.9
X294.5Y-162.3
X298.41Y-169.66
X299.49Y-128.43
X299.55Y-133.77
X299.58Y-123.22
X299.71Y-115.52
T2
X97.11Y-168.966
X97.11Y-187.0
X99.65Y-168.966
X99.65Y-187.0
X102.19Y-168.966
X102.19Y-187.0
X104.73Y-168.966
X104.73Y-187.0
X107.27Y-168.966
X107.27Y-187.0
X109.81Y-168.966
X109.81Y-187.0
X112.35Y-168.966
X112.35Y-187.0
X114.89Y-168.966
X114.89Y-187.0
T3
X97.5Y-144.993
X97.5Y-147.0
X97.5Y-148.981
T4
X121.925Y-198.6
X124.465Y-198.6
X304.0Y-93.38
X304.0Y-95.92
X304.0Y-98.46
X304.0Y-101.0
X304.0Y-103.54
X304.0Y-118.38
X304.0Y-120.92
X304.0Y-123.46
X304.0Y-126.0
X304.0Y-128.54
X304.0Y-131.08
X304.0Y-133.62
X304.0Y-136.16
T5
X137.2Y-65.3
X137.22Y-192.8
X137.24Y-129.05
X142.28Y-65.3
X142.3Y-192.8
X142.32Y-129.05
X147.36Y-65.3
X147.38Y-192.8
X147.4Y-129.05
X197.14Y-65.3
X197.24Y-192.8
X197.3Y-129.05
X202.22Y-65.3
X202.32Y-192.8
X202.38Y-129.05
X207.3Y-65.3
X207.4Y-192.8
X207.46Y-129.05
X257.12Y-65.3
X257.22Y-192.8
X257.3Y-129.05
X262.2Y-65.3
X262.3Y-192.8
X262.38Y-129.05
X267.28Y-65.3
X267.38Y-192.8
X267.46Y-129.05
T6
X97.5Y-142.885
X97.5Y-151.089
T7
X109.127Y-63.335
X109.127Y-135.598
T8
X105.5Y-206.0
X106.0Y-52.0
X299.5Y-52.0
X299.5Y-206.0
T4
G00X100.0Y-158.6
M15
G01X100.0Y-160.6
M16
G05
G00X102.0Y-164.3
M15
G01X104.0Y-164.3
M16
G05
G00X106.0Y-158.6
M15
G01X106.0Y-160.6
M16
G05
M30
