%TF.GenerationSoftware,KiCad,Pcbnew,10.0.3*%
%TF.CreationDate,2026-10-10T16:48:09+02:00*%
%TF.ProjectId,SoundBoxSTM32,536f756e-6442-46f7-9853-544d33322e6b,rev?*%
%TF.SameCoordinates,Original*%
%TF.FileFunction,Soldermask,Bot*%
%TF.FilePolarity,Negative*%
%FSLAX46Y46*%
G04 Gerber Fmt 4.6, Leading zero omitted, Abs format (unit mm)*
G04 Created by KiCad (PCBNEW 10.0.3) date 2026-10-10 16:48:09*
%MOMM*%
%LPD*%
G01*
G04 APERTURE LIST*
G04 Aperture macros list*
%AMRoundRect*
0 Rectangle with rounded corners*
0 $1 Rounding radius*
0 $2 $3 $4 $5 $6 $7 $8 $9 X,Y pos of 4 corners*
0 Add a 4 corners polygon primitive as box body*
4,1,4,$2,$3,$4,$5,$6,$7,$8,$9,$2,$3,0*
0 Add four circle primitives for the rounded corners*
1,1,$1+$1,$2,$3*
1,1,$1+$1,$4,$5*
1,1,$1+$1,$6,$7*
1,1,$1+$1,$8,$9*
0 Add four rect primitives between the rounded corners*
20,1,$1+$1,$2,$3,$4,$5,0*
20,1,$1+$1,$4,$5,$6,$7,0*
20,1,$1+$1,$6,$7,$8,$9,0*
20,1,$1+$1,$8,$9,$2,$3,0*%
G04 Aperture macros list end*
%ADD10C,5.300000*%
%ADD11R,1.700000X1.700000*%
%ADD12C,1.700000*%
%ADD13C,9.200000*%
%ADD14C,1.701800*%
%ADD15C,1.524800*%
%ADD16C,2.210600*%
%ADD17RoundRect,0.102000X-0.654000X0.654000X-0.654000X-0.654000X0.654000X-0.654000X0.654000X0.654000X0*%
%ADD18C,1.512000*%
%ADD19R,3.500000X3.500000*%
%ADD20RoundRect,0.750000X-0.750000X-1.000000X0.750000X-1.000000X0.750000X1.000000X-0.750000X1.000000X0*%
%ADD21RoundRect,0.875000X-0.875000X-0.875000X0.875000X-0.875000X0.875000X0.875000X-0.875000X0.875000X0*%
%ADD22C,3.810000*%
%ADD23C,2.641600*%
%ADD24C,2.082800*%
G04 APERTURE END LIST*
D10*
%TO.C,H27*%
X279500000Y-175000000D03*
%TD*%
%TO.C,H11*%
X244500000Y-83000000D03*
%TD*%
D11*
%TO.C,Speaker1*%
X121925000Y-198600000D03*
D12*
X124465000Y-198600000D03*
%TD*%
D10*
%TO.C,H17*%
X125500000Y-210000000D03*
%TD*%
%TO.C,H14*%
X182500000Y-48000000D03*
%TD*%
D13*
%TO.C,H2*%
X299500000Y-52000000D03*
%TD*%
D10*
%TO.C,H24*%
X222500000Y-210000000D03*
%TD*%
%TO.C,H18*%
X125500000Y-175000000D03*
%TD*%
D14*
%TO.C,SW10*%
X257220000Y-192800000D03*
X262300000Y-192800000D03*
X267380000Y-192800000D03*
%TD*%
D10*
%TO.C,H20*%
X160500000Y-210000000D03*
%TD*%
%TO.C,H25*%
X244500000Y-175000000D03*
%TD*%
%TO.C,H40*%
X244500000Y-146500000D03*
%TD*%
%TO.C,H31*%
X244500000Y-111500000D03*
%TD*%
D14*
%TO.C,SW9*%
X197240000Y-192800000D03*
X202320000Y-192800000D03*
X207400000Y-192800000D03*
%TD*%
D13*
%TO.C,H1*%
X299500000Y-206000000D03*
%TD*%
D10*
%TO.C,H28*%
X279500000Y-210000000D03*
%TD*%
D13*
%TO.C,H3*%
X106000000Y-52000000D03*
%TD*%
D14*
%TO.C,SW5*%
X137240000Y-129050000D03*
X142320000Y-129050000D03*
X147400000Y-129050000D03*
%TD*%
%TO.C,SW3*%
X197140000Y-65300000D03*
X202220000Y-65300000D03*
X207300000Y-65300000D03*
%TD*%
D10*
%TO.C,H35*%
X160500000Y-111500000D03*
%TD*%
%TO.C,H15*%
X222500000Y-83000000D03*
%TD*%
D15*
%TO.C,SW1*%
X97500000Y-144993400D03*
X97500000Y-147000000D03*
X97500000Y-148981200D03*
D16*
X97500000Y-142885200D03*
X97500000Y-151089400D03*
%TD*%
D14*
%TO.C,SW2*%
X137200000Y-65300000D03*
X142280000Y-65300000D03*
X147360000Y-65300000D03*
%TD*%
D10*
%TO.C,H19*%
X160500000Y-175000000D03*
%TD*%
D13*
%TO.C,H4*%
X105500000Y-206000000D03*
%TD*%
D10*
%TO.C,H33*%
X222500000Y-146500000D03*
%TD*%
%TO.C,H8*%
X125500000Y-83000000D03*
%TD*%
%TO.C,H12*%
X244500000Y-48000000D03*
%TD*%
D17*
%TO.C,U2*%
X114890000Y-168966000D03*
D18*
X112350000Y-168966000D03*
X109810000Y-168966000D03*
X107270000Y-168966000D03*
X104730000Y-168966000D03*
X102190000Y-168966000D03*
X99650000Y-168966000D03*
X97110000Y-168966000D03*
X97110000Y-187000000D03*
X99650000Y-187000000D03*
X102190000Y-187000000D03*
X104730000Y-187000000D03*
X107270000Y-187000000D03*
X109810000Y-187000000D03*
X112350000Y-187000000D03*
X114890000Y-187000000D03*
%TD*%
D10*
%TO.C,H16*%
X182500000Y-83000000D03*
%TD*%
%TO.C,H26*%
X244500000Y-210000000D03*
%TD*%
%TO.C,H13*%
X222500000Y-48000000D03*
%TD*%
%TO.C,H5*%
X125500000Y-48000000D03*
%TD*%
%TO.C,H7*%
X160500000Y-83000000D03*
%TD*%
D19*
%TO.C,J3*%
X106000000Y-159600000D03*
D20*
X100000000Y-159600000D03*
D21*
X103000000Y-164300000D03*
%TD*%
D11*
%TO.C,J2*%
X304000000Y-103540000D03*
D12*
X304000000Y-101000000D03*
X304000000Y-98460000D03*
X304000000Y-95920000D03*
X304000000Y-93380000D03*
%TD*%
D10*
%TO.C,H6*%
X160500000Y-48000000D03*
%TD*%
%TO.C,H22*%
X182500000Y-210000000D03*
%TD*%
D11*
%TO.C,J1*%
X304000000Y-136160000D03*
D12*
X304000000Y-133620000D03*
X304000000Y-131080000D03*
X304000000Y-128540000D03*
X304000000Y-126000000D03*
X304000000Y-123460000D03*
X304000000Y-120920000D03*
X304000000Y-118380000D03*
%TD*%
D10*
%TO.C,H30*%
X182500000Y-111500000D03*
%TD*%
%TO.C,H21*%
X182500000Y-175000000D03*
%TD*%
%TO.C,H32*%
X160500000Y-146500000D03*
%TD*%
D14*
%TO.C,SW4*%
X257120000Y-65300000D03*
X262200000Y-65300000D03*
X267280000Y-65300000D03*
%TD*%
D10*
%TO.C,H10*%
X279500000Y-83000000D03*
%TD*%
%TO.C,H39*%
X182500000Y-146500000D03*
%TD*%
%TO.C,H38*%
X125500000Y-146500000D03*
%TD*%
%TO.C,H9*%
X279500000Y-48000000D03*
%TD*%
D14*
%TO.C,SW6*%
X197300000Y-129050000D03*
X202380000Y-129050000D03*
X207460000Y-129050000D03*
%TD*%
%TO.C,SW7*%
X257300000Y-129050000D03*
X262380000Y-129050000D03*
X267460000Y-129050000D03*
%TD*%
D10*
%TO.C,H34*%
X279500000Y-146500000D03*
%TD*%
D14*
%TO.C,SW8*%
X137220000Y-192800000D03*
X142300000Y-192800000D03*
X147380000Y-192800000D03*
%TD*%
D10*
%TO.C,H23*%
X222500000Y-175000000D03*
%TD*%
%TO.C,H29*%
X125500000Y-111500000D03*
%TD*%
D22*
%TO.C,U3*%
X101253000Y-126962100D03*
X117001000Y-71717100D03*
D23*
X101253000Y-63335100D03*
D24*
X109127000Y-135598100D03*
X109127000Y-63335100D03*
%TD*%
D10*
%TO.C,H37*%
X279500000Y-111500000D03*
%TD*%
%TO.C,H36*%
X222500000Y-111500000D03*
%TD*%
M02*
