M48
; DRILL file KiCad 10.0.3 date 2026-10-10T16:48:10
; FORMAT={-:-/ absolute / metric / decimal}
; #@! TF.CreationDate,2026-10-10T16:48:10+02:00
; #@! TF.GenerationSoftware,Kicad,Pcbnew,10.0.3
; #@! TF.FileFunction,NonPlated,1,2,NPTH
FMAT,2
METRIC
; #@! TA.AperFunction,NonPlated,NPTH,ComponentDrill
T1C2.642
; #@! TA.AperFunction,NonPlated,NPTH,ComponentDrill
T2C3.810
; #@! TA.AperFunction,NonPlated,NPTH,ComponentDrill
T3C5.300
%
G90
G05
T1
X101.253Y-63.335
T2
X101.253Y-126.962
X117.001Y-71.717
T3
X125.5Y-48.0
X125.5Y-83.0
X125.5Y-111.5
X125.5Y-146.5
X125.5Y-175.0
X125.5Y-210.0
X160.5Y-48.0
X160.5Y-83.0
X160.5Y-111.5
X160.5Y-146.5
X160.5Y-175.0
X160.5Y-210.0
X182.5Y-48.0
X182.5Y-83.0
X182.5Y-111.5
X182.5Y-146.5
X182.5Y-175.0
X182.5Y-210.0
X222.5Y-48.0
X222.5Y-83.0
X222.5Y-111.5
X222.5Y-146.5
X222.5Y-175.0
X222.5Y-210.0
X244.5Y-48.0
X244.5Y-83.0
X244.5Y-111.5
X244.5Y-146.5
X244.5Y-175.0
X244.5Y-210.0
X279.5Y-48.0
X279.5Y-83.0
X279.5Y-111.5
X279.5Y-146.5
X279.5Y-175.0
X279.5Y-210.0
M30
