M48
; DRILL file KiCad 10.0.3 date 2026-10-04T13:41:25
; FORMAT={-:-/ absolute / metric / decimal}
; #@! TF.CreationDate,2026-10-04T13:41:25+02:00
; #@! TF.GenerationSoftware,Kicad,Pcbnew,10.0.3
; #@! TF.FileFunction,Plated,1,2,PTH
FMAT,2
METRIC
; #@! TA.AperFunction,Plated,PTH,ComponentDrill
T1C0.840
; #@! TA.AperFunction,Plated,PTH,ComponentDrill
T2C1.000
%
G90
G05
T1
X91.22Y-92.38
X91.22Y-107.62
X93.76Y-92.38
X93.76Y-107.62
X96.3Y-92.38
X96.3Y-107.62
X98.84Y-92.38
X98.84Y-107.62
X101.38Y-92.38
X101.38Y-107.62
X103.92Y-92.38
X103.92Y-107.62
X106.46Y-92.38
X106.46Y-107.62
X109.0Y-92.38
X109.0Y-107.62
T2
X91.96Y-85.0
X94.5Y-85.0
X97.04Y-85.0
X108.675Y-85.0
X111.215Y-85.0
X113.755Y-85.0
X116.295Y-85.0
X120.9Y-100.0
X128.5Y-100.0
X130.5Y-85.0
X133.04Y-85.0
M30
