%TF.GenerationSoftware,KiCad,Pcbnew,10.0.3*%
%TF.CreationDate,2026-10-04T13:41:27+02:00*%
%TF.ProjectId,BeerCounterV2.1,42656572-436f-4756-9e74-657256322e31,rev?*%
%TF.SameCoordinates,Original*%
%TF.FileFunction,Legend,Bot*%
%TF.FilePolarity,Positive*%
%FSLAX46Y46*%
G04 Gerber Fmt 4.6, Leading zero omitted, Abs format (unit mm)*
G04 Created by KiCad (PCBNEW 10.0.3) date 2026-10-04 13:41:27*
%MOMM*%
%LPD*%
G01*
G04 APERTURE LIST*
%ADD10C,0.150000*%
%ADD11C,0.120000*%
G04 APERTURE END LIST*
D10*
G36*
X117358094Y-87779819D02*
G01*
X117207169Y-87779819D01*
X117092656Y-87741648D01*
X117018543Y-87667534D01*
X116980049Y-87590547D01*
X116936666Y-87417013D01*
X116936666Y-87292624D01*
X116980049Y-87119090D01*
X117018543Y-87042103D01*
X117092656Y-86967990D01*
X117207169Y-86929819D01*
X117358094Y-86929819D01*
X117358094Y-87779819D01*
G37*
G36*
X113138561Y-87494104D02*
G01*
X112870485Y-87494104D01*
X113004523Y-87091989D01*
X113138561Y-87494104D01*
G37*
G36*
X114929523Y-87303628D02*
G01*
X114641276Y-87303628D01*
X114572760Y-87269370D01*
X114542353Y-87238963D01*
X114508095Y-87170447D01*
X114508095Y-87063000D01*
X114542353Y-86994484D01*
X114572760Y-86964077D01*
X114641276Y-86929819D01*
X114929523Y-86929819D01*
X114929523Y-87303628D01*
G37*
G36*
X117619205Y-88040930D02*
G01*
X111627955Y-88040930D01*
X111627955Y-86853145D01*
X111739066Y-86853145D01*
X111744133Y-86881967D01*
X111750772Y-86895085D01*
X112072380Y-87400469D01*
X112072380Y-87854819D01*
X112073821Y-87869451D01*
X112085020Y-87896487D01*
X112105712Y-87917179D01*
X112132748Y-87928378D01*
X112162012Y-87928378D01*
X112189048Y-87917179D01*
X112209740Y-87896487D01*
X112220939Y-87869451D01*
X112222380Y-87854819D01*
X112222380Y-87845439D01*
X112596779Y-87845439D01*
X112598854Y-87874629D01*
X112611940Y-87900802D01*
X112634047Y-87919976D01*
X112661810Y-87929230D01*
X112691000Y-87927155D01*
X112717173Y-87914069D01*
X112736347Y-87891962D01*
X112742341Y-87878536D01*
X112820485Y-87644104D01*
X113188561Y-87644104D01*
X113266705Y-87878536D01*
X113272699Y-87891961D01*
X113291873Y-87914068D01*
X113318046Y-87927155D01*
X113347236Y-87929230D01*
X113374998Y-87919976D01*
X113397106Y-87900802D01*
X113410192Y-87874628D01*
X113412267Y-87845438D01*
X113411073Y-87840187D01*
X113454774Y-87840187D01*
X113454774Y-87869451D01*
X113465973Y-87896487D01*
X113486665Y-87917179D01*
X113513701Y-87928378D01*
X113528333Y-87929819D01*
X114004523Y-87929819D01*
X114019155Y-87928378D01*
X114046191Y-87917179D01*
X114066883Y-87896487D01*
X114078082Y-87869451D01*
X114079523Y-87854819D01*
X114079523Y-87045295D01*
X114358095Y-87045295D01*
X114358095Y-87188152D01*
X114359536Y-87202784D01*
X114360567Y-87205273D01*
X114360758Y-87207961D01*
X114366013Y-87221693D01*
X114413632Y-87316931D01*
X114417596Y-87323230D01*
X114418354Y-87325058D01*
X114420042Y-87327114D01*
X114421464Y-87329374D01*
X114422962Y-87330673D01*
X114427681Y-87336423D01*
X114475300Y-87384042D01*
X114481049Y-87388760D01*
X114482349Y-87390259D01*
X114484608Y-87391680D01*
X114486665Y-87393369D01*
X114488492Y-87394126D01*
X114494792Y-87398091D01*
X114590030Y-87445710D01*
X114603761Y-87450965D01*
X114606450Y-87451156D01*
X114608939Y-87452187D01*
X114623571Y-87453628D01*
X114929523Y-87453628D01*
X114929523Y-87854819D01*
X114930964Y-87869451D01*
X114942163Y-87896487D01*
X114962855Y-87917179D01*
X114989891Y-87928378D01*
X115019155Y-87928378D01*
X115046191Y-87917179D01*
X115066883Y-87896487D01*
X115078082Y-87869451D01*
X115079523Y-87854819D01*
X115079523Y-87569104D01*
X115358095Y-87569104D01*
X115358095Y-87664342D01*
X115359536Y-87678974D01*
X115360567Y-87681463D01*
X115360758Y-87684151D01*
X115366013Y-87697883D01*
X115413632Y-87793121D01*
X115417595Y-87799417D01*
X115418353Y-87801247D01*
X115420042Y-87803305D01*
X115421464Y-87805564D01*
X115422962Y-87806863D01*
X115427680Y-87812612D01*
X115475299Y-87860232D01*
X115481048Y-87864950D01*
X115482349Y-87866450D01*
X115484608Y-87867872D01*
X115486665Y-87869560D01*
X115488492Y-87870317D01*
X115494792Y-87874282D01*
X115590030Y-87921901D01*
X115603761Y-87927156D01*
X115606450Y-87927347D01*
X115608939Y-87928378D01*
X115623571Y-87929819D01*
X115861666Y-87929819D01*
X115869071Y-87929089D01*
X115871046Y-87929230D01*
X115873643Y-87928639D01*
X115876298Y-87928378D01*
X115878129Y-87927619D01*
X115885383Y-87925970D01*
X116028240Y-87878351D01*
X116041665Y-87872357D01*
X116063772Y-87853183D01*
X116076859Y-87827010D01*
X116078934Y-87797820D01*
X116069680Y-87770058D01*
X116050506Y-87747950D01*
X116024332Y-87734864D01*
X115995142Y-87732789D01*
X115980805Y-87736049D01*
X115849496Y-87779819D01*
X115641276Y-87779819D01*
X115572760Y-87745561D01*
X115542353Y-87715153D01*
X115508095Y-87646637D01*
X115508095Y-87586809D01*
X115542353Y-87518293D01*
X115572760Y-87487886D01*
X115649747Y-87449392D01*
X115832237Y-87403770D01*
X115833316Y-87403384D01*
X115833856Y-87403346D01*
X115839937Y-87401018D01*
X115846083Y-87398823D01*
X115846518Y-87398500D01*
X115847588Y-87398091D01*
X115942826Y-87350472D01*
X115949125Y-87346507D01*
X115950953Y-87345750D01*
X115953009Y-87344061D01*
X115955269Y-87342640D01*
X115956568Y-87341141D01*
X115962318Y-87336423D01*
X116009937Y-87288804D01*
X116014655Y-87283054D01*
X116016154Y-87281755D01*
X116017575Y-87279495D01*
X116019264Y-87277439D01*
X116020021Y-87275611D01*
X116023986Y-87269312D01*
X116071605Y-87174074D01*
X116076860Y-87160343D01*
X116077051Y-87157653D01*
X116078082Y-87155165D01*
X116079523Y-87140533D01*
X116079523Y-87045295D01*
X116078082Y-87030663D01*
X116077051Y-87028174D01*
X116076860Y-87025485D01*
X116071605Y-87011754D01*
X116023986Y-86916516D01*
X116020021Y-86910216D01*
X116019264Y-86908389D01*
X116017575Y-86906332D01*
X116016154Y-86904073D01*
X116014655Y-86902773D01*
X116009937Y-86897024D01*
X115967732Y-86854819D01*
X116358094Y-86854819D01*
X116358094Y-87854819D01*
X116359535Y-87869451D01*
X116370734Y-87896487D01*
X116391426Y-87917179D01*
X116418462Y-87928378D01*
X116447726Y-87928378D01*
X116474762Y-87917179D01*
X116495454Y-87896487D01*
X116506653Y-87869451D01*
X116508094Y-87854819D01*
X116508094Y-87283390D01*
X116786666Y-87283390D01*
X116786666Y-87426247D01*
X116786917Y-87428800D01*
X116786755Y-87429893D01*
X116787564Y-87435366D01*
X116788107Y-87440879D01*
X116788529Y-87441900D01*
X116788905Y-87444437D01*
X116836524Y-87634913D01*
X116836909Y-87635992D01*
X116836948Y-87636532D01*
X116839275Y-87642613D01*
X116841471Y-87648759D01*
X116841793Y-87649194D01*
X116842203Y-87650264D01*
X116889822Y-87745502D01*
X116893785Y-87751798D01*
X116894543Y-87753628D01*
X116896232Y-87755686D01*
X116897654Y-87757945D01*
X116899152Y-87759244D01*
X116903871Y-87764994D01*
X116999109Y-87860233D01*
X117010474Y-87869561D01*
X117012964Y-87870592D01*
X117014999Y-87872357D01*
X117028425Y-87878351D01*
X117171281Y-87925970D01*
X117178536Y-87927619D01*
X117180367Y-87928378D01*
X117183020Y-87928639D01*
X117185618Y-87929230D01*
X117187592Y-87929089D01*
X117194999Y-87929819D01*
X117433094Y-87929819D01*
X117447726Y-87928378D01*
X117474762Y-87917179D01*
X117495454Y-87896487D01*
X117506653Y-87869451D01*
X117508094Y-87854819D01*
X117508094Y-86854819D01*
X117506653Y-86840187D01*
X117495454Y-86813151D01*
X117474762Y-86792459D01*
X117447726Y-86781260D01*
X117433094Y-86779819D01*
X117194999Y-86779819D01*
X117187592Y-86780548D01*
X117185618Y-86780408D01*
X117183020Y-86780998D01*
X117180367Y-86781260D01*
X117178536Y-86782018D01*
X117171281Y-86783668D01*
X117028425Y-86831287D01*
X117014999Y-86837281D01*
X117012964Y-86839045D01*
X117010474Y-86840077D01*
X116999109Y-86849405D01*
X116903871Y-86944643D01*
X116899152Y-86950392D01*
X116897654Y-86951692D01*
X116896232Y-86953951D01*
X116894544Y-86956008D01*
X116893786Y-86957835D01*
X116889822Y-86964135D01*
X116842203Y-87059373D01*
X116841793Y-87060442D01*
X116841471Y-87060878D01*
X116839275Y-87067023D01*
X116836948Y-87073105D01*
X116836909Y-87073644D01*
X116836524Y-87074724D01*
X116788905Y-87265200D01*
X116788529Y-87267736D01*
X116788107Y-87268758D01*
X116787564Y-87274270D01*
X116786755Y-87279744D01*
X116786917Y-87280836D01*
X116786666Y-87283390D01*
X116508094Y-87283390D01*
X116508094Y-86854819D01*
X116506653Y-86840187D01*
X116495454Y-86813151D01*
X116474762Y-86792459D01*
X116447726Y-86781260D01*
X116418462Y-86781260D01*
X116391426Y-86792459D01*
X116370734Y-86813151D01*
X116359535Y-86840187D01*
X116358094Y-86854819D01*
X115967732Y-86854819D01*
X115962318Y-86849405D01*
X115956568Y-86844686D01*
X115955269Y-86843188D01*
X115953009Y-86841766D01*
X115950953Y-86840078D01*
X115949125Y-86839320D01*
X115942826Y-86835356D01*
X115847588Y-86787737D01*
X115833856Y-86782482D01*
X115831168Y-86782291D01*
X115828679Y-86781260D01*
X115814047Y-86779819D01*
X115575952Y-86779819D01*
X115568545Y-86780548D01*
X115566571Y-86780408D01*
X115563973Y-86780998D01*
X115561320Y-86781260D01*
X115559489Y-86782018D01*
X115552234Y-86783668D01*
X115409378Y-86831287D01*
X115395952Y-86837281D01*
X115373845Y-86856455D01*
X115360759Y-86882628D01*
X115358684Y-86911818D01*
X115367938Y-86939581D01*
X115387112Y-86961688D01*
X115413285Y-86974774D01*
X115442475Y-86976849D01*
X115456812Y-86973589D01*
X115588122Y-86929819D01*
X115796342Y-86929819D01*
X115864858Y-86964077D01*
X115895265Y-86994484D01*
X115929523Y-87063000D01*
X115929523Y-87122828D01*
X115895265Y-87191344D01*
X115864858Y-87221751D01*
X115787871Y-87260244D01*
X115605381Y-87305867D01*
X115604301Y-87306252D01*
X115603761Y-87306291D01*
X115597671Y-87308621D01*
X115591535Y-87310814D01*
X115591099Y-87311136D01*
X115590030Y-87311546D01*
X115494792Y-87359165D01*
X115488492Y-87363129D01*
X115486665Y-87363887D01*
X115484608Y-87365575D01*
X115482349Y-87366997D01*
X115481049Y-87368495D01*
X115475300Y-87373214D01*
X115427681Y-87420833D01*
X115422962Y-87426582D01*
X115421464Y-87427882D01*
X115420042Y-87430141D01*
X115418354Y-87432198D01*
X115417596Y-87434025D01*
X115413632Y-87440325D01*
X115366013Y-87535563D01*
X115360758Y-87549295D01*
X115360567Y-87551982D01*
X115359536Y-87554472D01*
X115358095Y-87569104D01*
X115079523Y-87569104D01*
X115079523Y-86854819D01*
X115078082Y-86840187D01*
X115066883Y-86813151D01*
X115046191Y-86792459D01*
X115019155Y-86781260D01*
X115004523Y-86779819D01*
X114623571Y-86779819D01*
X114608939Y-86781260D01*
X114606450Y-86782290D01*
X114603761Y-86782482D01*
X114590030Y-86787737D01*
X114494792Y-86835356D01*
X114488492Y-86839320D01*
X114486665Y-86840078D01*
X114484608Y-86841766D01*
X114482349Y-86843188D01*
X114481049Y-86844686D01*
X114475300Y-86849405D01*
X114427681Y-86897024D01*
X114422962Y-86902773D01*
X114421464Y-86904073D01*
X114420042Y-86906332D01*
X114418354Y-86908389D01*
X114417596Y-86910216D01*
X114413632Y-86916516D01*
X114366013Y-87011754D01*
X114360758Y-87025486D01*
X114360567Y-87028173D01*
X114359536Y-87030663D01*
X114358095Y-87045295D01*
X114079523Y-87045295D01*
X114079523Y-86854819D01*
X114078082Y-86840187D01*
X114066883Y-86813151D01*
X114046191Y-86792459D01*
X114019155Y-86781260D01*
X113989891Y-86781260D01*
X113962855Y-86792459D01*
X113942163Y-86813151D01*
X113930964Y-86840187D01*
X113929523Y-86854819D01*
X113929523Y-87779819D01*
X113528333Y-87779819D01*
X113513701Y-87781260D01*
X113486665Y-87792459D01*
X113465973Y-87813151D01*
X113454774Y-87840187D01*
X113411073Y-87840187D01*
X113409007Y-87831102D01*
X113075674Y-86831102D01*
X113069680Y-86817676D01*
X113066168Y-86813627D01*
X113063773Y-86808836D01*
X113056669Y-86802674D01*
X113050506Y-86795569D01*
X113045712Y-86793172D01*
X113041665Y-86789662D01*
X113032743Y-86786688D01*
X113024333Y-86782483D01*
X113018988Y-86782103D01*
X113013903Y-86780408D01*
X113004523Y-86781074D01*
X112995143Y-86780408D01*
X112990057Y-86782103D01*
X112984713Y-86782483D01*
X112976305Y-86786687D01*
X112967380Y-86789662D01*
X112963329Y-86793175D01*
X112958540Y-86795570D01*
X112952381Y-86802670D01*
X112945273Y-86808836D01*
X112942876Y-86813629D01*
X112939366Y-86817677D01*
X112933372Y-86831102D01*
X112600039Y-87831102D01*
X112596779Y-87845439D01*
X112222380Y-87845439D01*
X112222380Y-87400468D01*
X112543988Y-86895084D01*
X112550628Y-86881966D01*
X112555694Y-86853145D01*
X112549346Y-86824579D01*
X112532550Y-86800615D01*
X112507861Y-86784904D01*
X112479039Y-86779838D01*
X112450473Y-86786186D01*
X112426510Y-86802982D01*
X112417438Y-86814553D01*
X112147379Y-87238930D01*
X111877322Y-86814553D01*
X111868250Y-86802983D01*
X111844287Y-86786186D01*
X111815721Y-86779838D01*
X111786899Y-86784905D01*
X111762211Y-86800616D01*
X111745414Y-86824579D01*
X111739066Y-86853145D01*
X111627955Y-86853145D01*
X111627955Y-86668708D01*
X117619205Y-86668708D01*
X117619205Y-88040930D01*
G37*
%TO.C,DISPLAY*%
D11*
X107295000Y-86380000D02*
X107295000Y-83620000D01*
X115025000Y-83620000D02*
X107295000Y-83620000D01*
X115025000Y-86380000D02*
X107295000Y-86380000D01*
X115025000Y-86380000D02*
X115025000Y-83620000D01*
X116295000Y-86380000D02*
X117675000Y-86380000D01*
X117675000Y-86380000D02*
X117675000Y-85000000D01*
%TD*%
M02*
