M48
; DRILL file {KiCad 9.0.4} date 2026-02-24T10:47:13+0100
; FORMAT={-:-/ absolute / metric / decimal}
; #@! TF.CreationDate,2026-02-24T10:47:13+01:00
; #@! TF.GenerationSoftware,Kicad,Pcbnew,9.0.4
; #@! TF.FileFunction,Plated,1,2,PTH
FMAT,2
METRIC
; #@! TA.AperFunction,Plated,PTH,ComponentDrill
T1C0.200
; #@! TA.AperFunction,Plated,PTH,ViaDrill
T2C0.300
; #@! TA.AperFunction,Plated,PTH,ComponentDrill
T3C0.600
; #@! TA.AperFunction,Plated,PTH,ComponentDrill
T4C1.000
%
G90
G05
T1
X52.06Y-81.05
X52.06Y-82.45
X52.76Y-80.35
X52.76Y-81.75
X52.76Y-83.15
X53.46Y-81.05
X53.46Y-82.45
X54.16Y-80.35
X54.16Y-81.75
X54.16Y-83.15
X54.86Y-81.05
X54.86Y-82.45
T2
X41.29Y-91.39
X42.361Y-94.34
X42.361Y-99.16
X43.02Y-97.76
X46.13Y-94.09
X46.38Y-90.78
X46.94Y-100.49
X48.13Y-90.66
X49.85Y-93.57
X50.19Y-98.25
X51.309Y-91.6
X53.5Y-69.816
X53.58Y-99.27
X54.5Y-69.821
X55.5Y-92.0
X56.0Y-69.821
X56.0Y-90.5
X56.157Y-92.457
X57.19Y-93.13
X57.297Y-70.003
X57.43Y-101.54
X59.0Y-90.5
X64.5Y-89.5
X66.72Y-74.0
X67.59Y-72.08
X68.0Y-94.5
X68.68Y-71.5
X69.5Y-91.0
X71.5Y-75.321
X73.0Y-77.5
X73.22Y-75.28
X73.5Y-94.0
X74.5Y-77.5
X74.5Y-79.5
X77.5Y-75.0
X80.0Y-91.0
X80.0Y-94.0
X84.0Y-98.0
X85.5Y-82.0
X85.5Y-86.0
X85.5Y-88.0
X86.0Y-97.0
X87.0Y-94.0
X87.5Y-81.5
X88.233Y-89.5
X88.25Y-88.25
X88.399Y-94.601
X93.5Y-77.5
X93.5Y-98.0
X94.5Y-82.5
X95.5Y-79.0
T4
X73.22Y-70.5
X75.76Y-70.5
X78.3Y-70.5
X80.46Y-74.235
X80.46Y-76.775
X80.84Y-70.5
X83.0Y-74.235
X83.0Y-76.775
X83.38Y-70.5
X85.54Y-74.235
X85.54Y-76.775
X85.92Y-70.5
X88.46Y-70.5
X90.887Y-76.649
X90.887Y-79.189
X90.887Y-81.729
X90.887Y-84.269
X90.887Y-86.809
X90.887Y-89.349
X90.887Y-91.889
X90.887Y-94.429
X91.0Y-70.5
T3
G00X40.014Y-92.43
M15
G01X39.214Y-92.43
M16
G05
G00X40.014Y-101.08
M15
G01X39.214Y-101.08
M16
G05
G00X44.334Y-92.43
M15
G01X43.234Y-92.43
M16
G05
G00X44.334Y-101.08
M15
G01X43.234Y-101.08
M16
G05
M30
