%TF.GenerationSoftware,KiCad,Pcbnew,9.0.4*%
%TF.CreationDate,2026-02-25T15:11:39+01:00*%
%TF.ProjectId,ESP32_Base,45535033-325f-4426-9173-652e6b696361,rev?*%
%TF.SameCoordinates,Original*%
%TF.FileFunction,Copper,L2,Bot*%
%TF.FilePolarity,Positive*%
%FSLAX46Y46*%
G04 Gerber Fmt 4.6, Leading zero omitted, Abs format (unit mm)*
G04 Created by KiCad (PCBNEW 9.0.4) date 2026-02-25 15:11:39*
%MOMM*%
%LPD*%
G01*
G04 APERTURE LIST*
%TA.AperFunction,ComponentPad*%
%ADD10O,2.000000X0.900000*%
%TD*%
%TA.AperFunction,ComponentPad*%
%ADD11O,1.700000X0.900000*%
%TD*%
%TA.AperFunction,ComponentPad*%
%ADD12R,1.700000X1.700000*%
%TD*%
%TA.AperFunction,ComponentPad*%
%ADD13C,1.700000*%
%TD*%
%TA.AperFunction,ComponentPad*%
%ADD14C,0.400000*%
%TD*%
%TA.AperFunction,ViaPad*%
%ADD15C,0.600000*%
%TD*%
%TA.AperFunction,Conductor*%
%ADD16C,0.400000*%
%TD*%
%TA.AperFunction,Conductor*%
%ADD17C,0.200000*%
%TD*%
G04 APERTURE END LIST*
D10*
%TO.P,USB-C,S1,SHIELD*%
%TO.N,GND*%
X43783801Y-92429682D03*
%TO.P,USB-C,S2,SHIELD*%
X43783801Y-101079682D03*
D11*
%TO.P,USB-C,S3,SHIELD*%
X39613801Y-92429682D03*
%TO.P,USB-C,S4,SHIELD*%
X39613801Y-101079682D03*
%TD*%
D12*
%TO.P,HEADER,1,Pin_1*%
%TO.N,SCL*%
X73220000Y-70500000D03*
D13*
%TO.P,HEADER,2,Pin_2*%
%TO.N,SDA*%
X75760000Y-70500000D03*
%TO.P,HEADER,3,Pin_3*%
%TO.N,IO41*%
X78300000Y-70500000D03*
%TO.P,HEADER,4,Pin_4*%
%TO.N,IO40*%
X80840000Y-70500000D03*
%TO.P,HEADER,5,Pin_5*%
%TO.N,IO39*%
X83380000Y-70500000D03*
%TO.P,HEADER,6,Pin_6*%
%TO.N,IO38*%
X85920000Y-70500000D03*
%TO.P,HEADER,7,Pin_7*%
%TO.N,IO37*%
X88460000Y-70500000D03*
%TO.P,HEADER,8,Pin_8*%
%TO.N,IO36*%
X91000000Y-70500000D03*
%TD*%
D14*
%TO.P,ESP32-S3-WROOM,41_10*%
%TO.N,GND*%
X52760000Y-81750000D03*
%TO.P,ESP32-S3-WROOM,41_11*%
X52760000Y-83150000D03*
%TO.P,ESP32-S3-WROOM,41_12*%
X52760000Y-80350000D03*
%TO.P,ESP32-S3-WROOM,41_13*%
X54160000Y-83150000D03*
%TO.P,ESP32-S3-WROOM,41_14*%
X54160000Y-81750000D03*
%TO.P,ESP32-S3-WROOM,41_15*%
X54160000Y-80350000D03*
%TO.P,ESP32-S3-WROOM,41_16*%
X52060000Y-82450000D03*
%TO.P,ESP32-S3-WROOM,41_17*%
X52060000Y-81050000D03*
%TO.P,ESP32-S3-WROOM,41_18*%
X53460000Y-82450000D03*
%TO.P,ESP32-S3-WROOM,41_19*%
X53460000Y-81050000D03*
%TO.P,ESP32-S3-WROOM,41_20*%
X54860000Y-82450000D03*
%TO.P,ESP32-S3-WROOM,41_21*%
X54860000Y-81050000D03*
%TD*%
D12*
%TO.P,SPI,1,Pin_1*%
%TO.N,BL*%
X90886905Y-94429207D03*
D13*
%TO.P,SPI,2,Pin_2*%
%TO.N,Net-(SPI1-Pin_2)*%
X90886905Y-91889207D03*
%TO.P,SPI,3,Pin_3*%
%TO.N,DS*%
X90886905Y-89349207D03*
%TO.P,SPI,4,Pin_4*%
%TO.N,RST*%
X90886905Y-86809207D03*
%TO.P,SPI,5,Pin_5*%
%TO.N,Net-(SPI1-Pin_5)*%
X90886905Y-84269207D03*
%TO.P,SPI,6,Pin_6*%
%TO.N,Net-(SPI1-Pin_6)*%
X90886905Y-81729207D03*
%TO.P,SPI,7,Pin_7*%
%TO.N,VCC_3V3*%
X90886905Y-79189207D03*
%TO.P,SPI,8,Pin_8*%
%TO.N,GND*%
X90886905Y-76649207D03*
%TD*%
D12*
%TO.P,PWR,1,Pin_1*%
%TO.N,VCC_3V3*%
X80460000Y-76775000D03*
D13*
%TO.P,PWR,2,Pin_2*%
%TO.N,GND*%
X80460000Y-74235000D03*
%TO.P,PWR,3,Pin_3*%
%TO.N,VCC_3V3*%
X83000000Y-76775000D03*
%TO.P,PWR,4,Pin_4*%
%TO.N,GND*%
X83000000Y-74235000D03*
%TO.P,PWR,5,Pin_5*%
%TO.N,VCC_3V3*%
X85540000Y-76775000D03*
%TO.P,PWR,6,Pin_6*%
%TO.N,GND*%
X85540000Y-74235000D03*
%TD*%
D15*
%TO.N,GND*%
X63570000Y-91270000D03*
%TO.N,CHIP_PU*%
X63430000Y-93390000D03*
X61990000Y-94890000D03*
%TO.N,GND*%
X66860000Y-95530000D03*
X63580000Y-94870000D03*
%TO.N,VCC_5V*%
X59380000Y-101440000D03*
X65820000Y-94160000D03*
%TO.N,GND*%
X59460000Y-98440000D03*
%TO.N,VCC_3V3*%
X71730000Y-85950000D03*
X69700000Y-88620000D03*
%TO.N,GND*%
X75360000Y-89470000D03*
X57190000Y-93130000D03*
X46130000Y-94090000D03*
X48130000Y-90660000D03*
%TO.N,Net-(USB-C1-CC2)*%
X43020000Y-97760000D03*
%TO.N,VBUS*%
X42361000Y-94340000D03*
X42361000Y-99160000D03*
%TO.N,Net-(USB-C1-CC2)*%
X56156619Y-92457007D03*
%TO.N,VCC_3V3*%
X46380000Y-90780000D03*
%TO.N,GND*%
X50660000Y-97830000D03*
X40653483Y-91390000D03*
X77070000Y-75430000D03*
X94500000Y-82500000D03*
X73500000Y-94000000D03*
X84000000Y-98000000D03*
X49850000Y-93570000D03*
X57660000Y-101310000D03*
X86715000Y-93715000D03*
X46940000Y-100490000D03*
X53852500Y-98872500D03*
X85500000Y-82000000D03*
X80000000Y-94000000D03*
X85770000Y-85630000D03*
X93500000Y-77500000D03*
X95500000Y-79000000D03*
X93500000Y-98000000D03*
%TO.N,VCC_3V3*%
X85500000Y-88000000D03*
X87500000Y-81500000D03*
X69500000Y-91000000D03*
X68000000Y-94500000D03*
%TO.N,GPIO0*%
X86000000Y-97000000D03*
X66720000Y-74000000D03*
%TO.N,CHIP_PU*%
X51309116Y-91600000D03*
X80000000Y-91000000D03*
%TO.N,SCL*%
X73220000Y-75280000D03*
X55500000Y-92000000D03*
%TO.N,IO41*%
X53500000Y-69815973D03*
%TO.N,IO37*%
X68680000Y-71500000D03*
%TO.N,IO39*%
X56000000Y-69820810D03*
%TO.N,IO38*%
X57297000Y-70003000D03*
%TO.N,IO36*%
X67590000Y-72080000D03*
%TO.N,SDA*%
X71500000Y-75320603D03*
X56000000Y-90500000D03*
%TO.N,IO40*%
X54500000Y-69821007D03*
%TO.N,MOSI*%
X59000000Y-90500000D03*
X64500000Y-89500000D03*
%TO.N,DS*%
X74500000Y-79500000D03*
X88232632Y-89500000D03*
%TO.N,RST*%
X74500000Y-77500000D03*
X88250000Y-88250000D03*
%TO.N,BL*%
X88399000Y-94601000D03*
X73000000Y-77500000D03*
%TD*%
D16*
%TO.N,GND*%
X62430000Y-92410000D02*
X63570000Y-91270000D01*
X63580000Y-94870000D02*
X62430000Y-93720000D01*
X62430000Y-93220000D02*
X62430000Y-92410000D01*
X62430000Y-93720000D02*
X62430000Y-93220000D01*
D17*
%TO.N,CHIP_PU*%
X80000000Y-91000000D02*
X79399000Y-90399000D01*
X79399000Y-90399000D02*
X66421000Y-90399000D01*
X66421000Y-90399000D02*
X63430000Y-93390000D01*
X59211057Y-97668943D02*
X61990000Y-94890000D01*
X59211057Y-97839000D02*
X59211057Y-97668943D01*
X41761000Y-99409943D02*
X41761000Y-94999000D01*
X58859000Y-98191057D02*
X58859000Y-98411000D01*
X59431000Y-97839000D02*
X59211057Y-97839000D01*
X42646739Y-100295682D02*
X41761000Y-99409943D01*
X58859000Y-98411000D02*
X57399000Y-99871000D01*
X41760000Y-94980000D02*
X41760000Y-94091057D01*
X43988136Y-99871000D02*
X43563454Y-100295682D01*
X59211057Y-97839000D02*
X58859000Y-98191057D01*
X57399000Y-99871000D02*
X43988136Y-99871000D01*
X43563454Y-100295682D02*
X42646739Y-100295682D01*
X41760000Y-94091057D02*
X42670375Y-93180682D01*
X50970057Y-91600000D02*
X51309116Y-91600000D01*
X41761000Y-94999000D02*
X41770000Y-94990000D01*
X41770000Y-94990000D02*
X41760000Y-94980000D01*
X42670375Y-93180682D02*
X49389375Y-93180682D01*
X49389375Y-93180682D02*
X50970057Y-91600000D01*
D16*
%TO.N,GND*%
X39613801Y-92429682D02*
X39613801Y-101079682D01*
%TO.N,VCC_5V*%
X59360000Y-100620000D02*
X59360000Y-101440000D01*
X65820000Y-94160000D02*
X59360000Y-100620000D01*
D17*
%TO.N,Net-(USB-C1-CC2)*%
X56156619Y-92457007D02*
X57366950Y-92457007D01*
X43299000Y-94691000D02*
X42762000Y-95228000D01*
X57366950Y-92457007D02*
X57791000Y-92881057D01*
X57791000Y-93378943D02*
X56478943Y-94691000D01*
X57791000Y-92881057D02*
X57791000Y-93378943D01*
X42762000Y-97502000D02*
X43020000Y-97760000D01*
X56478943Y-94691000D02*
X43299000Y-94691000D01*
X42762000Y-95228000D02*
X42762000Y-97502000D01*
D16*
%TO.N,GND*%
X57660000Y-101310000D02*
X59460000Y-99510000D01*
X59460000Y-99510000D02*
X59460000Y-98440000D01*
%TO.N,VCC_3V3*%
X55627521Y-102298999D02*
X67781001Y-102298999D01*
X67781001Y-102298999D02*
X69500000Y-100580000D01*
X69500000Y-100580000D02*
X69500000Y-93000000D01*
X85500000Y-88000000D02*
X87500000Y-86000000D01*
X87500000Y-86000000D02*
X87500000Y-81500000D01*
X71730000Y-85950000D02*
X71770000Y-85910000D01*
X69700000Y-87980000D02*
X71730000Y-85950000D01*
X69700000Y-88620000D02*
X69700000Y-87980000D01*
X68000000Y-94500000D02*
X69500000Y-93000000D01*
X69500000Y-93000000D02*
X69500000Y-91000000D01*
%TO.N,GND*%
X46130000Y-94090000D02*
X56230000Y-94090000D01*
X56230000Y-94090000D02*
X57190000Y-93130000D01*
%TO.N,VCC_3V3*%
X55627521Y-102298999D02*
X42808999Y-102298999D01*
X42808999Y-102298999D02*
X40970000Y-100460000D01*
X40970000Y-100460000D02*
X40970000Y-92580000D01*
X40970000Y-92580000D02*
X42349000Y-91201000D01*
X42349000Y-91201000D02*
X45959000Y-91201000D01*
X45959000Y-91201000D02*
X46380000Y-90780000D01*
D17*
%TO.N,CHIP_PU*%
X50915043Y-91498000D02*
X51067043Y-91650000D01*
X51259116Y-91650000D02*
X51309116Y-91600000D01*
X51067043Y-91650000D02*
X51259116Y-91650000D01*
D16*
%TO.N,VCC_3V3*%
X55627521Y-102298999D02*
X55627521Y-102299000D01*
D17*
%TO.N,MOSI*%
X59000000Y-90500000D02*
X59000000Y-89067100D01*
X59000000Y-89067100D02*
X60316100Y-87751000D01*
X64440000Y-89440000D02*
X64500000Y-89500000D01*
X60316100Y-87751000D02*
X63551000Y-87751000D01*
X63551000Y-87751000D02*
X64440000Y-88640000D01*
X64440000Y-88640000D02*
X64440000Y-89440000D01*
%TO.N,SCL*%
X55500000Y-92000000D02*
X60150000Y-87350000D01*
X60150000Y-87350000D02*
X64720000Y-87350000D01*
X64720000Y-87350000D02*
X65640000Y-86430000D01*
X73220000Y-75780000D02*
X73220000Y-75280000D01*
X65640000Y-86430000D02*
X69137100Y-86430000D01*
X69137100Y-86430000D02*
X71901000Y-83666100D01*
X71901000Y-83666100D02*
X71901000Y-77099000D01*
X71901000Y-77099000D02*
X73220000Y-75780000D01*
%TO.N,SDA*%
X71500000Y-75320603D02*
X71500000Y-83500000D01*
X59550000Y-86950000D02*
X56000000Y-90500000D01*
X64550000Y-86950000D02*
X59550000Y-86950000D01*
X71500000Y-83500000D02*
X69000000Y-86000000D01*
X69000000Y-86000000D02*
X65500000Y-86000000D01*
X65500000Y-86000000D02*
X64550000Y-86950000D01*
%TO.N,VBUS*%
X42361000Y-99160000D02*
X42361000Y-94340000D01*
%TO.N,GPIO0*%
X72971057Y-74679000D02*
X72560057Y-75090000D01*
X71251057Y-74719603D02*
X70899000Y-75071660D01*
X86000000Y-97000000D02*
X86000000Y-96150057D01*
X86000000Y-96150057D02*
X72302000Y-82452057D01*
X66720000Y-74040000D02*
X66720000Y-74000000D01*
X67750000Y-75070000D02*
X66720000Y-74040000D01*
X73821000Y-75031057D02*
X73468943Y-74679000D01*
X70899000Y-75071660D02*
X70899000Y-75070000D01*
X73468943Y-74679000D02*
X72971057Y-74679000D01*
X70899000Y-75070000D02*
X67750000Y-75070000D01*
X73821000Y-75746100D02*
X73821000Y-75031057D01*
X72560057Y-75090000D02*
X72101000Y-75090000D01*
X72101000Y-75090000D02*
X72101000Y-75071660D01*
X72101000Y-75071660D02*
X71748943Y-74719603D01*
X71748943Y-74719603D02*
X71251057Y-74719603D01*
X72302000Y-82452057D02*
X72302000Y-77265100D01*
X72302000Y-77265100D02*
X73821000Y-75746100D01*
%TO.N,IO41*%
X54399000Y-68601000D02*
X76401000Y-68601000D01*
X76401000Y-68601000D02*
X78300000Y-70500000D01*
X53500000Y-69500000D02*
X54399000Y-68601000D01*
X53500000Y-69815973D02*
X53500000Y-69500000D01*
%TO.N,IO37*%
X86106000Y-72854000D02*
X72137800Y-72854000D01*
X88460000Y-70500000D02*
X86106000Y-72854000D01*
X72137800Y-72854000D02*
X70034000Y-72854000D01*
X70034000Y-72854000D02*
X68680000Y-71500000D01*
%TO.N,IO39*%
X72470000Y-72052000D02*
X81828000Y-72052000D01*
X81828000Y-72052000D02*
X83380000Y-70500000D01*
X71500000Y-71082000D02*
X72470000Y-72052000D01*
X56000000Y-69403000D02*
X71500000Y-69403000D01*
X56000000Y-69820810D02*
X56000000Y-69403000D01*
X71500000Y-69403000D02*
X71500000Y-71082000D01*
%TO.N,IO38*%
X71099000Y-71248100D02*
X72303900Y-72453000D01*
X83967000Y-72453000D02*
X85920000Y-70500000D01*
X71099000Y-69804000D02*
X71099000Y-71248100D01*
X57496000Y-69804000D02*
X71099000Y-69804000D01*
X72303900Y-72453000D02*
X83967000Y-72453000D01*
X57297000Y-70003000D02*
X57496000Y-69804000D01*
%TO.N,IO36*%
X91000000Y-70500000D02*
X86114000Y-75386000D01*
X68765000Y-73255000D02*
X67590000Y-72080000D01*
X76604943Y-73255000D02*
X68765000Y-73255000D01*
X78735943Y-75386000D02*
X76604943Y-73255000D01*
X86114000Y-75386000D02*
X78735943Y-75386000D01*
%TO.N,IO40*%
X76002000Y-69002000D02*
X76911000Y-69911000D01*
X77651000Y-71651000D02*
X79689000Y-71651000D01*
X76911000Y-69911000D02*
X76911000Y-70911000D01*
X54500000Y-69821007D02*
X54500000Y-69067100D01*
X76911000Y-70911000D02*
X77651000Y-71651000D01*
X54500000Y-69067100D02*
X54565100Y-69002000D01*
X79689000Y-71651000D02*
X80840000Y-70500000D01*
X54565100Y-69002000D02*
X76002000Y-69002000D01*
%TO.N,DS*%
X88232632Y-89500000D02*
X82000000Y-89500000D01*
X74500000Y-82000000D02*
X74500000Y-79500000D01*
X82000000Y-89500000D02*
X74500000Y-82000000D01*
%TO.N,RST*%
X74748943Y-78899000D02*
X74500000Y-78899000D01*
X87500000Y-89000000D02*
X82067100Y-89000000D01*
X75101000Y-79748943D02*
X75101000Y-79251057D01*
X74901000Y-81833900D02*
X74901000Y-79948943D01*
X74901000Y-79948943D02*
X75101000Y-79748943D01*
X82067100Y-89000000D02*
X74901000Y-81833900D01*
X74500000Y-78899000D02*
X74500000Y-77500000D01*
X75101000Y-79251057D02*
X74748943Y-78899000D01*
X88250000Y-88250000D02*
X87500000Y-89000000D01*
%TO.N,BL*%
X90715112Y-94601000D02*
X90886905Y-94429207D01*
X73000000Y-82500000D02*
X86000000Y-95500000D01*
X87500000Y-95500000D02*
X88399000Y-94601000D01*
X73000000Y-77500000D02*
X73000000Y-82500000D01*
X86000000Y-95500000D02*
X87500000Y-95500000D01*
%TD*%
%TA.AperFunction,Conductor*%
%TO.N,GND*%
G36*
X41326520Y-91020185D02*
G01*
X41372275Y-91072989D01*
X41382219Y-91142147D01*
X41353194Y-91205703D01*
X41347162Y-91212181D01*
X40425890Y-92133451D01*
X40425884Y-92133458D01*
X40381090Y-92200499D01*
X40381090Y-92200500D01*
X40349223Y-92248191D01*
X40349222Y-92248193D01*
X40296421Y-92375667D01*
X40296418Y-92375677D01*
X40269500Y-92511004D01*
X40269500Y-92511007D01*
X40269500Y-100391006D01*
X40269500Y-100528994D01*
X40269500Y-100528996D01*
X40269499Y-100528996D01*
X40296418Y-100664322D01*
X40296421Y-100664332D01*
X40349222Y-100791807D01*
X40425887Y-100906545D01*
X40425888Y-100906546D01*
X41807163Y-102287819D01*
X41840648Y-102349142D01*
X41835664Y-102418833D01*
X41793793Y-102474767D01*
X41728328Y-102499184D01*
X41719482Y-102499500D01*
X38124500Y-102499500D01*
X38057461Y-102479815D01*
X38011706Y-102427011D01*
X38000500Y-102375500D01*
X38000500Y-91124500D01*
X38020185Y-91057461D01*
X38072989Y-91011706D01*
X38124500Y-91000500D01*
X41259481Y-91000500D01*
X41326520Y-91020185D01*
G37*
%TD.AperFunction*%
%TA.AperFunction,Conductor*%
G36*
X97504043Y-68500765D02*
G01*
X97752895Y-68517075D01*
X97768953Y-68519190D01*
X97961353Y-68557461D01*
X98009535Y-68567045D01*
X98025202Y-68571243D01*
X98182093Y-68624500D01*
X98257481Y-68650091D01*
X98272458Y-68656294D01*
X98385786Y-68712181D01*
X98492460Y-68764787D01*
X98506508Y-68772897D01*
X98710464Y-68909177D01*
X98723328Y-68919048D01*
X98907749Y-69080781D01*
X98919218Y-69092250D01*
X98998587Y-69182753D01*
X99056196Y-69248444D01*
X99080951Y-69276671D01*
X99090825Y-69289539D01*
X99227102Y-69493492D01*
X99235212Y-69507539D01*
X99343702Y-69727534D01*
X99349909Y-69742520D01*
X99428756Y-69974797D01*
X99432954Y-69990464D01*
X99480807Y-70231035D01*
X99482925Y-70247116D01*
X99499235Y-70495956D01*
X99499500Y-70504066D01*
X99499500Y-100495933D01*
X99499235Y-100504043D01*
X99482925Y-100752883D01*
X99480807Y-100768964D01*
X99432954Y-101009535D01*
X99428756Y-101025202D01*
X99349909Y-101257479D01*
X99343702Y-101272465D01*
X99235212Y-101492460D01*
X99227102Y-101506507D01*
X99090825Y-101710460D01*
X99080951Y-101723328D01*
X98919218Y-101907749D01*
X98907749Y-101919218D01*
X98723328Y-102080951D01*
X98710460Y-102090825D01*
X98506507Y-102227102D01*
X98492460Y-102235212D01*
X98272465Y-102343702D01*
X98257479Y-102349909D01*
X98025202Y-102428756D01*
X98009535Y-102432954D01*
X97768964Y-102480807D01*
X97752883Y-102482925D01*
X97504043Y-102499235D01*
X97495933Y-102499500D01*
X68870519Y-102499500D01*
X68803480Y-102479815D01*
X68757725Y-102427011D01*
X68747781Y-102357853D01*
X68776806Y-102294297D01*
X68782838Y-102287819D01*
X70044112Y-101026545D01*
X70044114Y-101026543D01*
X70120775Y-100911811D01*
X70122957Y-100906545D01*
X70156186Y-100826321D01*
X70173580Y-100784328D01*
X70200500Y-100648994D01*
X70200500Y-100511006D01*
X70200500Y-99348336D01*
X93799500Y-99348336D01*
X93799500Y-99651663D01*
X93833457Y-99953048D01*
X93833460Y-99953062D01*
X93900953Y-100248771D01*
X93900957Y-100248783D01*
X94001130Y-100535059D01*
X94001133Y-100535068D01*
X94132733Y-100808338D01*
X94132735Y-100808341D01*
X94294108Y-101065164D01*
X94483221Y-101302304D01*
X94697696Y-101516779D01*
X94934836Y-101705892D01*
X95191659Y-101867265D01*
X95464935Y-101998868D01*
X95679951Y-102074105D01*
X95751216Y-102099042D01*
X95751228Y-102099046D01*
X96046937Y-102166540D01*
X96046946Y-102166541D01*
X96046951Y-102166542D01*
X96247874Y-102189180D01*
X96348337Y-102200499D01*
X96348340Y-102200500D01*
X96348343Y-102200500D01*
X96651660Y-102200500D01*
X96651661Y-102200499D01*
X96805694Y-102183144D01*
X96953048Y-102166542D01*
X96953051Y-102166541D01*
X96953063Y-102166540D01*
X97248772Y-102099046D01*
X97535065Y-101998868D01*
X97808341Y-101867265D01*
X98065164Y-101705892D01*
X98302304Y-101516779D01*
X98516779Y-101302304D01*
X98705892Y-101065164D01*
X98867265Y-100808341D01*
X98998868Y-100535065D01*
X99099046Y-100248772D01*
X99166540Y-99953063D01*
X99200500Y-99651657D01*
X99200500Y-99348343D01*
X99184256Y-99204170D01*
X99166542Y-99046951D01*
X99166541Y-99046946D01*
X99166540Y-99046937D01*
X99099046Y-98751228D01*
X98998868Y-98464935D01*
X98867265Y-98191659D01*
X98705892Y-97934836D01*
X98516779Y-97697696D01*
X98302304Y-97483221D01*
X98065164Y-97294108D01*
X97817056Y-97138211D01*
X97808338Y-97132733D01*
X97535068Y-97001133D01*
X97248783Y-96900957D01*
X97248771Y-96900953D01*
X97020556Y-96848864D01*
X96953063Y-96833460D01*
X96953060Y-96833459D01*
X96953048Y-96833457D01*
X96651663Y-96799500D01*
X96651657Y-96799500D01*
X96348343Y-96799500D01*
X96348336Y-96799500D01*
X96046951Y-96833457D01*
X96046937Y-96833460D01*
X95751228Y-96900953D01*
X95751216Y-96900957D01*
X95464931Y-97001133D01*
X95191661Y-97132733D01*
X94934837Y-97294107D01*
X94697696Y-97483220D01*
X94483220Y-97697696D01*
X94294107Y-97934837D01*
X94132733Y-98191661D01*
X94001133Y-98464931D01*
X93900957Y-98751216D01*
X93900953Y-98751228D01*
X93833460Y-99046937D01*
X93833457Y-99046951D01*
X93799500Y-99348336D01*
X70200500Y-99348336D01*
X70200500Y-92931007D01*
X70200500Y-92931006D01*
X70200500Y-91425316D01*
X70209939Y-91377864D01*
X70246082Y-91290606D01*
X70269737Y-91233497D01*
X70296429Y-91099309D01*
X70328814Y-91037398D01*
X70389529Y-91002824D01*
X70418046Y-90999500D01*
X79081954Y-90999500D01*
X79148993Y-91019185D01*
X79194748Y-91071989D01*
X79203571Y-91099309D01*
X79230261Y-91233489D01*
X79230264Y-91233501D01*
X79290602Y-91379172D01*
X79290609Y-91379185D01*
X79378210Y-91510288D01*
X79378213Y-91510292D01*
X79489707Y-91621786D01*
X79489711Y-91621789D01*
X79620814Y-91709390D01*
X79620827Y-91709397D01*
X79707057Y-91745114D01*
X79766503Y-91769737D01*
X79921153Y-91800499D01*
X79921156Y-91800500D01*
X79921158Y-91800500D01*
X80078844Y-91800500D01*
X80078845Y-91800499D01*
X80233497Y-91769737D01*
X80379179Y-91709394D01*
X80492939Y-91633382D01*
X80559616Y-91612504D01*
X80626996Y-91630988D01*
X80649511Y-91648803D01*
X85351196Y-96350488D01*
X85384681Y-96411811D01*
X85379697Y-96481503D01*
X85366618Y-96507059D01*
X85290608Y-96620816D01*
X85290602Y-96620827D01*
X85230264Y-96766498D01*
X85230261Y-96766510D01*
X85199500Y-96921153D01*
X85199500Y-97078846D01*
X85230261Y-97233489D01*
X85230264Y-97233501D01*
X85290602Y-97379172D01*
X85290609Y-97379185D01*
X85378210Y-97510288D01*
X85378213Y-97510292D01*
X85489707Y-97621786D01*
X85489711Y-97621789D01*
X85620814Y-97709390D01*
X85620827Y-97709397D01*
X85723235Y-97751815D01*
X85766503Y-97769737D01*
X85921153Y-97800499D01*
X85921156Y-97800500D01*
X85921158Y-97800500D01*
X86078844Y-97800500D01*
X86078845Y-97800499D01*
X86233497Y-97769737D01*
X86376420Y-97710537D01*
X86379172Y-97709397D01*
X86379172Y-97709396D01*
X86379179Y-97709394D01*
X86510289Y-97621789D01*
X86621789Y-97510289D01*
X86709394Y-97379179D01*
X86709974Y-97377780D01*
X86742097Y-97300227D01*
X86769737Y-97233497D01*
X86800500Y-97078842D01*
X86800500Y-96921158D01*
X86800500Y-96921155D01*
X86800499Y-96921153D01*
X86796481Y-96900953D01*
X86769737Y-96766503D01*
X86769735Y-96766498D01*
X86709397Y-96620827D01*
X86709390Y-96620814D01*
X86621398Y-96489125D01*
X86615747Y-96471078D01*
X86605523Y-96455169D01*
X86601071Y-96424207D01*
X86600520Y-96422447D01*
X86600500Y-96420234D01*
X86600500Y-96224500D01*
X86620185Y-96157461D01*
X86672989Y-96111706D01*
X86724500Y-96100500D01*
X87413331Y-96100500D01*
X87413347Y-96100501D01*
X87420943Y-96100501D01*
X87579054Y-96100501D01*
X87579057Y-96100501D01*
X87731785Y-96059577D01*
X87781904Y-96030639D01*
X87868716Y-95980520D01*
X87980520Y-95868716D01*
X87980520Y-95868714D01*
X87990728Y-95858507D01*
X87990729Y-95858504D01*
X88413662Y-95435572D01*
X88474983Y-95402089D01*
X88477150Y-95401638D01*
X88552301Y-95386689D01*
X88632497Y-95370737D01*
X88778179Y-95310394D01*
X88909289Y-95222789D01*
X89020789Y-95111289D01*
X89108394Y-94980179D01*
X89168737Y-94834497D01*
X89199500Y-94679842D01*
X89199500Y-94522158D01*
X89199500Y-94522155D01*
X89199499Y-94522153D01*
X89197245Y-94510821D01*
X89168737Y-94367503D01*
X89127610Y-94268213D01*
X89108397Y-94221827D01*
X89108390Y-94221814D01*
X89020789Y-94090711D01*
X89020786Y-94090707D01*
X88909292Y-93979213D01*
X88909288Y-93979210D01*
X88778185Y-93891609D01*
X88778172Y-93891602D01*
X88632501Y-93831264D01*
X88632489Y-93831261D01*
X88477845Y-93800500D01*
X88477842Y-93800500D01*
X88320158Y-93800500D01*
X88320155Y-93800500D01*
X88165510Y-93831261D01*
X88165498Y-93831264D01*
X88019827Y-93891602D01*
X88019814Y-93891609D01*
X87888711Y-93979210D01*
X87888707Y-93979213D01*
X87777213Y-94090707D01*
X87777210Y-94090711D01*
X87689609Y-94221814D01*
X87689602Y-94221827D01*
X87629264Y-94367498D01*
X87629261Y-94367508D01*
X87598361Y-94522850D01*
X87565976Y-94584761D01*
X87564425Y-94586339D01*
X87287584Y-94863181D01*
X87226261Y-94896666D01*
X87199903Y-94899500D01*
X86300097Y-94899500D01*
X86233058Y-94879815D01*
X86212416Y-94863181D01*
X81583861Y-90234626D01*
X81550376Y-90173303D01*
X81555360Y-90103611D01*
X81597232Y-90047678D01*
X81662696Y-90023261D01*
X81730969Y-90038113D01*
X81733533Y-90039552D01*
X81768216Y-90059577D01*
X81920943Y-90100501D01*
X81920945Y-90100501D01*
X82086654Y-90100501D01*
X82086670Y-90100500D01*
X87652866Y-90100500D01*
X87719905Y-90120185D01*
X87721757Y-90121398D01*
X87853446Y-90209390D01*
X87853459Y-90209397D01*
X87999072Y-90269711D01*
X87999135Y-90269737D01*
X88153785Y-90300499D01*
X88153788Y-90300500D01*
X88153790Y-90300500D01*
X88311476Y-90300500D01*
X88311477Y-90300499D01*
X88466129Y-90269737D01*
X88611811Y-90209394D01*
X88742921Y-90121789D01*
X88854421Y-90010289D01*
X88942026Y-89879179D01*
X88946814Y-89867621D01*
X88975575Y-89798184D01*
X89002369Y-89733497D01*
X89033132Y-89578842D01*
X89033132Y-89421158D01*
X89033132Y-89421155D01*
X89033131Y-89421153D01*
X89026882Y-89389737D01*
X89002369Y-89266503D01*
X88945948Y-89130289D01*
X88942029Y-89120827D01*
X88942022Y-89120814D01*
X88854421Y-88989711D01*
X88854418Y-88989707D01*
X88836075Y-88971364D01*
X88802590Y-88910041D01*
X88807574Y-88840349D01*
X88836075Y-88796002D01*
X88871789Y-88760289D01*
X88959394Y-88629179D01*
X89019737Y-88483497D01*
X89050500Y-88328842D01*
X89050500Y-88171158D01*
X89050500Y-88171155D01*
X89050499Y-88171153D01*
X89032997Y-88083167D01*
X89019737Y-88016503D01*
X88998096Y-87964257D01*
X88959397Y-87870827D01*
X88959390Y-87870814D01*
X88871789Y-87739711D01*
X88871786Y-87739707D01*
X88760292Y-87628213D01*
X88760288Y-87628210D01*
X88629185Y-87540609D01*
X88629172Y-87540602D01*
X88483501Y-87480264D01*
X88483489Y-87480261D01*
X88328845Y-87449500D01*
X88328842Y-87449500D01*
X88171158Y-87449500D01*
X88171155Y-87449500D01*
X88016510Y-87480261D01*
X88016498Y-87480264D01*
X87870827Y-87540602D01*
X87870814Y-87540609D01*
X87739711Y-87628210D01*
X87739707Y-87628213D01*
X87628213Y-87739707D01*
X87628210Y-87739711D01*
X87540609Y-87870814D01*
X87540602Y-87870827D01*
X87480264Y-88016498D01*
X87480261Y-88016508D01*
X87449361Y-88171850D01*
X87440595Y-88188607D01*
X87436576Y-88207084D01*
X87417831Y-88232125D01*
X87416976Y-88233761D01*
X87415426Y-88235339D01*
X87287582Y-88363182D01*
X87226262Y-88396666D01*
X87199903Y-88399500D01*
X86390518Y-88399500D01*
X86323479Y-88379815D01*
X86277724Y-88327011D01*
X86267780Y-88257853D01*
X86296805Y-88194297D01*
X86302837Y-88187819D01*
X87163036Y-87327621D01*
X88044114Y-86446543D01*
X88120775Y-86331811D01*
X88121866Y-86329179D01*
X88173579Y-86204330D01*
X88173578Y-86204330D01*
X88173580Y-86204328D01*
X88174796Y-86198215D01*
X88200500Y-86068993D01*
X88200500Y-81925316D01*
X88209939Y-81877864D01*
X88262901Y-81750000D01*
X88269737Y-81733497D01*
X88300500Y-81578842D01*
X88300500Y-81421158D01*
X88300500Y-81421155D01*
X88300499Y-81421153D01*
X88269738Y-81266510D01*
X88269737Y-81266503D01*
X88246661Y-81210792D01*
X88209397Y-81120827D01*
X88209390Y-81120814D01*
X88121789Y-80989711D01*
X88121786Y-80989707D01*
X88010292Y-80878213D01*
X88010288Y-80878210D01*
X87879185Y-80790609D01*
X87879172Y-80790602D01*
X87733501Y-80730264D01*
X87733489Y-80730261D01*
X87578845Y-80699500D01*
X87578842Y-80699500D01*
X87421158Y-80699500D01*
X87421155Y-80699500D01*
X87266510Y-80730261D01*
X87266498Y-80730264D01*
X87120827Y-80790602D01*
X87120814Y-80790609D01*
X86989711Y-80878210D01*
X86989707Y-80878213D01*
X86878213Y-80989707D01*
X86878210Y-80989711D01*
X86790609Y-81120814D01*
X86790602Y-81120827D01*
X86730264Y-81266498D01*
X86730261Y-81266510D01*
X86699500Y-81421153D01*
X86699500Y-81578846D01*
X86730261Y-81733489D01*
X86730264Y-81733501D01*
X86790061Y-81877864D01*
X86799500Y-81925316D01*
X86799500Y-85658480D01*
X86779815Y-85725519D01*
X86763181Y-85746161D01*
X85305412Y-87203929D01*
X85265184Y-87230809D01*
X85120823Y-87290604D01*
X85120814Y-87290609D01*
X84989711Y-87378210D01*
X84989707Y-87378213D01*
X84878213Y-87489707D01*
X84878210Y-87489711D01*
X84790609Y-87620814D01*
X84790602Y-87620827D01*
X84730264Y-87766498D01*
X84730261Y-87766510D01*
X84699500Y-87921153D01*
X84699500Y-88078846D01*
X84730261Y-88233489D01*
X84732031Y-88239324D01*
X84729279Y-88240158D01*
X84735503Y-88297359D01*
X84704309Y-88359878D01*
X84644266Y-88395608D01*
X84613445Y-88399500D01*
X82367197Y-88399500D01*
X82300158Y-88379815D01*
X82279516Y-88363181D01*
X75537819Y-81621484D01*
X75504334Y-81560161D01*
X75501500Y-81533803D01*
X75501500Y-80249041D01*
X75521185Y-80182002D01*
X75537820Y-80161359D01*
X75581517Y-80117662D01*
X75581517Y-80117661D01*
X75581520Y-80117659D01*
X75660577Y-79980727D01*
X75701501Y-79828000D01*
X75701501Y-79669885D01*
X75701501Y-79662290D01*
X75701500Y-79662272D01*
X75701500Y-79340117D01*
X75701501Y-79340104D01*
X75701501Y-79172002D01*
X75701501Y-79172000D01*
X75677632Y-79082920D01*
X89536405Y-79082920D01*
X89536405Y-79295494D01*
X89569659Y-79505450D01*
X89625367Y-79676902D01*
X89635349Y-79707621D01*
X89731856Y-79897027D01*
X89856795Y-80068993D01*
X90007118Y-80219316D01*
X90179087Y-80344257D01*
X90187851Y-80348723D01*
X90238647Y-80396698D01*
X90255441Y-80464519D01*
X90232903Y-80530654D01*
X90187851Y-80569691D01*
X90179087Y-80574156D01*
X90007118Y-80699097D01*
X89856795Y-80849420D01*
X89731856Y-81021386D01*
X89635349Y-81210792D01*
X89569658Y-81412967D01*
X89536405Y-81622920D01*
X89536405Y-81835493D01*
X89550631Y-81925316D01*
X89569659Y-82045450D01*
X89635346Y-82247614D01*
X89635349Y-82247621D01*
X89731856Y-82437027D01*
X89856795Y-82608993D01*
X90007118Y-82759316D01*
X90179087Y-82884257D01*
X90187851Y-82888723D01*
X90238647Y-82936698D01*
X90255441Y-83004519D01*
X90232903Y-83070654D01*
X90187851Y-83109691D01*
X90179087Y-83114156D01*
X90007118Y-83239097D01*
X89856795Y-83389420D01*
X89731856Y-83561386D01*
X89635349Y-83750792D01*
X89569658Y-83952967D01*
X89536405Y-84162920D01*
X89536405Y-84375493D01*
X89569658Y-84585446D01*
X89635349Y-84787621D01*
X89731856Y-84977027D01*
X89856795Y-85148993D01*
X90007118Y-85299316D01*
X90179087Y-85424257D01*
X90187851Y-85428723D01*
X90238647Y-85476698D01*
X90255441Y-85544519D01*
X90232903Y-85610654D01*
X90187851Y-85649691D01*
X90179087Y-85654156D01*
X90007118Y-85779097D01*
X89856795Y-85929420D01*
X89731856Y-86101386D01*
X89635349Y-86290792D01*
X89635348Y-86290794D01*
X89635348Y-86290795D01*
X89602977Y-86390423D01*
X89569658Y-86492967D01*
X89536405Y-86702920D01*
X89536405Y-86915493D01*
X89560372Y-87066819D01*
X89569659Y-87125450D01*
X89603892Y-87230809D01*
X89635349Y-87327621D01*
X89731856Y-87517027D01*
X89856795Y-87688993D01*
X90007118Y-87839316D01*
X90179087Y-87964257D01*
X90187851Y-87968723D01*
X90238647Y-88016698D01*
X90255441Y-88084519D01*
X90232903Y-88150654D01*
X90187851Y-88189691D01*
X90179087Y-88194156D01*
X90007118Y-88319097D01*
X89856795Y-88469420D01*
X89731856Y-88641386D01*
X89635349Y-88830792D01*
X89569658Y-89032967D01*
X89536405Y-89242920D01*
X89536405Y-89455493D01*
X89566917Y-89648142D01*
X89569659Y-89665450D01*
X89626187Y-89839426D01*
X89635349Y-89867621D01*
X89731856Y-90057027D01*
X89856795Y-90228993D01*
X90007118Y-90379316D01*
X90179087Y-90504257D01*
X90187851Y-90508723D01*
X90238647Y-90556698D01*
X90255441Y-90624519D01*
X90232903Y-90690654D01*
X90187851Y-90729691D01*
X90179087Y-90734156D01*
X90007118Y-90859097D01*
X89856795Y-91009420D01*
X89731856Y-91181386D01*
X89635349Y-91370792D01*
X89569658Y-91572967D01*
X89536405Y-91782920D01*
X89536405Y-91995493D01*
X89568874Y-92200499D01*
X89569659Y-92205450D01*
X89633046Y-92400535D01*
X89635349Y-92407621D01*
X89731856Y-92597027D01*
X89856795Y-92768993D01*
X89970335Y-92882533D01*
X90003820Y-92943856D01*
X89998836Y-93013548D01*
X89956964Y-93069481D01*
X89925988Y-93086396D01*
X89794574Y-93135410D01*
X89794569Y-93135413D01*
X89679360Y-93221659D01*
X89679357Y-93221662D01*
X89593111Y-93336871D01*
X89593107Y-93336878D01*
X89542813Y-93471724D01*
X89536406Y-93531323D01*
X89536406Y-93531330D01*
X89536405Y-93531342D01*
X89536405Y-95327077D01*
X89536406Y-95327083D01*
X89542813Y-95386690D01*
X89593107Y-95521535D01*
X89593111Y-95521542D01*
X89679357Y-95636751D01*
X89679360Y-95636754D01*
X89794569Y-95723000D01*
X89794576Y-95723004D01*
X89929422Y-95773298D01*
X89929421Y-95773298D01*
X89936349Y-95774042D01*
X89989032Y-95779707D01*
X91784777Y-95779706D01*
X91844388Y-95773298D01*
X91979236Y-95723003D01*
X92094451Y-95636753D01*
X92180701Y-95521538D01*
X92230996Y-95386690D01*
X92237405Y-95327080D01*
X92237404Y-93531335D01*
X92230996Y-93471724D01*
X92225877Y-93458000D01*
X92180702Y-93336878D01*
X92180698Y-93336871D01*
X92094452Y-93221662D01*
X92094449Y-93221659D01*
X91979240Y-93135413D01*
X91979233Y-93135409D01*
X91847822Y-93086396D01*
X91791888Y-93044525D01*
X91767471Y-92979060D01*
X91782323Y-92910787D01*
X91803468Y-92882539D01*
X91917009Y-92768999D01*
X92041956Y-92597023D01*
X92138462Y-92407619D01*
X92204151Y-92205450D01*
X92237405Y-91995494D01*
X92237405Y-91782920D01*
X92204151Y-91572964D01*
X92138462Y-91370795D01*
X92041956Y-91181391D01*
X92041954Y-91181388D01*
X92041953Y-91181386D01*
X91917014Y-91009420D01*
X91766691Y-90859097D01*
X91594725Y-90734158D01*
X91593412Y-90733489D01*
X91585959Y-90729692D01*
X91535164Y-90681719D01*
X91518368Y-90613899D01*
X91540904Y-90547763D01*
X91585959Y-90508722D01*
X91594721Y-90504258D01*
X91699667Y-90428011D01*
X91766691Y-90379316D01*
X91766693Y-90379313D01*
X91766697Y-90379311D01*
X91917009Y-90228999D01*
X91917011Y-90228995D01*
X91917014Y-90228993D01*
X92041953Y-90057027D01*
X92041952Y-90057027D01*
X92041956Y-90057023D01*
X92138462Y-89867619D01*
X92204151Y-89665450D01*
X92237405Y-89455494D01*
X92237405Y-89242920D01*
X92204151Y-89032964D01*
X92138462Y-88830795D01*
X92041956Y-88641391D01*
X92041954Y-88641388D01*
X92041953Y-88641386D01*
X91917014Y-88469420D01*
X91766691Y-88319097D01*
X91594725Y-88194158D01*
X91594020Y-88193798D01*
X91585959Y-88189692D01*
X91535164Y-88141719D01*
X91518368Y-88073899D01*
X91540904Y-88007763D01*
X91585959Y-87968722D01*
X91594721Y-87964258D01*
X91632192Y-87937034D01*
X91766691Y-87839316D01*
X91766693Y-87839313D01*
X91766697Y-87839311D01*
X91917009Y-87688999D01*
X91917011Y-87688995D01*
X91917014Y-87688993D01*
X92041953Y-87517027D01*
X92041952Y-87517027D01*
X92041956Y-87517023D01*
X92138462Y-87327619D01*
X92204151Y-87125450D01*
X92237405Y-86915494D01*
X92237405Y-86702920D01*
X92204151Y-86492964D01*
X92138462Y-86290795D01*
X92041956Y-86101391D01*
X92041954Y-86101388D01*
X92041953Y-86101386D01*
X91917014Y-85929420D01*
X91766691Y-85779097D01*
X91594725Y-85654158D01*
X91594020Y-85653798D01*
X91585959Y-85649692D01*
X91535164Y-85601719D01*
X91518368Y-85533899D01*
X91540904Y-85467763D01*
X91585959Y-85428722D01*
X91594721Y-85424258D01*
X91726917Y-85328213D01*
X91766691Y-85299316D01*
X91766693Y-85299313D01*
X91766697Y-85299311D01*
X91917009Y-85148999D01*
X91917011Y-85148995D01*
X91917014Y-85148993D01*
X92041953Y-84977027D01*
X92041952Y-84977027D01*
X92041956Y-84977023D01*
X92138462Y-84787619D01*
X92204151Y-84585450D01*
X92237405Y-84375494D01*
X92237405Y-84162920D01*
X92204151Y-83952964D01*
X92138462Y-83750795D01*
X92041956Y-83561391D01*
X92041954Y-83561388D01*
X92041953Y-83561386D01*
X91917014Y-83389420D01*
X91766691Y-83239097D01*
X91594725Y-83114158D01*
X91594020Y-83113798D01*
X91585959Y-83109692D01*
X91535164Y-83061719D01*
X91518368Y-82993899D01*
X91540904Y-82927763D01*
X91585959Y-82888722D01*
X91594721Y-82884258D01*
X91618259Y-82867157D01*
X91766691Y-82759316D01*
X91766693Y-82759313D01*
X91766697Y-82759311D01*
X91917009Y-82608999D01*
X91917011Y-82608995D01*
X91917014Y-82608993D01*
X92032371Y-82450216D01*
X92041956Y-82437023D01*
X92138462Y-82247619D01*
X92204151Y-82045450D01*
X92237405Y-81835494D01*
X92237405Y-81622920D01*
X92204151Y-81412964D01*
X92138462Y-81210795D01*
X92041956Y-81021391D01*
X92041954Y-81021388D01*
X92041953Y-81021386D01*
X91917014Y-80849420D01*
X91766691Y-80699097D01*
X91594725Y-80574158D01*
X91594020Y-80573798D01*
X91585959Y-80569692D01*
X91535164Y-80521719D01*
X91518368Y-80453899D01*
X91540904Y-80387763D01*
X91585959Y-80348722D01*
X91594721Y-80344258D01*
X91624889Y-80322340D01*
X91766691Y-80219316D01*
X91766693Y-80219313D01*
X91766697Y-80219311D01*
X91917009Y-80068999D01*
X91917011Y-80068995D01*
X91917014Y-80068993D01*
X92041953Y-79897027D01*
X92041952Y-79897027D01*
X92041956Y-79897023D01*
X92138462Y-79707619D01*
X92204151Y-79505450D01*
X92237405Y-79295494D01*
X92237405Y-79082920D01*
X92204151Y-78872964D01*
X92138462Y-78670795D01*
X92041956Y-78481391D01*
X92041954Y-78481388D01*
X92041953Y-78481386D01*
X91917014Y-78309420D01*
X91766691Y-78159097D01*
X91594722Y-78034156D01*
X91585409Y-78029411D01*
X91534612Y-77981437D01*
X91517817Y-77913616D01*
X91540354Y-77847481D01*
X91585412Y-77808439D01*
X91594460Y-77803829D01*
X91648621Y-77764477D01*
X91648622Y-77764477D01*
X91016313Y-77132169D01*
X91079898Y-77115132D01*
X91193912Y-77049306D01*
X91287004Y-76956214D01*
X91352830Y-76842200D01*
X91369867Y-76778615D01*
X92002175Y-77410924D01*
X92002175Y-77410923D01*
X92041527Y-77356761D01*
X92138000Y-77167424D01*
X92203662Y-76965337D01*
X92203662Y-76965334D01*
X92236905Y-76755453D01*
X92236905Y-76542960D01*
X92203662Y-76333079D01*
X92203662Y-76333076D01*
X92138000Y-76130989D01*
X92041529Y-75941656D01*
X92002175Y-75887489D01*
X92002174Y-75887489D01*
X91369867Y-76519797D01*
X91352830Y-76456214D01*
X91287004Y-76342200D01*
X91193912Y-76249108D01*
X91079898Y-76183282D01*
X91016314Y-76166244D01*
X91648621Y-75533935D01*
X91594455Y-75494582D01*
X91405122Y-75398111D01*
X91203034Y-75332449D01*
X90993151Y-75299207D01*
X90780659Y-75299207D01*
X90570777Y-75332449D01*
X90570774Y-75332449D01*
X90368687Y-75398111D01*
X90179344Y-75494587D01*
X90125187Y-75533934D01*
X90125187Y-75533935D01*
X90757496Y-76166244D01*
X90693912Y-76183282D01*
X90579898Y-76249108D01*
X90486806Y-76342200D01*
X90420980Y-76456214D01*
X90403942Y-76519798D01*
X89771633Y-75887489D01*
X89771632Y-75887489D01*
X89732285Y-75941646D01*
X89635809Y-76130989D01*
X89570147Y-76333076D01*
X89570147Y-76333079D01*
X89536905Y-76542960D01*
X89536905Y-76755453D01*
X89570147Y-76965334D01*
X89570147Y-76965337D01*
X89635809Y-77167424D01*
X89732280Y-77356757D01*
X89771633Y-77410923D01*
X90403942Y-76778615D01*
X90420980Y-76842200D01*
X90486806Y-76956214D01*
X90579898Y-77049306D01*
X90693912Y-77115132D01*
X90757495Y-77132169D01*
X90125187Y-77764476D01*
X90125187Y-77764477D01*
X90179357Y-77803833D01*
X90179356Y-77803833D01*
X90188400Y-77808441D01*
X90239197Y-77856415D01*
X90255992Y-77924236D01*
X90233455Y-77990371D01*
X90188404Y-78029409D01*
X90179087Y-78034156D01*
X90007118Y-78159097D01*
X89856795Y-78309420D01*
X89731856Y-78481386D01*
X89635349Y-78670792D01*
X89569658Y-78872967D01*
X89562172Y-78920234D01*
X89536405Y-79082920D01*
X75677632Y-79082920D01*
X75660577Y-79019272D01*
X75581520Y-78882341D01*
X75229464Y-78530285D01*
X75229463Y-78530284D01*
X75136818Y-78437639D01*
X75103334Y-78376315D01*
X75100500Y-78349958D01*
X75100500Y-78079765D01*
X75120185Y-78012726D01*
X75121398Y-78010874D01*
X75162505Y-77949354D01*
X75209394Y-77879179D01*
X75269737Y-77733497D01*
X75300500Y-77578842D01*
X75300500Y-77421158D01*
X75300500Y-77421155D01*
X75300499Y-77421153D01*
X75297577Y-77406463D01*
X75269737Y-77266503D01*
X75250000Y-77218853D01*
X75209397Y-77120827D01*
X75209390Y-77120814D01*
X75121789Y-76989711D01*
X75121786Y-76989707D01*
X75010292Y-76878213D01*
X75010288Y-76878210D01*
X74879185Y-76790609D01*
X74879172Y-76790602D01*
X74733501Y-76730264D01*
X74733489Y-76730261D01*
X74578845Y-76699500D01*
X74578842Y-76699500D01*
X74421158Y-76699500D01*
X74421155Y-76699500D01*
X74266510Y-76730261D01*
X74266498Y-76730264D01*
X74120827Y-76790602D01*
X74120814Y-76790609D01*
X73989711Y-76878210D01*
X73989707Y-76878213D01*
X73878213Y-76989707D01*
X73853102Y-77027289D01*
X73830733Y-77045981D01*
X73810286Y-77066756D01*
X73804242Y-77068120D01*
X73799489Y-77072093D01*
X73770569Y-77075725D01*
X73742133Y-77082147D01*
X73736311Y-77080027D01*
X73730164Y-77080800D01*
X73703869Y-77068219D01*
X73676477Y-77058249D01*
X73670959Y-77052473D01*
X73667137Y-77050645D01*
X73651324Y-77033490D01*
X73649005Y-77030443D01*
X73621789Y-76989711D01*
X73605967Y-76973889D01*
X73600892Y-76967220D01*
X73591293Y-76942093D01*
X73578402Y-76918485D01*
X73579012Y-76909946D01*
X73575958Y-76901951D01*
X73581467Y-76875624D01*
X73583386Y-76848793D01*
X73588866Y-76840265D01*
X73590269Y-76833563D01*
X73598639Y-76825059D01*
X73611885Y-76804448D01*
X74179506Y-76236828D01*
X74179511Y-76236824D01*
X74189714Y-76226620D01*
X74189716Y-76226620D01*
X74301520Y-76114816D01*
X74380577Y-75977884D01*
X74413111Y-75856465D01*
X74421500Y-75825158D01*
X74421500Y-75667043D01*
X74421500Y-75120117D01*
X74421501Y-75120104D01*
X74421501Y-74952002D01*
X74421501Y-74952000D01*
X74380577Y-74799272D01*
X74301520Y-74662341D01*
X73949464Y-74310285D01*
X73949463Y-74310284D01*
X73837659Y-74198480D01*
X73782340Y-74166542D01*
X73758729Y-74152910D01*
X73758725Y-74152908D01*
X73750847Y-74148360D01*
X73700728Y-74119423D01*
X73618618Y-74097421D01*
X73611969Y-74094788D01*
X73589842Y-74077519D01*
X73565874Y-74062910D01*
X73562669Y-74056312D01*
X73556888Y-74051801D01*
X73547608Y-74025309D01*
X73535345Y-74000063D01*
X73536215Y-73992782D01*
X73533791Y-73985860D01*
X73540308Y-73958553D01*
X73543640Y-73930687D01*
X73548308Y-73925032D01*
X73550011Y-73917899D01*
X73570253Y-73898453D01*
X73588125Y-73876809D01*
X73595110Y-73874575D01*
X73600399Y-73869496D01*
X73627937Y-73864082D01*
X73654677Y-73855535D01*
X73657628Y-73855500D01*
X76304846Y-73855500D01*
X76371885Y-73875185D01*
X76392527Y-73891819D01*
X78251082Y-75750374D01*
X78251092Y-75750385D01*
X78255422Y-75754715D01*
X78255423Y-75754716D01*
X78367227Y-75866520D01*
X78367229Y-75866521D01*
X78367233Y-75866524D01*
X78434740Y-75905499D01*
X78434744Y-75905500D01*
X78434745Y-75905501D01*
X78448870Y-75913656D01*
X78504155Y-75945576D01*
X78504157Y-75945576D01*
X78504158Y-75945577D01*
X78656886Y-75986500D01*
X78985500Y-75986500D01*
X79052539Y-76006185D01*
X79098294Y-76058989D01*
X79109500Y-76110500D01*
X79109500Y-77672870D01*
X79109501Y-77672876D01*
X79115908Y-77732483D01*
X79166202Y-77867328D01*
X79166206Y-77867335D01*
X79252452Y-77982544D01*
X79252455Y-77982547D01*
X79367664Y-78068793D01*
X79367671Y-78068797D01*
X79502517Y-78119091D01*
X79502516Y-78119091D01*
X79509444Y-78119835D01*
X79562127Y-78125500D01*
X81357872Y-78125499D01*
X81417483Y-78119091D01*
X81552331Y-78068796D01*
X81667546Y-77982546D01*
X81753796Y-77867331D01*
X81802810Y-77735916D01*
X81844681Y-77679984D01*
X81910145Y-77655566D01*
X81978418Y-77670417D01*
X82006673Y-77691569D01*
X82120213Y-77805109D01*
X82292179Y-77930048D01*
X82292181Y-77930049D01*
X82292184Y-77930051D01*
X82481588Y-78026557D01*
X82683757Y-78092246D01*
X82893713Y-78125500D01*
X82893714Y-78125500D01*
X83106286Y-78125500D01*
X83106287Y-78125500D01*
X83316243Y-78092246D01*
X83518412Y-78026557D01*
X83707816Y-77930051D01*
X83777836Y-77879179D01*
X83879786Y-77805109D01*
X83879788Y-77805106D01*
X83879792Y-77805104D01*
X84030104Y-77654792D01*
X84030106Y-77654788D01*
X84030109Y-77654786D01*
X84155048Y-77482820D01*
X84155047Y-77482820D01*
X84155051Y-77482816D01*
X84159514Y-77474054D01*
X84207488Y-77423259D01*
X84275308Y-77406463D01*
X84341444Y-77428999D01*
X84380486Y-77474056D01*
X84384951Y-77482820D01*
X84509890Y-77654786D01*
X84660213Y-77805109D01*
X84832179Y-77930048D01*
X84832181Y-77930049D01*
X84832184Y-77930051D01*
X85021588Y-78026557D01*
X85223757Y-78092246D01*
X85433713Y-78125500D01*
X85433714Y-78125500D01*
X85646286Y-78125500D01*
X85646287Y-78125500D01*
X85856243Y-78092246D01*
X86058412Y-78026557D01*
X86247816Y-77930051D01*
X86317836Y-77879179D01*
X86419786Y-77805109D01*
X86419788Y-77805106D01*
X86419792Y-77805104D01*
X86570104Y-77654792D01*
X86570106Y-77654788D01*
X86570109Y-77654786D01*
X86695048Y-77482820D01*
X86695047Y-77482820D01*
X86695051Y-77482816D01*
X86791557Y-77293412D01*
X86857246Y-77091243D01*
X86890500Y-76881287D01*
X86890500Y-76668713D01*
X86857246Y-76458757D01*
X86791557Y-76256588D01*
X86695051Y-76067184D01*
X86636431Y-75986500D01*
X86583508Y-75913656D01*
X86572049Y-75881540D01*
X86560143Y-75849631D01*
X86560340Y-75848724D01*
X86560028Y-75847850D01*
X86567745Y-75814661D01*
X86574987Y-75781357D01*
X86575718Y-75780380D01*
X86575854Y-75779796D01*
X86596135Y-75753100D01*
X86600428Y-75748805D01*
X90515478Y-71833755D01*
X90576799Y-71800272D01*
X90641473Y-71803506D01*
X90683757Y-71817246D01*
X90893713Y-71850500D01*
X90893714Y-71850500D01*
X91106286Y-71850500D01*
X91106287Y-71850500D01*
X91316243Y-71817246D01*
X91518412Y-71751557D01*
X91707816Y-71655051D01*
X91760441Y-71616817D01*
X91879786Y-71530109D01*
X91879788Y-71530106D01*
X91879792Y-71530104D01*
X92030104Y-71379792D01*
X92030106Y-71379788D01*
X92030109Y-71379786D01*
X92052959Y-71348336D01*
X93799500Y-71348336D01*
X93799500Y-71651663D01*
X93833457Y-71953048D01*
X93833460Y-71953062D01*
X93900953Y-72248771D01*
X93900957Y-72248783D01*
X94001133Y-72535068D01*
X94132733Y-72808338D01*
X94178076Y-72880500D01*
X94294108Y-73065164D01*
X94411610Y-73212507D01*
X94473894Y-73290609D01*
X94483221Y-73302304D01*
X94697696Y-73516779D01*
X94934836Y-73705892D01*
X95191659Y-73867265D01*
X95464935Y-73998868D01*
X95629101Y-74056312D01*
X95751216Y-74099042D01*
X95751228Y-74099046D01*
X96046937Y-74166540D01*
X96046946Y-74166541D01*
X96046951Y-74166542D01*
X96247874Y-74189180D01*
X96348337Y-74200499D01*
X96348340Y-74200500D01*
X96348343Y-74200500D01*
X96651660Y-74200500D01*
X96651661Y-74200499D01*
X96805694Y-74183144D01*
X96953048Y-74166542D01*
X96953051Y-74166541D01*
X96953063Y-74166540D01*
X97248772Y-74099046D01*
X97535065Y-73998868D01*
X97808341Y-73867265D01*
X98065164Y-73705892D01*
X98302304Y-73516779D01*
X98516779Y-73302304D01*
X98705892Y-73065164D01*
X98867265Y-72808341D01*
X98998868Y-72535065D01*
X99099046Y-72248772D01*
X99166540Y-71953063D01*
X99169929Y-71922989D01*
X99194960Y-71700827D01*
X99200500Y-71651657D01*
X99200500Y-71348343D01*
X99180298Y-71169043D01*
X99166542Y-71046951D01*
X99166541Y-71046946D01*
X99166540Y-71046937D01*
X99099046Y-70751228D01*
X99091710Y-70730264D01*
X99074105Y-70679951D01*
X98998868Y-70464935D01*
X98867265Y-70191659D01*
X98705892Y-69934836D01*
X98516779Y-69697696D01*
X98302304Y-69483221D01*
X98285587Y-69469890D01*
X98242078Y-69435193D01*
X98065164Y-69294108D01*
X97808341Y-69132735D01*
X97808338Y-69132733D01*
X97535068Y-69001133D01*
X97248783Y-68900957D01*
X97248771Y-68900953D01*
X97020556Y-68848864D01*
X96953063Y-68833460D01*
X96953060Y-68833459D01*
X96953048Y-68833457D01*
X96651663Y-68799500D01*
X96651657Y-68799500D01*
X96348343Y-68799500D01*
X96348336Y-68799500D01*
X96046951Y-68833457D01*
X96046937Y-68833460D01*
X95751228Y-68900953D01*
X95751216Y-68900957D01*
X95464931Y-69001133D01*
X95191661Y-69132733D01*
X94934837Y-69294107D01*
X94697696Y-69483220D01*
X94483220Y-69697696D01*
X94294107Y-69934837D01*
X94132733Y-70191661D01*
X94001133Y-70464931D01*
X93900957Y-70751216D01*
X93900953Y-70751228D01*
X93833460Y-71046937D01*
X93833457Y-71046951D01*
X93799500Y-71348336D01*
X92052959Y-71348336D01*
X92108435Y-71271979D01*
X92155048Y-71207820D01*
X92155047Y-71207820D01*
X92155051Y-71207816D01*
X92251557Y-71018412D01*
X92317246Y-70816243D01*
X92350500Y-70606287D01*
X92350500Y-70393713D01*
X92317246Y-70183757D01*
X92251557Y-69981588D01*
X92155051Y-69792184D01*
X92155049Y-69792181D01*
X92155048Y-69792179D01*
X92030109Y-69620213D01*
X91879786Y-69469890D01*
X91707820Y-69344951D01*
X91518414Y-69248444D01*
X91518413Y-69248443D01*
X91518412Y-69248443D01*
X91316243Y-69182754D01*
X91316241Y-69182753D01*
X91316240Y-69182753D01*
X91154957Y-69157208D01*
X91106287Y-69149500D01*
X90893713Y-69149500D01*
X90845042Y-69157208D01*
X90683760Y-69182753D01*
X90481585Y-69248444D01*
X90292179Y-69344951D01*
X90120213Y-69469890D01*
X89969890Y-69620213D01*
X89844949Y-69792182D01*
X89840484Y-69800946D01*
X89792509Y-69851742D01*
X89724688Y-69868536D01*
X89658553Y-69845998D01*
X89619516Y-69800946D01*
X89615050Y-69792182D01*
X89490109Y-69620213D01*
X89339786Y-69469890D01*
X89167820Y-69344951D01*
X88978414Y-69248444D01*
X88978413Y-69248443D01*
X88978412Y-69248443D01*
X88776243Y-69182754D01*
X88776241Y-69182753D01*
X88776240Y-69182753D01*
X88614957Y-69157208D01*
X88566287Y-69149500D01*
X88353713Y-69149500D01*
X88305042Y-69157208D01*
X88143760Y-69182753D01*
X87941585Y-69248444D01*
X87752179Y-69344951D01*
X87580213Y-69469890D01*
X87429890Y-69620213D01*
X87304949Y-69792182D01*
X87300484Y-69800946D01*
X87252509Y-69851742D01*
X87184688Y-69868536D01*
X87118553Y-69845998D01*
X87079516Y-69800946D01*
X87075050Y-69792182D01*
X86950109Y-69620213D01*
X86799786Y-69469890D01*
X86627820Y-69344951D01*
X86438414Y-69248444D01*
X86438413Y-69248443D01*
X86438412Y-69248443D01*
X86236243Y-69182754D01*
X86236241Y-69182753D01*
X86236240Y-69182753D01*
X86074957Y-69157208D01*
X86026287Y-69149500D01*
X85813713Y-69149500D01*
X85765042Y-69157208D01*
X85603760Y-69182753D01*
X85401585Y-69248444D01*
X85212179Y-69344951D01*
X85040213Y-69469890D01*
X84889890Y-69620213D01*
X84764949Y-69792182D01*
X84760484Y-69800946D01*
X84712509Y-69851742D01*
X84644688Y-69868536D01*
X84578553Y-69845998D01*
X84539516Y-69800946D01*
X84535050Y-69792182D01*
X84410109Y-69620213D01*
X84259786Y-69469890D01*
X84087820Y-69344951D01*
X83898414Y-69248444D01*
X83898413Y-69248443D01*
X83898412Y-69248443D01*
X83696243Y-69182754D01*
X83696241Y-69182753D01*
X83696240Y-69182753D01*
X83534957Y-69157208D01*
X83486287Y-69149500D01*
X83273713Y-69149500D01*
X83225042Y-69157208D01*
X83063760Y-69182753D01*
X82861585Y-69248444D01*
X82672179Y-69344951D01*
X82500213Y-69469890D01*
X82349890Y-69620213D01*
X82224949Y-69792182D01*
X82220484Y-69800946D01*
X82172509Y-69851742D01*
X82104688Y-69868536D01*
X82038553Y-69845998D01*
X81999516Y-69800946D01*
X81995050Y-69792182D01*
X81870109Y-69620213D01*
X81719786Y-69469890D01*
X81547820Y-69344951D01*
X81358414Y-69248444D01*
X81358413Y-69248443D01*
X81358412Y-69248443D01*
X81156243Y-69182754D01*
X81156241Y-69182753D01*
X81156240Y-69182753D01*
X80994957Y-69157208D01*
X80946287Y-69149500D01*
X80733713Y-69149500D01*
X80685042Y-69157208D01*
X80523760Y-69182753D01*
X80321585Y-69248444D01*
X80132179Y-69344951D01*
X79960213Y-69469890D01*
X79809890Y-69620213D01*
X79684949Y-69792182D01*
X79680484Y-69800946D01*
X79632509Y-69851742D01*
X79564688Y-69868536D01*
X79498553Y-69845998D01*
X79459516Y-69800946D01*
X79455050Y-69792182D01*
X79330109Y-69620213D01*
X79179786Y-69469890D01*
X79007820Y-69344951D01*
X78818414Y-69248444D01*
X78818413Y-69248443D01*
X78818412Y-69248443D01*
X78616243Y-69182754D01*
X78616241Y-69182753D01*
X78616240Y-69182753D01*
X78454957Y-69157208D01*
X78406287Y-69149500D01*
X78193713Y-69149500D01*
X78165006Y-69154046D01*
X77983757Y-69182753D01*
X77941473Y-69196492D01*
X77871632Y-69198486D01*
X77815476Y-69166241D01*
X77361416Y-68712181D01*
X77327931Y-68650858D01*
X77332915Y-68581166D01*
X77374787Y-68525233D01*
X77440251Y-68500816D01*
X77449097Y-68500500D01*
X97434108Y-68500500D01*
X97495933Y-68500500D01*
X97504043Y-68500765D01*
G37*
%TD.AperFunction*%
%TA.AperFunction,Conductor*%
G36*
X72636361Y-83674433D02*
G01*
X72666141Y-83677994D01*
X72671517Y-83681633D01*
X72675423Y-83682433D01*
X72681586Y-83688447D01*
X72705009Y-83704301D01*
X78587527Y-89586819D01*
X78621012Y-89648142D01*
X78616028Y-89717834D01*
X78574156Y-89773767D01*
X78508692Y-89798184D01*
X78499846Y-89798500D01*
X66507670Y-89798500D01*
X66507654Y-89798499D01*
X66500058Y-89798499D01*
X66341943Y-89798499D01*
X66265579Y-89818961D01*
X66189214Y-89839423D01*
X66189209Y-89839426D01*
X66052290Y-89918475D01*
X66052282Y-89918481D01*
X63415339Y-92555425D01*
X63354016Y-92588910D01*
X63351850Y-92589361D01*
X63196508Y-92620261D01*
X63196498Y-92620264D01*
X63050827Y-92680602D01*
X63050814Y-92680609D01*
X62919711Y-92768210D01*
X62919707Y-92768213D01*
X62808213Y-92879707D01*
X62808210Y-92879711D01*
X62720609Y-93010814D01*
X62720602Y-93010827D01*
X62660264Y-93156498D01*
X62660261Y-93156510D01*
X62629500Y-93311153D01*
X62629500Y-93468846D01*
X62660261Y-93623489D01*
X62660264Y-93623501D01*
X62720602Y-93769172D01*
X62720609Y-93769185D01*
X62808210Y-93900288D01*
X62808213Y-93900292D01*
X62919707Y-94011786D01*
X62919711Y-94011789D01*
X63050814Y-94099390D01*
X63050827Y-94099397D01*
X63196498Y-94159735D01*
X63196503Y-94159737D01*
X63351153Y-94190499D01*
X63351156Y-94190500D01*
X63351158Y-94190500D01*
X63508844Y-94190500D01*
X63508845Y-94190499D01*
X63663497Y-94159737D01*
X63809179Y-94099394D01*
X63940289Y-94011789D01*
X64051789Y-93900289D01*
X64139394Y-93769179D01*
X64199737Y-93623497D01*
X64229927Y-93471723D01*
X64230638Y-93468150D01*
X64263023Y-93406239D01*
X64264517Y-93404717D01*
X66633417Y-91035819D01*
X66694740Y-91002334D01*
X66721098Y-90999500D01*
X68581954Y-90999500D01*
X68648993Y-91019185D01*
X68694748Y-91071989D01*
X68703571Y-91099309D01*
X68730261Y-91233489D01*
X68730264Y-91233501D01*
X68790061Y-91377864D01*
X68799500Y-91425316D01*
X68799500Y-92658481D01*
X68779815Y-92725520D01*
X68763181Y-92746162D01*
X67805414Y-93703928D01*
X67765186Y-93730808D01*
X67620823Y-93790604D01*
X67620814Y-93790609D01*
X67489711Y-93878210D01*
X67489707Y-93878213D01*
X67378213Y-93989707D01*
X67378210Y-93989711D01*
X67290609Y-94120814D01*
X67290602Y-94120827D01*
X67230264Y-94266498D01*
X67230261Y-94266510D01*
X67199500Y-94421153D01*
X67199500Y-94578846D01*
X67230261Y-94733489D01*
X67230264Y-94733501D01*
X67290602Y-94879172D01*
X67290609Y-94879185D01*
X67378210Y-95010288D01*
X67378213Y-95010292D01*
X67489707Y-95121786D01*
X67489711Y-95121789D01*
X67620814Y-95209390D01*
X67620827Y-95209397D01*
X67720241Y-95250575D01*
X67766503Y-95269737D01*
X67890160Y-95294334D01*
X67921153Y-95300499D01*
X67921156Y-95300500D01*
X67921158Y-95300500D01*
X68078844Y-95300500D01*
X68078845Y-95300499D01*
X68233497Y-95269737D01*
X68373409Y-95211784D01*
X68379172Y-95209397D01*
X68379172Y-95209396D01*
X68379179Y-95209394D01*
X68510289Y-95121789D01*
X68520790Y-95111288D01*
X68587819Y-95044260D01*
X68649142Y-95010775D01*
X68718834Y-95015759D01*
X68774767Y-95057631D01*
X68799184Y-95123095D01*
X68799500Y-95131941D01*
X68799500Y-100238481D01*
X68779815Y-100305520D01*
X68763181Y-100326162D01*
X67527163Y-101562180D01*
X67465840Y-101595665D01*
X67439482Y-101598499D01*
X60304500Y-101598499D01*
X60237461Y-101578814D01*
X60191706Y-101526010D01*
X60180500Y-101474499D01*
X60180500Y-101361155D01*
X60180499Y-101361153D01*
X60168793Y-101302303D01*
X60149737Y-101206503D01*
X60109478Y-101109308D01*
X60089395Y-101060822D01*
X60089393Y-101060818D01*
X60081398Y-101048853D01*
X60075747Y-101030808D01*
X60065523Y-101014898D01*
X60061071Y-100983936D01*
X60060520Y-100982176D01*
X60060500Y-100979963D01*
X60060500Y-100961518D01*
X60080185Y-100894479D01*
X60096814Y-100873842D01*
X66014586Y-94956069D01*
X66054810Y-94929192D01*
X66133338Y-94896666D01*
X66199173Y-94869397D01*
X66199176Y-94869395D01*
X66199179Y-94869394D01*
X66330289Y-94781789D01*
X66441789Y-94670289D01*
X66529394Y-94539179D01*
X66589737Y-94393497D01*
X66620500Y-94238842D01*
X66620500Y-94081158D01*
X66620500Y-94081155D01*
X66620499Y-94081153D01*
X66607939Y-94018011D01*
X66589737Y-93926503D01*
X66578879Y-93900289D01*
X66529397Y-93780827D01*
X66529390Y-93780814D01*
X66441789Y-93649711D01*
X66441786Y-93649707D01*
X66330292Y-93538213D01*
X66330288Y-93538210D01*
X66199185Y-93450609D01*
X66199172Y-93450602D01*
X66053501Y-93390264D01*
X66053489Y-93390261D01*
X65898845Y-93359500D01*
X65898842Y-93359500D01*
X65741158Y-93359500D01*
X65741155Y-93359500D01*
X65586510Y-93390261D01*
X65586498Y-93390264D01*
X65440827Y-93450602D01*
X65440814Y-93450609D01*
X65309711Y-93538210D01*
X65309707Y-93538213D01*
X65198213Y-93649707D01*
X65198210Y-93649711D01*
X65110609Y-93780814D01*
X65110604Y-93780823D01*
X65050809Y-93925184D01*
X65023929Y-93965412D01*
X58815887Y-100173454D01*
X58739222Y-100288192D01*
X58686421Y-100415667D01*
X58686418Y-100415679D01*
X58670455Y-100495933D01*
X58664183Y-100527466D01*
X58662671Y-100535068D01*
X58659500Y-100551007D01*
X58659500Y-101062969D01*
X58650061Y-101110421D01*
X58610263Y-101206501D01*
X58610260Y-101206511D01*
X58579500Y-101361153D01*
X58579500Y-101474499D01*
X58559815Y-101541538D01*
X58507011Y-101587293D01*
X58455500Y-101598499D01*
X43150517Y-101598499D01*
X43083478Y-101578814D01*
X43062836Y-101562180D01*
X42608519Y-101107863D01*
X42575034Y-101046540D01*
X42580018Y-100976848D01*
X42621890Y-100920915D01*
X42687354Y-100896498D01*
X42696200Y-100896182D01*
X43476785Y-100896182D01*
X43476801Y-100896183D01*
X43484397Y-100896183D01*
X43642508Y-100896183D01*
X43642511Y-100896183D01*
X43795239Y-100855259D01*
X43845358Y-100826321D01*
X43932170Y-100776202D01*
X44043974Y-100664398D01*
X44043975Y-100664395D01*
X44200553Y-100507817D01*
X44261876Y-100474334D01*
X44288233Y-100471500D01*
X57312331Y-100471500D01*
X57312347Y-100471501D01*
X57319943Y-100471501D01*
X57478054Y-100471501D01*
X57478057Y-100471501D01*
X57630785Y-100430577D01*
X57680904Y-100401639D01*
X57767716Y-100351520D01*
X57879520Y-100239716D01*
X57879520Y-100239714D01*
X57889728Y-100229507D01*
X57889729Y-100229504D01*
X59339520Y-98779716D01*
X59418577Y-98642785D01*
X59451656Y-98519332D01*
X59488020Y-98459675D01*
X59539335Y-98431654D01*
X59662784Y-98398577D01*
X59799716Y-98319520D01*
X59911520Y-98207716D01*
X59990577Y-98070784D01*
X60031500Y-97918057D01*
X60031500Y-97759943D01*
X60031500Y-97751815D01*
X60034399Y-97751815D01*
X60042996Y-97696591D01*
X60067499Y-97661734D01*
X62004662Y-95724572D01*
X62065983Y-95691089D01*
X62068150Y-95690638D01*
X62126085Y-95679113D01*
X62223497Y-95659737D01*
X62369179Y-95599394D01*
X62500289Y-95511789D01*
X62611789Y-95400289D01*
X62699394Y-95269179D01*
X62759737Y-95123497D01*
X62790500Y-94968842D01*
X62790500Y-94811158D01*
X62790500Y-94811155D01*
X62790499Y-94811153D01*
X62784658Y-94781789D01*
X62759737Y-94656503D01*
X62759735Y-94656498D01*
X62699397Y-94510827D01*
X62699390Y-94510814D01*
X62611789Y-94379711D01*
X62611786Y-94379707D01*
X62500292Y-94268213D01*
X62500288Y-94268210D01*
X62369185Y-94180609D01*
X62369172Y-94180602D01*
X62223501Y-94120264D01*
X62223489Y-94120261D01*
X62068845Y-94089500D01*
X62068842Y-94089500D01*
X61911158Y-94089500D01*
X61911155Y-94089500D01*
X61756510Y-94120261D01*
X61756498Y-94120264D01*
X61610827Y-94180602D01*
X61610814Y-94180609D01*
X61479711Y-94268210D01*
X61479707Y-94268213D01*
X61368213Y-94379707D01*
X61368210Y-94379711D01*
X61280609Y-94510814D01*
X61280602Y-94510827D01*
X61220264Y-94656498D01*
X61220261Y-94656508D01*
X61189361Y-94811850D01*
X61156976Y-94873761D01*
X61155425Y-94875339D01*
X58730538Y-97300225D01*
X58730537Y-97300227D01*
X58680417Y-97387038D01*
X58651480Y-97437158D01*
X58617578Y-97563677D01*
X58615658Y-97568914D01*
X58603091Y-97585893D01*
X58586924Y-97613896D01*
X58542178Y-97658642D01*
X58490285Y-97710535D01*
X58490284Y-97710536D01*
X58483218Y-97717603D01*
X58483217Y-97717603D01*
X58483214Y-97717605D01*
X58483215Y-97717606D01*
X58378477Y-97822344D01*
X58361691Y-97851421D01*
X58361690Y-97851423D01*
X58299423Y-97959272D01*
X58290251Y-97993501D01*
X58258498Y-98112002D01*
X58257438Y-98120060D01*
X58255870Y-98119853D01*
X58238814Y-98177942D01*
X58222180Y-98198584D01*
X57186584Y-99234181D01*
X57125261Y-99267666D01*
X57098903Y-99270500D01*
X44074805Y-99270500D01*
X44074789Y-99270499D01*
X44067193Y-99270499D01*
X43909079Y-99270499D01*
X43811870Y-99296546D01*
X43742020Y-99294883D01*
X43692096Y-99264453D01*
X43631816Y-99204173D01*
X43631813Y-99204171D01*
X43631812Y-99204170D01*
X43506289Y-99131699D01*
X43506290Y-99131699D01*
X43494807Y-99128622D01*
X43366276Y-99094182D01*
X43265855Y-99094182D01*
X43198816Y-99074497D01*
X43153061Y-99021693D01*
X43144238Y-98994374D01*
X43130738Y-98926508D01*
X43130737Y-98926507D01*
X43130737Y-98926503D01*
X43130735Y-98926498D01*
X43070397Y-98780827D01*
X43070387Y-98780809D01*
X43046891Y-98745644D01*
X43026013Y-98678967D01*
X43044498Y-98611587D01*
X43096477Y-98564897D01*
X43125799Y-98555137D01*
X43253497Y-98529737D01*
X43399179Y-98469394D01*
X43530289Y-98381789D01*
X43641789Y-98270289D01*
X43729394Y-98139179D01*
X43789737Y-97993497D01*
X43820500Y-97838842D01*
X43820500Y-97681158D01*
X43820500Y-97681155D01*
X43820499Y-97681153D01*
X43808690Y-97621786D01*
X43789737Y-97526503D01*
X43771809Y-97483220D01*
X43729397Y-97380827D01*
X43729390Y-97380814D01*
X43641789Y-97249711D01*
X43641786Y-97249707D01*
X43530292Y-97138213D01*
X43530288Y-97138210D01*
X43417609Y-97062919D01*
X43372804Y-97009306D01*
X43362500Y-96959817D01*
X43362500Y-95528097D01*
X43371144Y-95498656D01*
X43377668Y-95468670D01*
X43381422Y-95463654D01*
X43382185Y-95461058D01*
X43398814Y-95440421D01*
X43511418Y-95327817D01*
X43572740Y-95294334D01*
X43599098Y-95291500D01*
X56392274Y-95291500D01*
X56392290Y-95291501D01*
X56399886Y-95291501D01*
X56557997Y-95291501D01*
X56558000Y-95291501D01*
X56710728Y-95250577D01*
X56777919Y-95211784D01*
X56847659Y-95171520D01*
X56959463Y-95059716D01*
X56959463Y-95059714D01*
X56969667Y-95049511D01*
X56969670Y-95049506D01*
X58271520Y-93747659D01*
X58350577Y-93610728D01*
X58391501Y-93458000D01*
X58391501Y-93299885D01*
X58391501Y-93292290D01*
X58391500Y-93292272D01*
X58391500Y-92801999D01*
X58389806Y-92795677D01*
X58388550Y-92790990D01*
X58350577Y-92649272D01*
X58316067Y-92589500D01*
X58316067Y-92589498D01*
X58271524Y-92512347D01*
X58271521Y-92512343D01*
X58271520Y-92512341D01*
X58159716Y-92400537D01*
X58159715Y-92400536D01*
X58155385Y-92396206D01*
X58155374Y-92396196D01*
X57854540Y-92095362D01*
X57854538Y-92095359D01*
X57735667Y-91976488D01*
X57735666Y-91976487D01*
X57648854Y-91926367D01*
X57648854Y-91926366D01*
X57648850Y-91926365D01*
X57598735Y-91897430D01*
X57446007Y-91856506D01*
X57287893Y-91856506D01*
X57280297Y-91856506D01*
X57280281Y-91856507D01*
X56792089Y-91856507D01*
X56725050Y-91836822D01*
X56679295Y-91784018D01*
X56669351Y-91714860D01*
X56698376Y-91651304D01*
X56704408Y-91644826D01*
X57470062Y-90879172D01*
X57987820Y-90361414D01*
X58049142Y-90327930D01*
X58118834Y-90332914D01*
X58174767Y-90374786D01*
X58199184Y-90440250D01*
X58199500Y-90449096D01*
X58199500Y-90578846D01*
X58230261Y-90733489D01*
X58230264Y-90733501D01*
X58290602Y-90879172D01*
X58290609Y-90879185D01*
X58378210Y-91010288D01*
X58378213Y-91010292D01*
X58489707Y-91121786D01*
X58489711Y-91121789D01*
X58620814Y-91209390D01*
X58620827Y-91209397D01*
X58758000Y-91266215D01*
X58766503Y-91269737D01*
X58921153Y-91300499D01*
X58921156Y-91300500D01*
X58921158Y-91300500D01*
X59078844Y-91300500D01*
X59078845Y-91300499D01*
X59233497Y-91269737D01*
X59351592Y-91220821D01*
X59379172Y-91209397D01*
X59379172Y-91209396D01*
X59379179Y-91209394D01*
X59510289Y-91121789D01*
X59621789Y-91010289D01*
X59709394Y-90879179D01*
X59769737Y-90733497D01*
X59800500Y-90578842D01*
X59800500Y-90421158D01*
X59800500Y-90421155D01*
X59800499Y-90421153D01*
X59782947Y-90332914D01*
X59769737Y-90266503D01*
X59756533Y-90234626D01*
X59709397Y-90120827D01*
X59709390Y-90120814D01*
X59621398Y-89989125D01*
X59600520Y-89922447D01*
X59600500Y-89920234D01*
X59600500Y-89367197D01*
X59620185Y-89300158D01*
X59636819Y-89279516D01*
X60528516Y-88387819D01*
X60589839Y-88354334D01*
X60616197Y-88351500D01*
X63250903Y-88351500D01*
X63317942Y-88371185D01*
X63338584Y-88387819D01*
X63803181Y-88852416D01*
X63817884Y-88879343D01*
X63834477Y-88905162D01*
X63835368Y-88911362D01*
X63836666Y-88913739D01*
X63839500Y-88940097D01*
X63839500Y-89010030D01*
X63819815Y-89077069D01*
X63818602Y-89078921D01*
X63790609Y-89120814D01*
X63790602Y-89120827D01*
X63730264Y-89266498D01*
X63730261Y-89266510D01*
X63699500Y-89421153D01*
X63699500Y-89578846D01*
X63730261Y-89733489D01*
X63730264Y-89733501D01*
X63790602Y-89879172D01*
X63790609Y-89879185D01*
X63878210Y-90010288D01*
X63878213Y-90010292D01*
X63989707Y-90121786D01*
X63989711Y-90121789D01*
X64120814Y-90209390D01*
X64120827Y-90209397D01*
X64266440Y-90269711D01*
X64266503Y-90269737D01*
X64421153Y-90300499D01*
X64421156Y-90300500D01*
X64421158Y-90300500D01*
X64578844Y-90300500D01*
X64578845Y-90300499D01*
X64733497Y-90269737D01*
X64879179Y-90209394D01*
X65010289Y-90121789D01*
X65121789Y-90010289D01*
X65209394Y-89879179D01*
X65214182Y-89867621D01*
X65242943Y-89798184D01*
X65269737Y-89733497D01*
X65300500Y-89578842D01*
X65300500Y-89421158D01*
X65300500Y-89421155D01*
X65300499Y-89421153D01*
X65294250Y-89389737D01*
X65269737Y-89266503D01*
X65213316Y-89130289D01*
X65209397Y-89120827D01*
X65209390Y-89120814D01*
X65121789Y-88989711D01*
X65121786Y-88989707D01*
X65076819Y-88944740D01*
X65062115Y-88917812D01*
X65045523Y-88891994D01*
X65044631Y-88885793D01*
X65043334Y-88883417D01*
X65040500Y-88857059D01*
X65040500Y-88729059D01*
X65040501Y-88729046D01*
X65040501Y-88560945D01*
X65040501Y-88560943D01*
X64999577Y-88408215D01*
X64953875Y-88329057D01*
X64920520Y-88271284D01*
X64808716Y-88159480D01*
X64808715Y-88159479D01*
X64804385Y-88155149D01*
X64804374Y-88155139D01*
X64793725Y-88144490D01*
X64760240Y-88083167D01*
X64765224Y-88013475D01*
X64807096Y-87957542D01*
X64849307Y-87937036D01*
X64951785Y-87909577D01*
X65018912Y-87870821D01*
X65088716Y-87830520D01*
X65200520Y-87718716D01*
X65200520Y-87718714D01*
X65210724Y-87708511D01*
X65210727Y-87708506D01*
X65852416Y-87066819D01*
X65913739Y-87033334D01*
X65940097Y-87030500D01*
X69050431Y-87030500D01*
X69050447Y-87030501D01*
X69058043Y-87030501D01*
X69216154Y-87030501D01*
X69216157Y-87030501D01*
X69368885Y-86989577D01*
X69368888Y-86989574D01*
X69373870Y-86988240D01*
X69443719Y-86989903D01*
X69501582Y-87029065D01*
X69529087Y-87093293D01*
X69517501Y-87162195D01*
X69493645Y-87195696D01*
X69155887Y-87533454D01*
X69079222Y-87648192D01*
X69026421Y-87775667D01*
X69026418Y-87775679D01*
X69007494Y-87870819D01*
X69007494Y-87870822D01*
X68999500Y-87911006D01*
X68999500Y-88194684D01*
X68990061Y-88242136D01*
X68930264Y-88386498D01*
X68930261Y-88386510D01*
X68899500Y-88541153D01*
X68899500Y-88698846D01*
X68930261Y-88853489D01*
X68930264Y-88853501D01*
X68990602Y-88999172D01*
X68990609Y-88999185D01*
X69078210Y-89130288D01*
X69078213Y-89130292D01*
X69189707Y-89241786D01*
X69189711Y-89241789D01*
X69320814Y-89329390D01*
X69320827Y-89329397D01*
X69412086Y-89367197D01*
X69466503Y-89389737D01*
X69621153Y-89420499D01*
X69621156Y-89420500D01*
X69621158Y-89420500D01*
X69778844Y-89420500D01*
X69778845Y-89420499D01*
X69933497Y-89389737D01*
X70079179Y-89329394D01*
X70210289Y-89241789D01*
X70321789Y-89130289D01*
X70409394Y-88999179D01*
X70469737Y-88853497D01*
X70500500Y-88698842D01*
X70500500Y-88541158D01*
X70500500Y-88541155D01*
X70500499Y-88541153D01*
X70486229Y-88469415D01*
X70469737Y-88386503D01*
X70447086Y-88331820D01*
X70439618Y-88262353D01*
X70470893Y-88199873D01*
X70473939Y-88196716D01*
X71924586Y-86746069D01*
X71964810Y-86719192D01*
X72019435Y-86696566D01*
X72109173Y-86659397D01*
X72109176Y-86659395D01*
X72109179Y-86659394D01*
X72240289Y-86571789D01*
X72351789Y-86460289D01*
X72439394Y-86329179D01*
X72499737Y-86183497D01*
X72530500Y-86028842D01*
X72530500Y-85871158D01*
X72530500Y-85871155D01*
X72530499Y-85871153D01*
X72505636Y-85746161D01*
X72499737Y-85716503D01*
X72496978Y-85709843D01*
X72439397Y-85570827D01*
X72439390Y-85570814D01*
X72351789Y-85439711D01*
X72351786Y-85439707D01*
X72240292Y-85328213D01*
X72240288Y-85328210D01*
X72109185Y-85240609D01*
X72109172Y-85240602D01*
X71963501Y-85180264D01*
X71963489Y-85180261D01*
X71808845Y-85149500D01*
X71808842Y-85149500D01*
X71651158Y-85149500D01*
X71572322Y-85165181D01*
X71502731Y-85158953D01*
X71447554Y-85116089D01*
X71424310Y-85050199D01*
X71440378Y-84982202D01*
X71460447Y-84955886D01*
X72269713Y-84146621D01*
X72269716Y-84146620D01*
X72381520Y-84034816D01*
X72431639Y-83948004D01*
X72460577Y-83897885D01*
X72498889Y-83754902D01*
X72500626Y-83750068D01*
X72518307Y-83725838D01*
X72533918Y-83700228D01*
X72538687Y-83697911D01*
X72541813Y-83693628D01*
X72569788Y-83682803D01*
X72596765Y-83669699D01*
X72602028Y-83670328D01*
X72606974Y-83668415D01*
X72636361Y-83674433D01*
G37*
%TD.AperFunction*%
%TA.AperFunction,Conductor*%
G36*
X53417942Y-68520185D02*
G01*
X53463697Y-68572989D01*
X53473641Y-68642147D01*
X53444616Y-68705703D01*
X53438589Y-68712175D01*
X53249811Y-68900953D01*
X53131286Y-69019478D01*
X53019481Y-69131282D01*
X52982385Y-69195533D01*
X52962682Y-69221211D01*
X52878208Y-69305687D01*
X52790609Y-69436787D01*
X52790602Y-69436800D01*
X52730264Y-69582471D01*
X52730261Y-69582483D01*
X52699500Y-69737126D01*
X52699500Y-69894819D01*
X52730261Y-70049462D01*
X52730264Y-70049474D01*
X52790602Y-70195145D01*
X52790609Y-70195158D01*
X52878210Y-70326261D01*
X52878213Y-70326265D01*
X52989707Y-70437759D01*
X52989711Y-70437762D01*
X53120814Y-70525363D01*
X53120827Y-70525370D01*
X53266498Y-70585708D01*
X53266503Y-70585710D01*
X53421153Y-70616472D01*
X53421156Y-70616473D01*
X53421158Y-70616473D01*
X53578844Y-70616473D01*
X53578845Y-70616472D01*
X53733497Y-70585710D01*
X53879179Y-70525367D01*
X53927343Y-70493184D01*
X53994018Y-70472306D01*
X54061398Y-70490790D01*
X54065097Y-70493167D01*
X54120821Y-70530401D01*
X54120823Y-70530402D01*
X54120825Y-70530403D01*
X54266027Y-70590547D01*
X54266503Y-70590744D01*
X54395846Y-70616472D01*
X54421153Y-70621506D01*
X54421156Y-70621507D01*
X54421158Y-70621507D01*
X54578844Y-70621507D01*
X54578845Y-70621506D01*
X54733497Y-70590744D01*
X54879179Y-70530401D01*
X55010289Y-70442796D01*
X55121789Y-70331296D01*
X55146964Y-70293617D01*
X55200573Y-70248815D01*
X55269897Y-70240106D01*
X55332926Y-70270260D01*
X55353167Y-70293619D01*
X55378210Y-70331098D01*
X55378213Y-70331102D01*
X55489707Y-70442596D01*
X55489711Y-70442599D01*
X55620814Y-70530200D01*
X55620827Y-70530207D01*
X55754825Y-70585710D01*
X55766503Y-70590547D01*
X55896836Y-70616472D01*
X55921153Y-70621309D01*
X55921156Y-70621310D01*
X55921158Y-70621310D01*
X56078844Y-70621310D01*
X56078845Y-70621309D01*
X56233497Y-70590547D01*
X56378699Y-70530403D01*
X56379172Y-70530207D01*
X56379172Y-70530206D01*
X56379179Y-70530204D01*
X56488549Y-70457124D01*
X56555226Y-70436247D01*
X56622606Y-70454731D01*
X56660542Y-70491336D01*
X56675210Y-70513288D01*
X56675213Y-70513292D01*
X56786707Y-70624786D01*
X56786711Y-70624789D01*
X56917814Y-70712390D01*
X56917827Y-70712397D01*
X57011546Y-70751216D01*
X57063503Y-70772737D01*
X57218153Y-70803499D01*
X57218156Y-70803500D01*
X57218158Y-70803500D01*
X57375844Y-70803500D01*
X57375845Y-70803499D01*
X57530497Y-70772737D01*
X57676179Y-70712394D01*
X57807289Y-70624789D01*
X57918789Y-70513289D01*
X57954657Y-70459608D01*
X58008269Y-70414804D01*
X58057759Y-70404500D01*
X70374500Y-70404500D01*
X70441539Y-70424185D01*
X70487294Y-70476989D01*
X70498500Y-70528500D01*
X70498500Y-71161430D01*
X70498499Y-71161448D01*
X70498499Y-71327154D01*
X70498498Y-71327154D01*
X70539424Y-71479889D01*
X70539425Y-71479890D01*
X70557675Y-71511499D01*
X70557676Y-71511500D01*
X70618477Y-71616812D01*
X70618481Y-71616817D01*
X70737349Y-71735685D01*
X70737355Y-71735690D01*
X71043484Y-72041819D01*
X71076969Y-72103142D01*
X71071985Y-72172834D01*
X71030113Y-72228767D01*
X70964649Y-72253184D01*
X70955803Y-72253500D01*
X70334097Y-72253500D01*
X70267058Y-72233815D01*
X70246416Y-72217181D01*
X69514574Y-71485339D01*
X69481089Y-71424016D01*
X69480638Y-71421849D01*
X69458441Y-71310261D01*
X69449737Y-71266503D01*
X69442901Y-71250000D01*
X69389397Y-71120827D01*
X69389390Y-71120814D01*
X69301789Y-70989711D01*
X69301786Y-70989707D01*
X69190292Y-70878213D01*
X69190288Y-70878210D01*
X69059185Y-70790609D01*
X69059172Y-70790602D01*
X68913501Y-70730264D01*
X68913489Y-70730261D01*
X68758845Y-70699500D01*
X68758842Y-70699500D01*
X68601158Y-70699500D01*
X68601155Y-70699500D01*
X68446510Y-70730261D01*
X68446498Y-70730264D01*
X68300827Y-70790602D01*
X68300814Y-70790609D01*
X68169711Y-70878210D01*
X68169707Y-70878213D01*
X68058213Y-70989707D01*
X68058210Y-70989711D01*
X67970609Y-71120814D01*
X67970604Y-71120823D01*
X67925855Y-71228859D01*
X67882014Y-71283262D01*
X67815720Y-71305327D01*
X67787103Y-71303023D01*
X67668845Y-71279500D01*
X67668842Y-71279500D01*
X67511158Y-71279500D01*
X67511155Y-71279500D01*
X67356510Y-71310261D01*
X67356498Y-71310264D01*
X67210827Y-71370602D01*
X67210814Y-71370609D01*
X67079711Y-71458210D01*
X67079707Y-71458213D01*
X66968213Y-71569707D01*
X66968210Y-71569711D01*
X66880609Y-71700814D01*
X66880602Y-71700827D01*
X66820264Y-71846498D01*
X66820261Y-71846510D01*
X66789500Y-72001153D01*
X66789500Y-72158846D01*
X66820261Y-72313489D01*
X66820264Y-72313501D01*
X66880602Y-72459172D01*
X66880609Y-72459185D01*
X66968210Y-72590288D01*
X66968213Y-72590292D01*
X67079707Y-72701786D01*
X67079711Y-72701789D01*
X67210814Y-72789390D01*
X67210827Y-72789397D01*
X67256563Y-72808341D01*
X67356503Y-72849737D01*
X67421147Y-72862595D01*
X67511849Y-72880638D01*
X67573760Y-72913023D01*
X67575339Y-72914574D01*
X68280139Y-73619374D01*
X68280149Y-73619385D01*
X68284479Y-73623715D01*
X68284480Y-73623716D01*
X68396284Y-73735520D01*
X68396286Y-73735521D01*
X68449949Y-73766503D01*
X68449948Y-73766503D01*
X68449951Y-73766504D01*
X68533209Y-73814574D01*
X68533210Y-73814575D01*
X68533212Y-73814575D01*
X68533215Y-73814577D01*
X68685943Y-73855501D01*
X68685946Y-73855501D01*
X68851653Y-73855501D01*
X68851669Y-73855500D01*
X72782373Y-73855500D01*
X72849412Y-73875185D01*
X72895167Y-73927989D01*
X72905111Y-73997147D01*
X72876086Y-74060703D01*
X72817308Y-74098477D01*
X72814515Y-74099261D01*
X72773943Y-74110132D01*
X72739271Y-74119423D01*
X72739266Y-74119426D01*
X72602347Y-74198475D01*
X72602339Y-74198481D01*
X72427379Y-74373441D01*
X72366056Y-74406926D01*
X72296364Y-74401942D01*
X72252017Y-74373441D01*
X72117660Y-74239084D01*
X72117652Y-74239078D01*
X71992011Y-74166540D01*
X71992008Y-74166539D01*
X71980728Y-74160026D01*
X71954171Y-74152910D01*
X71828000Y-74119102D01*
X71669886Y-74119102D01*
X71662290Y-74119102D01*
X71662274Y-74119103D01*
X71337727Y-74119103D01*
X71337711Y-74119102D01*
X71330115Y-74119102D01*
X71172000Y-74119102D01*
X71019272Y-74160026D01*
X70892010Y-74233501D01*
X70882338Y-74239085D01*
X70688243Y-74433181D01*
X70626920Y-74466666D01*
X70600562Y-74469500D01*
X68050097Y-74469500D01*
X67983058Y-74449815D01*
X67962416Y-74433181D01*
X67556819Y-74027584D01*
X67523334Y-73966261D01*
X67520500Y-73939903D01*
X67520500Y-73921155D01*
X67520499Y-73921153D01*
X67503342Y-73834901D01*
X67489737Y-73766503D01*
X67469141Y-73716780D01*
X67429397Y-73620827D01*
X67429390Y-73620814D01*
X67341789Y-73489711D01*
X67341786Y-73489707D01*
X67230292Y-73378213D01*
X67230288Y-73378210D01*
X67099185Y-73290609D01*
X67099172Y-73290602D01*
X66953501Y-73230264D01*
X66953489Y-73230261D01*
X66798845Y-73199500D01*
X66798842Y-73199500D01*
X66641158Y-73199500D01*
X66641155Y-73199500D01*
X66486510Y-73230261D01*
X66486498Y-73230264D01*
X66340827Y-73290602D01*
X66340814Y-73290609D01*
X66209711Y-73378210D01*
X66209707Y-73378213D01*
X66098213Y-73489707D01*
X66098210Y-73489711D01*
X66010609Y-73620814D01*
X66010602Y-73620827D01*
X65950264Y-73766498D01*
X65950261Y-73766510D01*
X65919500Y-73921153D01*
X65919500Y-74078846D01*
X65950261Y-74233489D01*
X65950264Y-74233501D01*
X66010602Y-74379172D01*
X66010609Y-74379185D01*
X66098210Y-74510288D01*
X66098213Y-74510292D01*
X66209707Y-74621786D01*
X66209711Y-74621789D01*
X66340814Y-74709390D01*
X66340827Y-74709397D01*
X66430722Y-74746632D01*
X66486503Y-74769737D01*
X66591918Y-74790705D01*
X66653825Y-74823088D01*
X66655405Y-74824640D01*
X67265139Y-75434374D01*
X67265149Y-75434385D01*
X67269479Y-75438715D01*
X67269480Y-75438716D01*
X67381284Y-75550520D01*
X67446422Y-75588127D01*
X67518215Y-75629577D01*
X67670943Y-75670501D01*
X67670946Y-75670501D01*
X67836653Y-75670501D01*
X67836669Y-75670500D01*
X70704760Y-75670500D01*
X70712376Y-75672736D01*
X70720212Y-75671467D01*
X70745419Y-75682439D01*
X70771799Y-75690185D01*
X70778629Y-75696894D01*
X70784276Y-75699352D01*
X70807862Y-75725608D01*
X70824418Y-75750385D01*
X70878211Y-75830892D01*
X70878213Y-75830894D01*
X70878602Y-75831476D01*
X70899480Y-75898154D01*
X70899500Y-75900368D01*
X70899500Y-83199903D01*
X70879815Y-83266942D01*
X70863181Y-83287584D01*
X68787584Y-85363181D01*
X68726261Y-85396666D01*
X68699903Y-85399500D01*
X65586669Y-85399500D01*
X65586653Y-85399499D01*
X65579057Y-85399499D01*
X65420943Y-85399499D01*
X65328543Y-85424258D01*
X65268210Y-85440424D01*
X65268209Y-85440425D01*
X65218096Y-85469359D01*
X65218095Y-85469360D01*
X65174689Y-85494420D01*
X65131285Y-85519479D01*
X65131282Y-85519481D01*
X65019478Y-85631286D01*
X64337584Y-86313181D01*
X64276261Y-86346666D01*
X64249903Y-86349500D01*
X59629057Y-86349500D01*
X59470943Y-86349500D01*
X59318215Y-86390423D01*
X59318214Y-86390423D01*
X59318212Y-86390424D01*
X59318209Y-86390425D01*
X59268096Y-86419359D01*
X59268095Y-86419360D01*
X59224689Y-86444420D01*
X59181285Y-86469479D01*
X59181282Y-86469481D01*
X55985339Y-89665425D01*
X55924016Y-89698910D01*
X55921850Y-89699361D01*
X55766508Y-89730261D01*
X55766498Y-89730264D01*
X55620827Y-89790602D01*
X55620814Y-89790609D01*
X55489711Y-89878210D01*
X55489707Y-89878213D01*
X55378213Y-89989707D01*
X55378210Y-89989711D01*
X55290609Y-90120814D01*
X55290602Y-90120827D01*
X55230264Y-90266498D01*
X55230261Y-90266510D01*
X55199500Y-90421153D01*
X55199500Y-90578846D01*
X55230261Y-90733489D01*
X55230264Y-90733501D01*
X55290602Y-90879172D01*
X55290609Y-90879185D01*
X55378210Y-91010288D01*
X55378213Y-91010292D01*
X55379114Y-91011193D01*
X55379435Y-91011780D01*
X55382076Y-91014999D01*
X55381465Y-91015499D01*
X55412599Y-91072516D01*
X55407615Y-91142208D01*
X55365743Y-91198141D01*
X55315626Y-91220491D01*
X55266507Y-91230261D01*
X55266498Y-91230264D01*
X55120827Y-91290602D01*
X55120814Y-91290609D01*
X54989711Y-91378210D01*
X54989707Y-91378213D01*
X54878213Y-91489707D01*
X54878210Y-91489711D01*
X54790609Y-91620814D01*
X54790602Y-91620827D01*
X54730264Y-91766498D01*
X54730261Y-91766510D01*
X54699500Y-91921153D01*
X54699500Y-92078846D01*
X54730261Y-92233489D01*
X54730264Y-92233501D01*
X54790602Y-92379172D01*
X54790609Y-92379185D01*
X54878210Y-92510288D01*
X54878213Y-92510292D01*
X54989707Y-92621786D01*
X54989711Y-92621789D01*
X55120814Y-92709390D01*
X55120827Y-92709397D01*
X55209587Y-92746162D01*
X55266503Y-92769737D01*
X55266507Y-92769737D01*
X55266508Y-92769738D01*
X55373346Y-92790990D01*
X55435256Y-92823375D01*
X55452256Y-92843716D01*
X55534829Y-92967295D01*
X55534832Y-92967299D01*
X55646326Y-93078793D01*
X55646330Y-93078796D01*
X55777433Y-93166397D01*
X55777446Y-93166404D01*
X55910850Y-93221661D01*
X55923122Y-93226744D01*
X56077772Y-93257506D01*
X56077775Y-93257507D01*
X56077777Y-93257507D01*
X56235463Y-93257507D01*
X56235464Y-93257506D01*
X56390116Y-93226744D01*
X56535798Y-93166401D01*
X56565329Y-93146669D01*
X56667494Y-93078405D01*
X56685540Y-93072754D01*
X56701450Y-93062530D01*
X56732411Y-93058078D01*
X56734172Y-93057527D01*
X56736385Y-93057507D01*
X56963838Y-93057507D01*
X57030877Y-93077192D01*
X57076632Y-93129996D01*
X57086576Y-93199154D01*
X57057551Y-93262710D01*
X57051519Y-93269188D01*
X56266527Y-94054181D01*
X56205204Y-94087666D01*
X56178846Y-94090500D01*
X43964812Y-94090500D01*
X43897773Y-94070815D01*
X43852018Y-94018011D01*
X43842074Y-93948853D01*
X43843991Y-93939508D01*
X43844301Y-93937155D01*
X43844301Y-93905182D01*
X43863986Y-93838143D01*
X43916790Y-93792388D01*
X43968301Y-93781182D01*
X49302706Y-93781182D01*
X49302722Y-93781183D01*
X49310318Y-93781183D01*
X49468429Y-93781183D01*
X49468432Y-93781183D01*
X49621160Y-93740259D01*
X49694134Y-93698127D01*
X49758091Y-93661202D01*
X49869895Y-93549398D01*
X49869895Y-93549396D01*
X49880099Y-93539193D01*
X49880103Y-93539188D01*
X51007013Y-92412277D01*
X51068334Y-92378794D01*
X51118884Y-92378343D01*
X51230271Y-92400500D01*
X51230274Y-92400500D01*
X51387960Y-92400500D01*
X51387961Y-92400499D01*
X51542613Y-92369737D01*
X51688295Y-92309394D01*
X51819405Y-92221789D01*
X51930905Y-92110289D01*
X52018510Y-91979179D01*
X52019626Y-91976486D01*
X52042545Y-91921153D01*
X52078853Y-91833497D01*
X52109616Y-91678842D01*
X52109616Y-91521158D01*
X52109616Y-91521155D01*
X52109615Y-91521153D01*
X52103297Y-91489390D01*
X52078853Y-91366503D01*
X52051514Y-91300500D01*
X52018513Y-91220827D01*
X52018506Y-91220814D01*
X51930905Y-91089711D01*
X51930902Y-91089707D01*
X51819408Y-90978213D01*
X51819404Y-90978210D01*
X51688301Y-90890609D01*
X51688288Y-90890602D01*
X51542617Y-90830264D01*
X51542605Y-90830261D01*
X51387961Y-90799500D01*
X51387958Y-90799500D01*
X51230274Y-90799500D01*
X51230271Y-90799500D01*
X51075626Y-90830261D01*
X51075614Y-90830264D01*
X50936082Y-90888060D01*
X50888630Y-90897499D01*
X50835986Y-90897499D01*
X50721440Y-90928192D01*
X50683257Y-90938423D01*
X50546327Y-91017481D01*
X50546324Y-91017483D01*
X50434526Y-91129281D01*
X50434524Y-91129284D01*
X50355465Y-91266215D01*
X50355464Y-91266218D01*
X50327775Y-91369552D01*
X50295682Y-91425138D01*
X49176959Y-92543863D01*
X49115636Y-92577348D01*
X49089278Y-92580182D01*
X42757045Y-92580182D01*
X42757029Y-92580181D01*
X42749433Y-92580181D01*
X42591318Y-92580181D01*
X42514954Y-92600643D01*
X42438589Y-92621105D01*
X42438584Y-92621108D01*
X42301665Y-92700157D01*
X42301657Y-92700163D01*
X41882181Y-93119640D01*
X41862744Y-93130252D01*
X41846011Y-93144753D01*
X41832679Y-93146669D01*
X41820858Y-93153125D01*
X41798771Y-93151545D01*
X41776853Y-93154697D01*
X41764601Y-93149101D01*
X41751166Y-93148141D01*
X41733439Y-93134870D01*
X41713297Y-93125672D01*
X41706014Y-93114340D01*
X41695233Y-93106269D01*
X41687495Y-93085523D01*
X41675523Y-93066894D01*
X41672371Y-93044975D01*
X41670816Y-93040805D01*
X41670500Y-93031959D01*
X41670500Y-92921519D01*
X41690185Y-92854480D01*
X41706819Y-92833838D01*
X42602838Y-91937819D01*
X42664161Y-91904334D01*
X42690519Y-91901500D01*
X46027996Y-91901500D01*
X46119040Y-91883389D01*
X46163328Y-91874580D01*
X46227069Y-91848177D01*
X46290807Y-91821777D01*
X46290808Y-91821776D01*
X46290811Y-91821775D01*
X46405543Y-91745114D01*
X46574585Y-91576070D01*
X46614810Y-91549192D01*
X46669435Y-91526566D01*
X46759173Y-91489397D01*
X46759176Y-91489395D01*
X46759179Y-91489394D01*
X46890289Y-91401789D01*
X47001789Y-91290289D01*
X47089394Y-91159179D01*
X47149737Y-91013497D01*
X47180500Y-90858842D01*
X47180500Y-90701158D01*
X47180500Y-90701155D01*
X47180499Y-90701153D01*
X47156170Y-90578844D01*
X47149737Y-90546503D01*
X47132238Y-90504257D01*
X47089397Y-90400827D01*
X47089390Y-90400814D01*
X47001789Y-90269711D01*
X47001786Y-90269707D01*
X46890292Y-90158213D01*
X46890288Y-90158210D01*
X46759185Y-90070609D01*
X46759172Y-90070602D01*
X46613501Y-90010264D01*
X46613489Y-90010261D01*
X46458845Y-89979500D01*
X46458842Y-89979500D01*
X46301158Y-89979500D01*
X46301155Y-89979500D01*
X46146510Y-90010261D01*
X46146498Y-90010264D01*
X46000827Y-90070602D01*
X46000814Y-90070609D01*
X45869711Y-90158210D01*
X45869707Y-90158213D01*
X45758213Y-90269707D01*
X45758210Y-90269711D01*
X45670609Y-90400814D01*
X45670604Y-90400824D01*
X45661024Y-90423953D01*
X45617182Y-90478357D01*
X45550888Y-90500421D01*
X45546463Y-90500500D01*
X45124500Y-90500500D01*
X45057461Y-90480815D01*
X45011706Y-90428011D01*
X45000500Y-90376500D01*
X45000500Y-83767961D01*
X52424880Y-83767961D01*
X52424880Y-83767962D01*
X52428429Y-83770334D01*
X52555813Y-83823097D01*
X52555823Y-83823100D01*
X52691053Y-83850000D01*
X52828946Y-83850000D01*
X52964176Y-83823100D01*
X52964186Y-83823097D01*
X53091570Y-83770334D01*
X53091572Y-83770332D01*
X53095119Y-83767961D01*
X53824880Y-83767961D01*
X53824880Y-83767962D01*
X53828429Y-83770334D01*
X53955813Y-83823097D01*
X53955823Y-83823100D01*
X54091053Y-83850000D01*
X54228946Y-83850000D01*
X54364176Y-83823100D01*
X54364186Y-83823097D01*
X54491570Y-83770334D01*
X54491572Y-83770332D01*
X54495119Y-83767961D01*
X54160001Y-83432842D01*
X54160000Y-83432842D01*
X53824880Y-83767961D01*
X53095119Y-83767961D01*
X52760001Y-83432842D01*
X52760000Y-83432842D01*
X52424880Y-83767961D01*
X45000500Y-83767961D01*
X45000500Y-83067961D01*
X51724880Y-83067961D01*
X51724880Y-83067962D01*
X51728429Y-83070334D01*
X51855813Y-83123097D01*
X51855825Y-83123100D01*
X51967299Y-83145274D01*
X52029210Y-83177658D01*
X52063784Y-83238374D01*
X52064725Y-83242699D01*
X52086899Y-83354176D01*
X52086901Y-83354182D01*
X52139668Y-83481573D01*
X52139668Y-83481574D01*
X52142037Y-83485119D01*
X52477157Y-83150000D01*
X52457266Y-83130109D01*
X52660000Y-83130109D01*
X52660000Y-83169891D01*
X52675224Y-83206645D01*
X52703355Y-83234776D01*
X52740109Y-83250000D01*
X52779891Y-83250000D01*
X52816645Y-83234776D01*
X52844776Y-83206645D01*
X52860000Y-83169891D01*
X52860000Y-83149999D01*
X53042842Y-83149999D01*
X53042842Y-83150000D01*
X53377961Y-83485119D01*
X53396824Y-83483263D01*
X53410526Y-83471818D01*
X53479853Y-83463125D01*
X53521597Y-83483107D01*
X53542037Y-83485119D01*
X53877157Y-83150000D01*
X53857266Y-83130109D01*
X54060000Y-83130109D01*
X54060000Y-83169891D01*
X54075224Y-83206645D01*
X54103355Y-83234776D01*
X54140109Y-83250000D01*
X54179891Y-83250000D01*
X54216645Y-83234776D01*
X54244776Y-83206645D01*
X54260000Y-83169891D01*
X54260000Y-83149999D01*
X54442842Y-83149999D01*
X54442842Y-83150000D01*
X54777961Y-83485119D01*
X54780332Y-83481572D01*
X54780334Y-83481570D01*
X54833097Y-83354186D01*
X54833097Y-83354184D01*
X54855273Y-83242700D01*
X54887658Y-83180789D01*
X54948374Y-83146215D01*
X54952700Y-83145273D01*
X55064184Y-83123097D01*
X55064186Y-83123097D01*
X55191570Y-83070334D01*
X55191572Y-83070332D01*
X55195119Y-83067961D01*
X54860001Y-82732842D01*
X54859999Y-82732842D01*
X54697365Y-82895477D01*
X54442842Y-83149999D01*
X54260000Y-83149999D01*
X54260000Y-83130109D01*
X54244776Y-83093355D01*
X54216645Y-83065224D01*
X54179891Y-83050000D01*
X54140109Y-83050000D01*
X54103355Y-83065224D01*
X54075224Y-83093355D01*
X54060000Y-83130109D01*
X53857266Y-83130109D01*
X53622634Y-82895477D01*
X53622632Y-82895474D01*
X53460001Y-82732842D01*
X53459999Y-82732842D01*
X53297365Y-82895477D01*
X53042842Y-83149999D01*
X52860000Y-83149999D01*
X52860000Y-83130109D01*
X52844776Y-83093355D01*
X52816645Y-83065224D01*
X52779891Y-83050000D01*
X52740109Y-83050000D01*
X52703355Y-83065224D01*
X52675224Y-83093355D01*
X52660000Y-83130109D01*
X52457266Y-83130109D01*
X52059999Y-82732842D01*
X52059998Y-82732842D01*
X51724880Y-83067961D01*
X45000500Y-83067961D01*
X45000500Y-82518946D01*
X51359999Y-82518946D01*
X51386899Y-82654176D01*
X51386901Y-82654182D01*
X51439668Y-82781573D01*
X51439668Y-82781574D01*
X51442037Y-82785119D01*
X51777157Y-82450000D01*
X51757266Y-82430109D01*
X51960000Y-82430109D01*
X51960000Y-82469891D01*
X51975224Y-82506645D01*
X52003355Y-82534776D01*
X52040109Y-82550000D01*
X52079891Y-82550000D01*
X52116645Y-82534776D01*
X52144776Y-82506645D01*
X52160000Y-82469891D01*
X52160000Y-82449999D01*
X52342842Y-82449999D01*
X52342842Y-82450000D01*
X52501827Y-82608985D01*
X52501842Y-82608999D01*
X52760000Y-82867157D01*
X53177157Y-82450000D01*
X53157266Y-82430109D01*
X53360000Y-82430109D01*
X53360000Y-82469891D01*
X53375224Y-82506645D01*
X53403355Y-82534776D01*
X53440109Y-82550000D01*
X53479891Y-82550000D01*
X53516645Y-82534776D01*
X53544776Y-82506645D01*
X53560000Y-82469891D01*
X53560000Y-82449999D01*
X53742842Y-82449999D01*
X53742842Y-82450000D01*
X53901827Y-82608985D01*
X53901842Y-82608999D01*
X54160000Y-82867157D01*
X54577157Y-82450000D01*
X54557266Y-82430109D01*
X54760000Y-82430109D01*
X54760000Y-82469891D01*
X54775224Y-82506645D01*
X54803355Y-82534776D01*
X54840109Y-82550000D01*
X54879891Y-82550000D01*
X54916645Y-82534776D01*
X54944776Y-82506645D01*
X54960000Y-82469891D01*
X54960000Y-82450000D01*
X55142842Y-82450000D01*
X55477961Y-82785119D01*
X55480332Y-82781572D01*
X55480334Y-82781570D01*
X55533097Y-82654186D01*
X55533100Y-82654176D01*
X55560000Y-82518946D01*
X55560000Y-82381053D01*
X55533100Y-82245823D01*
X55533097Y-82245813D01*
X55480334Y-82118429D01*
X55477961Y-82114880D01*
X55142842Y-82450000D01*
X54960000Y-82450000D01*
X54960000Y-82430109D01*
X54944776Y-82393355D01*
X54916645Y-82365224D01*
X54879891Y-82350000D01*
X54840109Y-82350000D01*
X54803355Y-82365224D01*
X54775224Y-82393355D01*
X54760000Y-82430109D01*
X54557266Y-82430109D01*
X54322634Y-82195477D01*
X54322632Y-82195474D01*
X54160001Y-82032842D01*
X54159999Y-82032842D01*
X53997365Y-82195477D01*
X53742842Y-82449999D01*
X53560000Y-82449999D01*
X53560000Y-82430109D01*
X53544776Y-82393355D01*
X53516645Y-82365224D01*
X53479891Y-82350000D01*
X53440109Y-82350000D01*
X53403355Y-82365224D01*
X53375224Y-82393355D01*
X53360000Y-82430109D01*
X53157266Y-82430109D01*
X52922634Y-82195477D01*
X52922632Y-82195474D01*
X52760001Y-82032842D01*
X52759999Y-82032842D01*
X52597365Y-82195477D01*
X52342842Y-82449999D01*
X52160000Y-82449999D01*
X52160000Y-82430109D01*
X52144776Y-82393355D01*
X52116645Y-82365224D01*
X52079891Y-82350000D01*
X52040109Y-82350000D01*
X52003355Y-82365224D01*
X51975224Y-82393355D01*
X51960000Y-82430109D01*
X51757266Y-82430109D01*
X51442037Y-82114880D01*
X51442036Y-82114880D01*
X51439667Y-82118427D01*
X51439666Y-82118428D01*
X51386902Y-82245813D01*
X51386899Y-82245823D01*
X51360000Y-82381053D01*
X51360000Y-82518946D01*
X51359999Y-82518946D01*
X45000500Y-82518946D01*
X45000500Y-81667961D01*
X51724880Y-81667961D01*
X51726738Y-81686839D01*
X51738167Y-81700517D01*
X51746866Y-81769843D01*
X51745465Y-81777107D01*
X51731641Y-81838798D01*
X52059998Y-82167157D01*
X52059999Y-82167157D01*
X52320883Y-81906274D01*
X52477157Y-81750000D01*
X52457266Y-81730109D01*
X52660000Y-81730109D01*
X52660000Y-81769891D01*
X52675224Y-81806645D01*
X52703355Y-81834776D01*
X52740109Y-81850000D01*
X52779891Y-81850000D01*
X52816645Y-81834776D01*
X52844776Y-81806645D01*
X52860000Y-81769891D01*
X52860000Y-81749999D01*
X53042842Y-81749999D01*
X53042842Y-81750000D01*
X53199102Y-81906260D01*
X53199117Y-81906274D01*
X53460000Y-82167157D01*
X53877157Y-81750000D01*
X53857266Y-81730109D01*
X54060000Y-81730109D01*
X54060000Y-81769891D01*
X54075224Y-81806645D01*
X54103355Y-81834776D01*
X54140109Y-81850000D01*
X54179891Y-81850000D01*
X54216645Y-81834776D01*
X54244776Y-81806645D01*
X54260000Y-81769891D01*
X54260000Y-81749999D01*
X54442842Y-81749999D01*
X54442842Y-81750000D01*
X54599102Y-81906260D01*
X54599117Y-81906274D01*
X54860000Y-82167157D01*
X54860001Y-82167157D01*
X55195119Y-81832037D01*
X55193261Y-81813162D01*
X55181825Y-81799477D01*
X55173122Y-81730151D01*
X55193111Y-81688378D01*
X55195119Y-81667961D01*
X54860001Y-81332842D01*
X54859999Y-81332842D01*
X54697365Y-81495477D01*
X54442842Y-81749999D01*
X54260000Y-81749999D01*
X54260000Y-81730109D01*
X54244776Y-81693355D01*
X54216645Y-81665224D01*
X54179891Y-81650000D01*
X54140109Y-81650000D01*
X54103355Y-81665224D01*
X54075224Y-81693355D01*
X54060000Y-81730109D01*
X53857266Y-81730109D01*
X53622634Y-81495477D01*
X53622632Y-81495474D01*
X53460001Y-81332842D01*
X53459999Y-81332842D01*
X53297365Y-81495477D01*
X53042842Y-81749999D01*
X52860000Y-81749999D01*
X52860000Y-81730109D01*
X52844776Y-81693355D01*
X52816645Y-81665224D01*
X52779891Y-81650000D01*
X52740109Y-81650000D01*
X52703355Y-81665224D01*
X52675224Y-81693355D01*
X52660000Y-81730109D01*
X52457266Y-81730109D01*
X52059999Y-81332842D01*
X52059998Y-81332842D01*
X51724880Y-81667961D01*
X45000500Y-81667961D01*
X45000500Y-81118946D01*
X51359999Y-81118946D01*
X51386899Y-81254176D01*
X51386901Y-81254182D01*
X51439668Y-81381573D01*
X51439668Y-81381574D01*
X51442037Y-81385119D01*
X51777157Y-81050000D01*
X51757266Y-81030109D01*
X51960000Y-81030109D01*
X51960000Y-81069891D01*
X51975224Y-81106645D01*
X52003355Y-81134776D01*
X52040109Y-81150000D01*
X52079891Y-81150000D01*
X52116645Y-81134776D01*
X52144776Y-81106645D01*
X52160000Y-81069891D01*
X52160000Y-81049999D01*
X52342842Y-81049999D01*
X52342842Y-81050000D01*
X52503623Y-81210781D01*
X52503638Y-81210795D01*
X52760000Y-81467157D01*
X53177157Y-81050000D01*
X53157266Y-81030109D01*
X53360000Y-81030109D01*
X53360000Y-81069891D01*
X53375224Y-81106645D01*
X53403355Y-81134776D01*
X53440109Y-81150000D01*
X53479891Y-81150000D01*
X53516645Y-81134776D01*
X53544776Y-81106645D01*
X53560000Y-81069891D01*
X53560000Y-81049999D01*
X53742842Y-81049999D01*
X53742842Y-81050000D01*
X53903623Y-81210781D01*
X53903638Y-81210795D01*
X54160000Y-81467157D01*
X54577157Y-81050000D01*
X54557266Y-81030109D01*
X54760000Y-81030109D01*
X54760000Y-81069891D01*
X54775224Y-81106645D01*
X54803355Y-81134776D01*
X54840109Y-81150000D01*
X54879891Y-81150000D01*
X54916645Y-81134776D01*
X54944776Y-81106645D01*
X54960000Y-81069891D01*
X54960000Y-81050000D01*
X55142842Y-81050000D01*
X55477961Y-81385119D01*
X55480332Y-81381572D01*
X55480334Y-81381570D01*
X55533097Y-81254186D01*
X55533100Y-81254176D01*
X55560000Y-81118946D01*
X55560000Y-80981053D01*
X55533100Y-80845823D01*
X55533097Y-80845813D01*
X55480334Y-80718429D01*
X55477961Y-80714880D01*
X55142842Y-81050000D01*
X54960000Y-81050000D01*
X54960000Y-81030109D01*
X54944776Y-80993355D01*
X54916645Y-80965224D01*
X54879891Y-80950000D01*
X54840109Y-80950000D01*
X54803355Y-80965224D01*
X54775224Y-80993355D01*
X54760000Y-81030109D01*
X54557266Y-81030109D01*
X54317763Y-80790606D01*
X54317761Y-80790603D01*
X54160001Y-80632842D01*
X54159999Y-80632842D01*
X54002236Y-80790606D01*
X53742842Y-81049999D01*
X53560000Y-81049999D01*
X53560000Y-81030109D01*
X53544776Y-80993355D01*
X53516645Y-80965224D01*
X53479891Y-80950000D01*
X53440109Y-80950000D01*
X53403355Y-80965224D01*
X53375224Y-80993355D01*
X53360000Y-81030109D01*
X53157266Y-81030109D01*
X52917763Y-80790606D01*
X52917761Y-80790603D01*
X52760001Y-80632842D01*
X52759999Y-80632842D01*
X52602236Y-80790606D01*
X52342842Y-81049999D01*
X52160000Y-81049999D01*
X52160000Y-81030109D01*
X52144776Y-80993355D01*
X52116645Y-80965224D01*
X52079891Y-80950000D01*
X52040109Y-80950000D01*
X52003355Y-80965224D01*
X51975224Y-80993355D01*
X51960000Y-81030109D01*
X51757266Y-81030109D01*
X51442037Y-80714880D01*
X51442036Y-80714880D01*
X51439667Y-80718427D01*
X51439666Y-80718428D01*
X51386902Y-80845813D01*
X51386899Y-80845823D01*
X51360000Y-80981053D01*
X51360000Y-81118946D01*
X51359999Y-81118946D01*
X45000500Y-81118946D01*
X45000500Y-80432036D01*
X51724880Y-80432036D01*
X51724880Y-80432037D01*
X52059998Y-80767157D01*
X52059999Y-80767157D01*
X52320883Y-80506274D01*
X52477157Y-80349999D01*
X52477157Y-80349998D01*
X52457268Y-80330109D01*
X52660000Y-80330109D01*
X52660000Y-80369891D01*
X52675224Y-80406645D01*
X52703355Y-80434776D01*
X52740109Y-80450000D01*
X52779891Y-80450000D01*
X52816645Y-80434776D01*
X52844776Y-80406645D01*
X52860000Y-80369891D01*
X52860000Y-80349998D01*
X53042842Y-80349998D01*
X53042842Y-80349999D01*
X53460000Y-80767157D01*
X53720883Y-80506274D01*
X53877157Y-80349999D01*
X53877157Y-80349998D01*
X53857268Y-80330109D01*
X54060000Y-80330109D01*
X54060000Y-80369891D01*
X54075224Y-80406645D01*
X54103355Y-80434776D01*
X54140109Y-80450000D01*
X54179891Y-80450000D01*
X54216645Y-80434776D01*
X54244776Y-80406645D01*
X54260000Y-80369891D01*
X54260000Y-80349998D01*
X54442842Y-80349998D01*
X54442842Y-80349999D01*
X54860000Y-80767157D01*
X54860001Y-80767157D01*
X55195119Y-80432037D01*
X55191574Y-80429668D01*
X55064182Y-80376901D01*
X55064176Y-80376899D01*
X54952699Y-80354725D01*
X54890788Y-80322340D01*
X54856214Y-80261624D01*
X54855274Y-80257299D01*
X54833100Y-80145825D01*
X54833097Y-80145813D01*
X54780334Y-80018429D01*
X54777962Y-80014880D01*
X54777961Y-80014880D01*
X54442842Y-80349998D01*
X54260000Y-80349998D01*
X54260000Y-80330109D01*
X54244776Y-80293355D01*
X54216645Y-80265224D01*
X54179891Y-80250000D01*
X54140109Y-80250000D01*
X54103355Y-80265224D01*
X54075224Y-80293355D01*
X54060000Y-80330109D01*
X53857268Y-80330109D01*
X53542037Y-80014880D01*
X53523148Y-80016741D01*
X53509486Y-80028160D01*
X53440161Y-80036869D01*
X53398407Y-80016892D01*
X53377961Y-80014880D01*
X53042842Y-80349998D01*
X52860000Y-80349998D01*
X52860000Y-80330109D01*
X52844776Y-80293355D01*
X52816645Y-80265224D01*
X52779891Y-80250000D01*
X52740109Y-80250000D01*
X52703355Y-80265224D01*
X52675224Y-80293355D01*
X52660000Y-80330109D01*
X52457268Y-80330109D01*
X52142037Y-80014880D01*
X52142036Y-80014880D01*
X52139667Y-80018427D01*
X52139666Y-80018428D01*
X52086902Y-80145813D01*
X52086899Y-80145823D01*
X52064725Y-80257300D01*
X52032340Y-80319211D01*
X51971624Y-80353785D01*
X51967300Y-80354725D01*
X51855823Y-80376899D01*
X51855813Y-80376902D01*
X51728428Y-80429666D01*
X51728427Y-80429667D01*
X51724880Y-80432036D01*
X45000500Y-80432036D01*
X45000500Y-79732036D01*
X52424880Y-79732036D01*
X52424880Y-79732037D01*
X52760000Y-80067157D01*
X52760001Y-80067157D01*
X53095119Y-79732037D01*
X53095118Y-79732036D01*
X53824880Y-79732036D01*
X53824880Y-79732037D01*
X54160000Y-80067157D01*
X54160001Y-80067157D01*
X54495119Y-79732037D01*
X54491574Y-79729668D01*
X54364182Y-79676901D01*
X54364176Y-79676899D01*
X54228946Y-79650000D01*
X54091054Y-79650000D01*
X53955823Y-79676899D01*
X53955813Y-79676902D01*
X53828428Y-79729666D01*
X53828427Y-79729667D01*
X53824880Y-79732036D01*
X53095118Y-79732036D01*
X53091574Y-79729668D01*
X52964182Y-79676901D01*
X52964176Y-79676899D01*
X52828946Y-79650000D01*
X52691054Y-79650000D01*
X52555823Y-79676899D01*
X52555813Y-79676902D01*
X52428428Y-79729666D01*
X52428427Y-79729667D01*
X52424880Y-79732036D01*
X45000500Y-79732036D01*
X45000500Y-70627128D01*
X45020185Y-70560089D01*
X45072989Y-70514334D01*
X45125117Y-70503130D01*
X50457550Y-70529837D01*
X50489999Y-70530000D01*
X50489999Y-70529999D01*
X50490000Y-70530000D01*
X50489398Y-70514334D01*
X50440092Y-69232391D01*
X50440000Y-69227625D01*
X50440000Y-68624500D01*
X50459685Y-68557461D01*
X50512489Y-68511706D01*
X50564000Y-68500500D01*
X53350903Y-68500500D01*
X53417942Y-68520185D01*
G37*
%TD.AperFunction*%
%TD*%
M02*
