%TF.GenerationSoftware,KiCad,Pcbnew,9.0.4*%
%TF.CreationDate,2026-02-25T14:55:32+01:00*%
%TF.ProjectId,ESP32_Base,45535033-325f-4426-9173-652e6b696361,rev?*%
%TF.SameCoordinates,Original*%
%TF.FileFunction,Copper,L1,Top*%
%TF.FilePolarity,Positive*%
%FSLAX46Y46*%
G04 Gerber Fmt 4.6, Leading zero omitted, Abs format (unit mm)*
G04 Created by KiCad (PCBNEW 9.0.4) date 2026-02-25 14:55:32*
%MOMM*%
%LPD*%
G01*
G04 APERTURE LIST*
G04 Aperture macros list*
%AMRoundRect*
0 Rectangle with rounded corners*
0 $1 Rounding radius*
0 $2 $3 $4 $5 $6 $7 $8 $9 X,Y pos of 4 corners*
0 Add a 4 corners polygon primitive as box body*
4,1,4,$2,$3,$4,$5,$6,$7,$8,$9,$2,$3,0*
0 Add four circle primitives for the rounded corners*
1,1,$1+$1,$2,$3*
1,1,$1+$1,$4,$5*
1,1,$1+$1,$6,$7*
1,1,$1+$1,$8,$9*
0 Add four rect primitives between the rounded corners*
20,1,$1+$1,$2,$3,$4,$5,0*
20,1,$1+$1,$4,$5,$6,$7,0*
20,1,$1+$1,$6,$7,$8,$9,0*
20,1,$1+$1,$8,$9,$2,$3,0*%
G04 Aperture macros list end*
%TA.AperFunction,SMDPad,CuDef*%
%ADD10RoundRect,0.200000X-0.200000X-0.275000X0.200000X-0.275000X0.200000X0.275000X-0.200000X0.275000X0*%
%TD*%
%TA.AperFunction,SMDPad,CuDef*%
%ADD11RoundRect,0.225000X-0.225000X-0.250000X0.225000X-0.250000X0.225000X0.250000X-0.225000X0.250000X0*%
%TD*%
%TA.AperFunction,SMDPad,CuDef*%
%ADD12RoundRect,0.250000X0.375000X0.625000X-0.375000X0.625000X-0.375000X-0.625000X0.375000X-0.625000X0*%
%TD*%
%TA.AperFunction,SMDPad,CuDef*%
%ADD13R,0.400000X0.480000*%
%TD*%
%TA.AperFunction,SMDPad,CuDef*%
%ADD14R,1.140000X0.600000*%
%TD*%
%TA.AperFunction,SMDPad,CuDef*%
%ADD15R,1.140000X0.300000*%
%TD*%
%TA.AperFunction,ComponentPad*%
%ADD16O,2.000000X0.900000*%
%TD*%
%TA.AperFunction,ComponentPad*%
%ADD17O,1.700000X0.900000*%
%TD*%
%TA.AperFunction,SMDPad,CuDef*%
%ADD18RoundRect,0.200000X0.200000X0.275000X-0.200000X0.275000X-0.200000X-0.275000X0.200000X-0.275000X0*%
%TD*%
%TA.AperFunction,ComponentPad*%
%ADD19R,1.700000X1.700000*%
%TD*%
%TA.AperFunction,ComponentPad*%
%ADD20C,1.700000*%
%TD*%
%TA.AperFunction,SMDPad,CuDef*%
%ADD21R,1.210000X0.730000*%
%TD*%
%TA.AperFunction,SMDPad,CuDef*%
%ADD22RoundRect,0.375000X-0.625000X-0.375000X0.625000X-0.375000X0.625000X0.375000X-0.625000X0.375000X0*%
%TD*%
%TA.AperFunction,SMDPad,CuDef*%
%ADD23RoundRect,0.500000X-0.500000X-1.400000X0.500000X-1.400000X0.500000X1.400000X-0.500000X1.400000X0*%
%TD*%
%TA.AperFunction,SMDPad,CuDef*%
%ADD24R,0.480000X0.400000*%
%TD*%
%TA.AperFunction,SMDPad,CuDef*%
%ADD25RoundRect,0.225000X0.225000X0.250000X-0.225000X0.250000X-0.225000X-0.250000X0.225000X-0.250000X0*%
%TD*%
%TA.AperFunction,SMDPad,CuDef*%
%ADD26R,0.650000X1.050000*%
%TD*%
%TA.AperFunction,SMDPad,CuDef*%
%ADD27R,0.900000X1.500000*%
%TD*%
%TA.AperFunction,SMDPad,CuDef*%
%ADD28R,1.500000X0.900000*%
%TD*%
%TA.AperFunction,SMDPad,CuDef*%
%ADD29R,0.900000X0.900000*%
%TD*%
%TA.AperFunction,ComponentPad*%
%ADD30C,0.400000*%
%TD*%
%TA.AperFunction,SMDPad,CuDef*%
%ADD31R,1.050000X0.650000*%
%TD*%
%TA.AperFunction,ViaPad*%
%ADD32C,0.600000*%
%TD*%
%TA.AperFunction,Conductor*%
%ADD33C,0.200000*%
%TD*%
%TA.AperFunction,Conductor*%
%ADD34C,0.400000*%
%TD*%
%TA.AperFunction,Conductor*%
%ADD35C,0.300000*%
%TD*%
G04 APERTURE END LIST*
D10*
%TO.P,R2,1*%
%TO.N,Net-(USB-C1-CC2)*%
X54345000Y-94070000D03*
%TO.P,R2,2*%
%TO.N,GND*%
X55995000Y-94070000D03*
%TD*%
%TO.P,R12,2*%
%TO.N,Net-(SPI1-Pin_5)*%
X68325000Y-88500000D03*
%TO.P,R12,1*%
%TO.N,MOSI*%
X66675000Y-88500000D03*
%TD*%
%TO.P,R5,1*%
%TO.N,Net-(R5-Pad1)*%
X83166342Y-89500000D03*
%TO.P,R5,2*%
%TO.N,VCC_3V3*%
X84816342Y-89500000D03*
%TD*%
D11*
%TO.P,C12,1*%
%TO.N,CHIP_PU*%
X52725000Y-92000000D03*
%TO.P,C12,2*%
%TO.N,GND*%
X54275000Y-92000000D03*
%TD*%
D12*
%TO.P,D5,1,K*%
%TO.N,GND*%
X81400000Y-86000000D03*
%TO.P,D5,2,A*%
%TO.N,Net-(D5-A)*%
X78600000Y-86000000D03*
%TD*%
D13*
%TO.P,D4,1*%
%TO.N,GND*%
X49050000Y-98270000D03*
%TO.P,D4,2*%
%TO.N,D+*%
X49050000Y-96950000D03*
%TD*%
D11*
%TO.P,C4,1*%
%TO.N,VCC_3V3*%
X70725000Y-92500000D03*
%TO.P,C4,2*%
%TO.N,GND*%
X72275000Y-92500000D03*
%TD*%
D14*
%TO.P,USB-C,A1_B12,GND*%
%TO.N,GND*%
X44363801Y-93554682D03*
%TO.P,USB-C,A4_B9,VBUS*%
%TO.N,VBUS*%
X44363801Y-94354682D03*
D15*
%TO.P,USB-C,A5,CC1*%
%TO.N,Net-(USB-C1-CC1)*%
X44363801Y-95504682D03*
%TO.P,USB-C,A6,DP1*%
%TO.N,D+*%
X44363801Y-96504682D03*
%TO.P,USB-C,A7,DN1*%
%TO.N,D-*%
X44363801Y-97004682D03*
%TO.P,USB-C,A8,SBU1*%
%TO.N,unconnected-(USB-C1-SBU1-PadA8)*%
X44363801Y-98004682D03*
D14*
%TO.P,USB-C,B1_A12,GND*%
%TO.N,GND*%
X44363801Y-99954682D03*
%TO.P,USB-C,B4_A9,VBUS*%
%TO.N,VBUS*%
X44363801Y-99154682D03*
D15*
%TO.P,USB-C,B5,CC2*%
%TO.N,Net-(USB-C1-CC2)*%
X44363801Y-98504682D03*
%TO.P,USB-C,B6,DP2*%
%TO.N,D+*%
X44363801Y-97504682D03*
%TO.P,USB-C,B7,DN2*%
%TO.N,D-*%
X44363801Y-96004682D03*
%TO.P,USB-C,B8,SBU2*%
%TO.N,unconnected-(USB-C1-SBU2-PadB8)*%
X44363801Y-95004682D03*
D16*
%TO.P,USB-C,S1,SHIELD*%
%TO.N,GND*%
X43783801Y-92429682D03*
%TO.P,USB-C,S2,SHIELD*%
X43783801Y-101079682D03*
D17*
%TO.P,USB-C,S3,SHIELD*%
X39613801Y-92429682D03*
%TO.P,USB-C,S4,SHIELD*%
X39613801Y-101079682D03*
%TD*%
D11*
%TO.P,C11,1*%
%TO.N,CHIP_PU*%
X76725000Y-95500000D03*
%TO.P,C11,2*%
%TO.N,GND*%
X78275000Y-95500000D03*
%TD*%
D18*
%TO.P,R4,1*%
%TO.N,Net-(R4-Pad1)*%
X98322414Y-93000000D03*
%TO.P,R4,2*%
%TO.N,VCC_3V3*%
X96672414Y-93000000D03*
%TD*%
D10*
%TO.P,R7,1*%
%TO.N,Net-(R7-Pad1)*%
X76675000Y-89500000D03*
%TO.P,R7,2*%
%TO.N,VCC_3V3*%
X78325000Y-89500000D03*
%TD*%
D19*
%TO.P,HEADER,1,Pin_1*%
%TO.N,SCL*%
X73220000Y-70500000D03*
D20*
%TO.P,HEADER,2,Pin_2*%
%TO.N,SDA*%
X75760000Y-70500000D03*
%TO.P,HEADER,3,Pin_3*%
%TO.N,IO41*%
X78300000Y-70500000D03*
%TO.P,HEADER,4,Pin_4*%
%TO.N,IO40*%
X80840000Y-70500000D03*
%TO.P,HEADER,5,Pin_5*%
%TO.N,IO39*%
X83380000Y-70500000D03*
%TO.P,HEADER,6,Pin_6*%
%TO.N,IO38*%
X85920000Y-70500000D03*
%TO.P,HEADER,7,Pin_7*%
%TO.N,IO37*%
X88460000Y-70500000D03*
%TO.P,HEADER,8,Pin_8*%
%TO.N,IO36*%
X91000000Y-70500000D03*
%TD*%
D10*
%TO.P,R8,1*%
%TO.N,Net-(R7-Pad1)*%
X76675000Y-92500000D03*
%TO.P,R8,2*%
%TO.N,CHIP_PU*%
X78325000Y-92500000D03*
%TD*%
D12*
%TO.P,D7,1,K*%
%TO.N,GND*%
X81400000Y-82000000D03*
%TO.P,D7,2,A*%
%TO.N,Net-(D7-A)*%
X78600000Y-82000000D03*
%TD*%
D21*
%TO.P,D1,A*%
%TO.N,VBUS*%
X64320000Y-92500000D03*
%TO.P,D1,C*%
%TO.N,VCC_5V*%
X67680000Y-92500000D03*
%TD*%
D22*
%TO.P,AMS1117,1,GND/ADJ*%
%TO.N,GND*%
X61350000Y-96200000D03*
%TO.P,AMS1117,2,VOUT*%
%TO.N,VCC_3V3*%
X61350000Y-98500000D03*
D23*
X67650000Y-98500000D03*
D22*
%TO.P,AMS1117,3,VIN*%
%TO.N,VCC_5V*%
X61350000Y-100800000D03*
%TD*%
D24*
%TO.P,D2,1*%
%TO.N,GND*%
X71660000Y-98000000D03*
%TO.P,D2,2*%
%TO.N,VBUS*%
X70340000Y-98000000D03*
%TD*%
D11*
%TO.P,C14,1*%
%TO.N,VCC_3V3*%
X70450000Y-101000000D03*
%TO.P,C14,2*%
%TO.N,GND*%
X72000000Y-101000000D03*
%TD*%
D10*
%TO.P,R11,1*%
%TO.N,Net-(UESP32-S3-WROOM1-IO35)*%
X74175000Y-82000000D03*
%TO.P,R11,2*%
%TO.N,Net-(D7-A)*%
X75825000Y-82000000D03*
%TD*%
D25*
%TO.P,C1,1*%
%TO.N,VCC_5V*%
X50090518Y-100500000D03*
%TO.P,C1,2*%
%TO.N,GND*%
X48540518Y-100500000D03*
%TD*%
D10*
%TO.P,R1,1*%
%TO.N,Net-(USB-C1-CC1)*%
X70675000Y-95500000D03*
%TO.P,R1,2*%
%TO.N,GND*%
X72325000Y-95500000D03*
%TD*%
D11*
%TO.P,C5,1*%
%TO.N,VCC_3V3*%
X70725000Y-89500000D03*
%TO.P,C5,2*%
%TO.N,GND*%
X72275000Y-89500000D03*
%TD*%
D10*
%TO.P,R10,1*%
%TO.N,CS*%
X66675000Y-80500000D03*
%TO.P,R10,2*%
%TO.N,Net-(SPI1-Pin_2)*%
X68325000Y-80500000D03*
%TD*%
D11*
%TO.P,C2,1*%
%TO.N,VCC_5V*%
X54725000Y-100500000D03*
%TO.P,C2,2*%
%TO.N,GND*%
X56275000Y-100500000D03*
%TD*%
D13*
%TO.P,D3,1*%
%TO.N,GND*%
X49060000Y-94280000D03*
%TO.P,D3,2*%
%TO.N,D-*%
X49060000Y-95600000D03*
%TD*%
D10*
%TO.P,R13,1*%
%TO.N,CLK*%
X66675000Y-84500000D03*
%TO.P,R13,2*%
%TO.N,Net-(SPI1-Pin_6)*%
X68325000Y-84500000D03*
%TD*%
D26*
%TO.P,SWITCH,1*%
%TO.N,GND*%
X96425000Y-87575000D03*
%TO.P,SWITCH,2*%
X96425000Y-83425000D03*
%TO.P,SWITCH,3*%
%TO.N,Net-(R4-Pad1)*%
X98575000Y-87575000D03*
%TO.P,SWITCH,4*%
X98575000Y-83425000D03*
%TD*%
D25*
%TO.P,C6,1*%
%TO.N,SW*%
X98275000Y-81000000D03*
%TO.P,C6,2*%
%TO.N,GND*%
X96725000Y-81000000D03*
%TD*%
%TO.P,C3,1*%
%TO.N,VCC_5V*%
X56275000Y-98300000D03*
%TO.P,C3,2*%
%TO.N,GND*%
X54725000Y-98300000D03*
%TD*%
D27*
%TO.P,ESP32-S3-WROOM,1,GND*%
%TO.N,GND*%
X45740000Y-89000000D03*
%TO.P,ESP32-S3-WROOM,2,3V3*%
%TO.N,VCC_3V3*%
X47010000Y-89000000D03*
%TO.P,ESP32-S3-WROOM,3,EN*%
%TO.N,CHIP_PU*%
X48280000Y-89000000D03*
%TO.P,ESP32-S3-WROOM,4,IO4*%
%TO.N,SCL*%
X49550000Y-89000000D03*
%TO.P,ESP32-S3-WROOM,5,IO5*%
%TO.N,SDA*%
X50820000Y-89000000D03*
%TO.P,ESP32-S3-WROOM,6,IO6*%
%TO.N,unconnected-(UESP32-S3-WROOM1-IO6-Pad6)*%
X52090000Y-89000000D03*
%TO.P,ESP32-S3-WROOM,7,IO7*%
%TO.N,unconnected-(UESP32-S3-WROOM1-IO7-Pad7)*%
X53360000Y-89000000D03*
%TO.P,ESP32-S3-WROOM,8,IO15*%
%TO.N,unconnected-(UESP32-S3-WROOM1-IO15-Pad8)*%
X54630000Y-89000000D03*
%TO.P,ESP32-S3-WROOM,9,IO16*%
%TO.N,unconnected-(UESP32-S3-WROOM1-IO16-Pad9)*%
X55900000Y-89000000D03*
%TO.P,ESP32-S3-WROOM,10,IO17*%
%TO.N,unconnected-(UESP32-S3-WROOM1-IO17-Pad10)*%
X57170000Y-89000000D03*
%TO.P,ESP32-S3-WROOM,11,IO18*%
%TO.N,unconnected-(UESP32-S3-WROOM1-IO18-Pad11)*%
X58440000Y-89000000D03*
%TO.P,ESP32-S3-WROOM,12,IO8*%
%TO.N,MOSI*%
X59710000Y-89000000D03*
%TO.P,ESP32-S3-WROOM,13,IO19*%
%TO.N,D-*%
X60980000Y-89000000D03*
%TO.P,ESP32-S3-WROOM,14,IO20*%
%TO.N,D+*%
X62250000Y-89000000D03*
D28*
%TO.P,ESP32-S3-WROOM,15,IO3*%
%TO.N,unconnected-(UESP32-S3-WROOM1-IO3-Pad15)*%
X63500000Y-87235000D03*
%TO.P,ESP32-S3-WROOM,16,IO46*%
%TO.N,unconnected-(UESP32-S3-WROOM1-IO46-Pad16)*%
X63500000Y-85965000D03*
%TO.P,ESP32-S3-WROOM,17,IO9*%
%TO.N,CLK*%
X63500000Y-84695000D03*
%TO.P,ESP32-S3-WROOM,18,IO10*%
%TO.N,CS*%
X63500000Y-83425000D03*
%TO.P,ESP32-S3-WROOM,19,IO11*%
%TO.N,DS*%
X63500000Y-82155000D03*
%TO.P,ESP32-S3-WROOM,20,IO12*%
%TO.N,RST*%
X63500000Y-80885000D03*
%TO.P,ESP32-S3-WROOM,21,IO13*%
%TO.N,BL*%
X63500000Y-79615000D03*
%TO.P,ESP32-S3-WROOM,22,IO14*%
%TO.N,unconnected-(UESP32-S3-WROOM1-IO14-Pad22)*%
X63500000Y-78345000D03*
%TO.P,ESP32-S3-WROOM,23,IO21*%
%TO.N,unconnected-(UESP32-S3-WROOM1-IO21-Pad23)*%
X63500000Y-77075000D03*
%TO.P,ESP32-S3-WROOM,24,IO47*%
%TO.N,unconnected-(UESP32-S3-WROOM1-IO47-Pad24)*%
X63500000Y-75805000D03*
%TO.P,ESP32-S3-WROOM,25,IO48*%
%TO.N,unconnected-(UESP32-S3-WROOM1-IO48-Pad25)*%
X63500000Y-74535000D03*
%TO.P,ESP32-S3-WROOM,26,IO45*%
%TO.N,unconnected-(UESP32-S3-WROOM1-IO45-Pad26)*%
X63500000Y-73265000D03*
D27*
%TO.P,ESP32-S3-WROOM,27,IO0*%
%TO.N,GPIO0*%
X62250000Y-71500000D03*
%TO.P,ESP32-S3-WROOM,28,IO35*%
%TO.N,Net-(UESP32-S3-WROOM1-IO35)*%
X60980000Y-71500000D03*
%TO.P,ESP32-S3-WROOM,29,IO36*%
%TO.N,IO36*%
X59710000Y-71500000D03*
%TO.P,ESP32-S3-WROOM,30,IO37*%
%TO.N,IO37*%
X58440000Y-71500000D03*
%TO.P,ESP32-S3-WROOM,31,IO38*%
%TO.N,IO38*%
X57170000Y-71500000D03*
%TO.P,ESP32-S3-WROOM,32,IO39*%
%TO.N,IO39*%
X55900000Y-71500000D03*
%TO.P,ESP32-S3-WROOM,33,IO40*%
%TO.N,IO40*%
X54630000Y-71500000D03*
%TO.P,ESP32-S3-WROOM,34,IO41*%
%TO.N,IO41*%
X53360000Y-71500000D03*
%TO.P,ESP32-S3-WROOM,35,IO42*%
%TO.N,SW*%
X52090000Y-71500000D03*
%TO.P,ESP32-S3-WROOM,36,RXD0*%
%TO.N,unconnected-(UESP32-S3-WROOM1-RXD0-Pad36)*%
X50820000Y-71500000D03*
%TO.P,ESP32-S3-WROOM,37,TXD0*%
%TO.N,unconnected-(UESP32-S3-WROOM1-TXD0-Pad37)*%
X49550000Y-71500000D03*
%TO.P,ESP32-S3-WROOM,38,IO2*%
%TO.N,unconnected-(UESP32-S3-WROOM1-IO2-Pad38)*%
X48280000Y-71500000D03*
%TO.P,ESP32-S3-WROOM,39,IO1*%
%TO.N,unconnected-(UESP32-S3-WROOM1-IO1-Pad39)*%
X47010000Y-71500000D03*
%TO.P,ESP32-S3-WROOM,40,GND*%
%TO.N,GND*%
X45740000Y-71500000D03*
D29*
%TO.P,ESP32-S3-WROOM,41_1,GND*%
X53460000Y-81750000D03*
%TO.P,ESP32-S3-WROOM,41_2,GND*%
X53460000Y-83150000D03*
%TO.P,ESP32-S3-WROOM,41_3,GND*%
X53460000Y-80350000D03*
%TO.P,ESP32-S3-WROOM,41_4,GND*%
X54860000Y-83150000D03*
%TO.P,ESP32-S3-WROOM,41_5,GND*%
X54860000Y-81750000D03*
%TO.P,ESP32-S3-WROOM,41_6,GND*%
X54860000Y-80350000D03*
%TO.P,ESP32-S3-WROOM,41_7,GND*%
X52060000Y-83150000D03*
%TO.P,ESP32-S3-WROOM,41_8,GND*%
X52060000Y-81750000D03*
%TO.P,ESP32-S3-WROOM,41_9,GND*%
X52060000Y-80350000D03*
D30*
%TO.P,ESP32-S3-WROOM,41_10*%
X52760000Y-81750000D03*
%TO.P,ESP32-S3-WROOM,41_11*%
X52760000Y-83150000D03*
%TO.P,ESP32-S3-WROOM,41_12*%
X52760000Y-80350000D03*
%TO.P,ESP32-S3-WROOM,41_13*%
X54160000Y-83150000D03*
%TO.P,ESP32-S3-WROOM,41_14*%
X54160000Y-81750000D03*
%TO.P,ESP32-S3-WROOM,41_15*%
X54160000Y-80350000D03*
%TO.P,ESP32-S3-WROOM,41_16*%
X52060000Y-82450000D03*
%TO.P,ESP32-S3-WROOM,41_17*%
X52060000Y-81050000D03*
%TO.P,ESP32-S3-WROOM,41_18*%
X53460000Y-82450000D03*
%TO.P,ESP32-S3-WROOM,41_19*%
X53460000Y-81050000D03*
%TO.P,ESP32-S3-WROOM,41_20*%
X54860000Y-82450000D03*
%TO.P,ESP32-S3-WROOM,41_21*%
X54860000Y-81050000D03*
%TD*%
D31*
%TO.P,BOOT,1*%
%TO.N,GND*%
X87850000Y-99347283D03*
%TO.P,BOOT,2*%
X92000000Y-99347283D03*
%TO.P,BOOT,3*%
%TO.N,Net-(R5-Pad1)*%
X87850000Y-101497283D03*
%TO.P,BOOT,4*%
X92000000Y-101497283D03*
%TD*%
D11*
%TO.P,C10,1*%
%TO.N,GPIO0*%
X83225000Y-92500000D03*
%TO.P,C10,2*%
%TO.N,GND*%
X84775000Y-92500000D03*
%TD*%
D10*
%TO.P,R3,1*%
%TO.N,VCC_3V3*%
X74175000Y-86000000D03*
%TO.P,R3,2*%
%TO.N,Net-(D5-A)*%
X75825000Y-86000000D03*
%TD*%
D19*
%TO.P,SPI,1,Pin_1*%
%TO.N,BL*%
X90886905Y-94429207D03*
D20*
%TO.P,SPI,2,Pin_2*%
%TO.N,Net-(SPI1-Pin_2)*%
X90886905Y-91889207D03*
%TO.P,SPI,3,Pin_3*%
%TO.N,DS*%
X90886905Y-89349207D03*
%TO.P,SPI,4,Pin_4*%
%TO.N,RST*%
X90886905Y-86809207D03*
%TO.P,SPI,5,Pin_5*%
%TO.N,Net-(SPI1-Pin_5)*%
X90886905Y-84269207D03*
%TO.P,SPI,6,Pin_6*%
%TO.N,Net-(SPI1-Pin_6)*%
X90886905Y-81729207D03*
%TO.P,SPI,7,Pin_7*%
%TO.N,VCC_3V3*%
X90886905Y-79189207D03*
%TO.P,SPI,8,Pin_8*%
%TO.N,GND*%
X90886905Y-76649207D03*
%TD*%
D19*
%TO.P,PWR,1,Pin_1*%
%TO.N,VCC_3V3*%
X80460000Y-76775000D03*
D20*
%TO.P,PWR,2,Pin_2*%
%TO.N,GND*%
X80460000Y-74235000D03*
%TO.P,PWR,3,Pin_3*%
%TO.N,VCC_3V3*%
X83000000Y-76775000D03*
%TO.P,PWR,4,Pin_4*%
%TO.N,GND*%
X83000000Y-74235000D03*
%TO.P,PWR,5,Pin_5*%
%TO.N,VCC_3V3*%
X85540000Y-76775000D03*
%TO.P,PWR,6,Pin_6*%
%TO.N,GND*%
X85540000Y-74235000D03*
%TD*%
D10*
%TO.P,R6,1*%
%TO.N,Net-(R5-Pad1)*%
X83175000Y-95500000D03*
%TO.P,R6,2*%
%TO.N,GPIO0*%
X84825000Y-95500000D03*
%TD*%
%TO.P,R9,1*%
%TO.N,Net-(R4-Pad1)*%
X96675000Y-90500000D03*
%TO.P,R9,2*%
%TO.N,SW*%
X98325000Y-90500000D03*
%TD*%
D31*
%TO.P,RESET,1*%
%TO.N,GND*%
X78425000Y-99425000D03*
%TO.P,RESET,2*%
X82575000Y-99425000D03*
%TO.P,RESET,3*%
%TO.N,Net-(R7-Pad1)*%
X78425000Y-101575000D03*
%TO.P,RESET,4*%
X82575000Y-101575000D03*
%TD*%
D11*
%TO.P,C13,1*%
%TO.N,VCC_3V3*%
X48225000Y-92000000D03*
%TO.P,C13,2*%
%TO.N,GND*%
X49775000Y-92000000D03*
%TD*%
D32*
%TO.N,GND*%
X59460000Y-98440000D03*
X59460000Y-98440000D03*
%TO.N,VCC_3V3*%
X71730000Y-85950000D03*
X69700000Y-88620000D03*
%TO.N,GND*%
X75360000Y-89470000D03*
X57190000Y-93130000D03*
X46130000Y-94090000D03*
X48130000Y-90660000D03*
%TO.N,Net-(USB-C1-CC2)*%
X43020000Y-97760000D03*
%TO.N,VBUS*%
X42361000Y-94340000D03*
X42361000Y-99160000D03*
%TO.N,Net-(USB-C1-CC2)*%
X56156619Y-92457007D03*
%TO.N,VCC_3V3*%
X46380000Y-90780000D03*
%TO.N,GND*%
X50190000Y-98250000D03*
X40653483Y-91390000D03*
X77070000Y-75430000D03*
X94500000Y-82500000D03*
X73500000Y-94000000D03*
X84000000Y-98000000D03*
X49850000Y-93570000D03*
X57660000Y-101310000D03*
X86715000Y-93715000D03*
X46940000Y-100490000D03*
X53580000Y-99270000D03*
X85500000Y-82000000D03*
X80000000Y-94000000D03*
X85770000Y-85630000D03*
X93500000Y-77500000D03*
X95500000Y-79000000D03*
X93500000Y-98000000D03*
%TO.N,VCC_3V3*%
X85500000Y-88000000D03*
X87500000Y-81500000D03*
X69500000Y-91000000D03*
X68000000Y-94500000D03*
%TO.N,GPIO0*%
X86000000Y-97000000D03*
X66720000Y-74000000D03*
%TO.N,CHIP_PU*%
X51309116Y-91600000D03*
X80000000Y-91000000D03*
%TO.N,SCL*%
X73220000Y-75280000D03*
X55500000Y-92000000D03*
%TO.N,IO41*%
X53500000Y-69815973D03*
%TO.N,IO37*%
X68680000Y-71500000D03*
%TO.N,IO39*%
X56000000Y-69820810D03*
%TO.N,IO38*%
X57297000Y-70003000D03*
%TO.N,IO36*%
X67590000Y-72080000D03*
%TO.N,SDA*%
X71500000Y-75320603D03*
X56000000Y-90500000D03*
%TO.N,IO40*%
X54500000Y-69821007D03*
%TO.N,MOSI*%
X59000000Y-90500000D03*
X64500000Y-89500000D03*
%TO.N,DS*%
X74500000Y-79500000D03*
X88232632Y-89500000D03*
%TO.N,RST*%
X74500000Y-77500000D03*
X88250000Y-88250000D03*
%TO.N,BL*%
X88399000Y-94601000D03*
X73000000Y-77500000D03*
%TD*%
D33*
%TO.N,GND*%
X57660000Y-101310000D02*
X57430000Y-101540000D01*
X57430000Y-101540000D02*
X57315000Y-101540000D01*
X57315000Y-101540000D02*
X56275000Y-100500000D01*
D34*
X48540518Y-100500000D02*
X46950000Y-100500000D01*
X46950000Y-100500000D02*
X46940000Y-100490000D01*
%TO.N,VCC_5V*%
X54725000Y-100500000D02*
X50090518Y-100500000D01*
X58775000Y-100800000D02*
X57502500Y-99527500D01*
X55697500Y-99527500D02*
X57502500Y-99527500D01*
X54725000Y-100500000D02*
X55697500Y-99527500D01*
X61350000Y-100800000D02*
X58775000Y-100800000D01*
X57502500Y-99527500D02*
X56275000Y-98300000D01*
%TO.N,GND*%
X59460000Y-98090000D02*
X59460000Y-98440000D01*
X61350000Y-96200000D02*
X59460000Y-98090000D01*
%TO.N,VCC_5V*%
X67680000Y-92500000D02*
X64650000Y-95530000D01*
X64650000Y-95530000D02*
X64650000Y-99880000D01*
X64650000Y-99880000D02*
X63730000Y-100800000D01*
X63730000Y-100800000D02*
X61350000Y-100800000D01*
%TO.N,VBUS*%
X64320000Y-92500000D02*
X65086000Y-91734000D01*
X65086000Y-91734000D02*
X68686000Y-91734000D01*
X68686000Y-91734000D02*
X69473000Y-92521000D01*
X69473000Y-92521000D02*
X69473000Y-97133000D01*
X69473000Y-97133000D02*
X70340000Y-98000000D01*
X44363801Y-99154682D02*
X52503786Y-99154682D01*
X54318468Y-97340000D02*
X58640000Y-97340000D01*
X52503786Y-99154682D02*
X54318468Y-97340000D01*
X58640000Y-97340000D02*
X59410000Y-96570000D01*
X59410000Y-96570000D02*
X59410000Y-96042570D01*
X59410000Y-96042570D02*
X62952570Y-92500000D01*
X62952570Y-92500000D02*
X64320000Y-92500000D01*
%TO.N,VCC_3V3*%
X84816342Y-89500000D02*
X87698000Y-92381658D01*
X87698000Y-92381658D02*
X87698000Y-94891364D01*
X87698000Y-94891364D02*
X89166636Y-96360000D01*
X89166636Y-96360000D02*
X93312414Y-96360000D01*
X93312414Y-96360000D02*
X96672414Y-93000000D01*
X83000000Y-76775000D02*
X85540000Y-76775000D01*
X80460000Y-76775000D02*
X83000000Y-76775000D01*
X87500000Y-81500000D02*
X87500000Y-78735000D01*
X87500000Y-78735000D02*
X85540000Y-76775000D01*
X87500000Y-81500000D02*
X89810793Y-79189207D01*
X89810793Y-79189207D02*
X90886905Y-79189207D01*
X84816342Y-89500000D02*
X84816342Y-88683658D01*
X84816342Y-88683658D02*
X85500000Y-88000000D01*
X78325000Y-89500000D02*
X79201000Y-88624000D01*
X79201000Y-88624000D02*
X83940342Y-88624000D01*
X83940342Y-88624000D02*
X84816342Y-89500000D01*
X70725000Y-89500000D02*
X71625000Y-88600000D01*
X71625000Y-88600000D02*
X77425000Y-88600000D01*
X77425000Y-88600000D02*
X78325000Y-89500000D01*
X71730000Y-85950000D02*
X74125000Y-85950000D01*
X74125000Y-85950000D02*
X74175000Y-86000000D01*
X70580000Y-89500000D02*
X69700000Y-88620000D01*
X70725000Y-89500000D02*
X70580000Y-89500000D01*
X69500000Y-91000000D02*
X69500000Y-90725000D01*
X69500000Y-90725000D02*
X70725000Y-89500000D01*
X70725000Y-92500000D02*
X70725000Y-92225000D01*
X70725000Y-92225000D02*
X69500000Y-91000000D01*
X70450000Y-101000000D02*
X70150000Y-101000000D01*
X70150000Y-101000000D02*
X67650000Y-98500000D01*
X67650000Y-98500000D02*
X68000000Y-98150000D01*
X68000000Y-98150000D02*
X68000000Y-94500000D01*
X46380000Y-90780000D02*
X47005000Y-90780000D01*
X47005000Y-90780000D02*
X48225000Y-92000000D01*
X47010000Y-89000000D02*
X47010000Y-90150000D01*
X47010000Y-90150000D02*
X46380000Y-90780000D01*
%TO.N,GND*%
X40653483Y-91390000D02*
X39613801Y-92429682D01*
D33*
X41380000Y-91300000D02*
X41290000Y-91390000D01*
D34*
X40653483Y-91390000D02*
X41290000Y-91390000D01*
X42740318Y-92429682D02*
X43783801Y-92429682D01*
X41290000Y-91390000D02*
X42340000Y-92440000D01*
X42340000Y-92440000D02*
X42730000Y-92440000D01*
X42730000Y-92440000D02*
X42740318Y-92429682D01*
X44601364Y-91390000D02*
X40653483Y-91390000D01*
D33*
X77070000Y-75430000D02*
X78265000Y-74235000D01*
X78265000Y-74235000D02*
X80460000Y-74235000D01*
X85400000Y-86000000D02*
X81400000Y-86000000D01*
X85770000Y-85630000D02*
X85400000Y-86000000D01*
X86715000Y-93715000D02*
X85500000Y-92500000D01*
X85500000Y-92500000D02*
X84775000Y-92500000D01*
X46720057Y-93570000D02*
X44601364Y-91451307D01*
X44601364Y-91451307D02*
X44601364Y-91390000D01*
D34*
X52060000Y-80350000D02*
X45740000Y-74030000D01*
X45740000Y-74030000D02*
X45740000Y-71500000D01*
X45740000Y-89000000D02*
X45740000Y-87850000D01*
X50440000Y-83150000D02*
X52060000Y-83150000D01*
X45740000Y-87850000D02*
X50440000Y-83150000D01*
X45740000Y-89000000D02*
X45740000Y-90251364D01*
X45740000Y-90251364D02*
X44601364Y-91390000D01*
X55995000Y-94070000D02*
X56250000Y-94070000D01*
X56250000Y-94070000D02*
X57190000Y-93130000D01*
D33*
%TO.N,Net-(USB-C1-CC2)*%
X56156619Y-92457007D02*
X55957993Y-92457007D01*
X55957993Y-92457007D02*
X54345000Y-94070000D01*
D34*
%TO.N,GND*%
X46130000Y-94090000D02*
X45594682Y-93554682D01*
X45594682Y-93554682D02*
X44363801Y-93554682D01*
X44363801Y-93554682D02*
X44363801Y-93009682D01*
X44363801Y-93009682D02*
X43783801Y-92429682D01*
D33*
X39613801Y-92429682D02*
X40250318Y-92429682D01*
D35*
%TO.N,D+*%
X44363801Y-96504682D02*
X45119396Y-96504682D01*
X45119396Y-96504682D02*
X45510000Y-96504682D01*
X45510000Y-96504682D02*
X48604682Y-96504682D01*
X45500000Y-97140000D02*
X45500000Y-96514682D01*
X44363801Y-97504682D02*
X45135318Y-97504682D01*
X45500000Y-96514682D02*
X45510000Y-96504682D01*
X45135318Y-97504682D02*
X45500000Y-97140000D01*
%TO.N,D-*%
X43335318Y-96004682D02*
X43180000Y-96160000D01*
X43180000Y-96160000D02*
X43180000Y-96742881D01*
X43441801Y-97004682D02*
X44363801Y-97004682D01*
X44363801Y-96004682D02*
X43335318Y-96004682D01*
X43180000Y-96742881D02*
X43441801Y-97004682D01*
%TO.N,D+*%
X49050000Y-96950000D02*
X49050000Y-96890000D01*
X62250000Y-90423480D02*
X62250000Y-89000000D01*
X49050000Y-96890000D02*
X49449000Y-96491000D01*
X56419000Y-96491000D02*
X61903480Y-91006520D01*
X49449000Y-96491000D02*
X56419000Y-96491000D01*
X61903480Y-91006520D02*
X61903480Y-90770000D01*
X61903480Y-90770000D02*
X62250000Y-90423480D01*
%TO.N,D-*%
X49060000Y-95600000D02*
X49450000Y-95990000D01*
X56211480Y-95990000D02*
X61402480Y-90799000D01*
X49450000Y-95990000D02*
X56211480Y-95990000D01*
X60980000Y-90376520D02*
X60980000Y-89000000D01*
X61402480Y-90799000D02*
X60980000Y-90376520D01*
%TO.N,D+*%
X48604682Y-96504682D02*
X49050000Y-96950000D01*
%TO.N,D-*%
X44363801Y-96004682D02*
X48655318Y-96004682D01*
X48655318Y-96004682D02*
X49060000Y-95600000D01*
D33*
%TO.N,GND*%
X49060000Y-94280000D02*
X49140000Y-94280000D01*
X49140000Y-94280000D02*
X49850000Y-93570000D01*
X49050000Y-98270000D02*
X50170000Y-98270000D01*
X50170000Y-98270000D02*
X50190000Y-98250000D01*
X48130000Y-90660000D02*
X48090000Y-90660000D01*
X49802900Y-91870000D02*
X48592900Y-90660000D01*
X49775000Y-92000000D02*
X49775000Y-91905000D01*
X48592900Y-90660000D02*
X48130000Y-90660000D01*
X49810000Y-91870000D02*
X49802900Y-91870000D01*
X49775000Y-91905000D02*
X49810000Y-91870000D01*
%TO.N,Net-(USB-C1-CC2)*%
X43020000Y-97982881D02*
X43020000Y-97760000D01*
X43541801Y-98504682D02*
X43020000Y-97982881D01*
X44363801Y-98504682D02*
X43541801Y-98504682D01*
%TO.N,VBUS*%
X43024148Y-98993682D02*
X44202801Y-98993682D01*
X42857830Y-99160000D02*
X43024148Y-98993682D01*
X42361000Y-99160000D02*
X42857830Y-99160000D01*
X44202801Y-98993682D02*
X44363801Y-99154682D01*
X43740000Y-94520000D02*
X43905318Y-94354682D01*
X42541000Y-94520000D02*
X43740000Y-94520000D01*
X43905318Y-94354682D02*
X44363801Y-94354682D01*
X42361000Y-94340000D02*
X42541000Y-94520000D01*
%TO.N,GND*%
X46720057Y-93570000D02*
X49850000Y-93570000D01*
X40370318Y-92429682D02*
X39613801Y-92429682D01*
%TO.N,CHIP_PU*%
X51000000Y-91500000D02*
X50500000Y-91000000D01*
X51209116Y-91500000D02*
X51000000Y-91500000D01*
X51309116Y-91600000D02*
X51209116Y-91500000D01*
X50500000Y-91000000D02*
X49500000Y-91000000D01*
X48280000Y-89780000D02*
X48280000Y-89000000D01*
X51309116Y-91600000D02*
X51600000Y-91600000D01*
X49500000Y-91000000D02*
X48280000Y-89780000D01*
X51600000Y-91600000D02*
X52000000Y-92000000D01*
X52000000Y-92000000D02*
X52725000Y-92000000D01*
%TO.N,GND*%
X83148069Y-99425000D02*
X82575000Y-99425000D01*
X84000000Y-98000000D02*
X84000000Y-98573069D01*
X96500000Y-80000000D02*
X95500000Y-79000000D01*
X72275000Y-92500000D02*
X72275000Y-92775000D01*
X53580000Y-99145000D02*
X54725000Y-98000000D01*
X96500000Y-81000000D02*
X96500000Y-80000000D01*
X94500000Y-82500000D02*
X94500000Y-86687033D01*
X44363801Y-99954682D02*
X46404682Y-99954682D01*
X54860000Y-80350000D02*
X54860000Y-80341479D01*
X43783801Y-101079682D02*
X42799682Y-101079682D01*
X95500000Y-82500000D02*
X94500000Y-82500000D01*
X49881000Y-93601000D02*
X49850000Y-93570000D01*
X93500000Y-98000000D02*
X88252979Y-98000000D01*
X52060000Y-80350000D02*
X52051479Y-80350000D01*
X87850000Y-98402979D02*
X87850000Y-99347283D01*
X48530518Y-100490000D02*
X48540518Y-100500000D01*
X52051479Y-83150000D02*
X52060000Y-83150000D01*
X53460000Y-80350000D02*
X53460000Y-80341479D01*
X54860000Y-81750000D02*
X54868521Y-81750000D01*
X85500000Y-82000000D02*
X81400000Y-82000000D01*
X54868521Y-80350000D02*
X54860000Y-80350000D01*
X84000000Y-98573069D02*
X83148069Y-99425000D01*
X96425000Y-83425000D02*
X95500000Y-82500000D01*
X72325000Y-95175000D02*
X73500000Y-94000000D01*
X71660000Y-98000000D02*
X71660000Y-100660000D01*
X72275000Y-92775000D02*
X73500000Y-94000000D01*
X84000000Y-98000000D02*
X78791976Y-98000000D01*
X78791976Y-98000000D02*
X78425000Y-98366976D01*
X43783801Y-101079682D02*
X46350318Y-101079682D01*
X52051479Y-80350000D02*
X52050740Y-80350740D01*
X70985936Y-94000000D02*
X73500000Y-94000000D01*
X71660000Y-98000000D02*
X69974000Y-96314000D01*
X39613801Y-101079682D02*
X39613801Y-92429682D01*
X49850000Y-93570000D02*
X49850000Y-92075000D01*
X82925000Y-99425000D02*
X83000000Y-99500000D01*
X52060000Y-80341479D02*
X52060000Y-80350000D01*
X78425000Y-98366976D02*
X78425000Y-99425000D01*
X52051479Y-81750000D02*
X52025739Y-81775739D01*
X91737698Y-77500000D02*
X90886905Y-76649207D01*
X88252979Y-98000000D02*
X87850000Y-98402979D01*
X53580000Y-99270000D02*
X53580000Y-99145000D01*
X94500000Y-86687033D02*
X95387967Y-87575000D01*
X49850000Y-92075000D02*
X49775000Y-92000000D01*
X71660000Y-100660000D02*
X72000000Y-101000000D01*
X53077000Y-93198000D02*
X51651943Y-93198000D01*
X82575000Y-99425000D02*
X82925000Y-99425000D01*
X51248943Y-93601000D02*
X49881000Y-93601000D01*
X95387967Y-87575000D02*
X96425000Y-87575000D01*
X46350318Y-101079682D02*
X46940000Y-100490000D01*
X51651943Y-93198000D02*
X51248943Y-93601000D01*
X78275000Y-95500000D02*
X78500000Y-95500000D01*
X93500000Y-98500000D02*
X92652717Y-99347283D01*
X93500000Y-98000000D02*
X93500000Y-98500000D01*
X80460000Y-74235000D02*
X83000000Y-74235000D01*
X54860000Y-83158521D02*
X54860000Y-83150000D01*
X72325000Y-95500000D02*
X72325000Y-95175000D01*
X69974000Y-95011936D02*
X70985936Y-94000000D01*
X53460000Y-83158521D02*
X53460000Y-83150000D01*
X52060000Y-81750000D02*
X52051479Y-81750000D01*
X53434260Y-83184260D02*
X53460000Y-83158521D01*
X92652717Y-99347283D02*
X92000000Y-99347283D01*
X54868521Y-83150000D02*
X54884260Y-83134260D01*
X52060000Y-83150000D02*
X52060000Y-83158521D01*
X83000000Y-74235000D02*
X85540000Y-74235000D01*
X93500000Y-77500000D02*
X91737698Y-77500000D01*
X69974000Y-96314000D02*
X69974000Y-95011936D01*
X46404682Y-99954682D02*
X46940000Y-100490000D01*
X54860000Y-83150000D02*
X54868521Y-83150000D01*
X96725000Y-81000000D02*
X96500000Y-81000000D01*
X78500000Y-95500000D02*
X80000000Y-94000000D01*
X54275000Y-92000000D02*
X53077000Y-93198000D01*
%TO.N,VCC_3V3*%
X68000000Y-98500000D02*
X68000000Y-98550000D01*
X67650000Y-98500000D02*
X68000000Y-98500000D01*
%TO.N,SW*%
X97949000Y-81326000D02*
X98275000Y-81000000D01*
X98275000Y-77236213D02*
X93000000Y-71961213D01*
X98325000Y-90500000D02*
X97949000Y-90124000D01*
X52090000Y-70250000D02*
X52090000Y-71500000D01*
X98275000Y-81000000D02*
X98275000Y-77236213D01*
X97949000Y-90124000D02*
X97949000Y-81326000D01*
X53392000Y-68948000D02*
X52090000Y-70250000D01*
X93000000Y-71961213D02*
X93000000Y-69000000D01*
X92948000Y-68948000D02*
X53392000Y-68948000D01*
X93000000Y-69000000D02*
X92948000Y-68948000D01*
%TO.N,GPIO0*%
X86000000Y-97000000D02*
X84825000Y-95825000D01*
X64230000Y-71500000D02*
X62250000Y-71500000D01*
X84825000Y-95500000D02*
X84825000Y-95325000D01*
X84825000Y-95825000D02*
X84825000Y-95500000D01*
X83225000Y-93725000D02*
X83225000Y-92500000D01*
X84825000Y-95325000D02*
X83225000Y-93725000D01*
X66720000Y-73990000D02*
X64230000Y-71500000D01*
X66720000Y-74000000D02*
X66720000Y-73990000D01*
%TO.N,CHIP_PU*%
X78325000Y-92675000D02*
X76725000Y-94275000D01*
X78325000Y-92500000D02*
X78500000Y-92500000D01*
X52725000Y-92000000D02*
X53000000Y-92000000D01*
X76725000Y-94275000D02*
X76725000Y-95500000D01*
X78325000Y-92500000D02*
X78325000Y-92675000D01*
X78500000Y-92500000D02*
X80000000Y-91000000D01*
%TO.N,Net-(D5-A)*%
X75825000Y-86000000D02*
X78600000Y-86000000D01*
%TO.N,Net-(D7-A)*%
X75825000Y-82000000D02*
X78600000Y-82000000D01*
%TO.N,SCL*%
X55500000Y-91500000D02*
X55500000Y-92000000D01*
X50000000Y-90599000D02*
X50666100Y-90599000D01*
X50666100Y-90599000D02*
X51033550Y-90966450D01*
X51067100Y-91000000D02*
X55000000Y-91000000D01*
X55000000Y-91000000D02*
X55500000Y-91500000D01*
X49550000Y-89000000D02*
X49550000Y-90149000D01*
X51033550Y-90966450D02*
X51067100Y-91000000D01*
X73220000Y-75280000D02*
X73220000Y-70500000D01*
X49550000Y-90149000D02*
X50000000Y-90599000D01*
%TO.N,IO41*%
X53500000Y-69815973D02*
X53500000Y-71360000D01*
X53500000Y-71360000D02*
X53360000Y-71500000D01*
%TO.N,IO37*%
X68680000Y-71500000D02*
X66529000Y-69349000D01*
X59641000Y-69349000D02*
X58440000Y-70550000D01*
X66529000Y-69349000D02*
X59641000Y-69349000D01*
X58440000Y-70550000D02*
X58440000Y-71500000D01*
%TO.N,IO39*%
X56000000Y-69820810D02*
X56000000Y-71400000D01*
X56000000Y-71400000D02*
X55900000Y-71500000D01*
%TO.N,IO38*%
X57297000Y-70003000D02*
X57180000Y-70120000D01*
X57180000Y-71490000D02*
X57170000Y-71500000D01*
X57180000Y-70120000D02*
X57180000Y-71490000D01*
%TO.N,IO36*%
X65260000Y-69750000D02*
X60510000Y-69750000D01*
X59710000Y-70550000D02*
X59710000Y-71500000D01*
X67590000Y-72080000D02*
X65260000Y-69750000D01*
X60510000Y-69750000D02*
X59710000Y-70550000D01*
%TO.N,SDA*%
X74760000Y-69500000D02*
X75760000Y-70500000D01*
X72069000Y-69500000D02*
X72069000Y-69349000D01*
X50820000Y-89820000D02*
X51500000Y-90500000D01*
X74371000Y-69349000D02*
X74371000Y-69500000D01*
X51500000Y-90500000D02*
X56000000Y-90500000D01*
X71500000Y-75320603D02*
X71500000Y-70000000D01*
X72069000Y-69349000D02*
X74371000Y-69349000D01*
X74371000Y-69500000D02*
X74760000Y-69500000D01*
X72000000Y-69500000D02*
X72069000Y-69500000D01*
X50820000Y-89000000D02*
X50820000Y-89820000D01*
X71500000Y-70000000D02*
X72000000Y-69500000D01*
%TO.N,IO40*%
X54500000Y-71370000D02*
X54630000Y-71500000D01*
X54500000Y-69821007D02*
X54500000Y-71370000D01*
%TO.N,Net-(USB-C1-CC1)*%
X74000000Y-102399000D02*
X42399000Y-102399000D01*
X74000000Y-98000000D02*
X74000000Y-102399000D01*
X41500000Y-101500000D02*
X41500000Y-96500000D01*
X73000000Y-97000000D02*
X74000000Y-98000000D01*
X42399000Y-102399000D02*
X41500000Y-101500000D01*
X70675000Y-95500000D02*
X72175000Y-97000000D01*
X42500000Y-95500000D02*
X42504682Y-95504682D01*
X72175000Y-97000000D02*
X73000000Y-97000000D01*
X42504682Y-95504682D02*
X44363801Y-95504682D01*
X41500000Y-96500000D02*
X42500000Y-95500000D01*
%TO.N,Net-(R4-Pad1)*%
X99026000Y-88026000D02*
X99026000Y-91474000D01*
X99000000Y-91500000D02*
X97675000Y-91500000D01*
X96675000Y-91675000D02*
X96675000Y-90500000D01*
X98322414Y-93000000D02*
X98000000Y-93000000D01*
X97675000Y-91500000D02*
X96675000Y-90500000D01*
X98575000Y-87575000D02*
X99026000Y-88026000D01*
X99026000Y-91474000D02*
X99000000Y-91500000D01*
X98575000Y-87575000D02*
X98575000Y-83425000D01*
X98000000Y-93000000D02*
X96675000Y-91675000D01*
%TO.N,Net-(R5-Pad1)*%
X82000000Y-90000000D02*
X82000000Y-95000000D01*
X83175000Y-96175000D02*
X86000000Y-99000000D01*
X86497283Y-101497283D02*
X87850000Y-101497283D01*
X82000000Y-95000000D02*
X82500000Y-95500000D01*
X83166342Y-89500000D02*
X82500000Y-89500000D01*
X86000000Y-101000000D02*
X86497283Y-101497283D01*
X82500000Y-89500000D02*
X82000000Y-90000000D01*
X86000000Y-99000000D02*
X86000000Y-101000000D01*
X87850000Y-101497283D02*
X92000000Y-101497283D01*
X83175000Y-95500000D02*
X83175000Y-96175000D01*
X82500000Y-95500000D02*
X83175000Y-95500000D01*
%TO.N,Net-(R7-Pad1)*%
X74500000Y-97500000D02*
X75000000Y-98000000D01*
X78425000Y-101575000D02*
X82575000Y-101575000D01*
X75000000Y-101000000D02*
X75575000Y-101575000D01*
X74500000Y-94500000D02*
X74500000Y-97500000D01*
X76675000Y-89500000D02*
X76675000Y-92500000D01*
X76675000Y-92500000D02*
X76500000Y-92500000D01*
X75575000Y-101575000D02*
X78425000Y-101575000D01*
X75000000Y-98000000D02*
X75000000Y-101000000D01*
X76500000Y-92500000D02*
X74500000Y-94500000D01*
%TO.N,Net-(SPI1-Pin_2)*%
X71001000Y-83176000D02*
X68325000Y-80500000D01*
X92500000Y-90276112D02*
X92500000Y-81476542D01*
X90886905Y-91889207D02*
X92500000Y-90276112D01*
X86673943Y-83176000D02*
X71001000Y-83176000D01*
X91523458Y-80500000D02*
X89349943Y-80500000D01*
X92500000Y-81476542D02*
X91523458Y-80500000D01*
X89349943Y-80500000D02*
X86673943Y-83176000D01*
%TO.N,CS*%
X66675000Y-82325000D02*
X66675000Y-80500000D01*
X63500000Y-83425000D02*
X65575000Y-83425000D01*
X65575000Y-83425000D02*
X66675000Y-82325000D01*
%TO.N,Net-(UESP32-S3-WROOM1-IO35)*%
X64240000Y-70449000D02*
X70690000Y-76899000D01*
X70690000Y-76899000D02*
X74748943Y-76899000D01*
X74748943Y-76899000D02*
X75101000Y-77251057D01*
X61499000Y-70449000D02*
X64240000Y-70449000D01*
X75101000Y-77251057D02*
X75101000Y-81074000D01*
X60980000Y-70968000D02*
X61499000Y-70449000D01*
X75101000Y-81074000D02*
X74175000Y-82000000D01*
X60980000Y-71500000D02*
X60980000Y-70968000D01*
%TO.N,MOSI*%
X59500000Y-90500000D02*
X59710000Y-90290000D01*
X65175000Y-89500000D02*
X66175000Y-88500000D01*
X59710000Y-90290000D02*
X59710000Y-89000000D01*
X59000000Y-90500000D02*
X59500000Y-90500000D01*
X64500000Y-89500000D02*
X65175000Y-89500000D01*
X66175000Y-88500000D02*
X66675000Y-88500000D01*
%TO.N,Net-(SPI1-Pin_5)*%
X86900450Y-86744338D02*
X87656112Y-87500000D01*
X83256147Y-86744338D02*
X86900450Y-86744338D01*
X82500485Y-87500000D02*
X83256147Y-86744338D01*
X69325000Y-87500000D02*
X68325000Y-88500000D01*
X87656112Y-87500000D02*
X90886905Y-84269207D01*
X69325000Y-87500000D02*
X82500485Y-87500000D01*
%TO.N,Net-(SPI1-Pin_6)*%
X68325000Y-84500000D02*
X88116112Y-84500000D01*
X88116112Y-84500000D02*
X90886905Y-81729207D01*
%TO.N,CLK*%
X63500000Y-84695000D02*
X66480000Y-84695000D01*
X66480000Y-84695000D02*
X66675000Y-84500000D01*
%TO.N,DS*%
X65845000Y-82155000D02*
X63500000Y-82155000D01*
X65974000Y-81974000D02*
X66000000Y-82000000D01*
X66485936Y-79500000D02*
X65974000Y-80011936D01*
X74500000Y-79500000D02*
X66485936Y-79500000D01*
X90736112Y-89500000D02*
X90886905Y-89349207D01*
X66000000Y-82000000D02*
X65845000Y-82155000D01*
X88232632Y-89500000D02*
X90736112Y-89500000D01*
X65974000Y-80011936D02*
X65974000Y-81974000D01*
%TO.N,RST*%
X89690793Y-86809207D02*
X90886905Y-86809207D01*
X69401000Y-79099000D02*
X66319836Y-79099000D01*
X64533836Y-80885000D02*
X63500000Y-80885000D01*
X74500000Y-77500000D02*
X74000000Y-77500000D01*
X88250000Y-88250000D02*
X89690793Y-86809207D01*
X74000000Y-77500000D02*
X73000000Y-78500000D01*
X66319836Y-79099000D02*
X64533836Y-80885000D01*
X73000000Y-78500000D02*
X70000000Y-78500000D01*
X70000000Y-78500000D02*
X69401000Y-79099000D01*
%TO.N,BL*%
X73000000Y-77500000D02*
X70000000Y-77500000D01*
X88399000Y-94601000D02*
X88570793Y-94429207D01*
X69000000Y-78500000D02*
X66351736Y-78500000D01*
X66351736Y-78500000D02*
X65236736Y-79615000D01*
X88570793Y-94429207D02*
X90886905Y-94429207D01*
X65236736Y-79615000D02*
X63500000Y-79615000D01*
X70000000Y-77500000D02*
X69000000Y-78500000D01*
%TD*%
%TA.AperFunction,Conductor*%
%TO.N,GND*%
G36*
X57848327Y-90231338D02*
G01*
X57882517Y-90244091D01*
X57942127Y-90250500D01*
X58082351Y-90250499D01*
X58149390Y-90270183D01*
X58195145Y-90322987D01*
X58205089Y-90392145D01*
X58203969Y-90398688D01*
X58199500Y-90421157D01*
X58199500Y-90578846D01*
X58230261Y-90733489D01*
X58230264Y-90733501D01*
X58290602Y-90879172D01*
X58290609Y-90879185D01*
X58378210Y-91010288D01*
X58378213Y-91010292D01*
X58489707Y-91121786D01*
X58489711Y-91121789D01*
X58620814Y-91209390D01*
X58620827Y-91209397D01*
X58766498Y-91269735D01*
X58766503Y-91269737D01*
X58884620Y-91293232D01*
X58921153Y-91300499D01*
X58921156Y-91300500D01*
X58921158Y-91300500D01*
X59078844Y-91300500D01*
X59078845Y-91300499D01*
X59233497Y-91269737D01*
X59377267Y-91210186D01*
X59379172Y-91209397D01*
X59379172Y-91209396D01*
X59379179Y-91209394D01*
X59416193Y-91184662D01*
X59510873Y-91121399D01*
X59571124Y-91102532D01*
X59570997Y-91101562D01*
X59576568Y-91100828D01*
X59577550Y-91100521D01*
X59579002Y-91100507D01*
X59579054Y-91100501D01*
X59579057Y-91100501D01*
X59731785Y-91059577D01*
X59792538Y-91024501D01*
X59868716Y-90980520D01*
X59980520Y-90868716D01*
X59980520Y-90868714D01*
X59990723Y-90858512D01*
X59990727Y-90858506D01*
X60068506Y-90780728D01*
X60068511Y-90780724D01*
X60078714Y-90770520D01*
X60078716Y-90770520D01*
X60190520Y-90658716D01*
X60190527Y-90658702D01*
X60191129Y-90657920D01*
X60191822Y-90657413D01*
X60196267Y-90652969D01*
X60196959Y-90653661D01*
X60247554Y-90616713D01*
X60317300Y-90612553D01*
X60378223Y-90646761D01*
X60394951Y-90668143D01*
X60400235Y-90676682D01*
X60403535Y-90684647D01*
X60425636Y-90717725D01*
X60426781Y-90719574D01*
X60435501Y-90751256D01*
X60445321Y-90782618D01*
X60444728Y-90784778D01*
X60445323Y-90786939D01*
X60435530Y-90818304D01*
X60426836Y-90849998D01*
X60424854Y-90852502D01*
X60424501Y-90853634D01*
X60422895Y-90854978D01*
X60409022Y-90872511D01*
X56997852Y-94283681D01*
X56936529Y-94317166D01*
X56910171Y-94320000D01*
X56245000Y-94320000D01*
X56245000Y-94985172D01*
X56225315Y-95052211D01*
X56208681Y-95072853D01*
X55978353Y-95303181D01*
X55917030Y-95336666D01*
X55890672Y-95339500D01*
X49872629Y-95339500D01*
X49805590Y-95319815D01*
X49759835Y-95267011D01*
X49756447Y-95258833D01*
X49703797Y-95117671D01*
X49703795Y-95117668D01*
X49699020Y-95111289D01*
X49626109Y-95013893D01*
X49601692Y-94948430D01*
X49616543Y-94880157D01*
X49626110Y-94865271D01*
X49703352Y-94762089D01*
X49703354Y-94762086D01*
X49753596Y-94627379D01*
X49753598Y-94627372D01*
X49759999Y-94567844D01*
X49760000Y-94567827D01*
X49760000Y-94480000D01*
X48360000Y-94480000D01*
X48360000Y-94567844D01*
X48366401Y-94627372D01*
X48366403Y-94627379D01*
X48416645Y-94762086D01*
X48416646Y-94762088D01*
X48493890Y-94865272D01*
X48518307Y-94930736D01*
X48503456Y-94999009D01*
X48493890Y-95013894D01*
X48416204Y-95117669D01*
X48416202Y-95117671D01*
X48365908Y-95252517D01*
X48364449Y-95258695D01*
X48329877Y-95319411D01*
X48267967Y-95351799D01*
X48243772Y-95354182D01*
X45556045Y-95354182D01*
X45489006Y-95334497D01*
X45443251Y-95281693D01*
X45432755Y-95216929D01*
X45434301Y-95202555D01*
X45434300Y-94806810D01*
X45434299Y-94806793D01*
X45430121Y-94767935D01*
X45430121Y-94741429D01*
X45434301Y-94702555D01*
X45434300Y-94006810D01*
X45434299Y-94006808D01*
X45434299Y-94006796D01*
X45433795Y-94002108D01*
X45433795Y-94002107D01*
X45433794Y-94002104D01*
X45432725Y-93992155D01*
X48360000Y-93992155D01*
X48360000Y-94080000D01*
X48860000Y-94080000D01*
X49260000Y-94080000D01*
X49760000Y-94080000D01*
X49760000Y-93992172D01*
X49759999Y-93992155D01*
X49753598Y-93932627D01*
X49753596Y-93932620D01*
X49703354Y-93797913D01*
X49703350Y-93797906D01*
X49617190Y-93682812D01*
X49617187Y-93682809D01*
X49502093Y-93596649D01*
X49502086Y-93596645D01*
X49367379Y-93546403D01*
X49367372Y-93546401D01*
X49307844Y-93540000D01*
X49260000Y-93540000D01*
X49260000Y-94080000D01*
X48860000Y-94080000D01*
X48860000Y-93540000D01*
X48812155Y-93540000D01*
X48752627Y-93546401D01*
X48752620Y-93546403D01*
X48617913Y-93596645D01*
X48617906Y-93596649D01*
X48502812Y-93682809D01*
X48502809Y-93682812D01*
X48416649Y-93797906D01*
X48416645Y-93797913D01*
X48366403Y-93932620D01*
X48366401Y-93932627D01*
X48360000Y-93992155D01*
X45432725Y-93992155D01*
X45427892Y-93947198D01*
X45377598Y-93812353D01*
X45377594Y-93812346D01*
X45291348Y-93697137D01*
X45291345Y-93697134D01*
X45176136Y-93610888D01*
X45176129Y-93610884D01*
X45041283Y-93560590D01*
X45041284Y-93560590D01*
X44981684Y-93554183D01*
X44981682Y-93554182D01*
X44981674Y-93554182D01*
X44981666Y-93554182D01*
X43813187Y-93554182D01*
X43746148Y-93534497D01*
X43725506Y-93517863D01*
X43631818Y-93424175D01*
X43631812Y-93424170D01*
X43506289Y-93351699D01*
X43506290Y-93351699D01*
X43487958Y-93346787D01*
X43366276Y-93314182D01*
X43221326Y-93314182D01*
X43099644Y-93346787D01*
X43081312Y-93351699D01*
X42955789Y-93424170D01*
X42955783Y-93424175D01*
X42853294Y-93526664D01*
X42853290Y-93526670D01*
X42837405Y-93554183D01*
X42786837Y-93602398D01*
X42718230Y-93615619D01*
X42682567Y-93606742D01*
X42594501Y-93570264D01*
X42594489Y-93570261D01*
X42439845Y-93539500D01*
X42439842Y-93539500D01*
X42282158Y-93539500D01*
X42282155Y-93539500D01*
X42127510Y-93570261D01*
X42127498Y-93570264D01*
X41981827Y-93630602D01*
X41981814Y-93630609D01*
X41850711Y-93718210D01*
X41850707Y-93718213D01*
X41739213Y-93829707D01*
X41739210Y-93829711D01*
X41651609Y-93960814D01*
X41651602Y-93960827D01*
X41591264Y-94106498D01*
X41591261Y-94106510D01*
X41560500Y-94261153D01*
X41560500Y-94418846D01*
X41591261Y-94573489D01*
X41591264Y-94573501D01*
X41651602Y-94719172D01*
X41651609Y-94719185D01*
X41739210Y-94850288D01*
X41739213Y-94850292D01*
X41850707Y-94961786D01*
X41850711Y-94961789D01*
X41927854Y-95013335D01*
X41972659Y-95066947D01*
X41981366Y-95136272D01*
X41951211Y-95199300D01*
X41946644Y-95204118D01*
X41131286Y-96019478D01*
X41019481Y-96131282D01*
X41019480Y-96131284D01*
X40981796Y-96196555D01*
X40940423Y-96268215D01*
X40899499Y-96420943D01*
X40899499Y-96420945D01*
X40899499Y-96589046D01*
X40899500Y-96589059D01*
X40899500Y-101413330D01*
X40899499Y-101413348D01*
X40899499Y-101579054D01*
X40899498Y-101579054D01*
X40918320Y-101649296D01*
X40940423Y-101731785D01*
X40966307Y-101776617D01*
X40969358Y-101781900D01*
X40969359Y-101781904D01*
X40969360Y-101781904D01*
X41017911Y-101865999D01*
X41019479Y-101868714D01*
X41019481Y-101868717D01*
X41138349Y-101987585D01*
X41138355Y-101987590D01*
X41438584Y-102287819D01*
X41472069Y-102349142D01*
X41467085Y-102418834D01*
X41425213Y-102474767D01*
X41359749Y-102499184D01*
X41350903Y-102499500D01*
X38124500Y-102499500D01*
X38057461Y-102479815D01*
X38011706Y-102427011D01*
X38000500Y-102375500D01*
X38000500Y-91124500D01*
X38020185Y-91057461D01*
X38072989Y-91011706D01*
X38124500Y-91000500D01*
X44565890Y-91000500D01*
X44565892Y-91000500D01*
X44693186Y-90966392D01*
X44807314Y-90900500D01*
X44900500Y-90807314D01*
X44966392Y-90693186D01*
X45000500Y-90565892D01*
X45000500Y-90354263D01*
X45020185Y-90287224D01*
X45072989Y-90241469D01*
X45142147Y-90231525D01*
X45167835Y-90238082D01*
X45182619Y-90243596D01*
X45182627Y-90243598D01*
X45242155Y-90249999D01*
X45242172Y-90250000D01*
X45547499Y-90250000D01*
X45614538Y-90269685D01*
X45660293Y-90322489D01*
X45670237Y-90391647D01*
X45662060Y-90421452D01*
X45610264Y-90546498D01*
X45610261Y-90546510D01*
X45579500Y-90701153D01*
X45579500Y-90858846D01*
X45610261Y-91013489D01*
X45610264Y-91013501D01*
X45670602Y-91159172D01*
X45670609Y-91159185D01*
X45758210Y-91290288D01*
X45758213Y-91290292D01*
X45869707Y-91401786D01*
X45869711Y-91401789D01*
X46000814Y-91489390D01*
X46000827Y-91489397D01*
X46111272Y-91535144D01*
X46146503Y-91549737D01*
X46301153Y-91580499D01*
X46301156Y-91580500D01*
X46301158Y-91580500D01*
X46458844Y-91580500D01*
X46458845Y-91580499D01*
X46613497Y-91549737D01*
X46657570Y-91531480D01*
X46727039Y-91524012D01*
X46789519Y-91555287D01*
X46792704Y-91558361D01*
X47238181Y-92003838D01*
X47271666Y-92065161D01*
X47274500Y-92091518D01*
X47274500Y-92298336D01*
X47274501Y-92298355D01*
X47284650Y-92397707D01*
X47284651Y-92397710D01*
X47337996Y-92558694D01*
X47338001Y-92558705D01*
X47427029Y-92703040D01*
X47427032Y-92703044D01*
X47546955Y-92822967D01*
X47546959Y-92822970D01*
X47691294Y-92911998D01*
X47691297Y-92911999D01*
X47691303Y-92912003D01*
X47852292Y-92965349D01*
X47951655Y-92975500D01*
X48498344Y-92975499D01*
X48498352Y-92975498D01*
X48498355Y-92975498D01*
X48578618Y-92967299D01*
X48597708Y-92965349D01*
X48758697Y-92912003D01*
X48903044Y-92822968D01*
X48912668Y-92813343D01*
X48973987Y-92779856D01*
X49043679Y-92784835D01*
X49088034Y-92813339D01*
X49097267Y-92822572D01*
X49097271Y-92822575D01*
X49241507Y-92911542D01*
X49241518Y-92911547D01*
X49402393Y-92964855D01*
X49501683Y-92974999D01*
X49525000Y-92974998D01*
X49525000Y-92124000D01*
X49544685Y-92056961D01*
X49597489Y-92011206D01*
X49649000Y-92000000D01*
X49901000Y-92000000D01*
X49968039Y-92019685D01*
X50013794Y-92072489D01*
X50025000Y-92124000D01*
X50025000Y-92974999D01*
X50048308Y-92974999D01*
X50048322Y-92974998D01*
X50147607Y-92964855D01*
X50308481Y-92911547D01*
X50308492Y-92911542D01*
X50452728Y-92822575D01*
X50452732Y-92822572D01*
X50572572Y-92702732D01*
X50572575Y-92702728D01*
X50661542Y-92558492D01*
X50661547Y-92558481D01*
X50714856Y-92397606D01*
X50716096Y-92385468D01*
X50742491Y-92320776D01*
X50799671Y-92280624D01*
X50869482Y-92277760D01*
X50908344Y-92294966D01*
X50929937Y-92309394D01*
X50929939Y-92309395D01*
X50929943Y-92309397D01*
X51075614Y-92369735D01*
X51075619Y-92369737D01*
X51215725Y-92397606D01*
X51230269Y-92400499D01*
X51230272Y-92400500D01*
X51230274Y-92400500D01*
X51387959Y-92400500D01*
X51430985Y-92391941D01*
X51459162Y-92386336D01*
X51528754Y-92392563D01*
X51571036Y-92420272D01*
X51631284Y-92480520D01*
X51631286Y-92480521D01*
X51631290Y-92480524D01*
X51766687Y-92558694D01*
X51768216Y-92559577D01*
X51804879Y-92569401D01*
X51864539Y-92605764D01*
X51878321Y-92624073D01*
X51895030Y-92651161D01*
X51927029Y-92703040D01*
X51927032Y-92703044D01*
X52046956Y-92822968D01*
X52046958Y-92822969D01*
X52046959Y-92822970D01*
X52191294Y-92911998D01*
X52191297Y-92911999D01*
X52191303Y-92912003D01*
X52352292Y-92965349D01*
X52451655Y-92975500D01*
X52998344Y-92975499D01*
X52998352Y-92975498D01*
X52998355Y-92975498D01*
X53078618Y-92967299D01*
X53097708Y-92965349D01*
X53258697Y-92912003D01*
X53403044Y-92822968D01*
X53412668Y-92813343D01*
X53473987Y-92779856D01*
X53543679Y-92784835D01*
X53588034Y-92813339D01*
X53597267Y-92822572D01*
X53597271Y-92822575D01*
X53741507Y-92911542D01*
X53741518Y-92911547D01*
X53816090Y-92936258D01*
X53873535Y-92976031D01*
X53900358Y-93040547D01*
X53888043Y-93109322D01*
X53841236Y-93160081D01*
X53709811Y-93239530D01*
X53589530Y-93359811D01*
X53501522Y-93505393D01*
X53450913Y-93667807D01*
X53447062Y-93710188D01*
X53444500Y-93738384D01*
X53444500Y-94401616D01*
X53446065Y-94418842D01*
X53450913Y-94472192D01*
X53450913Y-94472194D01*
X53450914Y-94472196D01*
X53501522Y-94634606D01*
X53583058Y-94769483D01*
X53589530Y-94780188D01*
X53709811Y-94900469D01*
X53709813Y-94900470D01*
X53709815Y-94900472D01*
X53855394Y-94988478D01*
X54017804Y-95039086D01*
X54088384Y-95045500D01*
X54088387Y-95045500D01*
X54601613Y-95045500D01*
X54601616Y-95045500D01*
X54672196Y-95039086D01*
X54834606Y-94988478D01*
X54980185Y-94900472D01*
X55082673Y-94797983D01*
X55143994Y-94764499D01*
X55213685Y-94769483D01*
X55258034Y-94797984D01*
X55360122Y-94900072D01*
X55505604Y-94988019D01*
X55505603Y-94988019D01*
X55667894Y-95038590D01*
X55667893Y-95038590D01*
X55738408Y-95044998D01*
X55738426Y-95044999D01*
X55744999Y-95044998D01*
X55745000Y-95044998D01*
X55745000Y-94194000D01*
X55764685Y-94126961D01*
X55817489Y-94081206D01*
X55869000Y-94070000D01*
X55995000Y-94070000D01*
X55995000Y-93944000D01*
X56014685Y-93876961D01*
X56067489Y-93831206D01*
X56119000Y-93820000D01*
X56894999Y-93820000D01*
X56894999Y-93738417D01*
X56888591Y-93667897D01*
X56888590Y-93667892D01*
X56838018Y-93505603D01*
X56750072Y-93360122D01*
X56654809Y-93264859D01*
X56621324Y-93203536D01*
X56626308Y-93133844D01*
X56663838Y-93081314D01*
X56666896Y-93078803D01*
X56666908Y-93078796D01*
X56778408Y-92967296D01*
X56866013Y-92836186D01*
X56871489Y-92822967D01*
X56889345Y-92779856D01*
X56926356Y-92690504D01*
X56957119Y-92535849D01*
X56957119Y-92378165D01*
X56957119Y-92378162D01*
X56957118Y-92378160D01*
X56946524Y-92324902D01*
X56926356Y-92223510D01*
X56907228Y-92177330D01*
X56866016Y-92077834D01*
X56866009Y-92077821D01*
X56778408Y-91946718D01*
X56778405Y-91946714D01*
X56666911Y-91835220D01*
X56666907Y-91835217D01*
X56535804Y-91747616D01*
X56535791Y-91747609D01*
X56390120Y-91687271D01*
X56390110Y-91687268D01*
X56283272Y-91666016D01*
X56256083Y-91651793D01*
X56227947Y-91639546D01*
X56223760Y-91634885D01*
X56221361Y-91633630D01*
X56204361Y-91613289D01*
X56195816Y-91600501D01*
X56173080Y-91566474D01*
X56121398Y-91489125D01*
X56102534Y-91428877D01*
X56101562Y-91429006D01*
X56100827Y-91423425D01*
X56100521Y-91422448D01*
X56100507Y-91421001D01*
X56100501Y-91420955D01*
X56100501Y-91420943D01*
X56100497Y-91420931D01*
X56099655Y-91414525D01*
X56110419Y-91345489D01*
X56156797Y-91293232D01*
X56198403Y-91276718D01*
X56210778Y-91274256D01*
X56233497Y-91269737D01*
X56377267Y-91210186D01*
X56379172Y-91209397D01*
X56379172Y-91209396D01*
X56379179Y-91209394D01*
X56510289Y-91121789D01*
X56621789Y-91010289D01*
X56709394Y-90879179D01*
X56717955Y-90858512D01*
X56748496Y-90784778D01*
X56769737Y-90733497D01*
X56800500Y-90578842D01*
X56800500Y-90421158D01*
X56796031Y-90398691D01*
X56802257Y-90329101D01*
X56845119Y-90273923D01*
X56911009Y-90250677D01*
X56917648Y-90250499D01*
X57667871Y-90250499D01*
X57667872Y-90250499D01*
X57727483Y-90244091D01*
X57761667Y-90231340D01*
X57831358Y-90226357D01*
X57848327Y-90231338D01*
G37*
%TD.AperFunction*%
%TA.AperFunction,Conductor*%
G36*
X81593941Y-89344185D02*
G01*
X81639696Y-89396989D01*
X81649640Y-89466147D01*
X81620615Y-89529703D01*
X81614583Y-89536181D01*
X81519481Y-89631282D01*
X81519477Y-89631287D01*
X81470261Y-89716534D01*
X81470260Y-89716533D01*
X81440424Y-89768211D01*
X81440423Y-89768215D01*
X81399499Y-89920943D01*
X81399499Y-89920945D01*
X81399499Y-90089046D01*
X81399500Y-90089059D01*
X81399500Y-94913330D01*
X81399499Y-94913348D01*
X81399499Y-95079054D01*
X81399498Y-95079054D01*
X81440423Y-95231785D01*
X81451806Y-95251500D01*
X81451807Y-95251503D01*
X81519475Y-95368709D01*
X81519479Y-95368714D01*
X81519480Y-95368716D01*
X81631284Y-95480520D01*
X81631285Y-95480521D01*
X82131284Y-95980520D01*
X82131286Y-95980521D01*
X82131290Y-95980524D01*
X82198765Y-96019480D01*
X82268216Y-96059577D01*
X82291925Y-96065930D01*
X82351585Y-96102293D01*
X82365945Y-96121549D01*
X82419528Y-96210185D01*
X82539815Y-96330472D01*
X82539817Y-96330473D01*
X82539818Y-96330474D01*
X82563674Y-96344895D01*
X82575111Y-96356970D01*
X82588109Y-96364243D01*
X82602203Y-96385574D01*
X82608966Y-96392714D01*
X82614371Y-96402861D01*
X82615423Y-96406785D01*
X82627797Y-96428217D01*
X82628850Y-96430040D01*
X82628857Y-96430054D01*
X82694475Y-96543709D01*
X82694481Y-96543717D01*
X82813349Y-96662585D01*
X82813355Y-96662590D01*
X85363181Y-99212416D01*
X85396666Y-99273739D01*
X85399500Y-99300097D01*
X85399500Y-100913330D01*
X85399499Y-100913348D01*
X85399499Y-101079054D01*
X85399498Y-101079054D01*
X85440423Y-101231787D01*
X85440424Y-101231788D01*
X85459888Y-101265500D01*
X85519475Y-101368709D01*
X85519481Y-101368717D01*
X85638349Y-101487585D01*
X85638355Y-101487590D01*
X86012422Y-101861657D01*
X86012432Y-101861668D01*
X86016762Y-101865998D01*
X86016763Y-101865999D01*
X86128567Y-101977803D01*
X86128569Y-101977804D01*
X86128573Y-101977807D01*
X86263173Y-102055517D01*
X86265499Y-102056860D01*
X86375408Y-102086310D01*
X86375407Y-102086310D01*
X86386880Y-102089383D01*
X86418225Y-102097783D01*
X86418226Y-102097783D01*
X86843965Y-102097783D01*
X86911004Y-102117468D01*
X86924399Y-102127410D01*
X86934935Y-102136390D01*
X86967454Y-102179829D01*
X87082669Y-102266079D01*
X87090544Y-102269016D01*
X87104754Y-102281127D01*
X87117146Y-102300067D01*
X87133152Y-102316073D01*
X87135908Y-102328742D01*
X87143008Y-102339594D01*
X87143192Y-102362230D01*
X87148004Y-102384346D01*
X87143473Y-102396493D01*
X87143579Y-102409462D01*
X87131495Y-102428605D01*
X87123587Y-102449810D01*
X87113207Y-102457580D01*
X87106286Y-102468546D01*
X87085774Y-102478116D01*
X87067654Y-102491682D01*
X87049798Y-102494903D01*
X87042969Y-102498090D01*
X87036781Y-102497251D01*
X87024320Y-102499500D01*
X83506894Y-102499500D01*
X83439855Y-102479815D01*
X83394100Y-102427011D01*
X83384156Y-102357853D01*
X83413181Y-102294297D01*
X83432582Y-102276234D01*
X83457546Y-102257546D01*
X83543796Y-102142331D01*
X83594091Y-102007483D01*
X83600500Y-101947873D01*
X83600499Y-101202128D01*
X83594091Y-101142517D01*
X83587338Y-101124412D01*
X83543797Y-101007671D01*
X83543793Y-101007664D01*
X83457547Y-100892455D01*
X83457544Y-100892452D01*
X83342335Y-100806206D01*
X83342328Y-100806202D01*
X83207482Y-100755908D01*
X83207483Y-100755908D01*
X83147883Y-100749501D01*
X83147881Y-100749500D01*
X83147873Y-100749500D01*
X83147864Y-100749500D01*
X82002129Y-100749500D01*
X82002123Y-100749501D01*
X81942516Y-100755908D01*
X81807671Y-100806202D01*
X81807664Y-100806206D01*
X81692457Y-100892451D01*
X81692449Y-100892458D01*
X81668232Y-100924810D01*
X81612299Y-100966682D01*
X81568965Y-100974500D01*
X79431035Y-100974500D01*
X79363996Y-100954815D01*
X79331768Y-100924810D01*
X79307550Y-100892458D01*
X79307547Y-100892455D01*
X79307546Y-100892454D01*
X79287033Y-100877098D01*
X79192335Y-100806206D01*
X79192328Y-100806202D01*
X79057482Y-100755908D01*
X79057483Y-100755908D01*
X78997883Y-100749501D01*
X78997881Y-100749500D01*
X78997873Y-100749500D01*
X78997864Y-100749500D01*
X77852129Y-100749500D01*
X77852123Y-100749501D01*
X77792516Y-100755908D01*
X77657671Y-100806202D01*
X77657664Y-100806206D01*
X77542457Y-100892451D01*
X77542449Y-100892458D01*
X77518232Y-100924810D01*
X77462299Y-100966682D01*
X77418965Y-100974500D01*
X75875098Y-100974500D01*
X75845657Y-100965855D01*
X75815671Y-100959332D01*
X75810655Y-100955577D01*
X75808059Y-100954815D01*
X75787417Y-100938181D01*
X75636819Y-100787583D01*
X75603334Y-100726260D01*
X75600500Y-100699902D01*
X75600500Y-99797844D01*
X77400000Y-99797844D01*
X77406401Y-99857372D01*
X77406403Y-99857379D01*
X77456645Y-99992086D01*
X77456649Y-99992093D01*
X77542809Y-100107187D01*
X77542812Y-100107190D01*
X77657906Y-100193350D01*
X77657913Y-100193354D01*
X77792620Y-100243596D01*
X77792627Y-100243598D01*
X77852155Y-100249999D01*
X77852172Y-100250000D01*
X78175000Y-100250000D01*
X78675000Y-100250000D01*
X78997828Y-100250000D01*
X78997844Y-100249999D01*
X79057372Y-100243598D01*
X79057379Y-100243596D01*
X79192086Y-100193354D01*
X79192093Y-100193350D01*
X79307187Y-100107190D01*
X79307190Y-100107187D01*
X79393350Y-99992093D01*
X79393354Y-99992086D01*
X79443596Y-99857379D01*
X79443598Y-99857372D01*
X79449999Y-99797844D01*
X81550000Y-99797844D01*
X81556401Y-99857372D01*
X81556403Y-99857379D01*
X81606645Y-99992086D01*
X81606649Y-99992093D01*
X81692809Y-100107187D01*
X81692812Y-100107190D01*
X81807906Y-100193350D01*
X81807913Y-100193354D01*
X81942620Y-100243596D01*
X81942627Y-100243598D01*
X82002155Y-100249999D01*
X82002172Y-100250000D01*
X82325000Y-100250000D01*
X82825000Y-100250000D01*
X83147828Y-100250000D01*
X83147844Y-100249999D01*
X83207372Y-100243598D01*
X83207379Y-100243596D01*
X83342086Y-100193354D01*
X83342093Y-100193350D01*
X83457187Y-100107190D01*
X83457190Y-100107187D01*
X83543350Y-99992093D01*
X83543354Y-99992086D01*
X83593596Y-99857379D01*
X83593598Y-99857372D01*
X83599999Y-99797844D01*
X83600000Y-99797827D01*
X83600000Y-99675000D01*
X82825000Y-99675000D01*
X82825000Y-100250000D01*
X82325000Y-100250000D01*
X82325000Y-99675000D01*
X81550000Y-99675000D01*
X81550000Y-99797844D01*
X79449999Y-99797844D01*
X79450000Y-99797827D01*
X79450000Y-99675000D01*
X78675000Y-99675000D01*
X78675000Y-100250000D01*
X78175000Y-100250000D01*
X78175000Y-99675000D01*
X77400000Y-99675000D01*
X77400000Y-99797844D01*
X75600500Y-99797844D01*
X75600500Y-99052155D01*
X77400000Y-99052155D01*
X77400000Y-99175000D01*
X78175000Y-99175000D01*
X78675000Y-99175000D01*
X79450000Y-99175000D01*
X79450000Y-99052172D01*
X79449999Y-99052155D01*
X81550000Y-99052155D01*
X81550000Y-99175000D01*
X82325000Y-99175000D01*
X82825000Y-99175000D01*
X83600000Y-99175000D01*
X83600000Y-99052172D01*
X83599999Y-99052155D01*
X83593598Y-98992627D01*
X83593596Y-98992620D01*
X83543354Y-98857913D01*
X83543350Y-98857906D01*
X83457190Y-98742812D01*
X83457187Y-98742809D01*
X83342093Y-98656649D01*
X83342086Y-98656645D01*
X83207379Y-98606403D01*
X83207372Y-98606401D01*
X83147844Y-98600000D01*
X82825000Y-98600000D01*
X82825000Y-99175000D01*
X82325000Y-99175000D01*
X82325000Y-98600000D01*
X82002155Y-98600000D01*
X81942627Y-98606401D01*
X81942620Y-98606403D01*
X81807913Y-98656645D01*
X81807906Y-98656649D01*
X81692812Y-98742809D01*
X81692809Y-98742812D01*
X81606649Y-98857906D01*
X81606645Y-98857913D01*
X81556403Y-98992620D01*
X81556401Y-98992627D01*
X81550000Y-99052155D01*
X79449999Y-99052155D01*
X79443598Y-98992627D01*
X79443596Y-98992620D01*
X79393354Y-98857913D01*
X79393350Y-98857906D01*
X79307190Y-98742812D01*
X79307187Y-98742809D01*
X79192093Y-98656649D01*
X79192086Y-98656645D01*
X79057379Y-98606403D01*
X79057372Y-98606401D01*
X78997844Y-98600000D01*
X78675000Y-98600000D01*
X78675000Y-99175000D01*
X78175000Y-99175000D01*
X78175000Y-98600000D01*
X77852155Y-98600000D01*
X77792627Y-98606401D01*
X77792620Y-98606403D01*
X77657913Y-98656645D01*
X77657906Y-98656649D01*
X77542812Y-98742809D01*
X77542809Y-98742812D01*
X77456649Y-98857906D01*
X77456645Y-98857913D01*
X77406403Y-98992620D01*
X77406401Y-98992627D01*
X77400000Y-99052155D01*
X75600500Y-99052155D01*
X75600500Y-98089060D01*
X75600501Y-98089047D01*
X75600501Y-97920944D01*
X75590632Y-97884112D01*
X75559577Y-97768216D01*
X75550289Y-97752128D01*
X75480524Y-97631290D01*
X75480518Y-97631282D01*
X75136819Y-97287583D01*
X75103334Y-97226260D01*
X75100500Y-97199902D01*
X75100500Y-94800096D01*
X75120185Y-94733057D01*
X75136814Y-94712420D01*
X75990375Y-93858858D01*
X76051696Y-93825375D01*
X76121387Y-93830359D01*
X76177321Y-93872231D01*
X76201738Y-93937695D01*
X76186886Y-94005968D01*
X76185442Y-94008540D01*
X76165424Y-94043212D01*
X76165423Y-94043214D01*
X76165423Y-94043215D01*
X76124499Y-94195943D01*
X76124499Y-94195945D01*
X76124499Y-94364046D01*
X76124500Y-94364059D01*
X76124500Y-94559995D01*
X76104815Y-94627034D01*
X76065600Y-94665532D01*
X76046954Y-94677033D01*
X75927029Y-94796959D01*
X75838001Y-94941294D01*
X75837996Y-94941305D01*
X75784651Y-95102290D01*
X75774500Y-95201647D01*
X75774500Y-95798337D01*
X75774501Y-95798355D01*
X75784650Y-95897707D01*
X75784651Y-95897710D01*
X75837996Y-96058694D01*
X75838001Y-96058705D01*
X75927029Y-96203040D01*
X75927032Y-96203044D01*
X76046955Y-96322967D01*
X76046959Y-96322970D01*
X76191294Y-96411998D01*
X76191297Y-96411999D01*
X76191303Y-96412003D01*
X76352292Y-96465349D01*
X76451655Y-96475500D01*
X76998344Y-96475499D01*
X76998352Y-96475498D01*
X76998355Y-96475498D01*
X77074996Y-96467669D01*
X77097708Y-96465349D01*
X77258697Y-96412003D01*
X77403044Y-96322968D01*
X77412668Y-96313343D01*
X77473987Y-96279856D01*
X77543679Y-96284835D01*
X77588034Y-96313339D01*
X77597267Y-96322572D01*
X77597271Y-96322575D01*
X77741507Y-96411542D01*
X77741518Y-96411547D01*
X77902393Y-96464855D01*
X78001683Y-96474999D01*
X78525000Y-96474999D01*
X78548308Y-96474999D01*
X78548322Y-96474998D01*
X78647607Y-96464855D01*
X78808481Y-96411547D01*
X78808492Y-96411542D01*
X78952728Y-96322575D01*
X78952732Y-96322572D01*
X79072572Y-96202732D01*
X79072575Y-96202728D01*
X79161542Y-96058492D01*
X79161547Y-96058481D01*
X79214855Y-95897606D01*
X79224999Y-95798322D01*
X79225000Y-95798309D01*
X79225000Y-95750000D01*
X78525000Y-95750000D01*
X78525000Y-96474999D01*
X78001683Y-96474999D01*
X78025000Y-96474998D01*
X78025000Y-95250000D01*
X78525000Y-95250000D01*
X79224999Y-95250000D01*
X79224999Y-95201692D01*
X79224998Y-95201677D01*
X79214855Y-95102392D01*
X79161547Y-94941518D01*
X79161542Y-94941507D01*
X79072575Y-94797271D01*
X79072572Y-94797267D01*
X78952732Y-94677427D01*
X78952728Y-94677424D01*
X78808492Y-94588457D01*
X78808481Y-94588452D01*
X78647606Y-94535144D01*
X78548322Y-94525000D01*
X78525000Y-94525000D01*
X78525000Y-95250000D01*
X78025000Y-95250000D01*
X78025000Y-94524999D01*
X78001693Y-94525000D01*
X78001674Y-94525001D01*
X77902392Y-94535144D01*
X77741518Y-94588452D01*
X77741507Y-94588457D01*
X77597271Y-94677424D01*
X77597264Y-94677430D01*
X77588028Y-94686665D01*
X77586208Y-94687658D01*
X77585156Y-94689446D01*
X77555672Y-94704329D01*
X77526703Y-94720146D01*
X77524635Y-94719997D01*
X77522783Y-94720933D01*
X77489942Y-94717514D01*
X77457011Y-94715157D01*
X77454699Y-94713845D01*
X77453289Y-94713699D01*
X77446655Y-94709283D01*
X77422874Y-94695793D01*
X77417521Y-94691509D01*
X77403044Y-94677032D01*
X77387282Y-94667310D01*
X77381361Y-94662571D01*
X77365511Y-94639907D01*
X77347016Y-94619342D01*
X77345768Y-94611676D01*
X77341319Y-94605313D01*
X77340238Y-94577680D01*
X77335797Y-94550379D01*
X77338892Y-94543255D01*
X77338589Y-94535497D01*
X77352619Y-94511665D01*
X77363643Y-94486298D01*
X77371147Y-94478087D01*
X78337417Y-93511819D01*
X78398740Y-93478334D01*
X78425098Y-93475500D01*
X78581613Y-93475500D01*
X78581616Y-93475500D01*
X78652196Y-93469086D01*
X78814606Y-93418478D01*
X78960185Y-93330472D01*
X79080472Y-93210185D01*
X79168478Y-93064606D01*
X79219086Y-92902196D01*
X79225500Y-92831616D01*
X79225500Y-92675097D01*
X79245185Y-92608058D01*
X79261819Y-92587416D01*
X79627446Y-92221789D01*
X80014662Y-91834572D01*
X80075983Y-91801089D01*
X80078150Y-91800638D01*
X80136085Y-91789113D01*
X80233497Y-91769737D01*
X80379179Y-91709394D01*
X80510289Y-91621789D01*
X80621789Y-91510289D01*
X80709394Y-91379179D01*
X80769737Y-91233497D01*
X80800500Y-91078842D01*
X80800500Y-90921158D01*
X80800500Y-90921155D01*
X80800499Y-90921153D01*
X80790823Y-90872511D01*
X80769737Y-90766503D01*
X80750299Y-90719574D01*
X80709397Y-90620827D01*
X80709390Y-90620814D01*
X80621789Y-90489711D01*
X80621786Y-90489707D01*
X80510292Y-90378213D01*
X80510288Y-90378210D01*
X80379185Y-90290609D01*
X80379172Y-90290602D01*
X80233501Y-90230264D01*
X80233489Y-90230261D01*
X80078845Y-90199500D01*
X80078842Y-90199500D01*
X79921158Y-90199500D01*
X79921155Y-90199500D01*
X79766510Y-90230261D01*
X79766498Y-90230264D01*
X79620827Y-90290602D01*
X79620814Y-90290609D01*
X79489711Y-90378210D01*
X79489707Y-90378213D01*
X79378213Y-90489707D01*
X79378210Y-90489711D01*
X79290609Y-90620814D01*
X79290602Y-90620827D01*
X79230264Y-90766498D01*
X79230261Y-90766508D01*
X79199361Y-90921850D01*
X79166976Y-90983761D01*
X79165425Y-90985339D01*
X78662583Y-91488181D01*
X78601260Y-91521666D01*
X78574902Y-91524500D01*
X78068384Y-91524500D01*
X78049145Y-91526248D01*
X77997807Y-91530913D01*
X77835393Y-91581522D01*
X77689811Y-91669530D01*
X77689810Y-91669531D01*
X77587681Y-91771661D01*
X77579735Y-91775999D01*
X77574310Y-91783247D01*
X77549550Y-91792481D01*
X77526358Y-91805146D01*
X77517328Y-91804500D01*
X77508846Y-91807664D01*
X77483025Y-91802047D01*
X77456666Y-91800162D01*
X77447612Y-91794343D01*
X77440573Y-91792812D01*
X77412319Y-91771661D01*
X77311819Y-91671161D01*
X77278334Y-91609838D01*
X77275500Y-91583480D01*
X77275500Y-90416519D01*
X77295185Y-90349480D01*
X77311813Y-90328843D01*
X77412321Y-90228335D01*
X77473640Y-90194853D01*
X77543332Y-90199837D01*
X77587680Y-90228338D01*
X77689811Y-90330469D01*
X77689813Y-90330470D01*
X77689815Y-90330472D01*
X77835394Y-90418478D01*
X77997804Y-90469086D01*
X78068384Y-90475500D01*
X78068387Y-90475500D01*
X78581613Y-90475500D01*
X78581616Y-90475500D01*
X78652196Y-90469086D01*
X78814606Y-90418478D01*
X78960185Y-90330472D01*
X79080472Y-90210185D01*
X79168478Y-90064606D01*
X79219086Y-89902196D01*
X79225500Y-89831616D01*
X79225500Y-89641519D01*
X79245185Y-89574480D01*
X79261819Y-89553838D01*
X79454838Y-89360819D01*
X79516161Y-89327334D01*
X79542519Y-89324500D01*
X81526902Y-89324500D01*
X81593941Y-89344185D01*
G37*
%TD.AperFunction*%
%TA.AperFunction,Conductor*%
G36*
X84034676Y-90199838D02*
G01*
X84079023Y-90228339D01*
X84181153Y-90330469D01*
X84181155Y-90330470D01*
X84181157Y-90330472D01*
X84326736Y-90418478D01*
X84489146Y-90469086D01*
X84559726Y-90475500D01*
X84749823Y-90475500D01*
X84816862Y-90495185D01*
X84837504Y-90511819D01*
X86961181Y-92635496D01*
X86994666Y-92696819D01*
X86997500Y-92723177D01*
X86997500Y-94822370D01*
X86997500Y-94960358D01*
X86997500Y-94960360D01*
X86997499Y-94960360D01*
X87024418Y-95095686D01*
X87024421Y-95095696D01*
X87077222Y-95223171D01*
X87153887Y-95337909D01*
X88720090Y-96904112D01*
X88834828Y-96980777D01*
X88962303Y-97033578D01*
X88962308Y-97033580D01*
X88962312Y-97033580D01*
X88962313Y-97033581D01*
X89097639Y-97060500D01*
X89097642Y-97060500D01*
X93381410Y-97060500D01*
X93474598Y-97041963D01*
X93516742Y-97033580D01*
X93595079Y-97001132D01*
X93644221Y-96980777D01*
X93644222Y-96980776D01*
X93644225Y-96980775D01*
X93758957Y-96904114D01*
X96651252Y-94011819D01*
X96712575Y-93978334D01*
X96738933Y-93975500D01*
X96929027Y-93975500D01*
X96929030Y-93975500D01*
X96999610Y-93969086D01*
X97162020Y-93918478D01*
X97307599Y-93830472D01*
X97347469Y-93790602D01*
X97409733Y-93728339D01*
X97471056Y-93694854D01*
X97540748Y-93699838D01*
X97585095Y-93728339D01*
X97687225Y-93830469D01*
X97687227Y-93830470D01*
X97687229Y-93830472D01*
X97832808Y-93918478D01*
X97995218Y-93969086D01*
X98065798Y-93975500D01*
X98065801Y-93975500D01*
X98579027Y-93975500D01*
X98579030Y-93975500D01*
X98649610Y-93969086D01*
X98812020Y-93918478D01*
X98957599Y-93830472D01*
X99077886Y-93710185D01*
X99165892Y-93564606D01*
X99216500Y-93402196D01*
X99222914Y-93331616D01*
X99222914Y-92668384D01*
X99216500Y-92597804D01*
X99165892Y-92435394D01*
X99077886Y-92289815D01*
X99077884Y-92289813D01*
X99077883Y-92289811D01*
X99073257Y-92283906D01*
X99075132Y-92282436D01*
X99064899Y-92263697D01*
X99048146Y-92235291D01*
X99048227Y-92233164D01*
X99047209Y-92231299D01*
X99049560Y-92198422D01*
X99050824Y-92165472D01*
X99052041Y-92163728D01*
X99052193Y-92161607D01*
X99071946Y-92135219D01*
X99090823Y-92108185D01*
X99093016Y-92107074D01*
X99094065Y-92105674D01*
X99121224Y-92090255D01*
X99128576Y-92087231D01*
X99231785Y-92059577D01*
X99287314Y-92027517D01*
X99320688Y-92008248D01*
X99328349Y-92005099D01*
X99355179Y-92002286D01*
X99381398Y-91995925D01*
X99389409Y-91998697D01*
X99397838Y-91997814D01*
X99421929Y-92009952D01*
X99447426Y-92018777D01*
X99452665Y-92025439D01*
X99460234Y-92029253D01*
X99473938Y-92052489D01*
X99490617Y-92073697D01*
X99492641Y-92084199D01*
X99495729Y-92089435D01*
X99495383Y-92098429D01*
X99499500Y-92119785D01*
X99499500Y-100495933D01*
X99499235Y-100504043D01*
X99482925Y-100752883D01*
X99480807Y-100768964D01*
X99432954Y-101009535D01*
X99428756Y-101025202D01*
X99349909Y-101257479D01*
X99343702Y-101272465D01*
X99235212Y-101492460D01*
X99227102Y-101506507D01*
X99090825Y-101710460D01*
X99080951Y-101723328D01*
X98919218Y-101907749D01*
X98907749Y-101919218D01*
X98723328Y-102080951D01*
X98710460Y-102090825D01*
X98506507Y-102227102D01*
X98492460Y-102235212D01*
X98272465Y-102343702D01*
X98257479Y-102349909D01*
X98025202Y-102428756D01*
X98009535Y-102432954D01*
X97768964Y-102480807D01*
X97752883Y-102482925D01*
X97504043Y-102499235D01*
X97495933Y-102499500D01*
X92825680Y-102499500D01*
X92758641Y-102479815D01*
X92712886Y-102427011D01*
X92702942Y-102357853D01*
X92731967Y-102294297D01*
X92760289Y-102271473D01*
X92760231Y-102271395D01*
X92762428Y-102269750D01*
X92766253Y-102266668D01*
X92767325Y-102266080D01*
X92767331Y-102266079D01*
X92882546Y-102179829D01*
X92968796Y-102064614D01*
X93019091Y-101929766D01*
X93025500Y-101870156D01*
X93025499Y-101124411D01*
X93019091Y-101064800D01*
X93016738Y-101058492D01*
X92968797Y-100929954D01*
X92968793Y-100929947D01*
X92882547Y-100814738D01*
X92882544Y-100814735D01*
X92767335Y-100728489D01*
X92767328Y-100728485D01*
X92632482Y-100678191D01*
X92632483Y-100678191D01*
X92572883Y-100671784D01*
X92572881Y-100671783D01*
X92572873Y-100671783D01*
X92572864Y-100671783D01*
X91427129Y-100671783D01*
X91427123Y-100671784D01*
X91367516Y-100678191D01*
X91232671Y-100728485D01*
X91232664Y-100728489D01*
X91117457Y-100814734D01*
X91117449Y-100814741D01*
X91093232Y-100847093D01*
X91037299Y-100888965D01*
X90993965Y-100896783D01*
X88856035Y-100896783D01*
X88788996Y-100877098D01*
X88756768Y-100847093D01*
X88732550Y-100814741D01*
X88732547Y-100814738D01*
X88732546Y-100814737D01*
X88721150Y-100806206D01*
X88617335Y-100728489D01*
X88617328Y-100728485D01*
X88482482Y-100678191D01*
X88482483Y-100678191D01*
X88422883Y-100671784D01*
X88422881Y-100671783D01*
X88422873Y-100671783D01*
X88422864Y-100671783D01*
X87277129Y-100671783D01*
X87277123Y-100671784D01*
X87217516Y-100678191D01*
X87082671Y-100728485D01*
X87082664Y-100728489D01*
X86967457Y-100814734D01*
X86967449Y-100814741D01*
X86943232Y-100847093D01*
X86939576Y-100849829D01*
X86937678Y-100853986D01*
X86911862Y-100870576D01*
X86887299Y-100888965D01*
X86881668Y-100889980D01*
X86878900Y-100891760D01*
X86843965Y-100896783D01*
X86797380Y-100896783D01*
X86730341Y-100877098D01*
X86709699Y-100860464D01*
X86636819Y-100787584D01*
X86603334Y-100726261D01*
X86600500Y-100699903D01*
X86600500Y-99847873D01*
X86620185Y-99780834D01*
X86672989Y-99735079D01*
X86742147Y-99725135D01*
X86805703Y-99754160D01*
X86840682Y-99804540D01*
X86881645Y-99914369D01*
X86881649Y-99914376D01*
X86967809Y-100029470D01*
X86967812Y-100029473D01*
X87082906Y-100115633D01*
X87082913Y-100115637D01*
X87217620Y-100165879D01*
X87217627Y-100165881D01*
X87277155Y-100172282D01*
X87277172Y-100172283D01*
X87600000Y-100172283D01*
X88100000Y-100172283D01*
X88422828Y-100172283D01*
X88422844Y-100172282D01*
X88482372Y-100165881D01*
X88482379Y-100165879D01*
X88617086Y-100115637D01*
X88617093Y-100115633D01*
X88732187Y-100029473D01*
X88732190Y-100029470D01*
X88818350Y-99914376D01*
X88818354Y-99914369D01*
X88868596Y-99779662D01*
X88868598Y-99779655D01*
X88874999Y-99720127D01*
X90975000Y-99720127D01*
X90981401Y-99779655D01*
X90981403Y-99779662D01*
X91031645Y-99914369D01*
X91031649Y-99914376D01*
X91117809Y-100029470D01*
X91117812Y-100029473D01*
X91232906Y-100115633D01*
X91232913Y-100115637D01*
X91367620Y-100165879D01*
X91367627Y-100165881D01*
X91427155Y-100172282D01*
X91427172Y-100172283D01*
X91750000Y-100172283D01*
X92250000Y-100172283D01*
X92572828Y-100172283D01*
X92572844Y-100172282D01*
X92632372Y-100165881D01*
X92632379Y-100165879D01*
X92767086Y-100115637D01*
X92767093Y-100115633D01*
X92882187Y-100029473D01*
X92882190Y-100029470D01*
X92968350Y-99914376D01*
X92968354Y-99914369D01*
X93018596Y-99779662D01*
X93018598Y-99779655D01*
X93024999Y-99720127D01*
X93025000Y-99720110D01*
X93025000Y-99597283D01*
X92250000Y-99597283D01*
X92250000Y-100172283D01*
X91750000Y-100172283D01*
X91750000Y-99597283D01*
X90975000Y-99597283D01*
X90975000Y-99720127D01*
X88874999Y-99720127D01*
X88875000Y-99720110D01*
X88875000Y-99597283D01*
X88100000Y-99597283D01*
X88100000Y-100172283D01*
X87600000Y-100172283D01*
X87600000Y-99348336D01*
X93799500Y-99348336D01*
X93799500Y-99651663D01*
X93833457Y-99953048D01*
X93833459Y-99953060D01*
X93833460Y-99953063D01*
X93842233Y-99991500D01*
X93900953Y-100248771D01*
X93900957Y-100248783D01*
X94001133Y-100535068D01*
X94132733Y-100808338D01*
X94158804Y-100849829D01*
X94294108Y-101065164D01*
X94483221Y-101302304D01*
X94697696Y-101516779D01*
X94934836Y-101705892D01*
X95191659Y-101867265D01*
X95191661Y-101867266D01*
X95197662Y-101870156D01*
X95464935Y-101998868D01*
X95630667Y-102056860D01*
X95751216Y-102099042D01*
X95751228Y-102099046D01*
X96046937Y-102166540D01*
X96046946Y-102166541D01*
X96046951Y-102166542D01*
X96224443Y-102186540D01*
X96348337Y-102200499D01*
X96348340Y-102200500D01*
X96348343Y-102200500D01*
X96651660Y-102200500D01*
X96651661Y-102200499D01*
X96805694Y-102183144D01*
X96953048Y-102166542D01*
X96953051Y-102166541D01*
X96953063Y-102166540D01*
X97248772Y-102099046D01*
X97535065Y-101998868D01*
X97808341Y-101867265D01*
X98065164Y-101705892D01*
X98302304Y-101516779D01*
X98516779Y-101302304D01*
X98705892Y-101065164D01*
X98867265Y-100808341D01*
X98998868Y-100535065D01*
X99099046Y-100248772D01*
X99166540Y-99953063D01*
X99166579Y-99952722D01*
X99200499Y-99651663D01*
X99200500Y-99651659D01*
X99200500Y-99348340D01*
X99200499Y-99348336D01*
X99166542Y-99046951D01*
X99166541Y-99046946D01*
X99166540Y-99046937D01*
X99099046Y-98751228D01*
X98998868Y-98464935D01*
X98867265Y-98191659D01*
X98705892Y-97934836D01*
X98516779Y-97697696D01*
X98302304Y-97483221D01*
X98065164Y-97294108D01*
X97832388Y-97147845D01*
X97808338Y-97132733D01*
X97535068Y-97001133D01*
X97248783Y-96900957D01*
X97248771Y-96900953D01*
X96975508Y-96838583D01*
X96953063Y-96833460D01*
X96953060Y-96833459D01*
X96953048Y-96833457D01*
X96651663Y-96799500D01*
X96651657Y-96799500D01*
X96348343Y-96799500D01*
X96348336Y-96799500D01*
X96046951Y-96833457D01*
X96046937Y-96833460D01*
X95751228Y-96900953D01*
X95751216Y-96900957D01*
X95464931Y-97001133D01*
X95191661Y-97132733D01*
X94934837Y-97294107D01*
X94697696Y-97483220D01*
X94483220Y-97697696D01*
X94294107Y-97934837D01*
X94132733Y-98191661D01*
X94001133Y-98464931D01*
X93900957Y-98751216D01*
X93900953Y-98751228D01*
X93833460Y-99046937D01*
X93833457Y-99046951D01*
X93799500Y-99348336D01*
X87600000Y-99348336D01*
X87600000Y-99097283D01*
X88100000Y-99097283D01*
X88875000Y-99097283D01*
X88875000Y-98974455D01*
X88874999Y-98974438D01*
X90975000Y-98974438D01*
X90975000Y-99097283D01*
X91750000Y-99097283D01*
X92250000Y-99097283D01*
X93025000Y-99097283D01*
X93025000Y-98974455D01*
X93024999Y-98974438D01*
X93018598Y-98914910D01*
X93018596Y-98914903D01*
X92968354Y-98780196D01*
X92968350Y-98780189D01*
X92882190Y-98665095D01*
X92882187Y-98665092D01*
X92767093Y-98578932D01*
X92767086Y-98578928D01*
X92632379Y-98528686D01*
X92632372Y-98528684D01*
X92572844Y-98522283D01*
X92250000Y-98522283D01*
X92250000Y-99097283D01*
X91750000Y-99097283D01*
X91750000Y-98522283D01*
X91427155Y-98522283D01*
X91367627Y-98528684D01*
X91367620Y-98528686D01*
X91232913Y-98578928D01*
X91232906Y-98578932D01*
X91117812Y-98665092D01*
X91117809Y-98665095D01*
X91031649Y-98780189D01*
X91031645Y-98780196D01*
X90981403Y-98914903D01*
X90981401Y-98914910D01*
X90975000Y-98974438D01*
X88874999Y-98974438D01*
X88868598Y-98914910D01*
X88868596Y-98914903D01*
X88818354Y-98780196D01*
X88818350Y-98780189D01*
X88732190Y-98665095D01*
X88732187Y-98665092D01*
X88617093Y-98578932D01*
X88617086Y-98578928D01*
X88482379Y-98528686D01*
X88482372Y-98528684D01*
X88422844Y-98522283D01*
X88100000Y-98522283D01*
X88100000Y-99097283D01*
X87600000Y-99097283D01*
X87600000Y-98522283D01*
X87277155Y-98522283D01*
X87217627Y-98528684D01*
X87217620Y-98528686D01*
X87082913Y-98578928D01*
X87082906Y-98578932D01*
X86967812Y-98665092D01*
X86967809Y-98665095D01*
X86881649Y-98780189D01*
X86881646Y-98780194D01*
X86831650Y-98914241D01*
X86815722Y-98935516D01*
X86802928Y-98958809D01*
X86795108Y-98963052D01*
X86789778Y-98970174D01*
X86764877Y-98979461D01*
X86741520Y-98992139D01*
X86732649Y-98991482D01*
X86724314Y-98994591D01*
X86698344Y-98988941D01*
X86671842Y-98986979D01*
X86664734Y-98981630D01*
X86656041Y-98979739D01*
X86637248Y-98960946D01*
X86616014Y-98944967D01*
X86611080Y-98934778D01*
X86606636Y-98930334D01*
X86599177Y-98913947D01*
X86597181Y-98908554D01*
X86559577Y-98768215D01*
X86524892Y-98708139D01*
X86480520Y-98631284D01*
X86368716Y-98519480D01*
X86368715Y-98519479D01*
X86364385Y-98515149D01*
X86364374Y-98515139D01*
X85861416Y-98012181D01*
X85827931Y-97950858D01*
X85832915Y-97881166D01*
X85874787Y-97825233D01*
X85940251Y-97800816D01*
X85949097Y-97800500D01*
X86078844Y-97800500D01*
X86078845Y-97800499D01*
X86233497Y-97769737D01*
X86379179Y-97709394D01*
X86510289Y-97621789D01*
X86621789Y-97510289D01*
X86709394Y-97379179D01*
X86718911Y-97356204D01*
X86737893Y-97310375D01*
X86769737Y-97233497D01*
X86800500Y-97078842D01*
X86800500Y-96921158D01*
X86800500Y-96921155D01*
X86800499Y-96921153D01*
X86789070Y-96863696D01*
X86769737Y-96766503D01*
X86755884Y-96733058D01*
X86709397Y-96620827D01*
X86709390Y-96620814D01*
X86621789Y-96489711D01*
X86621786Y-96489707D01*
X86510292Y-96378213D01*
X86510288Y-96378210D01*
X86379185Y-96290609D01*
X86379172Y-96290602D01*
X86233501Y-96230264D01*
X86233491Y-96230261D01*
X86078149Y-96199361D01*
X86016238Y-96166976D01*
X86014660Y-96165425D01*
X85761819Y-95912584D01*
X85728334Y-95851261D01*
X85725500Y-95824903D01*
X85725500Y-95168383D01*
X85719494Y-95102292D01*
X85719086Y-95097804D01*
X85668478Y-94935394D01*
X85580472Y-94789815D01*
X85580470Y-94789813D01*
X85580469Y-94789811D01*
X85460188Y-94669530D01*
X85448676Y-94662571D01*
X85314606Y-94581522D01*
X85152196Y-94530914D01*
X85152194Y-94530913D01*
X85152192Y-94530913D01*
X85102778Y-94526423D01*
X85081616Y-94524500D01*
X85081613Y-94524500D01*
X84925098Y-94524500D01*
X84858059Y-94504815D01*
X84837417Y-94488181D01*
X83871159Y-93521923D01*
X83863557Y-93508001D01*
X83851985Y-93497154D01*
X83847156Y-93477966D01*
X83837674Y-93460600D01*
X83838805Y-93444777D01*
X83834935Y-93429396D01*
X83841246Y-93410644D01*
X83842658Y-93390908D01*
X83852439Y-93377391D01*
X83857224Y-93363177D01*
X83874586Y-93346787D01*
X83881361Y-93337427D01*
X83887273Y-93332695D01*
X83903044Y-93322968D01*
X83917531Y-93308480D01*
X83922874Y-93304205D01*
X83949111Y-93293441D01*
X83973987Y-93279856D01*
X83981004Y-93280357D01*
X83987516Y-93277686D01*
X84015400Y-93282814D01*
X84043679Y-93284835D01*
X84050613Y-93289291D01*
X84056233Y-93290325D01*
X84064978Y-93298522D01*
X84088034Y-93313339D01*
X84097267Y-93322572D01*
X84097271Y-93322575D01*
X84241507Y-93411542D01*
X84241518Y-93411547D01*
X84402393Y-93464855D01*
X84501683Y-93474999D01*
X85025000Y-93474999D01*
X85048308Y-93474999D01*
X85048322Y-93474998D01*
X85147607Y-93464855D01*
X85308481Y-93411547D01*
X85308492Y-93411542D01*
X85452728Y-93322575D01*
X85452732Y-93322572D01*
X85572572Y-93202732D01*
X85572575Y-93202728D01*
X85661542Y-93058492D01*
X85661547Y-93058481D01*
X85714855Y-92897606D01*
X85724999Y-92798322D01*
X85725000Y-92798309D01*
X85725000Y-92750000D01*
X85025000Y-92750000D01*
X85025000Y-93474999D01*
X84501683Y-93474999D01*
X84525000Y-93474998D01*
X84525000Y-92250000D01*
X85025000Y-92250000D01*
X85724999Y-92250000D01*
X85724999Y-92201692D01*
X85724998Y-92201677D01*
X85714855Y-92102392D01*
X85661547Y-91941518D01*
X85661542Y-91941507D01*
X85572575Y-91797271D01*
X85572572Y-91797267D01*
X85452732Y-91677427D01*
X85452728Y-91677424D01*
X85308492Y-91588457D01*
X85308481Y-91588452D01*
X85147606Y-91535144D01*
X85048322Y-91525000D01*
X85025000Y-91525000D01*
X85025000Y-92250000D01*
X84525000Y-92250000D01*
X84525000Y-91524999D01*
X84501693Y-91525000D01*
X84501674Y-91525001D01*
X84402392Y-91535144D01*
X84241518Y-91588452D01*
X84241507Y-91588457D01*
X84097271Y-91677424D01*
X84097265Y-91677428D01*
X84088031Y-91686663D01*
X84026707Y-91720146D01*
X83957015Y-91715159D01*
X83912672Y-91686660D01*
X83903044Y-91677032D01*
X83903040Y-91677029D01*
X83758705Y-91588001D01*
X83758699Y-91587998D01*
X83758697Y-91587997D01*
X83758694Y-91587996D01*
X83597709Y-91534651D01*
X83498346Y-91524500D01*
X82951662Y-91524500D01*
X82951644Y-91524501D01*
X82852292Y-91534650D01*
X82852289Y-91534651D01*
X82763504Y-91564072D01*
X82693675Y-91566474D01*
X82633634Y-91530742D01*
X82602441Y-91468221D01*
X82600500Y-91446366D01*
X82600500Y-90563241D01*
X82620185Y-90496202D01*
X82672989Y-90450447D01*
X82742147Y-90440503D01*
X82761378Y-90444853D01*
X82839146Y-90469086D01*
X82909726Y-90475500D01*
X82909729Y-90475500D01*
X83422955Y-90475500D01*
X83422958Y-90475500D01*
X83493538Y-90469086D01*
X83655948Y-90418478D01*
X83801527Y-90330472D01*
X83852143Y-90279856D01*
X83903661Y-90228339D01*
X83964984Y-90194854D01*
X84034676Y-90199838D01*
G37*
%TD.AperFunction*%
%TA.AperFunction,Conductor*%
G36*
X47577899Y-99874867D02*
G01*
X47623654Y-99927671D01*
X47633598Y-99996829D01*
X47628566Y-100018187D01*
X47600661Y-100102394D01*
X47590518Y-100201677D01*
X47590518Y-100250000D01*
X48416518Y-100250000D01*
X48483557Y-100269685D01*
X48529312Y-100322489D01*
X48540518Y-100374000D01*
X48540518Y-100500000D01*
X48666518Y-100500000D01*
X48733557Y-100519685D01*
X48779312Y-100572489D01*
X48790518Y-100624000D01*
X48790518Y-101474999D01*
X48813826Y-101474999D01*
X48813840Y-101474998D01*
X48913125Y-101464855D01*
X49073999Y-101411547D01*
X49074010Y-101411542D01*
X49218249Y-101322573D01*
X49227477Y-101313345D01*
X49288797Y-101279856D01*
X49358489Y-101284835D01*
X49402845Y-101313339D01*
X49412473Y-101322967D01*
X49412477Y-101322970D01*
X49556812Y-101411998D01*
X49556815Y-101411999D01*
X49556821Y-101412003D01*
X49717810Y-101465349D01*
X49817173Y-101475500D01*
X50363862Y-101475499D01*
X50363870Y-101475498D01*
X50363873Y-101475498D01*
X50418278Y-101469940D01*
X50463226Y-101465349D01*
X50624215Y-101412003D01*
X50768562Y-101322968D01*
X50854711Y-101236819D01*
X50916034Y-101203334D01*
X50942392Y-101200500D01*
X53873126Y-101200500D01*
X53940165Y-101220185D01*
X53960807Y-101236819D01*
X54046955Y-101322967D01*
X54046959Y-101322970D01*
X54191294Y-101411998D01*
X54191297Y-101411999D01*
X54191303Y-101412003D01*
X54352292Y-101465349D01*
X54451655Y-101475500D01*
X54998344Y-101475499D01*
X54998352Y-101475498D01*
X54998355Y-101475498D01*
X55052760Y-101469940D01*
X55097708Y-101465349D01*
X55258697Y-101412003D01*
X55403044Y-101322968D01*
X55412668Y-101313343D01*
X55473987Y-101279856D01*
X55543679Y-101284835D01*
X55588034Y-101313339D01*
X55597267Y-101322572D01*
X55597271Y-101322575D01*
X55741507Y-101411542D01*
X55741518Y-101411547D01*
X55902393Y-101464855D01*
X56001683Y-101474999D01*
X56525000Y-101474999D01*
X56548308Y-101474999D01*
X56548322Y-101474998D01*
X56647607Y-101464855D01*
X56808481Y-101411547D01*
X56808492Y-101411542D01*
X56952728Y-101322575D01*
X56952732Y-101322572D01*
X57072572Y-101202732D01*
X57072575Y-101202728D01*
X57161542Y-101058492D01*
X57161547Y-101058481D01*
X57214855Y-100897606D01*
X57224999Y-100798322D01*
X57225000Y-100798309D01*
X57225000Y-100750000D01*
X56525000Y-100750000D01*
X56525000Y-101474999D01*
X56001683Y-101474999D01*
X56025000Y-101474998D01*
X56025000Y-100624000D01*
X56044685Y-100556961D01*
X56097489Y-100511206D01*
X56149000Y-100500000D01*
X56275000Y-100500000D01*
X56275000Y-100374000D01*
X56294685Y-100306961D01*
X56347489Y-100261206D01*
X56399000Y-100250000D01*
X57182981Y-100250000D01*
X57250020Y-100269685D01*
X57270662Y-100286319D01*
X58328453Y-101344111D01*
X58328454Y-101344112D01*
X58443192Y-101420777D01*
X58570667Y-101473578D01*
X58570672Y-101473580D01*
X58570676Y-101473580D01*
X58570677Y-101473581D01*
X58706003Y-101500500D01*
X58706006Y-101500500D01*
X58706007Y-101500500D01*
X59832260Y-101500500D01*
X59847496Y-101504974D01*
X59863371Y-101504466D01*
X59880335Y-101514616D01*
X59899299Y-101520185D01*
X59910432Y-101532625D01*
X59923327Y-101540341D01*
X59943349Y-101569407D01*
X59968146Y-101619407D01*
X59980297Y-101688212D01*
X59953320Y-101752663D01*
X59895780Y-101792299D01*
X59857057Y-101798500D01*
X42699097Y-101798500D01*
X42632058Y-101778815D01*
X42611416Y-101762181D01*
X42136819Y-101287584D01*
X42103334Y-101226261D01*
X42100500Y-101199903D01*
X42100500Y-100798322D01*
X47590519Y-100798322D01*
X47600662Y-100897607D01*
X47653970Y-101058481D01*
X47653975Y-101058492D01*
X47742942Y-101202728D01*
X47742945Y-101202732D01*
X47862785Y-101322572D01*
X47862789Y-101322575D01*
X48007025Y-101411542D01*
X48007036Y-101411547D01*
X48167911Y-101464855D01*
X48267201Y-101474999D01*
X48290518Y-101474998D01*
X48290518Y-100750000D01*
X47590519Y-100750000D01*
X47590519Y-100798322D01*
X42100500Y-100798322D01*
X42100500Y-100075460D01*
X42120185Y-100008421D01*
X42172989Y-99962666D01*
X42242147Y-99952722D01*
X42248680Y-99953840D01*
X42269665Y-99958015D01*
X42282157Y-99960500D01*
X42282158Y-99960500D01*
X42439844Y-99960500D01*
X42439845Y-99960499D01*
X42594497Y-99929737D01*
X42678206Y-99895063D01*
X42747672Y-99887595D01*
X42810151Y-99918870D01*
X42833043Y-99947625D01*
X42835986Y-99952722D01*
X42853292Y-99982697D01*
X42955786Y-100085191D01*
X42955787Y-100085192D01*
X42955789Y-100085193D01*
X43081312Y-100157664D01*
X43081313Y-100157664D01*
X43081316Y-100157666D01*
X43221326Y-100195182D01*
X43221329Y-100195182D01*
X43366273Y-100195182D01*
X43366276Y-100195182D01*
X43506286Y-100157666D01*
X43631816Y-100085191D01*
X43725507Y-99991500D01*
X43786830Y-99958015D01*
X43813188Y-99955181D01*
X44981672Y-99955181D01*
X44981673Y-99955181D01*
X45041284Y-99948773D01*
X45176132Y-99898478D01*
X45200929Y-99879915D01*
X45266393Y-99855498D01*
X45275240Y-99855182D01*
X47510860Y-99855182D01*
X47577899Y-99874867D01*
G37*
%TD.AperFunction*%
%TA.AperFunction,Conductor*%
G36*
X72766942Y-97620185D02*
G01*
X72787584Y-97636819D01*
X73363181Y-98212416D01*
X73396666Y-98273739D01*
X73399500Y-98300097D01*
X73399500Y-101674500D01*
X73379815Y-101741539D01*
X73327011Y-101787294D01*
X73275500Y-101798500D01*
X72960678Y-101798500D01*
X72893639Y-101778815D01*
X72847884Y-101726011D01*
X72837940Y-101656853D01*
X72855140Y-101609403D01*
X72886542Y-101558492D01*
X72886547Y-101558481D01*
X72939855Y-101397606D01*
X72949999Y-101298322D01*
X72950000Y-101298309D01*
X72950000Y-101250000D01*
X72124000Y-101250000D01*
X72056961Y-101230315D01*
X72011206Y-101177511D01*
X72000000Y-101126000D01*
X72000000Y-101000000D01*
X71874000Y-101000000D01*
X71806961Y-100980315D01*
X71761206Y-100927511D01*
X71750000Y-100876000D01*
X71750000Y-100750000D01*
X72250000Y-100750000D01*
X72949999Y-100750000D01*
X72949999Y-100701692D01*
X72949998Y-100701677D01*
X72939855Y-100602392D01*
X72886547Y-100441518D01*
X72886542Y-100441507D01*
X72797575Y-100297271D01*
X72797572Y-100297267D01*
X72677732Y-100177427D01*
X72677728Y-100177424D01*
X72533492Y-100088457D01*
X72533481Y-100088452D01*
X72372606Y-100035144D01*
X72273322Y-100025000D01*
X72250000Y-100025000D01*
X72250000Y-100750000D01*
X71750000Y-100750000D01*
X71750000Y-100024999D01*
X71726693Y-100025000D01*
X71726674Y-100025001D01*
X71627392Y-100035144D01*
X71466518Y-100088452D01*
X71466507Y-100088457D01*
X71322271Y-100177424D01*
X71322265Y-100177428D01*
X71313031Y-100186663D01*
X71251707Y-100220146D01*
X71182015Y-100215159D01*
X71137672Y-100186660D01*
X71128044Y-100177032D01*
X71128040Y-100177029D01*
X70983705Y-100088001D01*
X70983699Y-100087998D01*
X70983697Y-100087997D01*
X70972628Y-100084329D01*
X70822709Y-100034651D01*
X70723352Y-100024500D01*
X70216519Y-100024500D01*
X70149480Y-100004815D01*
X70128838Y-99988181D01*
X69186818Y-99046161D01*
X69153333Y-98984838D01*
X69150499Y-98958480D01*
X69150499Y-98100518D01*
X69170184Y-98033479D01*
X69222988Y-97987724D01*
X69292146Y-97977780D01*
X69355702Y-98006805D01*
X69362180Y-98012837D01*
X69568842Y-98219499D01*
X69602327Y-98280822D01*
X69604450Y-98293924D01*
X69605907Y-98307478D01*
X69605907Y-98307480D01*
X69656202Y-98442328D01*
X69656206Y-98442335D01*
X69742452Y-98557544D01*
X69742455Y-98557547D01*
X69857664Y-98643793D01*
X69857671Y-98643797D01*
X69892119Y-98656645D01*
X69992517Y-98694091D01*
X70052127Y-98700500D01*
X70627872Y-98700499D01*
X70687483Y-98694091D01*
X70822331Y-98643796D01*
X70926106Y-98566109D01*
X70991570Y-98541692D01*
X71059843Y-98556543D01*
X71074729Y-98566110D01*
X71177910Y-98643352D01*
X71177913Y-98643354D01*
X71312620Y-98693596D01*
X71312627Y-98693598D01*
X71372155Y-98699999D01*
X71372172Y-98700000D01*
X71460000Y-98700000D01*
X71860000Y-98700000D01*
X71947828Y-98700000D01*
X71947844Y-98699999D01*
X72007372Y-98693598D01*
X72007379Y-98693596D01*
X72142086Y-98643354D01*
X72142093Y-98643350D01*
X72257187Y-98557190D01*
X72257190Y-98557187D01*
X72343350Y-98442093D01*
X72343354Y-98442086D01*
X72393596Y-98307379D01*
X72393598Y-98307372D01*
X72399999Y-98247844D01*
X72400000Y-98247827D01*
X72400000Y-98200000D01*
X71860000Y-98200000D01*
X71860000Y-98700000D01*
X71460000Y-98700000D01*
X71460000Y-98124000D01*
X71479685Y-98056961D01*
X71532489Y-98011206D01*
X71584000Y-98000000D01*
X71660000Y-98000000D01*
X71660000Y-97924000D01*
X71679685Y-97856961D01*
X71732489Y-97811206D01*
X71784000Y-97800000D01*
X72400000Y-97800000D01*
X72400000Y-97752172D01*
X72399999Y-97752171D01*
X72398450Y-97737755D01*
X72401229Y-97722347D01*
X72399002Y-97706853D01*
X72407306Y-97688668D01*
X72410856Y-97668996D01*
X72421523Y-97657538D01*
X72428027Y-97643297D01*
X72444843Y-97632489D01*
X72458466Y-97617858D01*
X72474422Y-97613480D01*
X72486805Y-97605523D01*
X72521740Y-97600500D01*
X72699903Y-97600500D01*
X72766942Y-97620185D01*
G37*
%TD.AperFunction*%
%TA.AperFunction,Conductor*%
G36*
X59963012Y-97082149D02*
G01*
X59989150Y-97084019D01*
X59996976Y-97089669D01*
X60005645Y-97091589D01*
X60033821Y-97112844D01*
X60182201Y-97262322D01*
X60195654Y-97287178D01*
X60211803Y-97310375D01*
X60212066Y-97317497D01*
X60215460Y-97323768D01*
X60213339Y-97351953D01*
X60214383Y-97380197D01*
X60210752Y-97386332D01*
X60210218Y-97393441D01*
X60190237Y-97421006D01*
X60178805Y-97440329D01*
X60174759Y-97442360D01*
X60171885Y-97446326D01*
X60102276Y-97502280D01*
X59982969Y-97650704D01*
X59982967Y-97650707D01*
X59898360Y-97821302D01*
X59852400Y-98006107D01*
X59849500Y-98048879D01*
X59849500Y-98951122D01*
X59849501Y-98951125D01*
X59852399Y-98993886D01*
X59852399Y-98993887D01*
X59898360Y-99178696D01*
X59982967Y-99349292D01*
X59982969Y-99349295D01*
X60102277Y-99497721D01*
X60102278Y-99497722D01*
X60171486Y-99553353D01*
X60211405Y-99610696D01*
X60213985Y-99680518D01*
X60178406Y-99740651D01*
X60171486Y-99746647D01*
X60102278Y-99802277D01*
X60102277Y-99802278D01*
X59982969Y-99950704D01*
X59982967Y-99950707D01*
X59943348Y-100030594D01*
X59895927Y-100081907D01*
X59832260Y-100099500D01*
X59116519Y-100099500D01*
X59049480Y-100079815D01*
X59028838Y-100063181D01*
X57261818Y-98296161D01*
X57247114Y-98269233D01*
X57230522Y-98243415D01*
X57229630Y-98237214D01*
X57228333Y-98234838D01*
X57225499Y-98208480D01*
X57225499Y-98164500D01*
X57245184Y-98097461D01*
X57297988Y-98051706D01*
X57349499Y-98040500D01*
X58708996Y-98040500D01*
X58800040Y-98022389D01*
X58844328Y-98013580D01*
X58935622Y-97975765D01*
X58971807Y-97960777D01*
X58971808Y-97960776D01*
X58971811Y-97960775D01*
X59086543Y-97884114D01*
X59858136Y-97112519D01*
X59866282Y-97108071D01*
X59871873Y-97100661D01*
X59896460Y-97091593D01*
X59919459Y-97079035D01*
X59928717Y-97079697D01*
X59937427Y-97076485D01*
X59963012Y-97082149D01*
G37*
%TD.AperFunction*%
%TA.AperFunction,Conductor*%
G36*
X66517539Y-92454185D02*
G01*
X66563294Y-92506989D01*
X66574500Y-92558500D01*
X66574500Y-92563480D01*
X66554815Y-92630519D01*
X66538181Y-92651161D01*
X64105888Y-95083453D01*
X64105887Y-95083454D01*
X64049141Y-95168383D01*
X64049140Y-95168384D01*
X64029223Y-95198191D01*
X63976421Y-95325667D01*
X63976418Y-95325677D01*
X63949500Y-95461004D01*
X63949500Y-99538481D01*
X63929815Y-99605520D01*
X63913181Y-99626162D01*
X63476162Y-100063181D01*
X63414839Y-100096666D01*
X63388481Y-100099500D01*
X62867740Y-100099500D01*
X62800701Y-100079815D01*
X62756652Y-100030594D01*
X62717032Y-99950707D01*
X62717030Y-99950704D01*
X62597722Y-99802278D01*
X62597721Y-99802277D01*
X62528514Y-99746647D01*
X62488595Y-99689304D01*
X62486015Y-99619482D01*
X62521594Y-99559349D01*
X62528514Y-99553353D01*
X62564407Y-99524501D01*
X62597722Y-99497722D01*
X62717030Y-99349296D01*
X62801641Y-99178693D01*
X62847600Y-98993889D01*
X62850500Y-98951123D01*
X62850499Y-98048878D01*
X62847600Y-98006111D01*
X62801641Y-97821307D01*
X62796631Y-97811206D01*
X62717032Y-97650707D01*
X62717030Y-97650704D01*
X62597724Y-97502280D01*
X62597722Y-97502278D01*
X62528112Y-97446324D01*
X62488196Y-97388985D01*
X62485616Y-97319163D01*
X62521194Y-97259030D01*
X62528115Y-97253033D01*
X62597366Y-97197367D01*
X62597367Y-97197366D01*
X62716607Y-97049025D01*
X62716609Y-97049022D01*
X62801168Y-96878523D01*
X62847102Y-96693824D01*
X62850000Y-96651096D01*
X62850000Y-96450000D01*
X61474000Y-96450000D01*
X61406961Y-96430315D01*
X61361206Y-96377511D01*
X61350000Y-96326000D01*
X61350000Y-96074000D01*
X61369685Y-96006961D01*
X61422489Y-95961206D01*
X61474000Y-95950000D01*
X62850000Y-95950000D01*
X62850000Y-95748903D01*
X62847102Y-95706175D01*
X62801168Y-95521476D01*
X62716609Y-95350977D01*
X62716607Y-95350974D01*
X62597367Y-95202633D01*
X62597366Y-95202632D01*
X62449025Y-95083392D01*
X62449022Y-95083390D01*
X62278523Y-94998831D01*
X62093824Y-94952897D01*
X62051097Y-94950000D01*
X61792589Y-94950000D01*
X61725550Y-94930315D01*
X61679795Y-94877511D01*
X61669851Y-94808353D01*
X61698876Y-94744797D01*
X61704908Y-94738319D01*
X62453516Y-93989711D01*
X63203260Y-93239966D01*
X63264581Y-93206483D01*
X63334273Y-93211467D01*
X63365250Y-93228382D01*
X63472669Y-93308796D01*
X63472671Y-93308797D01*
X63607517Y-93359091D01*
X63607516Y-93359091D01*
X63614214Y-93359811D01*
X63667127Y-93365500D01*
X64972872Y-93365499D01*
X65032483Y-93359091D01*
X65167331Y-93308796D01*
X65282546Y-93222546D01*
X65368796Y-93107331D01*
X65419091Y-92972483D01*
X65425500Y-92912873D01*
X65425499Y-92558499D01*
X65445183Y-92491461D01*
X65497987Y-92445706D01*
X65549499Y-92434500D01*
X66450500Y-92434500D01*
X66517539Y-92454185D01*
G37*
%TD.AperFunction*%
%TA.AperFunction,Conductor*%
G36*
X54918039Y-98319685D02*
G01*
X54963794Y-98372489D01*
X54975000Y-98424000D01*
X54975000Y-99207980D01*
X54955315Y-99275019D01*
X54938681Y-99295661D01*
X54746160Y-99488181D01*
X54684837Y-99521666D01*
X54658480Y-99524500D01*
X54451663Y-99524500D01*
X54451644Y-99524501D01*
X54352292Y-99534650D01*
X54352289Y-99534651D01*
X54191305Y-99587996D01*
X54191294Y-99588001D01*
X54046959Y-99677029D01*
X54046955Y-99677032D01*
X53960807Y-99763181D01*
X53899484Y-99796666D01*
X53873126Y-99799500D01*
X53148988Y-99799500D01*
X53081949Y-99779815D01*
X53036194Y-99727011D01*
X53026250Y-99657853D01*
X53055275Y-99594297D01*
X53061307Y-99587819D01*
X53384270Y-99264855D01*
X53709325Y-98939799D01*
X53770644Y-98906317D01*
X53840335Y-98911301D01*
X53896269Y-98953172D01*
X53902540Y-98962385D01*
X53927426Y-99002731D01*
X54047267Y-99122572D01*
X54047271Y-99122575D01*
X54191507Y-99211542D01*
X54191518Y-99211547D01*
X54352393Y-99264855D01*
X54451683Y-99274999D01*
X54475000Y-99274998D01*
X54475000Y-98424000D01*
X54494685Y-98356961D01*
X54547489Y-98311206D01*
X54599000Y-98300000D01*
X54851000Y-98300000D01*
X54918039Y-98319685D01*
G37*
%TD.AperFunction*%
%TA.AperFunction,Conductor*%
G36*
X53293988Y-97161185D02*
G01*
X53339743Y-97213989D01*
X53349687Y-97283147D01*
X53320662Y-97346703D01*
X53314630Y-97353181D01*
X52249948Y-98417863D01*
X52188625Y-98451348D01*
X52162267Y-98454182D01*
X45558300Y-98454182D01*
X45553509Y-98452775D01*
X45548622Y-98453804D01*
X45520313Y-98443027D01*
X45491261Y-98434497D01*
X45487991Y-98430723D01*
X45483324Y-98428947D01*
X45465334Y-98404576D01*
X45445506Y-98381693D01*
X45443986Y-98375656D01*
X45441829Y-98372733D01*
X45438462Y-98353704D01*
X45434559Y-98338196D01*
X45434300Y-98334196D01*
X45434300Y-98306810D01*
X45429838Y-98265308D01*
X45429669Y-98262693D01*
X45430121Y-98260680D01*
X45430121Y-98241429D01*
X45434301Y-98202555D01*
X45434300Y-98153536D01*
X45453983Y-98086499D01*
X45489408Y-98050435D01*
X45549987Y-98009959D01*
X46005276Y-97554669D01*
X46076465Y-97448127D01*
X46125501Y-97329744D01*
X46131918Y-97297483D01*
X46140371Y-97254989D01*
X46172757Y-97193079D01*
X46233473Y-97158505D01*
X46261988Y-97155182D01*
X48229227Y-97155182D01*
X48296266Y-97174867D01*
X48342021Y-97227671D01*
X48352517Y-97265929D01*
X48355908Y-97297483D01*
X48406202Y-97432328D01*
X48406206Y-97432335D01*
X48483889Y-97536105D01*
X48508307Y-97601569D01*
X48493456Y-97669842D01*
X48483890Y-97684727D01*
X48406647Y-97787910D01*
X48406645Y-97787913D01*
X48356403Y-97922620D01*
X48356401Y-97922627D01*
X48350000Y-97982155D01*
X48350000Y-98070000D01*
X49750000Y-98070000D01*
X49750000Y-97982172D01*
X49749999Y-97982155D01*
X49743598Y-97922627D01*
X49743596Y-97922620D01*
X49693354Y-97787913D01*
X49693352Y-97787910D01*
X49616110Y-97684729D01*
X49591692Y-97619265D01*
X49606543Y-97550992D01*
X49616105Y-97536111D01*
X49693796Y-97432331D01*
X49744091Y-97297483D01*
X49748955Y-97252245D01*
X49775693Y-97187694D01*
X49833085Y-97147845D01*
X49872244Y-97141500D01*
X53226949Y-97141500D01*
X53293988Y-97161185D01*
G37*
%TD.AperFunction*%
%TA.AperFunction,Conductor*%
G36*
X70311003Y-96461148D02*
G01*
X70315147Y-96460553D01*
X70334386Y-96464904D01*
X70347804Y-96469086D01*
X70418384Y-96475500D01*
X70749903Y-96475500D01*
X70816942Y-96495185D01*
X70837584Y-96511819D01*
X71417881Y-97092116D01*
X71451366Y-97153439D01*
X71446382Y-97223131D01*
X71404510Y-97279064D01*
X71343459Y-97303086D01*
X71312625Y-97306401D01*
X71312620Y-97306403D01*
X71177913Y-97356645D01*
X71177910Y-97356647D01*
X71074727Y-97433890D01*
X71009262Y-97458307D01*
X70940989Y-97443455D01*
X70926105Y-97433889D01*
X70822335Y-97356206D01*
X70822328Y-97356202D01*
X70687482Y-97305908D01*
X70687483Y-97305908D01*
X70673925Y-97304451D01*
X70609374Y-97277713D01*
X70599500Y-97268843D01*
X70209819Y-96879162D01*
X70176334Y-96817839D01*
X70173500Y-96791481D01*
X70173500Y-96583291D01*
X70181222Y-96556991D01*
X70185570Y-96529928D01*
X70190924Y-96523950D01*
X70193185Y-96516252D01*
X70213898Y-96498303D01*
X70232189Y-96477885D01*
X70239925Y-96475751D01*
X70245989Y-96470497D01*
X70273120Y-96466595D01*
X70299544Y-96459308D01*
X70311003Y-96461148D01*
G37*
%TD.AperFunction*%
%TA.AperFunction,Conductor*%
G36*
X75717539Y-89320185D02*
G01*
X75763294Y-89372989D01*
X75774500Y-89424500D01*
X75774500Y-89831613D01*
X75780913Y-89902192D01*
X75780913Y-89902194D01*
X75780914Y-89902196D01*
X75831522Y-90064606D01*
X75919528Y-90210185D01*
X76038182Y-90328839D01*
X76071666Y-90390160D01*
X76074500Y-90416519D01*
X76074500Y-91583480D01*
X76054815Y-91650519D01*
X76038181Y-91671161D01*
X75919531Y-91789810D01*
X75919530Y-91789811D01*
X75831522Y-91935393D01*
X75780913Y-92097807D01*
X75774500Y-92168386D01*
X75774500Y-92324902D01*
X75754815Y-92391941D01*
X75738181Y-92412583D01*
X74019481Y-94131282D01*
X74019479Y-94131285D01*
X73981297Y-94197420D01*
X73981296Y-94197422D01*
X73940423Y-94268214D01*
X73940423Y-94268215D01*
X73899499Y-94420943D01*
X73899499Y-94420945D01*
X73899499Y-94589046D01*
X73899500Y-94589059D01*
X73899500Y-96750902D01*
X73879815Y-96817941D01*
X73827011Y-96863696D01*
X73757853Y-96873640D01*
X73694297Y-96844615D01*
X73687819Y-96838583D01*
X73487590Y-96638355D01*
X73487588Y-96638352D01*
X73368717Y-96519481D01*
X73368716Y-96519480D01*
X73278976Y-96467669D01*
X73231785Y-96440423D01*
X73131743Y-96413616D01*
X73125927Y-96411413D01*
X73102833Y-96393939D01*
X73078102Y-96378865D01*
X73075307Y-96373112D01*
X73070209Y-96369255D01*
X73060227Y-96342068D01*
X73047573Y-96316018D01*
X73048332Y-96309669D01*
X73046128Y-96303666D01*
X73052430Y-96275394D01*
X73055868Y-96246642D01*
X73060298Y-96240096D01*
X73061330Y-96235470D01*
X73067695Y-96229169D01*
X73076302Y-96216454D01*
X73075446Y-96215783D01*
X73080072Y-96209877D01*
X73168019Y-96064395D01*
X73218590Y-95902106D01*
X73225000Y-95831572D01*
X73225000Y-95750000D01*
X72449000Y-95750000D01*
X72381961Y-95730315D01*
X72336206Y-95677511D01*
X72325000Y-95626000D01*
X72325000Y-95500000D01*
X72199000Y-95500000D01*
X72131961Y-95480315D01*
X72086206Y-95427511D01*
X72075000Y-95376000D01*
X72075000Y-95250000D01*
X72575000Y-95250000D01*
X73224999Y-95250000D01*
X73224999Y-95168417D01*
X73218591Y-95097897D01*
X73218590Y-95097892D01*
X73168018Y-94935603D01*
X73080072Y-94790122D01*
X72959877Y-94669927D01*
X72814395Y-94581980D01*
X72814396Y-94581980D01*
X72652105Y-94531409D01*
X72652106Y-94531409D01*
X72581572Y-94525000D01*
X72575000Y-94525000D01*
X72575000Y-95250000D01*
X72075000Y-95250000D01*
X72075000Y-94525000D01*
X72074999Y-94524999D01*
X72068436Y-94525000D01*
X72068417Y-94525001D01*
X71997897Y-94531408D01*
X71997892Y-94531409D01*
X71835603Y-94581981D01*
X71690122Y-94669927D01*
X71690121Y-94669928D01*
X71588035Y-94772015D01*
X71526712Y-94805500D01*
X71457020Y-94800516D01*
X71412673Y-94772015D01*
X71310188Y-94669530D01*
X71298676Y-94662571D01*
X71164606Y-94581522D01*
X71002196Y-94530914D01*
X71002194Y-94530913D01*
X71002192Y-94530913D01*
X70952778Y-94526423D01*
X70931616Y-94524500D01*
X70418384Y-94524500D01*
X70365449Y-94529310D01*
X70347803Y-94530914D01*
X70334385Y-94535095D01*
X70264525Y-94536243D01*
X70205134Y-94499440D01*
X70175069Y-94436370D01*
X70173500Y-94416708D01*
X70173500Y-93577823D01*
X70193185Y-93510784D01*
X70245989Y-93465029D01*
X70315147Y-93455085D01*
X70336502Y-93460116D01*
X70352292Y-93465349D01*
X70451655Y-93475500D01*
X70998344Y-93475499D01*
X70998352Y-93475498D01*
X70998355Y-93475498D01*
X71061124Y-93469086D01*
X71097708Y-93465349D01*
X71258697Y-93412003D01*
X71403044Y-93322968D01*
X71412668Y-93313343D01*
X71473987Y-93279856D01*
X71543679Y-93284835D01*
X71588034Y-93313339D01*
X71597267Y-93322572D01*
X71597271Y-93322575D01*
X71741507Y-93411542D01*
X71741518Y-93411547D01*
X71902393Y-93464855D01*
X72001683Y-93474999D01*
X72525000Y-93474999D01*
X72548308Y-93474999D01*
X72548322Y-93474998D01*
X72647607Y-93464855D01*
X72808481Y-93411547D01*
X72808492Y-93411542D01*
X72952728Y-93322575D01*
X72952732Y-93322572D01*
X73072572Y-93202732D01*
X73072575Y-93202728D01*
X73161542Y-93058492D01*
X73161547Y-93058481D01*
X73214855Y-92897606D01*
X73224999Y-92798322D01*
X73225000Y-92798309D01*
X73225000Y-92750000D01*
X72525000Y-92750000D01*
X72525000Y-93474999D01*
X72001683Y-93474999D01*
X72025000Y-93474998D01*
X72025000Y-92250000D01*
X72525000Y-92250000D01*
X73224999Y-92250000D01*
X73224999Y-92201692D01*
X73224998Y-92201677D01*
X73214855Y-92102392D01*
X73161547Y-91941518D01*
X73161542Y-91941507D01*
X73072575Y-91797271D01*
X73072572Y-91797267D01*
X72952732Y-91677427D01*
X72952728Y-91677424D01*
X72808492Y-91588457D01*
X72808481Y-91588452D01*
X72647606Y-91535144D01*
X72548322Y-91525000D01*
X72525000Y-91525000D01*
X72525000Y-92250000D01*
X72025000Y-92250000D01*
X72025000Y-91524999D01*
X72001693Y-91525000D01*
X72001674Y-91525001D01*
X71902392Y-91535144D01*
X71741518Y-91588452D01*
X71741507Y-91588457D01*
X71597271Y-91677424D01*
X71597265Y-91677428D01*
X71588031Y-91686663D01*
X71526707Y-91720146D01*
X71457015Y-91715159D01*
X71412672Y-91686660D01*
X71403044Y-91677032D01*
X71403040Y-91677029D01*
X71258705Y-91588001D01*
X71258699Y-91587998D01*
X71258697Y-91587997D01*
X71258694Y-91587996D01*
X71097709Y-91534651D01*
X71097702Y-91534650D01*
X71060951Y-91530895D01*
X70996260Y-91504497D01*
X70985875Y-91495218D01*
X70440837Y-90950180D01*
X70407352Y-90888857D01*
X70412336Y-90819165D01*
X70440833Y-90774822D01*
X70703838Y-90511817D01*
X70765161Y-90478333D01*
X70791519Y-90475499D01*
X70998338Y-90475499D01*
X70998344Y-90475499D01*
X70998352Y-90475498D01*
X70998355Y-90475498D01*
X71061134Y-90469085D01*
X71097708Y-90465349D01*
X71258697Y-90412003D01*
X71403044Y-90322968D01*
X71412668Y-90313343D01*
X71473987Y-90279856D01*
X71543679Y-90284835D01*
X71588034Y-90313339D01*
X71597267Y-90322572D01*
X71597271Y-90322575D01*
X71741507Y-90411542D01*
X71741518Y-90411547D01*
X71902393Y-90464855D01*
X72001683Y-90474999D01*
X72525000Y-90474999D01*
X72548308Y-90474999D01*
X72548322Y-90474998D01*
X72647607Y-90464855D01*
X72808481Y-90411547D01*
X72808492Y-90411542D01*
X72952728Y-90322575D01*
X72952732Y-90322572D01*
X73072572Y-90202732D01*
X73072575Y-90202728D01*
X73161542Y-90058492D01*
X73161547Y-90058481D01*
X73214855Y-89897606D01*
X73224999Y-89798322D01*
X73225000Y-89798309D01*
X73225000Y-89750000D01*
X72525000Y-89750000D01*
X72525000Y-90474999D01*
X72001683Y-90474999D01*
X72025000Y-90474998D01*
X72025000Y-89624000D01*
X72044685Y-89556961D01*
X72097489Y-89511206D01*
X72149000Y-89500000D01*
X72275000Y-89500000D01*
X72275000Y-89424500D01*
X72294685Y-89357461D01*
X72347489Y-89311706D01*
X72399000Y-89300500D01*
X75650500Y-89300500D01*
X75717539Y-89320185D01*
G37*
%TD.AperFunction*%
%TA.AperFunction,Conductor*%
G36*
X92346945Y-71143206D02*
G01*
X92390397Y-71197921D01*
X92399500Y-71244555D01*
X92399500Y-71874543D01*
X92399499Y-71874561D01*
X92399499Y-72040267D01*
X92399498Y-72040267D01*
X92428705Y-72149265D01*
X92440423Y-72192998D01*
X92449889Y-72209394D01*
X92469358Y-72243113D01*
X92469359Y-72243117D01*
X92469360Y-72243117D01*
X92502489Y-72300500D01*
X92519479Y-72329927D01*
X92519481Y-72329930D01*
X92638349Y-72448798D01*
X92638355Y-72448803D01*
X97638181Y-77448629D01*
X97671666Y-77509952D01*
X97674500Y-77536310D01*
X97674500Y-80059995D01*
X97673417Y-80063681D01*
X97674277Y-80067426D01*
X97663651Y-80096940D01*
X97654815Y-80127034D01*
X97651534Y-80130598D01*
X97650610Y-80133166D01*
X97640962Y-80142084D01*
X97625941Y-80158406D01*
X97620950Y-80162231D01*
X97596956Y-80177032D01*
X97581560Y-80192427D01*
X97575087Y-80197390D01*
X97549792Y-80207155D01*
X97526000Y-80220146D01*
X97517684Y-80219550D01*
X97509906Y-80222554D01*
X97483346Y-80217093D01*
X97456308Y-80215159D01*
X97448017Y-80209830D01*
X97441467Y-80208484D01*
X97432912Y-80200122D01*
X97411965Y-80186660D01*
X97402732Y-80177427D01*
X97402728Y-80177424D01*
X97258492Y-80088457D01*
X97258481Y-80088452D01*
X97097606Y-80035144D01*
X96998322Y-80025000D01*
X96975000Y-80025000D01*
X96975000Y-81974999D01*
X96998308Y-81974999D01*
X96998322Y-81974998D01*
X97097607Y-81964855D01*
X97185496Y-81935732D01*
X97255324Y-81933330D01*
X97315366Y-81969062D01*
X97346559Y-82031582D01*
X97348500Y-82053438D01*
X97348500Y-82492604D01*
X97328815Y-82559643D01*
X97276011Y-82605398D01*
X97206853Y-82615342D01*
X97143297Y-82586317D01*
X97125234Y-82566916D01*
X97107187Y-82542809D01*
X96992093Y-82456649D01*
X96992086Y-82456645D01*
X96857379Y-82406403D01*
X96857372Y-82406401D01*
X96797844Y-82400000D01*
X96675000Y-82400000D01*
X96675000Y-84450000D01*
X96797828Y-84450000D01*
X96797844Y-84449999D01*
X96857372Y-84443598D01*
X96857379Y-84443596D01*
X96992086Y-84393354D01*
X96992093Y-84393350D01*
X97107187Y-84307190D01*
X97107188Y-84307189D01*
X97125233Y-84283085D01*
X97181166Y-84241213D01*
X97250858Y-84236229D01*
X97312181Y-84269714D01*
X97345666Y-84331037D01*
X97348500Y-84357395D01*
X97348500Y-86642604D01*
X97328815Y-86709643D01*
X97276011Y-86755398D01*
X97206853Y-86765342D01*
X97143297Y-86736317D01*
X97125234Y-86716916D01*
X97107187Y-86692809D01*
X96992093Y-86606649D01*
X96992086Y-86606645D01*
X96857379Y-86556403D01*
X96857372Y-86556401D01*
X96797844Y-86550000D01*
X96675000Y-86550000D01*
X96675000Y-88600000D01*
X96797828Y-88600000D01*
X96797844Y-88599999D01*
X96857372Y-88593598D01*
X96857379Y-88593596D01*
X96992086Y-88543354D01*
X96992093Y-88543350D01*
X97107187Y-88457190D01*
X97107188Y-88457189D01*
X97125233Y-88433085D01*
X97181166Y-88391213D01*
X97250858Y-88386229D01*
X97312181Y-88419714D01*
X97345666Y-88481037D01*
X97348500Y-88507395D01*
X97348500Y-89472832D01*
X97328815Y-89539871D01*
X97276011Y-89585626D01*
X97206853Y-89595570D01*
X97172097Y-89583151D01*
X97171445Y-89584600D01*
X97164610Y-89581524D01*
X97164608Y-89581523D01*
X97164606Y-89581522D01*
X97002196Y-89530914D01*
X97002194Y-89530913D01*
X97002192Y-89530913D01*
X96952778Y-89526423D01*
X96931616Y-89524500D01*
X96418384Y-89524500D01*
X96399145Y-89526248D01*
X96347807Y-89530913D01*
X96185393Y-89581522D01*
X96039811Y-89669530D01*
X95919530Y-89789811D01*
X95831522Y-89935393D01*
X95780913Y-90097807D01*
X95778734Y-90121789D01*
X95774500Y-90168384D01*
X95774500Y-90831616D01*
X95776398Y-90852502D01*
X95780913Y-90902192D01*
X95780913Y-90902194D01*
X95780914Y-90902196D01*
X95831522Y-91064606D01*
X95919528Y-91210185D01*
X96038182Y-91328839D01*
X96052888Y-91355770D01*
X96069477Y-91381584D01*
X96070368Y-91387783D01*
X96071666Y-91390160D01*
X96074500Y-91416519D01*
X96074500Y-91588330D01*
X96074499Y-91588348D01*
X96074499Y-91754054D01*
X96074498Y-91754054D01*
X96084079Y-91789810D01*
X96115423Y-91906785D01*
X96129407Y-91931006D01*
X96143772Y-91955887D01*
X96146877Y-91961265D01*
X96163348Y-92029166D01*
X96140496Y-92095192D01*
X96103640Y-92129380D01*
X96037228Y-92169528D01*
X96037224Y-92169531D01*
X95916944Y-92289811D01*
X95828936Y-92435393D01*
X95778327Y-92597807D01*
X95771914Y-92668386D01*
X95771914Y-92858481D01*
X95752229Y-92925520D01*
X95735595Y-92946162D01*
X93058576Y-95623181D01*
X92997253Y-95656666D01*
X92970895Y-95659500D01*
X92307838Y-95659500D01*
X92240799Y-95639815D01*
X92195044Y-95587011D01*
X92185100Y-95517853D01*
X92191656Y-95492167D01*
X92215771Y-95427511D01*
X92230996Y-95386690D01*
X92237405Y-95327080D01*
X92237404Y-93531335D01*
X92230996Y-93471724D01*
X92228618Y-93465349D01*
X92180702Y-93336878D01*
X92180698Y-93336871D01*
X92094452Y-93221662D01*
X92094449Y-93221659D01*
X91979240Y-93135413D01*
X91979233Y-93135409D01*
X91847822Y-93086396D01*
X91791888Y-93044525D01*
X91767471Y-92979060D01*
X91782323Y-92910787D01*
X91803468Y-92882539D01*
X91917009Y-92768999D01*
X91930813Y-92750000D01*
X92017620Y-92630519D01*
X92041956Y-92597023D01*
X92138462Y-92407619D01*
X92204151Y-92205450D01*
X92237405Y-91995494D01*
X92237405Y-91782920D01*
X92204151Y-91572964D01*
X92190411Y-91530680D01*
X92188417Y-91460842D01*
X92220660Y-91404685D01*
X92858506Y-90766840D01*
X92858511Y-90766836D01*
X92868714Y-90756632D01*
X92868716Y-90756632D01*
X92980520Y-90644828D01*
X93033273Y-90553457D01*
X93059577Y-90507897D01*
X93100501Y-90355169D01*
X93100501Y-90197055D01*
X93100501Y-90189460D01*
X93100500Y-90189442D01*
X93100500Y-88147844D01*
X95600000Y-88147844D01*
X95606401Y-88207372D01*
X95606403Y-88207379D01*
X95656645Y-88342086D01*
X95656649Y-88342093D01*
X95742809Y-88457187D01*
X95742812Y-88457190D01*
X95857906Y-88543350D01*
X95857913Y-88543354D01*
X95992620Y-88593596D01*
X95992627Y-88593598D01*
X96052155Y-88599999D01*
X96052172Y-88600000D01*
X96175000Y-88600000D01*
X96175000Y-87825000D01*
X95600000Y-87825000D01*
X95600000Y-88147844D01*
X93100500Y-88147844D01*
X93100500Y-87002155D01*
X95600000Y-87002155D01*
X95600000Y-87325000D01*
X96175000Y-87325000D01*
X96175000Y-86550000D01*
X96052155Y-86550000D01*
X95992627Y-86556401D01*
X95992620Y-86556403D01*
X95857913Y-86606645D01*
X95857906Y-86606649D01*
X95742812Y-86692809D01*
X95742809Y-86692812D01*
X95656649Y-86807906D01*
X95656645Y-86807913D01*
X95606403Y-86942620D01*
X95606401Y-86942627D01*
X95600000Y-87002155D01*
X93100500Y-87002155D01*
X93100500Y-83997844D01*
X95600000Y-83997844D01*
X95606401Y-84057372D01*
X95606403Y-84057379D01*
X95656645Y-84192086D01*
X95656649Y-84192093D01*
X95742809Y-84307187D01*
X95742812Y-84307190D01*
X95857906Y-84393350D01*
X95857913Y-84393354D01*
X95992620Y-84443596D01*
X95992627Y-84443598D01*
X96052155Y-84449999D01*
X96052172Y-84450000D01*
X96175000Y-84450000D01*
X96175000Y-83675000D01*
X95600000Y-83675000D01*
X95600000Y-83997844D01*
X93100500Y-83997844D01*
X93100500Y-82852155D01*
X95600000Y-82852155D01*
X95600000Y-83175000D01*
X96175000Y-83175000D01*
X96175000Y-82400000D01*
X96052155Y-82400000D01*
X95992627Y-82406401D01*
X95992620Y-82406403D01*
X95857913Y-82456645D01*
X95857906Y-82456649D01*
X95742812Y-82542809D01*
X95742809Y-82542812D01*
X95656649Y-82657906D01*
X95656645Y-82657913D01*
X95606403Y-82792620D01*
X95606401Y-82792627D01*
X95600000Y-82852155D01*
X93100500Y-82852155D01*
X93100500Y-81565601D01*
X93100501Y-81565588D01*
X93100501Y-81397487D01*
X93100501Y-81397485D01*
X93073930Y-81298322D01*
X95775001Y-81298322D01*
X95785144Y-81397607D01*
X95838452Y-81558481D01*
X95838457Y-81558492D01*
X95927424Y-81702728D01*
X95927427Y-81702732D01*
X96047267Y-81822572D01*
X96047271Y-81822575D01*
X96191507Y-81911542D01*
X96191518Y-81911547D01*
X96352393Y-81964855D01*
X96451683Y-81974999D01*
X96475000Y-81974998D01*
X96475000Y-81250000D01*
X95775001Y-81250000D01*
X95775001Y-81298322D01*
X93073930Y-81298322D01*
X93059577Y-81244757D01*
X93015370Y-81168189D01*
X92980520Y-81107826D01*
X92868716Y-80996022D01*
X92868715Y-80996021D01*
X92864385Y-80991691D01*
X92864374Y-80991681D01*
X92574370Y-80701677D01*
X95775000Y-80701677D01*
X95775000Y-80750000D01*
X96475000Y-80750000D01*
X96475000Y-80024999D01*
X96451693Y-80025000D01*
X96451674Y-80025001D01*
X96352392Y-80035144D01*
X96191518Y-80088452D01*
X96191507Y-80088457D01*
X96047271Y-80177424D01*
X96047267Y-80177427D01*
X95927427Y-80297267D01*
X95927424Y-80297271D01*
X95838457Y-80441507D01*
X95838452Y-80441518D01*
X95785144Y-80602393D01*
X95775000Y-80701677D01*
X92574370Y-80701677D01*
X92011043Y-80138350D01*
X92002277Y-80129583D01*
X91996429Y-80118873D01*
X91995555Y-80119457D01*
X91995553Y-80119454D01*
X91996428Y-80118870D01*
X91981061Y-80090725D01*
X91968797Y-80068265D01*
X91968797Y-80068262D01*
X91968795Y-80068258D01*
X91971318Y-80033014D01*
X91973781Y-79998573D01*
X91989642Y-79969027D01*
X92041956Y-79897023D01*
X92138462Y-79707619D01*
X92204151Y-79505450D01*
X92237405Y-79295494D01*
X92237405Y-79082920D01*
X92204151Y-78872964D01*
X92138462Y-78670795D01*
X92041956Y-78481391D01*
X92041954Y-78481388D01*
X92041953Y-78481386D01*
X91917014Y-78309420D01*
X91766691Y-78159097D01*
X91594722Y-78034156D01*
X91585409Y-78029411D01*
X91534612Y-77981437D01*
X91517817Y-77913616D01*
X91540354Y-77847481D01*
X91585412Y-77808439D01*
X91594460Y-77803829D01*
X91648621Y-77764477D01*
X91648622Y-77764477D01*
X91016313Y-77132169D01*
X91079898Y-77115132D01*
X91193912Y-77049306D01*
X91287004Y-76956214D01*
X91352830Y-76842200D01*
X91369867Y-76778615D01*
X92002175Y-77410924D01*
X92002175Y-77410923D01*
X92041527Y-77356761D01*
X92138000Y-77167424D01*
X92203662Y-76965337D01*
X92203662Y-76965334D01*
X92236905Y-76755453D01*
X92236905Y-76542960D01*
X92203662Y-76333079D01*
X92203662Y-76333076D01*
X92138000Y-76130989D01*
X92041529Y-75941656D01*
X92002175Y-75887489D01*
X92002174Y-75887489D01*
X91369867Y-76519797D01*
X91352830Y-76456214D01*
X91287004Y-76342200D01*
X91193912Y-76249108D01*
X91079898Y-76183282D01*
X91016314Y-76166244D01*
X91648621Y-75533935D01*
X91594455Y-75494582D01*
X91405122Y-75398111D01*
X91203034Y-75332449D01*
X90993151Y-75299207D01*
X90780659Y-75299207D01*
X90570777Y-75332449D01*
X90570774Y-75332449D01*
X90368687Y-75398111D01*
X90179344Y-75494587D01*
X90125187Y-75533934D01*
X90125187Y-75533935D01*
X90757496Y-76166244D01*
X90693912Y-76183282D01*
X90579898Y-76249108D01*
X90486806Y-76342200D01*
X90420980Y-76456214D01*
X90403942Y-76519798D01*
X89771633Y-75887489D01*
X89771632Y-75887489D01*
X89732285Y-75941646D01*
X89635809Y-76130989D01*
X89570147Y-76333076D01*
X89570147Y-76333079D01*
X89536905Y-76542960D01*
X89536905Y-76755453D01*
X89570147Y-76965334D01*
X89570147Y-76965337D01*
X89635809Y-77167424D01*
X89732280Y-77356757D01*
X89771633Y-77410923D01*
X90403942Y-76778615D01*
X90420980Y-76842200D01*
X90486806Y-76956214D01*
X90579898Y-77049306D01*
X90693912Y-77115132D01*
X90757495Y-77132169D01*
X90125187Y-77764476D01*
X90125187Y-77764477D01*
X90179357Y-77803833D01*
X90179356Y-77803833D01*
X90188400Y-77808441D01*
X90239197Y-77856415D01*
X90255992Y-77924236D01*
X90233455Y-77990371D01*
X90188404Y-78029409D01*
X90179087Y-78034156D01*
X90007118Y-78159097D01*
X89856799Y-78309416D01*
X89856795Y-78309421D01*
X89752486Y-78452991D01*
X89697156Y-78495657D01*
X89676360Y-78501723D01*
X89606470Y-78515625D01*
X89606460Y-78515628D01*
X89478985Y-78568429D01*
X89364247Y-78645094D01*
X89364246Y-78645095D01*
X88412181Y-79597161D01*
X88350858Y-79630646D01*
X88281166Y-79625662D01*
X88225233Y-79583790D01*
X88200816Y-79518326D01*
X88200500Y-79509480D01*
X88200500Y-78666011D01*
X88200500Y-78666007D01*
X88200420Y-78665605D01*
X88200198Y-78664488D01*
X88200199Y-78664487D01*
X88200194Y-78664473D01*
X88173580Y-78530672D01*
X88167348Y-78515627D01*
X88120777Y-78403192D01*
X88044112Y-78288454D01*
X88044111Y-78288453D01*
X86900507Y-77144850D01*
X86867022Y-77083527D01*
X86865715Y-77037771D01*
X86878633Y-76956214D01*
X86890500Y-76881287D01*
X86890500Y-76668713D01*
X86857246Y-76458757D01*
X86791557Y-76256588D01*
X86695051Y-76067184D01*
X86695049Y-76067181D01*
X86695048Y-76067179D01*
X86570109Y-75895213D01*
X86419786Y-75744890D01*
X86333729Y-75682367D01*
X86333700Y-75682347D01*
X86247816Y-75619949D01*
X86231116Y-75611440D01*
X86224292Y-75606723D01*
X86207322Y-75585755D01*
X86187707Y-75567230D01*
X86185669Y-75559000D01*
X86180337Y-75552412D01*
X86177396Y-75525595D01*
X86170912Y-75499409D01*
X86173646Y-75491385D01*
X86172722Y-75482958D01*
X86184748Y-75458805D01*
X86193449Y-75433274D01*
X86200507Y-75427158D01*
X86203866Y-75420413D01*
X86218052Y-75411955D01*
X86238507Y-75394232D01*
X86247555Y-75389622D01*
X86301716Y-75350270D01*
X86301717Y-75350270D01*
X85669408Y-74717962D01*
X85732993Y-74700925D01*
X85847007Y-74635099D01*
X85940099Y-74542007D01*
X86005925Y-74427993D01*
X86022962Y-74364408D01*
X86655270Y-74996717D01*
X86655270Y-74996716D01*
X86694622Y-74942554D01*
X86791095Y-74753217D01*
X86856757Y-74551130D01*
X86856757Y-74551127D01*
X86890000Y-74341246D01*
X86890000Y-74128753D01*
X86856757Y-73918872D01*
X86856757Y-73918869D01*
X86791095Y-73716782D01*
X86694624Y-73527449D01*
X86655270Y-73473282D01*
X86655269Y-73473282D01*
X86022962Y-74105590D01*
X86005925Y-74042007D01*
X85940099Y-73927993D01*
X85847007Y-73834901D01*
X85732993Y-73769075D01*
X85669409Y-73752037D01*
X86301716Y-73119728D01*
X86247550Y-73080375D01*
X86058217Y-72983904D01*
X85856129Y-72918242D01*
X85646246Y-72885000D01*
X85433754Y-72885000D01*
X85223872Y-72918242D01*
X85223869Y-72918242D01*
X85021782Y-72983904D01*
X84832439Y-73080380D01*
X84778282Y-73119727D01*
X84778282Y-73119728D01*
X85410591Y-73752037D01*
X85347007Y-73769075D01*
X85232993Y-73834901D01*
X85139901Y-73927993D01*
X85074075Y-74042007D01*
X85057037Y-74105591D01*
X84424728Y-73473282D01*
X84424727Y-73473282D01*
X84385380Y-73527440D01*
X84380483Y-73537051D01*
X84332506Y-73587845D01*
X84264684Y-73604638D01*
X84198550Y-73582098D01*
X84159516Y-73537048D01*
X84154626Y-73527452D01*
X84115270Y-73473282D01*
X84115269Y-73473282D01*
X83482962Y-74105590D01*
X83465925Y-74042007D01*
X83400099Y-73927993D01*
X83307007Y-73834901D01*
X83192993Y-73769075D01*
X83129409Y-73752037D01*
X83761716Y-73119728D01*
X83707550Y-73080375D01*
X83518217Y-72983904D01*
X83316129Y-72918242D01*
X83106246Y-72885000D01*
X82893754Y-72885000D01*
X82683872Y-72918242D01*
X82683869Y-72918242D01*
X82481782Y-72983904D01*
X82292439Y-73080380D01*
X82238282Y-73119727D01*
X82238282Y-73119728D01*
X82870591Y-73752037D01*
X82807007Y-73769075D01*
X82692993Y-73834901D01*
X82599901Y-73927993D01*
X82534075Y-74042007D01*
X82517037Y-74105591D01*
X81884728Y-73473282D01*
X81884727Y-73473282D01*
X81845380Y-73527440D01*
X81840483Y-73537051D01*
X81792506Y-73587845D01*
X81724684Y-73604638D01*
X81658550Y-73582098D01*
X81619516Y-73537048D01*
X81614626Y-73527452D01*
X81575270Y-73473282D01*
X81575269Y-73473282D01*
X80942962Y-74105590D01*
X80925925Y-74042007D01*
X80860099Y-73927993D01*
X80767007Y-73834901D01*
X80652993Y-73769075D01*
X80589409Y-73752037D01*
X81221716Y-73119728D01*
X81167550Y-73080375D01*
X80978217Y-72983904D01*
X80776129Y-72918242D01*
X80566246Y-72885000D01*
X80353754Y-72885000D01*
X80143872Y-72918242D01*
X80143869Y-72918242D01*
X79941782Y-72983904D01*
X79752439Y-73080380D01*
X79698282Y-73119727D01*
X79698282Y-73119728D01*
X80330591Y-73752037D01*
X80267007Y-73769075D01*
X80152993Y-73834901D01*
X80059901Y-73927993D01*
X79994075Y-74042007D01*
X79977037Y-74105591D01*
X79344728Y-73473282D01*
X79344727Y-73473282D01*
X79305380Y-73527439D01*
X79208904Y-73716782D01*
X79143242Y-73918869D01*
X79143242Y-73918872D01*
X79110000Y-74128753D01*
X79110000Y-74341246D01*
X79143242Y-74551127D01*
X79143242Y-74551130D01*
X79208904Y-74753217D01*
X79305375Y-74942550D01*
X79344728Y-74996716D01*
X79977037Y-74364408D01*
X79994075Y-74427993D01*
X80059901Y-74542007D01*
X80152993Y-74635099D01*
X80267007Y-74700925D01*
X80330590Y-74717962D01*
X79660370Y-75388181D01*
X79599047Y-75421666D01*
X79572698Y-75424500D01*
X79562134Y-75424500D01*
X79562123Y-75424501D01*
X79502516Y-75430908D01*
X79367671Y-75481202D01*
X79367664Y-75481206D01*
X79252455Y-75567452D01*
X79252452Y-75567455D01*
X79166206Y-75682664D01*
X79166202Y-75682671D01*
X79115908Y-75817517D01*
X79109501Y-75877116D01*
X79109500Y-75877135D01*
X79109500Y-77672870D01*
X79109501Y-77672876D01*
X79115908Y-77732483D01*
X79166202Y-77867328D01*
X79166206Y-77867335D01*
X79252452Y-77982544D01*
X79252455Y-77982547D01*
X79367664Y-78068793D01*
X79367671Y-78068797D01*
X79502517Y-78119091D01*
X79502516Y-78119091D01*
X79509444Y-78119835D01*
X79562127Y-78125500D01*
X81357872Y-78125499D01*
X81417483Y-78119091D01*
X81552331Y-78068796D01*
X81667546Y-77982546D01*
X81753796Y-77867331D01*
X81802810Y-77735916D01*
X81844681Y-77679984D01*
X81910145Y-77655566D01*
X81978418Y-77670417D01*
X82006673Y-77691569D01*
X82120213Y-77805109D01*
X82292179Y-77930048D01*
X82292181Y-77930049D01*
X82292184Y-77930051D01*
X82481588Y-78026557D01*
X82683757Y-78092246D01*
X82893713Y-78125500D01*
X82893714Y-78125500D01*
X83106286Y-78125500D01*
X83106287Y-78125500D01*
X83316243Y-78092246D01*
X83518412Y-78026557D01*
X83707816Y-77930051D01*
X83794138Y-77867335D01*
X83879786Y-77805109D01*
X83879788Y-77805106D01*
X83879792Y-77805104D01*
X84030104Y-77654792D01*
X84123229Y-77526614D01*
X84127560Y-77523274D01*
X84129834Y-77518297D01*
X84154933Y-77502166D01*
X84178558Y-77483949D01*
X84185231Y-77482695D01*
X84188612Y-77480523D01*
X84223547Y-77475500D01*
X84316453Y-77475500D01*
X84383492Y-77495185D01*
X84416769Y-77526614D01*
X84450372Y-77572864D01*
X84509892Y-77654788D01*
X84660213Y-77805109D01*
X84832179Y-77930048D01*
X84832181Y-77930049D01*
X84832184Y-77930051D01*
X85021588Y-78026557D01*
X85223757Y-78092246D01*
X85433713Y-78125500D01*
X85433714Y-78125500D01*
X85646286Y-78125500D01*
X85646287Y-78125500D01*
X85802771Y-78100715D01*
X85872064Y-78109670D01*
X85909850Y-78135507D01*
X86763181Y-78988838D01*
X86796666Y-79050161D01*
X86799500Y-79076519D01*
X86799500Y-81074684D01*
X86790061Y-81122136D01*
X86730264Y-81266498D01*
X86730261Y-81266510D01*
X86699500Y-81421153D01*
X86699500Y-81578846D01*
X86730261Y-81733489D01*
X86730264Y-81733501D01*
X86790602Y-81879172D01*
X86790609Y-81879185D01*
X86866617Y-81992939D01*
X86887495Y-82059617D01*
X86869010Y-82126997D01*
X86851196Y-82149511D01*
X86461527Y-82539181D01*
X86400204Y-82572666D01*
X86373846Y-82575500D01*
X82649000Y-82575500D01*
X82581961Y-82555815D01*
X82536206Y-82503011D01*
X82525000Y-82451500D01*
X82525000Y-82250000D01*
X80275001Y-82250000D01*
X80275001Y-82451500D01*
X80255316Y-82518539D01*
X80202512Y-82564294D01*
X80151001Y-82575500D01*
X79849500Y-82575500D01*
X79782461Y-82555815D01*
X79736706Y-82503011D01*
X79725500Y-82451500D01*
X79725499Y-81325013D01*
X80275000Y-81325013D01*
X80275000Y-81750000D01*
X81150000Y-81750000D01*
X81650000Y-81750000D01*
X82524999Y-81750000D01*
X82524999Y-81325028D01*
X82524998Y-81325013D01*
X82514505Y-81222302D01*
X82459358Y-81055880D01*
X82459356Y-81055875D01*
X82367315Y-80906654D01*
X82243345Y-80782684D01*
X82094124Y-80690643D01*
X82094119Y-80690641D01*
X81927697Y-80635494D01*
X81927690Y-80635493D01*
X81824986Y-80625000D01*
X81650000Y-80625000D01*
X81650000Y-81750000D01*
X81150000Y-81750000D01*
X81150000Y-80625000D01*
X80975029Y-80625000D01*
X80975012Y-80625001D01*
X80872302Y-80635494D01*
X80705880Y-80690641D01*
X80705875Y-80690643D01*
X80556654Y-80782684D01*
X80432684Y-80906654D01*
X80340643Y-81055875D01*
X80340641Y-81055880D01*
X80285494Y-81222302D01*
X80285493Y-81222309D01*
X80275000Y-81325013D01*
X79725499Y-81325013D01*
X79725499Y-81324998D01*
X79725498Y-81324981D01*
X79714999Y-81222203D01*
X79714998Y-81222200D01*
X79691073Y-81150000D01*
X79659814Y-81055666D01*
X79567712Y-80906344D01*
X79443656Y-80782288D01*
X79312930Y-80701656D01*
X79294336Y-80690187D01*
X79294331Y-80690185D01*
X79292862Y-80689698D01*
X79127797Y-80635001D01*
X79127795Y-80635000D01*
X79025010Y-80624500D01*
X78174998Y-80624500D01*
X78174980Y-80624501D01*
X78072203Y-80635000D01*
X78072200Y-80635001D01*
X77905668Y-80690185D01*
X77905663Y-80690187D01*
X77756342Y-80782289D01*
X77632289Y-80906342D01*
X77540187Y-81055663D01*
X77540185Y-81055668D01*
X77518596Y-81120821D01*
X77488782Y-81210795D01*
X77485001Y-81222204D01*
X77485000Y-81222205D01*
X77478268Y-81288103D01*
X77451871Y-81352795D01*
X77394690Y-81392946D01*
X77354910Y-81399500D01*
X76716715Y-81399500D01*
X76649676Y-81379815D01*
X76610598Y-81339650D01*
X76601750Y-81325013D01*
X76580472Y-81289815D01*
X76580470Y-81289813D01*
X76580469Y-81289811D01*
X76460188Y-81169530D01*
X76358119Y-81107827D01*
X76314606Y-81081522D01*
X76152196Y-81030914D01*
X76152194Y-81030913D01*
X76152192Y-81030913D01*
X76102778Y-81026423D01*
X76081616Y-81024500D01*
X76081613Y-81024500D01*
X75825500Y-81024500D01*
X75758461Y-81004815D01*
X75712706Y-80952011D01*
X75701500Y-80900500D01*
X75701500Y-77340117D01*
X75701501Y-77340104D01*
X75701501Y-77172002D01*
X75701501Y-77172000D01*
X75660577Y-77019272D01*
X75581520Y-76882341D01*
X75229464Y-76530285D01*
X75229463Y-76530284D01*
X75117659Y-76418480D01*
X75030847Y-76368360D01*
X75030847Y-76368359D01*
X75030843Y-76368358D01*
X74980728Y-76339423D01*
X74828000Y-76298499D01*
X74669886Y-76298499D01*
X74662290Y-76298499D01*
X74662274Y-76298500D01*
X73461875Y-76298500D01*
X73394836Y-76278815D01*
X73349081Y-76226011D01*
X73339137Y-76156853D01*
X73368162Y-76093297D01*
X73426940Y-76055523D01*
X73437683Y-76052883D01*
X73448144Y-76050801D01*
X73453497Y-76049737D01*
X73599179Y-75989394D01*
X73730289Y-75901789D01*
X73841789Y-75790289D01*
X73929394Y-75659179D01*
X73989737Y-75513497D01*
X74020500Y-75358842D01*
X74020500Y-75201158D01*
X74020500Y-75201155D01*
X74020499Y-75201153D01*
X74005683Y-75126669D01*
X73989737Y-75046503D01*
X73989735Y-75046498D01*
X73929397Y-74900827D01*
X73929390Y-74900814D01*
X73841398Y-74769125D01*
X73820520Y-74702447D01*
X73820500Y-74700234D01*
X73820500Y-71974499D01*
X73840185Y-71907460D01*
X73892989Y-71861705D01*
X73944500Y-71850499D01*
X74117871Y-71850499D01*
X74117872Y-71850499D01*
X74177483Y-71844091D01*
X74312331Y-71793796D01*
X74427546Y-71707546D01*
X74513796Y-71592331D01*
X74562810Y-71460916D01*
X74604681Y-71404984D01*
X74670145Y-71380566D01*
X74738418Y-71395417D01*
X74766673Y-71416569D01*
X74880213Y-71530109D01*
X75052179Y-71655048D01*
X75052181Y-71655049D01*
X75052184Y-71655051D01*
X75241588Y-71751557D01*
X75443757Y-71817246D01*
X75653713Y-71850500D01*
X75653714Y-71850500D01*
X75866286Y-71850500D01*
X75866287Y-71850500D01*
X76076243Y-71817246D01*
X76278412Y-71751557D01*
X76467816Y-71655051D01*
X76554138Y-71592335D01*
X76639786Y-71530109D01*
X76639788Y-71530106D01*
X76639792Y-71530104D01*
X76790104Y-71379792D01*
X76790106Y-71379788D01*
X76790109Y-71379786D01*
X76915048Y-71207820D01*
X76915050Y-71207817D01*
X76915051Y-71207816D01*
X76919514Y-71199054D01*
X76967488Y-71148259D01*
X77035308Y-71131463D01*
X77101444Y-71153999D01*
X77140486Y-71199056D01*
X77144951Y-71207820D01*
X77269890Y-71379786D01*
X77420213Y-71530109D01*
X77592179Y-71655048D01*
X77592181Y-71655049D01*
X77592184Y-71655051D01*
X77781588Y-71751557D01*
X77983757Y-71817246D01*
X78193713Y-71850500D01*
X78193714Y-71850500D01*
X78406286Y-71850500D01*
X78406287Y-71850500D01*
X78616243Y-71817246D01*
X78818412Y-71751557D01*
X79007816Y-71655051D01*
X79094138Y-71592335D01*
X79179786Y-71530109D01*
X79179788Y-71530106D01*
X79179792Y-71530104D01*
X79330104Y-71379792D01*
X79330106Y-71379788D01*
X79330109Y-71379786D01*
X79455048Y-71207820D01*
X79455050Y-71207817D01*
X79455051Y-71207816D01*
X79459514Y-71199054D01*
X79507488Y-71148259D01*
X79575308Y-71131463D01*
X79641444Y-71153999D01*
X79680486Y-71199056D01*
X79684951Y-71207820D01*
X79809890Y-71379786D01*
X79960213Y-71530109D01*
X80132179Y-71655048D01*
X80132181Y-71655049D01*
X80132184Y-71655051D01*
X80321588Y-71751557D01*
X80523757Y-71817246D01*
X80733713Y-71850500D01*
X80733714Y-71850500D01*
X80946286Y-71850500D01*
X80946287Y-71850500D01*
X81156243Y-71817246D01*
X81358412Y-71751557D01*
X81547816Y-71655051D01*
X81634138Y-71592335D01*
X81719786Y-71530109D01*
X81719788Y-71530106D01*
X81719792Y-71530104D01*
X81870104Y-71379792D01*
X81870106Y-71379788D01*
X81870109Y-71379786D01*
X81995048Y-71207820D01*
X81995050Y-71207817D01*
X81995051Y-71207816D01*
X81999514Y-71199054D01*
X82047488Y-71148259D01*
X82115308Y-71131463D01*
X82181444Y-71153999D01*
X82220486Y-71199056D01*
X82224951Y-71207820D01*
X82349890Y-71379786D01*
X82500213Y-71530109D01*
X82672179Y-71655048D01*
X82672181Y-71655049D01*
X82672184Y-71655051D01*
X82861588Y-71751557D01*
X83063757Y-71817246D01*
X83273713Y-71850500D01*
X83273714Y-71850500D01*
X83486286Y-71850500D01*
X83486287Y-71850500D01*
X83696243Y-71817246D01*
X83898412Y-71751557D01*
X84087816Y-71655051D01*
X84174138Y-71592335D01*
X84259786Y-71530109D01*
X84259788Y-71530106D01*
X84259792Y-71530104D01*
X84410104Y-71379792D01*
X84410106Y-71379788D01*
X84410109Y-71379786D01*
X84535048Y-71207820D01*
X84535050Y-71207817D01*
X84535051Y-71207816D01*
X84539514Y-71199054D01*
X84587488Y-71148259D01*
X84655308Y-71131463D01*
X84721444Y-71153999D01*
X84760486Y-71199056D01*
X84764951Y-71207820D01*
X84889890Y-71379786D01*
X85040213Y-71530109D01*
X85212179Y-71655048D01*
X85212181Y-71655049D01*
X85212184Y-71655051D01*
X85401588Y-71751557D01*
X85603757Y-71817246D01*
X85813713Y-71850500D01*
X85813714Y-71850500D01*
X86026286Y-71850500D01*
X86026287Y-71850500D01*
X86236243Y-71817246D01*
X86438412Y-71751557D01*
X86627816Y-71655051D01*
X86714138Y-71592335D01*
X86799786Y-71530109D01*
X86799788Y-71530106D01*
X86799792Y-71530104D01*
X86950104Y-71379792D01*
X86950106Y-71379788D01*
X86950109Y-71379786D01*
X87075048Y-71207820D01*
X87075050Y-71207817D01*
X87075051Y-71207816D01*
X87079514Y-71199054D01*
X87127488Y-71148259D01*
X87195308Y-71131463D01*
X87261444Y-71153999D01*
X87300486Y-71199056D01*
X87304951Y-71207820D01*
X87429890Y-71379786D01*
X87580213Y-71530109D01*
X87752179Y-71655048D01*
X87752181Y-71655049D01*
X87752184Y-71655051D01*
X87941588Y-71751557D01*
X88143757Y-71817246D01*
X88353713Y-71850500D01*
X88353714Y-71850500D01*
X88566286Y-71850500D01*
X88566287Y-71850500D01*
X88776243Y-71817246D01*
X88978412Y-71751557D01*
X89167816Y-71655051D01*
X89254138Y-71592335D01*
X89339786Y-71530109D01*
X89339788Y-71530106D01*
X89339792Y-71530104D01*
X89490104Y-71379792D01*
X89490106Y-71379788D01*
X89490109Y-71379786D01*
X89615048Y-71207820D01*
X89615050Y-71207817D01*
X89615051Y-71207816D01*
X89619514Y-71199054D01*
X89667488Y-71148259D01*
X89735308Y-71131463D01*
X89801444Y-71153999D01*
X89840486Y-71199056D01*
X89844951Y-71207820D01*
X89969890Y-71379786D01*
X90120213Y-71530109D01*
X90292179Y-71655048D01*
X90292181Y-71655049D01*
X90292184Y-71655051D01*
X90481588Y-71751557D01*
X90683757Y-71817246D01*
X90893713Y-71850500D01*
X90893714Y-71850500D01*
X91106286Y-71850500D01*
X91106287Y-71850500D01*
X91316243Y-71817246D01*
X91518412Y-71751557D01*
X91707816Y-71655051D01*
X91794138Y-71592335D01*
X91879786Y-71530109D01*
X91879788Y-71530106D01*
X91879792Y-71530104D01*
X92030104Y-71379792D01*
X92030106Y-71379788D01*
X92030109Y-71379786D01*
X92155050Y-71207817D01*
X92165015Y-71188261D01*
X92212989Y-71137464D01*
X92280810Y-71120669D01*
X92346945Y-71143206D01*
G37*
%TD.AperFunction*%
%TA.AperFunction,Conductor*%
G36*
X47916941Y-90270184D02*
G01*
X47937583Y-90286818D01*
X48463583Y-90812819D01*
X48474195Y-90832255D01*
X48488696Y-90848989D01*
X48490612Y-90862320D01*
X48497068Y-90874142D01*
X48495488Y-90896228D01*
X48498640Y-90918147D01*
X48493044Y-90930398D01*
X48492084Y-90943834D01*
X48478813Y-90961560D01*
X48469615Y-90981703D01*
X48458283Y-90988985D01*
X48450212Y-90999767D01*
X48429466Y-91007504D01*
X48410837Y-91019477D01*
X48388918Y-91022628D01*
X48384748Y-91024184D01*
X48375902Y-91024500D01*
X48291519Y-91024500D01*
X48224480Y-91004815D01*
X48203838Y-90988181D01*
X47708895Y-90493238D01*
X47675410Y-90431915D01*
X47680394Y-90362223D01*
X47682003Y-90358133D01*
X47683580Y-90354328D01*
X47684377Y-90350317D01*
X47716754Y-90288406D01*
X47777466Y-90253826D01*
X47805989Y-90250499D01*
X47849903Y-90250499D01*
X47916941Y-90270184D01*
G37*
%TD.AperFunction*%
%TA.AperFunction,Conductor*%
G36*
X45933039Y-71519685D02*
G01*
X45978794Y-71572489D01*
X45990000Y-71624000D01*
X45990000Y-72750000D01*
X46237828Y-72750000D01*
X46237844Y-72749999D01*
X46297372Y-72743598D01*
X46297375Y-72743597D01*
X46330949Y-72731075D01*
X46400640Y-72726089D01*
X46417619Y-72731075D01*
X46452511Y-72744089D01*
X46452512Y-72744089D01*
X46452517Y-72744091D01*
X46512127Y-72750500D01*
X47507872Y-72750499D01*
X47567483Y-72744091D01*
X47601667Y-72731340D01*
X47671358Y-72726357D01*
X47688327Y-72731338D01*
X47722517Y-72744091D01*
X47782127Y-72750500D01*
X48777872Y-72750499D01*
X48837483Y-72744091D01*
X48871667Y-72731340D01*
X48941358Y-72726357D01*
X48958327Y-72731338D01*
X48992517Y-72744091D01*
X49052127Y-72750500D01*
X50047872Y-72750499D01*
X50107483Y-72744091D01*
X50141667Y-72731340D01*
X50211358Y-72726357D01*
X50228327Y-72731338D01*
X50262517Y-72744091D01*
X50322127Y-72750500D01*
X51317872Y-72750499D01*
X51377483Y-72744091D01*
X51411667Y-72731340D01*
X51481358Y-72726357D01*
X51498327Y-72731338D01*
X51532517Y-72744091D01*
X51592127Y-72750500D01*
X52587872Y-72750499D01*
X52647483Y-72744091D01*
X52681667Y-72731340D01*
X52751358Y-72726357D01*
X52768327Y-72731338D01*
X52802517Y-72744091D01*
X52862127Y-72750500D01*
X53857872Y-72750499D01*
X53917483Y-72744091D01*
X53951667Y-72731340D01*
X54021358Y-72726357D01*
X54038327Y-72731338D01*
X54072517Y-72744091D01*
X54132127Y-72750500D01*
X55127872Y-72750499D01*
X55187483Y-72744091D01*
X55221667Y-72731340D01*
X55291358Y-72726357D01*
X55308327Y-72731338D01*
X55342517Y-72744091D01*
X55402127Y-72750500D01*
X56397872Y-72750499D01*
X56457483Y-72744091D01*
X56491667Y-72731340D01*
X56561358Y-72726357D01*
X56578327Y-72731338D01*
X56612517Y-72744091D01*
X56672127Y-72750500D01*
X57667872Y-72750499D01*
X57727483Y-72744091D01*
X57761667Y-72731340D01*
X57831358Y-72726357D01*
X57848327Y-72731338D01*
X57882517Y-72744091D01*
X57942127Y-72750500D01*
X58937872Y-72750499D01*
X58997483Y-72744091D01*
X59031667Y-72731340D01*
X59101358Y-72726357D01*
X59118327Y-72731338D01*
X59152517Y-72744091D01*
X59212127Y-72750500D01*
X60207872Y-72750499D01*
X60267483Y-72744091D01*
X60301667Y-72731340D01*
X60371358Y-72726357D01*
X60388327Y-72731338D01*
X60422517Y-72744091D01*
X60482127Y-72750500D01*
X61477872Y-72750499D01*
X61537483Y-72744091D01*
X61571667Y-72731340D01*
X61641358Y-72726357D01*
X61658327Y-72731338D01*
X61685487Y-72741469D01*
X61692511Y-72744089D01*
X61692517Y-72744091D01*
X61752127Y-72750500D01*
X62125500Y-72750499D01*
X62192539Y-72770183D01*
X62238294Y-72822987D01*
X62249500Y-72874499D01*
X62249500Y-73762870D01*
X62249501Y-73762876D01*
X62255908Y-73822481D01*
X62268659Y-73856669D01*
X62273642Y-73926361D01*
X62268659Y-73943331D01*
X62255908Y-73977518D01*
X62253613Y-73998868D01*
X62249501Y-74037123D01*
X62249500Y-74037135D01*
X62249500Y-75032870D01*
X62249501Y-75032876D01*
X62255908Y-75092481D01*
X62268659Y-75126669D01*
X62273642Y-75196361D01*
X62268659Y-75213331D01*
X62255908Y-75247518D01*
X62249501Y-75307116D01*
X62249501Y-75307123D01*
X62249500Y-75307135D01*
X62249500Y-76302870D01*
X62249501Y-76302876D01*
X62255908Y-76362481D01*
X62268659Y-76396669D01*
X62273642Y-76466361D01*
X62268659Y-76483331D01*
X62255908Y-76517518D01*
X62249501Y-76577116D01*
X62249501Y-76577123D01*
X62249500Y-76577135D01*
X62249500Y-77572870D01*
X62249501Y-77572876D01*
X62255908Y-77632481D01*
X62268659Y-77666669D01*
X62273642Y-77736361D01*
X62268659Y-77753331D01*
X62255908Y-77787518D01*
X62253659Y-77808441D01*
X62249501Y-77847123D01*
X62249500Y-77847135D01*
X62249500Y-78842870D01*
X62249501Y-78842876D01*
X62255908Y-78902481D01*
X62268659Y-78936669D01*
X62273642Y-79006361D01*
X62268659Y-79023331D01*
X62255908Y-79057518D01*
X62249501Y-79117116D01*
X62249500Y-79117135D01*
X62249500Y-80112870D01*
X62249501Y-80112876D01*
X62255908Y-80172481D01*
X62268659Y-80206669D01*
X62273642Y-80276361D01*
X62268659Y-80293331D01*
X62255908Y-80327518D01*
X62249501Y-80387116D01*
X62249500Y-80387135D01*
X62249500Y-81382870D01*
X62249501Y-81382876D01*
X62255908Y-81442481D01*
X62268659Y-81476669D01*
X62273642Y-81546361D01*
X62268659Y-81563331D01*
X62255908Y-81597518D01*
X62249501Y-81657116D01*
X62249500Y-81657135D01*
X62249500Y-82652870D01*
X62249501Y-82652876D01*
X62255908Y-82712481D01*
X62268659Y-82746669D01*
X62273642Y-82816361D01*
X62268659Y-82833331D01*
X62255908Y-82867518D01*
X62249501Y-82927116D01*
X62249500Y-82927135D01*
X62249500Y-83922870D01*
X62249501Y-83922876D01*
X62255908Y-83982481D01*
X62268659Y-84016669D01*
X62273642Y-84086361D01*
X62268659Y-84103331D01*
X62255908Y-84137518D01*
X62249501Y-84197116D01*
X62249500Y-84197135D01*
X62249500Y-85192870D01*
X62249501Y-85192876D01*
X62255908Y-85252481D01*
X62268659Y-85286669D01*
X62273642Y-85356361D01*
X62268659Y-85373331D01*
X62255908Y-85407518D01*
X62249501Y-85467116D01*
X62249501Y-85467123D01*
X62249500Y-85467135D01*
X62249500Y-86462870D01*
X62249501Y-86462876D01*
X62255908Y-86522481D01*
X62268659Y-86556669D01*
X62273642Y-86626361D01*
X62268659Y-86643331D01*
X62255908Y-86677518D01*
X62250066Y-86731865D01*
X62249501Y-86737123D01*
X62249500Y-86737135D01*
X62249500Y-87625500D01*
X62229815Y-87692539D01*
X62177011Y-87738294D01*
X62125500Y-87749500D01*
X61752130Y-87749500D01*
X61752123Y-87749501D01*
X61692518Y-87755908D01*
X61658331Y-87768659D01*
X61588639Y-87773642D01*
X61571669Y-87768659D01*
X61553597Y-87761919D01*
X61537483Y-87755909D01*
X61537482Y-87755908D01*
X61477883Y-87749501D01*
X61477881Y-87749500D01*
X61477873Y-87749500D01*
X61477864Y-87749500D01*
X60482129Y-87749500D01*
X60482123Y-87749501D01*
X60422518Y-87755908D01*
X60388331Y-87768659D01*
X60318639Y-87773642D01*
X60301669Y-87768659D01*
X60283597Y-87761919D01*
X60267483Y-87755909D01*
X60267482Y-87755908D01*
X60207883Y-87749501D01*
X60207881Y-87749500D01*
X60207873Y-87749500D01*
X60207864Y-87749500D01*
X59212129Y-87749500D01*
X59212123Y-87749501D01*
X59152518Y-87755908D01*
X59118331Y-87768659D01*
X59048639Y-87773642D01*
X59031669Y-87768659D01*
X59013597Y-87761919D01*
X58997483Y-87755909D01*
X58997482Y-87755908D01*
X58937883Y-87749501D01*
X58937881Y-87749500D01*
X58937873Y-87749500D01*
X58937864Y-87749500D01*
X57942129Y-87749500D01*
X57942123Y-87749501D01*
X57882518Y-87755908D01*
X57848331Y-87768659D01*
X57778639Y-87773642D01*
X57761669Y-87768659D01*
X57743597Y-87761919D01*
X57727483Y-87755909D01*
X57727482Y-87755908D01*
X57667883Y-87749501D01*
X57667881Y-87749500D01*
X57667873Y-87749500D01*
X57667864Y-87749500D01*
X56672129Y-87749500D01*
X56672123Y-87749501D01*
X56612518Y-87755908D01*
X56578331Y-87768659D01*
X56508639Y-87773642D01*
X56491669Y-87768659D01*
X56473597Y-87761919D01*
X56457483Y-87755909D01*
X56457482Y-87755908D01*
X56397883Y-87749501D01*
X56397881Y-87749500D01*
X56397873Y-87749500D01*
X56397864Y-87749500D01*
X55402129Y-87749500D01*
X55402123Y-87749501D01*
X55342518Y-87755908D01*
X55308331Y-87768659D01*
X55238639Y-87773642D01*
X55221669Y-87768659D01*
X55203597Y-87761919D01*
X55187483Y-87755909D01*
X55187482Y-87755908D01*
X55127883Y-87749501D01*
X55127881Y-87749500D01*
X55127873Y-87749500D01*
X55127864Y-87749500D01*
X54132129Y-87749500D01*
X54132123Y-87749501D01*
X54072518Y-87755908D01*
X54038331Y-87768659D01*
X53968639Y-87773642D01*
X53951669Y-87768659D01*
X53933597Y-87761919D01*
X53917483Y-87755909D01*
X53917482Y-87755908D01*
X53857883Y-87749501D01*
X53857881Y-87749500D01*
X53857873Y-87749500D01*
X53857864Y-87749500D01*
X52862129Y-87749500D01*
X52862123Y-87749501D01*
X52802518Y-87755908D01*
X52768331Y-87768659D01*
X52698639Y-87773642D01*
X52681669Y-87768659D01*
X52663597Y-87761919D01*
X52647483Y-87755909D01*
X52647482Y-87755908D01*
X52587883Y-87749501D01*
X52587881Y-87749500D01*
X52587873Y-87749500D01*
X52587864Y-87749500D01*
X51592129Y-87749500D01*
X51592123Y-87749501D01*
X51532518Y-87755908D01*
X51498331Y-87768659D01*
X51428639Y-87773642D01*
X51411669Y-87768659D01*
X51393597Y-87761919D01*
X51377483Y-87755909D01*
X51377482Y-87755908D01*
X51317883Y-87749501D01*
X51317881Y-87749500D01*
X51317873Y-87749500D01*
X51317864Y-87749500D01*
X50322129Y-87749500D01*
X50322123Y-87749501D01*
X50262518Y-87755908D01*
X50228331Y-87768659D01*
X50158639Y-87773642D01*
X50141669Y-87768659D01*
X50123597Y-87761919D01*
X50107483Y-87755909D01*
X50107482Y-87755908D01*
X50047883Y-87749501D01*
X50047881Y-87749500D01*
X50047873Y-87749500D01*
X50047864Y-87749500D01*
X49052129Y-87749500D01*
X49052123Y-87749501D01*
X48992518Y-87755908D01*
X48958331Y-87768659D01*
X48888639Y-87773642D01*
X48871669Y-87768659D01*
X48853597Y-87761919D01*
X48837483Y-87755909D01*
X48837482Y-87755908D01*
X48777883Y-87749501D01*
X48777881Y-87749500D01*
X48777873Y-87749500D01*
X48777864Y-87749500D01*
X47782129Y-87749500D01*
X47782123Y-87749501D01*
X47722518Y-87755908D01*
X47688331Y-87768659D01*
X47618639Y-87773642D01*
X47601669Y-87768659D01*
X47583597Y-87761919D01*
X47567483Y-87755909D01*
X47567482Y-87755908D01*
X47507883Y-87749501D01*
X47507881Y-87749500D01*
X47507873Y-87749500D01*
X47507864Y-87749500D01*
X46512129Y-87749500D01*
X46512123Y-87749501D01*
X46452520Y-87755908D01*
X46452517Y-87755908D01*
X46452517Y-87755909D01*
X46417620Y-87768925D01*
X46417617Y-87768926D01*
X46347925Y-87773909D01*
X46330952Y-87768925D01*
X46297379Y-87756403D01*
X46297372Y-87756401D01*
X46237844Y-87750000D01*
X45990000Y-87750000D01*
X45990000Y-88876000D01*
X45970315Y-88943039D01*
X45917511Y-88988794D01*
X45866000Y-89000000D01*
X45614000Y-89000000D01*
X45546961Y-88980315D01*
X45501206Y-88927511D01*
X45490000Y-88876000D01*
X45490000Y-87750000D01*
X45242155Y-87750000D01*
X45182627Y-87756401D01*
X45182620Y-87756403D01*
X45167831Y-87761919D01*
X45098139Y-87766902D01*
X45036817Y-87733415D01*
X45003333Y-87672091D01*
X45000500Y-87645736D01*
X45000500Y-83647844D01*
X51110000Y-83647844D01*
X51116401Y-83707372D01*
X51116403Y-83707379D01*
X51166645Y-83842086D01*
X51166649Y-83842093D01*
X51252809Y-83957187D01*
X51252812Y-83957190D01*
X51367906Y-84043350D01*
X51367913Y-84043354D01*
X51502620Y-84093596D01*
X51502627Y-84093598D01*
X51562155Y-84099999D01*
X51562172Y-84100000D01*
X51810000Y-84100000D01*
X52310000Y-84100000D01*
X52557828Y-84100000D01*
X52557844Y-84099999D01*
X52617372Y-84093598D01*
X52617376Y-84093597D01*
X52716666Y-84056564D01*
X52786358Y-84051580D01*
X52803334Y-84056564D01*
X52902623Y-84093597D01*
X52902627Y-84093598D01*
X52962155Y-84099999D01*
X52962172Y-84100000D01*
X53210000Y-84100000D01*
X53710000Y-84100000D01*
X53957828Y-84100000D01*
X53957844Y-84099999D01*
X54017372Y-84093598D01*
X54017376Y-84093597D01*
X54116666Y-84056564D01*
X54186358Y-84051580D01*
X54203334Y-84056564D01*
X54302623Y-84093597D01*
X54302627Y-84093598D01*
X54362155Y-84099999D01*
X54362172Y-84100000D01*
X54610000Y-84100000D01*
X55110000Y-84100000D01*
X55357828Y-84100000D01*
X55357844Y-84099999D01*
X55417372Y-84093598D01*
X55417379Y-84093596D01*
X55552086Y-84043354D01*
X55552093Y-84043350D01*
X55667187Y-83957190D01*
X55667190Y-83957187D01*
X55753350Y-83842093D01*
X55753354Y-83842086D01*
X55803596Y-83707379D01*
X55803598Y-83707372D01*
X55809999Y-83647844D01*
X55810000Y-83647827D01*
X55810000Y-83400000D01*
X55110000Y-83400000D01*
X55110000Y-84100000D01*
X54610000Y-84100000D01*
X54610000Y-83400000D01*
X53710000Y-83400000D01*
X53710000Y-84100000D01*
X53210000Y-84100000D01*
X53210000Y-83400000D01*
X52310000Y-83400000D01*
X52310000Y-84100000D01*
X51810000Y-84100000D01*
X51810000Y-83400000D01*
X51110000Y-83400000D01*
X51110000Y-83647844D01*
X45000500Y-83647844D01*
X45000500Y-83130109D01*
X52660000Y-83130109D01*
X52660000Y-83169891D01*
X52675224Y-83206645D01*
X52703355Y-83234776D01*
X52740109Y-83250000D01*
X52779891Y-83250000D01*
X52816645Y-83234776D01*
X52844776Y-83206645D01*
X52860000Y-83169891D01*
X52860000Y-83130109D01*
X54060000Y-83130109D01*
X54060000Y-83169891D01*
X54075224Y-83206645D01*
X54103355Y-83234776D01*
X54140109Y-83250000D01*
X54179891Y-83250000D01*
X54216645Y-83234776D01*
X54244776Y-83206645D01*
X54260000Y-83169891D01*
X54260000Y-83130109D01*
X54244776Y-83093355D01*
X54216645Y-83065224D01*
X54179891Y-83050000D01*
X54140109Y-83050000D01*
X54103355Y-83065224D01*
X54075224Y-83093355D01*
X54060000Y-83130109D01*
X52860000Y-83130109D01*
X52844776Y-83093355D01*
X52816645Y-83065224D01*
X52779891Y-83050000D01*
X52740109Y-83050000D01*
X52703355Y-83065224D01*
X52675224Y-83093355D01*
X52660000Y-83130109D01*
X45000500Y-83130109D01*
X45000500Y-82247844D01*
X51110000Y-82247844D01*
X51116401Y-82307372D01*
X51116403Y-82307383D01*
X51153434Y-82406668D01*
X51158418Y-82476360D01*
X51153434Y-82493332D01*
X51116403Y-82592616D01*
X51116401Y-82592627D01*
X51110000Y-82652155D01*
X51110000Y-82900000D01*
X51810000Y-82900000D01*
X55110000Y-82900000D01*
X55810000Y-82900000D01*
X55810000Y-82652172D01*
X55809999Y-82652155D01*
X55803598Y-82592627D01*
X55803597Y-82592623D01*
X55766564Y-82493334D01*
X55761580Y-82423642D01*
X55766564Y-82406666D01*
X55803597Y-82307376D01*
X55803598Y-82307372D01*
X55809999Y-82247844D01*
X55810000Y-82247827D01*
X55810000Y-82000000D01*
X55110000Y-82000000D01*
X55110000Y-82900000D01*
X51810000Y-82900000D01*
X51810000Y-82430109D01*
X51960000Y-82430109D01*
X51960000Y-82469891D01*
X51975224Y-82506645D01*
X52003355Y-82534776D01*
X52040109Y-82550000D01*
X52079891Y-82550000D01*
X52116645Y-82534776D01*
X52144776Y-82506645D01*
X52160000Y-82469891D01*
X52160000Y-82449999D01*
X52342842Y-82449999D01*
X52519351Y-82626507D01*
X52519351Y-82626508D01*
X52760000Y-82867157D01*
X53177157Y-82450000D01*
X53157266Y-82430109D01*
X53360000Y-82430109D01*
X53360000Y-82469891D01*
X53375224Y-82506645D01*
X53403355Y-82534776D01*
X53440109Y-82550000D01*
X53479891Y-82550000D01*
X53516645Y-82534776D01*
X53544776Y-82506645D01*
X53560000Y-82469891D01*
X53560000Y-82449999D01*
X53742842Y-82449999D01*
X53919351Y-82626507D01*
X53919351Y-82626508D01*
X54160000Y-82867157D01*
X54577157Y-82450000D01*
X54557266Y-82430109D01*
X54760000Y-82430109D01*
X54760000Y-82469891D01*
X54775224Y-82506645D01*
X54803355Y-82534776D01*
X54840109Y-82550000D01*
X54879891Y-82550000D01*
X54916645Y-82534776D01*
X54944776Y-82506645D01*
X54960000Y-82469891D01*
X54960000Y-82430109D01*
X54944776Y-82393355D01*
X54916645Y-82365224D01*
X54879891Y-82350000D01*
X54840109Y-82350000D01*
X54803355Y-82365224D01*
X54775224Y-82393355D01*
X54760000Y-82430109D01*
X54557266Y-82430109D01*
X54322634Y-82195477D01*
X54322633Y-82195477D01*
X54163477Y-82036319D01*
X54163475Y-82036316D01*
X54160001Y-82032842D01*
X54159999Y-82032842D01*
X53997365Y-82195477D01*
X53742842Y-82449999D01*
X53560000Y-82449999D01*
X53560000Y-82430109D01*
X53544776Y-82393355D01*
X53516645Y-82365224D01*
X53479891Y-82350000D01*
X53440109Y-82350000D01*
X53403355Y-82365224D01*
X53375224Y-82393355D01*
X53360000Y-82430109D01*
X53157266Y-82430109D01*
X52922634Y-82195477D01*
X52922632Y-82195474D01*
X52760001Y-82032842D01*
X52759999Y-82032842D01*
X52597365Y-82195477D01*
X52342842Y-82449999D01*
X52160000Y-82449999D01*
X52160000Y-82430109D01*
X52144776Y-82393355D01*
X52116645Y-82365224D01*
X52079891Y-82350000D01*
X52040109Y-82350000D01*
X52003355Y-82365224D01*
X51975224Y-82393355D01*
X51960000Y-82430109D01*
X51810000Y-82430109D01*
X51810000Y-82000000D01*
X51110000Y-82000000D01*
X51110000Y-82247844D01*
X45000500Y-82247844D01*
X45000500Y-81730109D01*
X52660000Y-81730109D01*
X52660000Y-81769891D01*
X52675224Y-81806645D01*
X52703355Y-81834776D01*
X52740109Y-81850000D01*
X52779891Y-81850000D01*
X52816645Y-81834776D01*
X52844776Y-81806645D01*
X52860000Y-81769891D01*
X52860000Y-81730109D01*
X54060000Y-81730109D01*
X54060000Y-81769891D01*
X54075224Y-81806645D01*
X54103355Y-81834776D01*
X54140109Y-81850000D01*
X54179891Y-81850000D01*
X54216645Y-81834776D01*
X54244776Y-81806645D01*
X54260000Y-81769891D01*
X54260000Y-81730109D01*
X54244776Y-81693355D01*
X54216645Y-81665224D01*
X54179891Y-81650000D01*
X54140109Y-81650000D01*
X54103355Y-81665224D01*
X54075224Y-81693355D01*
X54060000Y-81730109D01*
X52860000Y-81730109D01*
X52844776Y-81693355D01*
X52816645Y-81665224D01*
X52779891Y-81650000D01*
X52740109Y-81650000D01*
X52703355Y-81665224D01*
X52675224Y-81693355D01*
X52660000Y-81730109D01*
X45000500Y-81730109D01*
X45000500Y-80847844D01*
X51110000Y-80847844D01*
X51116401Y-80907372D01*
X51116403Y-80907383D01*
X51153434Y-81006668D01*
X51158418Y-81076360D01*
X51153434Y-81093332D01*
X51116403Y-81192616D01*
X51116401Y-81192627D01*
X51110000Y-81252155D01*
X51110000Y-81500000D01*
X51810000Y-81500000D01*
X55110000Y-81500000D01*
X55810000Y-81500000D01*
X55810000Y-81252172D01*
X55809999Y-81252155D01*
X55803598Y-81192627D01*
X55803597Y-81192623D01*
X55766564Y-81093334D01*
X55761580Y-81023642D01*
X55766564Y-81006666D01*
X55803597Y-80907376D01*
X55803598Y-80907372D01*
X55809999Y-80847844D01*
X55810000Y-80847827D01*
X55810000Y-80600000D01*
X55110000Y-80600000D01*
X55110000Y-81500000D01*
X51810000Y-81500000D01*
X51810000Y-81030109D01*
X51960000Y-81030109D01*
X51960000Y-81069891D01*
X51975224Y-81106645D01*
X52003355Y-81134776D01*
X52040109Y-81150000D01*
X52079891Y-81150000D01*
X52116645Y-81134776D01*
X52144776Y-81106645D01*
X52160000Y-81069891D01*
X52160000Y-81049999D01*
X52342842Y-81049999D01*
X52342842Y-81050000D01*
X52503013Y-81210171D01*
X52503028Y-81210185D01*
X52760000Y-81467157D01*
X53177157Y-81050000D01*
X53157266Y-81030109D01*
X53360000Y-81030109D01*
X53360000Y-81069891D01*
X53375224Y-81106645D01*
X53403355Y-81134776D01*
X53440109Y-81150000D01*
X53479891Y-81150000D01*
X53516645Y-81134776D01*
X53544776Y-81106645D01*
X53560000Y-81069891D01*
X53560000Y-81049999D01*
X53742842Y-81049999D01*
X53742842Y-81050000D01*
X53903013Y-81210171D01*
X53903028Y-81210185D01*
X54160000Y-81467157D01*
X54577157Y-81050000D01*
X54557266Y-81030109D01*
X54760000Y-81030109D01*
X54760000Y-81069891D01*
X54775224Y-81106645D01*
X54803355Y-81134776D01*
X54840109Y-81150000D01*
X54879891Y-81150000D01*
X54916645Y-81134776D01*
X54944776Y-81106645D01*
X54960000Y-81069891D01*
X54960000Y-81030109D01*
X54944776Y-80993355D01*
X54916645Y-80965224D01*
X54879891Y-80950000D01*
X54840109Y-80950000D01*
X54803355Y-80965224D01*
X54775224Y-80993355D01*
X54760000Y-81030109D01*
X54557266Y-81030109D01*
X54322634Y-80795477D01*
X54322633Y-80795477D01*
X54163477Y-80636319D01*
X54163475Y-80636316D01*
X54160001Y-80632842D01*
X54159999Y-80632842D01*
X53997365Y-80795477D01*
X53742842Y-81049999D01*
X53560000Y-81049999D01*
X53560000Y-81030109D01*
X53544776Y-80993355D01*
X53516645Y-80965224D01*
X53479891Y-80950000D01*
X53440109Y-80950000D01*
X53403355Y-80965224D01*
X53375224Y-80993355D01*
X53360000Y-81030109D01*
X53157266Y-81030109D01*
X52922634Y-80795477D01*
X52922632Y-80795474D01*
X52760001Y-80632842D01*
X52759999Y-80632842D01*
X52597365Y-80795477D01*
X52342842Y-81049999D01*
X52160000Y-81049999D01*
X52160000Y-81030109D01*
X52144776Y-80993355D01*
X52116645Y-80965224D01*
X52079891Y-80950000D01*
X52040109Y-80950000D01*
X52003355Y-80965224D01*
X51975224Y-80993355D01*
X51960000Y-81030109D01*
X51810000Y-81030109D01*
X51810000Y-80600000D01*
X51110000Y-80600000D01*
X51110000Y-80847844D01*
X45000500Y-80847844D01*
X45000500Y-80330109D01*
X52660000Y-80330109D01*
X52660000Y-80369891D01*
X52675224Y-80406645D01*
X52703355Y-80434776D01*
X52740109Y-80450000D01*
X52779891Y-80450000D01*
X52816645Y-80434776D01*
X52844776Y-80406645D01*
X52860000Y-80369891D01*
X52860000Y-80330109D01*
X54060000Y-80330109D01*
X54060000Y-80369891D01*
X54075224Y-80406645D01*
X54103355Y-80434776D01*
X54140109Y-80450000D01*
X54179891Y-80450000D01*
X54216645Y-80434776D01*
X54244776Y-80406645D01*
X54260000Y-80369891D01*
X54260000Y-80330109D01*
X54244776Y-80293355D01*
X54216645Y-80265224D01*
X54179891Y-80250000D01*
X54140109Y-80250000D01*
X54103355Y-80265224D01*
X54075224Y-80293355D01*
X54060000Y-80330109D01*
X52860000Y-80330109D01*
X52844776Y-80293355D01*
X52816645Y-80265224D01*
X52779891Y-80250000D01*
X52740109Y-80250000D01*
X52703355Y-80265224D01*
X52675224Y-80293355D01*
X52660000Y-80330109D01*
X45000500Y-80330109D01*
X45000500Y-79852155D01*
X51110000Y-79852155D01*
X51110000Y-80100000D01*
X51810000Y-80100000D01*
X52310000Y-80100000D01*
X53210000Y-80100000D01*
X53710000Y-80100000D01*
X54610000Y-80100000D01*
X55110000Y-80100000D01*
X55810000Y-80100000D01*
X55810000Y-79852172D01*
X55809999Y-79852155D01*
X55803598Y-79792627D01*
X55803596Y-79792620D01*
X55753354Y-79657913D01*
X55753350Y-79657906D01*
X55667190Y-79542812D01*
X55667187Y-79542809D01*
X55552093Y-79456649D01*
X55552086Y-79456645D01*
X55417379Y-79406403D01*
X55417372Y-79406401D01*
X55357844Y-79400000D01*
X55110000Y-79400000D01*
X55110000Y-80100000D01*
X54610000Y-80100000D01*
X54610000Y-79400000D01*
X54362155Y-79400000D01*
X54302627Y-79406401D01*
X54302616Y-79406403D01*
X54203332Y-79443434D01*
X54133640Y-79448418D01*
X54116668Y-79443434D01*
X54017383Y-79406403D01*
X54017372Y-79406401D01*
X53957844Y-79400000D01*
X53710000Y-79400000D01*
X53710000Y-80100000D01*
X53210000Y-80100000D01*
X53210000Y-79400000D01*
X52962155Y-79400000D01*
X52902627Y-79406401D01*
X52902616Y-79406403D01*
X52803332Y-79443434D01*
X52733640Y-79448418D01*
X52716668Y-79443434D01*
X52617383Y-79406403D01*
X52617372Y-79406401D01*
X52557844Y-79400000D01*
X52310000Y-79400000D01*
X52310000Y-80100000D01*
X51810000Y-80100000D01*
X51810000Y-79400000D01*
X51562155Y-79400000D01*
X51502627Y-79406401D01*
X51502620Y-79406403D01*
X51367913Y-79456645D01*
X51367906Y-79456649D01*
X51252812Y-79542809D01*
X51252809Y-79542812D01*
X51166649Y-79657906D01*
X51166645Y-79657913D01*
X51116403Y-79792620D01*
X51116401Y-79792627D01*
X51110000Y-79852155D01*
X45000500Y-79852155D01*
X45000500Y-72854263D01*
X45020185Y-72787224D01*
X45072989Y-72741469D01*
X45142147Y-72731525D01*
X45167835Y-72738082D01*
X45182619Y-72743596D01*
X45182627Y-72743598D01*
X45242155Y-72749999D01*
X45242172Y-72750000D01*
X45490000Y-72750000D01*
X45490000Y-71624000D01*
X45509685Y-71556961D01*
X45562489Y-71511206D01*
X45614000Y-71500000D01*
X45866000Y-71500000D01*
X45933039Y-71519685D01*
G37*
%TD.AperFunction*%
%TA.AperFunction,Conductor*%
G36*
X89455739Y-84112121D02*
G01*
X89511672Y-84153993D01*
X89536089Y-84219457D01*
X89536405Y-84228303D01*
X89536405Y-84375493D01*
X89569659Y-84585451D01*
X89569659Y-84585454D01*
X89583396Y-84627730D01*
X89585391Y-84697571D01*
X89553146Y-84753729D01*
X87743792Y-86563083D01*
X87682469Y-86596568D01*
X87612777Y-86591584D01*
X87568430Y-86563083D01*
X87388040Y-86382693D01*
X87388038Y-86382690D01*
X87269167Y-86263819D01*
X87269166Y-86263818D01*
X87173710Y-86208707D01*
X87173709Y-86208706D01*
X87132233Y-86184760D01*
X87076331Y-86169781D01*
X86979507Y-86143837D01*
X86821393Y-86143837D01*
X86813797Y-86143837D01*
X86813781Y-86143838D01*
X83177088Y-86143838D01*
X83137940Y-86154327D01*
X83137941Y-86154328D01*
X83024361Y-86184761D01*
X83024356Y-86184764D01*
X82887437Y-86263813D01*
X82887429Y-86263819D01*
X82775625Y-86375624D01*
X82775624Y-86375625D01*
X82736679Y-86414569D01*
X82675356Y-86448054D01*
X82605664Y-86443068D01*
X82549731Y-86401196D01*
X82525315Y-86335731D01*
X82524999Y-86326886D01*
X82525000Y-86250000D01*
X80275001Y-86250000D01*
X80275001Y-86674989D01*
X80283982Y-86762899D01*
X80271212Y-86831592D01*
X80223331Y-86882476D01*
X80160624Y-86899500D01*
X79839879Y-86899500D01*
X79772840Y-86879815D01*
X79727085Y-86827011D01*
X79716521Y-86762897D01*
X79716925Y-86758945D01*
X79725500Y-86675009D01*
X79725499Y-85324992D01*
X79725427Y-85324292D01*
X79716521Y-85237101D01*
X79729291Y-85168408D01*
X79777172Y-85117524D01*
X79839879Y-85100500D01*
X80160624Y-85100500D01*
X80227663Y-85120185D01*
X80273418Y-85172989D01*
X80283982Y-85237103D01*
X80275000Y-85325013D01*
X80275000Y-85750000D01*
X82524999Y-85750000D01*
X82524999Y-85325028D01*
X82524998Y-85325010D01*
X82516018Y-85237101D01*
X82528788Y-85168408D01*
X82576669Y-85117524D01*
X82639376Y-85100500D01*
X88029443Y-85100500D01*
X88029459Y-85100501D01*
X88037055Y-85100501D01*
X88195166Y-85100501D01*
X88195169Y-85100501D01*
X88347897Y-85059577D01*
X88398016Y-85030639D01*
X88484828Y-84980520D01*
X88596632Y-84868716D01*
X88596632Y-84868714D01*
X88606840Y-84858507D01*
X88606842Y-84858504D01*
X89324724Y-84140622D01*
X89386047Y-84107137D01*
X89455739Y-84112121D01*
G37*
%TD.AperFunction*%
%TA.AperFunction,Conductor*%
G36*
X85074075Y-74427993D02*
G01*
X85139901Y-74542007D01*
X85232993Y-74635099D01*
X85347007Y-74700925D01*
X85410590Y-74717962D01*
X84778282Y-75350269D01*
X84778282Y-75350270D01*
X84832452Y-75389626D01*
X84832451Y-75389626D01*
X84841495Y-75394234D01*
X84892292Y-75442208D01*
X84909087Y-75510029D01*
X84886550Y-75576164D01*
X84841499Y-75615202D01*
X84832182Y-75619949D01*
X84660213Y-75744890D01*
X84509892Y-75895211D01*
X84441573Y-75989247D01*
X84416770Y-76023385D01*
X84412439Y-76026725D01*
X84410166Y-76031703D01*
X84385066Y-76047833D01*
X84361442Y-76066051D01*
X84354768Y-76067304D01*
X84351388Y-76069477D01*
X84316453Y-76074500D01*
X84223547Y-76074500D01*
X84156508Y-76054815D01*
X84123230Y-76023385D01*
X84063843Y-75941646D01*
X84030107Y-75895211D01*
X83879786Y-75744890D01*
X83707817Y-75619949D01*
X83698504Y-75615204D01*
X83647707Y-75567230D01*
X83630912Y-75499409D01*
X83653449Y-75433274D01*
X83698507Y-75394232D01*
X83707555Y-75389622D01*
X83761716Y-75350270D01*
X83761717Y-75350270D01*
X83129408Y-74717962D01*
X83192993Y-74700925D01*
X83307007Y-74635099D01*
X83400099Y-74542007D01*
X83465925Y-74427993D01*
X83482962Y-74364408D01*
X84115270Y-74996717D01*
X84115270Y-74996716D01*
X84154622Y-74942554D01*
X84159514Y-74932954D01*
X84207488Y-74882157D01*
X84275308Y-74865361D01*
X84341444Y-74887897D01*
X84380486Y-74932954D01*
X84385375Y-74942550D01*
X84424728Y-74996716D01*
X85057037Y-74364408D01*
X85074075Y-74427993D01*
G37*
%TD.AperFunction*%
%TA.AperFunction,Conductor*%
G36*
X82534075Y-74427993D02*
G01*
X82599901Y-74542007D01*
X82692993Y-74635099D01*
X82807007Y-74700925D01*
X82870590Y-74717962D01*
X82238282Y-75350269D01*
X82238282Y-75350270D01*
X82292452Y-75389626D01*
X82292451Y-75389626D01*
X82301495Y-75394234D01*
X82352292Y-75442208D01*
X82369087Y-75510029D01*
X82346550Y-75576164D01*
X82301499Y-75615202D01*
X82292182Y-75619949D01*
X82120215Y-75744889D01*
X82006673Y-75858431D01*
X81945350Y-75891915D01*
X81875658Y-75886931D01*
X81819725Y-75845059D01*
X81802810Y-75814082D01*
X81753797Y-75682671D01*
X81753793Y-75682664D01*
X81667547Y-75567455D01*
X81667544Y-75567452D01*
X81552335Y-75481206D01*
X81552328Y-75481202D01*
X81417482Y-75430908D01*
X81417483Y-75430908D01*
X81357883Y-75424501D01*
X81357881Y-75424500D01*
X81357873Y-75424500D01*
X81357865Y-75424500D01*
X81347309Y-75424500D01*
X81280270Y-75404815D01*
X81259628Y-75388181D01*
X80589408Y-74717962D01*
X80652993Y-74700925D01*
X80767007Y-74635099D01*
X80860099Y-74542007D01*
X80925925Y-74427993D01*
X80942962Y-74364408D01*
X81575270Y-74996717D01*
X81575270Y-74996716D01*
X81614622Y-74942554D01*
X81619514Y-74932954D01*
X81667488Y-74882157D01*
X81735308Y-74865361D01*
X81801444Y-74887897D01*
X81840486Y-74932954D01*
X81845375Y-74942550D01*
X81884728Y-74996716D01*
X82517037Y-74364408D01*
X82534075Y-74427993D01*
G37*
%TD.AperFunction*%
%TD*%
M02*
