%TF.GenerationSoftware,KiCad,Pcbnew,9.0.4*%
%TF.CreationDate,2026-03-02T15:50:36+01:00*%
%TF.ProjectId,Charging_Base,43686172-6769-46e6-975f-426173652e6b,rev?*%
%TF.SameCoordinates,Original*%
%TF.FileFunction,Soldermask,Top*%
%TF.FilePolarity,Negative*%
%FSLAX46Y46*%
G04 Gerber Fmt 4.6, Leading zero omitted, Abs format (unit mm)*
G04 Created by KiCad (PCBNEW 9.0.4) date 2026-03-02 15:50:36*
%MOMM*%
%LPD*%
G01*
G04 APERTURE LIST*
G04 Aperture macros list*
%AMRoundRect*
0 Rectangle with rounded corners*
0 $1 Rounding radius*
0 $2 $3 $4 $5 $6 $7 $8 $9 X,Y pos of 4 corners*
0 Add a 4 corners polygon primitive as box body*
4,1,4,$2,$3,$4,$5,$6,$7,$8,$9,$2,$3,0*
0 Add four circle primitives for the rounded corners*
1,1,$1+$1,$2,$3*
1,1,$1+$1,$4,$5*
1,1,$1+$1,$6,$7*
1,1,$1+$1,$8,$9*
0 Add four rect primitives between the rounded corners*
20,1,$1+$1,$2,$3,$4,$5,0*
20,1,$1+$1,$4,$5,$6,$7,0*
20,1,$1+$1,$6,$7,$8,$9,0*
20,1,$1+$1,$8,$9,$2,$3,0*%
G04 Aperture macros list end*
%ADD10C,0.010000*%
%ADD11C,0.600000*%
%ADD12O,2.204000X1.104000*%
%ADD13O,1.904000X1.104000*%
%ADD14RoundRect,0.245250X-1.117875X-0.572250X1.117875X-0.572250X1.117875X0.572250X-1.117875X0.572250X0*%
%ADD15RoundRect,0.250000X0.375000X0.625000X-0.375000X0.625000X-0.375000X-0.625000X0.375000X-0.625000X0*%
%ADD16RoundRect,0.075500X-0.806500X-0.226500X0.806500X-0.226500X0.806500X0.226500X-0.806500X0.226500X0*%
%ADD17RoundRect,0.150000X0.512500X0.150000X-0.512500X0.150000X-0.512500X-0.150000X0.512500X-0.150000X0*%
%ADD18RoundRect,0.102000X0.625000X1.000000X-0.625000X1.000000X-0.625000X-1.000000X0.625000X-1.000000X0*%
%ADD19R,2.410000X3.300000*%
%ADD20RoundRect,0.150000X-0.825000X-0.150000X0.825000X-0.150000X0.825000X0.150000X-0.825000X0.150000X0*%
%ADD21RoundRect,0.200000X-0.200000X-0.275000X0.200000X-0.275000X0.200000X0.275000X-0.200000X0.275000X0*%
%ADD22RoundRect,0.102000X1.590000X-1.125000X1.590000X1.125000X-1.590000X1.125000X-1.590000X-1.125000X0*%
%ADD23RoundRect,0.225000X-0.225000X-0.250000X0.225000X-0.250000X0.225000X0.250000X-0.225000X0.250000X0*%
%ADD24RoundRect,0.225000X0.225000X0.250000X-0.225000X0.250000X-0.225000X-0.250000X0.225000X-0.250000X0*%
%ADD25RoundRect,0.200000X0.200000X0.275000X-0.200000X0.275000X-0.200000X-0.275000X0.200000X-0.275000X0*%
G04 APERTURE END LIST*
D10*
%TO.C,J1*%
X27820000Y-150000000D02*
X26580000Y-150000000D01*
X26580000Y-149300000D01*
X27820000Y-149300000D01*
X27820000Y-150000000D01*
G36*
X27820000Y-150000000D02*
G01*
X26580000Y-150000000D01*
X26580000Y-149300000D01*
X27820000Y-149300000D01*
X27820000Y-150000000D01*
G37*
X27820000Y-150800000D02*
X26580000Y-150800000D01*
X26580000Y-150100000D01*
X27820000Y-150100000D01*
X27820000Y-150800000D01*
G36*
X27820000Y-150800000D02*
G01*
X26580000Y-150800000D01*
X26580000Y-150100000D01*
X27820000Y-150100000D01*
X27820000Y-150800000D01*
G37*
X27820000Y-151300000D02*
X26580000Y-151300000D01*
X26580000Y-150900000D01*
X27820000Y-150900000D01*
X27820000Y-151300000D01*
G36*
X27820000Y-151300000D02*
G01*
X26580000Y-151300000D01*
X26580000Y-150900000D01*
X27820000Y-150900000D01*
X27820000Y-151300000D01*
G37*
X27820000Y-151800000D02*
X26580000Y-151800000D01*
X26580000Y-151400000D01*
X27820000Y-151400000D01*
X27820000Y-151800000D01*
G36*
X27820000Y-151800000D02*
G01*
X26580000Y-151800000D01*
X26580000Y-151400000D01*
X27820000Y-151400000D01*
X27820000Y-151800000D01*
G37*
X27820000Y-152300000D02*
X26580000Y-152300000D01*
X26580000Y-151900000D01*
X27820000Y-151900000D01*
X27820000Y-152300000D01*
G36*
X27820000Y-152300000D02*
G01*
X26580000Y-152300000D01*
X26580000Y-151900000D01*
X27820000Y-151900000D01*
X27820000Y-152300000D01*
G37*
X27820000Y-152800000D02*
X26580000Y-152800000D01*
X26580000Y-152400000D01*
X27820000Y-152400000D01*
X27820000Y-152800000D01*
G36*
X27820000Y-152800000D02*
G01*
X26580000Y-152800000D01*
X26580000Y-152400000D01*
X27820000Y-152400000D01*
X27820000Y-152800000D01*
G37*
X27820000Y-153300000D02*
X26580000Y-153300000D01*
X26580000Y-152900000D01*
X27820000Y-152900000D01*
X27820000Y-153300000D01*
G36*
X27820000Y-153300000D02*
G01*
X26580000Y-153300000D01*
X26580000Y-152900000D01*
X27820000Y-152900000D01*
X27820000Y-153300000D01*
G37*
X27820000Y-153800000D02*
X26580000Y-153800000D01*
X26580000Y-153400000D01*
X27820000Y-153400000D01*
X27820000Y-153800000D01*
G36*
X27820000Y-153800000D02*
G01*
X26580000Y-153800000D01*
X26580000Y-153400000D01*
X27820000Y-153400000D01*
X27820000Y-153800000D01*
G37*
X27820000Y-154300000D02*
X26580000Y-154300000D01*
X26580000Y-153900000D01*
X27820000Y-153900000D01*
X27820000Y-154300000D01*
G36*
X27820000Y-154300000D02*
G01*
X26580000Y-154300000D01*
X26580000Y-153900000D01*
X27820000Y-153900000D01*
X27820000Y-154300000D01*
G37*
X27820000Y-154800000D02*
X26580000Y-154800000D01*
X26580000Y-154400000D01*
X27820000Y-154400000D01*
X27820000Y-154800000D01*
G36*
X27820000Y-154800000D02*
G01*
X26580000Y-154800000D01*
X26580000Y-154400000D01*
X27820000Y-154400000D01*
X27820000Y-154800000D01*
G37*
X27820000Y-155600000D02*
X26580000Y-155600000D01*
X26580000Y-154900000D01*
X27820000Y-154900000D01*
X27820000Y-155600000D01*
G36*
X27820000Y-155600000D02*
G01*
X26580000Y-155600000D01*
X26580000Y-154900000D01*
X27820000Y-154900000D01*
X27820000Y-155600000D01*
G37*
X27820000Y-156400000D02*
X26580000Y-156400000D01*
X26580000Y-155700000D01*
X27820000Y-155700000D01*
X27820000Y-156400000D01*
G36*
X27820000Y-156400000D02*
G01*
X26580000Y-156400000D01*
X26580000Y-155700000D01*
X27820000Y-155700000D01*
X27820000Y-156400000D01*
G37*
%TD*%
D11*
%TO.C,J1*%
X26130000Y-149960000D03*
X26130000Y-155740000D03*
D12*
X26620000Y-148525000D03*
X26620000Y-157175000D03*
D13*
X22450000Y-148525000D03*
X22450000Y-157175000D03*
%TD*%
D14*
%TO.C,IN+*%
X26800000Y-145600000D03*
%TD*%
%TO.C,IN-*%
X26800000Y-160000000D03*
%TD*%
%TO.C,O-*%
X55800000Y-151442500D03*
%TD*%
%TO.C,B-*%
X55800000Y-156442500D03*
%TD*%
%TO.C,B+*%
X55800000Y-154442500D03*
%TD*%
%TO.C,O+*%
X55800000Y-149442500D03*
%TD*%
D15*
%TO.C,D2*%
X33700000Y-157130000D03*
X30900000Y-157130000D03*
%TD*%
%TO.C,D1*%
X33720000Y-160570000D03*
X30920000Y-160570000D03*
%TD*%
D16*
%TO.C,Q1*%
X46090000Y-158585000D03*
X46090000Y-159235000D03*
X46090000Y-159885000D03*
X46090000Y-160535000D03*
X40330000Y-160535000D03*
X40330000Y-159885000D03*
X40330000Y-159235000D03*
X40330000Y-158585000D03*
%TD*%
D17*
%TO.C,U2*%
X40202500Y-156160000D03*
X40202500Y-155210000D03*
X40202500Y-154260000D03*
X42477500Y-154260000D03*
X42477500Y-155210000D03*
X42477500Y-156160000D03*
%TD*%
%TO.C,U3*%
X49075000Y-160380000D03*
X49075000Y-159430000D03*
X49075000Y-158480000D03*
X51350000Y-158480000D03*
X51350000Y-159430000D03*
X51350000Y-160380000D03*
%TD*%
D18*
%TO.C,L1*%
X50125000Y-146330000D03*
X52675000Y-146330000D03*
%TD*%
D19*
%TO.C,U1*%
X37720000Y-147720000D03*
D20*
X40195000Y-145815000D03*
X40195000Y-147085000D03*
X40195000Y-148355000D03*
X40195000Y-149625000D03*
X35245000Y-149625000D03*
X35245000Y-148355000D03*
X35245000Y-147085000D03*
X35245000Y-145815000D03*
%TD*%
D21*
%TO.C,RPROG1*%
X30655000Y-146050000D03*
X32305000Y-146050000D03*
%TD*%
%TO.C,R8*%
X50585000Y-152500000D03*
X52235000Y-152500000D03*
%TD*%
%TO.C,R7*%
X50615000Y-155310000D03*
X52265000Y-155310000D03*
%TD*%
%TO.C,R6*%
X30645000Y-153750000D03*
X32295000Y-153750000D03*
%TD*%
%TO.C,R5*%
X30635000Y-151790000D03*
X32285000Y-151790000D03*
%TD*%
%TO.C,R4*%
X44782500Y-155990000D03*
X46432500Y-155990000D03*
%TD*%
%TO.C,R2*%
X36055000Y-157130000D03*
X37705000Y-157130000D03*
%TD*%
%TO.C,R1*%
X36055000Y-160570000D03*
X37705000Y-160570000D03*
%TD*%
D22*
%TO.C,D3*%
X45520000Y-145195000D03*
X45520000Y-152105000D03*
%TD*%
D23*
%TO.C,C4*%
X50645000Y-149740000D03*
X52195000Y-149740000D03*
%TD*%
%TO.C,C3*%
X39675000Y-151480000D03*
X41225000Y-151480000D03*
%TD*%
D24*
%TO.C,C2*%
X37635000Y-152170000D03*
X36085000Y-152170000D03*
%TD*%
D23*
%TO.C,C1*%
X30695000Y-149720000D03*
X32245000Y-149720000D03*
%TD*%
D25*
%TO.C,R3*%
X37685000Y-154450000D03*
X36035000Y-154450000D03*
%TD*%
M02*
