%TF.GenerationSoftware,KiCad,Pcbnew,9.0.4*%
%TF.CreationDate,2026-03-02T15:50:36+01:00*%
%TF.ProjectId,Charging_Base,43686172-6769-46e6-975f-426173652e6b,rev?*%
%TF.SameCoordinates,Original*%
%TF.FileFunction,Copper,L2,Bot*%
%TF.FilePolarity,Positive*%
%FSLAX46Y46*%
G04 Gerber Fmt 4.6, Leading zero omitted, Abs format (unit mm)*
G04 Created by KiCad (PCBNEW 9.0.4) date 2026-03-02 15:50:36*
%MOMM*%
%LPD*%
G01*
G04 APERTURE LIST*
%TA.AperFunction,ComponentPad*%
%ADD10O,2.000000X0.900000*%
%TD*%
%TA.AperFunction,ComponentPad*%
%ADD11O,1.700000X0.900000*%
%TD*%
%TA.AperFunction,HeatsinkPad*%
%ADD12C,0.500000*%
%TD*%
%TA.AperFunction,HeatsinkPad*%
%ADD13R,1.900000X2.900000*%
%TD*%
%TA.AperFunction,ViaPad*%
%ADD14C,0.600000*%
%TD*%
%TA.AperFunction,Conductor*%
%ADD15C,0.300000*%
%TD*%
G04 APERTURE END LIST*
D10*
%TO.P,J1,S1,SHIELD*%
%TO.N,GND*%
X26620000Y-148525000D03*
%TO.P,J1,S2,SHIELD*%
X26620000Y-157175000D03*
D11*
%TO.P,J1,S3,SHIELD*%
X22450000Y-148525000D03*
%TO.P,J1,S4,SHIELD*%
X22450000Y-157175000D03*
%TD*%
D12*
%TO.P,U1,9,EPAD*%
%TO.N,GND*%
X38420000Y-148920000D03*
X38420000Y-147720000D03*
X38420000Y-146520000D03*
D13*
X37720000Y-147720000D03*
D12*
X37020000Y-148920000D03*
X37020000Y-147720000D03*
X37020000Y-146520000D03*
%TD*%
D14*
%TO.N,GND*%
X28700000Y-149300000D03*
X28900000Y-161400000D03*
X51270832Y-151142796D03*
X37600000Y-150800000D03*
X57600000Y-152900000D03*
X53700000Y-160900000D03*
X49000000Y-155200000D03*
X47600000Y-157600000D03*
X42300000Y-159800000D03*
X40500000Y-157400000D03*
X42013118Y-150411319D03*
X37500000Y-145100000D03*
X33400000Y-146000000D03*
X32550000Y-148250000D03*
X33700000Y-151000000D03*
X33900000Y-154200000D03*
X24800000Y-158300000D03*
X24900000Y-147400000D03*
%TO.N,OUT_NOBOOST*%
X34300000Y-152600000D03*
%TO.N,Net-(U3-SW)*%
X53800000Y-154000000D03*
X48500000Y-144000000D03*
%TO.N,OUT_NOBOOST*%
X40700000Y-152600000D03*
X46400000Y-154200000D03*
%TO.N,Net-(U2-VCC)*%
X42900000Y-157600000D03*
X36500000Y-155700000D03*
%TD*%
D15*
%TO.N,OUT_NOBOOST*%
X34300000Y-152600000D02*
X34200000Y-152600000D01*
X40700000Y-152600000D02*
X34300000Y-152600000D01*
%TO.N,Net-(U3-SW)*%
X53800000Y-149300000D02*
X53800000Y-154000000D01*
X48500000Y-144000000D02*
X53800000Y-149300000D01*
%TO.N,OUT_NOBOOST*%
X44800000Y-152600000D02*
X40700000Y-152600000D01*
X46400000Y-154200000D02*
X44800000Y-152600000D01*
%TO.N,Net-(U2-VCC)*%
X36500000Y-155700000D02*
X36500000Y-157100000D01*
X36500000Y-157100000D02*
X38300000Y-158900000D01*
X38300000Y-158900000D02*
X42000000Y-158900000D01*
X42000000Y-158900000D02*
X42900000Y-158000000D01*
X42900000Y-158000000D02*
X42900000Y-157600000D01*
%TD*%
%TA.AperFunction,Conductor*%
%TO.N,GND*%
G36*
X55105615Y-143770363D02*
G01*
X55151378Y-143823160D01*
X55161331Y-143892317D01*
X55132316Y-143955877D01*
X55114077Y-143973064D01*
X54955111Y-144095042D01*
X54955104Y-144095048D01*
X54765048Y-144285104D01*
X54765042Y-144285111D01*
X54601416Y-144498354D01*
X54467019Y-144731133D01*
X54467011Y-144731149D01*
X54364152Y-144979475D01*
X54294585Y-145239106D01*
X54294582Y-145239119D01*
X54259500Y-145505602D01*
X54259500Y-145774397D01*
X54294582Y-146040880D01*
X54294583Y-146040885D01*
X54294584Y-146040891D01*
X54319728Y-146134731D01*
X54364152Y-146300524D01*
X54467011Y-146548850D01*
X54467019Y-146548866D01*
X54508089Y-146620000D01*
X54601413Y-146781641D01*
X54601415Y-146781644D01*
X54601416Y-146781645D01*
X54765042Y-146994888D01*
X54765048Y-146994895D01*
X54955104Y-147184951D01*
X54955111Y-147184957D01*
X54961626Y-147189956D01*
X55168359Y-147348587D01*
X55313172Y-147432195D01*
X55401133Y-147482980D01*
X55401149Y-147482988D01*
X55556008Y-147547132D01*
X55649474Y-147585847D01*
X55909109Y-147655416D01*
X56097319Y-147680193D01*
X56175602Y-147690500D01*
X56175603Y-147690500D01*
X56444398Y-147690500D01*
X56504905Y-147682534D01*
X56710891Y-147655416D01*
X56970526Y-147585847D01*
X57206798Y-147487980D01*
X57218850Y-147482988D01*
X57218853Y-147482986D01*
X57218859Y-147482984D01*
X57451641Y-147348587D01*
X57664890Y-147184956D01*
X57854956Y-146994890D01*
X57977124Y-146835677D01*
X58033552Y-146794474D01*
X58103298Y-146790319D01*
X58164218Y-146824531D01*
X58196971Y-146886248D01*
X58199500Y-146911163D01*
X58199500Y-158888836D01*
X58179815Y-158955875D01*
X58127011Y-159001630D01*
X58057853Y-159011574D01*
X57994297Y-158982549D01*
X57977124Y-158964322D01*
X57854957Y-158805111D01*
X57854951Y-158805104D01*
X57664895Y-158615048D01*
X57664888Y-158615042D01*
X57451645Y-158451416D01*
X57451644Y-158451415D01*
X57451641Y-158451413D01*
X57358832Y-158397830D01*
X57218866Y-158317019D01*
X57218850Y-158317011D01*
X56970524Y-158214152D01*
X56813037Y-158171954D01*
X56710891Y-158144584D01*
X56710885Y-158144583D01*
X56710880Y-158144582D01*
X56444398Y-158109500D01*
X56444397Y-158109500D01*
X56175603Y-158109500D01*
X56175602Y-158109500D01*
X55909119Y-158144582D01*
X55909112Y-158144583D01*
X55909109Y-158144584D01*
X55854239Y-158159286D01*
X55649475Y-158214152D01*
X55401149Y-158317011D01*
X55401133Y-158317019D01*
X55168354Y-158451416D01*
X54955111Y-158615042D01*
X54955104Y-158615048D01*
X54765048Y-158805104D01*
X54765042Y-158805111D01*
X54601416Y-159018354D01*
X54467019Y-159251133D01*
X54467011Y-159251149D01*
X54364152Y-159499475D01*
X54294585Y-159759106D01*
X54294582Y-159759119D01*
X54259500Y-160025602D01*
X54259500Y-160294397D01*
X54294582Y-160560880D01*
X54294583Y-160560885D01*
X54294584Y-160560891D01*
X54294585Y-160560893D01*
X54364152Y-160820524D01*
X54467011Y-161068850D01*
X54467019Y-161068866D01*
X54522124Y-161164309D01*
X54601413Y-161301641D01*
X54601415Y-161301644D01*
X54601416Y-161301645D01*
X54765042Y-161514888D01*
X54765048Y-161514895D01*
X54955104Y-161704951D01*
X54955111Y-161704957D01*
X55114323Y-161827124D01*
X55155526Y-161883552D01*
X55159681Y-161953298D01*
X55125469Y-162014218D01*
X55063752Y-162046971D01*
X55038837Y-162049500D01*
X23956163Y-162049500D01*
X23889124Y-162029815D01*
X23843369Y-161977011D01*
X23833425Y-161907853D01*
X23862450Y-161844297D01*
X23880677Y-161827124D01*
X23905866Y-161807795D01*
X24039890Y-161704956D01*
X24229956Y-161514890D01*
X24393587Y-161301641D01*
X24527984Y-161068859D01*
X24630847Y-160820526D01*
X24700416Y-160560891D01*
X24735500Y-160294397D01*
X24735500Y-160025603D01*
X24700416Y-159759109D01*
X24630847Y-159499474D01*
X24568405Y-159348726D01*
X24527988Y-159251149D01*
X24527980Y-159251133D01*
X24472876Y-159155691D01*
X24393587Y-159018359D01*
X24229956Y-158805110D01*
X24229951Y-158805104D01*
X24039895Y-158615048D01*
X24039888Y-158615042D01*
X23826645Y-158451416D01*
X23826644Y-158451415D01*
X23826641Y-158451413D01*
X23733832Y-158397830D01*
X23593866Y-158317019D01*
X23593849Y-158317011D01*
X23349490Y-158215795D01*
X23295086Y-158171954D01*
X23273021Y-158105660D01*
X23290300Y-158037961D01*
X23328051Y-157998132D01*
X23455590Y-157912913D01*
X23587910Y-157780593D01*
X23587913Y-157780589D01*
X23691875Y-157625000D01*
X23691880Y-157624991D01*
X23763492Y-157452103D01*
X23763493Y-157452100D01*
X23768884Y-157425000D01*
X23016988Y-157425000D01*
X23034205Y-157415060D01*
X23090060Y-157359205D01*
X23129556Y-157290796D01*
X23150000Y-157214496D01*
X23150000Y-157135504D01*
X23129556Y-157059204D01*
X23090060Y-156990795D01*
X23034205Y-156934940D01*
X23016988Y-156925000D01*
X23768884Y-156925000D01*
X23768884Y-156924999D01*
X25151115Y-156924999D01*
X25151116Y-156925000D01*
X25903012Y-156925000D01*
X25885795Y-156934940D01*
X25829940Y-156990795D01*
X25790444Y-157059204D01*
X25770000Y-157135504D01*
X25770000Y-157214496D01*
X25790444Y-157290796D01*
X25829940Y-157359205D01*
X25885795Y-157415060D01*
X25903012Y-157425000D01*
X25151116Y-157425000D01*
X25156506Y-157452100D01*
X25156507Y-157452103D01*
X25228119Y-157624991D01*
X25228124Y-157625000D01*
X25332086Y-157780589D01*
X25332089Y-157780593D01*
X25464406Y-157912910D01*
X25464410Y-157912913D01*
X25619999Y-158016875D01*
X25620008Y-158016880D01*
X25792894Y-158088491D01*
X25792902Y-158088493D01*
X25976428Y-158124999D01*
X25976431Y-158125000D01*
X26370000Y-158125000D01*
X26370000Y-157475000D01*
X26870000Y-157475000D01*
X26870000Y-158125000D01*
X27263569Y-158125000D01*
X27263571Y-158124999D01*
X27447097Y-158088493D01*
X27447105Y-158088491D01*
X27619991Y-158016880D01*
X27620000Y-158016875D01*
X27775589Y-157912913D01*
X27775593Y-157912910D01*
X27907910Y-157780593D01*
X27907913Y-157780589D01*
X28011875Y-157625000D01*
X28011880Y-157624991D01*
X28083492Y-157452103D01*
X28083493Y-157452100D01*
X28088884Y-157425000D01*
X27336988Y-157425000D01*
X27354205Y-157415060D01*
X27410060Y-157359205D01*
X27449556Y-157290796D01*
X27470000Y-157214496D01*
X27470000Y-157135504D01*
X27449556Y-157059204D01*
X27410060Y-156990795D01*
X27354205Y-156934940D01*
X27336988Y-156925000D01*
X28088884Y-156925000D01*
X28088884Y-156924999D01*
X28083493Y-156897899D01*
X28083492Y-156897896D01*
X28011880Y-156725008D01*
X28011875Y-156724999D01*
X27907913Y-156569410D01*
X27907910Y-156569406D01*
X27775593Y-156437089D01*
X27775589Y-156437086D01*
X27620000Y-156333124D01*
X27619991Y-156333119D01*
X27447105Y-156261508D01*
X27447097Y-156261506D01*
X27263570Y-156225000D01*
X26870000Y-156225000D01*
X26870000Y-156875000D01*
X26370000Y-156875000D01*
X26370000Y-156308689D01*
X26389685Y-156241650D01*
X26412913Y-156214875D01*
X26421807Y-156207186D01*
X26468015Y-156180509D01*
X26570509Y-156078015D01*
X26642984Y-155952485D01*
X26680500Y-155812475D01*
X26680500Y-155667525D01*
X26668075Y-155621153D01*
X35699500Y-155621153D01*
X35699500Y-155778846D01*
X35730261Y-155933489D01*
X35730264Y-155933501D01*
X35790602Y-156079172D01*
X35790606Y-156079179D01*
X35828602Y-156136044D01*
X35849480Y-156202721D01*
X35849500Y-156204935D01*
X35849500Y-157164069D01*
X35849500Y-157164071D01*
X35849499Y-157164071D01*
X35874497Y-157289738D01*
X35874499Y-157289744D01*
X35923535Y-157408127D01*
X35994723Y-157514669D01*
X35994726Y-157514673D01*
X37885324Y-159405271D01*
X37885331Y-159405277D01*
X37991871Y-159476464D01*
X37991870Y-159476464D01*
X38026544Y-159490826D01*
X38110256Y-159525501D01*
X38110260Y-159525501D01*
X38110261Y-159525502D01*
X38235928Y-159550500D01*
X38235931Y-159550500D01*
X42064071Y-159550500D01*
X42148615Y-159533682D01*
X42189744Y-159525501D01*
X42308127Y-159476465D01*
X42414669Y-159405277D01*
X43405276Y-158414669D01*
X43476465Y-158308127D01*
X43525501Y-158189744D01*
X43534484Y-158144584D01*
X43544767Y-158092885D01*
X43563279Y-158048193D01*
X43609394Y-157979179D01*
X43669737Y-157833497D01*
X43700500Y-157678842D01*
X43700500Y-157521158D01*
X43700500Y-157521155D01*
X43700499Y-157521153D01*
X43699209Y-157514669D01*
X43669737Y-157366503D01*
X43666714Y-157359205D01*
X43609397Y-157220827D01*
X43609390Y-157220814D01*
X43521789Y-157089711D01*
X43521786Y-157089707D01*
X43410292Y-156978213D01*
X43410288Y-156978210D01*
X43279185Y-156890609D01*
X43279172Y-156890602D01*
X43133501Y-156830264D01*
X43133489Y-156830261D01*
X42978845Y-156799500D01*
X42978842Y-156799500D01*
X42821158Y-156799500D01*
X42821155Y-156799500D01*
X42666510Y-156830261D01*
X42666498Y-156830264D01*
X42520827Y-156890602D01*
X42520814Y-156890609D01*
X42389711Y-156978210D01*
X42389707Y-156978213D01*
X42278213Y-157089707D01*
X42278210Y-157089711D01*
X42190609Y-157220814D01*
X42190602Y-157220827D01*
X42130264Y-157366498D01*
X42130261Y-157366510D01*
X42099500Y-157521153D01*
X42099500Y-157678846D01*
X42120035Y-157782082D01*
X42113808Y-157851673D01*
X42086099Y-157893954D01*
X41766873Y-158213181D01*
X41705550Y-158246666D01*
X41679192Y-158249500D01*
X38620808Y-158249500D01*
X38553769Y-158229815D01*
X38533127Y-158213181D01*
X37186819Y-156866873D01*
X37153334Y-156805550D01*
X37150500Y-156779192D01*
X37150500Y-156204935D01*
X37170185Y-156137896D01*
X37171366Y-156136090D01*
X37209394Y-156079179D01*
X37269737Y-155933497D01*
X37300500Y-155778842D01*
X37300500Y-155621158D01*
X37300500Y-155621155D01*
X37300499Y-155621153D01*
X37281873Y-155527515D01*
X37269737Y-155466503D01*
X37243012Y-155401982D01*
X37209397Y-155320827D01*
X37209390Y-155320814D01*
X37121789Y-155189711D01*
X37121786Y-155189707D01*
X37010292Y-155078213D01*
X37010288Y-155078210D01*
X36879185Y-154990609D01*
X36879172Y-154990602D01*
X36733501Y-154930264D01*
X36733489Y-154930261D01*
X36578845Y-154899500D01*
X36578842Y-154899500D01*
X36421158Y-154899500D01*
X36421155Y-154899500D01*
X36266510Y-154930261D01*
X36266498Y-154930264D01*
X36120827Y-154990602D01*
X36120814Y-154990609D01*
X35989711Y-155078210D01*
X35989707Y-155078213D01*
X35878213Y-155189707D01*
X35878210Y-155189711D01*
X35790609Y-155320814D01*
X35790602Y-155320827D01*
X35730264Y-155466498D01*
X35730261Y-155466510D01*
X35699500Y-155621153D01*
X26668075Y-155621153D01*
X26642984Y-155527515D01*
X26570509Y-155401985D01*
X26468015Y-155299491D01*
X26468013Y-155299490D01*
X26468011Y-155299488D01*
X26342488Y-155227017D01*
X26342489Y-155227017D01*
X26331006Y-155223940D01*
X26202475Y-155189500D01*
X26057525Y-155189500D01*
X25928993Y-155223940D01*
X25917511Y-155227017D01*
X25791988Y-155299488D01*
X25791982Y-155299493D01*
X25689493Y-155401982D01*
X25689488Y-155401988D01*
X25617017Y-155527511D01*
X25617016Y-155527515D01*
X25579500Y-155667525D01*
X25579500Y-155812475D01*
X25611926Y-155933489D01*
X25617017Y-155952488D01*
X25689488Y-156078011D01*
X25689493Y-156078017D01*
X25718302Y-156106826D01*
X25751787Y-156168149D01*
X25746803Y-156237841D01*
X25704931Y-156293774D01*
X25678074Y-156309068D01*
X25620009Y-156333119D01*
X25619999Y-156333124D01*
X25464410Y-156437086D01*
X25464406Y-156437089D01*
X25332089Y-156569406D01*
X25332086Y-156569410D01*
X25228124Y-156724999D01*
X25228119Y-156725008D01*
X25156507Y-156897896D01*
X25156506Y-156897899D01*
X25151115Y-156924999D01*
X23768884Y-156924999D01*
X23763493Y-156897899D01*
X23763492Y-156897896D01*
X23691880Y-156725008D01*
X23691875Y-156724999D01*
X23587913Y-156569410D01*
X23587910Y-156569406D01*
X23455593Y-156437089D01*
X23455589Y-156437086D01*
X23300000Y-156333124D01*
X23299991Y-156333119D01*
X23127105Y-156261508D01*
X23127097Y-156261506D01*
X22943570Y-156225000D01*
X22700000Y-156225000D01*
X22700000Y-156875000D01*
X22200000Y-156875000D01*
X22200000Y-156225000D01*
X21956430Y-156225000D01*
X21772902Y-156261506D01*
X21772894Y-156261508D01*
X21600008Y-156333119D01*
X21599999Y-156333124D01*
X21444410Y-156437086D01*
X21444406Y-156437089D01*
X21312089Y-156569406D01*
X21312086Y-156569410D01*
X21208124Y-156724999D01*
X21208119Y-156725008D01*
X21136507Y-156897896D01*
X21136506Y-156897899D01*
X21131115Y-156924999D01*
X21131116Y-156925000D01*
X21883012Y-156925000D01*
X21865795Y-156934940D01*
X21809940Y-156990795D01*
X21770444Y-157059204D01*
X21750000Y-157135504D01*
X21750000Y-157214496D01*
X21770444Y-157290796D01*
X21809940Y-157359205D01*
X21865795Y-157415060D01*
X21883012Y-157425000D01*
X21131116Y-157425000D01*
X21136506Y-157452100D01*
X21136507Y-157452103D01*
X21208119Y-157624991D01*
X21208124Y-157625000D01*
X21312086Y-157780589D01*
X21312089Y-157780593D01*
X21444406Y-157912910D01*
X21444410Y-157912913D01*
X21599999Y-158016875D01*
X21600008Y-158016880D01*
X21773796Y-158088865D01*
X21828199Y-158132706D01*
X21850264Y-158199000D01*
X21832985Y-158266699D01*
X21781848Y-158314310D01*
X21778879Y-158315665D01*
X21776133Y-158317019D01*
X21543354Y-158451416D01*
X21330111Y-158615042D01*
X21330104Y-158615048D01*
X21140048Y-158805104D01*
X21140042Y-158805111D01*
X21018313Y-158963752D01*
X20961885Y-159004955D01*
X20892139Y-159009110D01*
X20831219Y-158974898D01*
X20798466Y-158913180D01*
X20795937Y-158888223D01*
X20796032Y-158615048D01*
X20798131Y-152521153D01*
X33499500Y-152521153D01*
X33499500Y-152678846D01*
X33530261Y-152833489D01*
X33530264Y-152833501D01*
X33590602Y-152979172D01*
X33590609Y-152979185D01*
X33678210Y-153110288D01*
X33678213Y-153110292D01*
X33789707Y-153221786D01*
X33789711Y-153221789D01*
X33920814Y-153309390D01*
X33920827Y-153309397D01*
X34066498Y-153369735D01*
X34066503Y-153369737D01*
X34221153Y-153400499D01*
X34221156Y-153400500D01*
X34221158Y-153400500D01*
X34378844Y-153400500D01*
X34378845Y-153400499D01*
X34533497Y-153369737D01*
X34679179Y-153309394D01*
X34736044Y-153271397D01*
X34802721Y-153250520D01*
X34804935Y-153250500D01*
X40195065Y-153250500D01*
X40262104Y-153270185D01*
X40263909Y-153271366D01*
X40320821Y-153309394D01*
X40320823Y-153309395D01*
X40320827Y-153309397D01*
X40466498Y-153369735D01*
X40466503Y-153369737D01*
X40621153Y-153400499D01*
X40621156Y-153400500D01*
X40621158Y-153400500D01*
X40778844Y-153400500D01*
X40778845Y-153400499D01*
X40933497Y-153369737D01*
X41079179Y-153309394D01*
X41136044Y-153271397D01*
X41202721Y-153250520D01*
X41204935Y-153250500D01*
X44479192Y-153250500D01*
X44546231Y-153270185D01*
X44566873Y-153286819D01*
X45582984Y-154302930D01*
X45616469Y-154364253D01*
X45616920Y-154366420D01*
X45630261Y-154433489D01*
X45630264Y-154433501D01*
X45690602Y-154579172D01*
X45690609Y-154579185D01*
X45778210Y-154710288D01*
X45778213Y-154710292D01*
X45889707Y-154821786D01*
X45889711Y-154821789D01*
X46020814Y-154909390D01*
X46020827Y-154909397D01*
X46166498Y-154969735D01*
X46166503Y-154969737D01*
X46321153Y-155000499D01*
X46321156Y-155000500D01*
X46321158Y-155000500D01*
X46478844Y-155000500D01*
X46478845Y-155000499D01*
X46633497Y-154969737D01*
X46779179Y-154909394D01*
X46910289Y-154821789D01*
X47021789Y-154710289D01*
X47109394Y-154579179D01*
X47169737Y-154433497D01*
X47200500Y-154278842D01*
X47200500Y-154121158D01*
X47200500Y-154121155D01*
X47200499Y-154121153D01*
X47169737Y-153966503D01*
X47150955Y-153921158D01*
X47109397Y-153820827D01*
X47109390Y-153820814D01*
X47021789Y-153689711D01*
X47021786Y-153689707D01*
X46910292Y-153578213D01*
X46910288Y-153578210D01*
X46779185Y-153490609D01*
X46779172Y-153490602D01*
X46633501Y-153430264D01*
X46633489Y-153430261D01*
X46566420Y-153416920D01*
X46504509Y-153384535D01*
X46502930Y-153382984D01*
X45214674Y-152094727D01*
X45214673Y-152094726D01*
X45214669Y-152094723D01*
X45108127Y-152023535D01*
X44989744Y-151974499D01*
X44989738Y-151974497D01*
X44864071Y-151949500D01*
X44864069Y-151949500D01*
X41204935Y-151949500D01*
X41137896Y-151929815D01*
X41136090Y-151928633D01*
X41079179Y-151890606D01*
X41079172Y-151890602D01*
X40933501Y-151830264D01*
X40933489Y-151830261D01*
X40778845Y-151799500D01*
X40778842Y-151799500D01*
X40621158Y-151799500D01*
X40621155Y-151799500D01*
X40466510Y-151830261D01*
X40466498Y-151830264D01*
X40320827Y-151890602D01*
X40320820Y-151890606D01*
X40291928Y-151909911D01*
X40263955Y-151928602D01*
X40197279Y-151949480D01*
X40195065Y-151949500D01*
X34804935Y-151949500D01*
X34737896Y-151929815D01*
X34736090Y-151928633D01*
X34679179Y-151890606D01*
X34679172Y-151890602D01*
X34533501Y-151830264D01*
X34533489Y-151830261D01*
X34378845Y-151799500D01*
X34378842Y-151799500D01*
X34221158Y-151799500D01*
X34221155Y-151799500D01*
X34066510Y-151830261D01*
X34066498Y-151830264D01*
X33920827Y-151890602D01*
X33920814Y-151890609D01*
X33789711Y-151978210D01*
X33789707Y-151978213D01*
X33678213Y-152089707D01*
X33678210Y-152089711D01*
X33590609Y-152220814D01*
X33590602Y-152220827D01*
X33530264Y-152366498D01*
X33530261Y-152366510D01*
X33499500Y-152521153D01*
X20798131Y-152521153D01*
X20800062Y-146915548D01*
X20819770Y-146848518D01*
X20872589Y-146802781D01*
X20941751Y-146792861D01*
X21005297Y-146821908D01*
X21022438Y-146840107D01*
X21145042Y-146999888D01*
X21145048Y-146999895D01*
X21335104Y-147189951D01*
X21335111Y-147189957D01*
X21541843Y-147348587D01*
X21548359Y-147353587D01*
X21684512Y-147432195D01*
X21732727Y-147482763D01*
X21745949Y-147551370D01*
X21719981Y-147616234D01*
X21669964Y-147654143D01*
X21600009Y-147683119D01*
X21599999Y-147683124D01*
X21444410Y-147787086D01*
X21444406Y-147787089D01*
X21312089Y-147919406D01*
X21312086Y-147919410D01*
X21208124Y-148074999D01*
X21208119Y-148075008D01*
X21136507Y-148247896D01*
X21136506Y-148247899D01*
X21131115Y-148274999D01*
X21131116Y-148275000D01*
X21883012Y-148275000D01*
X21865795Y-148284940D01*
X21809940Y-148340795D01*
X21770444Y-148409204D01*
X21750000Y-148485504D01*
X21750000Y-148564496D01*
X21770444Y-148640796D01*
X21809940Y-148709205D01*
X21865795Y-148765060D01*
X21883012Y-148775000D01*
X21131116Y-148775000D01*
X21136506Y-148802100D01*
X21136507Y-148802103D01*
X21208119Y-148974991D01*
X21208124Y-148975000D01*
X21312086Y-149130589D01*
X21312089Y-149130593D01*
X21444406Y-149262910D01*
X21444410Y-149262913D01*
X21599999Y-149366875D01*
X21600008Y-149366880D01*
X21772894Y-149438491D01*
X21772902Y-149438493D01*
X21956428Y-149474999D01*
X21956431Y-149475000D01*
X22200000Y-149475000D01*
X22200000Y-148825000D01*
X22700000Y-148825000D01*
X22700000Y-149475000D01*
X22943569Y-149475000D01*
X22943571Y-149474999D01*
X23127097Y-149438493D01*
X23127105Y-149438491D01*
X23299991Y-149366880D01*
X23300000Y-149366875D01*
X23455589Y-149262913D01*
X23455593Y-149262910D01*
X23587910Y-149130593D01*
X23587913Y-149130589D01*
X23691875Y-148975000D01*
X23691880Y-148974991D01*
X23763492Y-148802103D01*
X23763493Y-148802100D01*
X23768884Y-148775000D01*
X23016988Y-148775000D01*
X23034205Y-148765060D01*
X23090060Y-148709205D01*
X23129556Y-148640796D01*
X23150000Y-148564496D01*
X23150000Y-148485504D01*
X23129556Y-148409204D01*
X23090060Y-148340795D01*
X23034205Y-148284940D01*
X23016988Y-148275000D01*
X23768884Y-148275000D01*
X23768884Y-148274999D01*
X25151115Y-148274999D01*
X25151116Y-148275000D01*
X25903012Y-148275000D01*
X25885795Y-148284940D01*
X25829940Y-148340795D01*
X25790444Y-148409204D01*
X25770000Y-148485504D01*
X25770000Y-148564496D01*
X25790444Y-148640796D01*
X25829940Y-148709205D01*
X25885795Y-148765060D01*
X25903012Y-148775000D01*
X25151116Y-148775000D01*
X25156506Y-148802100D01*
X25156507Y-148802103D01*
X25228119Y-148974991D01*
X25228124Y-148975000D01*
X25332086Y-149130589D01*
X25332089Y-149130593D01*
X25464406Y-149262910D01*
X25464410Y-149262913D01*
X25619999Y-149366875D01*
X25620003Y-149366877D01*
X25678073Y-149390930D01*
X25732476Y-149434771D01*
X25754542Y-149501065D01*
X25737263Y-149568764D01*
X25718304Y-149593172D01*
X25689488Y-149621988D01*
X25617017Y-149747511D01*
X25617016Y-149747515D01*
X25579500Y-149887525D01*
X25579500Y-150032475D01*
X25617016Y-150172485D01*
X25617017Y-150172488D01*
X25689488Y-150298011D01*
X25689490Y-150298013D01*
X25689491Y-150298015D01*
X25791985Y-150400509D01*
X25791986Y-150400510D01*
X25791988Y-150400511D01*
X25917511Y-150472982D01*
X25917512Y-150472982D01*
X25917515Y-150472984D01*
X26057525Y-150510500D01*
X26057528Y-150510500D01*
X26202472Y-150510500D01*
X26202475Y-150510500D01*
X26342485Y-150472984D01*
X26468015Y-150400509D01*
X26570509Y-150298015D01*
X26642984Y-150172485D01*
X26680500Y-150032475D01*
X26680500Y-149887525D01*
X26642984Y-149747515D01*
X26581588Y-149641175D01*
X26570511Y-149621988D01*
X26570506Y-149621982D01*
X26546101Y-149597577D01*
X36695975Y-149597577D01*
X36801236Y-149641178D01*
X36801240Y-149641179D01*
X36946126Y-149669999D01*
X36946129Y-149670000D01*
X37093871Y-149670000D01*
X37093873Y-149669999D01*
X37238760Y-149641179D01*
X37238775Y-149641175D01*
X37344024Y-149597578D01*
X37344024Y-149597577D01*
X38095975Y-149597577D01*
X38201236Y-149641178D01*
X38201240Y-149641179D01*
X38346126Y-149669999D01*
X38346129Y-149670000D01*
X38493871Y-149670000D01*
X38493873Y-149669999D01*
X38638760Y-149641179D01*
X38638775Y-149641175D01*
X38744024Y-149597578D01*
X38744024Y-149597577D01*
X38420001Y-149273554D01*
X38420000Y-149273554D01*
X38095975Y-149597577D01*
X37344024Y-149597577D01*
X37020001Y-149273554D01*
X37020000Y-149273554D01*
X36695975Y-149597577D01*
X26546101Y-149597577D01*
X26468017Y-149519493D01*
X26468015Y-149519491D01*
X26468012Y-149519489D01*
X26468008Y-149519486D01*
X26431999Y-149498696D01*
X26383784Y-149448129D01*
X26370000Y-149391310D01*
X26370000Y-148825000D01*
X26870000Y-148825000D01*
X26870000Y-149475000D01*
X27263569Y-149475000D01*
X27263571Y-149474999D01*
X27447100Y-149438493D01*
X27447103Y-149438492D01*
X27619991Y-149366880D01*
X27620000Y-149366875D01*
X27775589Y-149262913D01*
X27775593Y-149262910D01*
X27907910Y-149130593D01*
X27907913Y-149130589D01*
X28011875Y-148975000D01*
X28011880Y-148974991D01*
X28065257Y-148846126D01*
X36270000Y-148846126D01*
X36270000Y-148993873D01*
X36298820Y-149138759D01*
X36298822Y-149138767D01*
X36342421Y-149244024D01*
X36666446Y-148920000D01*
X36666446Y-148919999D01*
X36646556Y-148900109D01*
X36920000Y-148900109D01*
X36920000Y-148939891D01*
X36935224Y-148976645D01*
X36963355Y-149004776D01*
X37000109Y-149020000D01*
X37039891Y-149020000D01*
X37076645Y-149004776D01*
X37104776Y-148976645D01*
X37120000Y-148939891D01*
X37120000Y-148919999D01*
X37373554Y-148919999D01*
X37373554Y-148920001D01*
X37697929Y-149244376D01*
X37742069Y-149244376D01*
X38066446Y-148920000D01*
X38046555Y-148900109D01*
X38320000Y-148900109D01*
X38320000Y-148939891D01*
X38335224Y-148976645D01*
X38363355Y-149004776D01*
X38400109Y-149020000D01*
X38439891Y-149020000D01*
X38476645Y-149004776D01*
X38504776Y-148976645D01*
X38520000Y-148939891D01*
X38520000Y-148919999D01*
X38773554Y-148919999D01*
X38773554Y-148920001D01*
X39097577Y-149244024D01*
X39097578Y-149244024D01*
X39141175Y-149138775D01*
X39141179Y-149138760D01*
X39169999Y-148993873D01*
X39170000Y-148993871D01*
X39170000Y-148846128D01*
X39169999Y-148846126D01*
X39141179Y-148701240D01*
X39141178Y-148701236D01*
X39097577Y-148595975D01*
X38773554Y-148919999D01*
X38520000Y-148919999D01*
X38520000Y-148900109D01*
X38504776Y-148863355D01*
X38476645Y-148835224D01*
X38439891Y-148820000D01*
X38400109Y-148820000D01*
X38363355Y-148835224D01*
X38335224Y-148863355D01*
X38320000Y-148900109D01*
X38046555Y-148900109D01*
X37742068Y-148595622D01*
X37697930Y-148595622D01*
X37373554Y-148919999D01*
X37120000Y-148919999D01*
X37120000Y-148900109D01*
X37104776Y-148863355D01*
X37076645Y-148835224D01*
X37039891Y-148820000D01*
X37000109Y-148820000D01*
X36963355Y-148835224D01*
X36935224Y-148863355D01*
X36920000Y-148900109D01*
X36646556Y-148900109D01*
X36342421Y-148595974D01*
X36342420Y-148595974D01*
X36298823Y-148701228D01*
X36298820Y-148701240D01*
X36270000Y-148846126D01*
X28065257Y-148846126D01*
X28083492Y-148802102D01*
X28088884Y-148775000D01*
X27336988Y-148775000D01*
X27354205Y-148765060D01*
X27410060Y-148709205D01*
X27449556Y-148640796D01*
X27470000Y-148564496D01*
X27470000Y-148485504D01*
X27449556Y-148409204D01*
X27410060Y-148340795D01*
X27389265Y-148320000D01*
X36773554Y-148320000D01*
X37020000Y-148566446D01*
X37266446Y-148320000D01*
X38173554Y-148320000D01*
X38420000Y-148566446D01*
X38666446Y-148320000D01*
X38420000Y-148073554D01*
X38173554Y-148320000D01*
X37266446Y-148320000D01*
X37020000Y-148073554D01*
X36773554Y-148320000D01*
X27389265Y-148320000D01*
X27354205Y-148284940D01*
X27336988Y-148275000D01*
X28088884Y-148275000D01*
X28088884Y-148274999D01*
X28083493Y-148247900D01*
X28083492Y-148247896D01*
X28011880Y-148075008D01*
X28011875Y-148074999D01*
X27907913Y-147919410D01*
X27907910Y-147919406D01*
X27775593Y-147787089D01*
X27775589Y-147787086D01*
X27709821Y-147743141D01*
X27620000Y-147683124D01*
X27619991Y-147683119D01*
X27530681Y-147646126D01*
X36270000Y-147646126D01*
X36270000Y-147793873D01*
X36298820Y-147938759D01*
X36298822Y-147938767D01*
X36342421Y-148044024D01*
X36666446Y-147720000D01*
X36666446Y-147719999D01*
X36646556Y-147700109D01*
X36920000Y-147700109D01*
X36920000Y-147739891D01*
X36935224Y-147776645D01*
X36963355Y-147804776D01*
X37000109Y-147820000D01*
X37039891Y-147820000D01*
X37076645Y-147804776D01*
X37104776Y-147776645D01*
X37120000Y-147739891D01*
X37120000Y-147719999D01*
X37373554Y-147719999D01*
X37373554Y-147720001D01*
X37697929Y-148044376D01*
X37742069Y-148044376D01*
X38066446Y-147720000D01*
X38046555Y-147700109D01*
X38320000Y-147700109D01*
X38320000Y-147739891D01*
X38335224Y-147776645D01*
X38363355Y-147804776D01*
X38400109Y-147820000D01*
X38439891Y-147820000D01*
X38476645Y-147804776D01*
X38504776Y-147776645D01*
X38520000Y-147739891D01*
X38520000Y-147719999D01*
X38773554Y-147719999D01*
X38773554Y-147720001D01*
X39097577Y-148044024D01*
X39097578Y-148044024D01*
X39141175Y-147938775D01*
X39141179Y-147938760D01*
X39169999Y-147793873D01*
X39170000Y-147793871D01*
X39170000Y-147646128D01*
X39169999Y-147646126D01*
X39141179Y-147501240D01*
X39141178Y-147501236D01*
X39097577Y-147395975D01*
X38773554Y-147719999D01*
X38520000Y-147719999D01*
X38520000Y-147700109D01*
X38504776Y-147663355D01*
X38476645Y-147635224D01*
X38439891Y-147620000D01*
X38400109Y-147620000D01*
X38363355Y-147635224D01*
X38335224Y-147663355D01*
X38320000Y-147700109D01*
X38046555Y-147700109D01*
X37742068Y-147395622D01*
X37697930Y-147395622D01*
X37373554Y-147719999D01*
X37120000Y-147719999D01*
X37120000Y-147700109D01*
X37104776Y-147663355D01*
X37076645Y-147635224D01*
X37039891Y-147620000D01*
X37000109Y-147620000D01*
X36963355Y-147635224D01*
X36935224Y-147663355D01*
X36920000Y-147700109D01*
X36646556Y-147700109D01*
X36342421Y-147395974D01*
X36342420Y-147395974D01*
X36298823Y-147501228D01*
X36298820Y-147501240D01*
X36270000Y-147646126D01*
X27530681Y-147646126D01*
X27447105Y-147611508D01*
X27447097Y-147611506D01*
X27263570Y-147575000D01*
X26870000Y-147575000D01*
X26870000Y-148225000D01*
X26370000Y-148225000D01*
X26370000Y-147575000D01*
X25976430Y-147575000D01*
X25792902Y-147611506D01*
X25792894Y-147611508D01*
X25620008Y-147683119D01*
X25619999Y-147683124D01*
X25464410Y-147787086D01*
X25464406Y-147787089D01*
X25332089Y-147919406D01*
X25332086Y-147919410D01*
X25228124Y-148074999D01*
X25228119Y-148075008D01*
X25156507Y-148247896D01*
X25156506Y-148247899D01*
X25151115Y-148274999D01*
X23768884Y-148274999D01*
X23763493Y-148247899D01*
X23763492Y-148247896D01*
X23691880Y-148075008D01*
X23691875Y-148074999D01*
X23587913Y-147919410D01*
X23587910Y-147919406D01*
X23455592Y-147787088D01*
X23426973Y-147767966D01*
X23382167Y-147714354D01*
X23373460Y-147645029D01*
X23403614Y-147582001D01*
X23448410Y-147550302D01*
X23598859Y-147487984D01*
X23831641Y-147353587D01*
X24044890Y-147189956D01*
X24114846Y-147120000D01*
X36773554Y-147120000D01*
X37020000Y-147366446D01*
X37266446Y-147120000D01*
X38173554Y-147120000D01*
X38420000Y-147366446D01*
X38666446Y-147120000D01*
X38420000Y-146873554D01*
X38173554Y-147120000D01*
X37266446Y-147120000D01*
X37020000Y-146873554D01*
X36773554Y-147120000D01*
X24114846Y-147120000D01*
X24234956Y-146999890D01*
X24398587Y-146786641D01*
X24532984Y-146553859D01*
X24547009Y-146520001D01*
X24577609Y-146446126D01*
X36270000Y-146446126D01*
X36270000Y-146593873D01*
X36298820Y-146738759D01*
X36298822Y-146738767D01*
X36342421Y-146844024D01*
X36666446Y-146520000D01*
X36666446Y-146519999D01*
X36646556Y-146500109D01*
X36920000Y-146500109D01*
X36920000Y-146539891D01*
X36935224Y-146576645D01*
X36963355Y-146604776D01*
X37000109Y-146620000D01*
X37039891Y-146620000D01*
X37076645Y-146604776D01*
X37104776Y-146576645D01*
X37120000Y-146539891D01*
X37120000Y-146519999D01*
X37373554Y-146519999D01*
X37373554Y-146520001D01*
X37697929Y-146844376D01*
X37742069Y-146844376D01*
X38066446Y-146520000D01*
X38046555Y-146500109D01*
X38320000Y-146500109D01*
X38320000Y-146539891D01*
X38335224Y-146576645D01*
X38363355Y-146604776D01*
X38400109Y-146620000D01*
X38439891Y-146620000D01*
X38476645Y-146604776D01*
X38504776Y-146576645D01*
X38520000Y-146539891D01*
X38520000Y-146519999D01*
X38773554Y-146519999D01*
X38773554Y-146520001D01*
X39097577Y-146844024D01*
X39097578Y-146844024D01*
X39141175Y-146738775D01*
X39141179Y-146738760D01*
X39169999Y-146593873D01*
X39170000Y-146593871D01*
X39170000Y-146446128D01*
X39169999Y-146446126D01*
X39141179Y-146301240D01*
X39141178Y-146301236D01*
X39097577Y-146195975D01*
X38773554Y-146519999D01*
X38520000Y-146519999D01*
X38520000Y-146500109D01*
X38504776Y-146463355D01*
X38476645Y-146435224D01*
X38439891Y-146420000D01*
X38400109Y-146420000D01*
X38363355Y-146435224D01*
X38335224Y-146463355D01*
X38320000Y-146500109D01*
X38046555Y-146500109D01*
X37742068Y-146195622D01*
X37697930Y-146195622D01*
X37373554Y-146519999D01*
X37120000Y-146519999D01*
X37120000Y-146500109D01*
X37104776Y-146463355D01*
X37076645Y-146435224D01*
X37039891Y-146420000D01*
X37000109Y-146420000D01*
X36963355Y-146435224D01*
X36935224Y-146463355D01*
X36920000Y-146500109D01*
X36646556Y-146500109D01*
X36342421Y-146195974D01*
X36342420Y-146195974D01*
X36298823Y-146301228D01*
X36298820Y-146301240D01*
X36270000Y-146446126D01*
X24577609Y-146446126D01*
X24599785Y-146392587D01*
X24635847Y-146305526D01*
X24705416Y-146045891D01*
X24732203Y-145842420D01*
X36695974Y-145842420D01*
X36695974Y-145842421D01*
X37020000Y-146166446D01*
X37020001Y-146166446D01*
X37344024Y-145842421D01*
X37344022Y-145842420D01*
X38095974Y-145842420D01*
X38095974Y-145842421D01*
X38420000Y-146166446D01*
X38420001Y-146166446D01*
X38744024Y-145842421D01*
X38638767Y-145798822D01*
X38638759Y-145798820D01*
X38493872Y-145770000D01*
X38346128Y-145770000D01*
X38201240Y-145798820D01*
X38201228Y-145798823D01*
X38095974Y-145842420D01*
X37344022Y-145842420D01*
X37238767Y-145798822D01*
X37238759Y-145798820D01*
X37093872Y-145770000D01*
X36946128Y-145770000D01*
X36801240Y-145798820D01*
X36801228Y-145798823D01*
X36695974Y-145842420D01*
X24732203Y-145842420D01*
X24740500Y-145779397D01*
X24740500Y-145510603D01*
X24705416Y-145244109D01*
X24635847Y-144984474D01*
X24566483Y-144817015D01*
X24532988Y-144736149D01*
X24532980Y-144736133D01*
X24474989Y-144635691D01*
X24398587Y-144503359D01*
X24234956Y-144290110D01*
X24234951Y-144290104D01*
X24044895Y-144100048D01*
X24044888Y-144100042D01*
X23885430Y-143977686D01*
X23844227Y-143921258D01*
X23840072Y-143851512D01*
X23874284Y-143790592D01*
X23936001Y-143757839D01*
X23960894Y-143755310D01*
X47582078Y-143751796D01*
X47649117Y-143771471D01*
X47694880Y-143824268D01*
X47704833Y-143893425D01*
X47703711Y-143899985D01*
X47699500Y-143921156D01*
X47699500Y-144078846D01*
X47730261Y-144233489D01*
X47730264Y-144233501D01*
X47790602Y-144379172D01*
X47790609Y-144379185D01*
X47878210Y-144510288D01*
X47878213Y-144510292D01*
X47989707Y-144621786D01*
X47989711Y-144621789D01*
X48120814Y-144709390D01*
X48120827Y-144709397D01*
X48208230Y-144745599D01*
X48266503Y-144769737D01*
X48333580Y-144783079D01*
X48395490Y-144815463D01*
X48397069Y-144817015D01*
X53113181Y-149533127D01*
X53146666Y-149594450D01*
X53149500Y-149620808D01*
X53149500Y-153495064D01*
X53129815Y-153562103D01*
X53128603Y-153563954D01*
X53090608Y-153620817D01*
X53090602Y-153620828D01*
X53030264Y-153766498D01*
X53030261Y-153766510D01*
X52999500Y-153921153D01*
X52999500Y-154078846D01*
X53030261Y-154233489D01*
X53030264Y-154233501D01*
X53090602Y-154379172D01*
X53090609Y-154379185D01*
X53178210Y-154510288D01*
X53178213Y-154510292D01*
X53289707Y-154621786D01*
X53289711Y-154621789D01*
X53420814Y-154709390D01*
X53420827Y-154709397D01*
X53566498Y-154769735D01*
X53566503Y-154769737D01*
X53721153Y-154800499D01*
X53721156Y-154800500D01*
X53721158Y-154800500D01*
X53878844Y-154800500D01*
X53878845Y-154800499D01*
X54033497Y-154769737D01*
X54179179Y-154709394D01*
X54310289Y-154621789D01*
X54421789Y-154510289D01*
X54509394Y-154379179D01*
X54569737Y-154233497D01*
X54600500Y-154078842D01*
X54600500Y-153921158D01*
X54600500Y-153921155D01*
X54600499Y-153921153D01*
X54580543Y-153820827D01*
X54569737Y-153766503D01*
X54509394Y-153620821D01*
X54471396Y-153563953D01*
X54450520Y-153497276D01*
X54450500Y-153495064D01*
X54450500Y-149235928D01*
X54425502Y-149110261D01*
X54425501Y-149110260D01*
X54425501Y-149110256D01*
X54376465Y-148991873D01*
X54305277Y-148885331D01*
X54305275Y-148885329D01*
X54305273Y-148885326D01*
X54305272Y-148885325D01*
X49383143Y-143963197D01*
X49349658Y-143901874D01*
X49354642Y-143832182D01*
X49396514Y-143776249D01*
X49461978Y-143751832D01*
X49470800Y-143751516D01*
X55038574Y-143750688D01*
X55105615Y-143770363D01*
G37*
%TD.AperFunction*%
%TD*%
M02*
