%TF.GenerationSoftware,KiCad,Pcbnew,9.0.4*%
%TF.CreationDate,2026-03-02T15:50:36+01:00*%
%TF.ProjectId,Charging_Base,43686172-6769-46e6-975f-426173652e6b,rev?*%
%TF.SameCoordinates,Original*%
%TF.FileFunction,Copper,L1,Top*%
%TF.FilePolarity,Positive*%
%FSLAX46Y46*%
G04 Gerber Fmt 4.6, Leading zero omitted, Abs format (unit mm)*
G04 Created by KiCad (PCBNEW 9.0.4) date 2026-03-02 15:50:36*
%MOMM*%
%LPD*%
G01*
G04 APERTURE LIST*
G04 Aperture macros list*
%AMRoundRect*
0 Rectangle with rounded corners*
0 $1 Rounding radius*
0 $2 $3 $4 $5 $6 $7 $8 $9 X,Y pos of 4 corners*
0 Add a 4 corners polygon primitive as box body*
4,1,4,$2,$3,$4,$5,$6,$7,$8,$9,$2,$3,0*
0 Add four circle primitives for the rounded corners*
1,1,$1+$1,$2,$3*
1,1,$1+$1,$4,$5*
1,1,$1+$1,$6,$7*
1,1,$1+$1,$8,$9*
0 Add four rect primitives between the rounded corners*
20,1,$1+$1,$2,$3,$4,$5,0*
20,1,$1+$1,$4,$5,$6,$7,0*
20,1,$1+$1,$6,$7,$8,$9,0*
20,1,$1+$1,$8,$9,$2,$3,0*%
G04 Aperture macros list end*
%TA.AperFunction,SMDPad,CuDef*%
%ADD10R,1.140000X0.600000*%
%TD*%
%TA.AperFunction,SMDPad,CuDef*%
%ADD11R,1.140000X0.300000*%
%TD*%
%TA.AperFunction,ComponentPad*%
%ADD12O,2.000000X0.900000*%
%TD*%
%TA.AperFunction,ComponentPad*%
%ADD13O,1.700000X0.900000*%
%TD*%
%TA.AperFunction,SMDPad,CuDef*%
%ADD14RoundRect,0.245250X-1.117875X-0.572250X1.117875X-0.572250X1.117875X0.572250X-1.117875X0.572250X0*%
%TD*%
%TA.AperFunction,SMDPad,CuDef*%
%ADD15RoundRect,0.250000X0.375000X0.625000X-0.375000X0.625000X-0.375000X-0.625000X0.375000X-0.625000X0*%
%TD*%
%TA.AperFunction,SMDPad,CuDef*%
%ADD16RoundRect,0.050000X-0.730000X-0.150000X0.730000X-0.150000X0.730000X0.150000X-0.730000X0.150000X0*%
%TD*%
%TA.AperFunction,SMDPad,CuDef*%
%ADD17RoundRect,0.150000X0.512500X0.150000X-0.512500X0.150000X-0.512500X-0.150000X0.512500X-0.150000X0*%
%TD*%
%TA.AperFunction,SMDPad,CuDef*%
%ADD18R,1.250000X2.000000*%
%TD*%
%TA.AperFunction,HeatsinkPad*%
%ADD19C,0.500000*%
%TD*%
%TA.AperFunction,HeatsinkPad*%
%ADD20R,2.410000X3.300000*%
%TD*%
%TA.AperFunction,SMDPad,CuDef*%
%ADD21RoundRect,0.150000X-0.825000X-0.150000X0.825000X-0.150000X0.825000X0.150000X-0.825000X0.150000X0*%
%TD*%
%TA.AperFunction,SMDPad,CuDef*%
%ADD22RoundRect,0.200000X-0.200000X-0.275000X0.200000X-0.275000X0.200000X0.275000X-0.200000X0.275000X0*%
%TD*%
%TA.AperFunction,SMDPad,CuDef*%
%ADD23R,3.180000X2.250000*%
%TD*%
%TA.AperFunction,SMDPad,CuDef*%
%ADD24RoundRect,0.225000X-0.225000X-0.250000X0.225000X-0.250000X0.225000X0.250000X-0.225000X0.250000X0*%
%TD*%
%TA.AperFunction,SMDPad,CuDef*%
%ADD25RoundRect,0.225000X0.225000X0.250000X-0.225000X0.250000X-0.225000X-0.250000X0.225000X-0.250000X0*%
%TD*%
%TA.AperFunction,SMDPad,CuDef*%
%ADD26RoundRect,0.200000X0.200000X0.275000X-0.200000X0.275000X-0.200000X-0.275000X0.200000X-0.275000X0*%
%TD*%
%TA.AperFunction,ViaPad*%
%ADD27C,0.600000*%
%TD*%
%TA.AperFunction,Conductor*%
%ADD28C,0.300000*%
%TD*%
G04 APERTURE END LIST*
D10*
%TO.P,J1,A1_B12,GND*%
%TO.N,GND*%
X27200000Y-149650000D03*
%TO.P,J1,A4_B9,VBUS*%
%TO.N,VBUS*%
X27200000Y-150450000D03*
D11*
%TO.P,J1,A5,CC1*%
%TO.N,Net-(J1-CC1)*%
X27200000Y-151600000D03*
%TO.P,J1,A6,DP1*%
%TO.N,unconnected-(J1-DP1-PadA6)*%
X27200000Y-152600000D03*
%TO.P,J1,A7,DN1*%
%TO.N,unconnected-(J1-DN1-PadA7)*%
X27200000Y-153100000D03*
%TO.P,J1,A8,SBU1*%
%TO.N,unconnected-(J1-SBU1-PadA8)*%
X27200000Y-154100000D03*
D10*
%TO.P,J1,B1_A12,GND*%
%TO.N,GND*%
X27200000Y-156050000D03*
%TO.P,J1,B4_A9,VBUS*%
%TO.N,VBUS*%
X27200000Y-155250000D03*
D11*
%TO.P,J1,B5,CC2*%
%TO.N,Net-(J1-CC2)*%
X27200000Y-154600000D03*
%TO.P,J1,B6,DP2*%
%TO.N,unconnected-(J1-DP2-PadB6)*%
X27200000Y-153600000D03*
%TO.P,J1,B7,DN2*%
%TO.N,unconnected-(J1-DN2-PadB7)*%
X27200000Y-152100000D03*
%TO.P,J1,B8,SBU2*%
%TO.N,unconnected-(J1-SBU2-PadB8)*%
X27200000Y-151100000D03*
D12*
%TO.P,J1,S1,SHIELD*%
%TO.N,GND*%
X26620000Y-148525000D03*
%TO.P,J1,S2,SHIELD*%
X26620000Y-157175000D03*
D13*
%TO.P,J1,S3,SHIELD*%
X22450000Y-148525000D03*
%TO.P,J1,S4,SHIELD*%
X22450000Y-157175000D03*
%TD*%
D14*
%TO.P,IN+,1,1*%
%TO.N,VBUS*%
X26800000Y-145600000D03*
%TD*%
%TO.P,IN-,1,1*%
%TO.N,GND*%
X26800000Y-160000000D03*
%TD*%
%TO.P,O-,1,1*%
%TO.N,GND*%
X55800000Y-151442500D03*
%TD*%
%TO.P,B-,1,1*%
%TO.N,GND*%
X55800000Y-156442500D03*
%TD*%
%TO.P,B+,1,1*%
%TO.N,OUT_NOBOOST*%
X55800000Y-154442500D03*
%TD*%
%TO.P,O+,1,1*%
%TO.N,Net-(C4-Pad1)*%
X55800000Y-149442500D03*
%TD*%
D15*
%TO.P,D2,1,K*%
%TO.N,Net-(D2-K)*%
X33700000Y-157130000D03*
%TO.P,D2,2,A*%
%TO.N,VBUS*%
X30900000Y-157130000D03*
%TD*%
%TO.P,D1,1,K*%
%TO.N,Net-(D1-K)*%
X33720000Y-160570000D03*
%TO.P,D1,2,A*%
%TO.N,VBUS*%
X30920000Y-160570000D03*
%TD*%
D16*
%TO.P,Q1,8*%
%TO.N,unconnected-(Q1-Pad1)_1*%
X46090000Y-158585000D03*
%TO.P,Q1,7*%
%TO.N,GND*%
X46090000Y-159235000D03*
%TO.P,Q1,6*%
X46090000Y-159885000D03*
%TO.P,Q1,5*%
%TO.N,Net-(U2-OC)*%
X46090000Y-160535000D03*
%TO.P,Q1,4*%
%TO.N,Net-(U2-OD)*%
X40330000Y-160535000D03*
%TO.P,Q1,3*%
%TO.N,GND*%
X40330000Y-159885000D03*
%TO.P,Q1,2*%
X40330000Y-159235000D03*
%TO.P,Q1,1*%
%TO.N,unconnected-(Q1-Pad1)*%
X40330000Y-158585000D03*
%TD*%
D17*
%TO.P,U2,6,GND*%
%TO.N,GND*%
X40202500Y-156160000D03*
%TO.P,U2,5,VCC*%
%TO.N,Net-(U2-VCC)*%
X40202500Y-155210000D03*
%TO.P,U2,4,TD*%
%TO.N,unconnected-(U2-TD-Pad4)*%
X40202500Y-154260000D03*
%TO.P,U2,3,OC*%
%TO.N,Net-(U2-OC)*%
X42477500Y-154260000D03*
%TO.P,U2,2,CS*%
%TO.N,Net-(U2-CS)*%
X42477500Y-155210000D03*
%TO.P,U2,1,OD*%
%TO.N,Net-(U2-OD)*%
X42477500Y-156160000D03*
%TD*%
%TO.P,U3,6,NC*%
%TO.N,unconnected-(U3-NC-Pad6)*%
X49075000Y-160380000D03*
%TO.P,U3,5,IN*%
%TO.N,OUT_NOBOOST*%
X49075000Y-159430000D03*
%TO.P,U3,4,EN*%
X49075000Y-158480000D03*
%TO.P,U3,3,FB*%
%TO.N,Net-(U3-FB)*%
X51350000Y-158480000D03*
%TO.P,U3,2,GND*%
%TO.N,GND*%
X51350000Y-159430000D03*
%TO.P,U3,1,SW*%
%TO.N,Net-(U3-SW)*%
X51350000Y-160380000D03*
%TD*%
D18*
%TO.P,L1,2*%
%TO.N,Net-(U3-SW)*%
X50125000Y-146330000D03*
%TO.P,L1,1*%
%TO.N,OUT_NOBOOST*%
X52675000Y-146330000D03*
%TD*%
D19*
%TO.P,U1,9,EPAD*%
%TO.N,GND*%
X38420000Y-148920000D03*
X38420000Y-147720000D03*
X38420000Y-146520000D03*
D20*
X37720000Y-147720000D03*
D19*
X37020000Y-148920000D03*
X37020000Y-147720000D03*
X37020000Y-146520000D03*
D21*
%TO.P,U1,8,CE*%
%TO.N,VBUS*%
X40195000Y-145815000D03*
%TO.P,U1,7,~{CHRG}*%
%TO.N,Net-(U1-~{CHRG})*%
X40195000Y-147085000D03*
%TO.P,U1,6,~{STDBY}*%
%TO.N,Net-(U1-~{STDBY})*%
X40195000Y-148355000D03*
%TO.P,U1,5,BAT*%
%TO.N,OUT_NOBOOST*%
X40195000Y-149625000D03*
%TO.P,U1,4,V_{CC}*%
%TO.N,GND*%
X35245000Y-149625000D03*
%TO.P,U1,3,GND*%
X35245000Y-148355000D03*
%TO.P,U1,2,PROG*%
%TO.N,Net-(U1-PROG)*%
X35245000Y-147085000D03*
%TO.P,U1,1,TEMP*%
%TO.N,GND*%
X35245000Y-145815000D03*
%TD*%
D22*
%TO.P,RPROG1,1*%
%TO.N,Net-(U1-PROG)*%
X30655000Y-146050000D03*
%TO.P,RPROG1,2*%
%TO.N,GND*%
X32305000Y-146050000D03*
%TD*%
%TO.P,R8,1*%
%TO.N,Net-(U3-FB)*%
X50585000Y-152500000D03*
%TO.P,R8,2*%
%TO.N,GND*%
X52235000Y-152500000D03*
%TD*%
%TO.P,R7,1*%
%TO.N,Net-(C4-Pad1)*%
X50615000Y-155310000D03*
%TO.P,R7,2*%
%TO.N,Net-(U3-FB)*%
X52265000Y-155310000D03*
%TD*%
%TO.P,R6,1*%
%TO.N,Net-(J1-CC2)*%
X30645000Y-153750000D03*
%TO.P,R6,2*%
%TO.N,GND*%
X32295000Y-153750000D03*
%TD*%
%TO.P,R5,1*%
%TO.N,Net-(J1-CC1)*%
X30635000Y-151790000D03*
%TO.P,R5,2*%
%TO.N,GND*%
X32285000Y-151790000D03*
%TD*%
%TO.P,R4,1*%
%TO.N,Net-(U2-CS)*%
X44782500Y-155990000D03*
%TO.P,R4,2*%
%TO.N,GND*%
X46432500Y-155990000D03*
%TD*%
%TO.P,R2,1*%
%TO.N,Net-(D2-K)*%
X36055000Y-157130000D03*
%TO.P,R2,2*%
%TO.N,Net-(U1-~{STDBY})*%
X37705000Y-157130000D03*
%TD*%
%TO.P,R1,1*%
%TO.N,Net-(D1-K)*%
X36055000Y-160570000D03*
%TO.P,R1,2*%
%TO.N,Net-(U1-~{CHRG})*%
X37705000Y-160570000D03*
%TD*%
D23*
%TO.P,D3,A*%
%TO.N,Net-(U3-SW)*%
X45520000Y-145195000D03*
%TO.P,D3,C*%
%TO.N,Net-(C4-Pad1)*%
X45520000Y-152105000D03*
%TD*%
D24*
%TO.P,C4,1*%
%TO.N,Net-(C4-Pad1)*%
X50645000Y-149740000D03*
%TO.P,C4,2*%
%TO.N,GND*%
X52195000Y-149740000D03*
%TD*%
%TO.P,C3,1*%
%TO.N,OUT_NOBOOST*%
X39675000Y-151480000D03*
%TO.P,C3,2*%
%TO.N,GND*%
X41225000Y-151480000D03*
%TD*%
D25*
%TO.P,C2,1*%
%TO.N,Net-(U2-VCC)*%
X37635000Y-152170000D03*
%TO.P,C2,2*%
%TO.N,GND*%
X36085000Y-152170000D03*
%TD*%
D24*
%TO.P,C1,1*%
%TO.N,VBUS*%
X30695000Y-149720000D03*
%TO.P,C1,2*%
%TO.N,GND*%
X32245000Y-149720000D03*
%TD*%
D26*
%TO.P,R3,1*%
%TO.N,Net-(U2-VCC)*%
X37685000Y-154450000D03*
%TO.P,R3,2*%
%TO.N,OUT_NOBOOST*%
X36035000Y-154450000D03*
%TD*%
D27*
%TO.N,GND*%
X28700000Y-149300000D03*
X28900000Y-161400000D03*
X51270832Y-151142796D03*
X37600000Y-150800000D03*
X57600000Y-152900000D03*
X53700000Y-160900000D03*
X49000000Y-155200000D03*
X47600000Y-157600000D03*
X42300000Y-159800000D03*
X40500000Y-157400000D03*
X42013118Y-150411319D03*
X37500000Y-145100000D03*
X33400000Y-146000000D03*
X32550000Y-148250000D03*
X33700000Y-151000000D03*
X33900000Y-154200000D03*
X24800000Y-158300000D03*
X24900000Y-147400000D03*
%TO.N,OUT_NOBOOST*%
X34300000Y-152600000D03*
%TO.N,Net-(U3-SW)*%
X53800000Y-154000000D03*
X48500000Y-144000000D03*
%TO.N,OUT_NOBOOST*%
X40700000Y-152600000D03*
X46400000Y-154200000D03*
%TO.N,Net-(U2-VCC)*%
X42900000Y-157600000D03*
X36500000Y-155700000D03*
%TD*%
D28*
%TO.N,GND*%
X28350000Y-149650000D02*
X28700000Y-149300000D01*
X27200000Y-149650000D02*
X28350000Y-149650000D01*
X47415000Y-159885000D02*
X47600000Y-159700000D01*
X46090000Y-159885000D02*
X47415000Y-159885000D01*
X47600000Y-159700000D02*
X47600000Y-158523486D01*
X47600000Y-157600000D02*
X47600000Y-158523486D01*
X47600000Y-158523486D02*
X46888486Y-159235000D01*
X46888486Y-159235000D02*
X46090000Y-159235000D01*
%TO.N,Net-(U2-OC)*%
X46090000Y-160535000D02*
X45291514Y-160535000D01*
X44300000Y-159543486D02*
X44300000Y-158200000D01*
X45533500Y-156966500D02*
X45533500Y-155481226D01*
X45291514Y-160535000D02*
X44300000Y-159543486D01*
X44300000Y-158200000D02*
X45533500Y-156966500D01*
X45533500Y-155481226D02*
X44312274Y-154260000D01*
X44312274Y-154260000D02*
X42477500Y-154260000D01*
%TO.N,GND*%
X28200000Y-161400000D02*
X28900000Y-161400000D01*
X26800000Y-160000000D02*
X28200000Y-161400000D01*
X37500000Y-145100000D02*
X37500000Y-146000000D01*
X37720000Y-146220000D02*
X37720000Y-147720000D01*
X37500000Y-146000000D02*
X37720000Y-146220000D01*
X37600000Y-150800000D02*
X37500000Y-150800000D01*
X37500000Y-150800000D02*
X36130000Y-152170000D01*
X36130000Y-152170000D02*
X36085000Y-152170000D01*
X51270832Y-151142796D02*
X51270832Y-150664168D01*
X51270832Y-150664168D02*
X52195000Y-149740000D01*
X52235000Y-152500000D02*
X52235000Y-152106964D01*
X52235000Y-152106964D02*
X51270832Y-151142796D01*
X52235000Y-149780000D02*
X52195000Y-149740000D01*
X57000000Y-152900000D02*
X55800000Y-151700000D01*
X57600000Y-152900000D02*
X57000000Y-152900000D01*
X55800000Y-151700000D02*
X55800000Y-151442500D01*
X53700000Y-160900000D02*
X54109000Y-160491000D01*
X54109000Y-158133500D02*
X55800000Y-156442500D01*
X54109000Y-160491000D02*
X54109000Y-158133500D01*
X50088500Y-156288500D02*
X49000000Y-155200000D01*
X50088500Y-158830999D02*
X50088500Y-156288500D01*
X50687501Y-159430000D02*
X50088500Y-158830999D01*
X51350000Y-159430000D02*
X50687501Y-159430000D01*
X47600000Y-157600000D02*
X47600000Y-157157500D01*
X47600000Y-157157500D02*
X46432500Y-155990000D01*
X40330000Y-159885000D02*
X42215000Y-159885000D01*
X42215000Y-159885000D02*
X42300000Y-159800000D01*
X41735000Y-159235000D02*
X42300000Y-159800000D01*
X40330000Y-159235000D02*
X41735000Y-159235000D01*
X40202500Y-157102500D02*
X40400000Y-157300000D01*
X40202500Y-156160000D02*
X40202500Y-157102500D01*
X42013118Y-150786882D02*
X41320000Y-151480000D01*
X41320000Y-151480000D02*
X41225000Y-151480000D01*
X42013118Y-150411319D02*
X42013118Y-150786882D01*
%TO.N,VBUS*%
X26800000Y-145600000D02*
X28300000Y-144100000D01*
X28300000Y-144100000D02*
X38480000Y-144100000D01*
X38480000Y-144100000D02*
X40195000Y-145815000D01*
%TO.N,GND*%
X35245000Y-145815000D02*
X35815000Y-145815000D01*
X35815000Y-145815000D02*
X37720000Y-147720000D01*
X35245000Y-149625000D02*
X36315000Y-149625000D01*
X36315000Y-149625000D02*
X37020000Y-148920000D01*
X35245000Y-148355000D02*
X36455000Y-148355000D01*
X36455000Y-148355000D02*
X37020000Y-148920000D01*
X35245000Y-149625000D02*
X33925000Y-149625000D01*
X33925000Y-149625000D02*
X32550000Y-148250000D01*
X35245000Y-148355000D02*
X32655000Y-148355000D01*
X32655000Y-148355000D02*
X32550000Y-148250000D01*
X35245000Y-145815000D02*
X33585000Y-145815000D01*
X33585000Y-145815000D02*
X33400000Y-146000000D01*
X32305000Y-146050000D02*
X33350000Y-146050000D01*
X33350000Y-146050000D02*
X33400000Y-146000000D01*
X32245000Y-148555000D02*
X32245000Y-149720000D01*
X32550000Y-148250000D02*
X32245000Y-148555000D01*
X32285000Y-151790000D02*
X32910000Y-151790000D01*
X32910000Y-151790000D02*
X33700000Y-151000000D01*
X32295000Y-153750000D02*
X33450000Y-153750000D01*
X33450000Y-153750000D02*
X33900000Y-154200000D01*
X26800000Y-160000000D02*
X26800000Y-157355000D01*
X26800000Y-157355000D02*
X26620000Y-157175000D01*
X24800000Y-158300000D02*
X23675000Y-157175000D01*
X23675000Y-157175000D02*
X22450000Y-157175000D01*
X22450000Y-148525000D02*
X23775000Y-148525000D01*
X23775000Y-148525000D02*
X24900000Y-147400000D01*
X22450000Y-157175000D02*
X22450000Y-148525000D01*
X27200000Y-149650000D02*
X27200000Y-149105000D01*
X27200000Y-149105000D02*
X26620000Y-148525000D01*
X26620000Y-148525000D02*
X22450000Y-148525000D01*
X26620000Y-157175000D02*
X22450000Y-157175000D01*
X27200000Y-156050000D02*
X27200000Y-156595000D01*
X27200000Y-156595000D02*
X26620000Y-157175000D01*
%TO.N,OUT_NOBOOST*%
X34300000Y-152600000D02*
X35224822Y-151675178D01*
X35224822Y-151675178D02*
X35284000Y-151675178D01*
%TO.N,Net-(U3-SW)*%
X53016000Y-159376499D02*
X53016000Y-154800000D01*
X53800000Y-154000000D02*
X53016000Y-154784000D01*
X53016000Y-154784000D02*
X53016000Y-154800000D01*
X47305000Y-145195000D02*
X48500000Y-144000000D01*
X45520000Y-145195000D02*
X47305000Y-145195000D01*
%TO.N,OUT_NOBOOST*%
X52675000Y-146330000D02*
X52675000Y-148171480D01*
X52675000Y-148171480D02*
X53517000Y-149013480D01*
X53517000Y-149013480D02*
X53517000Y-152159500D01*
X53517000Y-152159500D02*
X55800000Y-154442500D01*
X55800000Y-154442500D02*
X55259853Y-154442500D01*
X52074178Y-161031000D02*
X50625822Y-161031000D01*
X50088500Y-160493678D02*
X50088500Y-160018322D01*
X55259853Y-154442500D02*
X53517000Y-156185353D01*
X53517000Y-156185353D02*
X53517000Y-159588178D01*
X53517000Y-159588178D02*
X52074178Y-161031000D01*
X50625822Y-161031000D02*
X50088500Y-160493678D01*
X50088500Y-160018322D02*
X49500178Y-159430000D01*
X49500178Y-159430000D02*
X49075000Y-159430000D01*
%TO.N,Net-(C4-Pad1)*%
X55800000Y-149442500D02*
X53651000Y-147293500D01*
X53651000Y-147293500D02*
X53651000Y-144979000D01*
X53651000Y-144979000D02*
X49149000Y-144979000D01*
X49149000Y-148244000D02*
X50645000Y-149740000D01*
X49149000Y-144979000D02*
X49149000Y-148244000D01*
%TO.N,OUT_NOBOOST*%
X49075000Y-159430000D02*
X49075000Y-158480000D01*
%TO.N,Net-(U3-SW)*%
X51350000Y-160380000D02*
X52012499Y-160380000D01*
X52012499Y-160380000D02*
X53016000Y-159376499D01*
X53016000Y-154800000D02*
X53016000Y-149221000D01*
X53016000Y-149221000D02*
X50125000Y-146330000D01*
%TO.N,Net-(U3-FB)*%
X51350000Y-158480000D02*
X52265000Y-157565000D01*
X52265000Y-157565000D02*
X52265000Y-155310000D01*
%TO.N,Net-(C4-Pad1)*%
X50615000Y-155310000D02*
X50615000Y-154620000D01*
X50615000Y-154620000D02*
X48100000Y-152105000D01*
X45520000Y-152105000D02*
X48100000Y-152105000D01*
%TO.N,Net-(U3-FB)*%
X50585000Y-152500000D02*
X50585000Y-153630000D01*
X50585000Y-153630000D02*
X52265000Y-155310000D01*
%TO.N,Net-(C4-Pad1)*%
X48100000Y-152105000D02*
X48280000Y-152105000D01*
X48280000Y-152105000D02*
X50645000Y-149740000D01*
%TO.N,OUT_NOBOOST*%
X39675000Y-151480000D02*
X39675000Y-151575000D01*
X39675000Y-151575000D02*
X40700000Y-152600000D01*
%TO.N,Net-(U1-~{CHRG})*%
X39189000Y-159086000D02*
X39189000Y-153898322D01*
X39189000Y-153898322D02*
X39487322Y-153600000D01*
X39487322Y-153600000D02*
X41500000Y-153600000D01*
X37705000Y-160570000D02*
X39189000Y-159086000D01*
X41500000Y-153600000D02*
X42700000Y-152400000D01*
X42700000Y-152400000D02*
X42700000Y-148615001D01*
X42700000Y-148615001D02*
X41169999Y-147085000D01*
X41169999Y-147085000D02*
X40195000Y-147085000D01*
%TO.N,OUT_NOBOOST*%
X49075000Y-156875000D02*
X46400000Y-154200000D01*
X49075000Y-158480000D02*
X49075000Y-156875000D01*
%TO.N,Net-(U2-OD)*%
X42477500Y-156160000D02*
X43551000Y-157233500D01*
X43551000Y-157233500D02*
X43551000Y-159849000D01*
X42865000Y-160535000D02*
X40330000Y-160535000D01*
X43551000Y-159849000D02*
X42865000Y-160535000D01*
%TO.N,Net-(U2-CS)*%
X44782500Y-155990000D02*
X44002500Y-155210000D01*
X44002500Y-155210000D02*
X42477500Y-155210000D01*
%TO.N,Net-(U2-VCC)*%
X42900000Y-157600000D02*
X42294322Y-157600000D01*
X40864999Y-155210000D02*
X40202500Y-155210000D01*
X42294322Y-157600000D02*
X41216000Y-156521678D01*
X41216000Y-156521678D02*
X41216000Y-155561001D01*
X41216000Y-155561001D02*
X40864999Y-155210000D01*
X37685000Y-154515000D02*
X36500000Y-155700000D01*
X37685000Y-154450000D02*
X37685000Y-154515000D01*
X37635000Y-152170000D02*
X37635000Y-154400000D01*
X37635000Y-154400000D02*
X37685000Y-154450000D01*
%TO.N,OUT_NOBOOST*%
X40195000Y-149625000D02*
X40099000Y-149721000D01*
X40099000Y-149721000D02*
X37238178Y-149721000D01*
X37238178Y-149721000D02*
X35284000Y-151675178D01*
X35284000Y-151675178D02*
X35284000Y-153699000D01*
X35284000Y-153699000D02*
X36035000Y-154450000D01*
%TO.N,Net-(U1-~{STDBY})*%
X37705000Y-157130000D02*
X38688000Y-156147000D01*
X41231678Y-150276000D02*
X41521000Y-149986678D01*
X38688000Y-156147000D02*
X38688000Y-150746322D01*
X41521000Y-149263322D02*
X40612678Y-148355000D01*
X38688000Y-150746322D02*
X39158322Y-150276000D01*
X39158322Y-150276000D02*
X41231678Y-150276000D01*
X41521000Y-149986678D02*
X41521000Y-149263322D01*
X40612678Y-148355000D02*
X40195000Y-148355000D01*
%TO.N,Net-(D1-K)*%
X33720000Y-160570000D02*
X36055000Y-160570000D01*
%TO.N,VBUS*%
X30170000Y-160570000D02*
X29000000Y-159400000D01*
X30920000Y-160570000D02*
X30170000Y-160570000D01*
X29000000Y-159400000D02*
X29000000Y-156278000D01*
X29000000Y-156278000D02*
X27972000Y-155250000D01*
X27972000Y-155250000D02*
X27200000Y-155250000D01*
%TO.N,Net-(D2-K)*%
X33700000Y-157130000D02*
X36055000Y-157130000D01*
%TO.N,Net-(U1-PROG)*%
X30655000Y-146050000D02*
X31690000Y-147085000D01*
X31690000Y-147085000D02*
X35245000Y-147085000D01*
%TO.N,VBUS*%
X30695000Y-149720000D02*
X30695000Y-149495000D01*
X30695000Y-149495000D02*
X26800000Y-145600000D01*
X27200000Y-155250000D02*
X26631364Y-155250000D01*
X25269000Y-153887636D02*
X25269000Y-151812364D01*
X26631364Y-155250000D02*
X25269000Y-153887636D01*
X25269000Y-151812364D02*
X26631364Y-150450000D01*
X26631364Y-150450000D02*
X27200000Y-150450000D01*
X27200000Y-150450000D02*
X29965000Y-150450000D01*
X29965000Y-150450000D02*
X30695000Y-149720000D01*
X27200000Y-155250000D02*
X28070000Y-155250000D01*
X28070000Y-155250000D02*
X29950000Y-157130000D01*
X29950000Y-157130000D02*
X30900000Y-157130000D01*
%TO.N,Net-(J1-CC2)*%
X27200000Y-154600000D02*
X29795000Y-154600000D01*
X29795000Y-154600000D02*
X30645000Y-153750000D01*
%TO.N,Net-(J1-CC1)*%
X27200000Y-151600000D02*
X28022000Y-151600000D01*
X28212000Y-151790000D02*
X30635000Y-151790000D01*
X28022000Y-151600000D02*
X28212000Y-151790000D01*
%TD*%
%TA.AperFunction,Conductor*%
%TO.N,GND*%
G36*
X24861187Y-146011819D02*
G01*
X24915065Y-146056304D01*
X24936340Y-146122856D01*
X24936375Y-146125807D01*
X24936375Y-146221936D01*
X24936376Y-146221951D01*
X24946810Y-146324081D01*
X25001644Y-146489560D01*
X25001646Y-146489565D01*
X25029279Y-146534364D01*
X25093165Y-146637940D01*
X25216435Y-146761210D01*
X25364812Y-146852730D01*
X25448524Y-146880469D01*
X25530294Y-146907565D01*
X25540729Y-146908631D01*
X25632432Y-146918000D01*
X27146691Y-146917999D01*
X27213730Y-146937684D01*
X27234372Y-146954318D01*
X27766143Y-147486089D01*
X27799628Y-147547412D01*
X27794644Y-147617104D01*
X27752772Y-147673037D01*
X27687308Y-147697454D01*
X27626050Y-147684416D01*
X27625622Y-147685452D01*
X27620027Y-147683134D01*
X27620015Y-147683132D01*
X27619994Y-147683120D01*
X27447105Y-147611508D01*
X27447097Y-147611506D01*
X27263570Y-147575000D01*
X26870000Y-147575000D01*
X26870000Y-148225000D01*
X26370000Y-148225000D01*
X26370000Y-147575000D01*
X25976430Y-147575000D01*
X25792902Y-147611506D01*
X25792894Y-147611508D01*
X25620008Y-147683119D01*
X25619999Y-147683124D01*
X25464410Y-147787086D01*
X25464406Y-147787089D01*
X25332089Y-147919406D01*
X25332086Y-147919410D01*
X25228124Y-148074999D01*
X25228119Y-148075008D01*
X25156507Y-148247896D01*
X25156506Y-148247899D01*
X25151115Y-148274999D01*
X25151116Y-148275000D01*
X25903012Y-148275000D01*
X25885795Y-148284940D01*
X25829940Y-148340795D01*
X25790444Y-148409204D01*
X25770000Y-148485504D01*
X25770000Y-148564496D01*
X25790444Y-148640796D01*
X25829940Y-148709205D01*
X25885795Y-148765060D01*
X25903012Y-148775000D01*
X25151116Y-148775000D01*
X25156506Y-148802100D01*
X25156507Y-148802103D01*
X25228119Y-148974991D01*
X25228124Y-148975000D01*
X25332086Y-149130589D01*
X25332089Y-149130593D01*
X25464406Y-149262910D01*
X25464410Y-149262913D01*
X25619999Y-149366875D01*
X25620003Y-149366877D01*
X25678073Y-149390930D01*
X25732476Y-149434771D01*
X25754542Y-149501065D01*
X25737263Y-149568764D01*
X25718304Y-149593172D01*
X25689488Y-149621988D01*
X25617017Y-149747511D01*
X25617016Y-149747515D01*
X25579500Y-149887525D01*
X25579500Y-150032475D01*
X25615434Y-150166580D01*
X25617017Y-150172488D01*
X25689488Y-150298011D01*
X25694438Y-150304461D01*
X25693200Y-150305410D01*
X25722251Y-150358613D01*
X25717267Y-150428305D01*
X25688766Y-150472652D01*
X24763722Y-151397695D01*
X24763718Y-151397700D01*
X24725768Y-151454500D01*
X24723173Y-151458384D01*
X24707854Y-151481310D01*
X24692535Y-151504236D01*
X24692533Y-151504239D01*
X24643499Y-151622619D01*
X24643497Y-151622625D01*
X24618500Y-151748292D01*
X24618500Y-153951706D01*
X24633643Y-154027830D01*
X24633643Y-154027832D01*
X24643497Y-154077372D01*
X24643499Y-154077380D01*
X24690641Y-154191192D01*
X24692535Y-154195763D01*
X24752097Y-154284905D01*
X24763726Y-154302309D01*
X25688765Y-155227348D01*
X25722250Y-155288671D01*
X25717266Y-155358363D01*
X25693727Y-155394993D01*
X25694438Y-155395539D01*
X25689488Y-155401988D01*
X25617017Y-155527511D01*
X25617016Y-155527515D01*
X25579500Y-155667525D01*
X25579500Y-155812475D01*
X25617016Y-155952485D01*
X25617017Y-155952488D01*
X25689488Y-156078011D01*
X25689493Y-156078017D01*
X25718302Y-156106826D01*
X25751787Y-156168149D01*
X25746803Y-156237841D01*
X25704931Y-156293774D01*
X25678074Y-156309068D01*
X25620009Y-156333119D01*
X25619999Y-156333124D01*
X25464410Y-156437086D01*
X25464406Y-156437089D01*
X25332089Y-156569406D01*
X25332086Y-156569410D01*
X25228124Y-156724999D01*
X25228119Y-156725008D01*
X25156507Y-156897896D01*
X25156506Y-156897899D01*
X25151115Y-156924999D01*
X25151116Y-156925000D01*
X25903012Y-156925000D01*
X25885795Y-156934940D01*
X25829940Y-156990795D01*
X25790444Y-157059204D01*
X25770000Y-157135504D01*
X25770000Y-157214496D01*
X25790444Y-157290796D01*
X25829940Y-157359205D01*
X25885795Y-157415060D01*
X25903012Y-157425000D01*
X25151116Y-157425000D01*
X25156506Y-157452100D01*
X25156507Y-157452103D01*
X25228119Y-157624991D01*
X25228124Y-157625000D01*
X25332086Y-157780589D01*
X25332089Y-157780593D01*
X25464406Y-157912910D01*
X25464410Y-157912913D01*
X25619999Y-158016875D01*
X25620008Y-158016880D01*
X25792894Y-158088491D01*
X25792902Y-158088493D01*
X25976428Y-158124999D01*
X25976431Y-158125000D01*
X26370000Y-158125000D01*
X26370000Y-157475000D01*
X26870000Y-157475000D01*
X26870000Y-158125000D01*
X27263569Y-158125000D01*
X27263571Y-158124999D01*
X27447097Y-158088493D01*
X27447105Y-158088491D01*
X27619991Y-158016880D01*
X27620000Y-158016875D01*
X27775589Y-157912913D01*
X27775593Y-157912910D01*
X27907910Y-157780593D01*
X27907913Y-157780589D01*
X28011875Y-157625000D01*
X28011880Y-157624991D01*
X28083491Y-157452105D01*
X28083493Y-157452097D01*
X28103883Y-157349595D01*
X28136268Y-157287684D01*
X28196983Y-157253110D01*
X28266753Y-157256849D01*
X28323425Y-157297716D01*
X28349006Y-157362734D01*
X28349500Y-157373786D01*
X28349500Y-158613956D01*
X28329815Y-158680995D01*
X28277011Y-158726750D01*
X28207853Y-158736694D01*
X28186496Y-158731662D01*
X28069604Y-158692928D01*
X27967538Y-158682500D01*
X27050000Y-158682500D01*
X27050000Y-161317500D01*
X27967526Y-161317500D01*
X27967538Y-161317499D01*
X28069604Y-161307071D01*
X28234972Y-161252274D01*
X28234983Y-161252269D01*
X28383248Y-161160817D01*
X28383252Y-161160814D01*
X28506439Y-161037627D01*
X28506442Y-161037623D01*
X28597894Y-160889358D01*
X28597899Y-160889347D01*
X28652696Y-160723979D01*
X28663124Y-160621913D01*
X28663125Y-160621900D01*
X28663125Y-160282433D01*
X28682810Y-160215394D01*
X28735614Y-160169639D01*
X28804772Y-160159695D01*
X28868328Y-160188720D01*
X28874806Y-160194752D01*
X29758181Y-161078128D01*
X29791666Y-161139451D01*
X29794500Y-161165807D01*
X29794500Y-161245000D01*
X29794501Y-161245019D01*
X29805000Y-161347796D01*
X29805001Y-161347799D01*
X29860185Y-161514331D01*
X29860187Y-161514336D01*
X29860529Y-161514890D01*
X29952288Y-161663656D01*
X30076344Y-161787712D01*
X30128629Y-161819962D01*
X30175353Y-161871909D01*
X30186576Y-161940872D01*
X30158732Y-162004954D01*
X30100664Y-162043810D01*
X30063532Y-162049500D01*
X23956163Y-162049500D01*
X23889124Y-162029815D01*
X23843369Y-161977011D01*
X23833425Y-161907853D01*
X23862450Y-161844297D01*
X23880677Y-161827124D01*
X23932042Y-161787710D01*
X24039890Y-161704956D01*
X24229956Y-161514890D01*
X24393587Y-161301641D01*
X24527984Y-161068859D01*
X24540923Y-161037623D01*
X24568405Y-160971274D01*
X24630847Y-160820526D01*
X24693101Y-160588189D01*
X24729465Y-160528531D01*
X24792312Y-160498002D01*
X24861687Y-160506297D01*
X24915565Y-160550782D01*
X24936840Y-160617334D01*
X24936875Y-160620285D01*
X24936875Y-160621913D01*
X24947303Y-160723979D01*
X25002100Y-160889347D01*
X25002105Y-160889358D01*
X25093557Y-161037623D01*
X25093560Y-161037627D01*
X25216747Y-161160814D01*
X25216751Y-161160817D01*
X25365016Y-161252269D01*
X25365027Y-161252274D01*
X25530395Y-161307071D01*
X25632461Y-161317499D01*
X25632474Y-161317500D01*
X26550000Y-161317500D01*
X26550000Y-158682500D01*
X25632461Y-158682500D01*
X25530395Y-158692928D01*
X25365027Y-158747725D01*
X25365016Y-158747730D01*
X25216751Y-158839182D01*
X25216747Y-158839185D01*
X25093560Y-158962372D01*
X25093557Y-158962376D01*
X25002105Y-159110641D01*
X25002100Y-159110652D01*
X24947303Y-159276020D01*
X24936875Y-159378086D01*
X24936875Y-159699714D01*
X24917190Y-159766753D01*
X24864386Y-159812508D01*
X24795228Y-159822452D01*
X24731672Y-159793427D01*
X24693898Y-159734649D01*
X24693100Y-159731807D01*
X24690144Y-159720776D01*
X24630847Y-159499474D01*
X24581434Y-159380181D01*
X24527988Y-159251149D01*
X24527980Y-159251133D01*
X24456843Y-159127922D01*
X24393587Y-159018359D01*
X24301124Y-158897858D01*
X24229957Y-158805111D01*
X24229951Y-158805104D01*
X24039895Y-158615048D01*
X24039888Y-158615042D01*
X23826645Y-158451416D01*
X23826644Y-158451415D01*
X23826641Y-158451413D01*
X23723558Y-158391898D01*
X23593866Y-158317019D01*
X23593849Y-158317011D01*
X23349490Y-158215795D01*
X23295086Y-158171954D01*
X23273021Y-158105660D01*
X23290300Y-158037961D01*
X23328051Y-157998132D01*
X23455590Y-157912913D01*
X23587910Y-157780593D01*
X23587913Y-157780589D01*
X23691875Y-157625000D01*
X23691880Y-157624991D01*
X23763492Y-157452103D01*
X23763493Y-157452100D01*
X23768884Y-157425000D01*
X23016988Y-157425000D01*
X23034205Y-157415060D01*
X23090060Y-157359205D01*
X23129556Y-157290796D01*
X23150000Y-157214496D01*
X23150000Y-157135504D01*
X23129556Y-157059204D01*
X23090060Y-156990795D01*
X23034205Y-156934940D01*
X23016988Y-156925000D01*
X23768884Y-156925000D01*
X23768884Y-156924999D01*
X23763493Y-156897899D01*
X23763492Y-156897896D01*
X23691880Y-156725008D01*
X23691875Y-156724999D01*
X23587913Y-156569410D01*
X23587910Y-156569406D01*
X23455593Y-156437089D01*
X23455589Y-156437086D01*
X23300000Y-156333124D01*
X23299991Y-156333119D01*
X23127105Y-156261508D01*
X23127097Y-156261506D01*
X22943570Y-156225000D01*
X22700000Y-156225000D01*
X22700000Y-156875000D01*
X22200000Y-156875000D01*
X22200000Y-156225000D01*
X21956430Y-156225000D01*
X21772902Y-156261506D01*
X21772894Y-156261508D01*
X21600008Y-156333119D01*
X21599999Y-156333124D01*
X21444410Y-156437086D01*
X21444406Y-156437089D01*
X21312089Y-156569406D01*
X21312086Y-156569410D01*
X21208124Y-156724999D01*
X21208119Y-156725008D01*
X21136507Y-156897896D01*
X21136506Y-156897899D01*
X21131115Y-156924999D01*
X21131116Y-156925000D01*
X21883012Y-156925000D01*
X21865795Y-156934940D01*
X21809940Y-156990795D01*
X21770444Y-157059204D01*
X21750000Y-157135504D01*
X21750000Y-157214496D01*
X21770444Y-157290796D01*
X21809940Y-157359205D01*
X21865795Y-157415060D01*
X21883012Y-157425000D01*
X21131116Y-157425000D01*
X21136506Y-157452100D01*
X21136507Y-157452103D01*
X21208119Y-157624991D01*
X21208124Y-157625000D01*
X21312086Y-157780589D01*
X21312089Y-157780593D01*
X21444406Y-157912910D01*
X21444410Y-157912913D01*
X21599999Y-158016875D01*
X21600008Y-158016880D01*
X21773796Y-158088865D01*
X21828199Y-158132706D01*
X21850264Y-158199000D01*
X21832985Y-158266699D01*
X21781848Y-158314310D01*
X21778879Y-158315665D01*
X21776133Y-158317019D01*
X21543354Y-158451416D01*
X21330111Y-158615042D01*
X21330104Y-158615048D01*
X21140048Y-158805104D01*
X21140042Y-158805111D01*
X21018313Y-158963752D01*
X20961885Y-159004955D01*
X20892139Y-159009110D01*
X20831219Y-158974898D01*
X20798466Y-158913180D01*
X20795937Y-158888223D01*
X20795944Y-158869960D01*
X20800062Y-146915548D01*
X20819770Y-146848518D01*
X20872589Y-146802781D01*
X20941751Y-146792861D01*
X21005297Y-146821908D01*
X21022438Y-146840107D01*
X21145042Y-146999888D01*
X21145048Y-146999895D01*
X21335104Y-147189951D01*
X21335111Y-147189957D01*
X21541843Y-147348587D01*
X21548359Y-147353587D01*
X21684512Y-147432195D01*
X21732727Y-147482763D01*
X21745949Y-147551370D01*
X21719981Y-147616234D01*
X21669964Y-147654143D01*
X21600009Y-147683119D01*
X21599999Y-147683124D01*
X21444410Y-147787086D01*
X21444406Y-147787089D01*
X21312089Y-147919406D01*
X21312086Y-147919410D01*
X21208124Y-148074999D01*
X21208119Y-148075008D01*
X21136507Y-148247896D01*
X21136506Y-148247899D01*
X21131115Y-148274999D01*
X21131116Y-148275000D01*
X21883012Y-148275000D01*
X21865795Y-148284940D01*
X21809940Y-148340795D01*
X21770444Y-148409204D01*
X21750000Y-148485504D01*
X21750000Y-148564496D01*
X21770444Y-148640796D01*
X21809940Y-148709205D01*
X21865795Y-148765060D01*
X21883012Y-148775000D01*
X21131116Y-148775000D01*
X21136506Y-148802100D01*
X21136507Y-148802103D01*
X21208119Y-148974991D01*
X21208124Y-148975000D01*
X21312086Y-149130589D01*
X21312089Y-149130593D01*
X21444406Y-149262910D01*
X21444410Y-149262913D01*
X21599999Y-149366875D01*
X21600008Y-149366880D01*
X21772894Y-149438491D01*
X21772902Y-149438493D01*
X21956428Y-149474999D01*
X21956431Y-149475000D01*
X22200000Y-149475000D01*
X22200000Y-148825000D01*
X22700000Y-148825000D01*
X22700000Y-149475000D01*
X22943569Y-149475000D01*
X22943571Y-149474999D01*
X23127097Y-149438493D01*
X23127105Y-149438491D01*
X23299991Y-149366880D01*
X23300000Y-149366875D01*
X23455589Y-149262913D01*
X23455593Y-149262910D01*
X23587910Y-149130593D01*
X23587913Y-149130589D01*
X23691875Y-148975000D01*
X23691880Y-148974991D01*
X23763492Y-148802103D01*
X23763493Y-148802100D01*
X23768884Y-148775000D01*
X23016988Y-148775000D01*
X23034205Y-148765060D01*
X23090060Y-148709205D01*
X23129556Y-148640796D01*
X23150000Y-148564496D01*
X23150000Y-148485504D01*
X23129556Y-148409204D01*
X23090060Y-148340795D01*
X23034205Y-148284940D01*
X23016988Y-148275000D01*
X23768884Y-148275000D01*
X23768884Y-148274999D01*
X23763493Y-148247899D01*
X23763492Y-148247896D01*
X23691880Y-148075008D01*
X23691875Y-148074999D01*
X23587913Y-147919410D01*
X23587910Y-147919406D01*
X23455592Y-147787088D01*
X23426973Y-147767966D01*
X23382167Y-147714354D01*
X23373460Y-147645029D01*
X23403614Y-147582001D01*
X23448410Y-147550302D01*
X23455387Y-147547412D01*
X23598859Y-147487984D01*
X23831641Y-147353587D01*
X24044890Y-147189956D01*
X24234956Y-146999890D01*
X24398587Y-146786641D01*
X24532984Y-146553859D01*
X24537268Y-146543518D01*
X24582424Y-146434500D01*
X24635847Y-146305526D01*
X24692602Y-146093710D01*
X24728965Y-146034055D01*
X24791811Y-146003525D01*
X24861187Y-146011819D01*
G37*
%TD.AperFunction*%
%TA.AperFunction,Conductor*%
G36*
X38226231Y-144770185D02*
G01*
X38246873Y-144786819D01*
X38738102Y-145278048D01*
X38771587Y-145339371D01*
X38769498Y-145400323D01*
X38722401Y-145562432D01*
X38719500Y-145599298D01*
X38719500Y-145663786D01*
X38699815Y-145730825D01*
X38647011Y-145776580D01*
X38577853Y-145786524D01*
X38571309Y-145785403D01*
X38493873Y-145770000D01*
X38346128Y-145770000D01*
X38201240Y-145798820D01*
X38201228Y-145798823D01*
X38095974Y-145842420D01*
X38095974Y-145842421D01*
X38596777Y-146343223D01*
X38759665Y-146506111D01*
X38793150Y-146567434D01*
X38788166Y-146637126D01*
X38778719Y-146656908D01*
X38768256Y-146674601D01*
X38768254Y-146674606D01*
X38722402Y-146832426D01*
X38722401Y-146832432D01*
X38719500Y-146869298D01*
X38719500Y-146873692D01*
X38699815Y-146940731D01*
X38647011Y-146986486D01*
X38577853Y-146996430D01*
X38514297Y-146967405D01*
X38507819Y-146961373D01*
X38420000Y-146873554D01*
X38173554Y-147120000D01*
X38419999Y-147366445D01*
X38512975Y-147273469D01*
X38574298Y-147239984D01*
X38643990Y-147244968D01*
X38699924Y-147286839D01*
X38719554Y-147331798D01*
X38720634Y-147331485D01*
X38768254Y-147495393D01*
X38768255Y-147495396D01*
X38804730Y-147557072D01*
X38821998Y-147620193D01*
X38821998Y-147819806D01*
X38815759Y-147841051D01*
X38814180Y-147863140D01*
X38804731Y-147882926D01*
X38768254Y-147944605D01*
X38768254Y-147944606D01*
X38720634Y-148108515D01*
X38719143Y-148108082D01*
X38691217Y-148163553D01*
X38631047Y-148199067D01*
X38561227Y-148196413D01*
X38512976Y-148166530D01*
X38420000Y-148073554D01*
X38173554Y-148320000D01*
X38420000Y-148566446D01*
X38507819Y-148478627D01*
X38569142Y-148445142D01*
X38638834Y-148450126D01*
X38694767Y-148491998D01*
X38719184Y-148557462D01*
X38719500Y-148566308D01*
X38719500Y-148570701D01*
X38722401Y-148607567D01*
X38722402Y-148607573D01*
X38768254Y-148765393D01*
X38768254Y-148765394D01*
X38768255Y-148765396D01*
X38768256Y-148765398D01*
X38777805Y-148781545D01*
X38778717Y-148783086D01*
X38785719Y-148810688D01*
X38795668Y-148837360D01*
X38794199Y-148844110D01*
X38795899Y-148850810D01*
X38786867Y-148877813D01*
X38780816Y-148905633D01*
X38774937Y-148913485D01*
X38773738Y-148917072D01*
X38759665Y-148933887D01*
X38684457Y-149009095D01*
X38623134Y-149042580D01*
X38553442Y-149037596D01*
X38509095Y-149009095D01*
X38490710Y-148990710D01*
X38504776Y-148976645D01*
X38520000Y-148939891D01*
X38520000Y-148900109D01*
X38504776Y-148863355D01*
X38476645Y-148835224D01*
X38439891Y-148820000D01*
X38400109Y-148820000D01*
X38363355Y-148835224D01*
X38335224Y-148863355D01*
X38320000Y-148900109D01*
X38320000Y-148939891D01*
X38335224Y-148976645D01*
X38349289Y-148990710D01*
X38330904Y-149009096D01*
X38269581Y-149042581D01*
X38199889Y-149037597D01*
X38155542Y-149009096D01*
X37742068Y-148595622D01*
X37697929Y-148595622D01*
X37284457Y-149009095D01*
X37223134Y-149042580D01*
X37153442Y-149037596D01*
X37109095Y-149009095D01*
X37090710Y-148990710D01*
X37104776Y-148976645D01*
X37120000Y-148939891D01*
X37120000Y-148900109D01*
X37104776Y-148863355D01*
X37076645Y-148835224D01*
X37039891Y-148820000D01*
X37000109Y-148820000D01*
X36963355Y-148835224D01*
X36935224Y-148863355D01*
X36920000Y-148900109D01*
X36920000Y-148939891D01*
X36935224Y-148976645D01*
X36949289Y-148990710D01*
X36930904Y-149009096D01*
X36869581Y-149042581D01*
X36799889Y-149037597D01*
X36755542Y-149009096D01*
X36308650Y-148562204D01*
X36275165Y-148500881D01*
X36280149Y-148431189D01*
X36285469Y-148418974D01*
X36335061Y-148320000D01*
X36773554Y-148320000D01*
X37020000Y-148566446D01*
X37266446Y-148320000D01*
X37020000Y-148073554D01*
X36773554Y-148320000D01*
X36335061Y-148320000D01*
X36348557Y-148293065D01*
X36308650Y-148253158D01*
X36275165Y-148191835D01*
X36280149Y-148122143D01*
X36308650Y-148077796D01*
X36666446Y-147720000D01*
X36654320Y-147707874D01*
X36650080Y-147700109D01*
X36920000Y-147700109D01*
X36920000Y-147739891D01*
X36935224Y-147776645D01*
X36963355Y-147804776D01*
X37000109Y-147820000D01*
X37039891Y-147820000D01*
X37076645Y-147804776D01*
X37104776Y-147776645D01*
X37120000Y-147739891D01*
X37120000Y-147719999D01*
X37373554Y-147719999D01*
X37373554Y-147720001D01*
X37697929Y-148044376D01*
X37742069Y-148044376D01*
X38066446Y-147720000D01*
X38046555Y-147700109D01*
X38320000Y-147700109D01*
X38320000Y-147739891D01*
X38335224Y-147776645D01*
X38363355Y-147804776D01*
X38400109Y-147820000D01*
X38439891Y-147820000D01*
X38476645Y-147804776D01*
X38504776Y-147776645D01*
X38520000Y-147739891D01*
X38520000Y-147700109D01*
X38504776Y-147663355D01*
X38476645Y-147635224D01*
X38439891Y-147620000D01*
X38400109Y-147620000D01*
X38363355Y-147635224D01*
X38335224Y-147663355D01*
X38320000Y-147700109D01*
X38046555Y-147700109D01*
X37742068Y-147395622D01*
X37697930Y-147395622D01*
X37373554Y-147719999D01*
X37120000Y-147719999D01*
X37120000Y-147700109D01*
X37104776Y-147663355D01*
X37076645Y-147635224D01*
X37039891Y-147620000D01*
X37000109Y-147620000D01*
X36963355Y-147635224D01*
X36935224Y-147663355D01*
X36920000Y-147700109D01*
X36650080Y-147700109D01*
X36620835Y-147646551D01*
X36625819Y-147576859D01*
X36635270Y-147557072D01*
X36671744Y-147495398D01*
X36700732Y-147395622D01*
X36719366Y-147331485D01*
X36720860Y-147331919D01*
X36748762Y-147276467D01*
X36808925Y-147240939D01*
X36878744Y-147243577D01*
X36927023Y-147273469D01*
X37020000Y-147366446D01*
X37266446Y-147120000D01*
X37020000Y-146873554D01*
X36932181Y-146961373D01*
X36870858Y-146994858D01*
X36801166Y-146989874D01*
X36745233Y-146948002D01*
X36720816Y-146882538D01*
X36720500Y-146873692D01*
X36720500Y-146869313D01*
X36720499Y-146869298D01*
X36717598Y-146832432D01*
X36717597Y-146832426D01*
X36674604Y-146684446D01*
X36671744Y-146674602D01*
X36661282Y-146656912D01*
X36654279Y-146629314D01*
X36644330Y-146602637D01*
X36645798Y-146595887D01*
X36644099Y-146589191D01*
X36653129Y-146562186D01*
X36659182Y-146534364D01*
X36665059Y-146526513D01*
X36666258Y-146522928D01*
X36680333Y-146506110D01*
X36686334Y-146500109D01*
X36920000Y-146500109D01*
X36920000Y-146539891D01*
X36935224Y-146576645D01*
X36963355Y-146604776D01*
X37000109Y-146620000D01*
X37039891Y-146620000D01*
X37076645Y-146604776D01*
X37104776Y-146576645D01*
X37120000Y-146539891D01*
X37120000Y-146519999D01*
X37373554Y-146519999D01*
X37373554Y-146520001D01*
X37697929Y-146844376D01*
X37742069Y-146844376D01*
X38066446Y-146520000D01*
X38046555Y-146500109D01*
X38320000Y-146500109D01*
X38320000Y-146539891D01*
X38335224Y-146576645D01*
X38363355Y-146604776D01*
X38400109Y-146620000D01*
X38439891Y-146620000D01*
X38476645Y-146604776D01*
X38504776Y-146576645D01*
X38520000Y-146539891D01*
X38520000Y-146500109D01*
X38504776Y-146463355D01*
X38476645Y-146435224D01*
X38439891Y-146420000D01*
X38400109Y-146420000D01*
X38363355Y-146435224D01*
X38335224Y-146463355D01*
X38320000Y-146500109D01*
X38046555Y-146500109D01*
X37742068Y-146195622D01*
X37697930Y-146195622D01*
X37373554Y-146519999D01*
X37120000Y-146519999D01*
X37120000Y-146500109D01*
X37104776Y-146463355D01*
X37076645Y-146435224D01*
X37039891Y-146420000D01*
X37000109Y-146420000D01*
X36963355Y-146435224D01*
X36935224Y-146463355D01*
X36920000Y-146500109D01*
X36686334Y-146500109D01*
X36805489Y-146380956D01*
X36805491Y-146380954D01*
X36843223Y-146343223D01*
X37344024Y-145842421D01*
X37238767Y-145798822D01*
X37238759Y-145798820D01*
X37093872Y-145770000D01*
X36946131Y-145770000D01*
X36868190Y-145785503D01*
X36798599Y-145779275D01*
X36743422Y-145736411D01*
X36720178Y-145670521D01*
X36720000Y-145663885D01*
X36720000Y-145599365D01*
X36719999Y-145599350D01*
X36717100Y-145562510D01*
X36717099Y-145562504D01*
X36671283Y-145404806D01*
X36671282Y-145404803D01*
X36587685Y-145263447D01*
X36587678Y-145263438D01*
X36471561Y-145147321D01*
X36471552Y-145147314D01*
X36330196Y-145063717D01*
X36330193Y-145063716D01*
X36172495Y-145017900D01*
X36172489Y-145017899D01*
X36135649Y-145015000D01*
X35495000Y-145015000D01*
X35495000Y-145691000D01*
X35475315Y-145758039D01*
X35422511Y-145803794D01*
X35371000Y-145815000D01*
X35245000Y-145815000D01*
X35245000Y-145941000D01*
X35225315Y-146008039D01*
X35172511Y-146053794D01*
X35121000Y-146065000D01*
X33772705Y-146065000D01*
X33772704Y-146065001D01*
X33772899Y-146067486D01*
X33818718Y-146225198D01*
X33831836Y-146247379D01*
X33849019Y-146315103D01*
X33826859Y-146381366D01*
X33772393Y-146425129D01*
X33725104Y-146434500D01*
X33329000Y-146434500D01*
X33261961Y-146414815D01*
X33216206Y-146362011D01*
X33205000Y-146310500D01*
X33205000Y-146300000D01*
X32429000Y-146300000D01*
X32361961Y-146280315D01*
X32316206Y-146227511D01*
X32305000Y-146176000D01*
X32305000Y-146050000D01*
X32179000Y-146050000D01*
X32111961Y-146030315D01*
X32066206Y-145977511D01*
X32055000Y-145926000D01*
X32055000Y-145800000D01*
X32555000Y-145800000D01*
X33204999Y-145800000D01*
X33204999Y-145718417D01*
X33198591Y-145647897D01*
X33198591Y-145647894D01*
X33198076Y-145646241D01*
X33198075Y-145646240D01*
X33198074Y-145646235D01*
X33172759Y-145564998D01*
X33772704Y-145564998D01*
X33772705Y-145565000D01*
X34995000Y-145565000D01*
X34995000Y-145015000D01*
X34354350Y-145015000D01*
X34317510Y-145017899D01*
X34317504Y-145017900D01*
X34159806Y-145063716D01*
X34159803Y-145063717D01*
X34018447Y-145147314D01*
X34018438Y-145147321D01*
X33902321Y-145263438D01*
X33902314Y-145263447D01*
X33818718Y-145404801D01*
X33772899Y-145562513D01*
X33772704Y-145564998D01*
X33172759Y-145564998D01*
X33148018Y-145485603D01*
X33060072Y-145340122D01*
X32939877Y-145219927D01*
X32794395Y-145131980D01*
X32794396Y-145131980D01*
X32632105Y-145081409D01*
X32632106Y-145081409D01*
X32561572Y-145075000D01*
X32555000Y-145075000D01*
X32555000Y-145800000D01*
X32055000Y-145800000D01*
X32055000Y-145075000D01*
X32054999Y-145074999D01*
X32048436Y-145075000D01*
X32048417Y-145075001D01*
X31977897Y-145081408D01*
X31977892Y-145081409D01*
X31815603Y-145131981D01*
X31670122Y-145219927D01*
X31670121Y-145219928D01*
X31568035Y-145322015D01*
X31506712Y-145355500D01*
X31437020Y-145350516D01*
X31392673Y-145322015D01*
X31290188Y-145219530D01*
X31277667Y-145211961D01*
X31144606Y-145131522D01*
X30982196Y-145080914D01*
X30982194Y-145080913D01*
X30982192Y-145080913D01*
X30932778Y-145076423D01*
X30911616Y-145074500D01*
X30398384Y-145074500D01*
X30379145Y-145076248D01*
X30327807Y-145080913D01*
X30165393Y-145131522D01*
X30019811Y-145219530D01*
X29899530Y-145339811D01*
X29811522Y-145485393D01*
X29760913Y-145647807D01*
X29756146Y-145700272D01*
X29754500Y-145718384D01*
X29754500Y-146381616D01*
X29756423Y-146402778D01*
X29760913Y-146452192D01*
X29760913Y-146452194D01*
X29760914Y-146452196D01*
X29811522Y-146614606D01*
X29847793Y-146674606D01*
X29899530Y-146760188D01*
X30019811Y-146880469D01*
X30019813Y-146880470D01*
X30019815Y-146880472D01*
X30165394Y-146968478D01*
X30327804Y-147019086D01*
X30398384Y-147025500D01*
X30659192Y-147025500D01*
X30726231Y-147045185D01*
X30746873Y-147061819D01*
X31275325Y-147590272D01*
X31275328Y-147590275D01*
X31275331Y-147590277D01*
X31345056Y-147636865D01*
X31381873Y-147661465D01*
X31500256Y-147710501D01*
X31500260Y-147710501D01*
X31500261Y-147710502D01*
X31625928Y-147735500D01*
X31625931Y-147735500D01*
X33725104Y-147735500D01*
X33792143Y-147755185D01*
X33837898Y-147807989D01*
X33847842Y-147877147D01*
X33831836Y-147922621D01*
X33818718Y-147944801D01*
X33772899Y-148102513D01*
X33772704Y-148104998D01*
X33772705Y-148105000D01*
X35121000Y-148105000D01*
X35188039Y-148124685D01*
X35233794Y-148177489D01*
X35245000Y-148229000D01*
X35245000Y-148355000D01*
X35371000Y-148355000D01*
X35438039Y-148374685D01*
X35483794Y-148427489D01*
X35495000Y-148479000D01*
X35495000Y-150448332D01*
X35500419Y-150458257D01*
X35495435Y-150527949D01*
X35466934Y-150572296D01*
X34974805Y-151064425D01*
X34934580Y-151091304D01*
X34916696Y-151098712D01*
X34810148Y-151169904D01*
X34197068Y-151782984D01*
X34135745Y-151816469D01*
X34133579Y-151816920D01*
X34066508Y-151830261D01*
X34066498Y-151830264D01*
X33920827Y-151890602D01*
X33920814Y-151890609D01*
X33789711Y-151978210D01*
X33789707Y-151978213D01*
X33678213Y-152089707D01*
X33678210Y-152089711D01*
X33590609Y-152220814D01*
X33590602Y-152220827D01*
X33530264Y-152366498D01*
X33530261Y-152366510D01*
X33499500Y-152521153D01*
X33499500Y-152678846D01*
X33530261Y-152833489D01*
X33530264Y-152833501D01*
X33590602Y-152979172D01*
X33590609Y-152979185D01*
X33678210Y-153110288D01*
X33678213Y-153110292D01*
X33789707Y-153221786D01*
X33789711Y-153221789D01*
X33920814Y-153309390D01*
X33920827Y-153309397D01*
X34066498Y-153369735D01*
X34066503Y-153369737D01*
X34221153Y-153400499D01*
X34221156Y-153400500D01*
X34221158Y-153400500D01*
X34378843Y-153400500D01*
X34411336Y-153394036D01*
X34485309Y-153379322D01*
X34554899Y-153385549D01*
X34610077Y-153428411D01*
X34633322Y-153494301D01*
X34633500Y-153500939D01*
X34633500Y-153763071D01*
X34650713Y-153849602D01*
X34650713Y-153849603D01*
X34658497Y-153888736D01*
X34658499Y-153888744D01*
X34690707Y-153966502D01*
X34707535Y-154007127D01*
X34759608Y-154085061D01*
X34778726Y-154113673D01*
X34778727Y-154113674D01*
X35098181Y-154433127D01*
X35131666Y-154494450D01*
X35134500Y-154520808D01*
X35134500Y-154781613D01*
X35140913Y-154852192D01*
X35140913Y-154852194D01*
X35140914Y-154852196D01*
X35191522Y-155014606D01*
X35246335Y-155105278D01*
X35279530Y-155160188D01*
X35399811Y-155280469D01*
X35399813Y-155280470D01*
X35399815Y-155280472D01*
X35545394Y-155368478D01*
X35631347Y-155395261D01*
X35689493Y-155433997D01*
X35717468Y-155498022D01*
X35716073Y-155537837D01*
X35699500Y-155621153D01*
X35699500Y-155778846D01*
X35730261Y-155933489D01*
X35730264Y-155933501D01*
X35761451Y-156008794D01*
X35768920Y-156078264D01*
X35737644Y-156140743D01*
X35683780Y-156174631D01*
X35565397Y-156211520D01*
X35419811Y-156299530D01*
X35299531Y-156419810D01*
X35294906Y-156425715D01*
X35293882Y-156424912D01*
X35248096Y-156466840D01*
X35193511Y-156479500D01*
X34939981Y-156479500D01*
X34872942Y-156459815D01*
X34827187Y-156407011D01*
X34816623Y-156368101D01*
X34814999Y-156352203D01*
X34814998Y-156352200D01*
X34759814Y-156185666D01*
X34667712Y-156036344D01*
X34543656Y-155912288D01*
X34409480Y-155829528D01*
X34394336Y-155820187D01*
X34394331Y-155820185D01*
X34371064Y-155812475D01*
X34227797Y-155765001D01*
X34227795Y-155765000D01*
X34125010Y-155754500D01*
X33274998Y-155754500D01*
X33274980Y-155754501D01*
X33172203Y-155765000D01*
X33172200Y-155765001D01*
X33005668Y-155820185D01*
X33005663Y-155820187D01*
X32856342Y-155912289D01*
X32732289Y-156036342D01*
X32640187Y-156185663D01*
X32640185Y-156185668D01*
X32631619Y-156211520D01*
X32585001Y-156352203D01*
X32585001Y-156352204D01*
X32585000Y-156352204D01*
X32574500Y-156454983D01*
X32574500Y-157805001D01*
X32574501Y-157805018D01*
X32585000Y-157907796D01*
X32585001Y-157907799D01*
X32640185Y-158074331D01*
X32640187Y-158074336D01*
X32659272Y-158105277D01*
X32732288Y-158223656D01*
X32856344Y-158347712D01*
X33005666Y-158439814D01*
X33172203Y-158494999D01*
X33274991Y-158505500D01*
X34125008Y-158505499D01*
X34125016Y-158505498D01*
X34125019Y-158505498D01*
X34181302Y-158499748D01*
X34227797Y-158494999D01*
X34394334Y-158439814D01*
X34543656Y-158347712D01*
X34667712Y-158223656D01*
X34759814Y-158074334D01*
X34814999Y-157907797D01*
X34816623Y-157891898D01*
X34843018Y-157827207D01*
X34900198Y-157787055D01*
X34939981Y-157780500D01*
X35193511Y-157780500D01*
X35260550Y-157800185D01*
X35294237Y-157834808D01*
X35294906Y-157834285D01*
X35299531Y-157840189D01*
X35419811Y-157960469D01*
X35419813Y-157960470D01*
X35419815Y-157960472D01*
X35565394Y-158048478D01*
X35727804Y-158099086D01*
X35798384Y-158105500D01*
X35798387Y-158105500D01*
X36311613Y-158105500D01*
X36311616Y-158105500D01*
X36382196Y-158099086D01*
X36544606Y-158048478D01*
X36690185Y-157960472D01*
X36737747Y-157912910D01*
X36792319Y-157858339D01*
X36853642Y-157824854D01*
X36923334Y-157829838D01*
X36967681Y-157858339D01*
X37069811Y-157960469D01*
X37069813Y-157960470D01*
X37069815Y-157960472D01*
X37215394Y-158048478D01*
X37377804Y-158099086D01*
X37448384Y-158105500D01*
X37448387Y-158105500D01*
X37961613Y-158105500D01*
X37961616Y-158105500D01*
X38032196Y-158099086D01*
X38194606Y-158048478D01*
X38340185Y-157960472D01*
X38340186Y-157960470D01*
X38346604Y-157956591D01*
X38347654Y-157958329D01*
X38402935Y-157936313D01*
X38471518Y-157949660D01*
X38521998Y-157997966D01*
X38538500Y-158059773D01*
X38538500Y-158765192D01*
X38518815Y-158832231D01*
X38502181Y-158852873D01*
X37796873Y-159558181D01*
X37735550Y-159591666D01*
X37709192Y-159594500D01*
X37448384Y-159594500D01*
X37433584Y-159595845D01*
X37377807Y-159600913D01*
X37215393Y-159651522D01*
X37069811Y-159739530D01*
X37069810Y-159739531D01*
X36967681Y-159841661D01*
X36906358Y-159875146D01*
X36836666Y-159870162D01*
X36792319Y-159841661D01*
X36690188Y-159739530D01*
X36659165Y-159720776D01*
X36544606Y-159651522D01*
X36382196Y-159600914D01*
X36382194Y-159600913D01*
X36382192Y-159600913D01*
X36326416Y-159595845D01*
X36311616Y-159594500D01*
X35798384Y-159594500D01*
X35783584Y-159595845D01*
X35727807Y-159600913D01*
X35565393Y-159651522D01*
X35419811Y-159739530D01*
X35299531Y-159859810D01*
X35294906Y-159865715D01*
X35293882Y-159864912D01*
X35291692Y-159866917D01*
X35287224Y-159876703D01*
X35266374Y-159890102D01*
X35248096Y-159906840D01*
X35235943Y-159909658D01*
X35228446Y-159914477D01*
X35193511Y-159919500D01*
X34959981Y-159919500D01*
X34892942Y-159899815D01*
X34847187Y-159847011D01*
X34836623Y-159808101D01*
X34834999Y-159792203D01*
X34834998Y-159792200D01*
X34815927Y-159734649D01*
X34779814Y-159625666D01*
X34687712Y-159476344D01*
X34563656Y-159352288D01*
X34455375Y-159285500D01*
X34414336Y-159260187D01*
X34414331Y-159260185D01*
X34377185Y-159247876D01*
X34247797Y-159205001D01*
X34247795Y-159205000D01*
X34145010Y-159194500D01*
X33294998Y-159194500D01*
X33294980Y-159194501D01*
X33192203Y-159205000D01*
X33192200Y-159205001D01*
X33025668Y-159260185D01*
X33025663Y-159260187D01*
X32876342Y-159352289D01*
X32752289Y-159476342D01*
X32660187Y-159625663D01*
X32660186Y-159625666D01*
X32605001Y-159792203D01*
X32605001Y-159792204D01*
X32605000Y-159792204D01*
X32594500Y-159894983D01*
X32594500Y-161245001D01*
X32594501Y-161245018D01*
X32605000Y-161347796D01*
X32605001Y-161347799D01*
X32660185Y-161514331D01*
X32660187Y-161514336D01*
X32660529Y-161514890D01*
X32752288Y-161663656D01*
X32876344Y-161787712D01*
X32928629Y-161819962D01*
X32975353Y-161871909D01*
X32986576Y-161940872D01*
X32958732Y-162004954D01*
X32900664Y-162043810D01*
X32863532Y-162049500D01*
X31776468Y-162049500D01*
X31709429Y-162029815D01*
X31663674Y-161977011D01*
X31653730Y-161907853D01*
X31682755Y-161844297D01*
X31711369Y-161819962D01*
X31763656Y-161787712D01*
X31887712Y-161663656D01*
X31979814Y-161514334D01*
X32034999Y-161347797D01*
X32045500Y-161245009D01*
X32045499Y-159894992D01*
X32044999Y-159890102D01*
X32034999Y-159792203D01*
X32034998Y-159792200D01*
X32015927Y-159734649D01*
X31979814Y-159625666D01*
X31887712Y-159476344D01*
X31763656Y-159352288D01*
X31655375Y-159285500D01*
X31614336Y-159260187D01*
X31614331Y-159260185D01*
X31577185Y-159247876D01*
X31447797Y-159205001D01*
X31447795Y-159205000D01*
X31345010Y-159194500D01*
X30494998Y-159194500D01*
X30494980Y-159194501D01*
X30392203Y-159205000D01*
X30392200Y-159205001D01*
X30225668Y-159260185D01*
X30225663Y-159260187D01*
X30076342Y-159352289D01*
X30061970Y-159366662D01*
X30000647Y-159400147D01*
X29930955Y-159395163D01*
X29886608Y-159366662D01*
X29686819Y-159166873D01*
X29653334Y-159105550D01*
X29650500Y-159079192D01*
X29650500Y-158204042D01*
X29670185Y-158137003D01*
X29722989Y-158091248D01*
X29792147Y-158081304D01*
X29855703Y-158110329D01*
X29880039Y-158138946D01*
X29926426Y-158214153D01*
X29932288Y-158223656D01*
X30056344Y-158347712D01*
X30205666Y-158439814D01*
X30372203Y-158494999D01*
X30474991Y-158505500D01*
X31325008Y-158505499D01*
X31325016Y-158505498D01*
X31325019Y-158505498D01*
X31381302Y-158499748D01*
X31427797Y-158494999D01*
X31594334Y-158439814D01*
X31743656Y-158347712D01*
X31867712Y-158223656D01*
X31959814Y-158074334D01*
X32014999Y-157907797D01*
X32025500Y-157805009D01*
X32025499Y-156454992D01*
X32019989Y-156401057D01*
X32014999Y-156352203D01*
X32014998Y-156352200D01*
X31959814Y-156185666D01*
X31867712Y-156036344D01*
X31743656Y-155912288D01*
X31609480Y-155829528D01*
X31594336Y-155820187D01*
X31594331Y-155820185D01*
X31571064Y-155812475D01*
X31427797Y-155765001D01*
X31427795Y-155765000D01*
X31325010Y-155754500D01*
X30474998Y-155754500D01*
X30474980Y-155754501D01*
X30372203Y-155765000D01*
X30372200Y-155765001D01*
X30205668Y-155820185D01*
X30205663Y-155820187D01*
X30056342Y-155912289D01*
X29941970Y-156026662D01*
X29880647Y-156060147D01*
X29810955Y-156055163D01*
X29766608Y-156026662D01*
X29202127Y-155462181D01*
X29168642Y-155400858D01*
X29173626Y-155331166D01*
X29215498Y-155275233D01*
X29280962Y-155250816D01*
X29289808Y-155250500D01*
X29859071Y-155250500D01*
X29943615Y-155233682D01*
X29984744Y-155225501D01*
X30103127Y-155176465D01*
X30103132Y-155176461D01*
X30103135Y-155176460D01*
X30117919Y-155166582D01*
X30117921Y-155166581D01*
X30193760Y-155115907D01*
X30209669Y-155105277D01*
X30553127Y-154761819D01*
X30614450Y-154728334D01*
X30640808Y-154725500D01*
X30901613Y-154725500D01*
X30901616Y-154725500D01*
X30972196Y-154719086D01*
X31134606Y-154668478D01*
X31280185Y-154580472D01*
X31382673Y-154477983D01*
X31443994Y-154444499D01*
X31513685Y-154449483D01*
X31558034Y-154477984D01*
X31660122Y-154580072D01*
X31805604Y-154668019D01*
X31805603Y-154668019D01*
X31967894Y-154718590D01*
X31967893Y-154718590D01*
X32038408Y-154724998D01*
X32038426Y-154724999D01*
X32545000Y-154724999D01*
X32551581Y-154724999D01*
X32622102Y-154718591D01*
X32622107Y-154718590D01*
X32784396Y-154668018D01*
X32929877Y-154580072D01*
X33050072Y-154459877D01*
X33138019Y-154314395D01*
X33188590Y-154152106D01*
X33195000Y-154081572D01*
X33195000Y-154000000D01*
X32545000Y-154000000D01*
X32545000Y-154724999D01*
X32038426Y-154724999D01*
X32044999Y-154724998D01*
X32045000Y-154724998D01*
X32045000Y-152873119D01*
X32037834Y-152859996D01*
X32035000Y-152833638D01*
X32035000Y-152666880D01*
X32535000Y-152666880D01*
X32542166Y-152680004D01*
X32545000Y-152706362D01*
X32545000Y-153500000D01*
X33194999Y-153500000D01*
X33194999Y-153418417D01*
X33188591Y-153347897D01*
X33188590Y-153347892D01*
X33138018Y-153185603D01*
X33050072Y-153040122D01*
X32929877Y-152919927D01*
X32852406Y-152873094D01*
X32805218Y-152821566D01*
X32793380Y-152752706D01*
X32820649Y-152688378D01*
X32852406Y-152660860D01*
X32919877Y-152620072D01*
X33040072Y-152499877D01*
X33128019Y-152354395D01*
X33178590Y-152192106D01*
X33185000Y-152121572D01*
X33185000Y-152040000D01*
X32535000Y-152040000D01*
X32535000Y-152666880D01*
X32035000Y-152666880D01*
X32035000Y-150825000D01*
X32031319Y-150821319D01*
X31997834Y-150759996D01*
X31995000Y-150733638D01*
X31995000Y-150685000D01*
X32495000Y-150685000D01*
X32498681Y-150688681D01*
X32532166Y-150750004D01*
X32535000Y-150776362D01*
X32535000Y-151540000D01*
X33184999Y-151540000D01*
X33184999Y-151458417D01*
X33178591Y-151387897D01*
X33178590Y-151387892D01*
X33128018Y-151225603D01*
X33040072Y-151080122D01*
X32919877Y-150959927D01*
X32774397Y-150871981D01*
X32770831Y-150870870D01*
X32768546Y-150869347D01*
X32767558Y-150868903D01*
X32767631Y-150868738D01*
X32712685Y-150832129D01*
X32684714Y-150768102D01*
X32695799Y-150699118D01*
X32742421Y-150647077D01*
X32768729Y-150634778D01*
X32778484Y-150631545D01*
X32778492Y-150631542D01*
X32922728Y-150542575D01*
X32922732Y-150542572D01*
X33042572Y-150422732D01*
X33042575Y-150422728D01*
X33131542Y-150278492D01*
X33131547Y-150278481D01*
X33184855Y-150117606D01*
X33194999Y-150018322D01*
X33195000Y-150018309D01*
X33195000Y-149970000D01*
X32495000Y-149970000D01*
X32495000Y-150685000D01*
X31995000Y-150685000D01*
X31995000Y-149875001D01*
X33772704Y-149875001D01*
X33772899Y-149877486D01*
X33818718Y-150035198D01*
X33902314Y-150176552D01*
X33902321Y-150176561D01*
X34018438Y-150292678D01*
X34018447Y-150292685D01*
X34159803Y-150376282D01*
X34159806Y-150376283D01*
X34317504Y-150422099D01*
X34317510Y-150422100D01*
X34354350Y-150424999D01*
X34354366Y-150425000D01*
X34995000Y-150425000D01*
X34995000Y-149875000D01*
X33772705Y-149875000D01*
X33772704Y-149875001D01*
X31995000Y-149875001D01*
X31995000Y-149470000D01*
X32495000Y-149470000D01*
X33194999Y-149470000D01*
X33194999Y-149421692D01*
X33194998Y-149421677D01*
X33184855Y-149322392D01*
X33131547Y-149161518D01*
X33131542Y-149161507D01*
X33042575Y-149017271D01*
X33042572Y-149017267D01*
X32922732Y-148897427D01*
X32922728Y-148897424D01*
X32778492Y-148808457D01*
X32778481Y-148808452D01*
X32617606Y-148755144D01*
X32518322Y-148745000D01*
X32495000Y-148745000D01*
X32495000Y-149470000D01*
X31995000Y-149470000D01*
X31995000Y-148744999D01*
X31971693Y-148745000D01*
X31971674Y-148745001D01*
X31872392Y-148755144D01*
X31711518Y-148808452D01*
X31711507Y-148808457D01*
X31567271Y-148897424D01*
X31567265Y-148897428D01*
X31558031Y-148906663D01*
X31496707Y-148940146D01*
X31427015Y-148935159D01*
X31382672Y-148906660D01*
X31373044Y-148897032D01*
X31373040Y-148897029D01*
X31228705Y-148808001D01*
X31228699Y-148807998D01*
X31228697Y-148807997D01*
X31153520Y-148783086D01*
X31067709Y-148754651D01*
X30968352Y-148744500D01*
X30968345Y-148744500D01*
X30915808Y-148744500D01*
X30886367Y-148735855D01*
X30856381Y-148729332D01*
X30851365Y-148725577D01*
X30848769Y-148724815D01*
X30828127Y-148708181D01*
X30724947Y-148605001D01*
X33772704Y-148605001D01*
X33772899Y-148607486D01*
X33818718Y-148765198D01*
X33902314Y-148906552D01*
X33907100Y-148912722D01*
X33904753Y-148914542D01*
X33931564Y-148963642D01*
X33926580Y-149033334D01*
X33905541Y-149066069D01*
X33907100Y-149067278D01*
X33902314Y-149073447D01*
X33818718Y-149214801D01*
X33772899Y-149372513D01*
X33772704Y-149374998D01*
X33772705Y-149375000D01*
X34995000Y-149375000D01*
X34995000Y-148605000D01*
X33772705Y-148605000D01*
X33772704Y-148605001D01*
X30724947Y-148605001D01*
X28655213Y-146535267D01*
X28621728Y-146473944D01*
X28625187Y-146408585D01*
X28653190Y-146324080D01*
X28663625Y-146221943D01*
X28663624Y-144978058D01*
X28654332Y-144887100D01*
X28667101Y-144818410D01*
X28714982Y-144767525D01*
X28777690Y-144750500D01*
X38159192Y-144750500D01*
X38226231Y-144770185D01*
G37*
%TD.AperFunction*%
%TA.AperFunction,Conductor*%
G36*
X46625539Y-156009685D02*
G01*
X46671294Y-156062489D01*
X46682500Y-156114000D01*
X46682500Y-156964999D01*
X46689081Y-156964999D01*
X46759602Y-156958591D01*
X46759607Y-156958590D01*
X46921896Y-156908018D01*
X47067377Y-156820072D01*
X47187572Y-156699877D01*
X47275519Y-156554395D01*
X47326090Y-156392105D01*
X47330958Y-156338537D01*
X47356628Y-156273553D01*
X47413355Y-156232764D01*
X47483130Y-156229119D01*
X47542130Y-156262076D01*
X48388181Y-157108127D01*
X48421666Y-157169450D01*
X48424500Y-157195808D01*
X48424500Y-157599593D01*
X48404815Y-157666632D01*
X48352011Y-157712387D01*
X48335098Y-157718669D01*
X48302102Y-157728255D01*
X48160637Y-157811917D01*
X48160629Y-157811923D01*
X48044423Y-157928129D01*
X48044417Y-157928137D01*
X47960755Y-158069603D01*
X47960754Y-158069606D01*
X47914902Y-158227426D01*
X47914901Y-158227432D01*
X47912000Y-158264298D01*
X47912000Y-158695701D01*
X47914901Y-158732567D01*
X47914902Y-158732573D01*
X47960754Y-158890393D01*
X47960754Y-158890394D01*
X47960755Y-158890396D01*
X47960756Y-158890398D01*
X47961633Y-158891881D01*
X47961966Y-158893195D01*
X47963853Y-158897554D01*
X47963149Y-158897858D01*
X47978815Y-158959604D01*
X47963361Y-159012233D01*
X47963853Y-159012446D01*
X47962130Y-159016426D01*
X47961633Y-159018118D01*
X47961006Y-159019177D01*
X47960754Y-159019605D01*
X47960754Y-159019606D01*
X47914902Y-159177426D01*
X47914901Y-159177432D01*
X47912000Y-159214298D01*
X47912000Y-159645701D01*
X47914901Y-159682567D01*
X47914902Y-159682573D01*
X47960754Y-159840393D01*
X47960754Y-159840394D01*
X47960755Y-159840396D01*
X47960756Y-159840398D01*
X47961633Y-159841881D01*
X47961966Y-159843195D01*
X47963853Y-159847554D01*
X47963149Y-159847858D01*
X47978815Y-159909604D01*
X47963361Y-159962233D01*
X47963853Y-159962446D01*
X47962130Y-159966426D01*
X47961633Y-159968118D01*
X47961006Y-159969177D01*
X47960754Y-159969605D01*
X47960754Y-159969606D01*
X47914902Y-160127426D01*
X47914901Y-160127432D01*
X47912000Y-160164298D01*
X47912000Y-160595701D01*
X47914901Y-160632567D01*
X47914902Y-160632573D01*
X47960754Y-160790393D01*
X47960755Y-160790396D01*
X47960756Y-160790398D01*
X47978572Y-160820524D01*
X48044417Y-160931862D01*
X48044423Y-160931870D01*
X48160629Y-161048076D01*
X48160633Y-161048079D01*
X48160635Y-161048081D01*
X48302102Y-161131744D01*
X48334085Y-161141036D01*
X48459926Y-161177597D01*
X48459929Y-161177597D01*
X48459931Y-161177598D01*
X48496806Y-161180500D01*
X48496814Y-161180500D01*
X49653186Y-161180500D01*
X49653194Y-161180500D01*
X49690069Y-161177598D01*
X49745490Y-161161496D01*
X49815359Y-161161695D01*
X49867767Y-161192891D01*
X50211147Y-161536272D01*
X50211148Y-161536273D01*
X50211151Y-161536275D01*
X50211153Y-161536277D01*
X50317695Y-161607465D01*
X50436078Y-161656501D01*
X50436082Y-161656501D01*
X50436083Y-161656502D01*
X50561750Y-161681500D01*
X50561753Y-161681500D01*
X52138249Y-161681500D01*
X52227952Y-161663656D01*
X52263922Y-161656501D01*
X52382305Y-161607465D01*
X52488847Y-161536277D01*
X54022276Y-160002848D01*
X54032399Y-159987697D01*
X54086008Y-159942894D01*
X54155333Y-159934185D01*
X54218361Y-159964339D01*
X54255081Y-160023781D01*
X54259500Y-160056589D01*
X54259500Y-160294397D01*
X54294582Y-160560880D01*
X54294583Y-160560885D01*
X54294584Y-160560891D01*
X54317105Y-160644940D01*
X54364152Y-160820524D01*
X54467011Y-161068850D01*
X54467019Y-161068866D01*
X54531472Y-161180500D01*
X54601413Y-161301641D01*
X54601415Y-161301644D01*
X54601416Y-161301645D01*
X54765042Y-161514888D01*
X54765048Y-161514895D01*
X54955104Y-161704951D01*
X54955111Y-161704957D01*
X55114323Y-161827124D01*
X55155526Y-161883552D01*
X55159681Y-161953298D01*
X55125469Y-162014218D01*
X55063752Y-162046971D01*
X55038837Y-162049500D01*
X34576468Y-162049500D01*
X34509429Y-162029815D01*
X34463674Y-161977011D01*
X34453730Y-161907853D01*
X34482755Y-161844297D01*
X34511369Y-161819962D01*
X34563656Y-161787712D01*
X34687712Y-161663656D01*
X34779814Y-161514334D01*
X34834999Y-161347797D01*
X34836623Y-161331898D01*
X34837617Y-161329460D01*
X34837243Y-161326853D01*
X34850742Y-161297292D01*
X34863018Y-161267207D01*
X34865173Y-161265693D01*
X34866268Y-161263297D01*
X34893604Y-161245729D01*
X34920198Y-161227055D01*
X34923511Y-161226508D01*
X34925046Y-161225523D01*
X34959981Y-161220500D01*
X35193511Y-161220500D01*
X35260550Y-161240185D01*
X35294237Y-161274808D01*
X35294906Y-161274285D01*
X35299531Y-161280189D01*
X35419811Y-161400469D01*
X35419813Y-161400470D01*
X35419815Y-161400472D01*
X35565394Y-161488478D01*
X35727804Y-161539086D01*
X35798384Y-161545500D01*
X35798387Y-161545500D01*
X36311613Y-161545500D01*
X36311616Y-161545500D01*
X36382196Y-161539086D01*
X36544606Y-161488478D01*
X36690185Y-161400472D01*
X36690189Y-161400468D01*
X36792319Y-161298339D01*
X36853642Y-161264854D01*
X36923334Y-161269838D01*
X36967681Y-161298339D01*
X37069811Y-161400469D01*
X37069813Y-161400470D01*
X37069815Y-161400472D01*
X37215394Y-161488478D01*
X37377804Y-161539086D01*
X37448384Y-161545500D01*
X37448387Y-161545500D01*
X37961613Y-161545500D01*
X37961616Y-161545500D01*
X38032196Y-161539086D01*
X38194606Y-161488478D01*
X38340185Y-161400472D01*
X38460472Y-161280185D01*
X38548478Y-161134606D01*
X38599086Y-160972196D01*
X38605500Y-160901616D01*
X38605500Y-160640807D01*
X38625185Y-160573768D01*
X38641814Y-160553131D01*
X38837821Y-160357124D01*
X38899142Y-160323641D01*
X38968834Y-160328625D01*
X39024767Y-160370497D01*
X39049184Y-160435961D01*
X39049500Y-160444807D01*
X39049500Y-160728102D01*
X39055126Y-160774954D01*
X39060122Y-160816561D01*
X39060122Y-160816563D01*
X39060123Y-160816564D01*
X39063764Y-160825796D01*
X39115639Y-160957343D01*
X39207077Y-161077922D01*
X39327656Y-161169360D01*
X39327657Y-161169360D01*
X39327658Y-161169361D01*
X39468436Y-161224877D01*
X39556898Y-161235500D01*
X39556903Y-161235500D01*
X41103097Y-161235500D01*
X41103102Y-161235500D01*
X41191564Y-161224877D01*
X41269493Y-161194145D01*
X41314982Y-161185500D01*
X42929071Y-161185500D01*
X43013615Y-161168682D01*
X43054744Y-161160501D01*
X43173127Y-161111465D01*
X43180633Y-161106449D01*
X43183179Y-161104749D01*
X43236906Y-161068850D01*
X43279669Y-161040277D01*
X43990576Y-160329370D01*
X44051899Y-160295885D01*
X44121590Y-160300869D01*
X44165938Y-160329370D01*
X44876839Y-161040272D01*
X44876846Y-161040278D01*
X44983377Y-161111459D01*
X44983379Y-161111460D01*
X44983388Y-161111466D01*
X45030175Y-161130845D01*
X45057646Y-161146602D01*
X45087656Y-161169360D01*
X45087657Y-161169360D01*
X45087658Y-161169361D01*
X45228436Y-161224877D01*
X45316898Y-161235500D01*
X45316903Y-161235500D01*
X46863097Y-161235500D01*
X46863102Y-161235500D01*
X46951564Y-161224877D01*
X47092342Y-161169361D01*
X47212922Y-161077922D01*
X47304361Y-160957342D01*
X47359877Y-160816564D01*
X47370500Y-160728102D01*
X47370500Y-160341898D01*
X47359877Y-160253436D01*
X47359876Y-160253434D01*
X47359876Y-160253432D01*
X47357930Y-160245732D01*
X47359561Y-160245319D01*
X47354136Y-160185221D01*
X47357752Y-160172906D01*
X47359386Y-160166442D01*
X47369167Y-160085000D01*
X47344976Y-160085000D01*
X47277937Y-160065315D01*
X47261854Y-160053014D01*
X47253209Y-160045204D01*
X47212922Y-159992078D01*
X47097554Y-159904591D01*
X47093594Y-159901014D01*
X47077993Y-159875599D01*
X47060267Y-159851611D01*
X47059909Y-159846140D01*
X47057042Y-159841468D01*
X47057658Y-159811647D01*
X47055716Y-159781890D01*
X47058372Y-159777095D01*
X47058486Y-159771613D01*
X47075126Y-159746860D01*
X47089581Y-159720776D01*
X47094409Y-159718178D01*
X47097468Y-159713629D01*
X47124840Y-159701806D01*
X47151111Y-159687672D01*
X47159618Y-159686784D01*
X47161610Y-159685924D01*
X47164032Y-159686323D01*
X47176716Y-159685000D01*
X47369167Y-159685000D01*
X47359386Y-159603557D01*
X47357437Y-159595845D01*
X47359238Y-159595389D01*
X47353865Y-159535912D01*
X47358175Y-159521231D01*
X47359386Y-159516442D01*
X47369167Y-159435000D01*
X47176716Y-159435000D01*
X47152549Y-159427903D01*
X47127547Y-159424835D01*
X47119595Y-159418227D01*
X47109677Y-159415315D01*
X47093183Y-159396280D01*
X47073809Y-159380181D01*
X47070691Y-159370323D01*
X47063922Y-159362511D01*
X47060337Y-159337581D01*
X47052742Y-159313563D01*
X47055449Y-159303584D01*
X47053978Y-159293353D01*
X47064441Y-159270441D01*
X47071037Y-159246131D01*
X47080121Y-159236107D01*
X47083003Y-159229797D01*
X47093594Y-159218986D01*
X47097554Y-159215408D01*
X47212922Y-159127922D01*
X47253209Y-159074795D01*
X47261854Y-159066986D01*
X47283255Y-159056672D01*
X47302364Y-159042552D01*
X47318483Y-159039695D01*
X47324796Y-159036653D01*
X47331208Y-159037440D01*
X47344976Y-159035000D01*
X47369167Y-159035000D01*
X47359386Y-158953557D01*
X47357437Y-158945845D01*
X47359441Y-158945338D01*
X47354134Y-158886594D01*
X47359018Y-158869960D01*
X47359874Y-158866571D01*
X47359877Y-158866564D01*
X47370500Y-158778102D01*
X47370500Y-158391898D01*
X47359877Y-158303436D01*
X47304361Y-158162658D01*
X47304360Y-158162657D01*
X47304360Y-158162656D01*
X47212922Y-158042077D01*
X47092343Y-157950639D01*
X46951561Y-157895122D01*
X46905926Y-157889642D01*
X46863102Y-157884500D01*
X46863097Y-157884500D01*
X45834808Y-157884500D01*
X45767769Y-157864815D01*
X45722014Y-157812011D01*
X45712070Y-157742853D01*
X45741095Y-157679297D01*
X45747127Y-157672819D01*
X46038771Y-157381175D01*
X46038776Y-157381170D01*
X46095982Y-157295554D01*
X46109964Y-157274629D01*
X46117329Y-157256849D01*
X46159001Y-157156244D01*
X46171238Y-157094724D01*
X46184000Y-157030569D01*
X46184000Y-156114000D01*
X46203685Y-156046961D01*
X46256489Y-156001206D01*
X46308000Y-155990000D01*
X46558500Y-155990000D01*
X46625539Y-156009685D01*
G37*
%TD.AperFunction*%
%TA.AperFunction,Conductor*%
G36*
X40395539Y-156179685D02*
G01*
X40441294Y-156232489D01*
X40452500Y-156284000D01*
X40452500Y-156960000D01*
X40683014Y-156960000D01*
X40750053Y-156979685D01*
X40770695Y-156996319D01*
X41879647Y-158105272D01*
X41879654Y-158105278D01*
X41965528Y-158162656D01*
X41986196Y-158176466D01*
X42055543Y-158205189D01*
X42104578Y-158225501D01*
X42104581Y-158225501D01*
X42104582Y-158225502D01*
X42230250Y-158250500D01*
X42230253Y-158250500D01*
X42358391Y-158250500D01*
X42395065Y-158250500D01*
X42462104Y-158270185D01*
X42463909Y-158271366D01*
X42520821Y-158309394D01*
X42520823Y-158309395D01*
X42520827Y-158309397D01*
X42666498Y-158369735D01*
X42666503Y-158369737D01*
X42760645Y-158388463D01*
X42800691Y-158396429D01*
X42862602Y-158428814D01*
X42897176Y-158489529D01*
X42900500Y-158518046D01*
X42900500Y-159528192D01*
X42880815Y-159595231D01*
X42864181Y-159615873D01*
X42631873Y-159848181D01*
X42570550Y-159881666D01*
X42544192Y-159884500D01*
X41734000Y-159884500D01*
X41730872Y-159883581D01*
X41727703Y-159884340D01*
X41697578Y-159873805D01*
X41666961Y-159864815D01*
X41664826Y-159862351D01*
X41661750Y-159861276D01*
X41642098Y-159836122D01*
X41621206Y-159812011D01*
X41620143Y-159808019D01*
X41618735Y-159806217D01*
X41616375Y-159793869D01*
X41610524Y-159771891D01*
X41592027Y-159571391D01*
X41595479Y-159553781D01*
X41593865Y-159535912D01*
X41598175Y-159521231D01*
X41599386Y-159516442D01*
X41609167Y-159435000D01*
X41416716Y-159435000D01*
X41392549Y-159427903D01*
X41367547Y-159424835D01*
X41359595Y-159418227D01*
X41349677Y-159415315D01*
X41333183Y-159396280D01*
X41313809Y-159380181D01*
X41310691Y-159370323D01*
X41303922Y-159362511D01*
X41300337Y-159337581D01*
X41292742Y-159313563D01*
X41295449Y-159303584D01*
X41293978Y-159293353D01*
X41304441Y-159270441D01*
X41311037Y-159246131D01*
X41320121Y-159236107D01*
X41323003Y-159229797D01*
X41333594Y-159218986D01*
X41337554Y-159215408D01*
X41452922Y-159127922D01*
X41493209Y-159074795D01*
X41501854Y-159066986D01*
X41523255Y-159056672D01*
X41542364Y-159042552D01*
X41558483Y-159039695D01*
X41564796Y-159036653D01*
X41571208Y-159037440D01*
X41584976Y-159035000D01*
X41609167Y-159035000D01*
X41599386Y-158953557D01*
X41597437Y-158945845D01*
X41599441Y-158945338D01*
X41594134Y-158886594D01*
X41599018Y-158869960D01*
X41599874Y-158866571D01*
X41599877Y-158866564D01*
X41610500Y-158778102D01*
X41610500Y-158391898D01*
X41599877Y-158303436D01*
X41544361Y-158162658D01*
X41544360Y-158162657D01*
X41544360Y-158162656D01*
X41452922Y-158042077D01*
X41332343Y-157950639D01*
X41191561Y-157895122D01*
X41145926Y-157889642D01*
X41103102Y-157884500D01*
X41103097Y-157884500D01*
X39963500Y-157884500D01*
X39896461Y-157864815D01*
X39850706Y-157812011D01*
X39839500Y-157760500D01*
X39839500Y-157084000D01*
X39859185Y-157016961D01*
X39911989Y-156971206D01*
X39949441Y-156963058D01*
X39952500Y-156960000D01*
X39952500Y-156284000D01*
X39972185Y-156216961D01*
X40024989Y-156171206D01*
X40076500Y-156160000D01*
X40328500Y-156160000D01*
X40395539Y-156179685D01*
G37*
%TD.AperFunction*%
%TA.AperFunction,Conductor*%
G36*
X54445926Y-146603481D02*
G01*
X54448967Y-146603191D01*
X54477497Y-146617899D01*
X54506703Y-146631237D01*
X54509173Y-146634229D01*
X54511070Y-146635207D01*
X54532885Y-146662948D01*
X54601413Y-146781641D01*
X54601415Y-146781644D01*
X54601416Y-146781645D01*
X54765042Y-146994888D01*
X54765048Y-146994895D01*
X54955104Y-147184951D01*
X54955111Y-147184957D01*
X55070463Y-147273469D01*
X55168359Y-147348587D01*
X55313172Y-147432195D01*
X55401133Y-147482980D01*
X55401149Y-147482988D01*
X55556008Y-147547132D01*
X55649474Y-147585847D01*
X55909109Y-147655416D01*
X56097319Y-147680193D01*
X56175602Y-147690500D01*
X56175603Y-147690500D01*
X56444398Y-147690500D01*
X56504905Y-147682534D01*
X56710891Y-147655416D01*
X56970526Y-147585847D01*
X57211363Y-147486089D01*
X57218850Y-147482988D01*
X57218853Y-147482986D01*
X57218859Y-147482984D01*
X57451641Y-147348587D01*
X57664890Y-147184956D01*
X57854956Y-146994890D01*
X57977124Y-146835677D01*
X58033552Y-146794474D01*
X58103298Y-146790319D01*
X58164218Y-146824531D01*
X58196971Y-146886248D01*
X58199500Y-146911163D01*
X58199500Y-158888836D01*
X58179815Y-158955875D01*
X58127011Y-159001630D01*
X58057853Y-159011574D01*
X57994297Y-158982549D01*
X57977124Y-158964322D01*
X57854957Y-158805111D01*
X57854951Y-158805104D01*
X57664895Y-158615048D01*
X57664888Y-158615042D01*
X57451645Y-158451416D01*
X57451644Y-158451415D01*
X57451641Y-158451413D01*
X57348558Y-158391898D01*
X57218866Y-158317019D01*
X57218850Y-158317011D01*
X56970524Y-158214152D01*
X56813037Y-158171954D01*
X56710891Y-158144584D01*
X56710885Y-158144583D01*
X56710880Y-158144582D01*
X56444398Y-158109500D01*
X56444397Y-158109500D01*
X56175603Y-158109500D01*
X56175602Y-158109500D01*
X55909119Y-158144582D01*
X55909112Y-158144583D01*
X55909109Y-158144584D01*
X55890210Y-158149648D01*
X55649475Y-158214152D01*
X55401149Y-158317011D01*
X55401133Y-158317019D01*
X55168354Y-158451416D01*
X54955111Y-158615042D01*
X54955104Y-158615048D01*
X54765048Y-158805104D01*
X54765042Y-158805111D01*
X54601416Y-159018354D01*
X54467019Y-159251133D01*
X54467014Y-159251144D01*
X54406061Y-159398299D01*
X54362220Y-159452702D01*
X54295926Y-159474767D01*
X54228227Y-159457488D01*
X54180616Y-159406351D01*
X54167500Y-159350846D01*
X54167500Y-157795113D01*
X54187185Y-157728074D01*
X54239989Y-157682319D01*
X54309147Y-157672375D01*
X54356602Y-157689578D01*
X54365019Y-157694770D01*
X54365027Y-157694774D01*
X54530395Y-157749571D01*
X54632461Y-157759999D01*
X54632474Y-157760000D01*
X55550000Y-157760000D01*
X56050000Y-157760000D01*
X56967526Y-157760000D01*
X56967538Y-157759999D01*
X57069604Y-157749571D01*
X57234972Y-157694774D01*
X57234983Y-157694769D01*
X57383248Y-157603317D01*
X57383252Y-157603314D01*
X57506439Y-157480127D01*
X57506442Y-157480123D01*
X57597894Y-157331858D01*
X57597899Y-157331847D01*
X57652696Y-157166479D01*
X57663124Y-157064413D01*
X57663125Y-157064400D01*
X57663125Y-156692500D01*
X56050000Y-156692500D01*
X56050000Y-157760000D01*
X55550000Y-157760000D01*
X55550000Y-156566500D01*
X55569685Y-156499461D01*
X55622489Y-156453706D01*
X55674000Y-156442500D01*
X55800000Y-156442500D01*
X55800000Y-156316500D01*
X55819685Y-156249461D01*
X55872489Y-156203706D01*
X55924000Y-156192500D01*
X57663125Y-156192500D01*
X57663125Y-155820599D01*
X57663124Y-155820586D01*
X57652696Y-155718520D01*
X57597899Y-155553152D01*
X57597896Y-155553145D01*
X57570095Y-155508074D01*
X57551654Y-155440682D01*
X57570095Y-155377878D01*
X57598355Y-155332063D01*
X57653190Y-155166580D01*
X57663625Y-155064443D01*
X57663624Y-153820558D01*
X57653190Y-153718420D01*
X57598355Y-153552937D01*
X57506835Y-153404560D01*
X57383565Y-153281290D01*
X57235188Y-153189770D01*
X57221979Y-153185393D01*
X57069705Y-153134934D01*
X56967575Y-153124500D01*
X56967568Y-153124500D01*
X55453308Y-153124500D01*
X55423867Y-153115855D01*
X55393881Y-153109332D01*
X55388865Y-153105577D01*
X55386269Y-153104815D01*
X55365627Y-153088181D01*
X55249127Y-152971681D01*
X55215642Y-152910358D01*
X55220626Y-152840666D01*
X55262498Y-152784733D01*
X55327962Y-152760316D01*
X55336808Y-152760000D01*
X55550000Y-152760000D01*
X56050000Y-152760000D01*
X56967526Y-152760000D01*
X56967538Y-152759999D01*
X57069604Y-152749571D01*
X57234972Y-152694774D01*
X57234983Y-152694769D01*
X57383248Y-152603317D01*
X57383252Y-152603314D01*
X57506439Y-152480127D01*
X57506442Y-152480123D01*
X57597894Y-152331858D01*
X57597899Y-152331847D01*
X57652696Y-152166479D01*
X57663124Y-152064413D01*
X57663125Y-152064400D01*
X57663125Y-151692500D01*
X56050000Y-151692500D01*
X56050000Y-152760000D01*
X55550000Y-152760000D01*
X55550000Y-151566500D01*
X55569685Y-151499461D01*
X55622489Y-151453706D01*
X55674000Y-151442500D01*
X55800000Y-151442500D01*
X55800000Y-151316500D01*
X55819685Y-151249461D01*
X55872489Y-151203706D01*
X55924000Y-151192500D01*
X57663125Y-151192500D01*
X57663125Y-150820599D01*
X57663124Y-150820586D01*
X57652696Y-150718520D01*
X57597899Y-150553152D01*
X57597896Y-150553145D01*
X57570095Y-150508074D01*
X57551654Y-150440682D01*
X57570095Y-150377878D01*
X57598355Y-150332063D01*
X57653190Y-150166580D01*
X57663625Y-150064443D01*
X57663624Y-148820558D01*
X57653190Y-148718420D01*
X57598355Y-148552937D01*
X57506835Y-148404560D01*
X57383565Y-148281290D01*
X57291387Y-148224434D01*
X57235190Y-148189771D01*
X57235185Y-148189769D01*
X57069705Y-148134934D01*
X56967575Y-148124500D01*
X56967568Y-148124500D01*
X55453308Y-148124500D01*
X55386269Y-148104815D01*
X55365627Y-148088181D01*
X54337819Y-147060373D01*
X54304334Y-146999050D01*
X54301500Y-146972692D01*
X54301500Y-146724950D01*
X54302360Y-146722019D01*
X54301640Y-146719050D01*
X54312144Y-146688697D01*
X54321185Y-146657911D01*
X54323492Y-146655911D01*
X54324492Y-146653023D01*
X54349741Y-146633166D01*
X54373989Y-146612156D01*
X54377011Y-146611721D01*
X54379414Y-146609832D01*
X54411376Y-146606780D01*
X54443147Y-146602212D01*
X54445926Y-146603481D01*
G37*
%TD.AperFunction*%
%TA.AperFunction,Conductor*%
G36*
X47846231Y-152775185D02*
G01*
X47866873Y-152791819D01*
X49730141Y-154655087D01*
X49763626Y-154716410D01*
X49760846Y-154779654D01*
X49757493Y-154790417D01*
X49720913Y-154907807D01*
X49714500Y-154978386D01*
X49714500Y-155641613D01*
X49720913Y-155712192D01*
X49720913Y-155712194D01*
X49720914Y-155712196D01*
X49771522Y-155874606D01*
X49853272Y-156009837D01*
X49859530Y-156020188D01*
X49979811Y-156140469D01*
X49979813Y-156140470D01*
X49979815Y-156140472D01*
X50125394Y-156228478D01*
X50287804Y-156279086D01*
X50358384Y-156285500D01*
X50358387Y-156285500D01*
X50871613Y-156285500D01*
X50871616Y-156285500D01*
X50942196Y-156279086D01*
X51104606Y-156228478D01*
X51250185Y-156140472D01*
X51352320Y-156038336D01*
X51360265Y-156033998D01*
X51365690Y-156026752D01*
X51390446Y-156017518D01*
X51413641Y-156004853D01*
X51422671Y-156005498D01*
X51431154Y-156002335D01*
X51456974Y-156007951D01*
X51483333Y-156009837D01*
X51492386Y-156015655D01*
X51499427Y-156017187D01*
X51527681Y-156038338D01*
X51578181Y-156088838D01*
X51611666Y-156150161D01*
X51614500Y-156176519D01*
X51614500Y-157244192D01*
X51594815Y-157311231D01*
X51578181Y-157331873D01*
X51266873Y-157643181D01*
X51205550Y-157676666D01*
X51179192Y-157679500D01*
X50771798Y-157679500D01*
X50734932Y-157682401D01*
X50734926Y-157682402D01*
X50577106Y-157728254D01*
X50577103Y-157728255D01*
X50435637Y-157811917D01*
X50435629Y-157811923D01*
X50319423Y-157928129D01*
X50319414Y-157928140D01*
X50319229Y-157928455D01*
X50319019Y-157928650D01*
X50314639Y-157934298D01*
X50313727Y-157933591D01*
X50268157Y-157976136D01*
X50199415Y-157988637D01*
X50134827Y-157961988D01*
X50110643Y-157934078D01*
X50110361Y-157934298D01*
X50106323Y-157929092D01*
X50105771Y-157928455D01*
X50105585Y-157928140D01*
X50105576Y-157928129D01*
X49989370Y-157811923D01*
X49989362Y-157811917D01*
X49847897Y-157728255D01*
X49814902Y-157718669D01*
X49756017Y-157681061D01*
X49726813Y-157617588D01*
X49725500Y-157599593D01*
X49725500Y-156810928D01*
X49700502Y-156685261D01*
X49700501Y-156685260D01*
X49700501Y-156685256D01*
X49651465Y-156566873D01*
X49647988Y-156561669D01*
X49580276Y-156460330D01*
X49580274Y-156460327D01*
X49580273Y-156460326D01*
X47217014Y-154097068D01*
X47209754Y-154085061D01*
X47201511Y-154078156D01*
X47192711Y-154056875D01*
X47186317Y-154046300D01*
X47184362Y-154040031D01*
X47169737Y-153966503D01*
X47136150Y-153885417D01*
X47134480Y-153880060D01*
X47133987Y-153850514D01*
X47130828Y-153821130D01*
X47133411Y-153815969D01*
X47133315Y-153810200D01*
X47148877Y-153785073D01*
X47162104Y-153758651D01*
X47167065Y-153755707D01*
X47170105Y-153750800D01*
X47196784Y-153738074D01*
X47211223Y-153729507D01*
X47210215Y-153726802D01*
X47322712Y-153684843D01*
X47352331Y-153673796D01*
X47467546Y-153587546D01*
X47553796Y-153472331D01*
X47604091Y-153337483D01*
X47610500Y-153277873D01*
X47610500Y-152879500D01*
X47613050Y-152870814D01*
X47611762Y-152861853D01*
X47622740Y-152837812D01*
X47630185Y-152812461D01*
X47637025Y-152806533D01*
X47640787Y-152798297D01*
X47663021Y-152784007D01*
X47682989Y-152766706D01*
X47693503Y-152764418D01*
X47699565Y-152760523D01*
X47734500Y-152755500D01*
X47779192Y-152755500D01*
X47846231Y-152775185D01*
G37*
%TD.AperFunction*%
%TA.AperFunction,Conductor*%
G36*
X52308539Y-149759685D02*
G01*
X52354294Y-149812489D01*
X52365500Y-149864000D01*
X52365500Y-154191192D01*
X52345815Y-154258231D01*
X52293011Y-154303986D01*
X52223853Y-154313930D01*
X52160297Y-154284905D01*
X52153819Y-154278873D01*
X51300482Y-153425536D01*
X51266997Y-153364213D01*
X51271981Y-153294521D01*
X51300480Y-153250176D01*
X51322674Y-153227982D01*
X51383995Y-153194499D01*
X51453687Y-153199483D01*
X51498034Y-153227984D01*
X51600122Y-153330072D01*
X51745604Y-153418019D01*
X51745603Y-153418019D01*
X51907894Y-153468590D01*
X51907893Y-153468590D01*
X51978408Y-153474998D01*
X51978426Y-153474999D01*
X51984999Y-153474998D01*
X51985000Y-153474998D01*
X51985000Y-151525000D01*
X51984999Y-151524999D01*
X51978436Y-151525000D01*
X51978417Y-151525001D01*
X51907897Y-151531408D01*
X51907892Y-151531409D01*
X51745603Y-151581981D01*
X51600122Y-151669927D01*
X51600121Y-151669928D01*
X51498035Y-151772015D01*
X51436712Y-151805500D01*
X51367020Y-151800516D01*
X51322673Y-151772015D01*
X51220188Y-151669530D01*
X51123869Y-151611303D01*
X51074606Y-151581522D01*
X50912196Y-151530914D01*
X50912194Y-151530913D01*
X50912192Y-151530913D01*
X50862778Y-151526423D01*
X50841616Y-151524500D01*
X50328384Y-151524500D01*
X50309145Y-151526248D01*
X50257807Y-151530913D01*
X50095391Y-151581523D01*
X50028784Y-151621788D01*
X49961229Y-151639624D01*
X49894756Y-151618106D01*
X49850468Y-151564065D01*
X49842428Y-151494659D01*
X49873188Y-151431925D01*
X49876920Y-151428024D01*
X50553127Y-150751817D01*
X50614450Y-150718333D01*
X50640808Y-150715499D01*
X50918338Y-150715499D01*
X50918344Y-150715499D01*
X50918352Y-150715498D01*
X50918355Y-150715498D01*
X50972760Y-150709940D01*
X51017708Y-150705349D01*
X51178697Y-150652003D01*
X51323044Y-150562968D01*
X51332668Y-150553343D01*
X51393987Y-150519856D01*
X51463679Y-150524835D01*
X51508034Y-150553339D01*
X51517267Y-150562572D01*
X51517271Y-150562575D01*
X51661507Y-150651542D01*
X51661518Y-150651547D01*
X51822393Y-150704855D01*
X51921683Y-150714999D01*
X51945000Y-150714998D01*
X51945000Y-149864000D01*
X51947550Y-149855314D01*
X51946262Y-149846353D01*
X51957240Y-149822312D01*
X51964685Y-149796961D01*
X51971525Y-149791033D01*
X51975287Y-149782797D01*
X51997521Y-149768507D01*
X52017489Y-149751206D01*
X52028003Y-149748918D01*
X52034065Y-149745023D01*
X52069000Y-149740000D01*
X52241500Y-149740000D01*
X52308539Y-149759685D01*
G37*
%TD.AperFunction*%
%TA.AperFunction,Conductor*%
G36*
X36278039Y-152189685D02*
G01*
X36323794Y-152242489D01*
X36335000Y-152294000D01*
X36335000Y-153144999D01*
X36358308Y-153144999D01*
X36358322Y-153144998D01*
X36457607Y-153134855D01*
X36618481Y-153081547D01*
X36618492Y-153081542D01*
X36762731Y-152992573D01*
X36771959Y-152983345D01*
X36779907Y-152979003D01*
X36785336Y-152971753D01*
X36810090Y-152962519D01*
X36833279Y-152949856D01*
X36842313Y-152950501D01*
X36850800Y-152947336D01*
X36876617Y-152952952D01*
X36902971Y-152954835D01*
X36912028Y-152960655D01*
X36919073Y-152962188D01*
X36947327Y-152983339D01*
X36948181Y-152984193D01*
X36981666Y-153045516D01*
X36984500Y-153071874D01*
X36984500Y-153633480D01*
X36964815Y-153700519D01*
X36948181Y-153721161D01*
X36947681Y-153721661D01*
X36886358Y-153755146D01*
X36816666Y-153750162D01*
X36772319Y-153721661D01*
X36670188Y-153619530D01*
X36667971Y-153618190D01*
X36524606Y-153531522D01*
X36362196Y-153480914D01*
X36362194Y-153480913D01*
X36362192Y-153480913D01*
X36312778Y-153476423D01*
X36291616Y-153474500D01*
X36291613Y-153474500D01*
X36058500Y-153474500D01*
X35991461Y-153454815D01*
X35945706Y-153402011D01*
X35934500Y-153350500D01*
X35934500Y-152294000D01*
X35937050Y-152285314D01*
X35935762Y-152276353D01*
X35946740Y-152252312D01*
X35954185Y-152226961D01*
X35961025Y-152221033D01*
X35964787Y-152212797D01*
X35987021Y-152198507D01*
X36006989Y-152181206D01*
X36017503Y-152178918D01*
X36023565Y-152175023D01*
X36058500Y-152170000D01*
X36211000Y-152170000D01*
X36278039Y-152189685D01*
G37*
%TD.AperFunction*%
%TA.AperFunction,Conductor*%
G36*
X38020621Y-150391185D02*
G01*
X38066376Y-150443989D01*
X38076320Y-150513147D01*
X38068143Y-150542950D01*
X38065673Y-150548914D01*
X38062499Y-150556577D01*
X38062497Y-150556583D01*
X38037500Y-150682250D01*
X38037500Y-151070601D01*
X38017815Y-151137640D01*
X37965011Y-151183395D01*
X37911502Y-151193627D01*
X37911502Y-151194500D01*
X37361662Y-151194500D01*
X37361644Y-151194501D01*
X37262292Y-151204650D01*
X37262289Y-151204651D01*
X37101305Y-151257996D01*
X37101294Y-151258001D01*
X36956959Y-151347029D01*
X36956953Y-151347033D01*
X36947324Y-151356663D01*
X36945585Y-151357612D01*
X36944583Y-151359321D01*
X36915044Y-151374287D01*
X36886000Y-151390146D01*
X36884025Y-151390004D01*
X36882258Y-151390900D01*
X36849324Y-151387521D01*
X36816308Y-151385159D01*
X36814098Y-151383908D01*
X36812753Y-151383770D01*
X36806412Y-151379555D01*
X36782312Y-151365909D01*
X36741073Y-151333007D01*
X36725139Y-151310295D01*
X36706586Y-151289668D01*
X36705353Y-151282093D01*
X36700945Y-151275810D01*
X36699819Y-151248090D01*
X36695363Y-151220705D01*
X36698422Y-151213664D01*
X36698111Y-151205997D01*
X36712149Y-151182070D01*
X36723207Y-151156623D01*
X36730704Y-151148419D01*
X37471305Y-150407819D01*
X37532628Y-150374334D01*
X37558986Y-150371500D01*
X37953582Y-150371500D01*
X38020621Y-150391185D01*
G37*
%TD.AperFunction*%
%TA.AperFunction,Conductor*%
G36*
X28208910Y-147928856D02*
G01*
X29708181Y-149428127D01*
X29722884Y-149455054D01*
X29739477Y-149480873D01*
X29740368Y-149487073D01*
X29741666Y-149489450D01*
X29744500Y-149515808D01*
X29744500Y-149675500D01*
X29724815Y-149742539D01*
X29672011Y-149788294D01*
X29620500Y-149799500D01*
X28178231Y-149799500D01*
X28111192Y-149779815D01*
X28103920Y-149774767D01*
X28012331Y-149706204D01*
X28012328Y-149706202D01*
X27877482Y-149655908D01*
X27877483Y-149655908D01*
X27817883Y-149649501D01*
X27817881Y-149649500D01*
X27817873Y-149649500D01*
X27817865Y-149649500D01*
X27324000Y-149649500D01*
X27315314Y-149646949D01*
X27306353Y-149648238D01*
X27282312Y-149637259D01*
X27256961Y-149629815D01*
X27251033Y-149622974D01*
X27242797Y-149619213D01*
X27228507Y-149596978D01*
X27211206Y-149577011D01*
X27208918Y-149566496D01*
X27205023Y-149560435D01*
X27200000Y-149525500D01*
X27200000Y-149524000D01*
X27219685Y-149456961D01*
X27272489Y-149411206D01*
X27324000Y-149400000D01*
X28270000Y-149400000D01*
X28270000Y-149302172D01*
X28269999Y-149302155D01*
X28263598Y-149242627D01*
X28263596Y-149242620D01*
X28213354Y-149107913D01*
X28213350Y-149107906D01*
X28127191Y-148992814D01*
X28127186Y-148992809D01*
X28110650Y-148980430D01*
X28068779Y-148924496D01*
X28063795Y-148854805D01*
X28070401Y-148833708D01*
X28083490Y-148802108D01*
X28088884Y-148775000D01*
X27336988Y-148775000D01*
X27354205Y-148765060D01*
X27410060Y-148709205D01*
X27449556Y-148640796D01*
X27470000Y-148564496D01*
X27470000Y-148485504D01*
X27449556Y-148409204D01*
X27410060Y-148340795D01*
X27354205Y-148284940D01*
X27336988Y-148275000D01*
X28088884Y-148275000D01*
X28088884Y-148274999D01*
X28083493Y-148247899D01*
X28083492Y-148247896D01*
X28011879Y-148075007D01*
X28011871Y-148074991D01*
X28011869Y-148074981D01*
X28009548Y-148069378D01*
X28010610Y-148068937D01*
X27997629Y-148006588D01*
X28022628Y-147941344D01*
X28078933Y-147899973D01*
X28148666Y-147895611D01*
X28208910Y-147928856D01*
G37*
%TD.AperFunction*%
%TD*%
M02*
