M48
; DRILL file {KiCad 9.0.4} date 2026-03-02T15:50:38+0100
; FORMAT={-:-/ absolute / metric / decimal}
; #@! TF.CreationDate,2026-03-02T15:50:38+01:00
; #@! TF.GenerationSoftware,Kicad,Pcbnew,9.0.4
; #@! TF.FileFunction,Plated,1,2,PTH
FMAT,2
METRIC
; #@! TA.AperFunction,Plated,PTH,ComponentDrill
T1C0.200
; #@! TA.AperFunction,Plated,PTH,ViaDrill
T2C0.300
; #@! TA.AperFunction,Plated,PTH,ComponentDrill
T3C0.600
%
G90
G05
T1
X37.02Y-146.52
X37.02Y-147.72
X37.02Y-148.92
X38.42Y-146.52
X38.42Y-147.72
X38.42Y-148.92
T2
X24.8Y-158.3
X24.9Y-147.4
X28.7Y-149.3
X28.9Y-161.4
X32.55Y-148.25
X33.4Y-146.0
X33.7Y-151.0
X33.9Y-154.2
X34.3Y-152.6
X36.5Y-155.7
X37.5Y-145.1
X37.6Y-150.8
X40.5Y-157.4
X40.7Y-152.6
X42.013Y-150.411
X42.3Y-159.8
X42.9Y-157.6
X46.4Y-154.2
X47.6Y-157.6
X48.5Y-144.0
X49.0Y-155.2
X51.271Y-151.143
X53.7Y-160.9
X53.8Y-154.0
X57.6Y-152.9
T3
G00X22.85Y-148.525
M15
G01X22.05Y-148.525
M16
G05
G00X22.85Y-157.175
M15
G01X22.05Y-157.175
M16
G05
G00X27.17Y-148.525
M15
G01X26.07Y-148.525
M16
G05
G00X27.17Y-157.175
M15
G01X26.07Y-157.175
M16
G05
M30
